M48
; DRILL file {KiCad 5.1.6-c6e7f7d~86~ubuntu18.04.1} date Wed Jun 24 19:02:37 2020
; FORMAT={-:-/ absolute / metric / decimal}
; #@! TF.CreationDate,2020-06-24T19:02:37+01:00
; #@! TF.GenerationSoftware,Kicad,Pcbnew,5.1.6-c6e7f7d~86~ubuntu18.04.1
; #@! TF.FileFunction,Plated,1,2,PTH
FMAT,2
METRIC
T1C0.400
T2C0.800
T3C0.900
T4C1.000
T5C1.100
%
G90
G05
T1
X91.44Y-86.36
X92.71Y-114.3
X95.44Y-90.36
X115.57Y-102.87
X116.84Y-78.74
X119.38Y-111.76
X132.08Y-85.09
X142.24Y-111.76
X154.94Y-109.22
X156.21Y-105.41
X156.21Y-132.08
X157.48Y-92.71
X158.75Y-100.33
X160.02Y-81.28
X160.02Y-121.92
T2
X82.55Y-116.84
X82.55Y-118.84
X86.4Y-99.06
X88.9Y-99.06
X104.14Y-124.46
X104.14Y-134.62
X80.01Y-106.68
X80.01Y-111.68
X97.79Y-76.2
X107.95Y-76.2
X86.36Y-106.68
X86.36Y-111.68
X171.45Y-88.94
X171.45Y-91.44
X109.22Y-124.46
X109.22Y-134.62
X100.37Y-99.06
X102.87Y-99.06
T3
X101.6Y-66.04
X101.6Y-68.58
T4
X151.13Y-95.25
X151.13Y-97.79
X151.13Y-100.33
X151.13Y-102.87
X151.13Y-105.41
X151.13Y-107.95
X151.13Y-110.49
X151.13Y-113.03
X137.16Y-67.31
X137.16Y-69.85
X137.16Y-72.39
X137.16Y-74.93
X137.16Y-77.47
X137.16Y-80.01
X137.16Y-82.55
X137.16Y-85.09
X137.16Y-87.63
X137.16Y-90.17
X137.16Y-92.71
X137.16Y-95.25
X137.16Y-97.79
X137.16Y-100.33
X137.16Y-102.87
X137.16Y-105.41
X137.16Y-107.95
X137.16Y-110.49
X137.16Y-113.03
X115.57Y-125.73
X115.57Y-128.27
X111.76Y-67.31
X111.76Y-69.85
X111.76Y-72.39
X111.76Y-74.93
X111.76Y-77.47
X111.76Y-80.01
X111.76Y-82.55
X111.76Y-85.09
X111.76Y-87.63
X111.76Y-90.17
X111.76Y-92.71
X111.76Y-95.25
X111.76Y-97.79
X111.76Y-100.33
X111.76Y-102.87
X111.76Y-105.41
X111.76Y-107.95
X111.76Y-110.49
X111.76Y-113.03
X151.13Y-125.73
X151.13Y-128.27
X151.13Y-130.81
X151.13Y-133.35
X163.83Y-95.25
X163.83Y-97.79
X163.83Y-100.33
X163.83Y-102.87
X163.83Y-105.41
X163.83Y-107.95
X163.83Y-110.49
X163.83Y-113.03
X137.16Y-125.73
X137.16Y-128.27
X137.16Y-130.81
X137.16Y-133.35
X163.83Y-68.58
X163.83Y-71.12
X163.83Y-73.66
X163.83Y-76.2
X163.83Y-78.74
X163.83Y-81.28
X163.83Y-83.82
X163.83Y-86.36
X173.99Y-73.66
X173.99Y-76.2
X173.99Y-78.74
X173.99Y-81.28
X173.99Y-100.33
X173.99Y-102.87
X173.99Y-105.41
X173.99Y-107.95
X115.57Y-132.08
X115.57Y-134.62
X151.13Y-68.58
X151.13Y-71.12
X151.13Y-73.66
X151.13Y-76.2
X151.13Y-78.74
X151.13Y-81.28
X151.13Y-83.82
X151.13Y-86.36
T5
X80.01Y-80.01
X80.01Y-90.17
T4
G00X85.47Y-73.47
M15
G01X85.47Y-75.47
M16
G05
G00X91.17Y-71.47
M15
G01X89.17Y-71.47
M16
G05
G00X91.17Y-77.47
M15
G01X89.17Y-77.47
M16
G05
T0
M30
