G04 #@! TF.GenerationSoftware,KiCad,Pcbnew,5.1.6-c6e7f7d~86~ubuntu18.04.1*
G04 #@! TF.CreationDate,2020-06-24T19:05:53+01:00*
G04 #@! TF.ProjectId,placa_modular,706c6163-615f-46d6-9f64-756c61722e6b,V1.0*
G04 #@! TF.SameCoordinates,Original*
G04 #@! TF.FileFunction,Soldermask,Bot*
G04 #@! TF.FilePolarity,Negative*
%FSLAX46Y46*%
G04 Gerber Fmt 4.6, Leading zero omitted, Abs format (unit mm)*
G04 Created by KiCad (PCBNEW 5.1.6-c6e7f7d~86~ubuntu18.04.1) date 2020-06-24 19:05:53*
%MOMM*%
%LPD*%
G01*
G04 APERTURE LIST*
%ADD10C,0.100000*%
G04 APERTURE END LIST*
D10*
G36*
X174365256Y-134281298D02*
G01*
X174471579Y-134302447D01*
X174772042Y-134426903D01*
X175042451Y-134607585D01*
X175272415Y-134837549D01*
X175453097Y-135107958D01*
X175577553Y-135408421D01*
X175641000Y-135727391D01*
X175641000Y-136052609D01*
X175577553Y-136371579D01*
X175453097Y-136672042D01*
X175272415Y-136942451D01*
X175042451Y-137172415D01*
X174772042Y-137353097D01*
X174471579Y-137477553D01*
X174365256Y-137498702D01*
X174152611Y-137541000D01*
X173827389Y-137541000D01*
X173614744Y-137498702D01*
X173508421Y-137477553D01*
X173207958Y-137353097D01*
X172937549Y-137172415D01*
X172707585Y-136942451D01*
X172526903Y-136672042D01*
X172402447Y-136371579D01*
X172339000Y-136052609D01*
X172339000Y-135727391D01*
X172402447Y-135408421D01*
X172526903Y-135107958D01*
X172707585Y-134837549D01*
X172937549Y-134607585D01*
X173207958Y-134426903D01*
X173508421Y-134302447D01*
X173614744Y-134281298D01*
X173827389Y-134239000D01*
X174152611Y-134239000D01*
X174365256Y-134281298D01*
G37*
G36*
X80385256Y-134281298D02*
G01*
X80491579Y-134302447D01*
X80792042Y-134426903D01*
X81062451Y-134607585D01*
X81292415Y-134837549D01*
X81473097Y-135107958D01*
X81597553Y-135408421D01*
X81661000Y-135727391D01*
X81661000Y-136052609D01*
X81597553Y-136371579D01*
X81473097Y-136672042D01*
X81292415Y-136942451D01*
X81062451Y-137172415D01*
X80792042Y-137353097D01*
X80491579Y-137477553D01*
X80385256Y-137498702D01*
X80172611Y-137541000D01*
X79847389Y-137541000D01*
X79634744Y-137498702D01*
X79528421Y-137477553D01*
X79227958Y-137353097D01*
X78957549Y-137172415D01*
X78727585Y-136942451D01*
X78546903Y-136672042D01*
X78422447Y-136371579D01*
X78359000Y-136052609D01*
X78359000Y-135727391D01*
X78422447Y-135408421D01*
X78546903Y-135107958D01*
X78727585Y-134837549D01*
X78957549Y-134607585D01*
X79227958Y-134426903D01*
X79528421Y-134302447D01*
X79634744Y-134281298D01*
X79847389Y-134239000D01*
X80172611Y-134239000D01*
X80385256Y-134281298D01*
G37*
G36*
X116471000Y-135521000D02*
G01*
X114669000Y-135521000D01*
X114669000Y-133719000D01*
X116471000Y-133719000D01*
X116471000Y-135521000D01*
G37*
G36*
X104388228Y-133801703D02*
G01*
X104543100Y-133865853D01*
X104682481Y-133958985D01*
X104801015Y-134077519D01*
X104894147Y-134216900D01*
X104958297Y-134371772D01*
X104991000Y-134536184D01*
X104991000Y-134703816D01*
X104958297Y-134868228D01*
X104894147Y-135023100D01*
X104801015Y-135162481D01*
X104682481Y-135281015D01*
X104543100Y-135374147D01*
X104388228Y-135438297D01*
X104223816Y-135471000D01*
X104056184Y-135471000D01*
X103891772Y-135438297D01*
X103736900Y-135374147D01*
X103597519Y-135281015D01*
X103478985Y-135162481D01*
X103385853Y-135023100D01*
X103321703Y-134868228D01*
X103289000Y-134703816D01*
X103289000Y-134536184D01*
X103321703Y-134371772D01*
X103385853Y-134216900D01*
X103478985Y-134077519D01*
X103597519Y-133958985D01*
X103736900Y-133865853D01*
X103891772Y-133801703D01*
X104056184Y-133769000D01*
X104223816Y-133769000D01*
X104388228Y-133801703D01*
G37*
G36*
X109468228Y-133801703D02*
G01*
X109623100Y-133865853D01*
X109762481Y-133958985D01*
X109881015Y-134077519D01*
X109974147Y-134216900D01*
X110038297Y-134371772D01*
X110071000Y-134536184D01*
X110071000Y-134703816D01*
X110038297Y-134868228D01*
X109974147Y-135023100D01*
X109881015Y-135162481D01*
X109762481Y-135281015D01*
X109623100Y-135374147D01*
X109468228Y-135438297D01*
X109303816Y-135471000D01*
X109136184Y-135471000D01*
X108971772Y-135438297D01*
X108816900Y-135374147D01*
X108677519Y-135281015D01*
X108558985Y-135162481D01*
X108465853Y-135023100D01*
X108401703Y-134868228D01*
X108369000Y-134703816D01*
X108369000Y-134536184D01*
X108401703Y-134371772D01*
X108465853Y-134216900D01*
X108558985Y-134077519D01*
X108677519Y-133958985D01*
X108816900Y-133865853D01*
X108971772Y-133801703D01*
X109136184Y-133769000D01*
X109303816Y-133769000D01*
X109468228Y-133801703D01*
G37*
G36*
X151243512Y-132453927D02*
G01*
X151392812Y-132483624D01*
X151556784Y-132551544D01*
X151704354Y-132650147D01*
X151829853Y-132775646D01*
X151928456Y-132923216D01*
X151996376Y-133087188D01*
X152031000Y-133261259D01*
X152031000Y-133438741D01*
X151996376Y-133612812D01*
X151928456Y-133776784D01*
X151829853Y-133924354D01*
X151704354Y-134049853D01*
X151556784Y-134148456D01*
X151392812Y-134216376D01*
X151243512Y-134246073D01*
X151218742Y-134251000D01*
X151041258Y-134251000D01*
X151016488Y-134246073D01*
X150867188Y-134216376D01*
X150703216Y-134148456D01*
X150555646Y-134049853D01*
X150430147Y-133924354D01*
X150331544Y-133776784D01*
X150263624Y-133612812D01*
X150229000Y-133438741D01*
X150229000Y-133261259D01*
X150263624Y-133087188D01*
X150331544Y-132923216D01*
X150430147Y-132775646D01*
X150555646Y-132650147D01*
X150703216Y-132551544D01*
X150867188Y-132483624D01*
X151016488Y-132453927D01*
X151041258Y-132449000D01*
X151218742Y-132449000D01*
X151243512Y-132453927D01*
G37*
G36*
X137273512Y-132453927D02*
G01*
X137422812Y-132483624D01*
X137586784Y-132551544D01*
X137734354Y-132650147D01*
X137859853Y-132775646D01*
X137958456Y-132923216D01*
X138026376Y-133087188D01*
X138061000Y-133261259D01*
X138061000Y-133438741D01*
X138026376Y-133612812D01*
X137958456Y-133776784D01*
X137859853Y-133924354D01*
X137734354Y-134049853D01*
X137586784Y-134148456D01*
X137422812Y-134216376D01*
X137273512Y-134246073D01*
X137248742Y-134251000D01*
X137071258Y-134251000D01*
X137046488Y-134246073D01*
X136897188Y-134216376D01*
X136733216Y-134148456D01*
X136585646Y-134049853D01*
X136460147Y-133924354D01*
X136361544Y-133776784D01*
X136293624Y-133612812D01*
X136259000Y-133438741D01*
X136259000Y-133261259D01*
X136293624Y-133087188D01*
X136361544Y-132923216D01*
X136460147Y-132775646D01*
X136585646Y-132650147D01*
X136733216Y-132551544D01*
X136897188Y-132483624D01*
X137046488Y-132453927D01*
X137071258Y-132449000D01*
X137248742Y-132449000D01*
X137273512Y-132453927D01*
G37*
G36*
X115683512Y-131183927D02*
G01*
X115832812Y-131213624D01*
X115996784Y-131281544D01*
X116144354Y-131380147D01*
X116269853Y-131505646D01*
X116368456Y-131653216D01*
X116436376Y-131817188D01*
X116471000Y-131991259D01*
X116471000Y-132168741D01*
X116436376Y-132342812D01*
X116368456Y-132506784D01*
X116269853Y-132654354D01*
X116144354Y-132779853D01*
X115996784Y-132878456D01*
X115832812Y-132946376D01*
X115683512Y-132976073D01*
X115658742Y-132981000D01*
X115481258Y-132981000D01*
X115456488Y-132976073D01*
X115307188Y-132946376D01*
X115143216Y-132878456D01*
X114995646Y-132779853D01*
X114870147Y-132654354D01*
X114771544Y-132506784D01*
X114703624Y-132342812D01*
X114669000Y-132168741D01*
X114669000Y-131991259D01*
X114703624Y-131817188D01*
X114771544Y-131653216D01*
X114870147Y-131505646D01*
X114995646Y-131380147D01*
X115143216Y-131281544D01*
X115307188Y-131213624D01*
X115456488Y-131183927D01*
X115481258Y-131179000D01*
X115658742Y-131179000D01*
X115683512Y-131183927D01*
G37*
G36*
X151243512Y-129913927D02*
G01*
X151392812Y-129943624D01*
X151556784Y-130011544D01*
X151704354Y-130110147D01*
X151829853Y-130235646D01*
X151928456Y-130383216D01*
X151996376Y-130547188D01*
X152031000Y-130721259D01*
X152031000Y-130898741D01*
X151996376Y-131072812D01*
X151928456Y-131236784D01*
X151829853Y-131384354D01*
X151704354Y-131509853D01*
X151556784Y-131608456D01*
X151392812Y-131676376D01*
X151243512Y-131706073D01*
X151218742Y-131711000D01*
X151041258Y-131711000D01*
X151016488Y-131706073D01*
X150867188Y-131676376D01*
X150703216Y-131608456D01*
X150555646Y-131509853D01*
X150430147Y-131384354D01*
X150331544Y-131236784D01*
X150263624Y-131072812D01*
X150229000Y-130898741D01*
X150229000Y-130721259D01*
X150263624Y-130547188D01*
X150331544Y-130383216D01*
X150430147Y-130235646D01*
X150555646Y-130110147D01*
X150703216Y-130011544D01*
X150867188Y-129943624D01*
X151016488Y-129913927D01*
X151041258Y-129909000D01*
X151218742Y-129909000D01*
X151243512Y-129913927D01*
G37*
G36*
X137273512Y-129913927D02*
G01*
X137422812Y-129943624D01*
X137586784Y-130011544D01*
X137734354Y-130110147D01*
X137859853Y-130235646D01*
X137958456Y-130383216D01*
X138026376Y-130547188D01*
X138061000Y-130721259D01*
X138061000Y-130898741D01*
X138026376Y-131072812D01*
X137958456Y-131236784D01*
X137859853Y-131384354D01*
X137734354Y-131509853D01*
X137586784Y-131608456D01*
X137422812Y-131676376D01*
X137273512Y-131706073D01*
X137248742Y-131711000D01*
X137071258Y-131711000D01*
X137046488Y-131706073D01*
X136897188Y-131676376D01*
X136733216Y-131608456D01*
X136585646Y-131509853D01*
X136460147Y-131384354D01*
X136361544Y-131236784D01*
X136293624Y-131072812D01*
X136259000Y-130898741D01*
X136259000Y-130721259D01*
X136293624Y-130547188D01*
X136361544Y-130383216D01*
X136460147Y-130235646D01*
X136585646Y-130110147D01*
X136733216Y-130011544D01*
X136897188Y-129943624D01*
X137046488Y-129913927D01*
X137071258Y-129909000D01*
X137248742Y-129909000D01*
X137273512Y-129913927D01*
G37*
G36*
X151243512Y-127373927D02*
G01*
X151392812Y-127403624D01*
X151556784Y-127471544D01*
X151704354Y-127570147D01*
X151829853Y-127695646D01*
X151928456Y-127843216D01*
X151996376Y-128007188D01*
X152031000Y-128181259D01*
X152031000Y-128358741D01*
X151996376Y-128532812D01*
X151928456Y-128696784D01*
X151829853Y-128844354D01*
X151704354Y-128969853D01*
X151556784Y-129068456D01*
X151392812Y-129136376D01*
X151243512Y-129166073D01*
X151218742Y-129171000D01*
X151041258Y-129171000D01*
X151016488Y-129166073D01*
X150867188Y-129136376D01*
X150703216Y-129068456D01*
X150555646Y-128969853D01*
X150430147Y-128844354D01*
X150331544Y-128696784D01*
X150263624Y-128532812D01*
X150229000Y-128358741D01*
X150229000Y-128181259D01*
X150263624Y-128007188D01*
X150331544Y-127843216D01*
X150430147Y-127695646D01*
X150555646Y-127570147D01*
X150703216Y-127471544D01*
X150867188Y-127403624D01*
X151016488Y-127373927D01*
X151041258Y-127369000D01*
X151218742Y-127369000D01*
X151243512Y-127373927D01*
G37*
G36*
X137273512Y-127373927D02*
G01*
X137422812Y-127403624D01*
X137586784Y-127471544D01*
X137734354Y-127570147D01*
X137859853Y-127695646D01*
X137958456Y-127843216D01*
X138026376Y-128007188D01*
X138061000Y-128181259D01*
X138061000Y-128358741D01*
X138026376Y-128532812D01*
X137958456Y-128696784D01*
X137859853Y-128844354D01*
X137734354Y-128969853D01*
X137586784Y-129068456D01*
X137422812Y-129136376D01*
X137273512Y-129166073D01*
X137248742Y-129171000D01*
X137071258Y-129171000D01*
X137046488Y-129166073D01*
X136897188Y-129136376D01*
X136733216Y-129068456D01*
X136585646Y-128969853D01*
X136460147Y-128844354D01*
X136361544Y-128696784D01*
X136293624Y-128532812D01*
X136259000Y-128358741D01*
X136259000Y-128181259D01*
X136293624Y-128007188D01*
X136361544Y-127843216D01*
X136460147Y-127695646D01*
X136585646Y-127570147D01*
X136733216Y-127471544D01*
X136897188Y-127403624D01*
X137046488Y-127373927D01*
X137071258Y-127369000D01*
X137248742Y-127369000D01*
X137273512Y-127373927D01*
G37*
G36*
X116471000Y-129171000D02*
G01*
X114669000Y-129171000D01*
X114669000Y-127369000D01*
X116471000Y-127369000D01*
X116471000Y-129171000D01*
G37*
G36*
X115683512Y-124833927D02*
G01*
X115832812Y-124863624D01*
X115996784Y-124931544D01*
X116144354Y-125030147D01*
X116269853Y-125155646D01*
X116368456Y-125303216D01*
X116436376Y-125467188D01*
X116471000Y-125641259D01*
X116471000Y-125818741D01*
X116436376Y-125992812D01*
X116368456Y-126156784D01*
X116269853Y-126304354D01*
X116144354Y-126429853D01*
X115996784Y-126528456D01*
X115832812Y-126596376D01*
X115683512Y-126626073D01*
X115658742Y-126631000D01*
X115481258Y-126631000D01*
X115456488Y-126626073D01*
X115307188Y-126596376D01*
X115143216Y-126528456D01*
X114995646Y-126429853D01*
X114870147Y-126304354D01*
X114771544Y-126156784D01*
X114703624Y-125992812D01*
X114669000Y-125818741D01*
X114669000Y-125641259D01*
X114703624Y-125467188D01*
X114771544Y-125303216D01*
X114870147Y-125155646D01*
X114995646Y-125030147D01*
X115143216Y-124931544D01*
X115307188Y-124863624D01*
X115456488Y-124833927D01*
X115481258Y-124829000D01*
X115658742Y-124829000D01*
X115683512Y-124833927D01*
G37*
G36*
X138061000Y-126631000D02*
G01*
X136259000Y-126631000D01*
X136259000Y-124829000D01*
X138061000Y-124829000D01*
X138061000Y-126631000D01*
G37*
G36*
X152031000Y-126631000D02*
G01*
X150229000Y-126631000D01*
X150229000Y-124829000D01*
X152031000Y-124829000D01*
X152031000Y-126631000D01*
G37*
G36*
X104388228Y-123641703D02*
G01*
X104543100Y-123705853D01*
X104682481Y-123798985D01*
X104801015Y-123917519D01*
X104894147Y-124056900D01*
X104958297Y-124211772D01*
X104991000Y-124376184D01*
X104991000Y-124543816D01*
X104958297Y-124708228D01*
X104894147Y-124863100D01*
X104801015Y-125002481D01*
X104682481Y-125121015D01*
X104543100Y-125214147D01*
X104388228Y-125278297D01*
X104223816Y-125311000D01*
X104056184Y-125311000D01*
X103891772Y-125278297D01*
X103736900Y-125214147D01*
X103597519Y-125121015D01*
X103478985Y-125002481D01*
X103385853Y-124863100D01*
X103321703Y-124708228D01*
X103289000Y-124543816D01*
X103289000Y-124376184D01*
X103321703Y-124211772D01*
X103385853Y-124056900D01*
X103478985Y-123917519D01*
X103597519Y-123798985D01*
X103736900Y-123705853D01*
X103891772Y-123641703D01*
X104056184Y-123609000D01*
X104223816Y-123609000D01*
X104388228Y-123641703D01*
G37*
G36*
X109468228Y-123641703D02*
G01*
X109623100Y-123705853D01*
X109762481Y-123798985D01*
X109881015Y-123917519D01*
X109974147Y-124056900D01*
X110038297Y-124211772D01*
X110071000Y-124376184D01*
X110071000Y-124543816D01*
X110038297Y-124708228D01*
X109974147Y-124863100D01*
X109881015Y-125002481D01*
X109762481Y-125121015D01*
X109623100Y-125214147D01*
X109468228Y-125278297D01*
X109303816Y-125311000D01*
X109136184Y-125311000D01*
X108971772Y-125278297D01*
X108816900Y-125214147D01*
X108677519Y-125121015D01*
X108558985Y-125002481D01*
X108465853Y-124863100D01*
X108401703Y-124708228D01*
X108369000Y-124543816D01*
X108369000Y-124376184D01*
X108401703Y-124211772D01*
X108465853Y-124056900D01*
X108558985Y-123917519D01*
X108677519Y-123798985D01*
X108816900Y-123705853D01*
X108971772Y-123641703D01*
X109136184Y-123609000D01*
X109303816Y-123609000D01*
X109468228Y-123641703D01*
G37*
G36*
X82798228Y-118021703D02*
G01*
X82953100Y-118085853D01*
X83092481Y-118178985D01*
X83211015Y-118297519D01*
X83304147Y-118436900D01*
X83368297Y-118591772D01*
X83401000Y-118756184D01*
X83401000Y-118923816D01*
X83368297Y-119088228D01*
X83304147Y-119243100D01*
X83211015Y-119382481D01*
X83092481Y-119501015D01*
X82953100Y-119594147D01*
X82798228Y-119658297D01*
X82633816Y-119691000D01*
X82466184Y-119691000D01*
X82301772Y-119658297D01*
X82146900Y-119594147D01*
X82007519Y-119501015D01*
X81888985Y-119382481D01*
X81795853Y-119243100D01*
X81731703Y-119088228D01*
X81699000Y-118923816D01*
X81699000Y-118756184D01*
X81731703Y-118591772D01*
X81795853Y-118436900D01*
X81888985Y-118297519D01*
X82007519Y-118178985D01*
X82146900Y-118085853D01*
X82301772Y-118021703D01*
X82466184Y-117989000D01*
X82633816Y-117989000D01*
X82798228Y-118021703D01*
G37*
G36*
X83401000Y-117691000D02*
G01*
X81699000Y-117691000D01*
X81699000Y-115989000D01*
X83401000Y-115989000D01*
X83401000Y-117691000D01*
G37*
G36*
X151243512Y-112133927D02*
G01*
X151392812Y-112163624D01*
X151556784Y-112231544D01*
X151704354Y-112330147D01*
X151829853Y-112455646D01*
X151928456Y-112603216D01*
X151996376Y-112767188D01*
X152031000Y-112941259D01*
X152031000Y-113118741D01*
X151996376Y-113292812D01*
X151928456Y-113456784D01*
X151829853Y-113604354D01*
X151704354Y-113729853D01*
X151556784Y-113828456D01*
X151392812Y-113896376D01*
X151243512Y-113926073D01*
X151218742Y-113931000D01*
X151041258Y-113931000D01*
X151016488Y-113926073D01*
X150867188Y-113896376D01*
X150703216Y-113828456D01*
X150555646Y-113729853D01*
X150430147Y-113604354D01*
X150331544Y-113456784D01*
X150263624Y-113292812D01*
X150229000Y-113118741D01*
X150229000Y-112941259D01*
X150263624Y-112767188D01*
X150331544Y-112603216D01*
X150430147Y-112455646D01*
X150555646Y-112330147D01*
X150703216Y-112231544D01*
X150867188Y-112163624D01*
X151016488Y-112133927D01*
X151041258Y-112129000D01*
X151218742Y-112129000D01*
X151243512Y-112133927D01*
G37*
G36*
X163943512Y-112133927D02*
G01*
X164092812Y-112163624D01*
X164256784Y-112231544D01*
X164404354Y-112330147D01*
X164529853Y-112455646D01*
X164628456Y-112603216D01*
X164696376Y-112767188D01*
X164731000Y-112941259D01*
X164731000Y-113118741D01*
X164696376Y-113292812D01*
X164628456Y-113456784D01*
X164529853Y-113604354D01*
X164404354Y-113729853D01*
X164256784Y-113828456D01*
X164092812Y-113896376D01*
X163943512Y-113926073D01*
X163918742Y-113931000D01*
X163741258Y-113931000D01*
X163716488Y-113926073D01*
X163567188Y-113896376D01*
X163403216Y-113828456D01*
X163255646Y-113729853D01*
X163130147Y-113604354D01*
X163031544Y-113456784D01*
X162963624Y-113292812D01*
X162929000Y-113118741D01*
X162929000Y-112941259D01*
X162963624Y-112767188D01*
X163031544Y-112603216D01*
X163130147Y-112455646D01*
X163255646Y-112330147D01*
X163403216Y-112231544D01*
X163567188Y-112163624D01*
X163716488Y-112133927D01*
X163741258Y-112129000D01*
X163918742Y-112129000D01*
X163943512Y-112133927D01*
G37*
G36*
X112661000Y-113931000D02*
G01*
X110859000Y-113931000D01*
X110859000Y-112129000D01*
X112661000Y-112129000D01*
X112661000Y-113931000D01*
G37*
G36*
X138061000Y-113931000D02*
G01*
X136259000Y-113931000D01*
X136259000Y-112129000D01*
X138061000Y-112129000D01*
X138061000Y-113931000D01*
G37*
G36*
X86608228Y-110861703D02*
G01*
X86763100Y-110925853D01*
X86902481Y-111018985D01*
X87021015Y-111137519D01*
X87114147Y-111276900D01*
X87178297Y-111431772D01*
X87211000Y-111596184D01*
X87211000Y-111763816D01*
X87178297Y-111928228D01*
X87114147Y-112083100D01*
X87021015Y-112222481D01*
X86902481Y-112341015D01*
X86763100Y-112434147D01*
X86608228Y-112498297D01*
X86443816Y-112531000D01*
X86276184Y-112531000D01*
X86111772Y-112498297D01*
X85956900Y-112434147D01*
X85817519Y-112341015D01*
X85698985Y-112222481D01*
X85605853Y-112083100D01*
X85541703Y-111928228D01*
X85509000Y-111763816D01*
X85509000Y-111596184D01*
X85541703Y-111431772D01*
X85605853Y-111276900D01*
X85698985Y-111137519D01*
X85817519Y-111018985D01*
X85956900Y-110925853D01*
X86111772Y-110861703D01*
X86276184Y-110829000D01*
X86443816Y-110829000D01*
X86608228Y-110861703D01*
G37*
G36*
X80258228Y-110861703D02*
G01*
X80413100Y-110925853D01*
X80552481Y-111018985D01*
X80671015Y-111137519D01*
X80764147Y-111276900D01*
X80828297Y-111431772D01*
X80861000Y-111596184D01*
X80861000Y-111763816D01*
X80828297Y-111928228D01*
X80764147Y-112083100D01*
X80671015Y-112222481D01*
X80552481Y-112341015D01*
X80413100Y-112434147D01*
X80258228Y-112498297D01*
X80093816Y-112531000D01*
X79926184Y-112531000D01*
X79761772Y-112498297D01*
X79606900Y-112434147D01*
X79467519Y-112341015D01*
X79348985Y-112222481D01*
X79255853Y-112083100D01*
X79191703Y-111928228D01*
X79159000Y-111763816D01*
X79159000Y-111596184D01*
X79191703Y-111431772D01*
X79255853Y-111276900D01*
X79348985Y-111137519D01*
X79467519Y-111018985D01*
X79606900Y-110925853D01*
X79761772Y-110861703D01*
X79926184Y-110829000D01*
X80093816Y-110829000D01*
X80258228Y-110861703D01*
G37*
G36*
X111873512Y-109593927D02*
G01*
X112022812Y-109623624D01*
X112186784Y-109691544D01*
X112334354Y-109790147D01*
X112459853Y-109915646D01*
X112558456Y-110063216D01*
X112626376Y-110227188D01*
X112661000Y-110401259D01*
X112661000Y-110578741D01*
X112626376Y-110752812D01*
X112558456Y-110916784D01*
X112459853Y-111064354D01*
X112334354Y-111189853D01*
X112186784Y-111288456D01*
X112022812Y-111356376D01*
X111873512Y-111386073D01*
X111848742Y-111391000D01*
X111671258Y-111391000D01*
X111646488Y-111386073D01*
X111497188Y-111356376D01*
X111333216Y-111288456D01*
X111185646Y-111189853D01*
X111060147Y-111064354D01*
X110961544Y-110916784D01*
X110893624Y-110752812D01*
X110859000Y-110578741D01*
X110859000Y-110401259D01*
X110893624Y-110227188D01*
X110961544Y-110063216D01*
X111060147Y-109915646D01*
X111185646Y-109790147D01*
X111333216Y-109691544D01*
X111497188Y-109623624D01*
X111646488Y-109593927D01*
X111671258Y-109589000D01*
X111848742Y-109589000D01*
X111873512Y-109593927D01*
G37*
G36*
X163943512Y-109593927D02*
G01*
X164092812Y-109623624D01*
X164256784Y-109691544D01*
X164404354Y-109790147D01*
X164529853Y-109915646D01*
X164628456Y-110063216D01*
X164696376Y-110227188D01*
X164731000Y-110401259D01*
X164731000Y-110578741D01*
X164696376Y-110752812D01*
X164628456Y-110916784D01*
X164529853Y-111064354D01*
X164404354Y-111189853D01*
X164256784Y-111288456D01*
X164092812Y-111356376D01*
X163943512Y-111386073D01*
X163918742Y-111391000D01*
X163741258Y-111391000D01*
X163716488Y-111386073D01*
X163567188Y-111356376D01*
X163403216Y-111288456D01*
X163255646Y-111189853D01*
X163130147Y-111064354D01*
X163031544Y-110916784D01*
X162963624Y-110752812D01*
X162929000Y-110578741D01*
X162929000Y-110401259D01*
X162963624Y-110227188D01*
X163031544Y-110063216D01*
X163130147Y-109915646D01*
X163255646Y-109790147D01*
X163403216Y-109691544D01*
X163567188Y-109623624D01*
X163716488Y-109593927D01*
X163741258Y-109589000D01*
X163918742Y-109589000D01*
X163943512Y-109593927D01*
G37*
G36*
X151243512Y-109593927D02*
G01*
X151392812Y-109623624D01*
X151556784Y-109691544D01*
X151704354Y-109790147D01*
X151829853Y-109915646D01*
X151928456Y-110063216D01*
X151996376Y-110227188D01*
X152031000Y-110401259D01*
X152031000Y-110578741D01*
X151996376Y-110752812D01*
X151928456Y-110916784D01*
X151829853Y-111064354D01*
X151704354Y-111189853D01*
X151556784Y-111288456D01*
X151392812Y-111356376D01*
X151243512Y-111386073D01*
X151218742Y-111391000D01*
X151041258Y-111391000D01*
X151016488Y-111386073D01*
X150867188Y-111356376D01*
X150703216Y-111288456D01*
X150555646Y-111189853D01*
X150430147Y-111064354D01*
X150331544Y-110916784D01*
X150263624Y-110752812D01*
X150229000Y-110578741D01*
X150229000Y-110401259D01*
X150263624Y-110227188D01*
X150331544Y-110063216D01*
X150430147Y-109915646D01*
X150555646Y-109790147D01*
X150703216Y-109691544D01*
X150867188Y-109623624D01*
X151016488Y-109593927D01*
X151041258Y-109589000D01*
X151218742Y-109589000D01*
X151243512Y-109593927D01*
G37*
G36*
X137273512Y-109593927D02*
G01*
X137422812Y-109623624D01*
X137586784Y-109691544D01*
X137734354Y-109790147D01*
X137859853Y-109915646D01*
X137958456Y-110063216D01*
X138026376Y-110227188D01*
X138061000Y-110401259D01*
X138061000Y-110578741D01*
X138026376Y-110752812D01*
X137958456Y-110916784D01*
X137859853Y-111064354D01*
X137734354Y-111189853D01*
X137586784Y-111288456D01*
X137422812Y-111356376D01*
X137273512Y-111386073D01*
X137248742Y-111391000D01*
X137071258Y-111391000D01*
X137046488Y-111386073D01*
X136897188Y-111356376D01*
X136733216Y-111288456D01*
X136585646Y-111189853D01*
X136460147Y-111064354D01*
X136361544Y-110916784D01*
X136293624Y-110752812D01*
X136259000Y-110578741D01*
X136259000Y-110401259D01*
X136293624Y-110227188D01*
X136361544Y-110063216D01*
X136460147Y-109915646D01*
X136585646Y-109790147D01*
X136733216Y-109691544D01*
X136897188Y-109623624D01*
X137046488Y-109593927D01*
X137071258Y-109589000D01*
X137248742Y-109589000D01*
X137273512Y-109593927D01*
G37*
G36*
X137273512Y-107053927D02*
G01*
X137422812Y-107083624D01*
X137586784Y-107151544D01*
X137734354Y-107250147D01*
X137859853Y-107375646D01*
X137958456Y-107523216D01*
X138026376Y-107687188D01*
X138061000Y-107861259D01*
X138061000Y-108038741D01*
X138026376Y-108212812D01*
X137958456Y-108376784D01*
X137859853Y-108524354D01*
X137734354Y-108649853D01*
X137586784Y-108748456D01*
X137422812Y-108816376D01*
X137273512Y-108846073D01*
X137248742Y-108851000D01*
X137071258Y-108851000D01*
X137046488Y-108846073D01*
X136897188Y-108816376D01*
X136733216Y-108748456D01*
X136585646Y-108649853D01*
X136460147Y-108524354D01*
X136361544Y-108376784D01*
X136293624Y-108212812D01*
X136259000Y-108038741D01*
X136259000Y-107861259D01*
X136293624Y-107687188D01*
X136361544Y-107523216D01*
X136460147Y-107375646D01*
X136585646Y-107250147D01*
X136733216Y-107151544D01*
X136897188Y-107083624D01*
X137046488Y-107053927D01*
X137071258Y-107049000D01*
X137248742Y-107049000D01*
X137273512Y-107053927D01*
G37*
G36*
X163943512Y-107053927D02*
G01*
X164092812Y-107083624D01*
X164256784Y-107151544D01*
X164404354Y-107250147D01*
X164529853Y-107375646D01*
X164628456Y-107523216D01*
X164696376Y-107687188D01*
X164731000Y-107861259D01*
X164731000Y-108038741D01*
X164696376Y-108212812D01*
X164628456Y-108376784D01*
X164529853Y-108524354D01*
X164404354Y-108649853D01*
X164256784Y-108748456D01*
X164092812Y-108816376D01*
X163943512Y-108846073D01*
X163918742Y-108851000D01*
X163741258Y-108851000D01*
X163716488Y-108846073D01*
X163567188Y-108816376D01*
X163403216Y-108748456D01*
X163255646Y-108649853D01*
X163130147Y-108524354D01*
X163031544Y-108376784D01*
X162963624Y-108212812D01*
X162929000Y-108038741D01*
X162929000Y-107861259D01*
X162963624Y-107687188D01*
X163031544Y-107523216D01*
X163130147Y-107375646D01*
X163255646Y-107250147D01*
X163403216Y-107151544D01*
X163567188Y-107083624D01*
X163716488Y-107053927D01*
X163741258Y-107049000D01*
X163918742Y-107049000D01*
X163943512Y-107053927D01*
G37*
G36*
X174103512Y-107053927D02*
G01*
X174252812Y-107083624D01*
X174416784Y-107151544D01*
X174564354Y-107250147D01*
X174689853Y-107375646D01*
X174788456Y-107523216D01*
X174856376Y-107687188D01*
X174891000Y-107861259D01*
X174891000Y-108038741D01*
X174856376Y-108212812D01*
X174788456Y-108376784D01*
X174689853Y-108524354D01*
X174564354Y-108649853D01*
X174416784Y-108748456D01*
X174252812Y-108816376D01*
X174103512Y-108846073D01*
X174078742Y-108851000D01*
X173901258Y-108851000D01*
X173876488Y-108846073D01*
X173727188Y-108816376D01*
X173563216Y-108748456D01*
X173415646Y-108649853D01*
X173290147Y-108524354D01*
X173191544Y-108376784D01*
X173123624Y-108212812D01*
X173089000Y-108038741D01*
X173089000Y-107861259D01*
X173123624Y-107687188D01*
X173191544Y-107523216D01*
X173290147Y-107375646D01*
X173415646Y-107250147D01*
X173563216Y-107151544D01*
X173727188Y-107083624D01*
X173876488Y-107053927D01*
X173901258Y-107049000D01*
X174078742Y-107049000D01*
X174103512Y-107053927D01*
G37*
G36*
X111873512Y-107053927D02*
G01*
X112022812Y-107083624D01*
X112186784Y-107151544D01*
X112334354Y-107250147D01*
X112459853Y-107375646D01*
X112558456Y-107523216D01*
X112626376Y-107687188D01*
X112661000Y-107861259D01*
X112661000Y-108038741D01*
X112626376Y-108212812D01*
X112558456Y-108376784D01*
X112459853Y-108524354D01*
X112334354Y-108649853D01*
X112186784Y-108748456D01*
X112022812Y-108816376D01*
X111873512Y-108846073D01*
X111848742Y-108851000D01*
X111671258Y-108851000D01*
X111646488Y-108846073D01*
X111497188Y-108816376D01*
X111333216Y-108748456D01*
X111185646Y-108649853D01*
X111060147Y-108524354D01*
X110961544Y-108376784D01*
X110893624Y-108212812D01*
X110859000Y-108038741D01*
X110859000Y-107861259D01*
X110893624Y-107687188D01*
X110961544Y-107523216D01*
X111060147Y-107375646D01*
X111185646Y-107250147D01*
X111333216Y-107151544D01*
X111497188Y-107083624D01*
X111646488Y-107053927D01*
X111671258Y-107049000D01*
X111848742Y-107049000D01*
X111873512Y-107053927D01*
G37*
G36*
X151243512Y-107053927D02*
G01*
X151392812Y-107083624D01*
X151556784Y-107151544D01*
X151704354Y-107250147D01*
X151829853Y-107375646D01*
X151928456Y-107523216D01*
X151996376Y-107687188D01*
X152031000Y-107861259D01*
X152031000Y-108038741D01*
X151996376Y-108212812D01*
X151928456Y-108376784D01*
X151829853Y-108524354D01*
X151704354Y-108649853D01*
X151556784Y-108748456D01*
X151392812Y-108816376D01*
X151243512Y-108846073D01*
X151218742Y-108851000D01*
X151041258Y-108851000D01*
X151016488Y-108846073D01*
X150867188Y-108816376D01*
X150703216Y-108748456D01*
X150555646Y-108649853D01*
X150430147Y-108524354D01*
X150331544Y-108376784D01*
X150263624Y-108212812D01*
X150229000Y-108038741D01*
X150229000Y-107861259D01*
X150263624Y-107687188D01*
X150331544Y-107523216D01*
X150430147Y-107375646D01*
X150555646Y-107250147D01*
X150703216Y-107151544D01*
X150867188Y-107083624D01*
X151016488Y-107053927D01*
X151041258Y-107049000D01*
X151218742Y-107049000D01*
X151243512Y-107053927D01*
G37*
G36*
X86608228Y-105861703D02*
G01*
X86763100Y-105925853D01*
X86902481Y-106018985D01*
X87021015Y-106137519D01*
X87114147Y-106276900D01*
X87178297Y-106431772D01*
X87211000Y-106596184D01*
X87211000Y-106763816D01*
X87178297Y-106928228D01*
X87114147Y-107083100D01*
X87021015Y-107222481D01*
X86902481Y-107341015D01*
X86763100Y-107434147D01*
X86608228Y-107498297D01*
X86443816Y-107531000D01*
X86276184Y-107531000D01*
X86111772Y-107498297D01*
X85956900Y-107434147D01*
X85817519Y-107341015D01*
X85698985Y-107222481D01*
X85605853Y-107083100D01*
X85541703Y-106928228D01*
X85509000Y-106763816D01*
X85509000Y-106596184D01*
X85541703Y-106431772D01*
X85605853Y-106276900D01*
X85698985Y-106137519D01*
X85817519Y-106018985D01*
X85956900Y-105925853D01*
X86111772Y-105861703D01*
X86276184Y-105829000D01*
X86443816Y-105829000D01*
X86608228Y-105861703D01*
G37*
G36*
X80258228Y-105861703D02*
G01*
X80413100Y-105925853D01*
X80552481Y-106018985D01*
X80671015Y-106137519D01*
X80764147Y-106276900D01*
X80828297Y-106431772D01*
X80861000Y-106596184D01*
X80861000Y-106763816D01*
X80828297Y-106928228D01*
X80764147Y-107083100D01*
X80671015Y-107222481D01*
X80552481Y-107341015D01*
X80413100Y-107434147D01*
X80258228Y-107498297D01*
X80093816Y-107531000D01*
X79926184Y-107531000D01*
X79761772Y-107498297D01*
X79606900Y-107434147D01*
X79467519Y-107341015D01*
X79348985Y-107222481D01*
X79255853Y-107083100D01*
X79191703Y-106928228D01*
X79159000Y-106763816D01*
X79159000Y-106596184D01*
X79191703Y-106431772D01*
X79255853Y-106276900D01*
X79348985Y-106137519D01*
X79467519Y-106018985D01*
X79606900Y-105925853D01*
X79761772Y-105861703D01*
X79926184Y-105829000D01*
X80093816Y-105829000D01*
X80258228Y-105861703D01*
G37*
G36*
X163943512Y-104513927D02*
G01*
X164092812Y-104543624D01*
X164256784Y-104611544D01*
X164404354Y-104710147D01*
X164529853Y-104835646D01*
X164628456Y-104983216D01*
X164696376Y-105147188D01*
X164731000Y-105321259D01*
X164731000Y-105498741D01*
X164696376Y-105672812D01*
X164628456Y-105836784D01*
X164529853Y-105984354D01*
X164404354Y-106109853D01*
X164256784Y-106208456D01*
X164092812Y-106276376D01*
X163943512Y-106306073D01*
X163918742Y-106311000D01*
X163741258Y-106311000D01*
X163716488Y-106306073D01*
X163567188Y-106276376D01*
X163403216Y-106208456D01*
X163255646Y-106109853D01*
X163130147Y-105984354D01*
X163031544Y-105836784D01*
X162963624Y-105672812D01*
X162929000Y-105498741D01*
X162929000Y-105321259D01*
X162963624Y-105147188D01*
X163031544Y-104983216D01*
X163130147Y-104835646D01*
X163255646Y-104710147D01*
X163403216Y-104611544D01*
X163567188Y-104543624D01*
X163716488Y-104513927D01*
X163741258Y-104509000D01*
X163918742Y-104509000D01*
X163943512Y-104513927D01*
G37*
G36*
X111873512Y-104513927D02*
G01*
X112022812Y-104543624D01*
X112186784Y-104611544D01*
X112334354Y-104710147D01*
X112459853Y-104835646D01*
X112558456Y-104983216D01*
X112626376Y-105147188D01*
X112661000Y-105321259D01*
X112661000Y-105498741D01*
X112626376Y-105672812D01*
X112558456Y-105836784D01*
X112459853Y-105984354D01*
X112334354Y-106109853D01*
X112186784Y-106208456D01*
X112022812Y-106276376D01*
X111873512Y-106306073D01*
X111848742Y-106311000D01*
X111671258Y-106311000D01*
X111646488Y-106306073D01*
X111497188Y-106276376D01*
X111333216Y-106208456D01*
X111185646Y-106109853D01*
X111060147Y-105984354D01*
X110961544Y-105836784D01*
X110893624Y-105672812D01*
X110859000Y-105498741D01*
X110859000Y-105321259D01*
X110893624Y-105147188D01*
X110961544Y-104983216D01*
X111060147Y-104835646D01*
X111185646Y-104710147D01*
X111333216Y-104611544D01*
X111497188Y-104543624D01*
X111646488Y-104513927D01*
X111671258Y-104509000D01*
X111848742Y-104509000D01*
X111873512Y-104513927D01*
G37*
G36*
X174103512Y-104513927D02*
G01*
X174252812Y-104543624D01*
X174416784Y-104611544D01*
X174564354Y-104710147D01*
X174689853Y-104835646D01*
X174788456Y-104983216D01*
X174856376Y-105147188D01*
X174891000Y-105321259D01*
X174891000Y-105498741D01*
X174856376Y-105672812D01*
X174788456Y-105836784D01*
X174689853Y-105984354D01*
X174564354Y-106109853D01*
X174416784Y-106208456D01*
X174252812Y-106276376D01*
X174103512Y-106306073D01*
X174078742Y-106311000D01*
X173901258Y-106311000D01*
X173876488Y-106306073D01*
X173727188Y-106276376D01*
X173563216Y-106208456D01*
X173415646Y-106109853D01*
X173290147Y-105984354D01*
X173191544Y-105836784D01*
X173123624Y-105672812D01*
X173089000Y-105498741D01*
X173089000Y-105321259D01*
X173123624Y-105147188D01*
X173191544Y-104983216D01*
X173290147Y-104835646D01*
X173415646Y-104710147D01*
X173563216Y-104611544D01*
X173727188Y-104543624D01*
X173876488Y-104513927D01*
X173901258Y-104509000D01*
X174078742Y-104509000D01*
X174103512Y-104513927D01*
G37*
G36*
X151243512Y-104513927D02*
G01*
X151392812Y-104543624D01*
X151556784Y-104611544D01*
X151704354Y-104710147D01*
X151829853Y-104835646D01*
X151928456Y-104983216D01*
X151996376Y-105147188D01*
X152031000Y-105321259D01*
X152031000Y-105498741D01*
X151996376Y-105672812D01*
X151928456Y-105836784D01*
X151829853Y-105984354D01*
X151704354Y-106109853D01*
X151556784Y-106208456D01*
X151392812Y-106276376D01*
X151243512Y-106306073D01*
X151218742Y-106311000D01*
X151041258Y-106311000D01*
X151016488Y-106306073D01*
X150867188Y-106276376D01*
X150703216Y-106208456D01*
X150555646Y-106109853D01*
X150430147Y-105984354D01*
X150331544Y-105836784D01*
X150263624Y-105672812D01*
X150229000Y-105498741D01*
X150229000Y-105321259D01*
X150263624Y-105147188D01*
X150331544Y-104983216D01*
X150430147Y-104835646D01*
X150555646Y-104710147D01*
X150703216Y-104611544D01*
X150867188Y-104543624D01*
X151016488Y-104513927D01*
X151041258Y-104509000D01*
X151218742Y-104509000D01*
X151243512Y-104513927D01*
G37*
G36*
X137273512Y-104513927D02*
G01*
X137422812Y-104543624D01*
X137586784Y-104611544D01*
X137734354Y-104710147D01*
X137859853Y-104835646D01*
X137958456Y-104983216D01*
X138026376Y-105147188D01*
X138061000Y-105321259D01*
X138061000Y-105498741D01*
X138026376Y-105672812D01*
X137958456Y-105836784D01*
X137859853Y-105984354D01*
X137734354Y-106109853D01*
X137586784Y-106208456D01*
X137422812Y-106276376D01*
X137273512Y-106306073D01*
X137248742Y-106311000D01*
X137071258Y-106311000D01*
X137046488Y-106306073D01*
X136897188Y-106276376D01*
X136733216Y-106208456D01*
X136585646Y-106109853D01*
X136460147Y-105984354D01*
X136361544Y-105836784D01*
X136293624Y-105672812D01*
X136259000Y-105498741D01*
X136259000Y-105321259D01*
X136293624Y-105147188D01*
X136361544Y-104983216D01*
X136460147Y-104835646D01*
X136585646Y-104710147D01*
X136733216Y-104611544D01*
X136897188Y-104543624D01*
X137046488Y-104513927D01*
X137071258Y-104509000D01*
X137248742Y-104509000D01*
X137273512Y-104513927D01*
G37*
G36*
X111873512Y-101973927D02*
G01*
X112022812Y-102003624D01*
X112186784Y-102071544D01*
X112334354Y-102170147D01*
X112459853Y-102295646D01*
X112558456Y-102443216D01*
X112626376Y-102607188D01*
X112661000Y-102781259D01*
X112661000Y-102958741D01*
X112626376Y-103132812D01*
X112558456Y-103296784D01*
X112459853Y-103444354D01*
X112334354Y-103569853D01*
X112186784Y-103668456D01*
X112022812Y-103736376D01*
X111873512Y-103766073D01*
X111848742Y-103771000D01*
X111671258Y-103771000D01*
X111646488Y-103766073D01*
X111497188Y-103736376D01*
X111333216Y-103668456D01*
X111185646Y-103569853D01*
X111060147Y-103444354D01*
X110961544Y-103296784D01*
X110893624Y-103132812D01*
X110859000Y-102958741D01*
X110859000Y-102781259D01*
X110893624Y-102607188D01*
X110961544Y-102443216D01*
X111060147Y-102295646D01*
X111185646Y-102170147D01*
X111333216Y-102071544D01*
X111497188Y-102003624D01*
X111646488Y-101973927D01*
X111671258Y-101969000D01*
X111848742Y-101969000D01*
X111873512Y-101973927D01*
G37*
G36*
X174103512Y-101973927D02*
G01*
X174252812Y-102003624D01*
X174416784Y-102071544D01*
X174564354Y-102170147D01*
X174689853Y-102295646D01*
X174788456Y-102443216D01*
X174856376Y-102607188D01*
X174891000Y-102781259D01*
X174891000Y-102958741D01*
X174856376Y-103132812D01*
X174788456Y-103296784D01*
X174689853Y-103444354D01*
X174564354Y-103569853D01*
X174416784Y-103668456D01*
X174252812Y-103736376D01*
X174103512Y-103766073D01*
X174078742Y-103771000D01*
X173901258Y-103771000D01*
X173876488Y-103766073D01*
X173727188Y-103736376D01*
X173563216Y-103668456D01*
X173415646Y-103569853D01*
X173290147Y-103444354D01*
X173191544Y-103296784D01*
X173123624Y-103132812D01*
X173089000Y-102958741D01*
X173089000Y-102781259D01*
X173123624Y-102607188D01*
X173191544Y-102443216D01*
X173290147Y-102295646D01*
X173415646Y-102170147D01*
X173563216Y-102071544D01*
X173727188Y-102003624D01*
X173876488Y-101973927D01*
X173901258Y-101969000D01*
X174078742Y-101969000D01*
X174103512Y-101973927D01*
G37*
G36*
X163943512Y-101973927D02*
G01*
X164092812Y-102003624D01*
X164256784Y-102071544D01*
X164404354Y-102170147D01*
X164529853Y-102295646D01*
X164628456Y-102443216D01*
X164696376Y-102607188D01*
X164731000Y-102781259D01*
X164731000Y-102958741D01*
X164696376Y-103132812D01*
X164628456Y-103296784D01*
X164529853Y-103444354D01*
X164404354Y-103569853D01*
X164256784Y-103668456D01*
X164092812Y-103736376D01*
X163943512Y-103766073D01*
X163918742Y-103771000D01*
X163741258Y-103771000D01*
X163716488Y-103766073D01*
X163567188Y-103736376D01*
X163403216Y-103668456D01*
X163255646Y-103569853D01*
X163130147Y-103444354D01*
X163031544Y-103296784D01*
X162963624Y-103132812D01*
X162929000Y-102958741D01*
X162929000Y-102781259D01*
X162963624Y-102607188D01*
X163031544Y-102443216D01*
X163130147Y-102295646D01*
X163255646Y-102170147D01*
X163403216Y-102071544D01*
X163567188Y-102003624D01*
X163716488Y-101973927D01*
X163741258Y-101969000D01*
X163918742Y-101969000D01*
X163943512Y-101973927D01*
G37*
G36*
X151243512Y-101973927D02*
G01*
X151392812Y-102003624D01*
X151556784Y-102071544D01*
X151704354Y-102170147D01*
X151829853Y-102295646D01*
X151928456Y-102443216D01*
X151996376Y-102607188D01*
X152031000Y-102781259D01*
X152031000Y-102958741D01*
X151996376Y-103132812D01*
X151928456Y-103296784D01*
X151829853Y-103444354D01*
X151704354Y-103569853D01*
X151556784Y-103668456D01*
X151392812Y-103736376D01*
X151243512Y-103766073D01*
X151218742Y-103771000D01*
X151041258Y-103771000D01*
X151016488Y-103766073D01*
X150867188Y-103736376D01*
X150703216Y-103668456D01*
X150555646Y-103569853D01*
X150430147Y-103444354D01*
X150331544Y-103296784D01*
X150263624Y-103132812D01*
X150229000Y-102958741D01*
X150229000Y-102781259D01*
X150263624Y-102607188D01*
X150331544Y-102443216D01*
X150430147Y-102295646D01*
X150555646Y-102170147D01*
X150703216Y-102071544D01*
X150867188Y-102003624D01*
X151016488Y-101973927D01*
X151041258Y-101969000D01*
X151218742Y-101969000D01*
X151243512Y-101973927D01*
G37*
G36*
X137273512Y-101973927D02*
G01*
X137422812Y-102003624D01*
X137586784Y-102071544D01*
X137734354Y-102170147D01*
X137859853Y-102295646D01*
X137958456Y-102443216D01*
X138026376Y-102607188D01*
X138061000Y-102781259D01*
X138061000Y-102958741D01*
X138026376Y-103132812D01*
X137958456Y-103296784D01*
X137859853Y-103444354D01*
X137734354Y-103569853D01*
X137586784Y-103668456D01*
X137422812Y-103736376D01*
X137273512Y-103766073D01*
X137248742Y-103771000D01*
X137071258Y-103771000D01*
X137046488Y-103766073D01*
X136897188Y-103736376D01*
X136733216Y-103668456D01*
X136585646Y-103569853D01*
X136460147Y-103444354D01*
X136361544Y-103296784D01*
X136293624Y-103132812D01*
X136259000Y-102958741D01*
X136259000Y-102781259D01*
X136293624Y-102607188D01*
X136361544Y-102443216D01*
X136460147Y-102295646D01*
X136585646Y-102170147D01*
X136733216Y-102071544D01*
X136897188Y-102003624D01*
X137046488Y-101973927D01*
X137071258Y-101969000D01*
X137248742Y-101969000D01*
X137273512Y-101973927D01*
G37*
G36*
X163943512Y-99433927D02*
G01*
X164092812Y-99463624D01*
X164256784Y-99531544D01*
X164404354Y-99630147D01*
X164529853Y-99755646D01*
X164628456Y-99903216D01*
X164696376Y-100067188D01*
X164731000Y-100241259D01*
X164731000Y-100418741D01*
X164696376Y-100592812D01*
X164628456Y-100756784D01*
X164529853Y-100904354D01*
X164404354Y-101029853D01*
X164256784Y-101128456D01*
X164092812Y-101196376D01*
X163943512Y-101226073D01*
X163918742Y-101231000D01*
X163741258Y-101231000D01*
X163716488Y-101226073D01*
X163567188Y-101196376D01*
X163403216Y-101128456D01*
X163255646Y-101029853D01*
X163130147Y-100904354D01*
X163031544Y-100756784D01*
X162963624Y-100592812D01*
X162929000Y-100418741D01*
X162929000Y-100241259D01*
X162963624Y-100067188D01*
X163031544Y-99903216D01*
X163130147Y-99755646D01*
X163255646Y-99630147D01*
X163403216Y-99531544D01*
X163567188Y-99463624D01*
X163716488Y-99433927D01*
X163741258Y-99429000D01*
X163918742Y-99429000D01*
X163943512Y-99433927D01*
G37*
G36*
X151243512Y-99433927D02*
G01*
X151392812Y-99463624D01*
X151556784Y-99531544D01*
X151704354Y-99630147D01*
X151829853Y-99755646D01*
X151928456Y-99903216D01*
X151996376Y-100067188D01*
X152031000Y-100241259D01*
X152031000Y-100418741D01*
X151996376Y-100592812D01*
X151928456Y-100756784D01*
X151829853Y-100904354D01*
X151704354Y-101029853D01*
X151556784Y-101128456D01*
X151392812Y-101196376D01*
X151243512Y-101226073D01*
X151218742Y-101231000D01*
X151041258Y-101231000D01*
X151016488Y-101226073D01*
X150867188Y-101196376D01*
X150703216Y-101128456D01*
X150555646Y-101029853D01*
X150430147Y-100904354D01*
X150331544Y-100756784D01*
X150263624Y-100592812D01*
X150229000Y-100418741D01*
X150229000Y-100241259D01*
X150263624Y-100067188D01*
X150331544Y-99903216D01*
X150430147Y-99755646D01*
X150555646Y-99630147D01*
X150703216Y-99531544D01*
X150867188Y-99463624D01*
X151016488Y-99433927D01*
X151041258Y-99429000D01*
X151218742Y-99429000D01*
X151243512Y-99433927D01*
G37*
G36*
X137273512Y-99433927D02*
G01*
X137422812Y-99463624D01*
X137586784Y-99531544D01*
X137734354Y-99630147D01*
X137859853Y-99755646D01*
X137958456Y-99903216D01*
X138026376Y-100067188D01*
X138061000Y-100241259D01*
X138061000Y-100418741D01*
X138026376Y-100592812D01*
X137958456Y-100756784D01*
X137859853Y-100904354D01*
X137734354Y-101029853D01*
X137586784Y-101128456D01*
X137422812Y-101196376D01*
X137273512Y-101226073D01*
X137248742Y-101231000D01*
X137071258Y-101231000D01*
X137046488Y-101226073D01*
X136897188Y-101196376D01*
X136733216Y-101128456D01*
X136585646Y-101029853D01*
X136460147Y-100904354D01*
X136361544Y-100756784D01*
X136293624Y-100592812D01*
X136259000Y-100418741D01*
X136259000Y-100241259D01*
X136293624Y-100067188D01*
X136361544Y-99903216D01*
X136460147Y-99755646D01*
X136585646Y-99630147D01*
X136733216Y-99531544D01*
X136897188Y-99463624D01*
X137046488Y-99433927D01*
X137071258Y-99429000D01*
X137248742Y-99429000D01*
X137273512Y-99433927D01*
G37*
G36*
X111873512Y-99433927D02*
G01*
X112022812Y-99463624D01*
X112186784Y-99531544D01*
X112334354Y-99630147D01*
X112459853Y-99755646D01*
X112558456Y-99903216D01*
X112626376Y-100067188D01*
X112661000Y-100241259D01*
X112661000Y-100418741D01*
X112626376Y-100592812D01*
X112558456Y-100756784D01*
X112459853Y-100904354D01*
X112334354Y-101029853D01*
X112186784Y-101128456D01*
X112022812Y-101196376D01*
X111873512Y-101226073D01*
X111848742Y-101231000D01*
X111671258Y-101231000D01*
X111646488Y-101226073D01*
X111497188Y-101196376D01*
X111333216Y-101128456D01*
X111185646Y-101029853D01*
X111060147Y-100904354D01*
X110961544Y-100756784D01*
X110893624Y-100592812D01*
X110859000Y-100418741D01*
X110859000Y-100241259D01*
X110893624Y-100067188D01*
X110961544Y-99903216D01*
X111060147Y-99755646D01*
X111185646Y-99630147D01*
X111333216Y-99531544D01*
X111497188Y-99463624D01*
X111646488Y-99433927D01*
X111671258Y-99429000D01*
X111848742Y-99429000D01*
X111873512Y-99433927D01*
G37*
G36*
X174891000Y-101231000D02*
G01*
X173089000Y-101231000D01*
X173089000Y-99429000D01*
X174891000Y-99429000D01*
X174891000Y-101231000D01*
G37*
G36*
X103721000Y-99911000D02*
G01*
X102019000Y-99911000D01*
X102019000Y-98209000D01*
X103721000Y-98209000D01*
X103721000Y-99911000D01*
G37*
G36*
X100618228Y-98241703D02*
G01*
X100773100Y-98305853D01*
X100912481Y-98398985D01*
X101031015Y-98517519D01*
X101124147Y-98656900D01*
X101188297Y-98811772D01*
X101221000Y-98976184D01*
X101221000Y-99143816D01*
X101188297Y-99308228D01*
X101124147Y-99463100D01*
X101031015Y-99602481D01*
X100912481Y-99721015D01*
X100773100Y-99814147D01*
X100618228Y-99878297D01*
X100453816Y-99911000D01*
X100286184Y-99911000D01*
X100121772Y-99878297D01*
X99966900Y-99814147D01*
X99827519Y-99721015D01*
X99708985Y-99602481D01*
X99615853Y-99463100D01*
X99551703Y-99308228D01*
X99519000Y-99143816D01*
X99519000Y-98976184D01*
X99551703Y-98811772D01*
X99615853Y-98656900D01*
X99708985Y-98517519D01*
X99827519Y-98398985D01*
X99966900Y-98305853D01*
X100121772Y-98241703D01*
X100286184Y-98209000D01*
X100453816Y-98209000D01*
X100618228Y-98241703D01*
G37*
G36*
X86648228Y-98241703D02*
G01*
X86803100Y-98305853D01*
X86942481Y-98398985D01*
X87061015Y-98517519D01*
X87154147Y-98656900D01*
X87218297Y-98811772D01*
X87251000Y-98976184D01*
X87251000Y-99143816D01*
X87218297Y-99308228D01*
X87154147Y-99463100D01*
X87061015Y-99602481D01*
X86942481Y-99721015D01*
X86803100Y-99814147D01*
X86648228Y-99878297D01*
X86483816Y-99911000D01*
X86316184Y-99911000D01*
X86151772Y-99878297D01*
X85996900Y-99814147D01*
X85857519Y-99721015D01*
X85738985Y-99602481D01*
X85645853Y-99463100D01*
X85581703Y-99308228D01*
X85549000Y-99143816D01*
X85549000Y-98976184D01*
X85581703Y-98811772D01*
X85645853Y-98656900D01*
X85738985Y-98517519D01*
X85857519Y-98398985D01*
X85996900Y-98305853D01*
X86151772Y-98241703D01*
X86316184Y-98209000D01*
X86483816Y-98209000D01*
X86648228Y-98241703D01*
G37*
G36*
X89751000Y-99911000D02*
G01*
X88049000Y-99911000D01*
X88049000Y-98209000D01*
X89751000Y-98209000D01*
X89751000Y-99911000D01*
G37*
G36*
X163943512Y-96893927D02*
G01*
X164092812Y-96923624D01*
X164256784Y-96991544D01*
X164404354Y-97090147D01*
X164529853Y-97215646D01*
X164628456Y-97363216D01*
X164696376Y-97527188D01*
X164731000Y-97701259D01*
X164731000Y-97878741D01*
X164696376Y-98052812D01*
X164628456Y-98216784D01*
X164529853Y-98364354D01*
X164404354Y-98489853D01*
X164256784Y-98588456D01*
X164092812Y-98656376D01*
X163943512Y-98686073D01*
X163918742Y-98691000D01*
X163741258Y-98691000D01*
X163716488Y-98686073D01*
X163567188Y-98656376D01*
X163403216Y-98588456D01*
X163255646Y-98489853D01*
X163130147Y-98364354D01*
X163031544Y-98216784D01*
X162963624Y-98052812D01*
X162929000Y-97878741D01*
X162929000Y-97701259D01*
X162963624Y-97527188D01*
X163031544Y-97363216D01*
X163130147Y-97215646D01*
X163255646Y-97090147D01*
X163403216Y-96991544D01*
X163567188Y-96923624D01*
X163716488Y-96893927D01*
X163741258Y-96889000D01*
X163918742Y-96889000D01*
X163943512Y-96893927D01*
G37*
G36*
X111873512Y-96893927D02*
G01*
X112022812Y-96923624D01*
X112186784Y-96991544D01*
X112334354Y-97090147D01*
X112459853Y-97215646D01*
X112558456Y-97363216D01*
X112626376Y-97527188D01*
X112661000Y-97701259D01*
X112661000Y-97878741D01*
X112626376Y-98052812D01*
X112558456Y-98216784D01*
X112459853Y-98364354D01*
X112334354Y-98489853D01*
X112186784Y-98588456D01*
X112022812Y-98656376D01*
X111873512Y-98686073D01*
X111848742Y-98691000D01*
X111671258Y-98691000D01*
X111646488Y-98686073D01*
X111497188Y-98656376D01*
X111333216Y-98588456D01*
X111185646Y-98489853D01*
X111060147Y-98364354D01*
X110961544Y-98216784D01*
X110893624Y-98052812D01*
X110859000Y-97878741D01*
X110859000Y-97701259D01*
X110893624Y-97527188D01*
X110961544Y-97363216D01*
X111060147Y-97215646D01*
X111185646Y-97090147D01*
X111333216Y-96991544D01*
X111497188Y-96923624D01*
X111646488Y-96893927D01*
X111671258Y-96889000D01*
X111848742Y-96889000D01*
X111873512Y-96893927D01*
G37*
G36*
X151243512Y-96893927D02*
G01*
X151392812Y-96923624D01*
X151556784Y-96991544D01*
X151704354Y-97090147D01*
X151829853Y-97215646D01*
X151928456Y-97363216D01*
X151996376Y-97527188D01*
X152031000Y-97701259D01*
X152031000Y-97878741D01*
X151996376Y-98052812D01*
X151928456Y-98216784D01*
X151829853Y-98364354D01*
X151704354Y-98489853D01*
X151556784Y-98588456D01*
X151392812Y-98656376D01*
X151243512Y-98686073D01*
X151218742Y-98691000D01*
X151041258Y-98691000D01*
X151016488Y-98686073D01*
X150867188Y-98656376D01*
X150703216Y-98588456D01*
X150555646Y-98489853D01*
X150430147Y-98364354D01*
X150331544Y-98216784D01*
X150263624Y-98052812D01*
X150229000Y-97878741D01*
X150229000Y-97701259D01*
X150263624Y-97527188D01*
X150331544Y-97363216D01*
X150430147Y-97215646D01*
X150555646Y-97090147D01*
X150703216Y-96991544D01*
X150867188Y-96923624D01*
X151016488Y-96893927D01*
X151041258Y-96889000D01*
X151218742Y-96889000D01*
X151243512Y-96893927D01*
G37*
G36*
X137273512Y-96893927D02*
G01*
X137422812Y-96923624D01*
X137586784Y-96991544D01*
X137734354Y-97090147D01*
X137859853Y-97215646D01*
X137958456Y-97363216D01*
X138026376Y-97527188D01*
X138061000Y-97701259D01*
X138061000Y-97878741D01*
X138026376Y-98052812D01*
X137958456Y-98216784D01*
X137859853Y-98364354D01*
X137734354Y-98489853D01*
X137586784Y-98588456D01*
X137422812Y-98656376D01*
X137273512Y-98686073D01*
X137248742Y-98691000D01*
X137071258Y-98691000D01*
X137046488Y-98686073D01*
X136897188Y-98656376D01*
X136733216Y-98588456D01*
X136585646Y-98489853D01*
X136460147Y-98364354D01*
X136361544Y-98216784D01*
X136293624Y-98052812D01*
X136259000Y-97878741D01*
X136259000Y-97701259D01*
X136293624Y-97527188D01*
X136361544Y-97363216D01*
X136460147Y-97215646D01*
X136585646Y-97090147D01*
X136733216Y-96991544D01*
X136897188Y-96923624D01*
X137046488Y-96893927D01*
X137071258Y-96889000D01*
X137248742Y-96889000D01*
X137273512Y-96893927D01*
G37*
G36*
X137273512Y-94353927D02*
G01*
X137422812Y-94383624D01*
X137586784Y-94451544D01*
X137734354Y-94550147D01*
X137859853Y-94675646D01*
X137958456Y-94823216D01*
X138026376Y-94987188D01*
X138061000Y-95161259D01*
X138061000Y-95338741D01*
X138026376Y-95512812D01*
X137958456Y-95676784D01*
X137859853Y-95824354D01*
X137734354Y-95949853D01*
X137586784Y-96048456D01*
X137422812Y-96116376D01*
X137273512Y-96146073D01*
X137248742Y-96151000D01*
X137071258Y-96151000D01*
X137046488Y-96146073D01*
X136897188Y-96116376D01*
X136733216Y-96048456D01*
X136585646Y-95949853D01*
X136460147Y-95824354D01*
X136361544Y-95676784D01*
X136293624Y-95512812D01*
X136259000Y-95338741D01*
X136259000Y-95161259D01*
X136293624Y-94987188D01*
X136361544Y-94823216D01*
X136460147Y-94675646D01*
X136585646Y-94550147D01*
X136733216Y-94451544D01*
X136897188Y-94383624D01*
X137046488Y-94353927D01*
X137071258Y-94349000D01*
X137248742Y-94349000D01*
X137273512Y-94353927D01*
G37*
G36*
X164731000Y-96151000D02*
G01*
X162929000Y-96151000D01*
X162929000Y-94349000D01*
X164731000Y-94349000D01*
X164731000Y-96151000D01*
G37*
G36*
X152031000Y-96151000D02*
G01*
X150229000Y-96151000D01*
X150229000Y-94349000D01*
X152031000Y-94349000D01*
X152031000Y-96151000D01*
G37*
G36*
X111873512Y-94353927D02*
G01*
X112022812Y-94383624D01*
X112186784Y-94451544D01*
X112334354Y-94550147D01*
X112459853Y-94675646D01*
X112558456Y-94823216D01*
X112626376Y-94987188D01*
X112661000Y-95161259D01*
X112661000Y-95338741D01*
X112626376Y-95512812D01*
X112558456Y-95676784D01*
X112459853Y-95824354D01*
X112334354Y-95949853D01*
X112186784Y-96048456D01*
X112022812Y-96116376D01*
X111873512Y-96146073D01*
X111848742Y-96151000D01*
X111671258Y-96151000D01*
X111646488Y-96146073D01*
X111497188Y-96116376D01*
X111333216Y-96048456D01*
X111185646Y-95949853D01*
X111060147Y-95824354D01*
X110961544Y-95676784D01*
X110893624Y-95512812D01*
X110859000Y-95338741D01*
X110859000Y-95161259D01*
X110893624Y-94987188D01*
X110961544Y-94823216D01*
X111060147Y-94675646D01*
X111185646Y-94550147D01*
X111333216Y-94451544D01*
X111497188Y-94383624D01*
X111646488Y-94353927D01*
X111671258Y-94349000D01*
X111848742Y-94349000D01*
X111873512Y-94353927D01*
G37*
G36*
X111873512Y-91813927D02*
G01*
X112022812Y-91843624D01*
X112186784Y-91911544D01*
X112334354Y-92010147D01*
X112459853Y-92135646D01*
X112558456Y-92283216D01*
X112626376Y-92447188D01*
X112661000Y-92621259D01*
X112661000Y-92798741D01*
X112626376Y-92972812D01*
X112558456Y-93136784D01*
X112459853Y-93284354D01*
X112334354Y-93409853D01*
X112186784Y-93508456D01*
X112022812Y-93576376D01*
X111873512Y-93606073D01*
X111848742Y-93611000D01*
X111671258Y-93611000D01*
X111646488Y-93606073D01*
X111497188Y-93576376D01*
X111333216Y-93508456D01*
X111185646Y-93409853D01*
X111060147Y-93284354D01*
X110961544Y-93136784D01*
X110893624Y-92972812D01*
X110859000Y-92798741D01*
X110859000Y-92621259D01*
X110893624Y-92447188D01*
X110961544Y-92283216D01*
X111060147Y-92135646D01*
X111185646Y-92010147D01*
X111333216Y-91911544D01*
X111497188Y-91843624D01*
X111646488Y-91813927D01*
X111671258Y-91809000D01*
X111848742Y-91809000D01*
X111873512Y-91813927D01*
G37*
G36*
X137273512Y-91813927D02*
G01*
X137422812Y-91843624D01*
X137586784Y-91911544D01*
X137734354Y-92010147D01*
X137859853Y-92135646D01*
X137958456Y-92283216D01*
X138026376Y-92447188D01*
X138061000Y-92621259D01*
X138061000Y-92798741D01*
X138026376Y-92972812D01*
X137958456Y-93136784D01*
X137859853Y-93284354D01*
X137734354Y-93409853D01*
X137586784Y-93508456D01*
X137422812Y-93576376D01*
X137273512Y-93606073D01*
X137248742Y-93611000D01*
X137071258Y-93611000D01*
X137046488Y-93606073D01*
X136897188Y-93576376D01*
X136733216Y-93508456D01*
X136585646Y-93409853D01*
X136460147Y-93284354D01*
X136361544Y-93136784D01*
X136293624Y-92972812D01*
X136259000Y-92798741D01*
X136259000Y-92621259D01*
X136293624Y-92447188D01*
X136361544Y-92283216D01*
X136460147Y-92135646D01*
X136585646Y-92010147D01*
X136733216Y-91911544D01*
X136897188Y-91843624D01*
X137046488Y-91813927D01*
X137071258Y-91809000D01*
X137248742Y-91809000D01*
X137273512Y-91813927D01*
G37*
G36*
X172301000Y-92291000D02*
G01*
X170599000Y-92291000D01*
X170599000Y-90589000D01*
X172301000Y-90589000D01*
X172301000Y-92291000D01*
G37*
G36*
X81161000Y-91321000D02*
G01*
X78859000Y-91321000D01*
X78859000Y-89019000D01*
X81161000Y-89019000D01*
X81161000Y-91321000D01*
G37*
G36*
X137273512Y-89273927D02*
G01*
X137422812Y-89303624D01*
X137586784Y-89371544D01*
X137734354Y-89470147D01*
X137859853Y-89595646D01*
X137958456Y-89743216D01*
X138026376Y-89907188D01*
X138061000Y-90081259D01*
X138061000Y-90258741D01*
X138026376Y-90432812D01*
X137958456Y-90596784D01*
X137859853Y-90744354D01*
X137734354Y-90869853D01*
X137586784Y-90968456D01*
X137422812Y-91036376D01*
X137273512Y-91066073D01*
X137248742Y-91071000D01*
X137071258Y-91071000D01*
X137046488Y-91066073D01*
X136897188Y-91036376D01*
X136733216Y-90968456D01*
X136585646Y-90869853D01*
X136460147Y-90744354D01*
X136361544Y-90596784D01*
X136293624Y-90432812D01*
X136259000Y-90258741D01*
X136259000Y-90081259D01*
X136293624Y-89907188D01*
X136361544Y-89743216D01*
X136460147Y-89595646D01*
X136585646Y-89470147D01*
X136733216Y-89371544D01*
X136897188Y-89303624D01*
X137046488Y-89273927D01*
X137071258Y-89269000D01*
X137248742Y-89269000D01*
X137273512Y-89273927D01*
G37*
G36*
X111873512Y-89273927D02*
G01*
X112022812Y-89303624D01*
X112186784Y-89371544D01*
X112334354Y-89470147D01*
X112459853Y-89595646D01*
X112558456Y-89743216D01*
X112626376Y-89907188D01*
X112661000Y-90081259D01*
X112661000Y-90258741D01*
X112626376Y-90432812D01*
X112558456Y-90596784D01*
X112459853Y-90744354D01*
X112334354Y-90869853D01*
X112186784Y-90968456D01*
X112022812Y-91036376D01*
X111873512Y-91066073D01*
X111848742Y-91071000D01*
X111671258Y-91071000D01*
X111646488Y-91066073D01*
X111497188Y-91036376D01*
X111333216Y-90968456D01*
X111185646Y-90869853D01*
X111060147Y-90744354D01*
X110961544Y-90596784D01*
X110893624Y-90432812D01*
X110859000Y-90258741D01*
X110859000Y-90081259D01*
X110893624Y-89907188D01*
X110961544Y-89743216D01*
X111060147Y-89595646D01*
X111185646Y-89470147D01*
X111333216Y-89371544D01*
X111497188Y-89303624D01*
X111646488Y-89273927D01*
X111671258Y-89269000D01*
X111848742Y-89269000D01*
X111873512Y-89273927D01*
G37*
G36*
X171698228Y-88121703D02*
G01*
X171853100Y-88185853D01*
X171992481Y-88278985D01*
X172111015Y-88397519D01*
X172204147Y-88536900D01*
X172268297Y-88691772D01*
X172301000Y-88856184D01*
X172301000Y-89023816D01*
X172268297Y-89188228D01*
X172204147Y-89343100D01*
X172111015Y-89482481D01*
X171992481Y-89601015D01*
X171853100Y-89694147D01*
X171698228Y-89758297D01*
X171533816Y-89791000D01*
X171366184Y-89791000D01*
X171201772Y-89758297D01*
X171046900Y-89694147D01*
X170907519Y-89601015D01*
X170788985Y-89482481D01*
X170695853Y-89343100D01*
X170631703Y-89188228D01*
X170599000Y-89023816D01*
X170599000Y-88856184D01*
X170631703Y-88691772D01*
X170695853Y-88536900D01*
X170788985Y-88397519D01*
X170907519Y-88278985D01*
X171046900Y-88185853D01*
X171201772Y-88121703D01*
X171366184Y-88089000D01*
X171533816Y-88089000D01*
X171698228Y-88121703D01*
G37*
G36*
X137273512Y-86733927D02*
G01*
X137422812Y-86763624D01*
X137586784Y-86831544D01*
X137734354Y-86930147D01*
X137859853Y-87055646D01*
X137958456Y-87203216D01*
X138026376Y-87367188D01*
X138061000Y-87541259D01*
X138061000Y-87718741D01*
X138026376Y-87892812D01*
X137958456Y-88056784D01*
X137859853Y-88204354D01*
X137734354Y-88329853D01*
X137586784Y-88428456D01*
X137422812Y-88496376D01*
X137273512Y-88526073D01*
X137248742Y-88531000D01*
X137071258Y-88531000D01*
X137046488Y-88526073D01*
X136897188Y-88496376D01*
X136733216Y-88428456D01*
X136585646Y-88329853D01*
X136460147Y-88204354D01*
X136361544Y-88056784D01*
X136293624Y-87892812D01*
X136259000Y-87718741D01*
X136259000Y-87541259D01*
X136293624Y-87367188D01*
X136361544Y-87203216D01*
X136460147Y-87055646D01*
X136585646Y-86930147D01*
X136733216Y-86831544D01*
X136897188Y-86763624D01*
X137046488Y-86733927D01*
X137071258Y-86729000D01*
X137248742Y-86729000D01*
X137273512Y-86733927D01*
G37*
G36*
X111873512Y-86733927D02*
G01*
X112022812Y-86763624D01*
X112186784Y-86831544D01*
X112334354Y-86930147D01*
X112459853Y-87055646D01*
X112558456Y-87203216D01*
X112626376Y-87367188D01*
X112661000Y-87541259D01*
X112661000Y-87718741D01*
X112626376Y-87892812D01*
X112558456Y-88056784D01*
X112459853Y-88204354D01*
X112334354Y-88329853D01*
X112186784Y-88428456D01*
X112022812Y-88496376D01*
X111873512Y-88526073D01*
X111848742Y-88531000D01*
X111671258Y-88531000D01*
X111646488Y-88526073D01*
X111497188Y-88496376D01*
X111333216Y-88428456D01*
X111185646Y-88329853D01*
X111060147Y-88204354D01*
X110961544Y-88056784D01*
X110893624Y-87892812D01*
X110859000Y-87718741D01*
X110859000Y-87541259D01*
X110893624Y-87367188D01*
X110961544Y-87203216D01*
X111060147Y-87055646D01*
X111185646Y-86930147D01*
X111333216Y-86831544D01*
X111497188Y-86763624D01*
X111646488Y-86733927D01*
X111671258Y-86729000D01*
X111848742Y-86729000D01*
X111873512Y-86733927D01*
G37*
G36*
X163943512Y-85463927D02*
G01*
X164092812Y-85493624D01*
X164256784Y-85561544D01*
X164404354Y-85660147D01*
X164529853Y-85785646D01*
X164628456Y-85933216D01*
X164696376Y-86097188D01*
X164731000Y-86271259D01*
X164731000Y-86448741D01*
X164696376Y-86622812D01*
X164628456Y-86786784D01*
X164529853Y-86934354D01*
X164404354Y-87059853D01*
X164256784Y-87158456D01*
X164092812Y-87226376D01*
X163943512Y-87256073D01*
X163918742Y-87261000D01*
X163741258Y-87261000D01*
X163716488Y-87256073D01*
X163567188Y-87226376D01*
X163403216Y-87158456D01*
X163255646Y-87059853D01*
X163130147Y-86934354D01*
X163031544Y-86786784D01*
X162963624Y-86622812D01*
X162929000Y-86448741D01*
X162929000Y-86271259D01*
X162963624Y-86097188D01*
X163031544Y-85933216D01*
X163130147Y-85785646D01*
X163255646Y-85660147D01*
X163403216Y-85561544D01*
X163567188Y-85493624D01*
X163716488Y-85463927D01*
X163741258Y-85459000D01*
X163918742Y-85459000D01*
X163943512Y-85463927D01*
G37*
G36*
X151243512Y-85463927D02*
G01*
X151392812Y-85493624D01*
X151556784Y-85561544D01*
X151704354Y-85660147D01*
X151829853Y-85785646D01*
X151928456Y-85933216D01*
X151996376Y-86097188D01*
X152031000Y-86271259D01*
X152031000Y-86448741D01*
X151996376Y-86622812D01*
X151928456Y-86786784D01*
X151829853Y-86934354D01*
X151704354Y-87059853D01*
X151556784Y-87158456D01*
X151392812Y-87226376D01*
X151243512Y-87256073D01*
X151218742Y-87261000D01*
X151041258Y-87261000D01*
X151016488Y-87256073D01*
X150867188Y-87226376D01*
X150703216Y-87158456D01*
X150555646Y-87059853D01*
X150430147Y-86934354D01*
X150331544Y-86786784D01*
X150263624Y-86622812D01*
X150229000Y-86448741D01*
X150229000Y-86271259D01*
X150263624Y-86097188D01*
X150331544Y-85933216D01*
X150430147Y-85785646D01*
X150555646Y-85660147D01*
X150703216Y-85561544D01*
X150867188Y-85493624D01*
X151016488Y-85463927D01*
X151041258Y-85459000D01*
X151218742Y-85459000D01*
X151243512Y-85463927D01*
G37*
G36*
X111873512Y-84193927D02*
G01*
X112022812Y-84223624D01*
X112186784Y-84291544D01*
X112334354Y-84390147D01*
X112459853Y-84515646D01*
X112558456Y-84663216D01*
X112626376Y-84827188D01*
X112661000Y-85001259D01*
X112661000Y-85178741D01*
X112626376Y-85352812D01*
X112558456Y-85516784D01*
X112459853Y-85664354D01*
X112334354Y-85789853D01*
X112186784Y-85888456D01*
X112022812Y-85956376D01*
X111873512Y-85986073D01*
X111848742Y-85991000D01*
X111671258Y-85991000D01*
X111646488Y-85986073D01*
X111497188Y-85956376D01*
X111333216Y-85888456D01*
X111185646Y-85789853D01*
X111060147Y-85664354D01*
X110961544Y-85516784D01*
X110893624Y-85352812D01*
X110859000Y-85178741D01*
X110859000Y-85001259D01*
X110893624Y-84827188D01*
X110961544Y-84663216D01*
X111060147Y-84515646D01*
X111185646Y-84390147D01*
X111333216Y-84291544D01*
X111497188Y-84223624D01*
X111646488Y-84193927D01*
X111671258Y-84189000D01*
X111848742Y-84189000D01*
X111873512Y-84193927D01*
G37*
G36*
X137273512Y-84193927D02*
G01*
X137422812Y-84223624D01*
X137586784Y-84291544D01*
X137734354Y-84390147D01*
X137859853Y-84515646D01*
X137958456Y-84663216D01*
X138026376Y-84827188D01*
X138061000Y-85001259D01*
X138061000Y-85178741D01*
X138026376Y-85352812D01*
X137958456Y-85516784D01*
X137859853Y-85664354D01*
X137734354Y-85789853D01*
X137586784Y-85888456D01*
X137422812Y-85956376D01*
X137273512Y-85986073D01*
X137248742Y-85991000D01*
X137071258Y-85991000D01*
X137046488Y-85986073D01*
X136897188Y-85956376D01*
X136733216Y-85888456D01*
X136585646Y-85789853D01*
X136460147Y-85664354D01*
X136361544Y-85516784D01*
X136293624Y-85352812D01*
X136259000Y-85178741D01*
X136259000Y-85001259D01*
X136293624Y-84827188D01*
X136361544Y-84663216D01*
X136460147Y-84515646D01*
X136585646Y-84390147D01*
X136733216Y-84291544D01*
X136897188Y-84223624D01*
X137046488Y-84193927D01*
X137071258Y-84189000D01*
X137248742Y-84189000D01*
X137273512Y-84193927D01*
G37*
G36*
X151243512Y-82923927D02*
G01*
X151392812Y-82953624D01*
X151556784Y-83021544D01*
X151704354Y-83120147D01*
X151829853Y-83245646D01*
X151928456Y-83393216D01*
X151996376Y-83557188D01*
X152031000Y-83731259D01*
X152031000Y-83908741D01*
X151996376Y-84082812D01*
X151928456Y-84246784D01*
X151829853Y-84394354D01*
X151704354Y-84519853D01*
X151556784Y-84618456D01*
X151392812Y-84686376D01*
X151243512Y-84716073D01*
X151218742Y-84721000D01*
X151041258Y-84721000D01*
X151016488Y-84716073D01*
X150867188Y-84686376D01*
X150703216Y-84618456D01*
X150555646Y-84519853D01*
X150430147Y-84394354D01*
X150331544Y-84246784D01*
X150263624Y-84082812D01*
X150229000Y-83908741D01*
X150229000Y-83731259D01*
X150263624Y-83557188D01*
X150331544Y-83393216D01*
X150430147Y-83245646D01*
X150555646Y-83120147D01*
X150703216Y-83021544D01*
X150867188Y-82953624D01*
X151016488Y-82923927D01*
X151041258Y-82919000D01*
X151218742Y-82919000D01*
X151243512Y-82923927D01*
G37*
G36*
X163943512Y-82923927D02*
G01*
X164092812Y-82953624D01*
X164256784Y-83021544D01*
X164404354Y-83120147D01*
X164529853Y-83245646D01*
X164628456Y-83393216D01*
X164696376Y-83557188D01*
X164731000Y-83731259D01*
X164731000Y-83908741D01*
X164696376Y-84082812D01*
X164628456Y-84246784D01*
X164529853Y-84394354D01*
X164404354Y-84519853D01*
X164256784Y-84618456D01*
X164092812Y-84686376D01*
X163943512Y-84716073D01*
X163918742Y-84721000D01*
X163741258Y-84721000D01*
X163716488Y-84716073D01*
X163567188Y-84686376D01*
X163403216Y-84618456D01*
X163255646Y-84519853D01*
X163130147Y-84394354D01*
X163031544Y-84246784D01*
X162963624Y-84082812D01*
X162929000Y-83908741D01*
X162929000Y-83731259D01*
X162963624Y-83557188D01*
X163031544Y-83393216D01*
X163130147Y-83245646D01*
X163255646Y-83120147D01*
X163403216Y-83021544D01*
X163567188Y-82953624D01*
X163716488Y-82923927D01*
X163741258Y-82919000D01*
X163918742Y-82919000D01*
X163943512Y-82923927D01*
G37*
G36*
X137273512Y-81653927D02*
G01*
X137422812Y-81683624D01*
X137586784Y-81751544D01*
X137734354Y-81850147D01*
X137859853Y-81975646D01*
X137958456Y-82123216D01*
X138026376Y-82287188D01*
X138061000Y-82461259D01*
X138061000Y-82638741D01*
X138026376Y-82812812D01*
X137958456Y-82976784D01*
X137859853Y-83124354D01*
X137734354Y-83249853D01*
X137586784Y-83348456D01*
X137422812Y-83416376D01*
X137273512Y-83446073D01*
X137248742Y-83451000D01*
X137071258Y-83451000D01*
X137046488Y-83446073D01*
X136897188Y-83416376D01*
X136733216Y-83348456D01*
X136585646Y-83249853D01*
X136460147Y-83124354D01*
X136361544Y-82976784D01*
X136293624Y-82812812D01*
X136259000Y-82638741D01*
X136259000Y-82461259D01*
X136293624Y-82287188D01*
X136361544Y-82123216D01*
X136460147Y-81975646D01*
X136585646Y-81850147D01*
X136733216Y-81751544D01*
X136897188Y-81683624D01*
X137046488Y-81653927D01*
X137071258Y-81649000D01*
X137248742Y-81649000D01*
X137273512Y-81653927D01*
G37*
G36*
X111873512Y-81653927D02*
G01*
X112022812Y-81683624D01*
X112186784Y-81751544D01*
X112334354Y-81850147D01*
X112459853Y-81975646D01*
X112558456Y-82123216D01*
X112626376Y-82287188D01*
X112661000Y-82461259D01*
X112661000Y-82638741D01*
X112626376Y-82812812D01*
X112558456Y-82976784D01*
X112459853Y-83124354D01*
X112334354Y-83249853D01*
X112186784Y-83348456D01*
X112022812Y-83416376D01*
X111873512Y-83446073D01*
X111848742Y-83451000D01*
X111671258Y-83451000D01*
X111646488Y-83446073D01*
X111497188Y-83416376D01*
X111333216Y-83348456D01*
X111185646Y-83249853D01*
X111060147Y-83124354D01*
X110961544Y-82976784D01*
X110893624Y-82812812D01*
X110859000Y-82638741D01*
X110859000Y-82461259D01*
X110893624Y-82287188D01*
X110961544Y-82123216D01*
X111060147Y-81975646D01*
X111185646Y-81850147D01*
X111333216Y-81751544D01*
X111497188Y-81683624D01*
X111646488Y-81653927D01*
X111671258Y-81649000D01*
X111848742Y-81649000D01*
X111873512Y-81653927D01*
G37*
G36*
X151243512Y-80383927D02*
G01*
X151392812Y-80413624D01*
X151556784Y-80481544D01*
X151704354Y-80580147D01*
X151829853Y-80705646D01*
X151928456Y-80853216D01*
X151996376Y-81017188D01*
X152031000Y-81191259D01*
X152031000Y-81368741D01*
X151996376Y-81542812D01*
X151928456Y-81706784D01*
X151829853Y-81854354D01*
X151704354Y-81979853D01*
X151556784Y-82078456D01*
X151392812Y-82146376D01*
X151243512Y-82176073D01*
X151218742Y-82181000D01*
X151041258Y-82181000D01*
X151016488Y-82176073D01*
X150867188Y-82146376D01*
X150703216Y-82078456D01*
X150555646Y-81979853D01*
X150430147Y-81854354D01*
X150331544Y-81706784D01*
X150263624Y-81542812D01*
X150229000Y-81368741D01*
X150229000Y-81191259D01*
X150263624Y-81017188D01*
X150331544Y-80853216D01*
X150430147Y-80705646D01*
X150555646Y-80580147D01*
X150703216Y-80481544D01*
X150867188Y-80413624D01*
X151016488Y-80383927D01*
X151041258Y-80379000D01*
X151218742Y-80379000D01*
X151243512Y-80383927D01*
G37*
G36*
X163943512Y-80383927D02*
G01*
X164092812Y-80413624D01*
X164256784Y-80481544D01*
X164404354Y-80580147D01*
X164529853Y-80705646D01*
X164628456Y-80853216D01*
X164696376Y-81017188D01*
X164731000Y-81191259D01*
X164731000Y-81368741D01*
X164696376Y-81542812D01*
X164628456Y-81706784D01*
X164529853Y-81854354D01*
X164404354Y-81979853D01*
X164256784Y-82078456D01*
X164092812Y-82146376D01*
X163943512Y-82176073D01*
X163918742Y-82181000D01*
X163741258Y-82181000D01*
X163716488Y-82176073D01*
X163567188Y-82146376D01*
X163403216Y-82078456D01*
X163255646Y-81979853D01*
X163130147Y-81854354D01*
X163031544Y-81706784D01*
X162963624Y-81542812D01*
X162929000Y-81368741D01*
X162929000Y-81191259D01*
X162963624Y-81017188D01*
X163031544Y-80853216D01*
X163130147Y-80705646D01*
X163255646Y-80580147D01*
X163403216Y-80481544D01*
X163567188Y-80413624D01*
X163716488Y-80383927D01*
X163741258Y-80379000D01*
X163918742Y-80379000D01*
X163943512Y-80383927D01*
G37*
G36*
X174103512Y-80383927D02*
G01*
X174252812Y-80413624D01*
X174416784Y-80481544D01*
X174564354Y-80580147D01*
X174689853Y-80705646D01*
X174788456Y-80853216D01*
X174856376Y-81017188D01*
X174891000Y-81191259D01*
X174891000Y-81368741D01*
X174856376Y-81542812D01*
X174788456Y-81706784D01*
X174689853Y-81854354D01*
X174564354Y-81979853D01*
X174416784Y-82078456D01*
X174252812Y-82146376D01*
X174103512Y-82176073D01*
X174078742Y-82181000D01*
X173901258Y-82181000D01*
X173876488Y-82176073D01*
X173727188Y-82146376D01*
X173563216Y-82078456D01*
X173415646Y-81979853D01*
X173290147Y-81854354D01*
X173191544Y-81706784D01*
X173123624Y-81542812D01*
X173089000Y-81368741D01*
X173089000Y-81191259D01*
X173123624Y-81017188D01*
X173191544Y-80853216D01*
X173290147Y-80705646D01*
X173415646Y-80580147D01*
X173563216Y-80481544D01*
X173727188Y-80413624D01*
X173876488Y-80383927D01*
X173901258Y-80379000D01*
X174078742Y-80379000D01*
X174103512Y-80383927D01*
G37*
G36*
X80234549Y-78881116D02*
G01*
X80345734Y-78903232D01*
X80555203Y-78989997D01*
X80743720Y-79115960D01*
X80904040Y-79276280D01*
X81030003Y-79464797D01*
X81116768Y-79674266D01*
X81161000Y-79896636D01*
X81161000Y-80123364D01*
X81116768Y-80345734D01*
X81030003Y-80555203D01*
X80904040Y-80743720D01*
X80743720Y-80904040D01*
X80555203Y-81030003D01*
X80345734Y-81116768D01*
X80234549Y-81138884D01*
X80123365Y-81161000D01*
X79896635Y-81161000D01*
X79785451Y-81138884D01*
X79674266Y-81116768D01*
X79464797Y-81030003D01*
X79276280Y-80904040D01*
X79115960Y-80743720D01*
X78989997Y-80555203D01*
X78903232Y-80345734D01*
X78859000Y-80123364D01*
X78859000Y-79896636D01*
X78903232Y-79674266D01*
X78989997Y-79464797D01*
X79115960Y-79276280D01*
X79276280Y-79115960D01*
X79464797Y-78989997D01*
X79674266Y-78903232D01*
X79785451Y-78881116D01*
X79896635Y-78859000D01*
X80123365Y-78859000D01*
X80234549Y-78881116D01*
G37*
G36*
X111873512Y-79113927D02*
G01*
X112022812Y-79143624D01*
X112186784Y-79211544D01*
X112334354Y-79310147D01*
X112459853Y-79435646D01*
X112558456Y-79583216D01*
X112626376Y-79747188D01*
X112661000Y-79921259D01*
X112661000Y-80098741D01*
X112626376Y-80272812D01*
X112558456Y-80436784D01*
X112459853Y-80584354D01*
X112334354Y-80709853D01*
X112186784Y-80808456D01*
X112022812Y-80876376D01*
X111883732Y-80904040D01*
X111848742Y-80911000D01*
X111671258Y-80911000D01*
X111636268Y-80904040D01*
X111497188Y-80876376D01*
X111333216Y-80808456D01*
X111185646Y-80709853D01*
X111060147Y-80584354D01*
X110961544Y-80436784D01*
X110893624Y-80272812D01*
X110859000Y-80098741D01*
X110859000Y-79921259D01*
X110893624Y-79747188D01*
X110961544Y-79583216D01*
X111060147Y-79435646D01*
X111185646Y-79310147D01*
X111333216Y-79211544D01*
X111497188Y-79143624D01*
X111646488Y-79113927D01*
X111671258Y-79109000D01*
X111848742Y-79109000D01*
X111873512Y-79113927D01*
G37*
G36*
X137273512Y-79113927D02*
G01*
X137422812Y-79143624D01*
X137586784Y-79211544D01*
X137734354Y-79310147D01*
X137859853Y-79435646D01*
X137958456Y-79583216D01*
X138026376Y-79747188D01*
X138061000Y-79921259D01*
X138061000Y-80098741D01*
X138026376Y-80272812D01*
X137958456Y-80436784D01*
X137859853Y-80584354D01*
X137734354Y-80709853D01*
X137586784Y-80808456D01*
X137422812Y-80876376D01*
X137283732Y-80904040D01*
X137248742Y-80911000D01*
X137071258Y-80911000D01*
X137036268Y-80904040D01*
X136897188Y-80876376D01*
X136733216Y-80808456D01*
X136585646Y-80709853D01*
X136460147Y-80584354D01*
X136361544Y-80436784D01*
X136293624Y-80272812D01*
X136259000Y-80098741D01*
X136259000Y-79921259D01*
X136293624Y-79747188D01*
X136361544Y-79583216D01*
X136460147Y-79435646D01*
X136585646Y-79310147D01*
X136733216Y-79211544D01*
X136897188Y-79143624D01*
X137046488Y-79113927D01*
X137071258Y-79109000D01*
X137248742Y-79109000D01*
X137273512Y-79113927D01*
G37*
G36*
X163943512Y-77843927D02*
G01*
X164092812Y-77873624D01*
X164256784Y-77941544D01*
X164404354Y-78040147D01*
X164529853Y-78165646D01*
X164628456Y-78313216D01*
X164696376Y-78477188D01*
X164731000Y-78651259D01*
X164731000Y-78828741D01*
X164696376Y-79002812D01*
X164628456Y-79166784D01*
X164529853Y-79314354D01*
X164404354Y-79439853D01*
X164256784Y-79538456D01*
X164092812Y-79606376D01*
X163943512Y-79636073D01*
X163918742Y-79641000D01*
X163741258Y-79641000D01*
X163716488Y-79636073D01*
X163567188Y-79606376D01*
X163403216Y-79538456D01*
X163255646Y-79439853D01*
X163130147Y-79314354D01*
X163031544Y-79166784D01*
X162963624Y-79002812D01*
X162929000Y-78828741D01*
X162929000Y-78651259D01*
X162963624Y-78477188D01*
X163031544Y-78313216D01*
X163130147Y-78165646D01*
X163255646Y-78040147D01*
X163403216Y-77941544D01*
X163567188Y-77873624D01*
X163716488Y-77843927D01*
X163741258Y-77839000D01*
X163918742Y-77839000D01*
X163943512Y-77843927D01*
G37*
G36*
X174103512Y-77843927D02*
G01*
X174252812Y-77873624D01*
X174416784Y-77941544D01*
X174564354Y-78040147D01*
X174689853Y-78165646D01*
X174788456Y-78313216D01*
X174856376Y-78477188D01*
X174891000Y-78651259D01*
X174891000Y-78828741D01*
X174856376Y-79002812D01*
X174788456Y-79166784D01*
X174689853Y-79314354D01*
X174564354Y-79439853D01*
X174416784Y-79538456D01*
X174252812Y-79606376D01*
X174103512Y-79636073D01*
X174078742Y-79641000D01*
X173901258Y-79641000D01*
X173876488Y-79636073D01*
X173727188Y-79606376D01*
X173563216Y-79538456D01*
X173415646Y-79439853D01*
X173290147Y-79314354D01*
X173191544Y-79166784D01*
X173123624Y-79002812D01*
X173089000Y-78828741D01*
X173089000Y-78651259D01*
X173123624Y-78477188D01*
X173191544Y-78313216D01*
X173290147Y-78165646D01*
X173415646Y-78040147D01*
X173563216Y-77941544D01*
X173727188Y-77873624D01*
X173876488Y-77843927D01*
X173901258Y-77839000D01*
X174078742Y-77839000D01*
X174103512Y-77843927D01*
G37*
G36*
X151243512Y-77843927D02*
G01*
X151392812Y-77873624D01*
X151556784Y-77941544D01*
X151704354Y-78040147D01*
X151829853Y-78165646D01*
X151928456Y-78313216D01*
X151996376Y-78477188D01*
X152031000Y-78651259D01*
X152031000Y-78828741D01*
X151996376Y-79002812D01*
X151928456Y-79166784D01*
X151829853Y-79314354D01*
X151704354Y-79439853D01*
X151556784Y-79538456D01*
X151392812Y-79606376D01*
X151243512Y-79636073D01*
X151218742Y-79641000D01*
X151041258Y-79641000D01*
X151016488Y-79636073D01*
X150867188Y-79606376D01*
X150703216Y-79538456D01*
X150555646Y-79439853D01*
X150430147Y-79314354D01*
X150331544Y-79166784D01*
X150263624Y-79002812D01*
X150229000Y-78828741D01*
X150229000Y-78651259D01*
X150263624Y-78477188D01*
X150331544Y-78313216D01*
X150430147Y-78165646D01*
X150555646Y-78040147D01*
X150703216Y-77941544D01*
X150867188Y-77873624D01*
X151016488Y-77843927D01*
X151041258Y-77839000D01*
X151218742Y-77839000D01*
X151243512Y-77843927D01*
G37*
G36*
X91971000Y-79271000D02*
G01*
X88369000Y-79271000D01*
X88369000Y-75669000D01*
X91971000Y-75669000D01*
X91971000Y-79271000D01*
G37*
G36*
X111873512Y-76573927D02*
G01*
X112022812Y-76603624D01*
X112186784Y-76671544D01*
X112334354Y-76770147D01*
X112459853Y-76895646D01*
X112558456Y-77043216D01*
X112626376Y-77207188D01*
X112661000Y-77381259D01*
X112661000Y-77558741D01*
X112626376Y-77732812D01*
X112558456Y-77896784D01*
X112459853Y-78044354D01*
X112334354Y-78169853D01*
X112186784Y-78268456D01*
X112022812Y-78336376D01*
X111873512Y-78366073D01*
X111848742Y-78371000D01*
X111671258Y-78371000D01*
X111646488Y-78366073D01*
X111497188Y-78336376D01*
X111333216Y-78268456D01*
X111185646Y-78169853D01*
X111060147Y-78044354D01*
X110961544Y-77896784D01*
X110893624Y-77732812D01*
X110859000Y-77558741D01*
X110859000Y-77381259D01*
X110893624Y-77207188D01*
X110961544Y-77043216D01*
X111060147Y-76895646D01*
X111185646Y-76770147D01*
X111333216Y-76671544D01*
X111497188Y-76603624D01*
X111646488Y-76573927D01*
X111671258Y-76569000D01*
X111848742Y-76569000D01*
X111873512Y-76573927D01*
G37*
G36*
X137273512Y-76573927D02*
G01*
X137422812Y-76603624D01*
X137586784Y-76671544D01*
X137734354Y-76770147D01*
X137859853Y-76895646D01*
X137958456Y-77043216D01*
X138026376Y-77207188D01*
X138061000Y-77381259D01*
X138061000Y-77558741D01*
X138026376Y-77732812D01*
X137958456Y-77896784D01*
X137859853Y-78044354D01*
X137734354Y-78169853D01*
X137586784Y-78268456D01*
X137422812Y-78336376D01*
X137273512Y-78366073D01*
X137248742Y-78371000D01*
X137071258Y-78371000D01*
X137046488Y-78366073D01*
X136897188Y-78336376D01*
X136733216Y-78268456D01*
X136585646Y-78169853D01*
X136460147Y-78044354D01*
X136361544Y-77896784D01*
X136293624Y-77732812D01*
X136259000Y-77558741D01*
X136259000Y-77381259D01*
X136293624Y-77207188D01*
X136361544Y-77043216D01*
X136460147Y-76895646D01*
X136585646Y-76770147D01*
X136733216Y-76671544D01*
X136897188Y-76603624D01*
X137046488Y-76573927D01*
X137071258Y-76569000D01*
X137248742Y-76569000D01*
X137273512Y-76573927D01*
G37*
G36*
X163943512Y-75303927D02*
G01*
X164092812Y-75333624D01*
X164256784Y-75401544D01*
X164404354Y-75500147D01*
X164529853Y-75625646D01*
X164628456Y-75773216D01*
X164696376Y-75937188D01*
X164731000Y-76111259D01*
X164731000Y-76288741D01*
X164696376Y-76462812D01*
X164628456Y-76626784D01*
X164529853Y-76774354D01*
X164404354Y-76899853D01*
X164256784Y-76998456D01*
X164092812Y-77066376D01*
X163943512Y-77096073D01*
X163918742Y-77101000D01*
X163741258Y-77101000D01*
X163716488Y-77096073D01*
X163567188Y-77066376D01*
X163403216Y-76998456D01*
X163255646Y-76899853D01*
X163130147Y-76774354D01*
X163031544Y-76626784D01*
X162963624Y-76462812D01*
X162929000Y-76288741D01*
X162929000Y-76111259D01*
X162963624Y-75937188D01*
X163031544Y-75773216D01*
X163130147Y-75625646D01*
X163255646Y-75500147D01*
X163403216Y-75401544D01*
X163567188Y-75333624D01*
X163716488Y-75303927D01*
X163741258Y-75299000D01*
X163918742Y-75299000D01*
X163943512Y-75303927D01*
G37*
G36*
X174103512Y-75303927D02*
G01*
X174252812Y-75333624D01*
X174416784Y-75401544D01*
X174564354Y-75500147D01*
X174689853Y-75625646D01*
X174788456Y-75773216D01*
X174856376Y-75937188D01*
X174891000Y-76111259D01*
X174891000Y-76288741D01*
X174856376Y-76462812D01*
X174788456Y-76626784D01*
X174689853Y-76774354D01*
X174564354Y-76899853D01*
X174416784Y-76998456D01*
X174252812Y-77066376D01*
X174103512Y-77096073D01*
X174078742Y-77101000D01*
X173901258Y-77101000D01*
X173876488Y-77096073D01*
X173727188Y-77066376D01*
X173563216Y-76998456D01*
X173415646Y-76899853D01*
X173290147Y-76774354D01*
X173191544Y-76626784D01*
X173123624Y-76462812D01*
X173089000Y-76288741D01*
X173089000Y-76111259D01*
X173123624Y-75937188D01*
X173191544Y-75773216D01*
X173290147Y-75625646D01*
X173415646Y-75500147D01*
X173563216Y-75401544D01*
X173727188Y-75333624D01*
X173876488Y-75303927D01*
X173901258Y-75299000D01*
X174078742Y-75299000D01*
X174103512Y-75303927D01*
G37*
G36*
X151243512Y-75303927D02*
G01*
X151392812Y-75333624D01*
X151556784Y-75401544D01*
X151704354Y-75500147D01*
X151829853Y-75625646D01*
X151928456Y-75773216D01*
X151996376Y-75937188D01*
X152031000Y-76111259D01*
X152031000Y-76288741D01*
X151996376Y-76462812D01*
X151928456Y-76626784D01*
X151829853Y-76774354D01*
X151704354Y-76899853D01*
X151556784Y-76998456D01*
X151392812Y-77066376D01*
X151243512Y-77096073D01*
X151218742Y-77101000D01*
X151041258Y-77101000D01*
X151016488Y-77096073D01*
X150867188Y-77066376D01*
X150703216Y-76998456D01*
X150555646Y-76899853D01*
X150430147Y-76774354D01*
X150331544Y-76626784D01*
X150263624Y-76462812D01*
X150229000Y-76288741D01*
X150229000Y-76111259D01*
X150263624Y-75937188D01*
X150331544Y-75773216D01*
X150430147Y-75625646D01*
X150555646Y-75500147D01*
X150703216Y-75401544D01*
X150867188Y-75333624D01*
X151016488Y-75303927D01*
X151041258Y-75299000D01*
X151218742Y-75299000D01*
X151243512Y-75303927D01*
G37*
G36*
X98038228Y-75381703D02*
G01*
X98193100Y-75445853D01*
X98332481Y-75538985D01*
X98451015Y-75657519D01*
X98544147Y-75796900D01*
X98608297Y-75951772D01*
X98641000Y-76116184D01*
X98641000Y-76283816D01*
X98608297Y-76448228D01*
X98544147Y-76603100D01*
X98451015Y-76742481D01*
X98332481Y-76861015D01*
X98193100Y-76954147D01*
X98038228Y-77018297D01*
X97873816Y-77051000D01*
X97706184Y-77051000D01*
X97541772Y-77018297D01*
X97386900Y-76954147D01*
X97247519Y-76861015D01*
X97128985Y-76742481D01*
X97035853Y-76603100D01*
X96971703Y-76448228D01*
X96939000Y-76283816D01*
X96939000Y-76116184D01*
X96971703Y-75951772D01*
X97035853Y-75796900D01*
X97128985Y-75657519D01*
X97247519Y-75538985D01*
X97386900Y-75445853D01*
X97541772Y-75381703D01*
X97706184Y-75349000D01*
X97873816Y-75349000D01*
X98038228Y-75381703D01*
G37*
G36*
X108198228Y-75381703D02*
G01*
X108353100Y-75445853D01*
X108492481Y-75538985D01*
X108611015Y-75657519D01*
X108704147Y-75796900D01*
X108768297Y-75951772D01*
X108801000Y-76116184D01*
X108801000Y-76283816D01*
X108768297Y-76448228D01*
X108704147Y-76603100D01*
X108611015Y-76742481D01*
X108492481Y-76861015D01*
X108353100Y-76954147D01*
X108198228Y-77018297D01*
X108033816Y-77051000D01*
X107866184Y-77051000D01*
X107701772Y-77018297D01*
X107546900Y-76954147D01*
X107407519Y-76861015D01*
X107288985Y-76742481D01*
X107195853Y-76603100D01*
X107131703Y-76448228D01*
X107099000Y-76283816D01*
X107099000Y-76116184D01*
X107131703Y-75951772D01*
X107195853Y-75796900D01*
X107288985Y-75657519D01*
X107407519Y-75538985D01*
X107546900Y-75445853D01*
X107701772Y-75381703D01*
X107866184Y-75349000D01*
X108033816Y-75349000D01*
X108198228Y-75381703D01*
G37*
G36*
X86596366Y-72685695D02*
G01*
X86753460Y-72733349D01*
X86898231Y-72810731D01*
X87025128Y-72914872D01*
X87129269Y-73041769D01*
X87206651Y-73186540D01*
X87254305Y-73343634D01*
X87271000Y-73513140D01*
X87271000Y-75426860D01*
X87254305Y-75596366D01*
X87206651Y-75753460D01*
X87129269Y-75898231D01*
X87025128Y-76025128D01*
X86898231Y-76129269D01*
X86753460Y-76206651D01*
X86596366Y-76254305D01*
X86426860Y-76271000D01*
X84513140Y-76271000D01*
X84343634Y-76254305D01*
X84186540Y-76206651D01*
X84041769Y-76129269D01*
X83914872Y-76025128D01*
X83810731Y-75898231D01*
X83733349Y-75753460D01*
X83685695Y-75596366D01*
X83669000Y-75426860D01*
X83669000Y-73513140D01*
X83685695Y-73343634D01*
X83733349Y-73186540D01*
X83810731Y-73041769D01*
X83914872Y-72914872D01*
X84041769Y-72810731D01*
X84186540Y-72733349D01*
X84343634Y-72685695D01*
X84513140Y-72669000D01*
X86426860Y-72669000D01*
X86596366Y-72685695D01*
G37*
G36*
X111873512Y-74033927D02*
G01*
X112022812Y-74063624D01*
X112186784Y-74131544D01*
X112334354Y-74230147D01*
X112459853Y-74355646D01*
X112558456Y-74503216D01*
X112626376Y-74667188D01*
X112661000Y-74841259D01*
X112661000Y-75018741D01*
X112626376Y-75192812D01*
X112558456Y-75356784D01*
X112459853Y-75504354D01*
X112334354Y-75629853D01*
X112186784Y-75728456D01*
X112022812Y-75796376D01*
X111873512Y-75826073D01*
X111848742Y-75831000D01*
X111671258Y-75831000D01*
X111646488Y-75826073D01*
X111497188Y-75796376D01*
X111333216Y-75728456D01*
X111185646Y-75629853D01*
X111060147Y-75504354D01*
X110961544Y-75356784D01*
X110893624Y-75192812D01*
X110859000Y-75018741D01*
X110859000Y-74841259D01*
X110893624Y-74667188D01*
X110961544Y-74503216D01*
X111060147Y-74355646D01*
X111185646Y-74230147D01*
X111333216Y-74131544D01*
X111497188Y-74063624D01*
X111646488Y-74033927D01*
X111671258Y-74029000D01*
X111848742Y-74029000D01*
X111873512Y-74033927D01*
G37*
G36*
X137273512Y-74033927D02*
G01*
X137422812Y-74063624D01*
X137586784Y-74131544D01*
X137734354Y-74230147D01*
X137859853Y-74355646D01*
X137958456Y-74503216D01*
X138026376Y-74667188D01*
X138061000Y-74841259D01*
X138061000Y-75018741D01*
X138026376Y-75192812D01*
X137958456Y-75356784D01*
X137859853Y-75504354D01*
X137734354Y-75629853D01*
X137586784Y-75728456D01*
X137422812Y-75796376D01*
X137273512Y-75826073D01*
X137248742Y-75831000D01*
X137071258Y-75831000D01*
X137046488Y-75826073D01*
X136897188Y-75796376D01*
X136733216Y-75728456D01*
X136585646Y-75629853D01*
X136460147Y-75504354D01*
X136361544Y-75356784D01*
X136293624Y-75192812D01*
X136259000Y-75018741D01*
X136259000Y-74841259D01*
X136293624Y-74667188D01*
X136361544Y-74503216D01*
X136460147Y-74355646D01*
X136585646Y-74230147D01*
X136733216Y-74131544D01*
X136897188Y-74063624D01*
X137046488Y-74033927D01*
X137071258Y-74029000D01*
X137248742Y-74029000D01*
X137273512Y-74033927D01*
G37*
G36*
X174891000Y-74561000D02*
G01*
X173089000Y-74561000D01*
X173089000Y-72759000D01*
X174891000Y-72759000D01*
X174891000Y-74561000D01*
G37*
G36*
X163943512Y-72763927D02*
G01*
X164092812Y-72793624D01*
X164256784Y-72861544D01*
X164404354Y-72960147D01*
X164529853Y-73085646D01*
X164628456Y-73233216D01*
X164696376Y-73397188D01*
X164731000Y-73571259D01*
X164731000Y-73748741D01*
X164696376Y-73922812D01*
X164628456Y-74086784D01*
X164529853Y-74234354D01*
X164404354Y-74359853D01*
X164256784Y-74458456D01*
X164092812Y-74526376D01*
X163943512Y-74556073D01*
X163918742Y-74561000D01*
X163741258Y-74561000D01*
X163716488Y-74556073D01*
X163567188Y-74526376D01*
X163403216Y-74458456D01*
X163255646Y-74359853D01*
X163130147Y-74234354D01*
X163031544Y-74086784D01*
X162963624Y-73922812D01*
X162929000Y-73748741D01*
X162929000Y-73571259D01*
X162963624Y-73397188D01*
X163031544Y-73233216D01*
X163130147Y-73085646D01*
X163255646Y-72960147D01*
X163403216Y-72861544D01*
X163567188Y-72793624D01*
X163716488Y-72763927D01*
X163741258Y-72759000D01*
X163918742Y-72759000D01*
X163943512Y-72763927D01*
G37*
G36*
X151243512Y-72763927D02*
G01*
X151392812Y-72793624D01*
X151556784Y-72861544D01*
X151704354Y-72960147D01*
X151829853Y-73085646D01*
X151928456Y-73233216D01*
X151996376Y-73397188D01*
X152031000Y-73571259D01*
X152031000Y-73748741D01*
X151996376Y-73922812D01*
X151928456Y-74086784D01*
X151829853Y-74234354D01*
X151704354Y-74359853D01*
X151556784Y-74458456D01*
X151392812Y-74526376D01*
X151243512Y-74556073D01*
X151218742Y-74561000D01*
X151041258Y-74561000D01*
X151016488Y-74556073D01*
X150867188Y-74526376D01*
X150703216Y-74458456D01*
X150555646Y-74359853D01*
X150430147Y-74234354D01*
X150331544Y-74086784D01*
X150263624Y-73922812D01*
X150229000Y-73748741D01*
X150229000Y-73571259D01*
X150263624Y-73397188D01*
X150331544Y-73233216D01*
X150430147Y-73085646D01*
X150555646Y-72960147D01*
X150703216Y-72861544D01*
X150867188Y-72793624D01*
X151016488Y-72763927D01*
X151041258Y-72759000D01*
X151218742Y-72759000D01*
X151243512Y-72763927D01*
G37*
G36*
X137273512Y-71493927D02*
G01*
X137422812Y-71523624D01*
X137586784Y-71591544D01*
X137734354Y-71690147D01*
X137859853Y-71815646D01*
X137958456Y-71963216D01*
X138026376Y-72127188D01*
X138061000Y-72301259D01*
X138061000Y-72478741D01*
X138026376Y-72652812D01*
X137958456Y-72816784D01*
X137859853Y-72964354D01*
X137734354Y-73089853D01*
X137586784Y-73188456D01*
X137422812Y-73256376D01*
X137273512Y-73286073D01*
X137248742Y-73291000D01*
X137071258Y-73291000D01*
X137046488Y-73286073D01*
X136897188Y-73256376D01*
X136733216Y-73188456D01*
X136585646Y-73089853D01*
X136460147Y-72964354D01*
X136361544Y-72816784D01*
X136293624Y-72652812D01*
X136259000Y-72478741D01*
X136259000Y-72301259D01*
X136293624Y-72127188D01*
X136361544Y-71963216D01*
X136460147Y-71815646D01*
X136585646Y-71690147D01*
X136733216Y-71591544D01*
X136897188Y-71523624D01*
X137046488Y-71493927D01*
X137071258Y-71489000D01*
X137248742Y-71489000D01*
X137273512Y-71493927D01*
G37*
G36*
X111873512Y-71493927D02*
G01*
X112022812Y-71523624D01*
X112186784Y-71591544D01*
X112334354Y-71690147D01*
X112459853Y-71815646D01*
X112558456Y-71963216D01*
X112626376Y-72127188D01*
X112661000Y-72301259D01*
X112661000Y-72478741D01*
X112626376Y-72652812D01*
X112558456Y-72816784D01*
X112459853Y-72964354D01*
X112334354Y-73089853D01*
X112186784Y-73188456D01*
X112022812Y-73256376D01*
X111873512Y-73286073D01*
X111848742Y-73291000D01*
X111671258Y-73291000D01*
X111646488Y-73286073D01*
X111497188Y-73256376D01*
X111333216Y-73188456D01*
X111185646Y-73089853D01*
X111060147Y-72964354D01*
X110961544Y-72816784D01*
X110893624Y-72652812D01*
X110859000Y-72478741D01*
X110859000Y-72301259D01*
X110893624Y-72127188D01*
X110961544Y-71963216D01*
X111060147Y-71815646D01*
X111185646Y-71690147D01*
X111333216Y-71591544D01*
X111497188Y-71523624D01*
X111646488Y-71493927D01*
X111671258Y-71489000D01*
X111848742Y-71489000D01*
X111873512Y-71493927D01*
G37*
G36*
X91396979Y-69933293D02*
G01*
X91530625Y-69973834D01*
X91653784Y-70039664D01*
X91761740Y-70128260D01*
X91850336Y-70236216D01*
X91916166Y-70359375D01*
X91956707Y-70493021D01*
X91971000Y-70638140D01*
X91971000Y-72301860D01*
X91956707Y-72446979D01*
X91916166Y-72580625D01*
X91850336Y-72703784D01*
X91761740Y-72811740D01*
X91653784Y-72900336D01*
X91530625Y-72966166D01*
X91396979Y-73006707D01*
X91251860Y-73021000D01*
X89088140Y-73021000D01*
X88943021Y-73006707D01*
X88809375Y-72966166D01*
X88686216Y-72900336D01*
X88578260Y-72811740D01*
X88489664Y-72703784D01*
X88423834Y-72580625D01*
X88383293Y-72446979D01*
X88369000Y-72301860D01*
X88369000Y-70638140D01*
X88383293Y-70493021D01*
X88423834Y-70359375D01*
X88489664Y-70236216D01*
X88578260Y-70128260D01*
X88686216Y-70039664D01*
X88809375Y-69973834D01*
X88943021Y-69933293D01*
X89088140Y-69919000D01*
X91251860Y-69919000D01*
X91396979Y-69933293D01*
G37*
G36*
X151243512Y-70223927D02*
G01*
X151392812Y-70253624D01*
X151556784Y-70321544D01*
X151704354Y-70420147D01*
X151829853Y-70545646D01*
X151928456Y-70693216D01*
X151996376Y-70857188D01*
X152031000Y-71031259D01*
X152031000Y-71208741D01*
X151996376Y-71382812D01*
X151928456Y-71546784D01*
X151829853Y-71694354D01*
X151704354Y-71819853D01*
X151556784Y-71918456D01*
X151392812Y-71986376D01*
X151243512Y-72016073D01*
X151218742Y-72021000D01*
X151041258Y-72021000D01*
X151016488Y-72016073D01*
X150867188Y-71986376D01*
X150703216Y-71918456D01*
X150555646Y-71819853D01*
X150430147Y-71694354D01*
X150331544Y-71546784D01*
X150263624Y-71382812D01*
X150229000Y-71208741D01*
X150229000Y-71031259D01*
X150263624Y-70857188D01*
X150331544Y-70693216D01*
X150430147Y-70545646D01*
X150555646Y-70420147D01*
X150703216Y-70321544D01*
X150867188Y-70253624D01*
X151016488Y-70223927D01*
X151041258Y-70219000D01*
X151218742Y-70219000D01*
X151243512Y-70223927D01*
G37*
G36*
X163943512Y-70223927D02*
G01*
X164092812Y-70253624D01*
X164256784Y-70321544D01*
X164404354Y-70420147D01*
X164529853Y-70545646D01*
X164628456Y-70693216D01*
X164696376Y-70857188D01*
X164731000Y-71031259D01*
X164731000Y-71208741D01*
X164696376Y-71382812D01*
X164628456Y-71546784D01*
X164529853Y-71694354D01*
X164404354Y-71819853D01*
X164256784Y-71918456D01*
X164092812Y-71986376D01*
X163943512Y-72016073D01*
X163918742Y-72021000D01*
X163741258Y-72021000D01*
X163716488Y-72016073D01*
X163567188Y-71986376D01*
X163403216Y-71918456D01*
X163255646Y-71819853D01*
X163130147Y-71694354D01*
X163031544Y-71546784D01*
X162963624Y-71382812D01*
X162929000Y-71208741D01*
X162929000Y-71031259D01*
X162963624Y-70857188D01*
X163031544Y-70693216D01*
X163130147Y-70545646D01*
X163255646Y-70420147D01*
X163403216Y-70321544D01*
X163567188Y-70253624D01*
X163716488Y-70223927D01*
X163741258Y-70219000D01*
X163918742Y-70219000D01*
X163943512Y-70223927D01*
G37*
G36*
X137273512Y-68953927D02*
G01*
X137422812Y-68983624D01*
X137586784Y-69051544D01*
X137734354Y-69150147D01*
X137859853Y-69275646D01*
X137958456Y-69423216D01*
X138026376Y-69587188D01*
X138061000Y-69761259D01*
X138061000Y-69938741D01*
X138026376Y-70112812D01*
X137958456Y-70276784D01*
X137859853Y-70424354D01*
X137734354Y-70549853D01*
X137586784Y-70648456D01*
X137422812Y-70716376D01*
X137273512Y-70746073D01*
X137248742Y-70751000D01*
X137071258Y-70751000D01*
X137046488Y-70746073D01*
X136897188Y-70716376D01*
X136733216Y-70648456D01*
X136585646Y-70549853D01*
X136460147Y-70424354D01*
X136361544Y-70276784D01*
X136293624Y-70112812D01*
X136259000Y-69938741D01*
X136259000Y-69761259D01*
X136293624Y-69587188D01*
X136361544Y-69423216D01*
X136460147Y-69275646D01*
X136585646Y-69150147D01*
X136733216Y-69051544D01*
X136897188Y-68983624D01*
X137046488Y-68953927D01*
X137071258Y-68949000D01*
X137248742Y-68949000D01*
X137273512Y-68953927D01*
G37*
G36*
X111873512Y-68953927D02*
G01*
X112022812Y-68983624D01*
X112186784Y-69051544D01*
X112334354Y-69150147D01*
X112459853Y-69275646D01*
X112558456Y-69423216D01*
X112626376Y-69587188D01*
X112661000Y-69761259D01*
X112661000Y-69938741D01*
X112626376Y-70112812D01*
X112558456Y-70276784D01*
X112459853Y-70424354D01*
X112334354Y-70549853D01*
X112186784Y-70648456D01*
X112022812Y-70716376D01*
X111873512Y-70746073D01*
X111848742Y-70751000D01*
X111671258Y-70751000D01*
X111646488Y-70746073D01*
X111497188Y-70716376D01*
X111333216Y-70648456D01*
X111185646Y-70549853D01*
X111060147Y-70424354D01*
X110961544Y-70276784D01*
X110893624Y-70112812D01*
X110859000Y-69938741D01*
X110859000Y-69761259D01*
X110893624Y-69587188D01*
X110961544Y-69423216D01*
X111060147Y-69275646D01*
X111185646Y-69150147D01*
X111333216Y-69051544D01*
X111497188Y-68983624D01*
X111646488Y-68953927D01*
X111671258Y-68949000D01*
X111848742Y-68949000D01*
X111873512Y-68953927D01*
G37*
G36*
X101877395Y-67665546D02*
G01*
X102050466Y-67737234D01*
X102050467Y-67737235D01*
X102206227Y-67841310D01*
X102338690Y-67973773D01*
X102338691Y-67973775D01*
X102442766Y-68129534D01*
X102514454Y-68302605D01*
X102551000Y-68486333D01*
X102551000Y-68673667D01*
X102514454Y-68857395D01*
X102442766Y-69030466D01*
X102442765Y-69030467D01*
X102338690Y-69186227D01*
X102206227Y-69318690D01*
X102127818Y-69371081D01*
X102050466Y-69422766D01*
X101877395Y-69494454D01*
X101693667Y-69531000D01*
X101506333Y-69531000D01*
X101322605Y-69494454D01*
X101149534Y-69422766D01*
X101072182Y-69371081D01*
X100993773Y-69318690D01*
X100861310Y-69186227D01*
X100757235Y-69030467D01*
X100757234Y-69030466D01*
X100685546Y-68857395D01*
X100649000Y-68673667D01*
X100649000Y-68486333D01*
X100685546Y-68302605D01*
X100757234Y-68129534D01*
X100861309Y-67973775D01*
X100861310Y-67973773D01*
X100993773Y-67841310D01*
X101149533Y-67737235D01*
X101149534Y-67737234D01*
X101322605Y-67665546D01*
X101506333Y-67629000D01*
X101693667Y-67629000D01*
X101877395Y-67665546D01*
G37*
G36*
X152031000Y-69481000D02*
G01*
X150229000Y-69481000D01*
X150229000Y-67679000D01*
X152031000Y-67679000D01*
X152031000Y-69481000D01*
G37*
G36*
X164731000Y-69481000D02*
G01*
X162929000Y-69481000D01*
X162929000Y-67679000D01*
X164731000Y-67679000D01*
X164731000Y-69481000D01*
G37*
G36*
X174365256Y-65701298D02*
G01*
X174471579Y-65722447D01*
X174772042Y-65846903D01*
X175042451Y-66027585D01*
X175272415Y-66257549D01*
X175453097Y-66527958D01*
X175539125Y-66735647D01*
X175577553Y-66828422D01*
X175641000Y-67147389D01*
X175641000Y-67472611D01*
X175602622Y-67665547D01*
X175577553Y-67791579D01*
X175453097Y-68092042D01*
X175272415Y-68362451D01*
X175042451Y-68592415D01*
X174772042Y-68773097D01*
X174471579Y-68897553D01*
X174365256Y-68918702D01*
X174152611Y-68961000D01*
X173827389Y-68961000D01*
X173614744Y-68918702D01*
X173508421Y-68897553D01*
X173207958Y-68773097D01*
X172937549Y-68592415D01*
X172707585Y-68362451D01*
X172526903Y-68092042D01*
X172402447Y-67791579D01*
X172377378Y-67665547D01*
X172339000Y-67472611D01*
X172339000Y-67147389D01*
X172402447Y-66828422D01*
X172440876Y-66735647D01*
X172526903Y-66527958D01*
X172707585Y-66257549D01*
X172937549Y-66027585D01*
X173207958Y-65846903D01*
X173508421Y-65722447D01*
X173614744Y-65701298D01*
X173827389Y-65659000D01*
X174152611Y-65659000D01*
X174365256Y-65701298D01*
G37*
G36*
X80385256Y-65701298D02*
G01*
X80491579Y-65722447D01*
X80792042Y-65846903D01*
X81062451Y-66027585D01*
X81292415Y-66257549D01*
X81473097Y-66527958D01*
X81559125Y-66735647D01*
X81597553Y-66828422D01*
X81661000Y-67147389D01*
X81661000Y-67472611D01*
X81622622Y-67665547D01*
X81597553Y-67791579D01*
X81473097Y-68092042D01*
X81292415Y-68362451D01*
X81062451Y-68592415D01*
X80792042Y-68773097D01*
X80491579Y-68897553D01*
X80385256Y-68918702D01*
X80172611Y-68961000D01*
X79847389Y-68961000D01*
X79634744Y-68918702D01*
X79528421Y-68897553D01*
X79227958Y-68773097D01*
X78957549Y-68592415D01*
X78727585Y-68362451D01*
X78546903Y-68092042D01*
X78422447Y-67791579D01*
X78397378Y-67665547D01*
X78359000Y-67472611D01*
X78359000Y-67147389D01*
X78422447Y-66828422D01*
X78460876Y-66735647D01*
X78546903Y-66527958D01*
X78727585Y-66257549D01*
X78957549Y-66027585D01*
X79227958Y-65846903D01*
X79528421Y-65722447D01*
X79634744Y-65701298D01*
X79847389Y-65659000D01*
X80172611Y-65659000D01*
X80385256Y-65701298D01*
G37*
G36*
X111873512Y-66413927D02*
G01*
X112022812Y-66443624D01*
X112186784Y-66511544D01*
X112334354Y-66610147D01*
X112459853Y-66735646D01*
X112558456Y-66883216D01*
X112626376Y-67047188D01*
X112661000Y-67221259D01*
X112661000Y-67398741D01*
X112626376Y-67572812D01*
X112558456Y-67736784D01*
X112459853Y-67884354D01*
X112334354Y-68009853D01*
X112186784Y-68108456D01*
X112022812Y-68176376D01*
X111873512Y-68206073D01*
X111848742Y-68211000D01*
X111671258Y-68211000D01*
X111646488Y-68206073D01*
X111497188Y-68176376D01*
X111333216Y-68108456D01*
X111185646Y-68009853D01*
X111060147Y-67884354D01*
X110961544Y-67736784D01*
X110893624Y-67572812D01*
X110859000Y-67398741D01*
X110859000Y-67221259D01*
X110893624Y-67047188D01*
X110961544Y-66883216D01*
X111060147Y-66735646D01*
X111185646Y-66610147D01*
X111333216Y-66511544D01*
X111497188Y-66443624D01*
X111646488Y-66413927D01*
X111671258Y-66409000D01*
X111848742Y-66409000D01*
X111873512Y-66413927D01*
G37*
G36*
X137273512Y-66413927D02*
G01*
X137422812Y-66443624D01*
X137586784Y-66511544D01*
X137734354Y-66610147D01*
X137859853Y-66735646D01*
X137958456Y-66883216D01*
X138026376Y-67047188D01*
X138061000Y-67221259D01*
X138061000Y-67398741D01*
X138026376Y-67572812D01*
X137958456Y-67736784D01*
X137859853Y-67884354D01*
X137734354Y-68009853D01*
X137586784Y-68108456D01*
X137422812Y-68176376D01*
X137273512Y-68206073D01*
X137248742Y-68211000D01*
X137071258Y-68211000D01*
X137046488Y-68206073D01*
X136897188Y-68176376D01*
X136733216Y-68108456D01*
X136585646Y-68009853D01*
X136460147Y-67884354D01*
X136361544Y-67736784D01*
X136293624Y-67572812D01*
X136259000Y-67398741D01*
X136259000Y-67221259D01*
X136293624Y-67047188D01*
X136361544Y-66883216D01*
X136460147Y-66735646D01*
X136585646Y-66610147D01*
X136733216Y-66511544D01*
X136897188Y-66443624D01*
X137046488Y-66413927D01*
X137071258Y-66409000D01*
X137248742Y-66409000D01*
X137273512Y-66413927D01*
G37*
G36*
X102551000Y-66991000D02*
G01*
X100649000Y-66991000D01*
X100649000Y-65089000D01*
X102551000Y-65089000D01*
X102551000Y-66991000D01*
G37*
M02*
