G04 #@! TF.GenerationSoftware,KiCad,Pcbnew,5.1.6-c6e7f7d~86~ubuntu18.04.1*
G04 #@! TF.CreationDate,2020-06-24T19:05:53+01:00*
G04 #@! TF.ProjectId,placa_modular,706c6163-615f-46d6-9f64-756c61722e6b,V1.0*
G04 #@! TF.SameCoordinates,Original*
G04 #@! TF.FileFunction,Copper,L1,Top*
G04 #@! TF.FilePolarity,Positive*
%FSLAX46Y46*%
G04 Gerber Fmt 4.6, Leading zero omitted, Abs format (unit mm)*
G04 Created by KiCad (PCBNEW 5.1.6-c6e7f7d~86~ubuntu18.04.1) date 2020-06-24 19:05:53*
%MOMM*%
%LPD*%
G01*
G04 APERTURE LIST*
G04 #@! TA.AperFunction,ComponentPad*
%ADD10C,1.600000*%
G04 #@! TD*
G04 #@! TA.AperFunction,ComponentPad*
%ADD11R,1.600000X1.600000*%
G04 #@! TD*
G04 #@! TA.AperFunction,ComponentPad*
%ADD12O,2.200000X2.200000*%
G04 #@! TD*
G04 #@! TA.AperFunction,ComponentPad*
%ADD13R,2.200000X2.200000*%
G04 #@! TD*
G04 #@! TA.AperFunction,ComponentPad*
%ADD14C,1.800000*%
G04 #@! TD*
G04 #@! TA.AperFunction,ComponentPad*
%ADD15R,1.800000X1.800000*%
G04 #@! TD*
G04 #@! TA.AperFunction,ComponentPad*
%ADD16R,3.500000X3.500000*%
G04 #@! TD*
G04 #@! TA.AperFunction,ComponentPad*
%ADD17R,1.700000X1.700000*%
G04 #@! TD*
G04 #@! TA.AperFunction,ComponentPad*
%ADD18O,1.700000X1.700000*%
G04 #@! TD*
G04 #@! TA.AperFunction,ComponentPad*
%ADD19O,1.600000X1.600000*%
G04 #@! TD*
G04 #@! TA.AperFunction,SMDPad,CuDef*
%ADD20R,1.500000X2.000000*%
G04 #@! TD*
G04 #@! TA.AperFunction,SMDPad,CuDef*
%ADD21R,3.800000X2.000000*%
G04 #@! TD*
G04 #@! TA.AperFunction,ViaPad*
%ADD22C,0.800000*%
G04 #@! TD*
G04 #@! TA.AperFunction,Conductor*
%ADD23C,1.000000*%
G04 #@! TD*
G04 #@! TA.AperFunction,Conductor*
%ADD24C,0.400000*%
G04 #@! TD*
G04 #@! TA.AperFunction,Conductor*
%ADD25C,0.254000*%
G04 #@! TD*
G04 APERTURE END LIST*
D10*
X171450000Y-88940000D03*
D11*
X171450000Y-91440000D03*
D10*
X80010000Y-111680000D03*
X80010000Y-106680000D03*
D11*
X88900000Y-99060000D03*
D10*
X86400000Y-99060000D03*
X86360000Y-106680000D03*
X86360000Y-111680000D03*
X82550000Y-118840000D03*
D11*
X82550000Y-116840000D03*
D10*
X100370000Y-99060000D03*
D11*
X102870000Y-99060000D03*
D12*
X80010000Y-80010000D03*
D13*
X80010000Y-90170000D03*
D14*
X101600000Y-68580000D03*
D15*
X101600000Y-66040000D03*
G04 #@! TA.AperFunction,ComponentPad*
G36*
G01*
X84595000Y-72720000D02*
X86345000Y-72720000D01*
G75*
G02*
X87220000Y-73595000I0J-875000D01*
G01*
X87220000Y-75345000D01*
G75*
G02*
X86345000Y-76220000I-875000J0D01*
G01*
X84595000Y-76220000D01*
G75*
G02*
X83720000Y-75345000I0J875000D01*
G01*
X83720000Y-73595000D01*
G75*
G02*
X84595000Y-72720000I875000J0D01*
G01*
G37*
G04 #@! TD.AperFunction*
G04 #@! TA.AperFunction,ComponentPad*
G36*
G01*
X89170000Y-69970000D02*
X91170000Y-69970000D01*
G75*
G02*
X91920000Y-70720000I0J-750000D01*
G01*
X91920000Y-72220000D01*
G75*
G02*
X91170000Y-72970000I-750000J0D01*
G01*
X89170000Y-72970000D01*
G75*
G02*
X88420000Y-72220000I0J750000D01*
G01*
X88420000Y-70720000D01*
G75*
G02*
X89170000Y-69970000I750000J0D01*
G01*
G37*
G04 #@! TD.AperFunction*
D16*
X90170000Y-77470000D03*
D17*
X137160000Y-113030000D03*
D18*
X137160000Y-110490000D03*
X137160000Y-107950000D03*
X137160000Y-105410000D03*
X137160000Y-102870000D03*
X137160000Y-100330000D03*
X137160000Y-97790000D03*
X137160000Y-95250000D03*
X137160000Y-92710000D03*
X137160000Y-90170000D03*
X137160000Y-87630000D03*
X137160000Y-85090000D03*
X137160000Y-82550000D03*
X137160000Y-80010000D03*
X137160000Y-77470000D03*
X137160000Y-74930000D03*
X137160000Y-72390000D03*
X137160000Y-69850000D03*
X137160000Y-67310000D03*
X111760000Y-67310000D03*
X111760000Y-69850000D03*
X111760000Y-72390000D03*
X111760000Y-74930000D03*
X111760000Y-77470000D03*
X111760000Y-80010000D03*
X111760000Y-82550000D03*
X111760000Y-85090000D03*
X111760000Y-87630000D03*
X111760000Y-90170000D03*
X111760000Y-92710000D03*
X111760000Y-95250000D03*
X111760000Y-97790000D03*
X111760000Y-100330000D03*
X111760000Y-102870000D03*
X111760000Y-105410000D03*
X111760000Y-107950000D03*
X111760000Y-110490000D03*
D17*
X111760000Y-113030000D03*
X115570000Y-134620000D03*
D18*
X115570000Y-132080000D03*
X115570000Y-125730000D03*
D17*
X115570000Y-128270000D03*
X137160000Y-125730000D03*
D18*
X137160000Y-128270000D03*
X137160000Y-130810000D03*
X137160000Y-133350000D03*
X151130000Y-133350000D03*
X151130000Y-130810000D03*
X151130000Y-128270000D03*
D17*
X151130000Y-125730000D03*
D18*
X151130000Y-86360000D03*
X151130000Y-83820000D03*
X151130000Y-81280000D03*
X151130000Y-78740000D03*
X151130000Y-76200000D03*
X151130000Y-73660000D03*
X151130000Y-71120000D03*
D17*
X151130000Y-68580000D03*
D18*
X151130000Y-113030000D03*
X151130000Y-110490000D03*
X151130000Y-107950000D03*
X151130000Y-105410000D03*
X151130000Y-102870000D03*
X151130000Y-100330000D03*
X151130000Y-97790000D03*
D17*
X151130000Y-95250000D03*
X163830000Y-68580000D03*
D18*
X163830000Y-71120000D03*
X163830000Y-73660000D03*
X163830000Y-76200000D03*
X163830000Y-78740000D03*
X163830000Y-81280000D03*
X163830000Y-83820000D03*
X163830000Y-86360000D03*
D17*
X163830000Y-95250000D03*
D18*
X163830000Y-97790000D03*
X163830000Y-100330000D03*
X163830000Y-102870000D03*
X163830000Y-105410000D03*
X163830000Y-107950000D03*
X163830000Y-110490000D03*
X163830000Y-113030000D03*
X173990000Y-81280000D03*
X173990000Y-78740000D03*
X173990000Y-76200000D03*
D17*
X173990000Y-73660000D03*
X173990000Y-100330000D03*
D18*
X173990000Y-102870000D03*
X173990000Y-105410000D03*
X173990000Y-107950000D03*
D19*
X109220000Y-124460000D03*
D10*
X109220000Y-134620000D03*
X104140000Y-134620000D03*
D19*
X104140000Y-124460000D03*
X97790000Y-76200000D03*
D10*
X107950000Y-76200000D03*
D20*
X86600000Y-89510000D03*
X91200000Y-89510000D03*
X88900000Y-89510000D03*
D21*
X88900000Y-83210000D03*
X101600000Y-83210000D03*
D20*
X101600000Y-89510000D03*
X103900000Y-89510000D03*
X99300000Y-89510000D03*
D22*
X132080000Y-85090000D03*
X115570000Y-102870000D03*
X91440000Y-86360000D03*
X95439999Y-90359999D03*
X160020000Y-121920000D03*
X158750000Y-100330000D03*
X156210000Y-105410000D03*
X156210000Y-132080000D03*
X142240000Y-111760000D03*
X119380000Y-111760000D03*
X92710000Y-114300000D03*
X157480000Y-92710000D03*
X154940000Y-109220000D03*
X160020000Y-81280000D03*
X116840000Y-78740000D03*
D23*
X80010000Y-90170000D02*
X80010000Y-86360000D01*
X80010000Y-86360000D02*
X85090000Y-81280000D01*
X91130002Y-81280000D02*
X93980000Y-84129998D01*
X85090000Y-81280000D02*
X91130002Y-81280000D01*
X93980000Y-86730000D02*
X91200000Y-89510000D01*
X93980000Y-84129998D02*
X93980000Y-86730000D01*
X82550000Y-104140000D02*
X80010000Y-106680000D01*
X82550000Y-88900000D02*
X82550000Y-104140000D01*
X88760002Y-86360000D02*
X85090000Y-86360000D01*
X91200000Y-89510000D02*
X91200000Y-88799998D01*
X85090000Y-86360000D02*
X82550000Y-88900000D01*
X91200000Y-88799998D02*
X88760002Y-86360000D01*
D24*
X88900000Y-89510000D02*
X88900000Y-89760000D01*
X88900000Y-89510000D02*
X88900000Y-90910000D01*
D23*
X88900000Y-99060000D02*
X88900000Y-93980000D01*
X88900000Y-91440000D02*
X88900000Y-89510000D01*
X88900000Y-93980000D02*
X88900000Y-91440000D01*
X97790000Y-80010000D02*
X104140000Y-80010000D01*
X96520000Y-81280000D02*
X97790000Y-80010000D01*
X96520000Y-89279998D02*
X96520000Y-81280000D01*
X88900000Y-91440000D02*
X94359998Y-91440000D01*
X104140000Y-80010000D02*
X107950000Y-76200000D01*
X107950000Y-85460000D02*
X103900000Y-89510000D01*
X107950000Y-76200000D02*
X107950000Y-85460000D01*
X134620000Y-64770000D02*
X137160000Y-67310000D01*
X110490000Y-64770000D02*
X134620000Y-64770000D01*
X107950000Y-76200000D02*
X107950000Y-67310000D01*
X107950000Y-67310000D02*
X110490000Y-64770000D01*
X88900000Y-104140000D02*
X88900000Y-99060000D01*
X86360000Y-106680000D02*
X88900000Y-104140000D01*
X128995010Y-138974990D02*
X94524990Y-138974990D01*
X137160000Y-130810000D02*
X128995010Y-138974990D01*
X94524990Y-138974990D02*
X78740000Y-123190000D01*
X78740000Y-123190000D02*
X78740000Y-116840000D01*
X78740000Y-116840000D02*
X83820000Y-111760000D01*
X83820000Y-109220000D02*
X86360000Y-106680000D01*
X83820000Y-111760000D02*
X83820000Y-109220000D01*
X88900000Y-83210000D02*
X88900000Y-83820000D01*
X88900000Y-83820000D02*
X91440000Y-86360000D01*
X94359998Y-91440000D02*
X95439999Y-90359999D01*
X95439999Y-90359999D02*
X96520000Y-89279998D01*
X101600000Y-97790000D02*
X102870000Y-99060000D01*
X101600000Y-89510000D02*
X101600000Y-97790000D01*
X102870000Y-99060000D02*
X85090000Y-116840000D01*
D24*
X101600000Y-134620000D02*
X83820000Y-116840000D01*
D23*
X85090000Y-116840000D02*
X83820000Y-116840000D01*
D24*
X104140000Y-134620000D02*
X101600000Y-134620000D01*
D23*
X83820000Y-116840000D02*
X82550000Y-116840000D01*
D24*
X109220000Y-134620000D02*
X104140000Y-134620000D01*
D23*
X137160000Y-113030000D02*
X130810000Y-119380000D01*
X130810000Y-119380000D02*
X93980000Y-119380000D01*
X91440000Y-116840000D02*
X82550000Y-116840000D01*
X93980000Y-119380000D02*
X91440000Y-116840000D01*
X151130000Y-125730000D02*
X146050000Y-125730000D01*
X139700000Y-119380000D02*
X130810000Y-119380000D01*
X146050000Y-125730000D02*
X139700000Y-119380000D01*
D24*
X142240000Y-107950000D02*
X137160000Y-113030000D01*
X151130000Y-107950000D02*
X142240000Y-107950000D01*
D23*
X101600000Y-89510000D02*
X101600000Y-83210000D01*
D24*
X154940000Y-104140000D02*
X151130000Y-107950000D01*
X151130000Y-81280000D02*
X154940000Y-85090000D01*
X154940000Y-85090000D02*
X154940000Y-104140000D01*
X97790000Y-72390000D02*
X101600000Y-68580000D01*
X97790000Y-76200000D02*
X97790000Y-72390000D01*
X144780000Y-77470000D02*
X151130000Y-71120000D01*
X137160000Y-87630000D02*
X144780000Y-80010000D01*
X144780000Y-80010000D02*
X144780000Y-77470000D01*
X137160000Y-90170000D02*
X146050000Y-81280000D01*
X146050000Y-81280000D02*
X146050000Y-78740000D01*
X146050000Y-78740000D02*
X151130000Y-73660000D01*
X137160000Y-92710000D02*
X147320000Y-82550000D01*
X147320000Y-82550000D02*
X147320000Y-80010000D01*
X147320000Y-80010000D02*
X151130000Y-76200000D01*
X137160000Y-95250000D02*
X148590000Y-83820000D01*
X148590000Y-83820000D02*
X151130000Y-83820000D01*
X109220000Y-125730000D02*
X115570000Y-132080000D01*
X109220000Y-124460000D02*
X109220000Y-125730000D01*
X160020000Y-121920000D02*
X160020000Y-101600000D01*
X160020000Y-101600000D02*
X158750000Y-100330000D01*
X111760000Y-121920000D02*
X115570000Y-125730000D01*
X104140000Y-124460000D02*
X106680000Y-121920000D01*
X106680000Y-121920000D02*
X111760000Y-121920000D01*
X156210000Y-105410000D02*
X156210000Y-132080000D01*
X152380001Y-121900001D02*
X142240000Y-111760000D01*
X151130000Y-128270000D02*
X152380001Y-127019999D01*
X152380001Y-127019999D02*
X152380001Y-121900001D01*
X115570000Y-111760000D02*
X111760000Y-107950000D01*
X119380000Y-111760000D02*
X115570000Y-111760000D01*
X92710000Y-114300000D02*
X92710000Y-111760000D01*
X100330000Y-111760000D02*
X111760000Y-100330000D01*
X92710000Y-111760000D02*
X100330000Y-111760000D01*
X118129999Y-101619999D02*
X111760000Y-95250000D01*
X149879999Y-101619999D02*
X118129999Y-101619999D01*
X151130000Y-102870000D02*
X149879999Y-101619999D01*
X149879999Y-99079999D02*
X118129999Y-99079999D01*
X118129999Y-99079999D02*
X111760000Y-92710000D01*
X151130000Y-100330000D02*
X149879999Y-99079999D01*
X137160000Y-128270000D02*
X146050000Y-137160000D01*
X146050000Y-137160000D02*
X153670000Y-137160000D01*
X153670000Y-137160000D02*
X157480000Y-133350000D01*
X157480000Y-133350000D02*
X157480000Y-92710000D01*
X138410000Y-125730000D02*
X148590000Y-135910000D01*
X137160000Y-125730000D02*
X138410000Y-125730000D01*
X148590000Y-135910000D02*
X152380000Y-135910000D01*
X152380000Y-135910000D02*
X154940000Y-133350000D01*
X154940000Y-133350000D02*
X154940000Y-109220000D01*
X141659998Y-78740000D02*
X116840000Y-78740000D01*
X150529999Y-69869999D02*
X141659998Y-78740000D01*
X160020000Y-81280000D02*
X160020000Y-78159998D01*
X151730001Y-69869999D02*
X150529999Y-69869999D01*
X160020000Y-78159998D02*
X151730001Y-69869999D01*
X125710001Y-96500001D02*
X111760000Y-82550000D01*
X149840001Y-96500001D02*
X125710001Y-96500001D01*
X151130000Y-97790000D02*
X149840001Y-96500001D01*
D23*
X163830000Y-73660000D02*
X173990000Y-73660000D01*
X163830000Y-76200000D02*
X173990000Y-76200000D01*
X163830000Y-78740000D02*
X173990000Y-78740000D01*
X163830000Y-81280000D02*
X173990000Y-81280000D01*
X163830000Y-100330000D02*
X173990000Y-100330000D01*
X163830000Y-102870000D02*
X173990000Y-102870000D01*
X163830000Y-105410000D02*
X173990000Y-105410000D01*
X163830000Y-107950000D02*
X173990000Y-107950000D01*
D25*
G36*
X177140001Y-139040000D02*
G01*
X130535131Y-139040000D01*
X135753368Y-133821765D01*
X135763175Y-133854099D01*
X135888359Y-134116920D01*
X136062412Y-134350269D01*
X136278645Y-134545178D01*
X136528748Y-134694157D01*
X136803109Y-134791481D01*
X137033000Y-134670814D01*
X137033000Y-133477000D01*
X137287000Y-133477000D01*
X137287000Y-134670814D01*
X137516891Y-134791481D01*
X137791252Y-134694157D01*
X138041355Y-134545178D01*
X138257588Y-134350269D01*
X138431641Y-134116920D01*
X138556825Y-133854099D01*
X138601476Y-133706890D01*
X138480155Y-133477000D01*
X137287000Y-133477000D01*
X137033000Y-133477000D01*
X137013000Y-133477000D01*
X137013000Y-133223000D01*
X137033000Y-133223000D01*
X137033000Y-133203000D01*
X137287000Y-133203000D01*
X137287000Y-133223000D01*
X138480155Y-133223000D01*
X138601476Y-132993110D01*
X138556825Y-132845901D01*
X138431641Y-132583080D01*
X138257588Y-132349731D01*
X138041355Y-132154822D01*
X137924466Y-132085195D01*
X138106632Y-131963475D01*
X138313475Y-131756632D01*
X138475990Y-131513411D01*
X138587932Y-131243158D01*
X138645000Y-130956260D01*
X138645000Y-130935867D01*
X145430563Y-137721432D01*
X145456709Y-137753291D01*
X145583854Y-137857636D01*
X145728913Y-137935172D01*
X145886311Y-137982918D01*
X146008981Y-137995000D01*
X146008982Y-137995000D01*
X146050000Y-137999040D01*
X146091018Y-137995000D01*
X153628982Y-137995000D01*
X153670000Y-137999040D01*
X153711018Y-137995000D01*
X153711019Y-137995000D01*
X153833689Y-137982918D01*
X153991087Y-137935172D01*
X154136146Y-137857636D01*
X154263291Y-137753291D01*
X154289446Y-137721421D01*
X156340996Y-135669872D01*
X171755000Y-135669872D01*
X171755000Y-136110128D01*
X171840890Y-136541925D01*
X172009369Y-136948669D01*
X172253962Y-137314729D01*
X172565271Y-137626038D01*
X172931331Y-137870631D01*
X173338075Y-138039110D01*
X173769872Y-138125000D01*
X174210128Y-138125000D01*
X174641925Y-138039110D01*
X175048669Y-137870631D01*
X175414729Y-137626038D01*
X175726038Y-137314729D01*
X175970631Y-136948669D01*
X176139110Y-136541925D01*
X176225000Y-136110128D01*
X176225000Y-135669872D01*
X176139110Y-135238075D01*
X175970631Y-134831331D01*
X175726038Y-134465271D01*
X175414729Y-134153962D01*
X175048669Y-133909369D01*
X174641925Y-133740890D01*
X174210128Y-133655000D01*
X173769872Y-133655000D01*
X173338075Y-133740890D01*
X172931331Y-133909369D01*
X172565271Y-134153962D01*
X172253962Y-134465271D01*
X172009369Y-134831331D01*
X171840890Y-135238075D01*
X171755000Y-135669872D01*
X156340996Y-135669872D01*
X158041433Y-133969436D01*
X158073291Y-133943291D01*
X158177636Y-133816146D01*
X158255172Y-133671087D01*
X158302918Y-133513689D01*
X158315000Y-133391019D01*
X158315000Y-133391018D01*
X158319040Y-133350000D01*
X158315000Y-133308982D01*
X158315000Y-101270093D01*
X158448102Y-101325226D01*
X158593225Y-101354093D01*
X159185001Y-101945869D01*
X159185000Y-121306715D01*
X159102795Y-121429744D01*
X159024774Y-121618102D01*
X158985000Y-121818061D01*
X158985000Y-122021939D01*
X159024774Y-122221898D01*
X159102795Y-122410256D01*
X159216063Y-122579774D01*
X159360226Y-122723937D01*
X159529744Y-122837205D01*
X159718102Y-122915226D01*
X159918061Y-122955000D01*
X160121939Y-122955000D01*
X160321898Y-122915226D01*
X160510256Y-122837205D01*
X160679774Y-122723937D01*
X160823937Y-122579774D01*
X160937205Y-122410256D01*
X161015226Y-122221898D01*
X161055000Y-122021939D01*
X161055000Y-121818061D01*
X161015226Y-121618102D01*
X160937205Y-121429744D01*
X160855000Y-121306715D01*
X160855000Y-113386890D01*
X162388524Y-113386890D01*
X162433175Y-113534099D01*
X162558359Y-113796920D01*
X162732412Y-114030269D01*
X162948645Y-114225178D01*
X163198748Y-114374157D01*
X163473109Y-114471481D01*
X163703000Y-114350814D01*
X163703000Y-113157000D01*
X163957000Y-113157000D01*
X163957000Y-114350814D01*
X164186891Y-114471481D01*
X164461252Y-114374157D01*
X164711355Y-114225178D01*
X164927588Y-114030269D01*
X165101641Y-113796920D01*
X165226825Y-113534099D01*
X165271476Y-113386890D01*
X165150155Y-113157000D01*
X163957000Y-113157000D01*
X163703000Y-113157000D01*
X162509845Y-113157000D01*
X162388524Y-113386890D01*
X160855000Y-113386890D01*
X160855000Y-101641015D01*
X160859040Y-101599999D01*
X160847563Y-101483475D01*
X160842918Y-101436311D01*
X160795172Y-101278913D01*
X160717636Y-101133854D01*
X160613291Y-101006709D01*
X160581426Y-100980558D01*
X159784608Y-100183740D01*
X162345000Y-100183740D01*
X162345000Y-100476260D01*
X162402068Y-100763158D01*
X162514010Y-101033411D01*
X162676525Y-101276632D01*
X162883368Y-101483475D01*
X163057760Y-101600000D01*
X162883368Y-101716525D01*
X162676525Y-101923368D01*
X162514010Y-102166589D01*
X162402068Y-102436842D01*
X162345000Y-102723740D01*
X162345000Y-103016260D01*
X162402068Y-103303158D01*
X162514010Y-103573411D01*
X162676525Y-103816632D01*
X162883368Y-104023475D01*
X163057760Y-104140000D01*
X162883368Y-104256525D01*
X162676525Y-104463368D01*
X162514010Y-104706589D01*
X162402068Y-104976842D01*
X162345000Y-105263740D01*
X162345000Y-105556260D01*
X162402068Y-105843158D01*
X162514010Y-106113411D01*
X162676525Y-106356632D01*
X162883368Y-106563475D01*
X163057760Y-106680000D01*
X162883368Y-106796525D01*
X162676525Y-107003368D01*
X162514010Y-107246589D01*
X162402068Y-107516842D01*
X162345000Y-107803740D01*
X162345000Y-108096260D01*
X162402068Y-108383158D01*
X162514010Y-108653411D01*
X162676525Y-108896632D01*
X162883368Y-109103475D01*
X163057760Y-109220000D01*
X162883368Y-109336525D01*
X162676525Y-109543368D01*
X162514010Y-109786589D01*
X162402068Y-110056842D01*
X162345000Y-110343740D01*
X162345000Y-110636260D01*
X162402068Y-110923158D01*
X162514010Y-111193411D01*
X162676525Y-111436632D01*
X162883368Y-111643475D01*
X163065534Y-111765195D01*
X162948645Y-111834822D01*
X162732412Y-112029731D01*
X162558359Y-112263080D01*
X162433175Y-112525901D01*
X162388524Y-112673110D01*
X162509845Y-112903000D01*
X163703000Y-112903000D01*
X163703000Y-112883000D01*
X163957000Y-112883000D01*
X163957000Y-112903000D01*
X165150155Y-112903000D01*
X165271476Y-112673110D01*
X165226825Y-112525901D01*
X165101641Y-112263080D01*
X164927588Y-112029731D01*
X164711355Y-111834822D01*
X164594466Y-111765195D01*
X164776632Y-111643475D01*
X164983475Y-111436632D01*
X165145990Y-111193411D01*
X165257932Y-110923158D01*
X165315000Y-110636260D01*
X165315000Y-110343740D01*
X165257932Y-110056842D01*
X165145990Y-109786589D01*
X164983475Y-109543368D01*
X164776632Y-109336525D01*
X164602240Y-109220000D01*
X164776632Y-109103475D01*
X164795107Y-109085000D01*
X173024893Y-109085000D01*
X173043368Y-109103475D01*
X173286589Y-109265990D01*
X173556842Y-109377932D01*
X173843740Y-109435000D01*
X174136260Y-109435000D01*
X174423158Y-109377932D01*
X174693411Y-109265990D01*
X174936632Y-109103475D01*
X175143475Y-108896632D01*
X175305990Y-108653411D01*
X175417932Y-108383158D01*
X175475000Y-108096260D01*
X175475000Y-107803740D01*
X175417932Y-107516842D01*
X175305990Y-107246589D01*
X175143475Y-107003368D01*
X174936632Y-106796525D01*
X174762240Y-106680000D01*
X174936632Y-106563475D01*
X175143475Y-106356632D01*
X175305990Y-106113411D01*
X175417932Y-105843158D01*
X175475000Y-105556260D01*
X175475000Y-105263740D01*
X175417932Y-104976842D01*
X175305990Y-104706589D01*
X175143475Y-104463368D01*
X174936632Y-104256525D01*
X174762240Y-104140000D01*
X174936632Y-104023475D01*
X175143475Y-103816632D01*
X175305990Y-103573411D01*
X175417932Y-103303158D01*
X175475000Y-103016260D01*
X175475000Y-102723740D01*
X175417932Y-102436842D01*
X175305990Y-102166589D01*
X175143475Y-101923368D01*
X175011620Y-101791513D01*
X175084180Y-101769502D01*
X175194494Y-101710537D01*
X175291185Y-101631185D01*
X175370537Y-101534494D01*
X175429502Y-101424180D01*
X175465812Y-101304482D01*
X175478072Y-101180000D01*
X175478072Y-99480000D01*
X175465812Y-99355518D01*
X175429502Y-99235820D01*
X175370537Y-99125506D01*
X175291185Y-99028815D01*
X175194494Y-98949463D01*
X175084180Y-98890498D01*
X174964482Y-98854188D01*
X174840000Y-98841928D01*
X173140000Y-98841928D01*
X173015518Y-98854188D01*
X172895820Y-98890498D01*
X172785506Y-98949463D01*
X172688815Y-99028815D01*
X172609463Y-99125506D01*
X172572317Y-99195000D01*
X164795107Y-99195000D01*
X164776632Y-99176525D01*
X164594466Y-99054805D01*
X164711355Y-98985178D01*
X164927588Y-98790269D01*
X165101641Y-98556920D01*
X165226825Y-98294099D01*
X165271476Y-98146890D01*
X165150155Y-97917000D01*
X163957000Y-97917000D01*
X163957000Y-97937000D01*
X163703000Y-97937000D01*
X163703000Y-97917000D01*
X162509845Y-97917000D01*
X162388524Y-98146890D01*
X162433175Y-98294099D01*
X162558359Y-98556920D01*
X162732412Y-98790269D01*
X162948645Y-98985178D01*
X163065534Y-99054805D01*
X162883368Y-99176525D01*
X162676525Y-99383368D01*
X162514010Y-99626589D01*
X162402068Y-99896842D01*
X162345000Y-100183740D01*
X159784608Y-100183740D01*
X159774093Y-100173225D01*
X159745226Y-100028102D01*
X159667205Y-99839744D01*
X159553937Y-99670226D01*
X159409774Y-99526063D01*
X159240256Y-99412795D01*
X159051898Y-99334774D01*
X158851939Y-99295000D01*
X158648061Y-99295000D01*
X158448102Y-99334774D01*
X158315000Y-99389907D01*
X158315000Y-94400000D01*
X162341928Y-94400000D01*
X162341928Y-96100000D01*
X162354188Y-96224482D01*
X162390498Y-96344180D01*
X162449463Y-96454494D01*
X162528815Y-96551185D01*
X162625506Y-96630537D01*
X162735820Y-96689502D01*
X162816466Y-96713966D01*
X162732412Y-96789731D01*
X162558359Y-97023080D01*
X162433175Y-97285901D01*
X162388524Y-97433110D01*
X162509845Y-97663000D01*
X163703000Y-97663000D01*
X163703000Y-97643000D01*
X163957000Y-97643000D01*
X163957000Y-97663000D01*
X165150155Y-97663000D01*
X165271476Y-97433110D01*
X165226825Y-97285901D01*
X165101641Y-97023080D01*
X164927588Y-96789731D01*
X164843534Y-96713966D01*
X164924180Y-96689502D01*
X165034494Y-96630537D01*
X165131185Y-96551185D01*
X165210537Y-96454494D01*
X165269502Y-96344180D01*
X165305812Y-96224482D01*
X165318072Y-96100000D01*
X165318072Y-94400000D01*
X165305812Y-94275518D01*
X165269502Y-94155820D01*
X165210537Y-94045506D01*
X165131185Y-93948815D01*
X165034494Y-93869463D01*
X164924180Y-93810498D01*
X164804482Y-93774188D01*
X164680000Y-93761928D01*
X162980000Y-93761928D01*
X162855518Y-93774188D01*
X162735820Y-93810498D01*
X162625506Y-93869463D01*
X162528815Y-93948815D01*
X162449463Y-94045506D01*
X162390498Y-94155820D01*
X162354188Y-94275518D01*
X162341928Y-94400000D01*
X158315000Y-94400000D01*
X158315000Y-93323285D01*
X158397205Y-93200256D01*
X158475226Y-93011898D01*
X158515000Y-92811939D01*
X158515000Y-92608061D01*
X158475226Y-92408102D01*
X158397205Y-92219744D01*
X158283937Y-92050226D01*
X158139774Y-91906063D01*
X157970256Y-91792795D01*
X157781898Y-91714774D01*
X157581939Y-91675000D01*
X157378061Y-91675000D01*
X157178102Y-91714774D01*
X156989744Y-91792795D01*
X156820226Y-91906063D01*
X156676063Y-92050226D01*
X156562795Y-92219744D01*
X156484774Y-92408102D01*
X156445000Y-92608061D01*
X156445000Y-92811939D01*
X156484774Y-93011898D01*
X156562795Y-93200256D01*
X156645001Y-93323286D01*
X156645001Y-104469907D01*
X156511898Y-104414774D01*
X156311939Y-104375000D01*
X156108061Y-104375000D01*
X155908102Y-104414774D01*
X155719744Y-104492795D01*
X155686268Y-104515163D01*
X155715172Y-104461087D01*
X155762918Y-104303689D01*
X155775000Y-104181019D01*
X155775000Y-104181018D01*
X155779040Y-104140000D01*
X155775000Y-104098982D01*
X155775000Y-90640000D01*
X170011928Y-90640000D01*
X170011928Y-92240000D01*
X170024188Y-92364482D01*
X170060498Y-92484180D01*
X170119463Y-92594494D01*
X170198815Y-92691185D01*
X170295506Y-92770537D01*
X170405820Y-92829502D01*
X170525518Y-92865812D01*
X170650000Y-92878072D01*
X172250000Y-92878072D01*
X172374482Y-92865812D01*
X172494180Y-92829502D01*
X172604494Y-92770537D01*
X172701185Y-92691185D01*
X172780537Y-92594494D01*
X172839502Y-92484180D01*
X172875812Y-92364482D01*
X172888072Y-92240000D01*
X172888072Y-90640000D01*
X172875812Y-90515518D01*
X172839502Y-90395820D01*
X172780537Y-90285506D01*
X172701185Y-90188815D01*
X172604494Y-90109463D01*
X172494180Y-90050498D01*
X172374482Y-90014188D01*
X172250000Y-90001928D01*
X172242785Y-90001928D01*
X172263097Y-89932702D01*
X171450000Y-89119605D01*
X170636903Y-89932702D01*
X170657215Y-90001928D01*
X170650000Y-90001928D01*
X170525518Y-90014188D01*
X170405820Y-90050498D01*
X170295506Y-90109463D01*
X170198815Y-90188815D01*
X170119463Y-90285506D01*
X170060498Y-90395820D01*
X170024188Y-90515518D01*
X170011928Y-90640000D01*
X155775000Y-90640000D01*
X155775000Y-89010512D01*
X170009783Y-89010512D01*
X170051213Y-89290130D01*
X170146397Y-89556292D01*
X170213329Y-89681514D01*
X170457298Y-89753097D01*
X171270395Y-88940000D01*
X171629605Y-88940000D01*
X172442702Y-89753097D01*
X172686671Y-89681514D01*
X172807571Y-89426004D01*
X172876300Y-89151816D01*
X172890217Y-88869488D01*
X172848787Y-88589870D01*
X172753603Y-88323708D01*
X172686671Y-88198486D01*
X172442702Y-88126903D01*
X171629605Y-88940000D01*
X171270395Y-88940000D01*
X170457298Y-88126903D01*
X170213329Y-88198486D01*
X170092429Y-88453996D01*
X170023700Y-88728184D01*
X170009783Y-89010512D01*
X155775000Y-89010512D01*
X155775000Y-87947298D01*
X170636903Y-87947298D01*
X171450000Y-88760395D01*
X172263097Y-87947298D01*
X172191514Y-87703329D01*
X171936004Y-87582429D01*
X171661816Y-87513700D01*
X171379488Y-87499783D01*
X171099870Y-87541213D01*
X170833708Y-87636397D01*
X170708486Y-87703329D01*
X170636903Y-87947298D01*
X155775000Y-87947298D01*
X155775000Y-86716890D01*
X162388524Y-86716890D01*
X162433175Y-86864099D01*
X162558359Y-87126920D01*
X162732412Y-87360269D01*
X162948645Y-87555178D01*
X163198748Y-87704157D01*
X163473109Y-87801481D01*
X163703000Y-87680814D01*
X163703000Y-86487000D01*
X163957000Y-86487000D01*
X163957000Y-87680814D01*
X164186891Y-87801481D01*
X164461252Y-87704157D01*
X164711355Y-87555178D01*
X164927588Y-87360269D01*
X165101641Y-87126920D01*
X165226825Y-86864099D01*
X165271476Y-86716890D01*
X165150155Y-86487000D01*
X163957000Y-86487000D01*
X163703000Y-86487000D01*
X162509845Y-86487000D01*
X162388524Y-86716890D01*
X155775000Y-86716890D01*
X155775000Y-85131018D01*
X155779040Y-85090000D01*
X155762918Y-84926312D01*
X155739185Y-84848072D01*
X155715172Y-84768913D01*
X155637636Y-84623854D01*
X155614097Y-84595172D01*
X155559439Y-84528570D01*
X155559437Y-84528568D01*
X155533291Y-84496709D01*
X155501433Y-84470564D01*
X152588807Y-81557940D01*
X152615000Y-81426260D01*
X152615000Y-81133740D01*
X152557932Y-80846842D01*
X152445990Y-80576589D01*
X152283475Y-80333368D01*
X152076632Y-80126525D01*
X151902240Y-80010000D01*
X152076632Y-79893475D01*
X152283475Y-79686632D01*
X152445990Y-79443411D01*
X152557932Y-79173158D01*
X152615000Y-78886260D01*
X152615000Y-78593740D01*
X152557932Y-78306842D01*
X152445990Y-78036589D01*
X152283475Y-77793368D01*
X152076632Y-77586525D01*
X151902240Y-77470000D01*
X152076632Y-77353475D01*
X152283475Y-77146632D01*
X152445990Y-76903411D01*
X152557932Y-76633158D01*
X152615000Y-76346260D01*
X152615000Y-76053740D01*
X152557932Y-75766842D01*
X152445990Y-75496589D01*
X152283475Y-75253368D01*
X152076632Y-75046525D01*
X151902240Y-74930000D01*
X152076632Y-74813475D01*
X152283475Y-74606632D01*
X152445990Y-74363411D01*
X152557932Y-74093158D01*
X152615000Y-73806260D01*
X152615000Y-73513740D01*
X152557932Y-73226842D01*
X152445990Y-72956589D01*
X152283475Y-72713368D01*
X152076632Y-72506525D01*
X151902240Y-72390000D01*
X152076632Y-72273475D01*
X152283475Y-72066632D01*
X152445990Y-71823411D01*
X152462555Y-71783420D01*
X159185001Y-78505867D01*
X159185000Y-80666715D01*
X159102795Y-80789744D01*
X159024774Y-80978102D01*
X158985000Y-81178061D01*
X158985000Y-81381939D01*
X159024774Y-81581898D01*
X159102795Y-81770256D01*
X159216063Y-81939774D01*
X159360226Y-82083937D01*
X159529744Y-82197205D01*
X159718102Y-82275226D01*
X159918061Y-82315000D01*
X160121939Y-82315000D01*
X160321898Y-82275226D01*
X160510256Y-82197205D01*
X160679774Y-82083937D01*
X160823937Y-81939774D01*
X160937205Y-81770256D01*
X161015226Y-81581898D01*
X161055000Y-81381939D01*
X161055000Y-81178061D01*
X161015226Y-80978102D01*
X160937205Y-80789744D01*
X160855000Y-80666715D01*
X160855000Y-78201016D01*
X160859040Y-78159997D01*
X160842918Y-77996309D01*
X160795172Y-77838911D01*
X160717636Y-77693852D01*
X160710371Y-77685000D01*
X160613291Y-77566707D01*
X160581427Y-77540557D01*
X156554610Y-73513740D01*
X162345000Y-73513740D01*
X162345000Y-73806260D01*
X162402068Y-74093158D01*
X162514010Y-74363411D01*
X162676525Y-74606632D01*
X162883368Y-74813475D01*
X163057760Y-74930000D01*
X162883368Y-75046525D01*
X162676525Y-75253368D01*
X162514010Y-75496589D01*
X162402068Y-75766842D01*
X162345000Y-76053740D01*
X162345000Y-76346260D01*
X162402068Y-76633158D01*
X162514010Y-76903411D01*
X162676525Y-77146632D01*
X162883368Y-77353475D01*
X163057760Y-77470000D01*
X162883368Y-77586525D01*
X162676525Y-77793368D01*
X162514010Y-78036589D01*
X162402068Y-78306842D01*
X162345000Y-78593740D01*
X162345000Y-78886260D01*
X162402068Y-79173158D01*
X162514010Y-79443411D01*
X162676525Y-79686632D01*
X162883368Y-79893475D01*
X163057760Y-80010000D01*
X162883368Y-80126525D01*
X162676525Y-80333368D01*
X162514010Y-80576589D01*
X162402068Y-80846842D01*
X162345000Y-81133740D01*
X162345000Y-81426260D01*
X162402068Y-81713158D01*
X162514010Y-81983411D01*
X162676525Y-82226632D01*
X162883368Y-82433475D01*
X163057760Y-82550000D01*
X162883368Y-82666525D01*
X162676525Y-82873368D01*
X162514010Y-83116589D01*
X162402068Y-83386842D01*
X162345000Y-83673740D01*
X162345000Y-83966260D01*
X162402068Y-84253158D01*
X162514010Y-84523411D01*
X162676525Y-84766632D01*
X162883368Y-84973475D01*
X163065534Y-85095195D01*
X162948645Y-85164822D01*
X162732412Y-85359731D01*
X162558359Y-85593080D01*
X162433175Y-85855901D01*
X162388524Y-86003110D01*
X162509845Y-86233000D01*
X163703000Y-86233000D01*
X163703000Y-86213000D01*
X163957000Y-86213000D01*
X163957000Y-86233000D01*
X165150155Y-86233000D01*
X165271476Y-86003110D01*
X165226825Y-85855901D01*
X165101641Y-85593080D01*
X164927588Y-85359731D01*
X164711355Y-85164822D01*
X164594466Y-85095195D01*
X164776632Y-84973475D01*
X164983475Y-84766632D01*
X165145990Y-84523411D01*
X165257932Y-84253158D01*
X165315000Y-83966260D01*
X165315000Y-83673740D01*
X165257932Y-83386842D01*
X165145990Y-83116589D01*
X164983475Y-82873368D01*
X164776632Y-82666525D01*
X164602240Y-82550000D01*
X164776632Y-82433475D01*
X164795107Y-82415000D01*
X173024893Y-82415000D01*
X173043368Y-82433475D01*
X173286589Y-82595990D01*
X173556842Y-82707932D01*
X173843740Y-82765000D01*
X174136260Y-82765000D01*
X174423158Y-82707932D01*
X174693411Y-82595990D01*
X174936632Y-82433475D01*
X175143475Y-82226632D01*
X175305990Y-81983411D01*
X175417932Y-81713158D01*
X175475000Y-81426260D01*
X175475000Y-81133740D01*
X175417932Y-80846842D01*
X175305990Y-80576589D01*
X175143475Y-80333368D01*
X174936632Y-80126525D01*
X174762240Y-80010000D01*
X174936632Y-79893475D01*
X175143475Y-79686632D01*
X175305990Y-79443411D01*
X175417932Y-79173158D01*
X175475000Y-78886260D01*
X175475000Y-78593740D01*
X175417932Y-78306842D01*
X175305990Y-78036589D01*
X175143475Y-77793368D01*
X174936632Y-77586525D01*
X174762240Y-77470000D01*
X174936632Y-77353475D01*
X175143475Y-77146632D01*
X175305990Y-76903411D01*
X175417932Y-76633158D01*
X175475000Y-76346260D01*
X175475000Y-76053740D01*
X175417932Y-75766842D01*
X175305990Y-75496589D01*
X175143475Y-75253368D01*
X175011620Y-75121513D01*
X175084180Y-75099502D01*
X175194494Y-75040537D01*
X175291185Y-74961185D01*
X175370537Y-74864494D01*
X175429502Y-74754180D01*
X175465812Y-74634482D01*
X175478072Y-74510000D01*
X175478072Y-72810000D01*
X175465812Y-72685518D01*
X175429502Y-72565820D01*
X175370537Y-72455506D01*
X175291185Y-72358815D01*
X175194494Y-72279463D01*
X175084180Y-72220498D01*
X174964482Y-72184188D01*
X174840000Y-72171928D01*
X173140000Y-72171928D01*
X173015518Y-72184188D01*
X172895820Y-72220498D01*
X172785506Y-72279463D01*
X172688815Y-72358815D01*
X172609463Y-72455506D01*
X172572317Y-72525000D01*
X164795107Y-72525000D01*
X164776632Y-72506525D01*
X164594466Y-72384805D01*
X164711355Y-72315178D01*
X164927588Y-72120269D01*
X165101641Y-71886920D01*
X165226825Y-71624099D01*
X165271476Y-71476890D01*
X165150155Y-71247000D01*
X163957000Y-71247000D01*
X163957000Y-71267000D01*
X163703000Y-71267000D01*
X163703000Y-71247000D01*
X162509845Y-71247000D01*
X162388524Y-71476890D01*
X162433175Y-71624099D01*
X162558359Y-71886920D01*
X162732412Y-72120269D01*
X162948645Y-72315178D01*
X163065534Y-72384805D01*
X162883368Y-72506525D01*
X162676525Y-72713368D01*
X162514010Y-72956589D01*
X162402068Y-73226842D01*
X162345000Y-73513740D01*
X156554610Y-73513740D01*
X152603377Y-69562508D01*
X152605812Y-69554482D01*
X152618072Y-69430000D01*
X152618072Y-67730000D01*
X162341928Y-67730000D01*
X162341928Y-69430000D01*
X162354188Y-69554482D01*
X162390498Y-69674180D01*
X162449463Y-69784494D01*
X162528815Y-69881185D01*
X162625506Y-69960537D01*
X162735820Y-70019502D01*
X162816466Y-70043966D01*
X162732412Y-70119731D01*
X162558359Y-70353080D01*
X162433175Y-70615901D01*
X162388524Y-70763110D01*
X162509845Y-70993000D01*
X163703000Y-70993000D01*
X163703000Y-70973000D01*
X163957000Y-70973000D01*
X163957000Y-70993000D01*
X165150155Y-70993000D01*
X165271476Y-70763110D01*
X165226825Y-70615901D01*
X165101641Y-70353080D01*
X164927588Y-70119731D01*
X164843534Y-70043966D01*
X164924180Y-70019502D01*
X165034494Y-69960537D01*
X165131185Y-69881185D01*
X165210537Y-69784494D01*
X165269502Y-69674180D01*
X165305812Y-69554482D01*
X165318072Y-69430000D01*
X165318072Y-67730000D01*
X165305812Y-67605518D01*
X165269502Y-67485820D01*
X165210537Y-67375506D01*
X165131185Y-67278815D01*
X165034494Y-67199463D01*
X164924180Y-67140498D01*
X164804482Y-67104188D01*
X164680000Y-67091928D01*
X162980000Y-67091928D01*
X162855518Y-67104188D01*
X162735820Y-67140498D01*
X162625506Y-67199463D01*
X162528815Y-67278815D01*
X162449463Y-67375506D01*
X162390498Y-67485820D01*
X162354188Y-67605518D01*
X162341928Y-67730000D01*
X152618072Y-67730000D01*
X152605812Y-67605518D01*
X152569502Y-67485820D01*
X152510537Y-67375506D01*
X152431185Y-67278815D01*
X152334494Y-67199463D01*
X152224180Y-67140498D01*
X152104482Y-67104188D01*
X151980000Y-67091928D01*
X150280000Y-67091928D01*
X150155518Y-67104188D01*
X150035820Y-67140498D01*
X149925506Y-67199463D01*
X149828815Y-67278815D01*
X149749463Y-67375506D01*
X149690498Y-67485820D01*
X149654188Y-67605518D01*
X149641928Y-67730000D01*
X149641928Y-69430000D01*
X149654188Y-69554482D01*
X149656622Y-69562507D01*
X141314131Y-77905000D01*
X138587169Y-77905000D01*
X138587932Y-77903158D01*
X138645000Y-77616260D01*
X138645000Y-77323740D01*
X138587932Y-77036842D01*
X138475990Y-76766589D01*
X138313475Y-76523368D01*
X138106632Y-76316525D01*
X137932240Y-76200000D01*
X138106632Y-76083475D01*
X138313475Y-75876632D01*
X138475990Y-75633411D01*
X138587932Y-75363158D01*
X138645000Y-75076260D01*
X138645000Y-74783740D01*
X138587932Y-74496842D01*
X138475990Y-74226589D01*
X138313475Y-73983368D01*
X138106632Y-73776525D01*
X137932240Y-73660000D01*
X138106632Y-73543475D01*
X138313475Y-73336632D01*
X138475990Y-73093411D01*
X138587932Y-72823158D01*
X138645000Y-72536260D01*
X138645000Y-72243740D01*
X138587932Y-71956842D01*
X138475990Y-71686589D01*
X138313475Y-71443368D01*
X138106632Y-71236525D01*
X137924466Y-71114805D01*
X138041355Y-71045178D01*
X138257588Y-70850269D01*
X138431641Y-70616920D01*
X138556825Y-70354099D01*
X138601476Y-70206890D01*
X138480155Y-69977000D01*
X137287000Y-69977000D01*
X137287000Y-69997000D01*
X137033000Y-69997000D01*
X137033000Y-69977000D01*
X135839845Y-69977000D01*
X135718524Y-70206890D01*
X135763175Y-70354099D01*
X135888359Y-70616920D01*
X136062412Y-70850269D01*
X136278645Y-71045178D01*
X136395534Y-71114805D01*
X136213368Y-71236525D01*
X136006525Y-71443368D01*
X135844010Y-71686589D01*
X135732068Y-71956842D01*
X135675000Y-72243740D01*
X135675000Y-72536260D01*
X135732068Y-72823158D01*
X135844010Y-73093411D01*
X136006525Y-73336632D01*
X136213368Y-73543475D01*
X136387760Y-73660000D01*
X136213368Y-73776525D01*
X136006525Y-73983368D01*
X135844010Y-74226589D01*
X135732068Y-74496842D01*
X135675000Y-74783740D01*
X135675000Y-75076260D01*
X135732068Y-75363158D01*
X135844010Y-75633411D01*
X136006525Y-75876632D01*
X136213368Y-76083475D01*
X136387760Y-76200000D01*
X136213368Y-76316525D01*
X136006525Y-76523368D01*
X135844010Y-76766589D01*
X135732068Y-77036842D01*
X135675000Y-77323740D01*
X135675000Y-77616260D01*
X135732068Y-77903158D01*
X135732831Y-77905000D01*
X117453285Y-77905000D01*
X117330256Y-77822795D01*
X117141898Y-77744774D01*
X116941939Y-77705000D01*
X116738061Y-77705000D01*
X116538102Y-77744774D01*
X116349744Y-77822795D01*
X116180226Y-77936063D01*
X116036063Y-78080226D01*
X115922795Y-78249744D01*
X115844774Y-78438102D01*
X115805000Y-78638061D01*
X115805000Y-78841939D01*
X115844774Y-79041898D01*
X115922795Y-79230256D01*
X116036063Y-79399774D01*
X116180226Y-79543937D01*
X116349744Y-79657205D01*
X116538102Y-79735226D01*
X116738061Y-79775000D01*
X116941939Y-79775000D01*
X117141898Y-79735226D01*
X117330256Y-79657205D01*
X117453285Y-79575000D01*
X135742216Y-79575000D01*
X135718524Y-79653110D01*
X135839845Y-79883000D01*
X137033000Y-79883000D01*
X137033000Y-79863000D01*
X137287000Y-79863000D01*
X137287000Y-79883000D01*
X138480155Y-79883000D01*
X138601476Y-79653110D01*
X138577784Y-79575000D01*
X141618980Y-79575000D01*
X141659998Y-79579040D01*
X141701016Y-79575000D01*
X141701017Y-79575000D01*
X141823687Y-79562918D01*
X141981085Y-79515172D01*
X142126144Y-79437636D01*
X142253289Y-79333291D01*
X142279444Y-79301421D01*
X143945001Y-77635864D01*
X143945000Y-79664132D01*
X138645000Y-84964133D01*
X138645000Y-84943740D01*
X138587932Y-84656842D01*
X138475990Y-84386589D01*
X138313475Y-84143368D01*
X138106632Y-83936525D01*
X137932240Y-83820000D01*
X138106632Y-83703475D01*
X138313475Y-83496632D01*
X138475990Y-83253411D01*
X138587932Y-82983158D01*
X138645000Y-82696260D01*
X138645000Y-82403740D01*
X138587932Y-82116842D01*
X138475990Y-81846589D01*
X138313475Y-81603368D01*
X138106632Y-81396525D01*
X137924466Y-81274805D01*
X138041355Y-81205178D01*
X138257588Y-81010269D01*
X138431641Y-80776920D01*
X138556825Y-80514099D01*
X138601476Y-80366890D01*
X138480155Y-80137000D01*
X137287000Y-80137000D01*
X137287000Y-80157000D01*
X137033000Y-80157000D01*
X137033000Y-80137000D01*
X135839845Y-80137000D01*
X135718524Y-80366890D01*
X135763175Y-80514099D01*
X135888359Y-80776920D01*
X136062412Y-81010269D01*
X136278645Y-81205178D01*
X136395534Y-81274805D01*
X136213368Y-81396525D01*
X136006525Y-81603368D01*
X135844010Y-81846589D01*
X135732068Y-82116842D01*
X135675000Y-82403740D01*
X135675000Y-82696260D01*
X135732068Y-82983158D01*
X135844010Y-83253411D01*
X136006525Y-83496632D01*
X136213368Y-83703475D01*
X136387760Y-83820000D01*
X136213368Y-83936525D01*
X136006525Y-84143368D01*
X135844010Y-84386589D01*
X135732068Y-84656842D01*
X135675000Y-84943740D01*
X135675000Y-85236260D01*
X135732068Y-85523158D01*
X135844010Y-85793411D01*
X136006525Y-86036632D01*
X136213368Y-86243475D01*
X136387760Y-86360000D01*
X136213368Y-86476525D01*
X136006525Y-86683368D01*
X135844010Y-86926589D01*
X135732068Y-87196842D01*
X135675000Y-87483740D01*
X135675000Y-87776260D01*
X135732068Y-88063158D01*
X135844010Y-88333411D01*
X136006525Y-88576632D01*
X136213368Y-88783475D01*
X136387760Y-88900000D01*
X136213368Y-89016525D01*
X136006525Y-89223368D01*
X135844010Y-89466589D01*
X135732068Y-89736842D01*
X135675000Y-90023740D01*
X135675000Y-90316260D01*
X135732068Y-90603158D01*
X135844010Y-90873411D01*
X136006525Y-91116632D01*
X136213368Y-91323475D01*
X136387760Y-91440000D01*
X136213368Y-91556525D01*
X136006525Y-91763368D01*
X135844010Y-92006589D01*
X135732068Y-92276842D01*
X135675000Y-92563740D01*
X135675000Y-92856260D01*
X135732068Y-93143158D01*
X135844010Y-93413411D01*
X136006525Y-93656632D01*
X136213368Y-93863475D01*
X136387760Y-93980000D01*
X136213368Y-94096525D01*
X136006525Y-94303368D01*
X135844010Y-94546589D01*
X135732068Y-94816842D01*
X135675000Y-95103740D01*
X135675000Y-95396260D01*
X135728456Y-95665001D01*
X126055870Y-95665001D01*
X113218807Y-82827940D01*
X113245000Y-82696260D01*
X113245000Y-82403740D01*
X113187932Y-82116842D01*
X113075990Y-81846589D01*
X112913475Y-81603368D01*
X112706632Y-81396525D01*
X112532240Y-81280000D01*
X112706632Y-81163475D01*
X112913475Y-80956632D01*
X113075990Y-80713411D01*
X113187932Y-80443158D01*
X113245000Y-80156260D01*
X113245000Y-79863740D01*
X113187932Y-79576842D01*
X113075990Y-79306589D01*
X112913475Y-79063368D01*
X112706632Y-78856525D01*
X112532240Y-78740000D01*
X112706632Y-78623475D01*
X112913475Y-78416632D01*
X113075990Y-78173411D01*
X113187932Y-77903158D01*
X113245000Y-77616260D01*
X113245000Y-77323740D01*
X113187932Y-77036842D01*
X113075990Y-76766589D01*
X112913475Y-76523368D01*
X112706632Y-76316525D01*
X112532240Y-76200000D01*
X112706632Y-76083475D01*
X112913475Y-75876632D01*
X113075990Y-75633411D01*
X113187932Y-75363158D01*
X113245000Y-75076260D01*
X113245000Y-74783740D01*
X113187932Y-74496842D01*
X113075990Y-74226589D01*
X112913475Y-73983368D01*
X112706632Y-73776525D01*
X112532240Y-73660000D01*
X112706632Y-73543475D01*
X112913475Y-73336632D01*
X113075990Y-73093411D01*
X113187932Y-72823158D01*
X113245000Y-72536260D01*
X113245000Y-72243740D01*
X113187932Y-71956842D01*
X113075990Y-71686589D01*
X112913475Y-71443368D01*
X112706632Y-71236525D01*
X112532240Y-71120000D01*
X112706632Y-71003475D01*
X112913475Y-70796632D01*
X113075990Y-70553411D01*
X113187932Y-70283158D01*
X113245000Y-69996260D01*
X113245000Y-69703740D01*
X113187932Y-69416842D01*
X113075990Y-69146589D01*
X112913475Y-68903368D01*
X112706632Y-68696525D01*
X112532240Y-68580000D01*
X112706632Y-68463475D01*
X112913475Y-68256632D01*
X113075990Y-68013411D01*
X113187932Y-67743158D01*
X113245000Y-67456260D01*
X113245000Y-67163740D01*
X113187932Y-66876842D01*
X113075990Y-66606589D01*
X112913475Y-66363368D01*
X112706632Y-66156525D01*
X112463411Y-65994010D01*
X112248521Y-65905000D01*
X134149869Y-65905000D01*
X135675000Y-67430132D01*
X135675000Y-67456260D01*
X135732068Y-67743158D01*
X135844010Y-68013411D01*
X136006525Y-68256632D01*
X136213368Y-68463475D01*
X136395534Y-68585195D01*
X136278645Y-68654822D01*
X136062412Y-68849731D01*
X135888359Y-69083080D01*
X135763175Y-69345901D01*
X135718524Y-69493110D01*
X135839845Y-69723000D01*
X137033000Y-69723000D01*
X137033000Y-69703000D01*
X137287000Y-69703000D01*
X137287000Y-69723000D01*
X138480155Y-69723000D01*
X138601476Y-69493110D01*
X138556825Y-69345901D01*
X138431641Y-69083080D01*
X138257588Y-68849731D01*
X138041355Y-68654822D01*
X137924466Y-68585195D01*
X138106632Y-68463475D01*
X138313475Y-68256632D01*
X138475990Y-68013411D01*
X138587932Y-67743158D01*
X138645000Y-67456260D01*
X138645000Y-67163740D01*
X138630307Y-67089872D01*
X171755000Y-67089872D01*
X171755000Y-67530128D01*
X171840890Y-67961925D01*
X172009369Y-68368669D01*
X172253962Y-68734729D01*
X172565271Y-69046038D01*
X172931331Y-69290631D01*
X173338075Y-69459110D01*
X173769872Y-69545000D01*
X174210128Y-69545000D01*
X174641925Y-69459110D01*
X175048669Y-69290631D01*
X175414729Y-69046038D01*
X175726038Y-68734729D01*
X175970631Y-68368669D01*
X176139110Y-67961925D01*
X176225000Y-67530128D01*
X176225000Y-67089872D01*
X176139110Y-66658075D01*
X175970631Y-66251331D01*
X175726038Y-65885271D01*
X175414729Y-65573962D01*
X175048669Y-65329369D01*
X174641925Y-65160890D01*
X174210128Y-65075000D01*
X173769872Y-65075000D01*
X173338075Y-65160890D01*
X172931331Y-65329369D01*
X172565271Y-65573962D01*
X172253962Y-65885271D01*
X172009369Y-66251331D01*
X171840890Y-66658075D01*
X171755000Y-67089872D01*
X138630307Y-67089872D01*
X138587932Y-66876842D01*
X138475990Y-66606589D01*
X138313475Y-66363368D01*
X138106632Y-66156525D01*
X137863411Y-65994010D01*
X137593158Y-65882068D01*
X137306260Y-65825000D01*
X137280132Y-65825000D01*
X135615131Y-64160000D01*
X177140000Y-64160000D01*
X177140001Y-139040000D01*
G37*
X177140001Y-139040000D02*
X130535131Y-139040000D01*
X135753368Y-133821765D01*
X135763175Y-133854099D01*
X135888359Y-134116920D01*
X136062412Y-134350269D01*
X136278645Y-134545178D01*
X136528748Y-134694157D01*
X136803109Y-134791481D01*
X137033000Y-134670814D01*
X137033000Y-133477000D01*
X137287000Y-133477000D01*
X137287000Y-134670814D01*
X137516891Y-134791481D01*
X137791252Y-134694157D01*
X138041355Y-134545178D01*
X138257588Y-134350269D01*
X138431641Y-134116920D01*
X138556825Y-133854099D01*
X138601476Y-133706890D01*
X138480155Y-133477000D01*
X137287000Y-133477000D01*
X137033000Y-133477000D01*
X137013000Y-133477000D01*
X137013000Y-133223000D01*
X137033000Y-133223000D01*
X137033000Y-133203000D01*
X137287000Y-133203000D01*
X137287000Y-133223000D01*
X138480155Y-133223000D01*
X138601476Y-132993110D01*
X138556825Y-132845901D01*
X138431641Y-132583080D01*
X138257588Y-132349731D01*
X138041355Y-132154822D01*
X137924466Y-132085195D01*
X138106632Y-131963475D01*
X138313475Y-131756632D01*
X138475990Y-131513411D01*
X138587932Y-131243158D01*
X138645000Y-130956260D01*
X138645000Y-130935867D01*
X145430563Y-137721432D01*
X145456709Y-137753291D01*
X145583854Y-137857636D01*
X145728913Y-137935172D01*
X145886311Y-137982918D01*
X146008981Y-137995000D01*
X146008982Y-137995000D01*
X146050000Y-137999040D01*
X146091018Y-137995000D01*
X153628982Y-137995000D01*
X153670000Y-137999040D01*
X153711018Y-137995000D01*
X153711019Y-137995000D01*
X153833689Y-137982918D01*
X153991087Y-137935172D01*
X154136146Y-137857636D01*
X154263291Y-137753291D01*
X154289446Y-137721421D01*
X156340996Y-135669872D01*
X171755000Y-135669872D01*
X171755000Y-136110128D01*
X171840890Y-136541925D01*
X172009369Y-136948669D01*
X172253962Y-137314729D01*
X172565271Y-137626038D01*
X172931331Y-137870631D01*
X173338075Y-138039110D01*
X173769872Y-138125000D01*
X174210128Y-138125000D01*
X174641925Y-138039110D01*
X175048669Y-137870631D01*
X175414729Y-137626038D01*
X175726038Y-137314729D01*
X175970631Y-136948669D01*
X176139110Y-136541925D01*
X176225000Y-136110128D01*
X176225000Y-135669872D01*
X176139110Y-135238075D01*
X175970631Y-134831331D01*
X175726038Y-134465271D01*
X175414729Y-134153962D01*
X175048669Y-133909369D01*
X174641925Y-133740890D01*
X174210128Y-133655000D01*
X173769872Y-133655000D01*
X173338075Y-133740890D01*
X172931331Y-133909369D01*
X172565271Y-134153962D01*
X172253962Y-134465271D01*
X172009369Y-134831331D01*
X171840890Y-135238075D01*
X171755000Y-135669872D01*
X156340996Y-135669872D01*
X158041433Y-133969436D01*
X158073291Y-133943291D01*
X158177636Y-133816146D01*
X158255172Y-133671087D01*
X158302918Y-133513689D01*
X158315000Y-133391019D01*
X158315000Y-133391018D01*
X158319040Y-133350000D01*
X158315000Y-133308982D01*
X158315000Y-101270093D01*
X158448102Y-101325226D01*
X158593225Y-101354093D01*
X159185001Y-101945869D01*
X159185000Y-121306715D01*
X159102795Y-121429744D01*
X159024774Y-121618102D01*
X158985000Y-121818061D01*
X158985000Y-122021939D01*
X159024774Y-122221898D01*
X159102795Y-122410256D01*
X159216063Y-122579774D01*
X159360226Y-122723937D01*
X159529744Y-122837205D01*
X159718102Y-122915226D01*
X159918061Y-122955000D01*
X160121939Y-122955000D01*
X160321898Y-122915226D01*
X160510256Y-122837205D01*
X160679774Y-122723937D01*
X160823937Y-122579774D01*
X160937205Y-122410256D01*
X161015226Y-122221898D01*
X161055000Y-122021939D01*
X161055000Y-121818061D01*
X161015226Y-121618102D01*
X160937205Y-121429744D01*
X160855000Y-121306715D01*
X160855000Y-113386890D01*
X162388524Y-113386890D01*
X162433175Y-113534099D01*
X162558359Y-113796920D01*
X162732412Y-114030269D01*
X162948645Y-114225178D01*
X163198748Y-114374157D01*
X163473109Y-114471481D01*
X163703000Y-114350814D01*
X163703000Y-113157000D01*
X163957000Y-113157000D01*
X163957000Y-114350814D01*
X164186891Y-114471481D01*
X164461252Y-114374157D01*
X164711355Y-114225178D01*
X164927588Y-114030269D01*
X165101641Y-113796920D01*
X165226825Y-113534099D01*
X165271476Y-113386890D01*
X165150155Y-113157000D01*
X163957000Y-113157000D01*
X163703000Y-113157000D01*
X162509845Y-113157000D01*
X162388524Y-113386890D01*
X160855000Y-113386890D01*
X160855000Y-101641015D01*
X160859040Y-101599999D01*
X160847563Y-101483475D01*
X160842918Y-101436311D01*
X160795172Y-101278913D01*
X160717636Y-101133854D01*
X160613291Y-101006709D01*
X160581426Y-100980558D01*
X159784608Y-100183740D01*
X162345000Y-100183740D01*
X162345000Y-100476260D01*
X162402068Y-100763158D01*
X162514010Y-101033411D01*
X162676525Y-101276632D01*
X162883368Y-101483475D01*
X163057760Y-101600000D01*
X162883368Y-101716525D01*
X162676525Y-101923368D01*
X162514010Y-102166589D01*
X162402068Y-102436842D01*
X162345000Y-102723740D01*
X162345000Y-103016260D01*
X162402068Y-103303158D01*
X162514010Y-103573411D01*
X162676525Y-103816632D01*
X162883368Y-104023475D01*
X163057760Y-104140000D01*
X162883368Y-104256525D01*
X162676525Y-104463368D01*
X162514010Y-104706589D01*
X162402068Y-104976842D01*
X162345000Y-105263740D01*
X162345000Y-105556260D01*
X162402068Y-105843158D01*
X162514010Y-106113411D01*
X162676525Y-106356632D01*
X162883368Y-106563475D01*
X163057760Y-106680000D01*
X162883368Y-106796525D01*
X162676525Y-107003368D01*
X162514010Y-107246589D01*
X162402068Y-107516842D01*
X162345000Y-107803740D01*
X162345000Y-108096260D01*
X162402068Y-108383158D01*
X162514010Y-108653411D01*
X162676525Y-108896632D01*
X162883368Y-109103475D01*
X163057760Y-109220000D01*
X162883368Y-109336525D01*
X162676525Y-109543368D01*
X162514010Y-109786589D01*
X162402068Y-110056842D01*
X162345000Y-110343740D01*
X162345000Y-110636260D01*
X162402068Y-110923158D01*
X162514010Y-111193411D01*
X162676525Y-111436632D01*
X162883368Y-111643475D01*
X163065534Y-111765195D01*
X162948645Y-111834822D01*
X162732412Y-112029731D01*
X162558359Y-112263080D01*
X162433175Y-112525901D01*
X162388524Y-112673110D01*
X162509845Y-112903000D01*
X163703000Y-112903000D01*
X163703000Y-112883000D01*
X163957000Y-112883000D01*
X163957000Y-112903000D01*
X165150155Y-112903000D01*
X165271476Y-112673110D01*
X165226825Y-112525901D01*
X165101641Y-112263080D01*
X164927588Y-112029731D01*
X164711355Y-111834822D01*
X164594466Y-111765195D01*
X164776632Y-111643475D01*
X164983475Y-111436632D01*
X165145990Y-111193411D01*
X165257932Y-110923158D01*
X165315000Y-110636260D01*
X165315000Y-110343740D01*
X165257932Y-110056842D01*
X165145990Y-109786589D01*
X164983475Y-109543368D01*
X164776632Y-109336525D01*
X164602240Y-109220000D01*
X164776632Y-109103475D01*
X164795107Y-109085000D01*
X173024893Y-109085000D01*
X173043368Y-109103475D01*
X173286589Y-109265990D01*
X173556842Y-109377932D01*
X173843740Y-109435000D01*
X174136260Y-109435000D01*
X174423158Y-109377932D01*
X174693411Y-109265990D01*
X174936632Y-109103475D01*
X175143475Y-108896632D01*
X175305990Y-108653411D01*
X175417932Y-108383158D01*
X175475000Y-108096260D01*
X175475000Y-107803740D01*
X175417932Y-107516842D01*
X175305990Y-107246589D01*
X175143475Y-107003368D01*
X174936632Y-106796525D01*
X174762240Y-106680000D01*
X174936632Y-106563475D01*
X175143475Y-106356632D01*
X175305990Y-106113411D01*
X175417932Y-105843158D01*
X175475000Y-105556260D01*
X175475000Y-105263740D01*
X175417932Y-104976842D01*
X175305990Y-104706589D01*
X175143475Y-104463368D01*
X174936632Y-104256525D01*
X174762240Y-104140000D01*
X174936632Y-104023475D01*
X175143475Y-103816632D01*
X175305990Y-103573411D01*
X175417932Y-103303158D01*
X175475000Y-103016260D01*
X175475000Y-102723740D01*
X175417932Y-102436842D01*
X175305990Y-102166589D01*
X175143475Y-101923368D01*
X175011620Y-101791513D01*
X175084180Y-101769502D01*
X175194494Y-101710537D01*
X175291185Y-101631185D01*
X175370537Y-101534494D01*
X175429502Y-101424180D01*
X175465812Y-101304482D01*
X175478072Y-101180000D01*
X175478072Y-99480000D01*
X175465812Y-99355518D01*
X175429502Y-99235820D01*
X175370537Y-99125506D01*
X175291185Y-99028815D01*
X175194494Y-98949463D01*
X175084180Y-98890498D01*
X174964482Y-98854188D01*
X174840000Y-98841928D01*
X173140000Y-98841928D01*
X173015518Y-98854188D01*
X172895820Y-98890498D01*
X172785506Y-98949463D01*
X172688815Y-99028815D01*
X172609463Y-99125506D01*
X172572317Y-99195000D01*
X164795107Y-99195000D01*
X164776632Y-99176525D01*
X164594466Y-99054805D01*
X164711355Y-98985178D01*
X164927588Y-98790269D01*
X165101641Y-98556920D01*
X165226825Y-98294099D01*
X165271476Y-98146890D01*
X165150155Y-97917000D01*
X163957000Y-97917000D01*
X163957000Y-97937000D01*
X163703000Y-97937000D01*
X163703000Y-97917000D01*
X162509845Y-97917000D01*
X162388524Y-98146890D01*
X162433175Y-98294099D01*
X162558359Y-98556920D01*
X162732412Y-98790269D01*
X162948645Y-98985178D01*
X163065534Y-99054805D01*
X162883368Y-99176525D01*
X162676525Y-99383368D01*
X162514010Y-99626589D01*
X162402068Y-99896842D01*
X162345000Y-100183740D01*
X159784608Y-100183740D01*
X159774093Y-100173225D01*
X159745226Y-100028102D01*
X159667205Y-99839744D01*
X159553937Y-99670226D01*
X159409774Y-99526063D01*
X159240256Y-99412795D01*
X159051898Y-99334774D01*
X158851939Y-99295000D01*
X158648061Y-99295000D01*
X158448102Y-99334774D01*
X158315000Y-99389907D01*
X158315000Y-94400000D01*
X162341928Y-94400000D01*
X162341928Y-96100000D01*
X162354188Y-96224482D01*
X162390498Y-96344180D01*
X162449463Y-96454494D01*
X162528815Y-96551185D01*
X162625506Y-96630537D01*
X162735820Y-96689502D01*
X162816466Y-96713966D01*
X162732412Y-96789731D01*
X162558359Y-97023080D01*
X162433175Y-97285901D01*
X162388524Y-97433110D01*
X162509845Y-97663000D01*
X163703000Y-97663000D01*
X163703000Y-97643000D01*
X163957000Y-97643000D01*
X163957000Y-97663000D01*
X165150155Y-97663000D01*
X165271476Y-97433110D01*
X165226825Y-97285901D01*
X165101641Y-97023080D01*
X164927588Y-96789731D01*
X164843534Y-96713966D01*
X164924180Y-96689502D01*
X165034494Y-96630537D01*
X165131185Y-96551185D01*
X165210537Y-96454494D01*
X165269502Y-96344180D01*
X165305812Y-96224482D01*
X165318072Y-96100000D01*
X165318072Y-94400000D01*
X165305812Y-94275518D01*
X165269502Y-94155820D01*
X165210537Y-94045506D01*
X165131185Y-93948815D01*
X165034494Y-93869463D01*
X164924180Y-93810498D01*
X164804482Y-93774188D01*
X164680000Y-93761928D01*
X162980000Y-93761928D01*
X162855518Y-93774188D01*
X162735820Y-93810498D01*
X162625506Y-93869463D01*
X162528815Y-93948815D01*
X162449463Y-94045506D01*
X162390498Y-94155820D01*
X162354188Y-94275518D01*
X162341928Y-94400000D01*
X158315000Y-94400000D01*
X158315000Y-93323285D01*
X158397205Y-93200256D01*
X158475226Y-93011898D01*
X158515000Y-92811939D01*
X158515000Y-92608061D01*
X158475226Y-92408102D01*
X158397205Y-92219744D01*
X158283937Y-92050226D01*
X158139774Y-91906063D01*
X157970256Y-91792795D01*
X157781898Y-91714774D01*
X157581939Y-91675000D01*
X157378061Y-91675000D01*
X157178102Y-91714774D01*
X156989744Y-91792795D01*
X156820226Y-91906063D01*
X156676063Y-92050226D01*
X156562795Y-92219744D01*
X156484774Y-92408102D01*
X156445000Y-92608061D01*
X156445000Y-92811939D01*
X156484774Y-93011898D01*
X156562795Y-93200256D01*
X156645001Y-93323286D01*
X156645001Y-104469907D01*
X156511898Y-104414774D01*
X156311939Y-104375000D01*
X156108061Y-104375000D01*
X155908102Y-104414774D01*
X155719744Y-104492795D01*
X155686268Y-104515163D01*
X155715172Y-104461087D01*
X155762918Y-104303689D01*
X155775000Y-104181019D01*
X155775000Y-104181018D01*
X155779040Y-104140000D01*
X155775000Y-104098982D01*
X155775000Y-90640000D01*
X170011928Y-90640000D01*
X170011928Y-92240000D01*
X170024188Y-92364482D01*
X170060498Y-92484180D01*
X170119463Y-92594494D01*
X170198815Y-92691185D01*
X170295506Y-92770537D01*
X170405820Y-92829502D01*
X170525518Y-92865812D01*
X170650000Y-92878072D01*
X172250000Y-92878072D01*
X172374482Y-92865812D01*
X172494180Y-92829502D01*
X172604494Y-92770537D01*
X172701185Y-92691185D01*
X172780537Y-92594494D01*
X172839502Y-92484180D01*
X172875812Y-92364482D01*
X172888072Y-92240000D01*
X172888072Y-90640000D01*
X172875812Y-90515518D01*
X172839502Y-90395820D01*
X172780537Y-90285506D01*
X172701185Y-90188815D01*
X172604494Y-90109463D01*
X172494180Y-90050498D01*
X172374482Y-90014188D01*
X172250000Y-90001928D01*
X172242785Y-90001928D01*
X172263097Y-89932702D01*
X171450000Y-89119605D01*
X170636903Y-89932702D01*
X170657215Y-90001928D01*
X170650000Y-90001928D01*
X170525518Y-90014188D01*
X170405820Y-90050498D01*
X170295506Y-90109463D01*
X170198815Y-90188815D01*
X170119463Y-90285506D01*
X170060498Y-90395820D01*
X170024188Y-90515518D01*
X170011928Y-90640000D01*
X155775000Y-90640000D01*
X155775000Y-89010512D01*
X170009783Y-89010512D01*
X170051213Y-89290130D01*
X170146397Y-89556292D01*
X170213329Y-89681514D01*
X170457298Y-89753097D01*
X171270395Y-88940000D01*
X171629605Y-88940000D01*
X172442702Y-89753097D01*
X172686671Y-89681514D01*
X172807571Y-89426004D01*
X172876300Y-89151816D01*
X172890217Y-88869488D01*
X172848787Y-88589870D01*
X172753603Y-88323708D01*
X172686671Y-88198486D01*
X172442702Y-88126903D01*
X171629605Y-88940000D01*
X171270395Y-88940000D01*
X170457298Y-88126903D01*
X170213329Y-88198486D01*
X170092429Y-88453996D01*
X170023700Y-88728184D01*
X170009783Y-89010512D01*
X155775000Y-89010512D01*
X155775000Y-87947298D01*
X170636903Y-87947298D01*
X171450000Y-88760395D01*
X172263097Y-87947298D01*
X172191514Y-87703329D01*
X171936004Y-87582429D01*
X171661816Y-87513700D01*
X171379488Y-87499783D01*
X171099870Y-87541213D01*
X170833708Y-87636397D01*
X170708486Y-87703329D01*
X170636903Y-87947298D01*
X155775000Y-87947298D01*
X155775000Y-86716890D01*
X162388524Y-86716890D01*
X162433175Y-86864099D01*
X162558359Y-87126920D01*
X162732412Y-87360269D01*
X162948645Y-87555178D01*
X163198748Y-87704157D01*
X163473109Y-87801481D01*
X163703000Y-87680814D01*
X163703000Y-86487000D01*
X163957000Y-86487000D01*
X163957000Y-87680814D01*
X164186891Y-87801481D01*
X164461252Y-87704157D01*
X164711355Y-87555178D01*
X164927588Y-87360269D01*
X165101641Y-87126920D01*
X165226825Y-86864099D01*
X165271476Y-86716890D01*
X165150155Y-86487000D01*
X163957000Y-86487000D01*
X163703000Y-86487000D01*
X162509845Y-86487000D01*
X162388524Y-86716890D01*
X155775000Y-86716890D01*
X155775000Y-85131018D01*
X155779040Y-85090000D01*
X155762918Y-84926312D01*
X155739185Y-84848072D01*
X155715172Y-84768913D01*
X155637636Y-84623854D01*
X155614097Y-84595172D01*
X155559439Y-84528570D01*
X155559437Y-84528568D01*
X155533291Y-84496709D01*
X155501433Y-84470564D01*
X152588807Y-81557940D01*
X152615000Y-81426260D01*
X152615000Y-81133740D01*
X152557932Y-80846842D01*
X152445990Y-80576589D01*
X152283475Y-80333368D01*
X152076632Y-80126525D01*
X151902240Y-80010000D01*
X152076632Y-79893475D01*
X152283475Y-79686632D01*
X152445990Y-79443411D01*
X152557932Y-79173158D01*
X152615000Y-78886260D01*
X152615000Y-78593740D01*
X152557932Y-78306842D01*
X152445990Y-78036589D01*
X152283475Y-77793368D01*
X152076632Y-77586525D01*
X151902240Y-77470000D01*
X152076632Y-77353475D01*
X152283475Y-77146632D01*
X152445990Y-76903411D01*
X152557932Y-76633158D01*
X152615000Y-76346260D01*
X152615000Y-76053740D01*
X152557932Y-75766842D01*
X152445990Y-75496589D01*
X152283475Y-75253368D01*
X152076632Y-75046525D01*
X151902240Y-74930000D01*
X152076632Y-74813475D01*
X152283475Y-74606632D01*
X152445990Y-74363411D01*
X152557932Y-74093158D01*
X152615000Y-73806260D01*
X152615000Y-73513740D01*
X152557932Y-73226842D01*
X152445990Y-72956589D01*
X152283475Y-72713368D01*
X152076632Y-72506525D01*
X151902240Y-72390000D01*
X152076632Y-72273475D01*
X152283475Y-72066632D01*
X152445990Y-71823411D01*
X152462555Y-71783420D01*
X159185001Y-78505867D01*
X159185000Y-80666715D01*
X159102795Y-80789744D01*
X159024774Y-80978102D01*
X158985000Y-81178061D01*
X158985000Y-81381939D01*
X159024774Y-81581898D01*
X159102795Y-81770256D01*
X159216063Y-81939774D01*
X159360226Y-82083937D01*
X159529744Y-82197205D01*
X159718102Y-82275226D01*
X159918061Y-82315000D01*
X160121939Y-82315000D01*
X160321898Y-82275226D01*
X160510256Y-82197205D01*
X160679774Y-82083937D01*
X160823937Y-81939774D01*
X160937205Y-81770256D01*
X161015226Y-81581898D01*
X161055000Y-81381939D01*
X161055000Y-81178061D01*
X161015226Y-80978102D01*
X160937205Y-80789744D01*
X160855000Y-80666715D01*
X160855000Y-78201016D01*
X160859040Y-78159997D01*
X160842918Y-77996309D01*
X160795172Y-77838911D01*
X160717636Y-77693852D01*
X160710371Y-77685000D01*
X160613291Y-77566707D01*
X160581427Y-77540557D01*
X156554610Y-73513740D01*
X162345000Y-73513740D01*
X162345000Y-73806260D01*
X162402068Y-74093158D01*
X162514010Y-74363411D01*
X162676525Y-74606632D01*
X162883368Y-74813475D01*
X163057760Y-74930000D01*
X162883368Y-75046525D01*
X162676525Y-75253368D01*
X162514010Y-75496589D01*
X162402068Y-75766842D01*
X162345000Y-76053740D01*
X162345000Y-76346260D01*
X162402068Y-76633158D01*
X162514010Y-76903411D01*
X162676525Y-77146632D01*
X162883368Y-77353475D01*
X163057760Y-77470000D01*
X162883368Y-77586525D01*
X162676525Y-77793368D01*
X162514010Y-78036589D01*
X162402068Y-78306842D01*
X162345000Y-78593740D01*
X162345000Y-78886260D01*
X162402068Y-79173158D01*
X162514010Y-79443411D01*
X162676525Y-79686632D01*
X162883368Y-79893475D01*
X163057760Y-80010000D01*
X162883368Y-80126525D01*
X162676525Y-80333368D01*
X162514010Y-80576589D01*
X162402068Y-80846842D01*
X162345000Y-81133740D01*
X162345000Y-81426260D01*
X162402068Y-81713158D01*
X162514010Y-81983411D01*
X162676525Y-82226632D01*
X162883368Y-82433475D01*
X163057760Y-82550000D01*
X162883368Y-82666525D01*
X162676525Y-82873368D01*
X162514010Y-83116589D01*
X162402068Y-83386842D01*
X162345000Y-83673740D01*
X162345000Y-83966260D01*
X162402068Y-84253158D01*
X162514010Y-84523411D01*
X162676525Y-84766632D01*
X162883368Y-84973475D01*
X163065534Y-85095195D01*
X162948645Y-85164822D01*
X162732412Y-85359731D01*
X162558359Y-85593080D01*
X162433175Y-85855901D01*
X162388524Y-86003110D01*
X162509845Y-86233000D01*
X163703000Y-86233000D01*
X163703000Y-86213000D01*
X163957000Y-86213000D01*
X163957000Y-86233000D01*
X165150155Y-86233000D01*
X165271476Y-86003110D01*
X165226825Y-85855901D01*
X165101641Y-85593080D01*
X164927588Y-85359731D01*
X164711355Y-85164822D01*
X164594466Y-85095195D01*
X164776632Y-84973475D01*
X164983475Y-84766632D01*
X165145990Y-84523411D01*
X165257932Y-84253158D01*
X165315000Y-83966260D01*
X165315000Y-83673740D01*
X165257932Y-83386842D01*
X165145990Y-83116589D01*
X164983475Y-82873368D01*
X164776632Y-82666525D01*
X164602240Y-82550000D01*
X164776632Y-82433475D01*
X164795107Y-82415000D01*
X173024893Y-82415000D01*
X173043368Y-82433475D01*
X173286589Y-82595990D01*
X173556842Y-82707932D01*
X173843740Y-82765000D01*
X174136260Y-82765000D01*
X174423158Y-82707932D01*
X174693411Y-82595990D01*
X174936632Y-82433475D01*
X175143475Y-82226632D01*
X175305990Y-81983411D01*
X175417932Y-81713158D01*
X175475000Y-81426260D01*
X175475000Y-81133740D01*
X175417932Y-80846842D01*
X175305990Y-80576589D01*
X175143475Y-80333368D01*
X174936632Y-80126525D01*
X174762240Y-80010000D01*
X174936632Y-79893475D01*
X175143475Y-79686632D01*
X175305990Y-79443411D01*
X175417932Y-79173158D01*
X175475000Y-78886260D01*
X175475000Y-78593740D01*
X175417932Y-78306842D01*
X175305990Y-78036589D01*
X175143475Y-77793368D01*
X174936632Y-77586525D01*
X174762240Y-77470000D01*
X174936632Y-77353475D01*
X175143475Y-77146632D01*
X175305990Y-76903411D01*
X175417932Y-76633158D01*
X175475000Y-76346260D01*
X175475000Y-76053740D01*
X175417932Y-75766842D01*
X175305990Y-75496589D01*
X175143475Y-75253368D01*
X175011620Y-75121513D01*
X175084180Y-75099502D01*
X175194494Y-75040537D01*
X175291185Y-74961185D01*
X175370537Y-74864494D01*
X175429502Y-74754180D01*
X175465812Y-74634482D01*
X175478072Y-74510000D01*
X175478072Y-72810000D01*
X175465812Y-72685518D01*
X175429502Y-72565820D01*
X175370537Y-72455506D01*
X175291185Y-72358815D01*
X175194494Y-72279463D01*
X175084180Y-72220498D01*
X174964482Y-72184188D01*
X174840000Y-72171928D01*
X173140000Y-72171928D01*
X173015518Y-72184188D01*
X172895820Y-72220498D01*
X172785506Y-72279463D01*
X172688815Y-72358815D01*
X172609463Y-72455506D01*
X172572317Y-72525000D01*
X164795107Y-72525000D01*
X164776632Y-72506525D01*
X164594466Y-72384805D01*
X164711355Y-72315178D01*
X164927588Y-72120269D01*
X165101641Y-71886920D01*
X165226825Y-71624099D01*
X165271476Y-71476890D01*
X165150155Y-71247000D01*
X163957000Y-71247000D01*
X163957000Y-71267000D01*
X163703000Y-71267000D01*
X163703000Y-71247000D01*
X162509845Y-71247000D01*
X162388524Y-71476890D01*
X162433175Y-71624099D01*
X162558359Y-71886920D01*
X162732412Y-72120269D01*
X162948645Y-72315178D01*
X163065534Y-72384805D01*
X162883368Y-72506525D01*
X162676525Y-72713368D01*
X162514010Y-72956589D01*
X162402068Y-73226842D01*
X162345000Y-73513740D01*
X156554610Y-73513740D01*
X152603377Y-69562508D01*
X152605812Y-69554482D01*
X152618072Y-69430000D01*
X152618072Y-67730000D01*
X162341928Y-67730000D01*
X162341928Y-69430000D01*
X162354188Y-69554482D01*
X162390498Y-69674180D01*
X162449463Y-69784494D01*
X162528815Y-69881185D01*
X162625506Y-69960537D01*
X162735820Y-70019502D01*
X162816466Y-70043966D01*
X162732412Y-70119731D01*
X162558359Y-70353080D01*
X162433175Y-70615901D01*
X162388524Y-70763110D01*
X162509845Y-70993000D01*
X163703000Y-70993000D01*
X163703000Y-70973000D01*
X163957000Y-70973000D01*
X163957000Y-70993000D01*
X165150155Y-70993000D01*
X165271476Y-70763110D01*
X165226825Y-70615901D01*
X165101641Y-70353080D01*
X164927588Y-70119731D01*
X164843534Y-70043966D01*
X164924180Y-70019502D01*
X165034494Y-69960537D01*
X165131185Y-69881185D01*
X165210537Y-69784494D01*
X165269502Y-69674180D01*
X165305812Y-69554482D01*
X165318072Y-69430000D01*
X165318072Y-67730000D01*
X165305812Y-67605518D01*
X165269502Y-67485820D01*
X165210537Y-67375506D01*
X165131185Y-67278815D01*
X165034494Y-67199463D01*
X164924180Y-67140498D01*
X164804482Y-67104188D01*
X164680000Y-67091928D01*
X162980000Y-67091928D01*
X162855518Y-67104188D01*
X162735820Y-67140498D01*
X162625506Y-67199463D01*
X162528815Y-67278815D01*
X162449463Y-67375506D01*
X162390498Y-67485820D01*
X162354188Y-67605518D01*
X162341928Y-67730000D01*
X152618072Y-67730000D01*
X152605812Y-67605518D01*
X152569502Y-67485820D01*
X152510537Y-67375506D01*
X152431185Y-67278815D01*
X152334494Y-67199463D01*
X152224180Y-67140498D01*
X152104482Y-67104188D01*
X151980000Y-67091928D01*
X150280000Y-67091928D01*
X150155518Y-67104188D01*
X150035820Y-67140498D01*
X149925506Y-67199463D01*
X149828815Y-67278815D01*
X149749463Y-67375506D01*
X149690498Y-67485820D01*
X149654188Y-67605518D01*
X149641928Y-67730000D01*
X149641928Y-69430000D01*
X149654188Y-69554482D01*
X149656622Y-69562507D01*
X141314131Y-77905000D01*
X138587169Y-77905000D01*
X138587932Y-77903158D01*
X138645000Y-77616260D01*
X138645000Y-77323740D01*
X138587932Y-77036842D01*
X138475990Y-76766589D01*
X138313475Y-76523368D01*
X138106632Y-76316525D01*
X137932240Y-76200000D01*
X138106632Y-76083475D01*
X138313475Y-75876632D01*
X138475990Y-75633411D01*
X138587932Y-75363158D01*
X138645000Y-75076260D01*
X138645000Y-74783740D01*
X138587932Y-74496842D01*
X138475990Y-74226589D01*
X138313475Y-73983368D01*
X138106632Y-73776525D01*
X137932240Y-73660000D01*
X138106632Y-73543475D01*
X138313475Y-73336632D01*
X138475990Y-73093411D01*
X138587932Y-72823158D01*
X138645000Y-72536260D01*
X138645000Y-72243740D01*
X138587932Y-71956842D01*
X138475990Y-71686589D01*
X138313475Y-71443368D01*
X138106632Y-71236525D01*
X137924466Y-71114805D01*
X138041355Y-71045178D01*
X138257588Y-70850269D01*
X138431641Y-70616920D01*
X138556825Y-70354099D01*
X138601476Y-70206890D01*
X138480155Y-69977000D01*
X137287000Y-69977000D01*
X137287000Y-69997000D01*
X137033000Y-69997000D01*
X137033000Y-69977000D01*
X135839845Y-69977000D01*
X135718524Y-70206890D01*
X135763175Y-70354099D01*
X135888359Y-70616920D01*
X136062412Y-70850269D01*
X136278645Y-71045178D01*
X136395534Y-71114805D01*
X136213368Y-71236525D01*
X136006525Y-71443368D01*
X135844010Y-71686589D01*
X135732068Y-71956842D01*
X135675000Y-72243740D01*
X135675000Y-72536260D01*
X135732068Y-72823158D01*
X135844010Y-73093411D01*
X136006525Y-73336632D01*
X136213368Y-73543475D01*
X136387760Y-73660000D01*
X136213368Y-73776525D01*
X136006525Y-73983368D01*
X135844010Y-74226589D01*
X135732068Y-74496842D01*
X135675000Y-74783740D01*
X135675000Y-75076260D01*
X135732068Y-75363158D01*
X135844010Y-75633411D01*
X136006525Y-75876632D01*
X136213368Y-76083475D01*
X136387760Y-76200000D01*
X136213368Y-76316525D01*
X136006525Y-76523368D01*
X135844010Y-76766589D01*
X135732068Y-77036842D01*
X135675000Y-77323740D01*
X135675000Y-77616260D01*
X135732068Y-77903158D01*
X135732831Y-77905000D01*
X117453285Y-77905000D01*
X117330256Y-77822795D01*
X117141898Y-77744774D01*
X116941939Y-77705000D01*
X116738061Y-77705000D01*
X116538102Y-77744774D01*
X116349744Y-77822795D01*
X116180226Y-77936063D01*
X116036063Y-78080226D01*
X115922795Y-78249744D01*
X115844774Y-78438102D01*
X115805000Y-78638061D01*
X115805000Y-78841939D01*
X115844774Y-79041898D01*
X115922795Y-79230256D01*
X116036063Y-79399774D01*
X116180226Y-79543937D01*
X116349744Y-79657205D01*
X116538102Y-79735226D01*
X116738061Y-79775000D01*
X116941939Y-79775000D01*
X117141898Y-79735226D01*
X117330256Y-79657205D01*
X117453285Y-79575000D01*
X135742216Y-79575000D01*
X135718524Y-79653110D01*
X135839845Y-79883000D01*
X137033000Y-79883000D01*
X137033000Y-79863000D01*
X137287000Y-79863000D01*
X137287000Y-79883000D01*
X138480155Y-79883000D01*
X138601476Y-79653110D01*
X138577784Y-79575000D01*
X141618980Y-79575000D01*
X141659998Y-79579040D01*
X141701016Y-79575000D01*
X141701017Y-79575000D01*
X141823687Y-79562918D01*
X141981085Y-79515172D01*
X142126144Y-79437636D01*
X142253289Y-79333291D01*
X142279444Y-79301421D01*
X143945001Y-77635864D01*
X143945000Y-79664132D01*
X138645000Y-84964133D01*
X138645000Y-84943740D01*
X138587932Y-84656842D01*
X138475990Y-84386589D01*
X138313475Y-84143368D01*
X138106632Y-83936525D01*
X137932240Y-83820000D01*
X138106632Y-83703475D01*
X138313475Y-83496632D01*
X138475990Y-83253411D01*
X138587932Y-82983158D01*
X138645000Y-82696260D01*
X138645000Y-82403740D01*
X138587932Y-82116842D01*
X138475990Y-81846589D01*
X138313475Y-81603368D01*
X138106632Y-81396525D01*
X137924466Y-81274805D01*
X138041355Y-81205178D01*
X138257588Y-81010269D01*
X138431641Y-80776920D01*
X138556825Y-80514099D01*
X138601476Y-80366890D01*
X138480155Y-80137000D01*
X137287000Y-80137000D01*
X137287000Y-80157000D01*
X137033000Y-80157000D01*
X137033000Y-80137000D01*
X135839845Y-80137000D01*
X135718524Y-80366890D01*
X135763175Y-80514099D01*
X135888359Y-80776920D01*
X136062412Y-81010269D01*
X136278645Y-81205178D01*
X136395534Y-81274805D01*
X136213368Y-81396525D01*
X136006525Y-81603368D01*
X135844010Y-81846589D01*
X135732068Y-82116842D01*
X135675000Y-82403740D01*
X135675000Y-82696260D01*
X135732068Y-82983158D01*
X135844010Y-83253411D01*
X136006525Y-83496632D01*
X136213368Y-83703475D01*
X136387760Y-83820000D01*
X136213368Y-83936525D01*
X136006525Y-84143368D01*
X135844010Y-84386589D01*
X135732068Y-84656842D01*
X135675000Y-84943740D01*
X135675000Y-85236260D01*
X135732068Y-85523158D01*
X135844010Y-85793411D01*
X136006525Y-86036632D01*
X136213368Y-86243475D01*
X136387760Y-86360000D01*
X136213368Y-86476525D01*
X136006525Y-86683368D01*
X135844010Y-86926589D01*
X135732068Y-87196842D01*
X135675000Y-87483740D01*
X135675000Y-87776260D01*
X135732068Y-88063158D01*
X135844010Y-88333411D01*
X136006525Y-88576632D01*
X136213368Y-88783475D01*
X136387760Y-88900000D01*
X136213368Y-89016525D01*
X136006525Y-89223368D01*
X135844010Y-89466589D01*
X135732068Y-89736842D01*
X135675000Y-90023740D01*
X135675000Y-90316260D01*
X135732068Y-90603158D01*
X135844010Y-90873411D01*
X136006525Y-91116632D01*
X136213368Y-91323475D01*
X136387760Y-91440000D01*
X136213368Y-91556525D01*
X136006525Y-91763368D01*
X135844010Y-92006589D01*
X135732068Y-92276842D01*
X135675000Y-92563740D01*
X135675000Y-92856260D01*
X135732068Y-93143158D01*
X135844010Y-93413411D01*
X136006525Y-93656632D01*
X136213368Y-93863475D01*
X136387760Y-93980000D01*
X136213368Y-94096525D01*
X136006525Y-94303368D01*
X135844010Y-94546589D01*
X135732068Y-94816842D01*
X135675000Y-95103740D01*
X135675000Y-95396260D01*
X135728456Y-95665001D01*
X126055870Y-95665001D01*
X113218807Y-82827940D01*
X113245000Y-82696260D01*
X113245000Y-82403740D01*
X113187932Y-82116842D01*
X113075990Y-81846589D01*
X112913475Y-81603368D01*
X112706632Y-81396525D01*
X112532240Y-81280000D01*
X112706632Y-81163475D01*
X112913475Y-80956632D01*
X113075990Y-80713411D01*
X113187932Y-80443158D01*
X113245000Y-80156260D01*
X113245000Y-79863740D01*
X113187932Y-79576842D01*
X113075990Y-79306589D01*
X112913475Y-79063368D01*
X112706632Y-78856525D01*
X112532240Y-78740000D01*
X112706632Y-78623475D01*
X112913475Y-78416632D01*
X113075990Y-78173411D01*
X113187932Y-77903158D01*
X113245000Y-77616260D01*
X113245000Y-77323740D01*
X113187932Y-77036842D01*
X113075990Y-76766589D01*
X112913475Y-76523368D01*
X112706632Y-76316525D01*
X112532240Y-76200000D01*
X112706632Y-76083475D01*
X112913475Y-75876632D01*
X113075990Y-75633411D01*
X113187932Y-75363158D01*
X113245000Y-75076260D01*
X113245000Y-74783740D01*
X113187932Y-74496842D01*
X113075990Y-74226589D01*
X112913475Y-73983368D01*
X112706632Y-73776525D01*
X112532240Y-73660000D01*
X112706632Y-73543475D01*
X112913475Y-73336632D01*
X113075990Y-73093411D01*
X113187932Y-72823158D01*
X113245000Y-72536260D01*
X113245000Y-72243740D01*
X113187932Y-71956842D01*
X113075990Y-71686589D01*
X112913475Y-71443368D01*
X112706632Y-71236525D01*
X112532240Y-71120000D01*
X112706632Y-71003475D01*
X112913475Y-70796632D01*
X113075990Y-70553411D01*
X113187932Y-70283158D01*
X113245000Y-69996260D01*
X113245000Y-69703740D01*
X113187932Y-69416842D01*
X113075990Y-69146589D01*
X112913475Y-68903368D01*
X112706632Y-68696525D01*
X112532240Y-68580000D01*
X112706632Y-68463475D01*
X112913475Y-68256632D01*
X113075990Y-68013411D01*
X113187932Y-67743158D01*
X113245000Y-67456260D01*
X113245000Y-67163740D01*
X113187932Y-66876842D01*
X113075990Y-66606589D01*
X112913475Y-66363368D01*
X112706632Y-66156525D01*
X112463411Y-65994010D01*
X112248521Y-65905000D01*
X134149869Y-65905000D01*
X135675000Y-67430132D01*
X135675000Y-67456260D01*
X135732068Y-67743158D01*
X135844010Y-68013411D01*
X136006525Y-68256632D01*
X136213368Y-68463475D01*
X136395534Y-68585195D01*
X136278645Y-68654822D01*
X136062412Y-68849731D01*
X135888359Y-69083080D01*
X135763175Y-69345901D01*
X135718524Y-69493110D01*
X135839845Y-69723000D01*
X137033000Y-69723000D01*
X137033000Y-69703000D01*
X137287000Y-69703000D01*
X137287000Y-69723000D01*
X138480155Y-69723000D01*
X138601476Y-69493110D01*
X138556825Y-69345901D01*
X138431641Y-69083080D01*
X138257588Y-68849731D01*
X138041355Y-68654822D01*
X137924466Y-68585195D01*
X138106632Y-68463475D01*
X138313475Y-68256632D01*
X138475990Y-68013411D01*
X138587932Y-67743158D01*
X138645000Y-67456260D01*
X138645000Y-67163740D01*
X138630307Y-67089872D01*
X171755000Y-67089872D01*
X171755000Y-67530128D01*
X171840890Y-67961925D01*
X172009369Y-68368669D01*
X172253962Y-68734729D01*
X172565271Y-69046038D01*
X172931331Y-69290631D01*
X173338075Y-69459110D01*
X173769872Y-69545000D01*
X174210128Y-69545000D01*
X174641925Y-69459110D01*
X175048669Y-69290631D01*
X175414729Y-69046038D01*
X175726038Y-68734729D01*
X175970631Y-68368669D01*
X176139110Y-67961925D01*
X176225000Y-67530128D01*
X176225000Y-67089872D01*
X176139110Y-66658075D01*
X175970631Y-66251331D01*
X175726038Y-65885271D01*
X175414729Y-65573962D01*
X175048669Y-65329369D01*
X174641925Y-65160890D01*
X174210128Y-65075000D01*
X173769872Y-65075000D01*
X173338075Y-65160890D01*
X172931331Y-65329369D01*
X172565271Y-65573962D01*
X172253962Y-65885271D01*
X172009369Y-66251331D01*
X171840890Y-66658075D01*
X171755000Y-67089872D01*
X138630307Y-67089872D01*
X138587932Y-66876842D01*
X138475990Y-66606589D01*
X138313475Y-66363368D01*
X138106632Y-66156525D01*
X137863411Y-65994010D01*
X137593158Y-65882068D01*
X137306260Y-65825000D01*
X137280132Y-65825000D01*
X135615131Y-64160000D01*
X177140000Y-64160000D01*
X177140001Y-139040000D01*
G36*
X107186860Y-66468009D02*
G01*
X107143552Y-66503551D01*
X107001717Y-66676377D01*
X106945384Y-66781770D01*
X106896324Y-66873554D01*
X106831423Y-67087502D01*
X106809509Y-67310000D01*
X106815001Y-67365761D01*
X106815000Y-75315716D01*
X106678320Y-75520273D01*
X106570147Y-75781426D01*
X106522151Y-76022717D01*
X103669869Y-78875000D01*
X97845743Y-78875000D01*
X97789999Y-78869510D01*
X97734255Y-78875000D01*
X97734248Y-78875000D01*
X97588493Y-78889356D01*
X97567500Y-78891423D01*
X97527069Y-78903688D01*
X97353553Y-78956324D01*
X97156377Y-79061716D01*
X96983551Y-79203551D01*
X96948011Y-79246857D01*
X95756860Y-80438009D01*
X95713552Y-80473551D01*
X95571717Y-80646377D01*
X95550159Y-80686710D01*
X95466324Y-80843554D01*
X95401423Y-81057502D01*
X95379509Y-81280000D01*
X95385001Y-81335761D01*
X95385000Y-88809866D01*
X94676860Y-89518007D01*
X94676855Y-89518011D01*
X93889867Y-90305000D01*
X92588072Y-90305000D01*
X92588072Y-89727059D01*
X94743146Y-87571987D01*
X94786449Y-87536449D01*
X94829707Y-87483740D01*
X94928284Y-87363623D01*
X95033676Y-87166447D01*
X95098577Y-86952499D01*
X95120491Y-86730000D01*
X95115000Y-86674248D01*
X95115000Y-84185750D01*
X95120491Y-84129998D01*
X95098577Y-83907499D01*
X95033676Y-83693551D01*
X94928284Y-83496375D01*
X94838392Y-83386842D01*
X94786449Y-83323549D01*
X94743141Y-83288007D01*
X91971998Y-80516865D01*
X91936451Y-80473551D01*
X91763625Y-80331716D01*
X91566449Y-80226324D01*
X91352501Y-80161423D01*
X91185754Y-80145000D01*
X91185753Y-80145000D01*
X91130002Y-80139509D01*
X91074251Y-80145000D01*
X85145751Y-80145000D01*
X85090000Y-80139509D01*
X85034248Y-80145000D01*
X84867501Y-80161423D01*
X84653553Y-80226324D01*
X84456377Y-80331716D01*
X84283551Y-80473551D01*
X84248011Y-80516857D01*
X79246860Y-85518009D01*
X79203552Y-85553551D01*
X79061717Y-85726377D01*
X79032138Y-85781716D01*
X78956324Y-85923554D01*
X78891423Y-86137502D01*
X78869509Y-86360000D01*
X78875001Y-86415761D01*
X78875000Y-88435375D01*
X78785518Y-88444188D01*
X78665820Y-88480498D01*
X78555506Y-88539463D01*
X78458815Y-88618815D01*
X78379463Y-88715506D01*
X78320498Y-88825820D01*
X78284188Y-88945518D01*
X78271928Y-89070000D01*
X78271928Y-91270000D01*
X78284188Y-91394482D01*
X78320498Y-91514180D01*
X78379463Y-91624494D01*
X78458815Y-91721185D01*
X78555506Y-91800537D01*
X78665820Y-91859502D01*
X78785518Y-91895812D01*
X78910000Y-91908072D01*
X81110000Y-91908072D01*
X81234482Y-91895812D01*
X81354180Y-91859502D01*
X81415000Y-91826992D01*
X81415001Y-103669867D01*
X79832718Y-105252150D01*
X79591426Y-105300147D01*
X79330273Y-105408320D01*
X79095241Y-105565363D01*
X78895363Y-105765241D01*
X78738320Y-106000273D01*
X78630147Y-106261426D01*
X78575000Y-106538665D01*
X78575000Y-106821335D01*
X78630147Y-107098574D01*
X78738320Y-107359727D01*
X78895363Y-107594759D01*
X79095241Y-107794637D01*
X79330273Y-107951680D01*
X79591426Y-108059853D01*
X79868665Y-108115000D01*
X80151335Y-108115000D01*
X80428574Y-108059853D01*
X80689727Y-107951680D01*
X80924759Y-107794637D01*
X81124637Y-107594759D01*
X81281680Y-107359727D01*
X81389853Y-107098574D01*
X81437850Y-106857282D01*
X83313141Y-104981991D01*
X83356449Y-104946449D01*
X83498284Y-104773623D01*
X83603676Y-104576447D01*
X83668577Y-104362499D01*
X83685000Y-104195752D01*
X83685000Y-104195743D01*
X83690490Y-104140001D01*
X83685000Y-104084259D01*
X83685000Y-100052702D01*
X85586903Y-100052702D01*
X85658486Y-100296671D01*
X85913996Y-100417571D01*
X86188184Y-100486300D01*
X86470512Y-100500217D01*
X86750130Y-100458787D01*
X87016292Y-100363603D01*
X87141514Y-100296671D01*
X87213097Y-100052702D01*
X86400000Y-99239605D01*
X85586903Y-100052702D01*
X83685000Y-100052702D01*
X83685000Y-99130512D01*
X84959783Y-99130512D01*
X85001213Y-99410130D01*
X85096397Y-99676292D01*
X85163329Y-99801514D01*
X85407298Y-99873097D01*
X86220395Y-99060000D01*
X85407298Y-98246903D01*
X85163329Y-98318486D01*
X85042429Y-98573996D01*
X84973700Y-98848184D01*
X84959783Y-99130512D01*
X83685000Y-99130512D01*
X83685000Y-98067298D01*
X85586903Y-98067298D01*
X86400000Y-98880395D01*
X87213097Y-98067298D01*
X87141514Y-97823329D01*
X86886004Y-97702429D01*
X86611816Y-97633700D01*
X86329488Y-97619783D01*
X86049870Y-97661213D01*
X85783708Y-97756397D01*
X85658486Y-97823329D01*
X85586903Y-98067298D01*
X83685000Y-98067298D01*
X83685000Y-90510000D01*
X85211928Y-90510000D01*
X85224188Y-90634482D01*
X85260498Y-90754180D01*
X85319463Y-90864494D01*
X85398815Y-90961185D01*
X85495506Y-91040537D01*
X85605820Y-91099502D01*
X85725518Y-91135812D01*
X85850000Y-91148072D01*
X86314250Y-91145000D01*
X86473000Y-90986250D01*
X86473000Y-89637000D01*
X85373750Y-89637000D01*
X85215000Y-89795750D01*
X85211928Y-90510000D01*
X83685000Y-90510000D01*
X83685000Y-89370131D01*
X84545131Y-88510000D01*
X85211928Y-88510000D01*
X85215000Y-89224250D01*
X85373750Y-89383000D01*
X86473000Y-89383000D01*
X86473000Y-88033750D01*
X86314250Y-87875000D01*
X85850000Y-87871928D01*
X85725518Y-87884188D01*
X85605820Y-87920498D01*
X85495506Y-87979463D01*
X85398815Y-88058815D01*
X85319463Y-88155506D01*
X85260498Y-88265820D01*
X85224188Y-88385518D01*
X85211928Y-88510000D01*
X84545131Y-88510000D01*
X85560132Y-87495000D01*
X88289871Y-87495000D01*
X88666799Y-87871928D01*
X88150000Y-87871928D01*
X88025518Y-87884188D01*
X87905820Y-87920498D01*
X87795506Y-87979463D01*
X87750000Y-88016809D01*
X87704494Y-87979463D01*
X87594180Y-87920498D01*
X87474482Y-87884188D01*
X87350000Y-87871928D01*
X86885750Y-87875000D01*
X86727000Y-88033750D01*
X86727000Y-89383000D01*
X86747000Y-89383000D01*
X86747000Y-89637000D01*
X86727000Y-89637000D01*
X86727000Y-90986250D01*
X86885750Y-91145000D01*
X87350000Y-91148072D01*
X87474482Y-91135812D01*
X87594180Y-91099502D01*
X87704494Y-91040537D01*
X87750000Y-91003191D01*
X87765000Y-91015502D01*
X87765000Y-91384248D01*
X87759509Y-91440000D01*
X87765001Y-91495761D01*
X87765000Y-94035751D01*
X87765001Y-94035761D01*
X87765000Y-97719043D01*
X87745506Y-97729463D01*
X87648815Y-97808815D01*
X87569463Y-97905506D01*
X87510498Y-98015820D01*
X87474188Y-98135518D01*
X87461928Y-98260000D01*
X87461928Y-98267215D01*
X87392702Y-98246903D01*
X86579605Y-99060000D01*
X87392702Y-99873097D01*
X87461928Y-99852785D01*
X87461928Y-99860000D01*
X87474188Y-99984482D01*
X87510498Y-100104180D01*
X87569463Y-100214494D01*
X87648815Y-100311185D01*
X87745506Y-100390537D01*
X87765001Y-100400957D01*
X87765000Y-103669868D01*
X86182718Y-105252150D01*
X85941426Y-105300147D01*
X85680273Y-105408320D01*
X85445241Y-105565363D01*
X85245363Y-105765241D01*
X85088320Y-106000273D01*
X84980147Y-106261426D01*
X84932150Y-106502718D01*
X83056860Y-108378009D01*
X83013552Y-108413551D01*
X82871717Y-108586377D01*
X82838974Y-108647636D01*
X82766324Y-108783554D01*
X82701423Y-108997502D01*
X82679509Y-109220000D01*
X82685001Y-109275761D01*
X82685000Y-111289868D01*
X77976860Y-115998009D01*
X77933552Y-116033551D01*
X77791717Y-116206377D01*
X77784135Y-116220562D01*
X77686324Y-116403554D01*
X77621423Y-116617502D01*
X77599509Y-116840000D01*
X77605001Y-116895761D01*
X77605000Y-123134248D01*
X77599509Y-123190000D01*
X77605000Y-123245751D01*
X77621423Y-123412498D01*
X77686324Y-123626446D01*
X77791716Y-123823623D01*
X77933551Y-123996449D01*
X77976865Y-124031996D01*
X92984868Y-139040000D01*
X76860000Y-139040000D01*
X76860000Y-135669872D01*
X77775000Y-135669872D01*
X77775000Y-136110128D01*
X77860890Y-136541925D01*
X78029369Y-136948669D01*
X78273962Y-137314729D01*
X78585271Y-137626038D01*
X78951331Y-137870631D01*
X79358075Y-138039110D01*
X79789872Y-138125000D01*
X80230128Y-138125000D01*
X80661925Y-138039110D01*
X81068669Y-137870631D01*
X81434729Y-137626038D01*
X81746038Y-137314729D01*
X81990631Y-136948669D01*
X82159110Y-136541925D01*
X82245000Y-136110128D01*
X82245000Y-135669872D01*
X82159110Y-135238075D01*
X81990631Y-134831331D01*
X81746038Y-134465271D01*
X81434729Y-134153962D01*
X81068669Y-133909369D01*
X80661925Y-133740890D01*
X80230128Y-133655000D01*
X79789872Y-133655000D01*
X79358075Y-133740890D01*
X78951331Y-133909369D01*
X78585271Y-134153962D01*
X78273962Y-134465271D01*
X78029369Y-134831331D01*
X77860890Y-135238075D01*
X77775000Y-135669872D01*
X76860000Y-135669872D01*
X76860000Y-112672702D01*
X79196903Y-112672702D01*
X79268486Y-112916671D01*
X79523996Y-113037571D01*
X79798184Y-113106300D01*
X80080512Y-113120217D01*
X80360130Y-113078787D01*
X80626292Y-112983603D01*
X80751514Y-112916671D01*
X80823097Y-112672702D01*
X80010000Y-111859605D01*
X79196903Y-112672702D01*
X76860000Y-112672702D01*
X76860000Y-111750512D01*
X78569783Y-111750512D01*
X78611213Y-112030130D01*
X78706397Y-112296292D01*
X78773329Y-112421514D01*
X79017298Y-112493097D01*
X79830395Y-111680000D01*
X80189605Y-111680000D01*
X81002702Y-112493097D01*
X81246671Y-112421514D01*
X81367571Y-112166004D01*
X81436300Y-111891816D01*
X81450217Y-111609488D01*
X81408787Y-111329870D01*
X81313603Y-111063708D01*
X81246671Y-110938486D01*
X81002702Y-110866903D01*
X80189605Y-111680000D01*
X79830395Y-111680000D01*
X79017298Y-110866903D01*
X78773329Y-110938486D01*
X78652429Y-111193996D01*
X78583700Y-111468184D01*
X78569783Y-111750512D01*
X76860000Y-111750512D01*
X76860000Y-110687298D01*
X79196903Y-110687298D01*
X80010000Y-111500395D01*
X80823097Y-110687298D01*
X80751514Y-110443329D01*
X80496004Y-110322429D01*
X80221816Y-110253700D01*
X79939488Y-110239783D01*
X79659870Y-110281213D01*
X79393708Y-110376397D01*
X79268486Y-110443329D01*
X79196903Y-110687298D01*
X76860000Y-110687298D01*
X76860000Y-79839117D01*
X78275000Y-79839117D01*
X78275000Y-80180883D01*
X78341675Y-80516081D01*
X78472463Y-80831831D01*
X78662337Y-81115998D01*
X78904002Y-81357663D01*
X79188169Y-81547537D01*
X79503919Y-81678325D01*
X79839117Y-81745000D01*
X80180883Y-81745000D01*
X80516081Y-81678325D01*
X80831831Y-81547537D01*
X81115998Y-81357663D01*
X81357663Y-81115998D01*
X81547537Y-80831831D01*
X81678325Y-80516081D01*
X81745000Y-80180883D01*
X81745000Y-79839117D01*
X81678325Y-79503919D01*
X81547537Y-79188169D01*
X81357663Y-78904002D01*
X81115998Y-78662337D01*
X80831831Y-78472463D01*
X80516081Y-78341675D01*
X80180883Y-78275000D01*
X79839117Y-78275000D01*
X79503919Y-78341675D01*
X79188169Y-78472463D01*
X78904002Y-78662337D01*
X78662337Y-78904002D01*
X78472463Y-79188169D01*
X78341675Y-79503919D01*
X78275000Y-79839117D01*
X76860000Y-79839117D01*
X76860000Y-73595000D01*
X83081928Y-73595000D01*
X83081928Y-75345000D01*
X83111001Y-75640186D01*
X83197104Y-75924028D01*
X83336927Y-76185618D01*
X83525097Y-76414903D01*
X83754382Y-76603073D01*
X84015972Y-76742896D01*
X84299814Y-76828999D01*
X84595000Y-76858072D01*
X86345000Y-76858072D01*
X86640186Y-76828999D01*
X86924028Y-76742896D01*
X87185618Y-76603073D01*
X87414903Y-76414903D01*
X87603073Y-76185618D01*
X87742896Y-75924028D01*
X87781928Y-75795357D01*
X87781928Y-79220000D01*
X87794188Y-79344482D01*
X87830498Y-79464180D01*
X87889463Y-79574494D01*
X87968815Y-79671185D01*
X88065506Y-79750537D01*
X88175820Y-79809502D01*
X88295518Y-79845812D01*
X88420000Y-79858072D01*
X91920000Y-79858072D01*
X92044482Y-79845812D01*
X92164180Y-79809502D01*
X92274494Y-79750537D01*
X92371185Y-79671185D01*
X92450537Y-79574494D01*
X92509502Y-79464180D01*
X92545812Y-79344482D01*
X92558072Y-79220000D01*
X92558072Y-76058665D01*
X96355000Y-76058665D01*
X96355000Y-76341335D01*
X96410147Y-76618574D01*
X96518320Y-76879727D01*
X96675363Y-77114759D01*
X96875241Y-77314637D01*
X97110273Y-77471680D01*
X97371426Y-77579853D01*
X97648665Y-77635000D01*
X97931335Y-77635000D01*
X98208574Y-77579853D01*
X98469727Y-77471680D01*
X98704759Y-77314637D01*
X98904637Y-77114759D01*
X99061680Y-76879727D01*
X99169853Y-76618574D01*
X99225000Y-76341335D01*
X99225000Y-76058665D01*
X99169853Y-75781426D01*
X99061680Y-75520273D01*
X98904637Y-75285241D01*
X98704759Y-75085363D01*
X98625000Y-75032070D01*
X98625000Y-72735867D01*
X101279540Y-70081329D01*
X101448816Y-70115000D01*
X101751184Y-70115000D01*
X102047743Y-70056011D01*
X102327095Y-69940299D01*
X102578505Y-69772312D01*
X102792312Y-69558505D01*
X102960299Y-69307095D01*
X103076011Y-69027743D01*
X103135000Y-68731184D01*
X103135000Y-68428816D01*
X103076011Y-68132257D01*
X102960299Y-67852905D01*
X102792312Y-67601495D01*
X102725873Y-67535056D01*
X102744180Y-67529502D01*
X102854494Y-67470537D01*
X102951185Y-67391185D01*
X103030537Y-67294494D01*
X103089502Y-67184180D01*
X103125812Y-67064482D01*
X103138072Y-66940000D01*
X103135000Y-66325750D01*
X102976250Y-66167000D01*
X101727000Y-66167000D01*
X101727000Y-66187000D01*
X101473000Y-66187000D01*
X101473000Y-66167000D01*
X100223750Y-66167000D01*
X100065000Y-66325750D01*
X100061928Y-66940000D01*
X100074188Y-67064482D01*
X100110498Y-67184180D01*
X100169463Y-67294494D01*
X100248815Y-67391185D01*
X100345506Y-67470537D01*
X100455820Y-67529502D01*
X100474127Y-67535056D01*
X100407688Y-67601495D01*
X100239701Y-67852905D01*
X100123989Y-68132257D01*
X100065000Y-68428816D01*
X100065000Y-68731184D01*
X100098671Y-68900460D01*
X97228574Y-71770559D01*
X97196710Y-71796709D01*
X97170562Y-71828571D01*
X97092364Y-71923855D01*
X97014828Y-72068914D01*
X96967082Y-72226312D01*
X96950960Y-72390000D01*
X96955001Y-72431028D01*
X96955000Y-75032070D01*
X96875241Y-75085363D01*
X96675363Y-75285241D01*
X96518320Y-75520273D01*
X96410147Y-75781426D01*
X96355000Y-76058665D01*
X92558072Y-76058665D01*
X92558072Y-75720000D01*
X92545812Y-75595518D01*
X92509502Y-75475820D01*
X92450537Y-75365506D01*
X92371185Y-75268815D01*
X92274494Y-75189463D01*
X92164180Y-75130498D01*
X92044482Y-75094188D01*
X91920000Y-75081928D01*
X88420000Y-75081928D01*
X88295518Y-75094188D01*
X88175820Y-75130498D01*
X88065506Y-75189463D01*
X87968815Y-75268815D01*
X87889463Y-75365506D01*
X87848506Y-75442131D01*
X87858072Y-75345000D01*
X87858072Y-73595000D01*
X87828999Y-73299814D01*
X87742896Y-73015972D01*
X87718324Y-72970000D01*
X87781928Y-72970000D01*
X87794188Y-73094482D01*
X87830498Y-73214180D01*
X87889463Y-73324494D01*
X87968815Y-73421185D01*
X88065506Y-73500537D01*
X88175820Y-73559502D01*
X88295518Y-73595812D01*
X88420000Y-73608072D01*
X89884250Y-73605000D01*
X90043000Y-73446250D01*
X90043000Y-71597000D01*
X90297000Y-71597000D01*
X90297000Y-73446250D01*
X90455750Y-73605000D01*
X91920000Y-73608072D01*
X92044482Y-73595812D01*
X92164180Y-73559502D01*
X92274494Y-73500537D01*
X92371185Y-73421185D01*
X92450537Y-73324494D01*
X92509502Y-73214180D01*
X92545812Y-73094482D01*
X92558072Y-72970000D01*
X92555000Y-71755750D01*
X92396250Y-71597000D01*
X90297000Y-71597000D01*
X90043000Y-71597000D01*
X87943750Y-71597000D01*
X87785000Y-71755750D01*
X87781928Y-72970000D01*
X87718324Y-72970000D01*
X87603073Y-72754382D01*
X87414903Y-72525097D01*
X87185618Y-72336927D01*
X86924028Y-72197104D01*
X86640186Y-72111001D01*
X86345000Y-72081928D01*
X84595000Y-72081928D01*
X84299814Y-72111001D01*
X84015972Y-72197104D01*
X83754382Y-72336927D01*
X83525097Y-72525097D01*
X83336927Y-72754382D01*
X83197104Y-73015972D01*
X83111001Y-73299814D01*
X83081928Y-73595000D01*
X76860000Y-73595000D01*
X76860000Y-69970000D01*
X87781928Y-69970000D01*
X87785000Y-71184250D01*
X87943750Y-71343000D01*
X90043000Y-71343000D01*
X90043000Y-69493750D01*
X90297000Y-69493750D01*
X90297000Y-71343000D01*
X92396250Y-71343000D01*
X92555000Y-71184250D01*
X92558072Y-69970000D01*
X92545812Y-69845518D01*
X92509502Y-69725820D01*
X92450537Y-69615506D01*
X92371185Y-69518815D01*
X92274494Y-69439463D01*
X92164180Y-69380498D01*
X92044482Y-69344188D01*
X91920000Y-69331928D01*
X90455750Y-69335000D01*
X90297000Y-69493750D01*
X90043000Y-69493750D01*
X89884250Y-69335000D01*
X88420000Y-69331928D01*
X88295518Y-69344188D01*
X88175820Y-69380498D01*
X88065506Y-69439463D01*
X87968815Y-69518815D01*
X87889463Y-69615506D01*
X87830498Y-69725820D01*
X87794188Y-69845518D01*
X87781928Y-69970000D01*
X76860000Y-69970000D01*
X76860000Y-67089872D01*
X77775000Y-67089872D01*
X77775000Y-67530128D01*
X77860890Y-67961925D01*
X78029369Y-68368669D01*
X78273962Y-68734729D01*
X78585271Y-69046038D01*
X78951331Y-69290631D01*
X79358075Y-69459110D01*
X79789872Y-69545000D01*
X80230128Y-69545000D01*
X80661925Y-69459110D01*
X81068669Y-69290631D01*
X81434729Y-69046038D01*
X81746038Y-68734729D01*
X81990631Y-68368669D01*
X82159110Y-67961925D01*
X82245000Y-67530128D01*
X82245000Y-67089872D01*
X82159110Y-66658075D01*
X81990631Y-66251331D01*
X81746038Y-65885271D01*
X81434729Y-65573962D01*
X81068669Y-65329369D01*
X80661925Y-65160890D01*
X80556905Y-65140000D01*
X100061928Y-65140000D01*
X100065000Y-65754250D01*
X100223750Y-65913000D01*
X101473000Y-65913000D01*
X101473000Y-64663750D01*
X101727000Y-64663750D01*
X101727000Y-65913000D01*
X102976250Y-65913000D01*
X103135000Y-65754250D01*
X103138072Y-65140000D01*
X103125812Y-65015518D01*
X103089502Y-64895820D01*
X103030537Y-64785506D01*
X102951185Y-64688815D01*
X102854494Y-64609463D01*
X102744180Y-64550498D01*
X102624482Y-64514188D01*
X102500000Y-64501928D01*
X101885750Y-64505000D01*
X101727000Y-64663750D01*
X101473000Y-64663750D01*
X101314250Y-64505000D01*
X100700000Y-64501928D01*
X100575518Y-64514188D01*
X100455820Y-64550498D01*
X100345506Y-64609463D01*
X100248815Y-64688815D01*
X100169463Y-64785506D01*
X100110498Y-64895820D01*
X100074188Y-65015518D01*
X100061928Y-65140000D01*
X80556905Y-65140000D01*
X80230128Y-65075000D01*
X79789872Y-65075000D01*
X79358075Y-65160890D01*
X78951331Y-65329369D01*
X78585271Y-65573962D01*
X78273962Y-65885271D01*
X78029369Y-66251331D01*
X77860890Y-66658075D01*
X77775000Y-67089872D01*
X76860000Y-67089872D01*
X76860000Y-64160000D01*
X109494868Y-64160000D01*
X107186860Y-66468009D01*
G37*
X107186860Y-66468009D02*
X107143552Y-66503551D01*
X107001717Y-66676377D01*
X106945384Y-66781770D01*
X106896324Y-66873554D01*
X106831423Y-67087502D01*
X106809509Y-67310000D01*
X106815001Y-67365761D01*
X106815000Y-75315716D01*
X106678320Y-75520273D01*
X106570147Y-75781426D01*
X106522151Y-76022717D01*
X103669869Y-78875000D01*
X97845743Y-78875000D01*
X97789999Y-78869510D01*
X97734255Y-78875000D01*
X97734248Y-78875000D01*
X97588493Y-78889356D01*
X97567500Y-78891423D01*
X97527069Y-78903688D01*
X97353553Y-78956324D01*
X97156377Y-79061716D01*
X96983551Y-79203551D01*
X96948011Y-79246857D01*
X95756860Y-80438009D01*
X95713552Y-80473551D01*
X95571717Y-80646377D01*
X95550159Y-80686710D01*
X95466324Y-80843554D01*
X95401423Y-81057502D01*
X95379509Y-81280000D01*
X95385001Y-81335761D01*
X95385000Y-88809866D01*
X94676860Y-89518007D01*
X94676855Y-89518011D01*
X93889867Y-90305000D01*
X92588072Y-90305000D01*
X92588072Y-89727059D01*
X94743146Y-87571987D01*
X94786449Y-87536449D01*
X94829707Y-87483740D01*
X94928284Y-87363623D01*
X95033676Y-87166447D01*
X95098577Y-86952499D01*
X95120491Y-86730000D01*
X95115000Y-86674248D01*
X95115000Y-84185750D01*
X95120491Y-84129998D01*
X95098577Y-83907499D01*
X95033676Y-83693551D01*
X94928284Y-83496375D01*
X94838392Y-83386842D01*
X94786449Y-83323549D01*
X94743141Y-83288007D01*
X91971998Y-80516865D01*
X91936451Y-80473551D01*
X91763625Y-80331716D01*
X91566449Y-80226324D01*
X91352501Y-80161423D01*
X91185754Y-80145000D01*
X91185753Y-80145000D01*
X91130002Y-80139509D01*
X91074251Y-80145000D01*
X85145751Y-80145000D01*
X85090000Y-80139509D01*
X85034248Y-80145000D01*
X84867501Y-80161423D01*
X84653553Y-80226324D01*
X84456377Y-80331716D01*
X84283551Y-80473551D01*
X84248011Y-80516857D01*
X79246860Y-85518009D01*
X79203552Y-85553551D01*
X79061717Y-85726377D01*
X79032138Y-85781716D01*
X78956324Y-85923554D01*
X78891423Y-86137502D01*
X78869509Y-86360000D01*
X78875001Y-86415761D01*
X78875000Y-88435375D01*
X78785518Y-88444188D01*
X78665820Y-88480498D01*
X78555506Y-88539463D01*
X78458815Y-88618815D01*
X78379463Y-88715506D01*
X78320498Y-88825820D01*
X78284188Y-88945518D01*
X78271928Y-89070000D01*
X78271928Y-91270000D01*
X78284188Y-91394482D01*
X78320498Y-91514180D01*
X78379463Y-91624494D01*
X78458815Y-91721185D01*
X78555506Y-91800537D01*
X78665820Y-91859502D01*
X78785518Y-91895812D01*
X78910000Y-91908072D01*
X81110000Y-91908072D01*
X81234482Y-91895812D01*
X81354180Y-91859502D01*
X81415000Y-91826992D01*
X81415001Y-103669867D01*
X79832718Y-105252150D01*
X79591426Y-105300147D01*
X79330273Y-105408320D01*
X79095241Y-105565363D01*
X78895363Y-105765241D01*
X78738320Y-106000273D01*
X78630147Y-106261426D01*
X78575000Y-106538665D01*
X78575000Y-106821335D01*
X78630147Y-107098574D01*
X78738320Y-107359727D01*
X78895363Y-107594759D01*
X79095241Y-107794637D01*
X79330273Y-107951680D01*
X79591426Y-108059853D01*
X79868665Y-108115000D01*
X80151335Y-108115000D01*
X80428574Y-108059853D01*
X80689727Y-107951680D01*
X80924759Y-107794637D01*
X81124637Y-107594759D01*
X81281680Y-107359727D01*
X81389853Y-107098574D01*
X81437850Y-106857282D01*
X83313141Y-104981991D01*
X83356449Y-104946449D01*
X83498284Y-104773623D01*
X83603676Y-104576447D01*
X83668577Y-104362499D01*
X83685000Y-104195752D01*
X83685000Y-104195743D01*
X83690490Y-104140001D01*
X83685000Y-104084259D01*
X83685000Y-100052702D01*
X85586903Y-100052702D01*
X85658486Y-100296671D01*
X85913996Y-100417571D01*
X86188184Y-100486300D01*
X86470512Y-100500217D01*
X86750130Y-100458787D01*
X87016292Y-100363603D01*
X87141514Y-100296671D01*
X87213097Y-100052702D01*
X86400000Y-99239605D01*
X85586903Y-100052702D01*
X83685000Y-100052702D01*
X83685000Y-99130512D01*
X84959783Y-99130512D01*
X85001213Y-99410130D01*
X85096397Y-99676292D01*
X85163329Y-99801514D01*
X85407298Y-99873097D01*
X86220395Y-99060000D01*
X85407298Y-98246903D01*
X85163329Y-98318486D01*
X85042429Y-98573996D01*
X84973700Y-98848184D01*
X84959783Y-99130512D01*
X83685000Y-99130512D01*
X83685000Y-98067298D01*
X85586903Y-98067298D01*
X86400000Y-98880395D01*
X87213097Y-98067298D01*
X87141514Y-97823329D01*
X86886004Y-97702429D01*
X86611816Y-97633700D01*
X86329488Y-97619783D01*
X86049870Y-97661213D01*
X85783708Y-97756397D01*
X85658486Y-97823329D01*
X85586903Y-98067298D01*
X83685000Y-98067298D01*
X83685000Y-90510000D01*
X85211928Y-90510000D01*
X85224188Y-90634482D01*
X85260498Y-90754180D01*
X85319463Y-90864494D01*
X85398815Y-90961185D01*
X85495506Y-91040537D01*
X85605820Y-91099502D01*
X85725518Y-91135812D01*
X85850000Y-91148072D01*
X86314250Y-91145000D01*
X86473000Y-90986250D01*
X86473000Y-89637000D01*
X85373750Y-89637000D01*
X85215000Y-89795750D01*
X85211928Y-90510000D01*
X83685000Y-90510000D01*
X83685000Y-89370131D01*
X84545131Y-88510000D01*
X85211928Y-88510000D01*
X85215000Y-89224250D01*
X85373750Y-89383000D01*
X86473000Y-89383000D01*
X86473000Y-88033750D01*
X86314250Y-87875000D01*
X85850000Y-87871928D01*
X85725518Y-87884188D01*
X85605820Y-87920498D01*
X85495506Y-87979463D01*
X85398815Y-88058815D01*
X85319463Y-88155506D01*
X85260498Y-88265820D01*
X85224188Y-88385518D01*
X85211928Y-88510000D01*
X84545131Y-88510000D01*
X85560132Y-87495000D01*
X88289871Y-87495000D01*
X88666799Y-87871928D01*
X88150000Y-87871928D01*
X88025518Y-87884188D01*
X87905820Y-87920498D01*
X87795506Y-87979463D01*
X87750000Y-88016809D01*
X87704494Y-87979463D01*
X87594180Y-87920498D01*
X87474482Y-87884188D01*
X87350000Y-87871928D01*
X86885750Y-87875000D01*
X86727000Y-88033750D01*
X86727000Y-89383000D01*
X86747000Y-89383000D01*
X86747000Y-89637000D01*
X86727000Y-89637000D01*
X86727000Y-90986250D01*
X86885750Y-91145000D01*
X87350000Y-91148072D01*
X87474482Y-91135812D01*
X87594180Y-91099502D01*
X87704494Y-91040537D01*
X87750000Y-91003191D01*
X87765000Y-91015502D01*
X87765000Y-91384248D01*
X87759509Y-91440000D01*
X87765001Y-91495761D01*
X87765000Y-94035751D01*
X87765001Y-94035761D01*
X87765000Y-97719043D01*
X87745506Y-97729463D01*
X87648815Y-97808815D01*
X87569463Y-97905506D01*
X87510498Y-98015820D01*
X87474188Y-98135518D01*
X87461928Y-98260000D01*
X87461928Y-98267215D01*
X87392702Y-98246903D01*
X86579605Y-99060000D01*
X87392702Y-99873097D01*
X87461928Y-99852785D01*
X87461928Y-99860000D01*
X87474188Y-99984482D01*
X87510498Y-100104180D01*
X87569463Y-100214494D01*
X87648815Y-100311185D01*
X87745506Y-100390537D01*
X87765001Y-100400957D01*
X87765000Y-103669868D01*
X86182718Y-105252150D01*
X85941426Y-105300147D01*
X85680273Y-105408320D01*
X85445241Y-105565363D01*
X85245363Y-105765241D01*
X85088320Y-106000273D01*
X84980147Y-106261426D01*
X84932150Y-106502718D01*
X83056860Y-108378009D01*
X83013552Y-108413551D01*
X82871717Y-108586377D01*
X82838974Y-108647636D01*
X82766324Y-108783554D01*
X82701423Y-108997502D01*
X82679509Y-109220000D01*
X82685001Y-109275761D01*
X82685000Y-111289868D01*
X77976860Y-115998009D01*
X77933552Y-116033551D01*
X77791717Y-116206377D01*
X77784135Y-116220562D01*
X77686324Y-116403554D01*
X77621423Y-116617502D01*
X77599509Y-116840000D01*
X77605001Y-116895761D01*
X77605000Y-123134248D01*
X77599509Y-123190000D01*
X77605000Y-123245751D01*
X77621423Y-123412498D01*
X77686324Y-123626446D01*
X77791716Y-123823623D01*
X77933551Y-123996449D01*
X77976865Y-124031996D01*
X92984868Y-139040000D01*
X76860000Y-139040000D01*
X76860000Y-135669872D01*
X77775000Y-135669872D01*
X77775000Y-136110128D01*
X77860890Y-136541925D01*
X78029369Y-136948669D01*
X78273962Y-137314729D01*
X78585271Y-137626038D01*
X78951331Y-137870631D01*
X79358075Y-138039110D01*
X79789872Y-138125000D01*
X80230128Y-138125000D01*
X80661925Y-138039110D01*
X81068669Y-137870631D01*
X81434729Y-137626038D01*
X81746038Y-137314729D01*
X81990631Y-136948669D01*
X82159110Y-136541925D01*
X82245000Y-136110128D01*
X82245000Y-135669872D01*
X82159110Y-135238075D01*
X81990631Y-134831331D01*
X81746038Y-134465271D01*
X81434729Y-134153962D01*
X81068669Y-133909369D01*
X80661925Y-133740890D01*
X80230128Y-133655000D01*
X79789872Y-133655000D01*
X79358075Y-133740890D01*
X78951331Y-133909369D01*
X78585271Y-134153962D01*
X78273962Y-134465271D01*
X78029369Y-134831331D01*
X77860890Y-135238075D01*
X77775000Y-135669872D01*
X76860000Y-135669872D01*
X76860000Y-112672702D01*
X79196903Y-112672702D01*
X79268486Y-112916671D01*
X79523996Y-113037571D01*
X79798184Y-113106300D01*
X80080512Y-113120217D01*
X80360130Y-113078787D01*
X80626292Y-112983603D01*
X80751514Y-112916671D01*
X80823097Y-112672702D01*
X80010000Y-111859605D01*
X79196903Y-112672702D01*
X76860000Y-112672702D01*
X76860000Y-111750512D01*
X78569783Y-111750512D01*
X78611213Y-112030130D01*
X78706397Y-112296292D01*
X78773329Y-112421514D01*
X79017298Y-112493097D01*
X79830395Y-111680000D01*
X80189605Y-111680000D01*
X81002702Y-112493097D01*
X81246671Y-112421514D01*
X81367571Y-112166004D01*
X81436300Y-111891816D01*
X81450217Y-111609488D01*
X81408787Y-111329870D01*
X81313603Y-111063708D01*
X81246671Y-110938486D01*
X81002702Y-110866903D01*
X80189605Y-111680000D01*
X79830395Y-111680000D01*
X79017298Y-110866903D01*
X78773329Y-110938486D01*
X78652429Y-111193996D01*
X78583700Y-111468184D01*
X78569783Y-111750512D01*
X76860000Y-111750512D01*
X76860000Y-110687298D01*
X79196903Y-110687298D01*
X80010000Y-111500395D01*
X80823097Y-110687298D01*
X80751514Y-110443329D01*
X80496004Y-110322429D01*
X80221816Y-110253700D01*
X79939488Y-110239783D01*
X79659870Y-110281213D01*
X79393708Y-110376397D01*
X79268486Y-110443329D01*
X79196903Y-110687298D01*
X76860000Y-110687298D01*
X76860000Y-79839117D01*
X78275000Y-79839117D01*
X78275000Y-80180883D01*
X78341675Y-80516081D01*
X78472463Y-80831831D01*
X78662337Y-81115998D01*
X78904002Y-81357663D01*
X79188169Y-81547537D01*
X79503919Y-81678325D01*
X79839117Y-81745000D01*
X80180883Y-81745000D01*
X80516081Y-81678325D01*
X80831831Y-81547537D01*
X81115998Y-81357663D01*
X81357663Y-81115998D01*
X81547537Y-80831831D01*
X81678325Y-80516081D01*
X81745000Y-80180883D01*
X81745000Y-79839117D01*
X81678325Y-79503919D01*
X81547537Y-79188169D01*
X81357663Y-78904002D01*
X81115998Y-78662337D01*
X80831831Y-78472463D01*
X80516081Y-78341675D01*
X80180883Y-78275000D01*
X79839117Y-78275000D01*
X79503919Y-78341675D01*
X79188169Y-78472463D01*
X78904002Y-78662337D01*
X78662337Y-78904002D01*
X78472463Y-79188169D01*
X78341675Y-79503919D01*
X78275000Y-79839117D01*
X76860000Y-79839117D01*
X76860000Y-73595000D01*
X83081928Y-73595000D01*
X83081928Y-75345000D01*
X83111001Y-75640186D01*
X83197104Y-75924028D01*
X83336927Y-76185618D01*
X83525097Y-76414903D01*
X83754382Y-76603073D01*
X84015972Y-76742896D01*
X84299814Y-76828999D01*
X84595000Y-76858072D01*
X86345000Y-76858072D01*
X86640186Y-76828999D01*
X86924028Y-76742896D01*
X87185618Y-76603073D01*
X87414903Y-76414903D01*
X87603073Y-76185618D01*
X87742896Y-75924028D01*
X87781928Y-75795357D01*
X87781928Y-79220000D01*
X87794188Y-79344482D01*
X87830498Y-79464180D01*
X87889463Y-79574494D01*
X87968815Y-79671185D01*
X88065506Y-79750537D01*
X88175820Y-79809502D01*
X88295518Y-79845812D01*
X88420000Y-79858072D01*
X91920000Y-79858072D01*
X92044482Y-79845812D01*
X92164180Y-79809502D01*
X92274494Y-79750537D01*
X92371185Y-79671185D01*
X92450537Y-79574494D01*
X92509502Y-79464180D01*
X92545812Y-79344482D01*
X92558072Y-79220000D01*
X92558072Y-76058665D01*
X96355000Y-76058665D01*
X96355000Y-76341335D01*
X96410147Y-76618574D01*
X96518320Y-76879727D01*
X96675363Y-77114759D01*
X96875241Y-77314637D01*
X97110273Y-77471680D01*
X97371426Y-77579853D01*
X97648665Y-77635000D01*
X97931335Y-77635000D01*
X98208574Y-77579853D01*
X98469727Y-77471680D01*
X98704759Y-77314637D01*
X98904637Y-77114759D01*
X99061680Y-76879727D01*
X99169853Y-76618574D01*
X99225000Y-76341335D01*
X99225000Y-76058665D01*
X99169853Y-75781426D01*
X99061680Y-75520273D01*
X98904637Y-75285241D01*
X98704759Y-75085363D01*
X98625000Y-75032070D01*
X98625000Y-72735867D01*
X101279540Y-70081329D01*
X101448816Y-70115000D01*
X101751184Y-70115000D01*
X102047743Y-70056011D01*
X102327095Y-69940299D01*
X102578505Y-69772312D01*
X102792312Y-69558505D01*
X102960299Y-69307095D01*
X103076011Y-69027743D01*
X103135000Y-68731184D01*
X103135000Y-68428816D01*
X103076011Y-68132257D01*
X102960299Y-67852905D01*
X102792312Y-67601495D01*
X102725873Y-67535056D01*
X102744180Y-67529502D01*
X102854494Y-67470537D01*
X102951185Y-67391185D01*
X103030537Y-67294494D01*
X103089502Y-67184180D01*
X103125812Y-67064482D01*
X103138072Y-66940000D01*
X103135000Y-66325750D01*
X102976250Y-66167000D01*
X101727000Y-66167000D01*
X101727000Y-66187000D01*
X101473000Y-66187000D01*
X101473000Y-66167000D01*
X100223750Y-66167000D01*
X100065000Y-66325750D01*
X100061928Y-66940000D01*
X100074188Y-67064482D01*
X100110498Y-67184180D01*
X100169463Y-67294494D01*
X100248815Y-67391185D01*
X100345506Y-67470537D01*
X100455820Y-67529502D01*
X100474127Y-67535056D01*
X100407688Y-67601495D01*
X100239701Y-67852905D01*
X100123989Y-68132257D01*
X100065000Y-68428816D01*
X100065000Y-68731184D01*
X100098671Y-68900460D01*
X97228574Y-71770559D01*
X97196710Y-71796709D01*
X97170562Y-71828571D01*
X97092364Y-71923855D01*
X97014828Y-72068914D01*
X96967082Y-72226312D01*
X96950960Y-72390000D01*
X96955001Y-72431028D01*
X96955000Y-75032070D01*
X96875241Y-75085363D01*
X96675363Y-75285241D01*
X96518320Y-75520273D01*
X96410147Y-75781426D01*
X96355000Y-76058665D01*
X92558072Y-76058665D01*
X92558072Y-75720000D01*
X92545812Y-75595518D01*
X92509502Y-75475820D01*
X92450537Y-75365506D01*
X92371185Y-75268815D01*
X92274494Y-75189463D01*
X92164180Y-75130498D01*
X92044482Y-75094188D01*
X91920000Y-75081928D01*
X88420000Y-75081928D01*
X88295518Y-75094188D01*
X88175820Y-75130498D01*
X88065506Y-75189463D01*
X87968815Y-75268815D01*
X87889463Y-75365506D01*
X87848506Y-75442131D01*
X87858072Y-75345000D01*
X87858072Y-73595000D01*
X87828999Y-73299814D01*
X87742896Y-73015972D01*
X87718324Y-72970000D01*
X87781928Y-72970000D01*
X87794188Y-73094482D01*
X87830498Y-73214180D01*
X87889463Y-73324494D01*
X87968815Y-73421185D01*
X88065506Y-73500537D01*
X88175820Y-73559502D01*
X88295518Y-73595812D01*
X88420000Y-73608072D01*
X89884250Y-73605000D01*
X90043000Y-73446250D01*
X90043000Y-71597000D01*
X90297000Y-71597000D01*
X90297000Y-73446250D01*
X90455750Y-73605000D01*
X91920000Y-73608072D01*
X92044482Y-73595812D01*
X92164180Y-73559502D01*
X92274494Y-73500537D01*
X92371185Y-73421185D01*
X92450537Y-73324494D01*
X92509502Y-73214180D01*
X92545812Y-73094482D01*
X92558072Y-72970000D01*
X92555000Y-71755750D01*
X92396250Y-71597000D01*
X90297000Y-71597000D01*
X90043000Y-71597000D01*
X87943750Y-71597000D01*
X87785000Y-71755750D01*
X87781928Y-72970000D01*
X87718324Y-72970000D01*
X87603073Y-72754382D01*
X87414903Y-72525097D01*
X87185618Y-72336927D01*
X86924028Y-72197104D01*
X86640186Y-72111001D01*
X86345000Y-72081928D01*
X84595000Y-72081928D01*
X84299814Y-72111001D01*
X84015972Y-72197104D01*
X83754382Y-72336927D01*
X83525097Y-72525097D01*
X83336927Y-72754382D01*
X83197104Y-73015972D01*
X83111001Y-73299814D01*
X83081928Y-73595000D01*
X76860000Y-73595000D01*
X76860000Y-69970000D01*
X87781928Y-69970000D01*
X87785000Y-71184250D01*
X87943750Y-71343000D01*
X90043000Y-71343000D01*
X90043000Y-69493750D01*
X90297000Y-69493750D01*
X90297000Y-71343000D01*
X92396250Y-71343000D01*
X92555000Y-71184250D01*
X92558072Y-69970000D01*
X92545812Y-69845518D01*
X92509502Y-69725820D01*
X92450537Y-69615506D01*
X92371185Y-69518815D01*
X92274494Y-69439463D01*
X92164180Y-69380498D01*
X92044482Y-69344188D01*
X91920000Y-69331928D01*
X90455750Y-69335000D01*
X90297000Y-69493750D01*
X90043000Y-69493750D01*
X89884250Y-69335000D01*
X88420000Y-69331928D01*
X88295518Y-69344188D01*
X88175820Y-69380498D01*
X88065506Y-69439463D01*
X87968815Y-69518815D01*
X87889463Y-69615506D01*
X87830498Y-69725820D01*
X87794188Y-69845518D01*
X87781928Y-69970000D01*
X76860000Y-69970000D01*
X76860000Y-67089872D01*
X77775000Y-67089872D01*
X77775000Y-67530128D01*
X77860890Y-67961925D01*
X78029369Y-68368669D01*
X78273962Y-68734729D01*
X78585271Y-69046038D01*
X78951331Y-69290631D01*
X79358075Y-69459110D01*
X79789872Y-69545000D01*
X80230128Y-69545000D01*
X80661925Y-69459110D01*
X81068669Y-69290631D01*
X81434729Y-69046038D01*
X81746038Y-68734729D01*
X81990631Y-68368669D01*
X82159110Y-67961925D01*
X82245000Y-67530128D01*
X82245000Y-67089872D01*
X82159110Y-66658075D01*
X81990631Y-66251331D01*
X81746038Y-65885271D01*
X81434729Y-65573962D01*
X81068669Y-65329369D01*
X80661925Y-65160890D01*
X80556905Y-65140000D01*
X100061928Y-65140000D01*
X100065000Y-65754250D01*
X100223750Y-65913000D01*
X101473000Y-65913000D01*
X101473000Y-64663750D01*
X101727000Y-64663750D01*
X101727000Y-65913000D01*
X102976250Y-65913000D01*
X103135000Y-65754250D01*
X103138072Y-65140000D01*
X103125812Y-65015518D01*
X103089502Y-64895820D01*
X103030537Y-64785506D01*
X102951185Y-64688815D01*
X102854494Y-64609463D01*
X102744180Y-64550498D01*
X102624482Y-64514188D01*
X102500000Y-64501928D01*
X101885750Y-64505000D01*
X101727000Y-64663750D01*
X101473000Y-64663750D01*
X101314250Y-64505000D01*
X100700000Y-64501928D01*
X100575518Y-64514188D01*
X100455820Y-64550498D01*
X100345506Y-64609463D01*
X100248815Y-64688815D01*
X100169463Y-64785506D01*
X100110498Y-64895820D01*
X100074188Y-65015518D01*
X100061928Y-65140000D01*
X80556905Y-65140000D01*
X80230128Y-65075000D01*
X79789872Y-65075000D01*
X79358075Y-65160890D01*
X78951331Y-65329369D01*
X78585271Y-65573962D01*
X78273962Y-65885271D01*
X78029369Y-66251331D01*
X77860890Y-66658075D01*
X77775000Y-67089872D01*
X76860000Y-67089872D01*
X76860000Y-64160000D01*
X109494868Y-64160000D01*
X107186860Y-66468009D01*
G36*
X155214774Y-105108102D02*
G01*
X155175000Y-105308061D01*
X155175000Y-105511939D01*
X155214774Y-105711898D01*
X155292795Y-105900256D01*
X155375000Y-106023285D01*
X155375000Y-108279907D01*
X155241898Y-108224774D01*
X155041939Y-108185000D01*
X154838061Y-108185000D01*
X154638102Y-108224774D01*
X154449744Y-108302795D01*
X154280226Y-108416063D01*
X154136063Y-108560226D01*
X154022795Y-108729744D01*
X153944774Y-108918102D01*
X153905000Y-109118061D01*
X153905000Y-109321939D01*
X153944774Y-109521898D01*
X154022795Y-109710256D01*
X154105001Y-109833286D01*
X154105000Y-133004131D01*
X152034133Y-135075000D01*
X148935868Y-135075000D01*
X147567758Y-133706890D01*
X149688524Y-133706890D01*
X149733175Y-133854099D01*
X149858359Y-134116920D01*
X150032412Y-134350269D01*
X150248645Y-134545178D01*
X150498748Y-134694157D01*
X150773109Y-134791481D01*
X151003000Y-134670814D01*
X151003000Y-133477000D01*
X151257000Y-133477000D01*
X151257000Y-134670814D01*
X151486891Y-134791481D01*
X151761252Y-134694157D01*
X152011355Y-134545178D01*
X152227588Y-134350269D01*
X152401641Y-134116920D01*
X152526825Y-133854099D01*
X152571476Y-133706890D01*
X152450155Y-133477000D01*
X151257000Y-133477000D01*
X151003000Y-133477000D01*
X149809845Y-133477000D01*
X149688524Y-133706890D01*
X147567758Y-133706890D01*
X139029446Y-125168579D01*
X139003291Y-125136709D01*
X138876146Y-125032364D01*
X138731087Y-124954828D01*
X138648072Y-124929646D01*
X138648072Y-124880000D01*
X138635812Y-124755518D01*
X138599502Y-124635820D01*
X138540537Y-124525506D01*
X138461185Y-124428815D01*
X138364494Y-124349463D01*
X138254180Y-124290498D01*
X138134482Y-124254188D01*
X138010000Y-124241928D01*
X136310000Y-124241928D01*
X136185518Y-124254188D01*
X136065820Y-124290498D01*
X135955506Y-124349463D01*
X135858815Y-124428815D01*
X135779463Y-124525506D01*
X135720498Y-124635820D01*
X135684188Y-124755518D01*
X135671928Y-124880000D01*
X135671928Y-126580000D01*
X135684188Y-126704482D01*
X135720498Y-126824180D01*
X135779463Y-126934494D01*
X135858815Y-127031185D01*
X135955506Y-127110537D01*
X136065820Y-127169502D01*
X136138380Y-127191513D01*
X136006525Y-127323368D01*
X135844010Y-127566589D01*
X135732068Y-127836842D01*
X135675000Y-128123740D01*
X135675000Y-128416260D01*
X135732068Y-128703158D01*
X135844010Y-128973411D01*
X136006525Y-129216632D01*
X136213368Y-129423475D01*
X136387760Y-129540000D01*
X136213368Y-129656525D01*
X136006525Y-129863368D01*
X135844010Y-130106589D01*
X135732068Y-130376842D01*
X135675000Y-130663740D01*
X135675000Y-130689867D01*
X128524879Y-137839990D01*
X94995122Y-137839990D01*
X79875000Y-122719869D01*
X79875000Y-119832702D01*
X81736903Y-119832702D01*
X81808486Y-120076671D01*
X82063996Y-120197571D01*
X82338184Y-120266300D01*
X82620512Y-120280217D01*
X82900130Y-120238787D01*
X83166292Y-120143603D01*
X83291514Y-120076671D01*
X83363097Y-119832702D01*
X82550000Y-119019605D01*
X81736903Y-119832702D01*
X79875000Y-119832702D01*
X79875000Y-117310131D01*
X81111928Y-116073203D01*
X81111928Y-117640000D01*
X81124188Y-117764482D01*
X81160498Y-117884180D01*
X81219463Y-117994494D01*
X81298815Y-118091185D01*
X81311758Y-118101807D01*
X81192429Y-118353996D01*
X81123700Y-118628184D01*
X81109783Y-118910512D01*
X81151213Y-119190130D01*
X81246397Y-119456292D01*
X81313329Y-119581514D01*
X81557298Y-119653097D01*
X82370395Y-118840000D01*
X82356253Y-118825858D01*
X82535858Y-118646253D01*
X82550000Y-118660395D01*
X82564143Y-118646253D01*
X82743748Y-118825858D01*
X82729605Y-118840000D01*
X83542702Y-119653097D01*
X83786671Y-119581514D01*
X83907571Y-119326004D01*
X83976300Y-119051816D01*
X83990217Y-118769488D01*
X83948787Y-118489870D01*
X83853603Y-118223708D01*
X83788384Y-118101691D01*
X83801185Y-118091185D01*
X83841362Y-118042229D01*
X100980559Y-135181427D01*
X101006709Y-135213291D01*
X101112032Y-135299727D01*
X101133854Y-135317636D01*
X101278913Y-135395172D01*
X101436311Y-135442918D01*
X101599999Y-135459040D01*
X101641018Y-135455000D01*
X102972070Y-135455000D01*
X103025363Y-135534759D01*
X103225241Y-135734637D01*
X103460273Y-135891680D01*
X103721426Y-135999853D01*
X103998665Y-136055000D01*
X104281335Y-136055000D01*
X104558574Y-135999853D01*
X104819727Y-135891680D01*
X105054759Y-135734637D01*
X105254637Y-135534759D01*
X105307930Y-135455000D01*
X108052070Y-135455000D01*
X108105363Y-135534759D01*
X108305241Y-135734637D01*
X108540273Y-135891680D01*
X108801426Y-135999853D01*
X109078665Y-136055000D01*
X109361335Y-136055000D01*
X109638574Y-135999853D01*
X109899727Y-135891680D01*
X110134759Y-135734637D01*
X110334637Y-135534759D01*
X110377907Y-135470000D01*
X114081928Y-135470000D01*
X114094188Y-135594482D01*
X114130498Y-135714180D01*
X114189463Y-135824494D01*
X114268815Y-135921185D01*
X114365506Y-136000537D01*
X114475820Y-136059502D01*
X114595518Y-136095812D01*
X114720000Y-136108072D01*
X115284250Y-136105000D01*
X115443000Y-135946250D01*
X115443000Y-134747000D01*
X115697000Y-134747000D01*
X115697000Y-135946250D01*
X115855750Y-136105000D01*
X116420000Y-136108072D01*
X116544482Y-136095812D01*
X116664180Y-136059502D01*
X116774494Y-136000537D01*
X116871185Y-135921185D01*
X116950537Y-135824494D01*
X117009502Y-135714180D01*
X117045812Y-135594482D01*
X117058072Y-135470000D01*
X117055000Y-134905750D01*
X116896250Y-134747000D01*
X115697000Y-134747000D01*
X115443000Y-134747000D01*
X114243750Y-134747000D01*
X114085000Y-134905750D01*
X114081928Y-135470000D01*
X110377907Y-135470000D01*
X110491680Y-135299727D01*
X110599853Y-135038574D01*
X110655000Y-134761335D01*
X110655000Y-134478665D01*
X110599853Y-134201426D01*
X110491680Y-133940273D01*
X110334637Y-133705241D01*
X110134759Y-133505363D01*
X109899727Y-133348320D01*
X109638574Y-133240147D01*
X109361335Y-133185000D01*
X109078665Y-133185000D01*
X108801426Y-133240147D01*
X108540273Y-133348320D01*
X108305241Y-133505363D01*
X108105363Y-133705241D01*
X108052070Y-133785000D01*
X105307930Y-133785000D01*
X105254637Y-133705241D01*
X105054759Y-133505363D01*
X104819727Y-133348320D01*
X104558574Y-133240147D01*
X104281335Y-133185000D01*
X103998665Y-133185000D01*
X103721426Y-133240147D01*
X103460273Y-133348320D01*
X103225241Y-133505363D01*
X103025363Y-133705241D01*
X102972070Y-133785000D01*
X101945868Y-133785000D01*
X92479533Y-124318665D01*
X102705000Y-124318665D01*
X102705000Y-124601335D01*
X102760147Y-124878574D01*
X102868320Y-125139727D01*
X103025363Y-125374759D01*
X103225241Y-125574637D01*
X103460273Y-125731680D01*
X103721426Y-125839853D01*
X103998665Y-125895000D01*
X104281335Y-125895000D01*
X104558574Y-125839853D01*
X104819727Y-125731680D01*
X105054759Y-125574637D01*
X105254637Y-125374759D01*
X105411680Y-125139727D01*
X105519853Y-124878574D01*
X105575000Y-124601335D01*
X105575000Y-124318665D01*
X107785000Y-124318665D01*
X107785000Y-124601335D01*
X107840147Y-124878574D01*
X107948320Y-125139727D01*
X108105363Y-125374759D01*
X108305241Y-125574637D01*
X108385001Y-125627931D01*
X108385001Y-125688972D01*
X108380960Y-125730000D01*
X108397082Y-125893688D01*
X108444828Y-126051086D01*
X108522364Y-126196145D01*
X108522365Y-126196146D01*
X108626710Y-126323291D01*
X108658574Y-126349441D01*
X114111193Y-131802061D01*
X114085000Y-131933740D01*
X114085000Y-132226260D01*
X114142068Y-132513158D01*
X114254010Y-132783411D01*
X114416525Y-133026632D01*
X114548380Y-133158487D01*
X114475820Y-133180498D01*
X114365506Y-133239463D01*
X114268815Y-133318815D01*
X114189463Y-133415506D01*
X114130498Y-133525820D01*
X114094188Y-133645518D01*
X114081928Y-133770000D01*
X114085000Y-134334250D01*
X114243750Y-134493000D01*
X115443000Y-134493000D01*
X115443000Y-134473000D01*
X115697000Y-134473000D01*
X115697000Y-134493000D01*
X116896250Y-134493000D01*
X117055000Y-134334250D01*
X117058072Y-133770000D01*
X117045812Y-133645518D01*
X117009502Y-133525820D01*
X116950537Y-133415506D01*
X116871185Y-133318815D01*
X116774494Y-133239463D01*
X116664180Y-133180498D01*
X116591620Y-133158487D01*
X116723475Y-133026632D01*
X116885990Y-132783411D01*
X116997932Y-132513158D01*
X117055000Y-132226260D01*
X117055000Y-131933740D01*
X116997932Y-131646842D01*
X116885990Y-131376589D01*
X116723475Y-131133368D01*
X116516632Y-130926525D01*
X116273411Y-130764010D01*
X116003158Y-130652068D01*
X115716260Y-130595000D01*
X115423740Y-130595000D01*
X115292061Y-130621193D01*
X113790868Y-129120000D01*
X114081928Y-129120000D01*
X114094188Y-129244482D01*
X114130498Y-129364180D01*
X114189463Y-129474494D01*
X114268815Y-129571185D01*
X114365506Y-129650537D01*
X114475820Y-129709502D01*
X114595518Y-129745812D01*
X114720000Y-129758072D01*
X115284250Y-129755000D01*
X115443000Y-129596250D01*
X115443000Y-128397000D01*
X115697000Y-128397000D01*
X115697000Y-129596250D01*
X115855750Y-129755000D01*
X116420000Y-129758072D01*
X116544482Y-129745812D01*
X116664180Y-129709502D01*
X116774494Y-129650537D01*
X116871185Y-129571185D01*
X116950537Y-129474494D01*
X117009502Y-129364180D01*
X117045812Y-129244482D01*
X117058072Y-129120000D01*
X117055000Y-128555750D01*
X116896250Y-128397000D01*
X115697000Y-128397000D01*
X115443000Y-128397000D01*
X114243750Y-128397000D01*
X114085000Y-128555750D01*
X114081928Y-129120000D01*
X113790868Y-129120000D01*
X110190132Y-125519264D01*
X110334637Y-125374759D01*
X110491680Y-125139727D01*
X110599853Y-124878574D01*
X110655000Y-124601335D01*
X110655000Y-124318665D01*
X110599853Y-124041426D01*
X110491680Y-123780273D01*
X110334637Y-123545241D01*
X110134759Y-123345363D01*
X109899727Y-123188320D01*
X109638574Y-123080147D01*
X109361335Y-123025000D01*
X109078665Y-123025000D01*
X108801426Y-123080147D01*
X108540273Y-123188320D01*
X108305241Y-123345363D01*
X108105363Y-123545241D01*
X107948320Y-123780273D01*
X107840147Y-124041426D01*
X107785000Y-124318665D01*
X105575000Y-124318665D01*
X105556285Y-124224582D01*
X107025868Y-122755000D01*
X111414133Y-122755000D01*
X114111193Y-125452061D01*
X114085000Y-125583740D01*
X114085000Y-125876260D01*
X114142068Y-126163158D01*
X114254010Y-126433411D01*
X114416525Y-126676632D01*
X114548380Y-126808487D01*
X114475820Y-126830498D01*
X114365506Y-126889463D01*
X114268815Y-126968815D01*
X114189463Y-127065506D01*
X114130498Y-127175820D01*
X114094188Y-127295518D01*
X114081928Y-127420000D01*
X114085000Y-127984250D01*
X114243750Y-128143000D01*
X115443000Y-128143000D01*
X115443000Y-128123000D01*
X115697000Y-128123000D01*
X115697000Y-128143000D01*
X116896250Y-128143000D01*
X117055000Y-127984250D01*
X117058072Y-127420000D01*
X117045812Y-127295518D01*
X117009502Y-127175820D01*
X116950537Y-127065506D01*
X116871185Y-126968815D01*
X116774494Y-126889463D01*
X116664180Y-126830498D01*
X116591620Y-126808487D01*
X116723475Y-126676632D01*
X116885990Y-126433411D01*
X116997932Y-126163158D01*
X117055000Y-125876260D01*
X117055000Y-125583740D01*
X116997932Y-125296842D01*
X116885990Y-125026589D01*
X116723475Y-124783368D01*
X116516632Y-124576525D01*
X116273411Y-124414010D01*
X116003158Y-124302068D01*
X115716260Y-124245000D01*
X115423740Y-124245000D01*
X115292061Y-124271193D01*
X112379446Y-121358579D01*
X112353291Y-121326709D01*
X112226146Y-121222364D01*
X112081087Y-121144828D01*
X111923689Y-121097082D01*
X111801019Y-121085000D01*
X111801018Y-121085000D01*
X111760000Y-121080960D01*
X111718982Y-121085000D01*
X106721007Y-121085000D01*
X106679999Y-121080961D01*
X106638991Y-121085000D01*
X106638981Y-121085000D01*
X106516311Y-121097082D01*
X106358913Y-121144828D01*
X106213854Y-121222364D01*
X106086709Y-121326709D01*
X106060559Y-121358573D01*
X104375418Y-123043715D01*
X104281335Y-123025000D01*
X103998665Y-123025000D01*
X103721426Y-123080147D01*
X103460273Y-123188320D01*
X103225241Y-123345363D01*
X103025363Y-123545241D01*
X102868320Y-123780273D01*
X102760147Y-124041426D01*
X102705000Y-124318665D01*
X92479533Y-124318665D01*
X86135867Y-117975000D01*
X90969869Y-117975000D01*
X93138009Y-120143141D01*
X93173551Y-120186449D01*
X93346377Y-120328284D01*
X93543553Y-120433676D01*
X93757501Y-120498577D01*
X93924248Y-120515000D01*
X93924257Y-120515000D01*
X93979999Y-120520490D01*
X94035741Y-120515000D01*
X130754249Y-120515000D01*
X130810000Y-120520491D01*
X130865751Y-120515000D01*
X139229869Y-120515000D01*
X145208009Y-126493141D01*
X145243551Y-126536449D01*
X145416377Y-126678284D01*
X145613553Y-126783676D01*
X145747076Y-126824180D01*
X145827500Y-126848577D01*
X146049999Y-126870491D01*
X146105751Y-126865000D01*
X149712317Y-126865000D01*
X149749463Y-126934494D01*
X149828815Y-127031185D01*
X149925506Y-127110537D01*
X150035820Y-127169502D01*
X150108380Y-127191513D01*
X149976525Y-127323368D01*
X149814010Y-127566589D01*
X149702068Y-127836842D01*
X149645000Y-128123740D01*
X149645000Y-128416260D01*
X149702068Y-128703158D01*
X149814010Y-128973411D01*
X149976525Y-129216632D01*
X150183368Y-129423475D01*
X150357760Y-129540000D01*
X150183368Y-129656525D01*
X149976525Y-129863368D01*
X149814010Y-130106589D01*
X149702068Y-130376842D01*
X149645000Y-130663740D01*
X149645000Y-130956260D01*
X149702068Y-131243158D01*
X149814010Y-131513411D01*
X149976525Y-131756632D01*
X150183368Y-131963475D01*
X150365534Y-132085195D01*
X150248645Y-132154822D01*
X150032412Y-132349731D01*
X149858359Y-132583080D01*
X149733175Y-132845901D01*
X149688524Y-132993110D01*
X149809845Y-133223000D01*
X151003000Y-133223000D01*
X151003000Y-133203000D01*
X151257000Y-133203000D01*
X151257000Y-133223000D01*
X152450155Y-133223000D01*
X152571476Y-132993110D01*
X152526825Y-132845901D01*
X152401641Y-132583080D01*
X152227588Y-132349731D01*
X152011355Y-132154822D01*
X151894466Y-132085195D01*
X152076632Y-131963475D01*
X152283475Y-131756632D01*
X152445990Y-131513411D01*
X152557932Y-131243158D01*
X152615000Y-130956260D01*
X152615000Y-130663740D01*
X152557932Y-130376842D01*
X152445990Y-130106589D01*
X152283475Y-129863368D01*
X152076632Y-129656525D01*
X151902240Y-129540000D01*
X152076632Y-129423475D01*
X152283475Y-129216632D01*
X152445990Y-128973411D01*
X152557932Y-128703158D01*
X152615000Y-128416260D01*
X152615000Y-128123740D01*
X152588807Y-127992061D01*
X152941429Y-127639439D01*
X152973292Y-127613290D01*
X153077637Y-127486145D01*
X153155173Y-127341086D01*
X153202919Y-127183688D01*
X153215001Y-127061018D01*
X153215001Y-127061008D01*
X153219040Y-127020000D01*
X153215001Y-126978992D01*
X153215001Y-121941019D01*
X153219041Y-121900001D01*
X153202919Y-121736312D01*
X153155173Y-121578914D01*
X153077637Y-121433855D01*
X152999440Y-121338571D01*
X152999438Y-121338569D01*
X152973292Y-121306710D01*
X152941433Y-121280564D01*
X143264093Y-111603226D01*
X143235226Y-111458102D01*
X143157205Y-111269744D01*
X143043937Y-111100226D01*
X142899774Y-110956063D01*
X142730256Y-110842795D01*
X142541898Y-110764774D01*
X142341939Y-110725000D01*
X142138061Y-110725000D01*
X141938102Y-110764774D01*
X141749744Y-110842795D01*
X141580226Y-110956063D01*
X141436063Y-111100226D01*
X141322795Y-111269744D01*
X141244774Y-111458102D01*
X141205000Y-111658061D01*
X141205000Y-111861939D01*
X141244774Y-112061898D01*
X141322795Y-112250256D01*
X141436063Y-112419774D01*
X141580226Y-112563937D01*
X141749744Y-112677205D01*
X141938102Y-112755226D01*
X142083226Y-112784093D01*
X151545002Y-122245871D01*
X151545002Y-124241928D01*
X150280000Y-124241928D01*
X150155518Y-124254188D01*
X150035820Y-124290498D01*
X149925506Y-124349463D01*
X149828815Y-124428815D01*
X149749463Y-124525506D01*
X149712317Y-124595000D01*
X146520132Y-124595000D01*
X140541996Y-118616865D01*
X140506449Y-118573551D01*
X140333623Y-118431716D01*
X140136447Y-118326324D01*
X139922499Y-118261423D01*
X139755752Y-118245000D01*
X139755751Y-118245000D01*
X139700000Y-118239509D01*
X139644249Y-118245000D01*
X133550131Y-118245000D01*
X137277060Y-114518072D01*
X138010000Y-114518072D01*
X138134482Y-114505812D01*
X138254180Y-114469502D01*
X138364494Y-114410537D01*
X138461185Y-114331185D01*
X138540537Y-114234494D01*
X138599502Y-114124180D01*
X138635812Y-114004482D01*
X138648072Y-113880000D01*
X138648072Y-112722795D01*
X142585869Y-108785000D01*
X149901935Y-108785000D01*
X149976525Y-108896632D01*
X150183368Y-109103475D01*
X150357760Y-109220000D01*
X150183368Y-109336525D01*
X149976525Y-109543368D01*
X149814010Y-109786589D01*
X149702068Y-110056842D01*
X149645000Y-110343740D01*
X149645000Y-110636260D01*
X149702068Y-110923158D01*
X149814010Y-111193411D01*
X149976525Y-111436632D01*
X150183368Y-111643475D01*
X150357760Y-111760000D01*
X150183368Y-111876525D01*
X149976525Y-112083368D01*
X149814010Y-112326589D01*
X149702068Y-112596842D01*
X149645000Y-112883740D01*
X149645000Y-113176260D01*
X149702068Y-113463158D01*
X149814010Y-113733411D01*
X149976525Y-113976632D01*
X150183368Y-114183475D01*
X150426589Y-114345990D01*
X150696842Y-114457932D01*
X150983740Y-114515000D01*
X151276260Y-114515000D01*
X151563158Y-114457932D01*
X151833411Y-114345990D01*
X152076632Y-114183475D01*
X152283475Y-113976632D01*
X152445990Y-113733411D01*
X152557932Y-113463158D01*
X152615000Y-113176260D01*
X152615000Y-112883740D01*
X152557932Y-112596842D01*
X152445990Y-112326589D01*
X152283475Y-112083368D01*
X152076632Y-111876525D01*
X151902240Y-111760000D01*
X152076632Y-111643475D01*
X152283475Y-111436632D01*
X152445990Y-111193411D01*
X152557932Y-110923158D01*
X152615000Y-110636260D01*
X152615000Y-110343740D01*
X152557932Y-110056842D01*
X152445990Y-109786589D01*
X152283475Y-109543368D01*
X152076632Y-109336525D01*
X151902240Y-109220000D01*
X152076632Y-109103475D01*
X152283475Y-108896632D01*
X152445990Y-108653411D01*
X152557932Y-108383158D01*
X152615000Y-108096260D01*
X152615000Y-107803740D01*
X152588807Y-107672060D01*
X155258620Y-105002249D01*
X155214774Y-105108102D01*
G37*
X155214774Y-105108102D02*
X155175000Y-105308061D01*
X155175000Y-105511939D01*
X155214774Y-105711898D01*
X155292795Y-105900256D01*
X155375000Y-106023285D01*
X155375000Y-108279907D01*
X155241898Y-108224774D01*
X155041939Y-108185000D01*
X154838061Y-108185000D01*
X154638102Y-108224774D01*
X154449744Y-108302795D01*
X154280226Y-108416063D01*
X154136063Y-108560226D01*
X154022795Y-108729744D01*
X153944774Y-108918102D01*
X153905000Y-109118061D01*
X153905000Y-109321939D01*
X153944774Y-109521898D01*
X154022795Y-109710256D01*
X154105001Y-109833286D01*
X154105000Y-133004131D01*
X152034133Y-135075000D01*
X148935868Y-135075000D01*
X147567758Y-133706890D01*
X149688524Y-133706890D01*
X149733175Y-133854099D01*
X149858359Y-134116920D01*
X150032412Y-134350269D01*
X150248645Y-134545178D01*
X150498748Y-134694157D01*
X150773109Y-134791481D01*
X151003000Y-134670814D01*
X151003000Y-133477000D01*
X151257000Y-133477000D01*
X151257000Y-134670814D01*
X151486891Y-134791481D01*
X151761252Y-134694157D01*
X152011355Y-134545178D01*
X152227588Y-134350269D01*
X152401641Y-134116920D01*
X152526825Y-133854099D01*
X152571476Y-133706890D01*
X152450155Y-133477000D01*
X151257000Y-133477000D01*
X151003000Y-133477000D01*
X149809845Y-133477000D01*
X149688524Y-133706890D01*
X147567758Y-133706890D01*
X139029446Y-125168579D01*
X139003291Y-125136709D01*
X138876146Y-125032364D01*
X138731087Y-124954828D01*
X138648072Y-124929646D01*
X138648072Y-124880000D01*
X138635812Y-124755518D01*
X138599502Y-124635820D01*
X138540537Y-124525506D01*
X138461185Y-124428815D01*
X138364494Y-124349463D01*
X138254180Y-124290498D01*
X138134482Y-124254188D01*
X138010000Y-124241928D01*
X136310000Y-124241928D01*
X136185518Y-124254188D01*
X136065820Y-124290498D01*
X135955506Y-124349463D01*
X135858815Y-124428815D01*
X135779463Y-124525506D01*
X135720498Y-124635820D01*
X135684188Y-124755518D01*
X135671928Y-124880000D01*
X135671928Y-126580000D01*
X135684188Y-126704482D01*
X135720498Y-126824180D01*
X135779463Y-126934494D01*
X135858815Y-127031185D01*
X135955506Y-127110537D01*
X136065820Y-127169502D01*
X136138380Y-127191513D01*
X136006525Y-127323368D01*
X135844010Y-127566589D01*
X135732068Y-127836842D01*
X135675000Y-128123740D01*
X135675000Y-128416260D01*
X135732068Y-128703158D01*
X135844010Y-128973411D01*
X136006525Y-129216632D01*
X136213368Y-129423475D01*
X136387760Y-129540000D01*
X136213368Y-129656525D01*
X136006525Y-129863368D01*
X135844010Y-130106589D01*
X135732068Y-130376842D01*
X135675000Y-130663740D01*
X135675000Y-130689867D01*
X128524879Y-137839990D01*
X94995122Y-137839990D01*
X79875000Y-122719869D01*
X79875000Y-119832702D01*
X81736903Y-119832702D01*
X81808486Y-120076671D01*
X82063996Y-120197571D01*
X82338184Y-120266300D01*
X82620512Y-120280217D01*
X82900130Y-120238787D01*
X83166292Y-120143603D01*
X83291514Y-120076671D01*
X83363097Y-119832702D01*
X82550000Y-119019605D01*
X81736903Y-119832702D01*
X79875000Y-119832702D01*
X79875000Y-117310131D01*
X81111928Y-116073203D01*
X81111928Y-117640000D01*
X81124188Y-117764482D01*
X81160498Y-117884180D01*
X81219463Y-117994494D01*
X81298815Y-118091185D01*
X81311758Y-118101807D01*
X81192429Y-118353996D01*
X81123700Y-118628184D01*
X81109783Y-118910512D01*
X81151213Y-119190130D01*
X81246397Y-119456292D01*
X81313329Y-119581514D01*
X81557298Y-119653097D01*
X82370395Y-118840000D01*
X82356253Y-118825858D01*
X82535858Y-118646253D01*
X82550000Y-118660395D01*
X82564143Y-118646253D01*
X82743748Y-118825858D01*
X82729605Y-118840000D01*
X83542702Y-119653097D01*
X83786671Y-119581514D01*
X83907571Y-119326004D01*
X83976300Y-119051816D01*
X83990217Y-118769488D01*
X83948787Y-118489870D01*
X83853603Y-118223708D01*
X83788384Y-118101691D01*
X83801185Y-118091185D01*
X83841362Y-118042229D01*
X100980559Y-135181427D01*
X101006709Y-135213291D01*
X101112032Y-135299727D01*
X101133854Y-135317636D01*
X101278913Y-135395172D01*
X101436311Y-135442918D01*
X101599999Y-135459040D01*
X101641018Y-135455000D01*
X102972070Y-135455000D01*
X103025363Y-135534759D01*
X103225241Y-135734637D01*
X103460273Y-135891680D01*
X103721426Y-135999853D01*
X103998665Y-136055000D01*
X104281335Y-136055000D01*
X104558574Y-135999853D01*
X104819727Y-135891680D01*
X105054759Y-135734637D01*
X105254637Y-135534759D01*
X105307930Y-135455000D01*
X108052070Y-135455000D01*
X108105363Y-135534759D01*
X108305241Y-135734637D01*
X108540273Y-135891680D01*
X108801426Y-135999853D01*
X109078665Y-136055000D01*
X109361335Y-136055000D01*
X109638574Y-135999853D01*
X109899727Y-135891680D01*
X110134759Y-135734637D01*
X110334637Y-135534759D01*
X110377907Y-135470000D01*
X114081928Y-135470000D01*
X114094188Y-135594482D01*
X114130498Y-135714180D01*
X114189463Y-135824494D01*
X114268815Y-135921185D01*
X114365506Y-136000537D01*
X114475820Y-136059502D01*
X114595518Y-136095812D01*
X114720000Y-136108072D01*
X115284250Y-136105000D01*
X115443000Y-135946250D01*
X115443000Y-134747000D01*
X115697000Y-134747000D01*
X115697000Y-135946250D01*
X115855750Y-136105000D01*
X116420000Y-136108072D01*
X116544482Y-136095812D01*
X116664180Y-136059502D01*
X116774494Y-136000537D01*
X116871185Y-135921185D01*
X116950537Y-135824494D01*
X117009502Y-135714180D01*
X117045812Y-135594482D01*
X117058072Y-135470000D01*
X117055000Y-134905750D01*
X116896250Y-134747000D01*
X115697000Y-134747000D01*
X115443000Y-134747000D01*
X114243750Y-134747000D01*
X114085000Y-134905750D01*
X114081928Y-135470000D01*
X110377907Y-135470000D01*
X110491680Y-135299727D01*
X110599853Y-135038574D01*
X110655000Y-134761335D01*
X110655000Y-134478665D01*
X110599853Y-134201426D01*
X110491680Y-133940273D01*
X110334637Y-133705241D01*
X110134759Y-133505363D01*
X109899727Y-133348320D01*
X109638574Y-133240147D01*
X109361335Y-133185000D01*
X109078665Y-133185000D01*
X108801426Y-133240147D01*
X108540273Y-133348320D01*
X108305241Y-133505363D01*
X108105363Y-133705241D01*
X108052070Y-133785000D01*
X105307930Y-133785000D01*
X105254637Y-133705241D01*
X105054759Y-133505363D01*
X104819727Y-133348320D01*
X104558574Y-133240147D01*
X104281335Y-133185000D01*
X103998665Y-133185000D01*
X103721426Y-133240147D01*
X103460273Y-133348320D01*
X103225241Y-133505363D01*
X103025363Y-133705241D01*
X102972070Y-133785000D01*
X101945868Y-133785000D01*
X92479533Y-124318665D01*
X102705000Y-124318665D01*
X102705000Y-124601335D01*
X102760147Y-124878574D01*
X102868320Y-125139727D01*
X103025363Y-125374759D01*
X103225241Y-125574637D01*
X103460273Y-125731680D01*
X103721426Y-125839853D01*
X103998665Y-125895000D01*
X104281335Y-125895000D01*
X104558574Y-125839853D01*
X104819727Y-125731680D01*
X105054759Y-125574637D01*
X105254637Y-125374759D01*
X105411680Y-125139727D01*
X105519853Y-124878574D01*
X105575000Y-124601335D01*
X105575000Y-124318665D01*
X107785000Y-124318665D01*
X107785000Y-124601335D01*
X107840147Y-124878574D01*
X107948320Y-125139727D01*
X108105363Y-125374759D01*
X108305241Y-125574637D01*
X108385001Y-125627931D01*
X108385001Y-125688972D01*
X108380960Y-125730000D01*
X108397082Y-125893688D01*
X108444828Y-126051086D01*
X108522364Y-126196145D01*
X108522365Y-126196146D01*
X108626710Y-126323291D01*
X108658574Y-126349441D01*
X114111193Y-131802061D01*
X114085000Y-131933740D01*
X114085000Y-132226260D01*
X114142068Y-132513158D01*
X114254010Y-132783411D01*
X114416525Y-133026632D01*
X114548380Y-133158487D01*
X114475820Y-133180498D01*
X114365506Y-133239463D01*
X114268815Y-133318815D01*
X114189463Y-133415506D01*
X114130498Y-133525820D01*
X114094188Y-133645518D01*
X114081928Y-133770000D01*
X114085000Y-134334250D01*
X114243750Y-134493000D01*
X115443000Y-134493000D01*
X115443000Y-134473000D01*
X115697000Y-134473000D01*
X115697000Y-134493000D01*
X116896250Y-134493000D01*
X117055000Y-134334250D01*
X117058072Y-133770000D01*
X117045812Y-133645518D01*
X117009502Y-133525820D01*
X116950537Y-133415506D01*
X116871185Y-133318815D01*
X116774494Y-133239463D01*
X116664180Y-133180498D01*
X116591620Y-133158487D01*
X116723475Y-133026632D01*
X116885990Y-132783411D01*
X116997932Y-132513158D01*
X117055000Y-132226260D01*
X117055000Y-131933740D01*
X116997932Y-131646842D01*
X116885990Y-131376589D01*
X116723475Y-131133368D01*
X116516632Y-130926525D01*
X116273411Y-130764010D01*
X116003158Y-130652068D01*
X115716260Y-130595000D01*
X115423740Y-130595000D01*
X115292061Y-130621193D01*
X113790868Y-129120000D01*
X114081928Y-129120000D01*
X114094188Y-129244482D01*
X114130498Y-129364180D01*
X114189463Y-129474494D01*
X114268815Y-129571185D01*
X114365506Y-129650537D01*
X114475820Y-129709502D01*
X114595518Y-129745812D01*
X114720000Y-129758072D01*
X115284250Y-129755000D01*
X115443000Y-129596250D01*
X115443000Y-128397000D01*
X115697000Y-128397000D01*
X115697000Y-129596250D01*
X115855750Y-129755000D01*
X116420000Y-129758072D01*
X116544482Y-129745812D01*
X116664180Y-129709502D01*
X116774494Y-129650537D01*
X116871185Y-129571185D01*
X116950537Y-129474494D01*
X117009502Y-129364180D01*
X117045812Y-129244482D01*
X117058072Y-129120000D01*
X117055000Y-128555750D01*
X116896250Y-128397000D01*
X115697000Y-128397000D01*
X115443000Y-128397000D01*
X114243750Y-128397000D01*
X114085000Y-128555750D01*
X114081928Y-129120000D01*
X113790868Y-129120000D01*
X110190132Y-125519264D01*
X110334637Y-125374759D01*
X110491680Y-125139727D01*
X110599853Y-124878574D01*
X110655000Y-124601335D01*
X110655000Y-124318665D01*
X110599853Y-124041426D01*
X110491680Y-123780273D01*
X110334637Y-123545241D01*
X110134759Y-123345363D01*
X109899727Y-123188320D01*
X109638574Y-123080147D01*
X109361335Y-123025000D01*
X109078665Y-123025000D01*
X108801426Y-123080147D01*
X108540273Y-123188320D01*
X108305241Y-123345363D01*
X108105363Y-123545241D01*
X107948320Y-123780273D01*
X107840147Y-124041426D01*
X107785000Y-124318665D01*
X105575000Y-124318665D01*
X105556285Y-124224582D01*
X107025868Y-122755000D01*
X111414133Y-122755000D01*
X114111193Y-125452061D01*
X114085000Y-125583740D01*
X114085000Y-125876260D01*
X114142068Y-126163158D01*
X114254010Y-126433411D01*
X114416525Y-126676632D01*
X114548380Y-126808487D01*
X114475820Y-126830498D01*
X114365506Y-126889463D01*
X114268815Y-126968815D01*
X114189463Y-127065506D01*
X114130498Y-127175820D01*
X114094188Y-127295518D01*
X114081928Y-127420000D01*
X114085000Y-127984250D01*
X114243750Y-128143000D01*
X115443000Y-128143000D01*
X115443000Y-128123000D01*
X115697000Y-128123000D01*
X115697000Y-128143000D01*
X116896250Y-128143000D01*
X117055000Y-127984250D01*
X117058072Y-127420000D01*
X117045812Y-127295518D01*
X117009502Y-127175820D01*
X116950537Y-127065506D01*
X116871185Y-126968815D01*
X116774494Y-126889463D01*
X116664180Y-126830498D01*
X116591620Y-126808487D01*
X116723475Y-126676632D01*
X116885990Y-126433411D01*
X116997932Y-126163158D01*
X117055000Y-125876260D01*
X117055000Y-125583740D01*
X116997932Y-125296842D01*
X116885990Y-125026589D01*
X116723475Y-124783368D01*
X116516632Y-124576525D01*
X116273411Y-124414010D01*
X116003158Y-124302068D01*
X115716260Y-124245000D01*
X115423740Y-124245000D01*
X115292061Y-124271193D01*
X112379446Y-121358579D01*
X112353291Y-121326709D01*
X112226146Y-121222364D01*
X112081087Y-121144828D01*
X111923689Y-121097082D01*
X111801019Y-121085000D01*
X111801018Y-121085000D01*
X111760000Y-121080960D01*
X111718982Y-121085000D01*
X106721007Y-121085000D01*
X106679999Y-121080961D01*
X106638991Y-121085000D01*
X106638981Y-121085000D01*
X106516311Y-121097082D01*
X106358913Y-121144828D01*
X106213854Y-121222364D01*
X106086709Y-121326709D01*
X106060559Y-121358573D01*
X104375418Y-123043715D01*
X104281335Y-123025000D01*
X103998665Y-123025000D01*
X103721426Y-123080147D01*
X103460273Y-123188320D01*
X103225241Y-123345363D01*
X103025363Y-123545241D01*
X102868320Y-123780273D01*
X102760147Y-124041426D01*
X102705000Y-124318665D01*
X92479533Y-124318665D01*
X86135867Y-117975000D01*
X90969869Y-117975000D01*
X93138009Y-120143141D01*
X93173551Y-120186449D01*
X93346377Y-120328284D01*
X93543553Y-120433676D01*
X93757501Y-120498577D01*
X93924248Y-120515000D01*
X93924257Y-120515000D01*
X93979999Y-120520490D01*
X94035741Y-120515000D01*
X130754249Y-120515000D01*
X130810000Y-120520491D01*
X130865751Y-120515000D01*
X139229869Y-120515000D01*
X145208009Y-126493141D01*
X145243551Y-126536449D01*
X145416377Y-126678284D01*
X145613553Y-126783676D01*
X145747076Y-126824180D01*
X145827500Y-126848577D01*
X146049999Y-126870491D01*
X146105751Y-126865000D01*
X149712317Y-126865000D01*
X149749463Y-126934494D01*
X149828815Y-127031185D01*
X149925506Y-127110537D01*
X150035820Y-127169502D01*
X150108380Y-127191513D01*
X149976525Y-127323368D01*
X149814010Y-127566589D01*
X149702068Y-127836842D01*
X149645000Y-128123740D01*
X149645000Y-128416260D01*
X149702068Y-128703158D01*
X149814010Y-128973411D01*
X149976525Y-129216632D01*
X150183368Y-129423475D01*
X150357760Y-129540000D01*
X150183368Y-129656525D01*
X149976525Y-129863368D01*
X149814010Y-130106589D01*
X149702068Y-130376842D01*
X149645000Y-130663740D01*
X149645000Y-130956260D01*
X149702068Y-131243158D01*
X149814010Y-131513411D01*
X149976525Y-131756632D01*
X150183368Y-131963475D01*
X150365534Y-132085195D01*
X150248645Y-132154822D01*
X150032412Y-132349731D01*
X149858359Y-132583080D01*
X149733175Y-132845901D01*
X149688524Y-132993110D01*
X149809845Y-133223000D01*
X151003000Y-133223000D01*
X151003000Y-133203000D01*
X151257000Y-133203000D01*
X151257000Y-133223000D01*
X152450155Y-133223000D01*
X152571476Y-132993110D01*
X152526825Y-132845901D01*
X152401641Y-132583080D01*
X152227588Y-132349731D01*
X152011355Y-132154822D01*
X151894466Y-132085195D01*
X152076632Y-131963475D01*
X152283475Y-131756632D01*
X152445990Y-131513411D01*
X152557932Y-131243158D01*
X152615000Y-130956260D01*
X152615000Y-130663740D01*
X152557932Y-130376842D01*
X152445990Y-130106589D01*
X152283475Y-129863368D01*
X152076632Y-129656525D01*
X151902240Y-129540000D01*
X152076632Y-129423475D01*
X152283475Y-129216632D01*
X152445990Y-128973411D01*
X152557932Y-128703158D01*
X152615000Y-128416260D01*
X152615000Y-128123740D01*
X152588807Y-127992061D01*
X152941429Y-127639439D01*
X152973292Y-127613290D01*
X153077637Y-127486145D01*
X153155173Y-127341086D01*
X153202919Y-127183688D01*
X153215001Y-127061018D01*
X153215001Y-127061008D01*
X153219040Y-127020000D01*
X153215001Y-126978992D01*
X153215001Y-121941019D01*
X153219041Y-121900001D01*
X153202919Y-121736312D01*
X153155173Y-121578914D01*
X153077637Y-121433855D01*
X152999440Y-121338571D01*
X152999438Y-121338569D01*
X152973292Y-121306710D01*
X152941433Y-121280564D01*
X143264093Y-111603226D01*
X143235226Y-111458102D01*
X143157205Y-111269744D01*
X143043937Y-111100226D01*
X142899774Y-110956063D01*
X142730256Y-110842795D01*
X142541898Y-110764774D01*
X142341939Y-110725000D01*
X142138061Y-110725000D01*
X141938102Y-110764774D01*
X141749744Y-110842795D01*
X141580226Y-110956063D01*
X141436063Y-111100226D01*
X141322795Y-111269744D01*
X141244774Y-111458102D01*
X141205000Y-111658061D01*
X141205000Y-111861939D01*
X141244774Y-112061898D01*
X141322795Y-112250256D01*
X141436063Y-112419774D01*
X141580226Y-112563937D01*
X141749744Y-112677205D01*
X141938102Y-112755226D01*
X142083226Y-112784093D01*
X151545002Y-122245871D01*
X151545002Y-124241928D01*
X150280000Y-124241928D01*
X150155518Y-124254188D01*
X150035820Y-124290498D01*
X149925506Y-124349463D01*
X149828815Y-124428815D01*
X149749463Y-124525506D01*
X149712317Y-124595000D01*
X146520132Y-124595000D01*
X140541996Y-118616865D01*
X140506449Y-118573551D01*
X140333623Y-118431716D01*
X140136447Y-118326324D01*
X139922499Y-118261423D01*
X139755752Y-118245000D01*
X139755751Y-118245000D01*
X139700000Y-118239509D01*
X139644249Y-118245000D01*
X133550131Y-118245000D01*
X137277060Y-114518072D01*
X138010000Y-114518072D01*
X138134482Y-114505812D01*
X138254180Y-114469502D01*
X138364494Y-114410537D01*
X138461185Y-114331185D01*
X138540537Y-114234494D01*
X138599502Y-114124180D01*
X138635812Y-114004482D01*
X138648072Y-113880000D01*
X138648072Y-112722795D01*
X142585869Y-108785000D01*
X149901935Y-108785000D01*
X149976525Y-108896632D01*
X150183368Y-109103475D01*
X150357760Y-109220000D01*
X150183368Y-109336525D01*
X149976525Y-109543368D01*
X149814010Y-109786589D01*
X149702068Y-110056842D01*
X149645000Y-110343740D01*
X149645000Y-110636260D01*
X149702068Y-110923158D01*
X149814010Y-111193411D01*
X149976525Y-111436632D01*
X150183368Y-111643475D01*
X150357760Y-111760000D01*
X150183368Y-111876525D01*
X149976525Y-112083368D01*
X149814010Y-112326589D01*
X149702068Y-112596842D01*
X149645000Y-112883740D01*
X149645000Y-113176260D01*
X149702068Y-113463158D01*
X149814010Y-113733411D01*
X149976525Y-113976632D01*
X150183368Y-114183475D01*
X150426589Y-114345990D01*
X150696842Y-114457932D01*
X150983740Y-114515000D01*
X151276260Y-114515000D01*
X151563158Y-114457932D01*
X151833411Y-114345990D01*
X152076632Y-114183475D01*
X152283475Y-113976632D01*
X152445990Y-113733411D01*
X152557932Y-113463158D01*
X152615000Y-113176260D01*
X152615000Y-112883740D01*
X152557932Y-112596842D01*
X152445990Y-112326589D01*
X152283475Y-112083368D01*
X152076632Y-111876525D01*
X151902240Y-111760000D01*
X152076632Y-111643475D01*
X152283475Y-111436632D01*
X152445990Y-111193411D01*
X152557932Y-110923158D01*
X152615000Y-110636260D01*
X152615000Y-110343740D01*
X152557932Y-110056842D01*
X152445990Y-109786589D01*
X152283475Y-109543368D01*
X152076632Y-109336525D01*
X151902240Y-109220000D01*
X152076632Y-109103475D01*
X152283475Y-108896632D01*
X152445990Y-108653411D01*
X152557932Y-108383158D01*
X152615000Y-108096260D01*
X152615000Y-107803740D01*
X152588807Y-107672060D01*
X155258620Y-105002249D01*
X155214774Y-105108102D01*
G36*
X117510558Y-102181426D02*
G01*
X117536708Y-102213290D01*
X117639484Y-102297636D01*
X117663853Y-102317635D01*
X117808912Y-102395171D01*
X117966310Y-102442917D01*
X118129999Y-102459039D01*
X118171017Y-102454999D01*
X135728456Y-102454999D01*
X135675000Y-102723740D01*
X135675000Y-103016260D01*
X135732068Y-103303158D01*
X135844010Y-103573411D01*
X136006525Y-103816632D01*
X136213368Y-104023475D01*
X136387760Y-104140000D01*
X136213368Y-104256525D01*
X136006525Y-104463368D01*
X135844010Y-104706589D01*
X135732068Y-104976842D01*
X135675000Y-105263740D01*
X135675000Y-105556260D01*
X135732068Y-105843158D01*
X135844010Y-106113411D01*
X136006525Y-106356632D01*
X136213368Y-106563475D01*
X136387760Y-106680000D01*
X136213368Y-106796525D01*
X136006525Y-107003368D01*
X135844010Y-107246589D01*
X135732068Y-107516842D01*
X135675000Y-107803740D01*
X135675000Y-108096260D01*
X135732068Y-108383158D01*
X135844010Y-108653411D01*
X136006525Y-108896632D01*
X136213368Y-109103475D01*
X136387760Y-109220000D01*
X136213368Y-109336525D01*
X136006525Y-109543368D01*
X135844010Y-109786589D01*
X135732068Y-110056842D01*
X135675000Y-110343740D01*
X135675000Y-110636260D01*
X135732068Y-110923158D01*
X135844010Y-111193411D01*
X136006525Y-111436632D01*
X136138380Y-111568487D01*
X136065820Y-111590498D01*
X135955506Y-111649463D01*
X135858815Y-111728815D01*
X135779463Y-111825506D01*
X135720498Y-111935820D01*
X135684188Y-112055518D01*
X135671928Y-112180000D01*
X135671928Y-112912940D01*
X130339869Y-118245000D01*
X94450132Y-118245000D01*
X92281996Y-116076865D01*
X92246449Y-116033551D01*
X92073623Y-115891716D01*
X91876447Y-115786324D01*
X91662499Y-115721423D01*
X91495752Y-115705000D01*
X91495751Y-115705000D01*
X91440000Y-115699509D01*
X91384249Y-115705000D01*
X87830131Y-115705000D01*
X91881429Y-111653702D01*
X91870960Y-111760000D01*
X91875001Y-111801029D01*
X91875000Y-113686715D01*
X91792795Y-113809744D01*
X91714774Y-113998102D01*
X91675000Y-114198061D01*
X91675000Y-114401939D01*
X91714774Y-114601898D01*
X91792795Y-114790256D01*
X91906063Y-114959774D01*
X92050226Y-115103937D01*
X92219744Y-115217205D01*
X92408102Y-115295226D01*
X92608061Y-115335000D01*
X92811939Y-115335000D01*
X93011898Y-115295226D01*
X93200256Y-115217205D01*
X93369774Y-115103937D01*
X93513937Y-114959774D01*
X93627205Y-114790256D01*
X93705226Y-114601898D01*
X93745000Y-114401939D01*
X93745000Y-114198061D01*
X93705226Y-113998102D01*
X93656307Y-113880000D01*
X110271928Y-113880000D01*
X110284188Y-114004482D01*
X110320498Y-114124180D01*
X110379463Y-114234494D01*
X110458815Y-114331185D01*
X110555506Y-114410537D01*
X110665820Y-114469502D01*
X110785518Y-114505812D01*
X110910000Y-114518072D01*
X111474250Y-114515000D01*
X111633000Y-114356250D01*
X111633000Y-113157000D01*
X111887000Y-113157000D01*
X111887000Y-114356250D01*
X112045750Y-114515000D01*
X112610000Y-114518072D01*
X112734482Y-114505812D01*
X112854180Y-114469502D01*
X112964494Y-114410537D01*
X113061185Y-114331185D01*
X113140537Y-114234494D01*
X113199502Y-114124180D01*
X113235812Y-114004482D01*
X113248072Y-113880000D01*
X113245000Y-113315750D01*
X113086250Y-113157000D01*
X111887000Y-113157000D01*
X111633000Y-113157000D01*
X110433750Y-113157000D01*
X110275000Y-113315750D01*
X110271928Y-113880000D01*
X93656307Y-113880000D01*
X93627205Y-113809744D01*
X93545000Y-113686715D01*
X93545000Y-112595000D01*
X100288982Y-112595000D01*
X100330000Y-112599040D01*
X100371018Y-112595000D01*
X100371019Y-112595000D01*
X100493689Y-112582918D01*
X100651087Y-112535172D01*
X100796146Y-112457636D01*
X100923291Y-112353291D01*
X100949446Y-112321421D01*
X110275000Y-102995868D01*
X110275000Y-103016260D01*
X110332068Y-103303158D01*
X110444010Y-103573411D01*
X110606525Y-103816632D01*
X110813368Y-104023475D01*
X110987760Y-104140000D01*
X110813368Y-104256525D01*
X110606525Y-104463368D01*
X110444010Y-104706589D01*
X110332068Y-104976842D01*
X110275000Y-105263740D01*
X110275000Y-105556260D01*
X110332068Y-105843158D01*
X110444010Y-106113411D01*
X110606525Y-106356632D01*
X110813368Y-106563475D01*
X110987760Y-106680000D01*
X110813368Y-106796525D01*
X110606525Y-107003368D01*
X110444010Y-107246589D01*
X110332068Y-107516842D01*
X110275000Y-107803740D01*
X110275000Y-108096260D01*
X110332068Y-108383158D01*
X110444010Y-108653411D01*
X110606525Y-108896632D01*
X110813368Y-109103475D01*
X110987760Y-109220000D01*
X110813368Y-109336525D01*
X110606525Y-109543368D01*
X110444010Y-109786589D01*
X110332068Y-110056842D01*
X110275000Y-110343740D01*
X110275000Y-110636260D01*
X110332068Y-110923158D01*
X110444010Y-111193411D01*
X110606525Y-111436632D01*
X110738380Y-111568487D01*
X110665820Y-111590498D01*
X110555506Y-111649463D01*
X110458815Y-111728815D01*
X110379463Y-111825506D01*
X110320498Y-111935820D01*
X110284188Y-112055518D01*
X110271928Y-112180000D01*
X110275000Y-112744250D01*
X110433750Y-112903000D01*
X111633000Y-112903000D01*
X111633000Y-112883000D01*
X111887000Y-112883000D01*
X111887000Y-112903000D01*
X113086250Y-112903000D01*
X113245000Y-112744250D01*
X113248072Y-112180000D01*
X113235812Y-112055518D01*
X113199502Y-111935820D01*
X113140537Y-111825506D01*
X113061185Y-111728815D01*
X112964494Y-111649463D01*
X112854180Y-111590498D01*
X112781620Y-111568487D01*
X112913475Y-111436632D01*
X113075990Y-111193411D01*
X113187932Y-110923158D01*
X113245000Y-110636260D01*
X113245000Y-110615868D01*
X114950563Y-112321432D01*
X114976709Y-112353291D01*
X115008568Y-112379437D01*
X115008570Y-112379439D01*
X115057719Y-112419774D01*
X115103854Y-112457636D01*
X115248913Y-112535172D01*
X115406311Y-112582918D01*
X115528981Y-112595000D01*
X115528982Y-112595000D01*
X115570000Y-112599040D01*
X115611018Y-112595000D01*
X118766715Y-112595000D01*
X118889744Y-112677205D01*
X119078102Y-112755226D01*
X119278061Y-112795000D01*
X119481939Y-112795000D01*
X119681898Y-112755226D01*
X119870256Y-112677205D01*
X120039774Y-112563937D01*
X120183937Y-112419774D01*
X120297205Y-112250256D01*
X120375226Y-112061898D01*
X120415000Y-111861939D01*
X120415000Y-111658061D01*
X120375226Y-111458102D01*
X120297205Y-111269744D01*
X120183937Y-111100226D01*
X120039774Y-110956063D01*
X119870256Y-110842795D01*
X119681898Y-110764774D01*
X119481939Y-110725000D01*
X119278061Y-110725000D01*
X119078102Y-110764774D01*
X118889744Y-110842795D01*
X118766715Y-110925000D01*
X115915869Y-110925000D01*
X113218807Y-108227940D01*
X113245000Y-108096260D01*
X113245000Y-107803740D01*
X113187932Y-107516842D01*
X113075990Y-107246589D01*
X112913475Y-107003368D01*
X112706632Y-106796525D01*
X112532240Y-106680000D01*
X112706632Y-106563475D01*
X112913475Y-106356632D01*
X113075990Y-106113411D01*
X113187932Y-105843158D01*
X113245000Y-105556260D01*
X113245000Y-105263740D01*
X113187932Y-104976842D01*
X113075990Y-104706589D01*
X112913475Y-104463368D01*
X112706632Y-104256525D01*
X112532240Y-104140000D01*
X112706632Y-104023475D01*
X112913475Y-103816632D01*
X113075990Y-103573411D01*
X113187932Y-103303158D01*
X113245000Y-103016260D01*
X113245000Y-102723740D01*
X113187932Y-102436842D01*
X113075990Y-102166589D01*
X112913475Y-101923368D01*
X112706632Y-101716525D01*
X112532240Y-101600000D01*
X112706632Y-101483475D01*
X112913475Y-101276632D01*
X113075990Y-101033411D01*
X113187932Y-100763158D01*
X113245000Y-100476260D01*
X113245000Y-100183740D01*
X113187932Y-99896842D01*
X113075990Y-99626589D01*
X112913475Y-99383368D01*
X112706632Y-99176525D01*
X112524466Y-99054805D01*
X112641355Y-98985178D01*
X112857588Y-98790269D01*
X113031641Y-98556920D01*
X113156825Y-98294099D01*
X113201476Y-98146890D01*
X113080156Y-97917002D01*
X113245000Y-97917002D01*
X113245000Y-97915867D01*
X117510558Y-102181426D01*
G37*
X117510558Y-102181426D02*
X117536708Y-102213290D01*
X117639484Y-102297636D01*
X117663853Y-102317635D01*
X117808912Y-102395171D01*
X117966310Y-102442917D01*
X118129999Y-102459039D01*
X118171017Y-102454999D01*
X135728456Y-102454999D01*
X135675000Y-102723740D01*
X135675000Y-103016260D01*
X135732068Y-103303158D01*
X135844010Y-103573411D01*
X136006525Y-103816632D01*
X136213368Y-104023475D01*
X136387760Y-104140000D01*
X136213368Y-104256525D01*
X136006525Y-104463368D01*
X135844010Y-104706589D01*
X135732068Y-104976842D01*
X135675000Y-105263740D01*
X135675000Y-105556260D01*
X135732068Y-105843158D01*
X135844010Y-106113411D01*
X136006525Y-106356632D01*
X136213368Y-106563475D01*
X136387760Y-106680000D01*
X136213368Y-106796525D01*
X136006525Y-107003368D01*
X135844010Y-107246589D01*
X135732068Y-107516842D01*
X135675000Y-107803740D01*
X135675000Y-108096260D01*
X135732068Y-108383158D01*
X135844010Y-108653411D01*
X136006525Y-108896632D01*
X136213368Y-109103475D01*
X136387760Y-109220000D01*
X136213368Y-109336525D01*
X136006525Y-109543368D01*
X135844010Y-109786589D01*
X135732068Y-110056842D01*
X135675000Y-110343740D01*
X135675000Y-110636260D01*
X135732068Y-110923158D01*
X135844010Y-111193411D01*
X136006525Y-111436632D01*
X136138380Y-111568487D01*
X136065820Y-111590498D01*
X135955506Y-111649463D01*
X135858815Y-111728815D01*
X135779463Y-111825506D01*
X135720498Y-111935820D01*
X135684188Y-112055518D01*
X135671928Y-112180000D01*
X135671928Y-112912940D01*
X130339869Y-118245000D01*
X94450132Y-118245000D01*
X92281996Y-116076865D01*
X92246449Y-116033551D01*
X92073623Y-115891716D01*
X91876447Y-115786324D01*
X91662499Y-115721423D01*
X91495752Y-115705000D01*
X91495751Y-115705000D01*
X91440000Y-115699509D01*
X91384249Y-115705000D01*
X87830131Y-115705000D01*
X91881429Y-111653702D01*
X91870960Y-111760000D01*
X91875001Y-111801029D01*
X91875000Y-113686715D01*
X91792795Y-113809744D01*
X91714774Y-113998102D01*
X91675000Y-114198061D01*
X91675000Y-114401939D01*
X91714774Y-114601898D01*
X91792795Y-114790256D01*
X91906063Y-114959774D01*
X92050226Y-115103937D01*
X92219744Y-115217205D01*
X92408102Y-115295226D01*
X92608061Y-115335000D01*
X92811939Y-115335000D01*
X93011898Y-115295226D01*
X93200256Y-115217205D01*
X93369774Y-115103937D01*
X93513937Y-114959774D01*
X93627205Y-114790256D01*
X93705226Y-114601898D01*
X93745000Y-114401939D01*
X93745000Y-114198061D01*
X93705226Y-113998102D01*
X93656307Y-113880000D01*
X110271928Y-113880000D01*
X110284188Y-114004482D01*
X110320498Y-114124180D01*
X110379463Y-114234494D01*
X110458815Y-114331185D01*
X110555506Y-114410537D01*
X110665820Y-114469502D01*
X110785518Y-114505812D01*
X110910000Y-114518072D01*
X111474250Y-114515000D01*
X111633000Y-114356250D01*
X111633000Y-113157000D01*
X111887000Y-113157000D01*
X111887000Y-114356250D01*
X112045750Y-114515000D01*
X112610000Y-114518072D01*
X112734482Y-114505812D01*
X112854180Y-114469502D01*
X112964494Y-114410537D01*
X113061185Y-114331185D01*
X113140537Y-114234494D01*
X113199502Y-114124180D01*
X113235812Y-114004482D01*
X113248072Y-113880000D01*
X113245000Y-113315750D01*
X113086250Y-113157000D01*
X111887000Y-113157000D01*
X111633000Y-113157000D01*
X110433750Y-113157000D01*
X110275000Y-113315750D01*
X110271928Y-113880000D01*
X93656307Y-113880000D01*
X93627205Y-113809744D01*
X93545000Y-113686715D01*
X93545000Y-112595000D01*
X100288982Y-112595000D01*
X100330000Y-112599040D01*
X100371018Y-112595000D01*
X100371019Y-112595000D01*
X100493689Y-112582918D01*
X100651087Y-112535172D01*
X100796146Y-112457636D01*
X100923291Y-112353291D01*
X100949446Y-112321421D01*
X110275000Y-102995868D01*
X110275000Y-103016260D01*
X110332068Y-103303158D01*
X110444010Y-103573411D01*
X110606525Y-103816632D01*
X110813368Y-104023475D01*
X110987760Y-104140000D01*
X110813368Y-104256525D01*
X110606525Y-104463368D01*
X110444010Y-104706589D01*
X110332068Y-104976842D01*
X110275000Y-105263740D01*
X110275000Y-105556260D01*
X110332068Y-105843158D01*
X110444010Y-106113411D01*
X110606525Y-106356632D01*
X110813368Y-106563475D01*
X110987760Y-106680000D01*
X110813368Y-106796525D01*
X110606525Y-107003368D01*
X110444010Y-107246589D01*
X110332068Y-107516842D01*
X110275000Y-107803740D01*
X110275000Y-108096260D01*
X110332068Y-108383158D01*
X110444010Y-108653411D01*
X110606525Y-108896632D01*
X110813368Y-109103475D01*
X110987760Y-109220000D01*
X110813368Y-109336525D01*
X110606525Y-109543368D01*
X110444010Y-109786589D01*
X110332068Y-110056842D01*
X110275000Y-110343740D01*
X110275000Y-110636260D01*
X110332068Y-110923158D01*
X110444010Y-111193411D01*
X110606525Y-111436632D01*
X110738380Y-111568487D01*
X110665820Y-111590498D01*
X110555506Y-111649463D01*
X110458815Y-111728815D01*
X110379463Y-111825506D01*
X110320498Y-111935820D01*
X110284188Y-112055518D01*
X110271928Y-112180000D01*
X110275000Y-112744250D01*
X110433750Y-112903000D01*
X111633000Y-112903000D01*
X111633000Y-112883000D01*
X111887000Y-112883000D01*
X111887000Y-112903000D01*
X113086250Y-112903000D01*
X113245000Y-112744250D01*
X113248072Y-112180000D01*
X113235812Y-112055518D01*
X113199502Y-111935820D01*
X113140537Y-111825506D01*
X113061185Y-111728815D01*
X112964494Y-111649463D01*
X112854180Y-111590498D01*
X112781620Y-111568487D01*
X112913475Y-111436632D01*
X113075990Y-111193411D01*
X113187932Y-110923158D01*
X113245000Y-110636260D01*
X113245000Y-110615868D01*
X114950563Y-112321432D01*
X114976709Y-112353291D01*
X115008568Y-112379437D01*
X115008570Y-112379439D01*
X115057719Y-112419774D01*
X115103854Y-112457636D01*
X115248913Y-112535172D01*
X115406311Y-112582918D01*
X115528981Y-112595000D01*
X115528982Y-112595000D01*
X115570000Y-112599040D01*
X115611018Y-112595000D01*
X118766715Y-112595000D01*
X118889744Y-112677205D01*
X119078102Y-112755226D01*
X119278061Y-112795000D01*
X119481939Y-112795000D01*
X119681898Y-112755226D01*
X119870256Y-112677205D01*
X120039774Y-112563937D01*
X120183937Y-112419774D01*
X120297205Y-112250256D01*
X120375226Y-112061898D01*
X120415000Y-111861939D01*
X120415000Y-111658061D01*
X120375226Y-111458102D01*
X120297205Y-111269744D01*
X120183937Y-111100226D01*
X120039774Y-110956063D01*
X119870256Y-110842795D01*
X119681898Y-110764774D01*
X119481939Y-110725000D01*
X119278061Y-110725000D01*
X119078102Y-110764774D01*
X118889744Y-110842795D01*
X118766715Y-110925000D01*
X115915869Y-110925000D01*
X113218807Y-108227940D01*
X113245000Y-108096260D01*
X113245000Y-107803740D01*
X113187932Y-107516842D01*
X113075990Y-107246589D01*
X112913475Y-107003368D01*
X112706632Y-106796525D01*
X112532240Y-106680000D01*
X112706632Y-106563475D01*
X112913475Y-106356632D01*
X113075990Y-106113411D01*
X113187932Y-105843158D01*
X113245000Y-105556260D01*
X113245000Y-105263740D01*
X113187932Y-104976842D01*
X113075990Y-104706589D01*
X112913475Y-104463368D01*
X112706632Y-104256525D01*
X112532240Y-104140000D01*
X112706632Y-104023475D01*
X112913475Y-103816632D01*
X113075990Y-103573411D01*
X113187932Y-103303158D01*
X113245000Y-103016260D01*
X113245000Y-102723740D01*
X113187932Y-102436842D01*
X113075990Y-102166589D01*
X112913475Y-101923368D01*
X112706632Y-101716525D01*
X112532240Y-101600000D01*
X112706632Y-101483475D01*
X112913475Y-101276632D01*
X113075990Y-101033411D01*
X113187932Y-100763158D01*
X113245000Y-100476260D01*
X113245000Y-100183740D01*
X113187932Y-99896842D01*
X113075990Y-99626589D01*
X112913475Y-99383368D01*
X112706632Y-99176525D01*
X112524466Y-99054805D01*
X112641355Y-98985178D01*
X112857588Y-98790269D01*
X113031641Y-98556920D01*
X113156825Y-98294099D01*
X113201476Y-98146890D01*
X113080156Y-97917002D01*
X113245000Y-97917002D01*
X113245000Y-97915867D01*
X117510558Y-102181426D01*
G36*
X106815001Y-84989867D02*
G01*
X103932941Y-87871928D01*
X103150000Y-87871928D01*
X103025518Y-87884188D01*
X102905820Y-87920498D01*
X102795506Y-87979463D01*
X102750000Y-88016809D01*
X102735000Y-88004499D01*
X102735000Y-84848072D01*
X103500000Y-84848072D01*
X103624482Y-84835812D01*
X103744180Y-84799502D01*
X103854494Y-84740537D01*
X103951185Y-84661185D01*
X104030537Y-84564494D01*
X104089502Y-84454180D01*
X104125812Y-84334482D01*
X104138072Y-84210000D01*
X104138072Y-82210000D01*
X104125812Y-82085518D01*
X104089502Y-81965820D01*
X104030537Y-81855506D01*
X103951185Y-81758815D01*
X103854494Y-81679463D01*
X103744180Y-81620498D01*
X103624482Y-81584188D01*
X103500000Y-81571928D01*
X99700000Y-81571928D01*
X99575518Y-81584188D01*
X99455820Y-81620498D01*
X99345506Y-81679463D01*
X99248815Y-81758815D01*
X99169463Y-81855506D01*
X99110498Y-81965820D01*
X99074188Y-82085518D01*
X99061928Y-82210000D01*
X99061928Y-84210000D01*
X99074188Y-84334482D01*
X99110498Y-84454180D01*
X99169463Y-84564494D01*
X99248815Y-84661185D01*
X99345506Y-84740537D01*
X99455820Y-84799502D01*
X99575518Y-84835812D01*
X99700000Y-84848072D01*
X100465001Y-84848072D01*
X100465000Y-88004498D01*
X100450000Y-88016809D01*
X100404494Y-87979463D01*
X100294180Y-87920498D01*
X100174482Y-87884188D01*
X100050000Y-87871928D01*
X99585750Y-87875000D01*
X99427000Y-88033750D01*
X99427000Y-89383000D01*
X99447000Y-89383000D01*
X99447000Y-89637000D01*
X99427000Y-89637000D01*
X99427000Y-90986250D01*
X99585750Y-91145000D01*
X100050000Y-91148072D01*
X100174482Y-91135812D01*
X100294180Y-91099502D01*
X100404494Y-91040537D01*
X100450000Y-91003191D01*
X100465000Y-91015502D01*
X100465001Y-97627942D01*
X100299488Y-97619783D01*
X100019870Y-97661213D01*
X99753708Y-97756397D01*
X99628486Y-97823329D01*
X99556903Y-98067298D01*
X100370000Y-98880395D01*
X100384143Y-98866253D01*
X100563748Y-99045858D01*
X100549605Y-99060000D01*
X100563748Y-99074143D01*
X100384143Y-99253748D01*
X100370000Y-99239605D01*
X99556903Y-100052702D01*
X99628486Y-100296671D01*
X99883996Y-100417571D01*
X99902627Y-100422241D01*
X84619869Y-115705000D01*
X83890957Y-115705000D01*
X83880537Y-115685506D01*
X83801185Y-115588815D01*
X83704494Y-115509463D01*
X83594180Y-115450498D01*
X83474482Y-115414188D01*
X83350000Y-115401928D01*
X81783203Y-115401928D01*
X84512429Y-112672702D01*
X85546903Y-112672702D01*
X85618486Y-112916671D01*
X85873996Y-113037571D01*
X86148184Y-113106300D01*
X86430512Y-113120217D01*
X86710130Y-113078787D01*
X86976292Y-112983603D01*
X87101514Y-112916671D01*
X87173097Y-112672702D01*
X86360000Y-111859605D01*
X85546903Y-112672702D01*
X84512429Y-112672702D01*
X84583141Y-112601991D01*
X84626449Y-112566449D01*
X84768284Y-112393623D01*
X84873676Y-112196447D01*
X84938577Y-111982499D01*
X84944798Y-111919340D01*
X84961213Y-112030130D01*
X85056397Y-112296292D01*
X85123329Y-112421514D01*
X85367298Y-112493097D01*
X86180395Y-111680000D01*
X86539605Y-111680000D01*
X87352702Y-112493097D01*
X87596671Y-112421514D01*
X87717571Y-112166004D01*
X87786300Y-111891816D01*
X87800217Y-111609488D01*
X87758787Y-111329870D01*
X87663603Y-111063708D01*
X87596671Y-110938486D01*
X87352702Y-110866903D01*
X86539605Y-111680000D01*
X86180395Y-111680000D01*
X85367298Y-110866903D01*
X85123329Y-110938486D01*
X85002429Y-111193996D01*
X84955000Y-111383210D01*
X84955000Y-110687298D01*
X85546903Y-110687298D01*
X86360000Y-111500395D01*
X87173097Y-110687298D01*
X87101514Y-110443329D01*
X86846004Y-110322429D01*
X86571816Y-110253700D01*
X86289488Y-110239783D01*
X86009870Y-110281213D01*
X85743708Y-110376397D01*
X85618486Y-110443329D01*
X85546903Y-110687298D01*
X84955000Y-110687298D01*
X84955000Y-109690131D01*
X86537282Y-108107850D01*
X86778574Y-108059853D01*
X87039727Y-107951680D01*
X87274759Y-107794637D01*
X87474637Y-107594759D01*
X87631680Y-107359727D01*
X87739853Y-107098574D01*
X87787850Y-106857282D01*
X89663141Y-104981991D01*
X89706449Y-104946449D01*
X89848284Y-104773623D01*
X89953676Y-104576447D01*
X90018577Y-104362499D01*
X90035000Y-104195752D01*
X90035000Y-104195743D01*
X90040490Y-104140001D01*
X90035000Y-104084259D01*
X90035000Y-100400957D01*
X90054494Y-100390537D01*
X90151185Y-100311185D01*
X90230537Y-100214494D01*
X90289502Y-100104180D01*
X90325812Y-99984482D01*
X90338072Y-99860000D01*
X90338072Y-99130512D01*
X98929783Y-99130512D01*
X98971213Y-99410130D01*
X99066397Y-99676292D01*
X99133329Y-99801514D01*
X99377298Y-99873097D01*
X100190395Y-99060000D01*
X99377298Y-98246903D01*
X99133329Y-98318486D01*
X99012429Y-98573996D01*
X98943700Y-98848184D01*
X98929783Y-99130512D01*
X90338072Y-99130512D01*
X90338072Y-98260000D01*
X90325812Y-98135518D01*
X90289502Y-98015820D01*
X90230537Y-97905506D01*
X90151185Y-97808815D01*
X90054494Y-97729463D01*
X90035000Y-97719043D01*
X90035000Y-92575000D01*
X94304247Y-92575000D01*
X94359998Y-92580491D01*
X94415749Y-92575000D01*
X94415750Y-92575000D01*
X94582497Y-92558577D01*
X94796445Y-92493676D01*
X94993621Y-92388284D01*
X95166447Y-92246449D01*
X95201994Y-92203136D01*
X96281987Y-91123143D01*
X96281991Y-91123138D01*
X96895129Y-90510000D01*
X97911928Y-90510000D01*
X97924188Y-90634482D01*
X97960498Y-90754180D01*
X98019463Y-90864494D01*
X98098815Y-90961185D01*
X98195506Y-91040537D01*
X98305820Y-91099502D01*
X98425518Y-91135812D01*
X98550000Y-91148072D01*
X99014250Y-91145000D01*
X99173000Y-90986250D01*
X99173000Y-89637000D01*
X98073750Y-89637000D01*
X97915000Y-89795750D01*
X97911928Y-90510000D01*
X96895129Y-90510000D01*
X97283140Y-90121990D01*
X97326449Y-90086447D01*
X97468284Y-89913621D01*
X97573676Y-89716445D01*
X97638577Y-89502497D01*
X97655000Y-89335750D01*
X97655000Y-89335749D01*
X97660491Y-89279999D01*
X97655000Y-89224247D01*
X97655000Y-88510000D01*
X97911928Y-88510000D01*
X97915000Y-89224250D01*
X98073750Y-89383000D01*
X99173000Y-89383000D01*
X99173000Y-88033750D01*
X99014250Y-87875000D01*
X98550000Y-87871928D01*
X98425518Y-87884188D01*
X98305820Y-87920498D01*
X98195506Y-87979463D01*
X98098815Y-88058815D01*
X98019463Y-88155506D01*
X97960498Y-88265820D01*
X97924188Y-88385518D01*
X97911928Y-88510000D01*
X97655000Y-88510000D01*
X97655000Y-81750131D01*
X98260132Y-81145000D01*
X104084249Y-81145000D01*
X104140000Y-81150491D01*
X104195751Y-81145000D01*
X104195752Y-81145000D01*
X104362499Y-81128577D01*
X104576447Y-81063676D01*
X104773623Y-80958284D01*
X104946449Y-80816449D01*
X104981996Y-80773135D01*
X106815000Y-78940132D01*
X106815001Y-84989867D01*
G37*
X106815001Y-84989867D02*
X103932941Y-87871928D01*
X103150000Y-87871928D01*
X103025518Y-87884188D01*
X102905820Y-87920498D01*
X102795506Y-87979463D01*
X102750000Y-88016809D01*
X102735000Y-88004499D01*
X102735000Y-84848072D01*
X103500000Y-84848072D01*
X103624482Y-84835812D01*
X103744180Y-84799502D01*
X103854494Y-84740537D01*
X103951185Y-84661185D01*
X104030537Y-84564494D01*
X104089502Y-84454180D01*
X104125812Y-84334482D01*
X104138072Y-84210000D01*
X104138072Y-82210000D01*
X104125812Y-82085518D01*
X104089502Y-81965820D01*
X104030537Y-81855506D01*
X103951185Y-81758815D01*
X103854494Y-81679463D01*
X103744180Y-81620498D01*
X103624482Y-81584188D01*
X103500000Y-81571928D01*
X99700000Y-81571928D01*
X99575518Y-81584188D01*
X99455820Y-81620498D01*
X99345506Y-81679463D01*
X99248815Y-81758815D01*
X99169463Y-81855506D01*
X99110498Y-81965820D01*
X99074188Y-82085518D01*
X99061928Y-82210000D01*
X99061928Y-84210000D01*
X99074188Y-84334482D01*
X99110498Y-84454180D01*
X99169463Y-84564494D01*
X99248815Y-84661185D01*
X99345506Y-84740537D01*
X99455820Y-84799502D01*
X99575518Y-84835812D01*
X99700000Y-84848072D01*
X100465001Y-84848072D01*
X100465000Y-88004498D01*
X100450000Y-88016809D01*
X100404494Y-87979463D01*
X100294180Y-87920498D01*
X100174482Y-87884188D01*
X100050000Y-87871928D01*
X99585750Y-87875000D01*
X99427000Y-88033750D01*
X99427000Y-89383000D01*
X99447000Y-89383000D01*
X99447000Y-89637000D01*
X99427000Y-89637000D01*
X99427000Y-90986250D01*
X99585750Y-91145000D01*
X100050000Y-91148072D01*
X100174482Y-91135812D01*
X100294180Y-91099502D01*
X100404494Y-91040537D01*
X100450000Y-91003191D01*
X100465000Y-91015502D01*
X100465001Y-97627942D01*
X100299488Y-97619783D01*
X100019870Y-97661213D01*
X99753708Y-97756397D01*
X99628486Y-97823329D01*
X99556903Y-98067298D01*
X100370000Y-98880395D01*
X100384143Y-98866253D01*
X100563748Y-99045858D01*
X100549605Y-99060000D01*
X100563748Y-99074143D01*
X100384143Y-99253748D01*
X100370000Y-99239605D01*
X99556903Y-100052702D01*
X99628486Y-100296671D01*
X99883996Y-100417571D01*
X99902627Y-100422241D01*
X84619869Y-115705000D01*
X83890957Y-115705000D01*
X83880537Y-115685506D01*
X83801185Y-115588815D01*
X83704494Y-115509463D01*
X83594180Y-115450498D01*
X83474482Y-115414188D01*
X83350000Y-115401928D01*
X81783203Y-115401928D01*
X84512429Y-112672702D01*
X85546903Y-112672702D01*
X85618486Y-112916671D01*
X85873996Y-113037571D01*
X86148184Y-113106300D01*
X86430512Y-113120217D01*
X86710130Y-113078787D01*
X86976292Y-112983603D01*
X87101514Y-112916671D01*
X87173097Y-112672702D01*
X86360000Y-111859605D01*
X85546903Y-112672702D01*
X84512429Y-112672702D01*
X84583141Y-112601991D01*
X84626449Y-112566449D01*
X84768284Y-112393623D01*
X84873676Y-112196447D01*
X84938577Y-111982499D01*
X84944798Y-111919340D01*
X84961213Y-112030130D01*
X85056397Y-112296292D01*
X85123329Y-112421514D01*
X85367298Y-112493097D01*
X86180395Y-111680000D01*
X86539605Y-111680000D01*
X87352702Y-112493097D01*
X87596671Y-112421514D01*
X87717571Y-112166004D01*
X87786300Y-111891816D01*
X87800217Y-111609488D01*
X87758787Y-111329870D01*
X87663603Y-111063708D01*
X87596671Y-110938486D01*
X87352702Y-110866903D01*
X86539605Y-111680000D01*
X86180395Y-111680000D01*
X85367298Y-110866903D01*
X85123329Y-110938486D01*
X85002429Y-111193996D01*
X84955000Y-111383210D01*
X84955000Y-110687298D01*
X85546903Y-110687298D01*
X86360000Y-111500395D01*
X87173097Y-110687298D01*
X87101514Y-110443329D01*
X86846004Y-110322429D01*
X86571816Y-110253700D01*
X86289488Y-110239783D01*
X86009870Y-110281213D01*
X85743708Y-110376397D01*
X85618486Y-110443329D01*
X85546903Y-110687298D01*
X84955000Y-110687298D01*
X84955000Y-109690131D01*
X86537282Y-108107850D01*
X86778574Y-108059853D01*
X87039727Y-107951680D01*
X87274759Y-107794637D01*
X87474637Y-107594759D01*
X87631680Y-107359727D01*
X87739853Y-107098574D01*
X87787850Y-106857282D01*
X89663141Y-104981991D01*
X89706449Y-104946449D01*
X89848284Y-104773623D01*
X89953676Y-104576447D01*
X90018577Y-104362499D01*
X90035000Y-104195752D01*
X90035000Y-104195743D01*
X90040490Y-104140001D01*
X90035000Y-104084259D01*
X90035000Y-100400957D01*
X90054494Y-100390537D01*
X90151185Y-100311185D01*
X90230537Y-100214494D01*
X90289502Y-100104180D01*
X90325812Y-99984482D01*
X90338072Y-99860000D01*
X90338072Y-99130512D01*
X98929783Y-99130512D01*
X98971213Y-99410130D01*
X99066397Y-99676292D01*
X99133329Y-99801514D01*
X99377298Y-99873097D01*
X100190395Y-99060000D01*
X99377298Y-98246903D01*
X99133329Y-98318486D01*
X99012429Y-98573996D01*
X98943700Y-98848184D01*
X98929783Y-99130512D01*
X90338072Y-99130512D01*
X90338072Y-98260000D01*
X90325812Y-98135518D01*
X90289502Y-98015820D01*
X90230537Y-97905506D01*
X90151185Y-97808815D01*
X90054494Y-97729463D01*
X90035000Y-97719043D01*
X90035000Y-92575000D01*
X94304247Y-92575000D01*
X94359998Y-92580491D01*
X94415749Y-92575000D01*
X94415750Y-92575000D01*
X94582497Y-92558577D01*
X94796445Y-92493676D01*
X94993621Y-92388284D01*
X95166447Y-92246449D01*
X95201994Y-92203136D01*
X96281987Y-91123143D01*
X96281991Y-91123138D01*
X96895129Y-90510000D01*
X97911928Y-90510000D01*
X97924188Y-90634482D01*
X97960498Y-90754180D01*
X98019463Y-90864494D01*
X98098815Y-90961185D01*
X98195506Y-91040537D01*
X98305820Y-91099502D01*
X98425518Y-91135812D01*
X98550000Y-91148072D01*
X99014250Y-91145000D01*
X99173000Y-90986250D01*
X99173000Y-89637000D01*
X98073750Y-89637000D01*
X97915000Y-89795750D01*
X97911928Y-90510000D01*
X96895129Y-90510000D01*
X97283140Y-90121990D01*
X97326449Y-90086447D01*
X97468284Y-89913621D01*
X97573676Y-89716445D01*
X97638577Y-89502497D01*
X97655000Y-89335750D01*
X97655000Y-89335749D01*
X97660491Y-89279999D01*
X97655000Y-89224247D01*
X97655000Y-88510000D01*
X97911928Y-88510000D01*
X97915000Y-89224250D01*
X98073750Y-89383000D01*
X99173000Y-89383000D01*
X99173000Y-88033750D01*
X99014250Y-87875000D01*
X98550000Y-87871928D01*
X98425518Y-87884188D01*
X98305820Y-87920498D01*
X98195506Y-87979463D01*
X98098815Y-88058815D01*
X98019463Y-88155506D01*
X97960498Y-88265820D01*
X97924188Y-88385518D01*
X97911928Y-88510000D01*
X97655000Y-88510000D01*
X97655000Y-81750131D01*
X98260132Y-81145000D01*
X104084249Y-81145000D01*
X104140000Y-81150491D01*
X104195751Y-81145000D01*
X104195752Y-81145000D01*
X104362499Y-81128577D01*
X104576447Y-81063676D01*
X104773623Y-80958284D01*
X104946449Y-80816449D01*
X104981996Y-80773135D01*
X106815000Y-78940132D01*
X106815001Y-84989867D01*
G36*
X111056589Y-65994010D02*
G01*
X110813368Y-66156525D01*
X110606525Y-66363368D01*
X110444010Y-66606589D01*
X110332068Y-66876842D01*
X110275000Y-67163740D01*
X110275000Y-67456260D01*
X110332068Y-67743158D01*
X110444010Y-68013411D01*
X110606525Y-68256632D01*
X110813368Y-68463475D01*
X110987760Y-68580000D01*
X110813368Y-68696525D01*
X110606525Y-68903368D01*
X110444010Y-69146589D01*
X110332068Y-69416842D01*
X110275000Y-69703740D01*
X110275000Y-69996260D01*
X110332068Y-70283158D01*
X110444010Y-70553411D01*
X110606525Y-70796632D01*
X110813368Y-71003475D01*
X110987760Y-71120000D01*
X110813368Y-71236525D01*
X110606525Y-71443368D01*
X110444010Y-71686589D01*
X110332068Y-71956842D01*
X110275000Y-72243740D01*
X110275000Y-72536260D01*
X110332068Y-72823158D01*
X110444010Y-73093411D01*
X110606525Y-73336632D01*
X110813368Y-73543475D01*
X110987760Y-73660000D01*
X110813368Y-73776525D01*
X110606525Y-73983368D01*
X110444010Y-74226589D01*
X110332068Y-74496842D01*
X110275000Y-74783740D01*
X110275000Y-75076260D01*
X110332068Y-75363158D01*
X110444010Y-75633411D01*
X110606525Y-75876632D01*
X110813368Y-76083475D01*
X110987760Y-76200000D01*
X110813368Y-76316525D01*
X110606525Y-76523368D01*
X110444010Y-76766589D01*
X110332068Y-77036842D01*
X110275000Y-77323740D01*
X110275000Y-77616260D01*
X110332068Y-77903158D01*
X110444010Y-78173411D01*
X110606525Y-78416632D01*
X110813368Y-78623475D01*
X110987760Y-78740000D01*
X110813368Y-78856525D01*
X110606525Y-79063368D01*
X110444010Y-79306589D01*
X110332068Y-79576842D01*
X110275000Y-79863740D01*
X110275000Y-80156260D01*
X110332068Y-80443158D01*
X110444010Y-80713411D01*
X110606525Y-80956632D01*
X110813368Y-81163475D01*
X110987760Y-81280000D01*
X110813368Y-81396525D01*
X110606525Y-81603368D01*
X110444010Y-81846589D01*
X110332068Y-82116842D01*
X110275000Y-82403740D01*
X110275000Y-82696260D01*
X110332068Y-82983158D01*
X110444010Y-83253411D01*
X110606525Y-83496632D01*
X110813368Y-83703475D01*
X110987760Y-83820000D01*
X110813368Y-83936525D01*
X110606525Y-84143368D01*
X110444010Y-84386589D01*
X110332068Y-84656842D01*
X110275000Y-84943740D01*
X110275000Y-85236260D01*
X110332068Y-85523158D01*
X110444010Y-85793411D01*
X110606525Y-86036632D01*
X110813368Y-86243475D01*
X110987760Y-86360000D01*
X110813368Y-86476525D01*
X110606525Y-86683368D01*
X110444010Y-86926589D01*
X110332068Y-87196842D01*
X110275000Y-87483740D01*
X110275000Y-87776260D01*
X110332068Y-88063158D01*
X110444010Y-88333411D01*
X110606525Y-88576632D01*
X110813368Y-88783475D01*
X110987760Y-88900000D01*
X110813368Y-89016525D01*
X110606525Y-89223368D01*
X110444010Y-89466589D01*
X110332068Y-89736842D01*
X110275000Y-90023740D01*
X110275000Y-90316260D01*
X110332068Y-90603158D01*
X110444010Y-90873411D01*
X110606525Y-91116632D01*
X110813368Y-91323475D01*
X110987760Y-91440000D01*
X110813368Y-91556525D01*
X110606525Y-91763368D01*
X110444010Y-92006589D01*
X110332068Y-92276842D01*
X110275000Y-92563740D01*
X110275000Y-92856260D01*
X110332068Y-93143158D01*
X110444010Y-93413411D01*
X110606525Y-93656632D01*
X110813368Y-93863475D01*
X110987760Y-93980000D01*
X110813368Y-94096525D01*
X110606525Y-94303368D01*
X110444010Y-94546589D01*
X110332068Y-94816842D01*
X110275000Y-95103740D01*
X110275000Y-95396260D01*
X110332068Y-95683158D01*
X110444010Y-95953411D01*
X110606525Y-96196632D01*
X110813368Y-96403475D01*
X110995534Y-96525195D01*
X110878645Y-96594822D01*
X110662412Y-96789731D01*
X110488359Y-97023080D01*
X110363175Y-97285901D01*
X110318524Y-97433110D01*
X110439845Y-97663000D01*
X111633000Y-97663000D01*
X111633000Y-97643000D01*
X111887000Y-97643000D01*
X111887000Y-97663000D01*
X111907000Y-97663000D01*
X111907000Y-97917000D01*
X111887000Y-97917000D01*
X111887000Y-97937000D01*
X111633000Y-97937000D01*
X111633000Y-97917000D01*
X110439845Y-97917000D01*
X110318524Y-98146890D01*
X110363175Y-98294099D01*
X110488359Y-98556920D01*
X110662412Y-98790269D01*
X110878645Y-98985178D01*
X110995534Y-99054805D01*
X110813368Y-99176525D01*
X110606525Y-99383368D01*
X110444010Y-99626589D01*
X110332068Y-99896842D01*
X110275000Y-100183740D01*
X110275000Y-100476260D01*
X110301193Y-100607939D01*
X99984133Y-110925000D01*
X92751019Y-110925000D01*
X92710000Y-110920960D01*
X92668982Y-110925000D01*
X92668981Y-110925000D01*
X92603702Y-110931429D01*
X103037060Y-100498072D01*
X103670000Y-100498072D01*
X103794482Y-100485812D01*
X103914180Y-100449502D01*
X104024494Y-100390537D01*
X104121185Y-100311185D01*
X104200537Y-100214494D01*
X104259502Y-100104180D01*
X104295812Y-99984482D01*
X104308072Y-99860000D01*
X104308072Y-98260000D01*
X104295812Y-98135518D01*
X104259502Y-98015820D01*
X104200537Y-97905506D01*
X104121185Y-97808815D01*
X104024494Y-97729463D01*
X103914180Y-97670498D01*
X103794482Y-97634188D01*
X103670000Y-97621928D01*
X103037059Y-97621928D01*
X102735000Y-97319869D01*
X102735000Y-91015501D01*
X102750000Y-91003191D01*
X102795506Y-91040537D01*
X102905820Y-91099502D01*
X103025518Y-91135812D01*
X103150000Y-91148072D01*
X104650000Y-91148072D01*
X104774482Y-91135812D01*
X104894180Y-91099502D01*
X105004494Y-91040537D01*
X105101185Y-90961185D01*
X105180537Y-90864494D01*
X105239502Y-90754180D01*
X105275812Y-90634482D01*
X105288072Y-90510000D01*
X105288072Y-89727059D01*
X108713141Y-86301991D01*
X108756449Y-86266449D01*
X108898284Y-86093623D01*
X109003676Y-85896447D01*
X109068577Y-85682499D01*
X109085000Y-85515752D01*
X109090491Y-85460000D01*
X109085000Y-85404249D01*
X109085000Y-77084284D01*
X109221680Y-76879727D01*
X109329853Y-76618574D01*
X109385000Y-76341335D01*
X109385000Y-76058665D01*
X109329853Y-75781426D01*
X109221680Y-75520273D01*
X109085000Y-75315716D01*
X109085000Y-67780131D01*
X110960132Y-65905000D01*
X111271479Y-65905000D01*
X111056589Y-65994010D01*
G37*
X111056589Y-65994010D02*
X110813368Y-66156525D01*
X110606525Y-66363368D01*
X110444010Y-66606589D01*
X110332068Y-66876842D01*
X110275000Y-67163740D01*
X110275000Y-67456260D01*
X110332068Y-67743158D01*
X110444010Y-68013411D01*
X110606525Y-68256632D01*
X110813368Y-68463475D01*
X110987760Y-68580000D01*
X110813368Y-68696525D01*
X110606525Y-68903368D01*
X110444010Y-69146589D01*
X110332068Y-69416842D01*
X110275000Y-69703740D01*
X110275000Y-69996260D01*
X110332068Y-70283158D01*
X110444010Y-70553411D01*
X110606525Y-70796632D01*
X110813368Y-71003475D01*
X110987760Y-71120000D01*
X110813368Y-71236525D01*
X110606525Y-71443368D01*
X110444010Y-71686589D01*
X110332068Y-71956842D01*
X110275000Y-72243740D01*
X110275000Y-72536260D01*
X110332068Y-72823158D01*
X110444010Y-73093411D01*
X110606525Y-73336632D01*
X110813368Y-73543475D01*
X110987760Y-73660000D01*
X110813368Y-73776525D01*
X110606525Y-73983368D01*
X110444010Y-74226589D01*
X110332068Y-74496842D01*
X110275000Y-74783740D01*
X110275000Y-75076260D01*
X110332068Y-75363158D01*
X110444010Y-75633411D01*
X110606525Y-75876632D01*
X110813368Y-76083475D01*
X110987760Y-76200000D01*
X110813368Y-76316525D01*
X110606525Y-76523368D01*
X110444010Y-76766589D01*
X110332068Y-77036842D01*
X110275000Y-77323740D01*
X110275000Y-77616260D01*
X110332068Y-77903158D01*
X110444010Y-78173411D01*
X110606525Y-78416632D01*
X110813368Y-78623475D01*
X110987760Y-78740000D01*
X110813368Y-78856525D01*
X110606525Y-79063368D01*
X110444010Y-79306589D01*
X110332068Y-79576842D01*
X110275000Y-79863740D01*
X110275000Y-80156260D01*
X110332068Y-80443158D01*
X110444010Y-80713411D01*
X110606525Y-80956632D01*
X110813368Y-81163475D01*
X110987760Y-81280000D01*
X110813368Y-81396525D01*
X110606525Y-81603368D01*
X110444010Y-81846589D01*
X110332068Y-82116842D01*
X110275000Y-82403740D01*
X110275000Y-82696260D01*
X110332068Y-82983158D01*
X110444010Y-83253411D01*
X110606525Y-83496632D01*
X110813368Y-83703475D01*
X110987760Y-83820000D01*
X110813368Y-83936525D01*
X110606525Y-84143368D01*
X110444010Y-84386589D01*
X110332068Y-84656842D01*
X110275000Y-84943740D01*
X110275000Y-85236260D01*
X110332068Y-85523158D01*
X110444010Y-85793411D01*
X110606525Y-86036632D01*
X110813368Y-86243475D01*
X110987760Y-86360000D01*
X110813368Y-86476525D01*
X110606525Y-86683368D01*
X110444010Y-86926589D01*
X110332068Y-87196842D01*
X110275000Y-87483740D01*
X110275000Y-87776260D01*
X110332068Y-88063158D01*
X110444010Y-88333411D01*
X110606525Y-88576632D01*
X110813368Y-88783475D01*
X110987760Y-88900000D01*
X110813368Y-89016525D01*
X110606525Y-89223368D01*
X110444010Y-89466589D01*
X110332068Y-89736842D01*
X110275000Y-90023740D01*
X110275000Y-90316260D01*
X110332068Y-90603158D01*
X110444010Y-90873411D01*
X110606525Y-91116632D01*
X110813368Y-91323475D01*
X110987760Y-91440000D01*
X110813368Y-91556525D01*
X110606525Y-91763368D01*
X110444010Y-92006589D01*
X110332068Y-92276842D01*
X110275000Y-92563740D01*
X110275000Y-92856260D01*
X110332068Y-93143158D01*
X110444010Y-93413411D01*
X110606525Y-93656632D01*
X110813368Y-93863475D01*
X110987760Y-93980000D01*
X110813368Y-94096525D01*
X110606525Y-94303368D01*
X110444010Y-94546589D01*
X110332068Y-94816842D01*
X110275000Y-95103740D01*
X110275000Y-95396260D01*
X110332068Y-95683158D01*
X110444010Y-95953411D01*
X110606525Y-96196632D01*
X110813368Y-96403475D01*
X110995534Y-96525195D01*
X110878645Y-96594822D01*
X110662412Y-96789731D01*
X110488359Y-97023080D01*
X110363175Y-97285901D01*
X110318524Y-97433110D01*
X110439845Y-97663000D01*
X111633000Y-97663000D01*
X111633000Y-97643000D01*
X111887000Y-97643000D01*
X111887000Y-97663000D01*
X111907000Y-97663000D01*
X111907000Y-97917000D01*
X111887000Y-97917000D01*
X111887000Y-97937000D01*
X111633000Y-97937000D01*
X111633000Y-97917000D01*
X110439845Y-97917000D01*
X110318524Y-98146890D01*
X110363175Y-98294099D01*
X110488359Y-98556920D01*
X110662412Y-98790269D01*
X110878645Y-98985178D01*
X110995534Y-99054805D01*
X110813368Y-99176525D01*
X110606525Y-99383368D01*
X110444010Y-99626589D01*
X110332068Y-99896842D01*
X110275000Y-100183740D01*
X110275000Y-100476260D01*
X110301193Y-100607939D01*
X99984133Y-110925000D01*
X92751019Y-110925000D01*
X92710000Y-110920960D01*
X92668982Y-110925000D01*
X92668981Y-110925000D01*
X92603702Y-110931429D01*
X103037060Y-100498072D01*
X103670000Y-100498072D01*
X103794482Y-100485812D01*
X103914180Y-100449502D01*
X104024494Y-100390537D01*
X104121185Y-100311185D01*
X104200537Y-100214494D01*
X104259502Y-100104180D01*
X104295812Y-99984482D01*
X104308072Y-99860000D01*
X104308072Y-98260000D01*
X104295812Y-98135518D01*
X104259502Y-98015820D01*
X104200537Y-97905506D01*
X104121185Y-97808815D01*
X104024494Y-97729463D01*
X103914180Y-97670498D01*
X103794482Y-97634188D01*
X103670000Y-97621928D01*
X103037059Y-97621928D01*
X102735000Y-97319869D01*
X102735000Y-91015501D01*
X102750000Y-91003191D01*
X102795506Y-91040537D01*
X102905820Y-91099502D01*
X103025518Y-91135812D01*
X103150000Y-91148072D01*
X104650000Y-91148072D01*
X104774482Y-91135812D01*
X104894180Y-91099502D01*
X105004494Y-91040537D01*
X105101185Y-90961185D01*
X105180537Y-90864494D01*
X105239502Y-90754180D01*
X105275812Y-90634482D01*
X105288072Y-90510000D01*
X105288072Y-89727059D01*
X108713141Y-86301991D01*
X108756449Y-86266449D01*
X108898284Y-86093623D01*
X109003676Y-85896447D01*
X109068577Y-85682499D01*
X109085000Y-85515752D01*
X109090491Y-85460000D01*
X109085000Y-85404249D01*
X109085000Y-77084284D01*
X109221680Y-76879727D01*
X109329853Y-76618574D01*
X109385000Y-76341335D01*
X109385000Y-76058665D01*
X109329853Y-75781426D01*
X109221680Y-75520273D01*
X109085000Y-75315716D01*
X109085000Y-67780131D01*
X110960132Y-65905000D01*
X111271479Y-65905000D01*
X111056589Y-65994010D01*
M02*
