G04 #@! TF.GenerationSoftware,KiCad,Pcbnew,5.1.6-c6e7f7d~86~ubuntu18.04.1*
G04 #@! TF.CreationDate,2020-06-24T19:05:53+01:00*
G04 #@! TF.ProjectId,placa_modular,706c6163-615f-46d6-9f64-756c61722e6b,V1.0*
G04 #@! TF.SameCoordinates,Original*
G04 #@! TF.FileFunction,Legend,Top*
G04 #@! TF.FilePolarity,Positive*
%FSLAX46Y46*%
G04 Gerber Fmt 4.6, Leading zero omitted, Abs format (unit mm)*
G04 Created by KiCad (PCBNEW 5.1.6-c6e7f7d~86~ubuntu18.04.1) date 2020-06-24 19:05:53*
%MOMM*%
%LPD*%
G01*
G04 APERTURE LIST*
%ADD10C,0.187500*%
%ADD11C,0.150000*%
%ADD12C,0.120000*%
G04 APERTURE END LIST*
D10*
X104445714Y-91493571D02*
X105017142Y-91493571D01*
X104731428Y-91779285D02*
X104731428Y-91207857D01*
X105731428Y-91029285D02*
X105374285Y-91029285D01*
X105338571Y-91386428D01*
X105374285Y-91350714D01*
X105445714Y-91315000D01*
X105624285Y-91315000D01*
X105695714Y-91350714D01*
X105731428Y-91386428D01*
X105767142Y-91457857D01*
X105767142Y-91636428D01*
X105731428Y-91707857D01*
X105695714Y-91743571D01*
X105624285Y-91779285D01*
X105445714Y-91779285D01*
X105374285Y-91743571D01*
X105338571Y-91707857D01*
X105981428Y-91029285D02*
X106231428Y-91779285D01*
X106481428Y-91029285D01*
D11*
X76608333Y-125924166D02*
X77691666Y-125924166D01*
X77108333Y-126590833D01*
X77358333Y-126590833D01*
X77525000Y-126674166D01*
X77608333Y-126757500D01*
X77691666Y-126924166D01*
X77691666Y-127340833D01*
X77608333Y-127507500D01*
X77525000Y-127590833D01*
X77358333Y-127674166D01*
X76858333Y-127674166D01*
X76691666Y-127590833D01*
X76608333Y-127507500D01*
X78441666Y-127674166D02*
X78441666Y-125924166D01*
X78858333Y-125924166D01*
X79108333Y-126007500D01*
X79275000Y-126174166D01*
X79358333Y-126340833D01*
X79441666Y-126674166D01*
X79441666Y-126924166D01*
X79358333Y-127257500D01*
X79275000Y-127424166D01*
X79108333Y-127590833D01*
X78858333Y-127674166D01*
X78441666Y-127674166D01*
X81525000Y-127674166D02*
X81525000Y-125924166D01*
X82358333Y-126507500D02*
X82358333Y-127674166D01*
X82358333Y-126674166D02*
X82441666Y-126590833D01*
X82608333Y-126507500D01*
X82858333Y-126507500D01*
X83025000Y-126590833D01*
X83108333Y-126757500D01*
X83108333Y-127674166D01*
X84691666Y-127674166D02*
X84691666Y-125924166D01*
X84691666Y-127590833D02*
X84525000Y-127674166D01*
X84191666Y-127674166D01*
X84025000Y-127590833D01*
X83941666Y-127507500D01*
X83858333Y-127340833D01*
X83858333Y-126840833D01*
X83941666Y-126674166D01*
X84025000Y-126590833D01*
X84191666Y-126507500D01*
X84525000Y-126507500D01*
X84691666Y-126590833D01*
X85775000Y-127674166D02*
X85608333Y-127590833D01*
X85525000Y-127507500D01*
X85441666Y-127340833D01*
X85441666Y-126840833D01*
X85525000Y-126674166D01*
X85608333Y-126590833D01*
X85775000Y-126507500D01*
X86025000Y-126507500D01*
X86191666Y-126590833D01*
X86275000Y-126674166D01*
X86358333Y-126840833D01*
X86358333Y-127340833D01*
X86275000Y-127507500D01*
X86191666Y-127590833D01*
X86025000Y-127674166D01*
X85775000Y-127674166D01*
X87358333Y-127674166D02*
X87191666Y-127590833D01*
X87108333Y-127507500D01*
X87025000Y-127340833D01*
X87025000Y-126840833D01*
X87108333Y-126674166D01*
X87191666Y-126590833D01*
X87358333Y-126507500D01*
X87608333Y-126507500D01*
X87775000Y-126590833D01*
X87858333Y-126674166D01*
X87941666Y-126840833D01*
X87941666Y-127340833D01*
X87858333Y-127507500D01*
X87775000Y-127590833D01*
X87608333Y-127674166D01*
X87358333Y-127674166D01*
X88691666Y-127674166D02*
X88691666Y-126507500D01*
X88691666Y-126840833D02*
X88775000Y-126674166D01*
X88858333Y-126590833D01*
X89025000Y-126507500D01*
X89191666Y-126507500D01*
X91108333Y-127674166D02*
X91108333Y-125924166D01*
X91691666Y-127174166D01*
X92275000Y-125924166D01*
X92275000Y-127674166D01*
X93858333Y-127674166D02*
X93858333Y-126757500D01*
X93775000Y-126590833D01*
X93608333Y-126507500D01*
X93275000Y-126507500D01*
X93108333Y-126590833D01*
X93858333Y-127590833D02*
X93691666Y-127674166D01*
X93275000Y-127674166D01*
X93108333Y-127590833D01*
X93025000Y-127424166D01*
X93025000Y-127257500D01*
X93108333Y-127090833D01*
X93275000Y-127007500D01*
X93691666Y-127007500D01*
X93858333Y-126924166D01*
X94691666Y-126507500D02*
X94691666Y-128257500D01*
X94691666Y-126590833D02*
X94858333Y-126507500D01*
X95191666Y-126507500D01*
X95358333Y-126590833D01*
X95441666Y-126674166D01*
X95525000Y-126840833D01*
X95525000Y-127340833D01*
X95441666Y-127507500D01*
X95358333Y-127590833D01*
X95191666Y-127674166D01*
X94858333Y-127674166D01*
X94691666Y-127590833D01*
X96275000Y-126507500D02*
X96275000Y-128257500D01*
X96275000Y-126590833D02*
X96441666Y-126507500D01*
X96775000Y-126507500D01*
X96941666Y-126590833D01*
X97025000Y-126674166D01*
X97108333Y-126840833D01*
X97108333Y-127340833D01*
X97025000Y-127507500D01*
X96941666Y-127590833D01*
X96775000Y-127674166D01*
X96441666Y-127674166D01*
X96275000Y-127590833D01*
X97858333Y-127674166D02*
X97858333Y-126507500D01*
X97858333Y-125924166D02*
X97775000Y-126007500D01*
X97858333Y-126090833D01*
X97941666Y-126007500D01*
X97858333Y-125924166D01*
X97858333Y-126090833D01*
X98691666Y-126507500D02*
X98691666Y-127674166D01*
X98691666Y-126674166D02*
X98775000Y-126590833D01*
X98941666Y-126507500D01*
X99191666Y-126507500D01*
X99358333Y-126590833D01*
X99441666Y-126757500D01*
X99441666Y-127674166D01*
X101025000Y-126507500D02*
X101025000Y-127924166D01*
X100941666Y-128090833D01*
X100858333Y-128174166D01*
X100691666Y-128257500D01*
X100441666Y-128257500D01*
X100275000Y-128174166D01*
X101025000Y-127590833D02*
X100858333Y-127674166D01*
X100525000Y-127674166D01*
X100358333Y-127590833D01*
X100275000Y-127507500D01*
X100191666Y-127340833D01*
X100191666Y-126840833D01*
X100275000Y-126674166D01*
X100358333Y-126590833D01*
X100525000Y-126507500D01*
X100858333Y-126507500D01*
X101025000Y-126590833D01*
X79691666Y-130449166D02*
X79691666Y-128699166D01*
X80275000Y-129949166D01*
X80858333Y-128699166D01*
X80858333Y-130449166D01*
X81941666Y-130449166D02*
X81775000Y-130365833D01*
X81691666Y-130282500D01*
X81608333Y-130115833D01*
X81608333Y-129615833D01*
X81691666Y-129449166D01*
X81775000Y-129365833D01*
X81941666Y-129282500D01*
X82191666Y-129282500D01*
X82358333Y-129365833D01*
X82441666Y-129449166D01*
X82525000Y-129615833D01*
X82525000Y-130115833D01*
X82441666Y-130282500D01*
X82358333Y-130365833D01*
X82191666Y-130449166D01*
X81941666Y-130449166D01*
X84025000Y-130449166D02*
X84025000Y-128699166D01*
X84025000Y-130365833D02*
X83858333Y-130449166D01*
X83525000Y-130449166D01*
X83358333Y-130365833D01*
X83275000Y-130282500D01*
X83191666Y-130115833D01*
X83191666Y-129615833D01*
X83275000Y-129449166D01*
X83358333Y-129365833D01*
X83525000Y-129282500D01*
X83858333Y-129282500D01*
X84025000Y-129365833D01*
X85608333Y-129282500D02*
X85608333Y-130449166D01*
X84858333Y-129282500D02*
X84858333Y-130199166D01*
X84941666Y-130365833D01*
X85108333Y-130449166D01*
X85358333Y-130449166D01*
X85525000Y-130365833D01*
X85608333Y-130282500D01*
X86691666Y-130449166D02*
X86525000Y-130365833D01*
X86441666Y-130199166D01*
X86441666Y-128699166D01*
X88108333Y-130449166D02*
X88108333Y-129532500D01*
X88025000Y-129365833D01*
X87858333Y-129282500D01*
X87525000Y-129282500D01*
X87358333Y-129365833D01*
X88108333Y-130365833D02*
X87941666Y-130449166D01*
X87525000Y-130449166D01*
X87358333Y-130365833D01*
X87275000Y-130199166D01*
X87275000Y-130032500D01*
X87358333Y-129865833D01*
X87525000Y-129782500D01*
X87941666Y-129782500D01*
X88108333Y-129699166D01*
X88941666Y-130449166D02*
X88941666Y-129282500D01*
X88941666Y-129615833D02*
X89025000Y-129449166D01*
X89108333Y-129365833D01*
X89275000Y-129282500D01*
X89441666Y-129282500D01*
X91941666Y-129532500D02*
X92191666Y-129615833D01*
X92275000Y-129699166D01*
X92358333Y-129865833D01*
X92358333Y-130115833D01*
X92275000Y-130282500D01*
X92191666Y-130365833D01*
X92025000Y-130449166D01*
X91358333Y-130449166D01*
X91358333Y-128699166D01*
X91941666Y-128699166D01*
X92108333Y-128782500D01*
X92191666Y-128865833D01*
X92275000Y-129032500D01*
X92275000Y-129199166D01*
X92191666Y-129365833D01*
X92108333Y-129449166D01*
X91941666Y-129532500D01*
X91358333Y-129532500D01*
X93358333Y-130449166D02*
X93191666Y-130365833D01*
X93108333Y-130282500D01*
X93025000Y-130115833D01*
X93025000Y-129615833D01*
X93108333Y-129449166D01*
X93191666Y-129365833D01*
X93358333Y-129282500D01*
X93608333Y-129282500D01*
X93775000Y-129365833D01*
X93858333Y-129449166D01*
X93941666Y-129615833D01*
X93941666Y-130115833D01*
X93858333Y-130282500D01*
X93775000Y-130365833D01*
X93608333Y-130449166D01*
X93358333Y-130449166D01*
X95441666Y-130449166D02*
X95441666Y-129532500D01*
X95358333Y-129365833D01*
X95191666Y-129282500D01*
X94858333Y-129282500D01*
X94691666Y-129365833D01*
X95441666Y-130365833D02*
X95275000Y-130449166D01*
X94858333Y-130449166D01*
X94691666Y-130365833D01*
X94608333Y-130199166D01*
X94608333Y-130032500D01*
X94691666Y-129865833D01*
X94858333Y-129782500D01*
X95275000Y-129782500D01*
X95441666Y-129699166D01*
X96275000Y-130449166D02*
X96275000Y-129282500D01*
X96275000Y-129615833D02*
X96358333Y-129449166D01*
X96441666Y-129365833D01*
X96608333Y-129282500D01*
X96775000Y-129282500D01*
X98108333Y-130449166D02*
X98108333Y-128699166D01*
X98108333Y-130365833D02*
X97941666Y-130449166D01*
X97608333Y-130449166D01*
X97441666Y-130365833D01*
X97358333Y-130282500D01*
X97275000Y-130115833D01*
X97275000Y-129615833D01*
X97358333Y-129449166D01*
X97441666Y-129365833D01*
X97608333Y-129282500D01*
X97941666Y-129282500D01*
X98108333Y-129365833D01*
X118269047Y-126134761D02*
X118411904Y-126182380D01*
X118650000Y-126182380D01*
X118745238Y-126134761D01*
X118792857Y-126087142D01*
X118840476Y-125991904D01*
X118840476Y-125896666D01*
X118792857Y-125801428D01*
X118745238Y-125753809D01*
X118650000Y-125706190D01*
X118459523Y-125658571D01*
X118364285Y-125610952D01*
X118316666Y-125563333D01*
X118269047Y-125468095D01*
X118269047Y-125372857D01*
X118316666Y-125277619D01*
X118364285Y-125230000D01*
X118459523Y-125182380D01*
X118697619Y-125182380D01*
X118840476Y-125230000D01*
X119269047Y-126182380D02*
X119269047Y-125182380D01*
X120269047Y-125230000D02*
X120173809Y-125182380D01*
X120030952Y-125182380D01*
X119888095Y-125230000D01*
X119792857Y-125325238D01*
X119745238Y-125420476D01*
X119697619Y-125610952D01*
X119697619Y-125753809D01*
X119745238Y-125944285D01*
X119792857Y-126039523D01*
X119888095Y-126134761D01*
X120030952Y-126182380D01*
X120126190Y-126182380D01*
X120269047Y-126134761D01*
X120316666Y-126087142D01*
X120316666Y-125753809D01*
X120126190Y-125753809D01*
X120745238Y-126182380D02*
X120745238Y-125182380D01*
X121316666Y-126182380D01*
X121316666Y-125182380D01*
X121745238Y-125896666D02*
X122221428Y-125896666D01*
X121650000Y-126182380D02*
X121983333Y-125182380D01*
X122316666Y-126182380D01*
X123126190Y-126182380D02*
X122650000Y-126182380D01*
X122650000Y-125182380D01*
X118269047Y-132484761D02*
X118411904Y-132532380D01*
X118650000Y-132532380D01*
X118745238Y-132484761D01*
X118792857Y-132437142D01*
X118840476Y-132341904D01*
X118840476Y-132246666D01*
X118792857Y-132151428D01*
X118745238Y-132103809D01*
X118650000Y-132056190D01*
X118459523Y-132008571D01*
X118364285Y-131960952D01*
X118316666Y-131913333D01*
X118269047Y-131818095D01*
X118269047Y-131722857D01*
X118316666Y-131627619D01*
X118364285Y-131580000D01*
X118459523Y-131532380D01*
X118697619Y-131532380D01*
X118840476Y-131580000D01*
X119269047Y-132532380D02*
X119269047Y-131532380D01*
X120269047Y-131580000D02*
X120173809Y-131532380D01*
X120030952Y-131532380D01*
X119888095Y-131580000D01*
X119792857Y-131675238D01*
X119745238Y-131770476D01*
X119697619Y-131960952D01*
X119697619Y-132103809D01*
X119745238Y-132294285D01*
X119792857Y-132389523D01*
X119888095Y-132484761D01*
X120030952Y-132532380D01*
X120126190Y-132532380D01*
X120269047Y-132484761D01*
X120316666Y-132437142D01*
X120316666Y-132103809D01*
X120126190Y-132103809D01*
X120745238Y-132532380D02*
X120745238Y-131532380D01*
X121316666Y-132532380D01*
X121316666Y-131532380D01*
X121745238Y-132246666D02*
X122221428Y-132246666D01*
X121650000Y-132532380D02*
X121983333Y-131532380D01*
X122316666Y-132532380D01*
X123126190Y-132532380D02*
X122650000Y-132532380D01*
X122650000Y-131532380D01*
X118618095Y-134120000D02*
X118522857Y-134072380D01*
X118380000Y-134072380D01*
X118237142Y-134120000D01*
X118141904Y-134215238D01*
X118094285Y-134310476D01*
X118046666Y-134500952D01*
X118046666Y-134643809D01*
X118094285Y-134834285D01*
X118141904Y-134929523D01*
X118237142Y-135024761D01*
X118380000Y-135072380D01*
X118475238Y-135072380D01*
X118618095Y-135024761D01*
X118665714Y-134977142D01*
X118665714Y-134643809D01*
X118475238Y-134643809D01*
X119094285Y-135072380D02*
X119094285Y-134072380D01*
X119665714Y-135072380D01*
X119665714Y-134072380D01*
X120141904Y-135072380D02*
X120141904Y-134072380D01*
X120380000Y-134072380D01*
X120522857Y-134120000D01*
X120618095Y-134215238D01*
X120665714Y-134310476D01*
X120713333Y-134500952D01*
X120713333Y-134643809D01*
X120665714Y-134834285D01*
X120618095Y-134929523D01*
X120522857Y-135024761D01*
X120380000Y-135072380D01*
X120141904Y-135072380D01*
X118618095Y-127770000D02*
X118522857Y-127722380D01*
X118380000Y-127722380D01*
X118237142Y-127770000D01*
X118141904Y-127865238D01*
X118094285Y-127960476D01*
X118046666Y-128150952D01*
X118046666Y-128293809D01*
X118094285Y-128484285D01*
X118141904Y-128579523D01*
X118237142Y-128674761D01*
X118380000Y-128722380D01*
X118475238Y-128722380D01*
X118618095Y-128674761D01*
X118665714Y-128627142D01*
X118665714Y-128293809D01*
X118475238Y-128293809D01*
X119094285Y-128722380D02*
X119094285Y-127722380D01*
X119665714Y-128722380D01*
X119665714Y-127722380D01*
X120141904Y-128722380D02*
X120141904Y-127722380D01*
X120380000Y-127722380D01*
X120522857Y-127770000D01*
X120618095Y-127865238D01*
X120665714Y-127960476D01*
X120713333Y-128150952D01*
X120713333Y-128293809D01*
X120665714Y-128484285D01*
X120618095Y-128579523D01*
X120522857Y-128674761D01*
X120380000Y-128722380D01*
X120141904Y-128722380D01*
X100100000Y-91493571D02*
X100671428Y-91493571D01*
X100385714Y-91779285D02*
X100385714Y-91207857D01*
X100957142Y-91029285D02*
X101421428Y-91029285D01*
X101171428Y-91315000D01*
X101278571Y-91315000D01*
X101350000Y-91350714D01*
X101385714Y-91386428D01*
X101421428Y-91457857D01*
X101421428Y-91636428D01*
X101385714Y-91707857D01*
X101350000Y-91743571D01*
X101278571Y-91779285D01*
X101064285Y-91779285D01*
X100992857Y-91743571D01*
X100957142Y-91707857D01*
X101742857Y-91707857D02*
X101778571Y-91743571D01*
X101742857Y-91779285D01*
X101707142Y-91743571D01*
X101742857Y-91707857D01*
X101742857Y-91779285D01*
X102028571Y-91029285D02*
X102492857Y-91029285D01*
X102242857Y-91315000D01*
X102350000Y-91315000D01*
X102421428Y-91350714D01*
X102457142Y-91386428D01*
X102492857Y-91457857D01*
X102492857Y-91636428D01*
X102457142Y-91707857D01*
X102421428Y-91743571D01*
X102350000Y-91779285D01*
X102135714Y-91779285D01*
X102064285Y-91743571D01*
X102028571Y-91707857D01*
X102707142Y-91029285D02*
X102957142Y-91779285D01*
X103207142Y-91029285D01*
X97218571Y-91065000D02*
X97147142Y-91029285D01*
X97040000Y-91029285D01*
X96932857Y-91065000D01*
X96861428Y-91136428D01*
X96825714Y-91207857D01*
X96790000Y-91350714D01*
X96790000Y-91457857D01*
X96825714Y-91600714D01*
X96861428Y-91672142D01*
X96932857Y-91743571D01*
X97040000Y-91779285D01*
X97111428Y-91779285D01*
X97218571Y-91743571D01*
X97254285Y-91707857D01*
X97254285Y-91457857D01*
X97111428Y-91457857D01*
X97575714Y-91779285D02*
X97575714Y-91029285D01*
X98004285Y-91779285D01*
X98004285Y-91029285D01*
X98361428Y-91779285D02*
X98361428Y-91029285D01*
X98540000Y-91029285D01*
X98647142Y-91065000D01*
X98718571Y-91136428D01*
X98754285Y-91207857D01*
X98790000Y-91350714D01*
X98790000Y-91457857D01*
X98754285Y-91600714D01*
X98718571Y-91672142D01*
X98647142Y-91743571D01*
X98540000Y-91779285D01*
X98361428Y-91779285D01*
X91745714Y-91493571D02*
X92317142Y-91493571D01*
X92031428Y-91779285D02*
X92031428Y-91207857D01*
X92710000Y-91779285D02*
X92852857Y-91779285D01*
X92924285Y-91743571D01*
X92960000Y-91707857D01*
X93031428Y-91600714D01*
X93067142Y-91457857D01*
X93067142Y-91172142D01*
X93031428Y-91100714D01*
X92995714Y-91065000D01*
X92924285Y-91029285D01*
X92781428Y-91029285D01*
X92710000Y-91065000D01*
X92674285Y-91100714D01*
X92638571Y-91172142D01*
X92638571Y-91350714D01*
X92674285Y-91422142D01*
X92710000Y-91457857D01*
X92781428Y-91493571D01*
X92924285Y-91493571D01*
X92995714Y-91457857D01*
X93031428Y-91422142D01*
X93067142Y-91350714D01*
X93281428Y-91029285D02*
X93531428Y-91779285D01*
X93781428Y-91029285D01*
X87935714Y-91493571D02*
X88507142Y-91493571D01*
X88221428Y-91779285D02*
X88221428Y-91207857D01*
X89221428Y-91029285D02*
X88864285Y-91029285D01*
X88828571Y-91386428D01*
X88864285Y-91350714D01*
X88935714Y-91315000D01*
X89114285Y-91315000D01*
X89185714Y-91350714D01*
X89221428Y-91386428D01*
X89257142Y-91457857D01*
X89257142Y-91636428D01*
X89221428Y-91707857D01*
X89185714Y-91743571D01*
X89114285Y-91779285D01*
X88935714Y-91779285D01*
X88864285Y-91743571D01*
X88828571Y-91707857D01*
X89471428Y-91029285D02*
X89721428Y-91779285D01*
X89971428Y-91029285D01*
X84518571Y-91065000D02*
X84447142Y-91029285D01*
X84340000Y-91029285D01*
X84232857Y-91065000D01*
X84161428Y-91136428D01*
X84125714Y-91207857D01*
X84090000Y-91350714D01*
X84090000Y-91457857D01*
X84125714Y-91600714D01*
X84161428Y-91672142D01*
X84232857Y-91743571D01*
X84340000Y-91779285D01*
X84411428Y-91779285D01*
X84518571Y-91743571D01*
X84554285Y-91707857D01*
X84554285Y-91457857D01*
X84411428Y-91457857D01*
X84875714Y-91779285D02*
X84875714Y-91029285D01*
X85304285Y-91779285D01*
X85304285Y-91029285D01*
X85661428Y-91779285D02*
X85661428Y-91029285D01*
X85840000Y-91029285D01*
X85947142Y-91065000D01*
X86018571Y-91136428D01*
X86054285Y-91207857D01*
X86090000Y-91350714D01*
X86090000Y-91457857D01*
X86054285Y-91600714D01*
X86018571Y-91672142D01*
X85947142Y-91743571D01*
X85840000Y-91779285D01*
X85661428Y-91779285D01*
X132588095Y-132850000D02*
X132492857Y-132802380D01*
X132350000Y-132802380D01*
X132207142Y-132850000D01*
X132111904Y-132945238D01*
X132064285Y-133040476D01*
X132016666Y-133230952D01*
X132016666Y-133373809D01*
X132064285Y-133564285D01*
X132111904Y-133659523D01*
X132207142Y-133754761D01*
X132350000Y-133802380D01*
X132445238Y-133802380D01*
X132588095Y-133754761D01*
X132635714Y-133707142D01*
X132635714Y-133373809D01*
X132445238Y-133373809D01*
X133064285Y-133802380D02*
X133064285Y-132802380D01*
X133635714Y-133802380D01*
X133635714Y-132802380D01*
X134111904Y-133802380D02*
X134111904Y-132802380D01*
X134350000Y-132802380D01*
X134492857Y-132850000D01*
X134588095Y-132945238D01*
X134635714Y-133040476D01*
X134683333Y-133230952D01*
X134683333Y-133373809D01*
X134635714Y-133564285D01*
X134588095Y-133659523D01*
X134492857Y-133754761D01*
X134350000Y-133802380D01*
X134111904Y-133802380D01*
X132064285Y-130881428D02*
X132826190Y-130881428D01*
X132445238Y-131262380D02*
X132445238Y-130500476D01*
X133778571Y-130262380D02*
X133302380Y-130262380D01*
X133254761Y-130738571D01*
X133302380Y-130690952D01*
X133397619Y-130643333D01*
X133635714Y-130643333D01*
X133730952Y-130690952D01*
X133778571Y-130738571D01*
X133826190Y-130833809D01*
X133826190Y-131071904D01*
X133778571Y-131167142D01*
X133730952Y-131214761D01*
X133635714Y-131262380D01*
X133397619Y-131262380D01*
X133302380Y-131214761D01*
X133254761Y-131167142D01*
X134111904Y-130262380D02*
X134445238Y-131262380D01*
X134778571Y-130262380D01*
X133183333Y-128722380D02*
X132850000Y-128246190D01*
X132611904Y-128722380D02*
X132611904Y-127722380D01*
X132992857Y-127722380D01*
X133088095Y-127770000D01*
X133135714Y-127817619D01*
X133183333Y-127912857D01*
X133183333Y-128055714D01*
X133135714Y-128150952D01*
X133088095Y-128198571D01*
X132992857Y-128246190D01*
X132611904Y-128246190D01*
X133516666Y-127722380D02*
X134183333Y-128722380D01*
X134183333Y-127722380D02*
X133516666Y-128722380D01*
X132588095Y-125182380D02*
X133159523Y-125182380D01*
X132873809Y-126182380D02*
X132873809Y-125182380D01*
X133397619Y-125182380D02*
X134064285Y-126182380D01*
X134064285Y-125182380D02*
X133397619Y-126182380D01*
X145288095Y-132850000D02*
X145192857Y-132802380D01*
X145050000Y-132802380D01*
X144907142Y-132850000D01*
X144811904Y-132945238D01*
X144764285Y-133040476D01*
X144716666Y-133230952D01*
X144716666Y-133373809D01*
X144764285Y-133564285D01*
X144811904Y-133659523D01*
X144907142Y-133754761D01*
X145050000Y-133802380D01*
X145145238Y-133802380D01*
X145288095Y-133754761D01*
X145335714Y-133707142D01*
X145335714Y-133373809D01*
X145145238Y-133373809D01*
X145764285Y-133802380D02*
X145764285Y-132802380D01*
X146335714Y-133802380D01*
X146335714Y-132802380D01*
X146811904Y-133802380D02*
X146811904Y-132802380D01*
X147050000Y-132802380D01*
X147192857Y-132850000D01*
X147288095Y-132945238D01*
X147335714Y-133040476D01*
X147383333Y-133230952D01*
X147383333Y-133373809D01*
X147335714Y-133564285D01*
X147288095Y-133659523D01*
X147192857Y-133754761D01*
X147050000Y-133802380D01*
X146811904Y-133802380D01*
X144835714Y-131214761D02*
X144978571Y-131262380D01*
X145216666Y-131262380D01*
X145311904Y-131214761D01*
X145359523Y-131167142D01*
X145407142Y-131071904D01*
X145407142Y-130976666D01*
X145359523Y-130881428D01*
X145311904Y-130833809D01*
X145216666Y-130786190D01*
X145026190Y-130738571D01*
X144930952Y-130690952D01*
X144883333Y-130643333D01*
X144835714Y-130548095D01*
X144835714Y-130452857D01*
X144883333Y-130357619D01*
X144930952Y-130310000D01*
X145026190Y-130262380D01*
X145264285Y-130262380D01*
X145407142Y-130310000D01*
X145835714Y-131262380D02*
X145835714Y-130262380D01*
X146073809Y-130262380D01*
X146216666Y-130310000D01*
X146311904Y-130405238D01*
X146359523Y-130500476D01*
X146407142Y-130690952D01*
X146407142Y-130833809D01*
X146359523Y-131024285D01*
X146311904Y-131119523D01*
X146216666Y-131214761D01*
X146073809Y-131262380D01*
X145835714Y-131262380D01*
X146788095Y-130976666D02*
X147264285Y-130976666D01*
X146692857Y-131262380D02*
X147026190Y-130262380D01*
X147359523Y-131262380D01*
X144859523Y-128674761D02*
X145002380Y-128722380D01*
X145240476Y-128722380D01*
X145335714Y-128674761D01*
X145383333Y-128627142D01*
X145430952Y-128531904D01*
X145430952Y-128436666D01*
X145383333Y-128341428D01*
X145335714Y-128293809D01*
X145240476Y-128246190D01*
X145050000Y-128198571D01*
X144954761Y-128150952D01*
X144907142Y-128103333D01*
X144859523Y-128008095D01*
X144859523Y-127912857D01*
X144907142Y-127817619D01*
X144954761Y-127770000D01*
X145050000Y-127722380D01*
X145288095Y-127722380D01*
X145430952Y-127770000D01*
X146430952Y-128627142D02*
X146383333Y-128674761D01*
X146240476Y-128722380D01*
X146145238Y-128722380D01*
X146002380Y-128674761D01*
X145907142Y-128579523D01*
X145859523Y-128484285D01*
X145811904Y-128293809D01*
X145811904Y-128150952D01*
X145859523Y-127960476D01*
X145907142Y-127865238D01*
X146002380Y-127770000D01*
X146145238Y-127722380D01*
X146240476Y-127722380D01*
X146383333Y-127770000D01*
X146430952Y-127817619D01*
X147335714Y-128722380D02*
X146859523Y-128722380D01*
X146859523Y-127722380D01*
X144097619Y-125801428D02*
X144859523Y-125801428D01*
X144478571Y-126182380D02*
X144478571Y-125420476D01*
X145240476Y-125182380D02*
X145859523Y-125182380D01*
X145526190Y-125563333D01*
X145669047Y-125563333D01*
X145764285Y-125610952D01*
X145811904Y-125658571D01*
X145859523Y-125753809D01*
X145859523Y-125991904D01*
X145811904Y-126087142D01*
X145764285Y-126134761D01*
X145669047Y-126182380D01*
X145383333Y-126182380D01*
X145288095Y-126134761D01*
X145240476Y-126087142D01*
X146288095Y-126087142D02*
X146335714Y-126134761D01*
X146288095Y-126182380D01*
X146240476Y-126134761D01*
X146288095Y-126087142D01*
X146288095Y-126182380D01*
X146669047Y-125182380D02*
X147288095Y-125182380D01*
X146954761Y-125563333D01*
X147097619Y-125563333D01*
X147192857Y-125610952D01*
X147240476Y-125658571D01*
X147288095Y-125753809D01*
X147288095Y-125991904D01*
X147240476Y-126087142D01*
X147192857Y-126134761D01*
X147097619Y-126182380D01*
X146811904Y-126182380D01*
X146716666Y-126134761D01*
X146669047Y-126087142D01*
X147621428Y-125515714D02*
X147859523Y-126182380D01*
X148097619Y-125515714D01*
X132088095Y-72794761D02*
X132230952Y-72842380D01*
X132469047Y-72842380D01*
X132564285Y-72794761D01*
X132611904Y-72747142D01*
X132659523Y-72651904D01*
X132659523Y-72556666D01*
X132611904Y-72461428D01*
X132564285Y-72413809D01*
X132469047Y-72366190D01*
X132278571Y-72318571D01*
X132183333Y-72270952D01*
X132135714Y-72223333D01*
X132088095Y-72128095D01*
X132088095Y-72032857D01*
X132135714Y-71937619D01*
X132183333Y-71890000D01*
X132278571Y-71842380D01*
X132516666Y-71842380D01*
X132659523Y-71890000D01*
X133088095Y-72842380D02*
X133088095Y-71842380D01*
X133326190Y-71842380D01*
X133469047Y-71890000D01*
X133564285Y-71985238D01*
X133611904Y-72080476D01*
X133659523Y-72270952D01*
X133659523Y-72413809D01*
X133611904Y-72604285D01*
X133564285Y-72699523D01*
X133469047Y-72794761D01*
X133326190Y-72842380D01*
X133088095Y-72842380D01*
X133992857Y-71842380D02*
X134611904Y-71842380D01*
X134278571Y-72223333D01*
X134421428Y-72223333D01*
X134516666Y-72270952D01*
X134564285Y-72318571D01*
X134611904Y-72413809D01*
X134611904Y-72651904D01*
X134564285Y-72747142D01*
X134516666Y-72794761D01*
X134421428Y-72842380D01*
X134135714Y-72842380D01*
X134040476Y-72794761D01*
X133992857Y-72747142D01*
X132111904Y-112482380D02*
X132730952Y-112482380D01*
X132397619Y-112863333D01*
X132540476Y-112863333D01*
X132635714Y-112910952D01*
X132683333Y-112958571D01*
X132730952Y-113053809D01*
X132730952Y-113291904D01*
X132683333Y-113387142D01*
X132635714Y-113434761D01*
X132540476Y-113482380D01*
X132254761Y-113482380D01*
X132159523Y-113434761D01*
X132111904Y-113387142D01*
X133016666Y-112482380D02*
X133350000Y-113482380D01*
X133683333Y-112482380D01*
X133921428Y-112482380D02*
X134540476Y-112482380D01*
X134207142Y-112863333D01*
X134350000Y-112863333D01*
X134445238Y-112910952D01*
X134492857Y-112958571D01*
X134540476Y-113053809D01*
X134540476Y-113291904D01*
X134492857Y-113387142D01*
X134445238Y-113434761D01*
X134350000Y-113482380D01*
X134064285Y-113482380D01*
X133969047Y-113434761D01*
X133921428Y-113387142D01*
X132611904Y-110418571D02*
X132945238Y-110418571D01*
X133088095Y-110942380D02*
X132611904Y-110942380D01*
X132611904Y-109942380D01*
X133088095Y-109942380D01*
X133516666Y-110942380D02*
X133516666Y-109942380D01*
X134088095Y-110942380D01*
X134088095Y-109942380D01*
X132564285Y-108354761D02*
X132707142Y-108402380D01*
X132945238Y-108402380D01*
X133040476Y-108354761D01*
X133088095Y-108307142D01*
X133135714Y-108211904D01*
X133135714Y-108116666D01*
X133088095Y-108021428D01*
X133040476Y-107973809D01*
X132945238Y-107926190D01*
X132754761Y-107878571D01*
X132659523Y-107830952D01*
X132611904Y-107783333D01*
X132564285Y-107688095D01*
X132564285Y-107592857D01*
X132611904Y-107497619D01*
X132659523Y-107450000D01*
X132754761Y-107402380D01*
X132992857Y-107402380D01*
X133135714Y-107450000D01*
X133564285Y-108402380D02*
X133564285Y-107402380D01*
X133945238Y-107402380D01*
X134040476Y-107450000D01*
X134088095Y-107497619D01*
X134135714Y-107592857D01*
X134135714Y-107735714D01*
X134088095Y-107830952D01*
X134040476Y-107878571D01*
X133945238Y-107926190D01*
X133564285Y-107926190D01*
X132540476Y-105814761D02*
X132683333Y-105862380D01*
X132921428Y-105862380D01*
X133016666Y-105814761D01*
X133064285Y-105767142D01*
X133111904Y-105671904D01*
X133111904Y-105576666D01*
X133064285Y-105481428D01*
X133016666Y-105433809D01*
X132921428Y-105386190D01*
X132730952Y-105338571D01*
X132635714Y-105290952D01*
X132588095Y-105243333D01*
X132540476Y-105148095D01*
X132540476Y-105052857D01*
X132588095Y-104957619D01*
X132635714Y-104910000D01*
X132730952Y-104862380D01*
X132969047Y-104862380D01*
X133111904Y-104910000D01*
X133540476Y-105862380D02*
X133540476Y-104862380D01*
X134111904Y-105862380D01*
X134111904Y-104862380D01*
X132659523Y-102370000D02*
X132564285Y-102322380D01*
X132421428Y-102322380D01*
X132278571Y-102370000D01*
X132183333Y-102465238D01*
X132135714Y-102560476D01*
X132088095Y-102750952D01*
X132088095Y-102893809D01*
X132135714Y-103084285D01*
X132183333Y-103179523D01*
X132278571Y-103274761D01*
X132421428Y-103322380D01*
X132516666Y-103322380D01*
X132659523Y-103274761D01*
X132707142Y-103227142D01*
X132707142Y-102893809D01*
X132516666Y-102893809D01*
X133040476Y-102322380D02*
X133659523Y-102322380D01*
X133326190Y-102703333D01*
X133469047Y-102703333D01*
X133564285Y-102750952D01*
X133611904Y-102798571D01*
X133659523Y-102893809D01*
X133659523Y-103131904D01*
X133611904Y-103227142D01*
X133564285Y-103274761D01*
X133469047Y-103322380D01*
X133183333Y-103322380D01*
X133088095Y-103274761D01*
X133040476Y-103227142D01*
X134516666Y-102655714D02*
X134516666Y-103322380D01*
X134278571Y-102274761D02*
X134040476Y-102989047D01*
X134659523Y-102989047D01*
X132659523Y-99830000D02*
X132564285Y-99782380D01*
X132421428Y-99782380D01*
X132278571Y-99830000D01*
X132183333Y-99925238D01*
X132135714Y-100020476D01*
X132088095Y-100210952D01*
X132088095Y-100353809D01*
X132135714Y-100544285D01*
X132183333Y-100639523D01*
X132278571Y-100734761D01*
X132421428Y-100782380D01*
X132516666Y-100782380D01*
X132659523Y-100734761D01*
X132707142Y-100687142D01*
X132707142Y-100353809D01*
X132516666Y-100353809D01*
X133040476Y-99782380D02*
X133659523Y-99782380D01*
X133326190Y-100163333D01*
X133469047Y-100163333D01*
X133564285Y-100210952D01*
X133611904Y-100258571D01*
X133659523Y-100353809D01*
X133659523Y-100591904D01*
X133611904Y-100687142D01*
X133564285Y-100734761D01*
X133469047Y-100782380D01*
X133183333Y-100782380D01*
X133088095Y-100734761D01*
X133040476Y-100687142D01*
X134564285Y-99782380D02*
X134088095Y-99782380D01*
X134040476Y-100258571D01*
X134088095Y-100210952D01*
X134183333Y-100163333D01*
X134421428Y-100163333D01*
X134516666Y-100210952D01*
X134564285Y-100258571D01*
X134611904Y-100353809D01*
X134611904Y-100591904D01*
X134564285Y-100687142D01*
X134516666Y-100734761D01*
X134421428Y-100782380D01*
X134183333Y-100782380D01*
X134088095Y-100734761D01*
X134040476Y-100687142D01*
X132659523Y-97290000D02*
X132564285Y-97242380D01*
X132421428Y-97242380D01*
X132278571Y-97290000D01*
X132183333Y-97385238D01*
X132135714Y-97480476D01*
X132088095Y-97670952D01*
X132088095Y-97813809D01*
X132135714Y-98004285D01*
X132183333Y-98099523D01*
X132278571Y-98194761D01*
X132421428Y-98242380D01*
X132516666Y-98242380D01*
X132659523Y-98194761D01*
X132707142Y-98147142D01*
X132707142Y-97813809D01*
X132516666Y-97813809D01*
X133040476Y-97242380D02*
X133659523Y-97242380D01*
X133326190Y-97623333D01*
X133469047Y-97623333D01*
X133564285Y-97670952D01*
X133611904Y-97718571D01*
X133659523Y-97813809D01*
X133659523Y-98051904D01*
X133611904Y-98147142D01*
X133564285Y-98194761D01*
X133469047Y-98242380D01*
X133183333Y-98242380D01*
X133088095Y-98194761D01*
X133040476Y-98147142D01*
X134040476Y-97337619D02*
X134088095Y-97290000D01*
X134183333Y-97242380D01*
X134421428Y-97242380D01*
X134516666Y-97290000D01*
X134564285Y-97337619D01*
X134611904Y-97432857D01*
X134611904Y-97528095D01*
X134564285Y-97670952D01*
X133992857Y-98242380D01*
X134611904Y-98242380D01*
X132659523Y-94750000D02*
X132564285Y-94702380D01*
X132421428Y-94702380D01*
X132278571Y-94750000D01*
X132183333Y-94845238D01*
X132135714Y-94940476D01*
X132088095Y-95130952D01*
X132088095Y-95273809D01*
X132135714Y-95464285D01*
X132183333Y-95559523D01*
X132278571Y-95654761D01*
X132421428Y-95702380D01*
X132516666Y-95702380D01*
X132659523Y-95654761D01*
X132707142Y-95607142D01*
X132707142Y-95273809D01*
X132516666Y-95273809D01*
X133040476Y-94702380D02*
X133659523Y-94702380D01*
X133326190Y-95083333D01*
X133469047Y-95083333D01*
X133564285Y-95130952D01*
X133611904Y-95178571D01*
X133659523Y-95273809D01*
X133659523Y-95511904D01*
X133611904Y-95607142D01*
X133564285Y-95654761D01*
X133469047Y-95702380D01*
X133183333Y-95702380D01*
X133088095Y-95654761D01*
X133040476Y-95607142D01*
X133992857Y-94702380D02*
X134611904Y-94702380D01*
X134278571Y-95083333D01*
X134421428Y-95083333D01*
X134516666Y-95130952D01*
X134564285Y-95178571D01*
X134611904Y-95273809D01*
X134611904Y-95511904D01*
X134564285Y-95607142D01*
X134516666Y-95654761D01*
X134421428Y-95702380D01*
X134135714Y-95702380D01*
X134040476Y-95654761D01*
X133992857Y-95607142D01*
X132659523Y-92210000D02*
X132564285Y-92162380D01*
X132421428Y-92162380D01*
X132278571Y-92210000D01*
X132183333Y-92305238D01*
X132135714Y-92400476D01*
X132088095Y-92590952D01*
X132088095Y-92733809D01*
X132135714Y-92924285D01*
X132183333Y-93019523D01*
X132278571Y-93114761D01*
X132421428Y-93162380D01*
X132516666Y-93162380D01*
X132659523Y-93114761D01*
X132707142Y-93067142D01*
X132707142Y-92733809D01*
X132516666Y-92733809D01*
X133088095Y-92257619D02*
X133135714Y-92210000D01*
X133230952Y-92162380D01*
X133469047Y-92162380D01*
X133564285Y-92210000D01*
X133611904Y-92257619D01*
X133659523Y-92352857D01*
X133659523Y-92448095D01*
X133611904Y-92590952D01*
X133040476Y-93162380D01*
X133659523Y-93162380D01*
X134564285Y-92162380D02*
X134088095Y-92162380D01*
X134040476Y-92638571D01*
X134088095Y-92590952D01*
X134183333Y-92543333D01*
X134421428Y-92543333D01*
X134516666Y-92590952D01*
X134564285Y-92638571D01*
X134611904Y-92733809D01*
X134611904Y-92971904D01*
X134564285Y-93067142D01*
X134516666Y-93114761D01*
X134421428Y-93162380D01*
X134183333Y-93162380D01*
X134088095Y-93114761D01*
X134040476Y-93067142D01*
X132659523Y-89670000D02*
X132564285Y-89622380D01*
X132421428Y-89622380D01*
X132278571Y-89670000D01*
X132183333Y-89765238D01*
X132135714Y-89860476D01*
X132088095Y-90050952D01*
X132088095Y-90193809D01*
X132135714Y-90384285D01*
X132183333Y-90479523D01*
X132278571Y-90574761D01*
X132421428Y-90622380D01*
X132516666Y-90622380D01*
X132659523Y-90574761D01*
X132707142Y-90527142D01*
X132707142Y-90193809D01*
X132516666Y-90193809D01*
X133088095Y-89717619D02*
X133135714Y-89670000D01*
X133230952Y-89622380D01*
X133469047Y-89622380D01*
X133564285Y-89670000D01*
X133611904Y-89717619D01*
X133659523Y-89812857D01*
X133659523Y-89908095D01*
X133611904Y-90050952D01*
X133040476Y-90622380D01*
X133659523Y-90622380D01*
X134516666Y-89622380D02*
X134326190Y-89622380D01*
X134230952Y-89670000D01*
X134183333Y-89717619D01*
X134088095Y-89860476D01*
X134040476Y-90050952D01*
X134040476Y-90431904D01*
X134088095Y-90527142D01*
X134135714Y-90574761D01*
X134230952Y-90622380D01*
X134421428Y-90622380D01*
X134516666Y-90574761D01*
X134564285Y-90527142D01*
X134611904Y-90431904D01*
X134611904Y-90193809D01*
X134564285Y-90098571D01*
X134516666Y-90050952D01*
X134421428Y-90003333D01*
X134230952Y-90003333D01*
X134135714Y-90050952D01*
X134088095Y-90098571D01*
X134040476Y-90193809D01*
X132659523Y-87130000D02*
X132564285Y-87082380D01*
X132421428Y-87082380D01*
X132278571Y-87130000D01*
X132183333Y-87225238D01*
X132135714Y-87320476D01*
X132088095Y-87510952D01*
X132088095Y-87653809D01*
X132135714Y-87844285D01*
X132183333Y-87939523D01*
X132278571Y-88034761D01*
X132421428Y-88082380D01*
X132516666Y-88082380D01*
X132659523Y-88034761D01*
X132707142Y-87987142D01*
X132707142Y-87653809D01*
X132516666Y-87653809D01*
X133088095Y-87177619D02*
X133135714Y-87130000D01*
X133230952Y-87082380D01*
X133469047Y-87082380D01*
X133564285Y-87130000D01*
X133611904Y-87177619D01*
X133659523Y-87272857D01*
X133659523Y-87368095D01*
X133611904Y-87510952D01*
X133040476Y-88082380D01*
X133659523Y-88082380D01*
X133992857Y-87082380D02*
X134659523Y-87082380D01*
X134230952Y-88082380D01*
X132659523Y-84590000D02*
X132564285Y-84542380D01*
X132421428Y-84542380D01*
X132278571Y-84590000D01*
X132183333Y-84685238D01*
X132135714Y-84780476D01*
X132088095Y-84970952D01*
X132088095Y-85113809D01*
X132135714Y-85304285D01*
X132183333Y-85399523D01*
X132278571Y-85494761D01*
X132421428Y-85542380D01*
X132516666Y-85542380D01*
X132659523Y-85494761D01*
X132707142Y-85447142D01*
X132707142Y-85113809D01*
X132516666Y-85113809D01*
X133659523Y-85542380D02*
X133088095Y-85542380D01*
X133373809Y-85542380D02*
X133373809Y-84542380D01*
X133278571Y-84685238D01*
X133183333Y-84780476D01*
X133088095Y-84828095D01*
X134516666Y-84875714D02*
X134516666Y-85542380D01*
X134278571Y-84494761D02*
X134040476Y-85209047D01*
X134659523Y-85209047D01*
X132659523Y-82050000D02*
X132564285Y-82002380D01*
X132421428Y-82002380D01*
X132278571Y-82050000D01*
X132183333Y-82145238D01*
X132135714Y-82240476D01*
X132088095Y-82430952D01*
X132088095Y-82573809D01*
X132135714Y-82764285D01*
X132183333Y-82859523D01*
X132278571Y-82954761D01*
X132421428Y-83002380D01*
X132516666Y-83002380D01*
X132659523Y-82954761D01*
X132707142Y-82907142D01*
X132707142Y-82573809D01*
X132516666Y-82573809D01*
X133659523Y-83002380D02*
X133088095Y-83002380D01*
X133373809Y-83002380D02*
X133373809Y-82002380D01*
X133278571Y-82145238D01*
X133183333Y-82240476D01*
X133088095Y-82288095D01*
X134040476Y-82097619D02*
X134088095Y-82050000D01*
X134183333Y-82002380D01*
X134421428Y-82002380D01*
X134516666Y-82050000D01*
X134564285Y-82097619D01*
X134611904Y-82192857D01*
X134611904Y-82288095D01*
X134564285Y-82430952D01*
X133992857Y-83002380D01*
X134611904Y-83002380D01*
X132588095Y-79510000D02*
X132492857Y-79462380D01*
X132350000Y-79462380D01*
X132207142Y-79510000D01*
X132111904Y-79605238D01*
X132064285Y-79700476D01*
X132016666Y-79890952D01*
X132016666Y-80033809D01*
X132064285Y-80224285D01*
X132111904Y-80319523D01*
X132207142Y-80414761D01*
X132350000Y-80462380D01*
X132445238Y-80462380D01*
X132588095Y-80414761D01*
X132635714Y-80367142D01*
X132635714Y-80033809D01*
X132445238Y-80033809D01*
X133064285Y-80462380D02*
X133064285Y-79462380D01*
X133635714Y-80462380D01*
X133635714Y-79462380D01*
X134111904Y-80462380D02*
X134111904Y-79462380D01*
X134350000Y-79462380D01*
X134492857Y-79510000D01*
X134588095Y-79605238D01*
X134635714Y-79700476D01*
X134683333Y-79890952D01*
X134683333Y-80033809D01*
X134635714Y-80224285D01*
X134588095Y-80319523D01*
X134492857Y-80414761D01*
X134350000Y-80462380D01*
X134111904Y-80462380D01*
X132659523Y-76970000D02*
X132564285Y-76922380D01*
X132421428Y-76922380D01*
X132278571Y-76970000D01*
X132183333Y-77065238D01*
X132135714Y-77160476D01*
X132088095Y-77350952D01*
X132088095Y-77493809D01*
X132135714Y-77684285D01*
X132183333Y-77779523D01*
X132278571Y-77874761D01*
X132421428Y-77922380D01*
X132516666Y-77922380D01*
X132659523Y-77874761D01*
X132707142Y-77827142D01*
X132707142Y-77493809D01*
X132516666Y-77493809D01*
X133659523Y-77922380D02*
X133088095Y-77922380D01*
X133373809Y-77922380D02*
X133373809Y-76922380D01*
X133278571Y-77065238D01*
X133183333Y-77160476D01*
X133088095Y-77208095D01*
X133992857Y-76922380D02*
X134611904Y-76922380D01*
X134278571Y-77303333D01*
X134421428Y-77303333D01*
X134516666Y-77350952D01*
X134564285Y-77398571D01*
X134611904Y-77493809D01*
X134611904Y-77731904D01*
X134564285Y-77827142D01*
X134516666Y-77874761D01*
X134421428Y-77922380D01*
X134135714Y-77922380D01*
X134040476Y-77874761D01*
X133992857Y-77827142D01*
X132088095Y-75334761D02*
X132230952Y-75382380D01*
X132469047Y-75382380D01*
X132564285Y-75334761D01*
X132611904Y-75287142D01*
X132659523Y-75191904D01*
X132659523Y-75096666D01*
X132611904Y-75001428D01*
X132564285Y-74953809D01*
X132469047Y-74906190D01*
X132278571Y-74858571D01*
X132183333Y-74810952D01*
X132135714Y-74763333D01*
X132088095Y-74668095D01*
X132088095Y-74572857D01*
X132135714Y-74477619D01*
X132183333Y-74430000D01*
X132278571Y-74382380D01*
X132516666Y-74382380D01*
X132659523Y-74430000D01*
X133088095Y-75382380D02*
X133088095Y-74382380D01*
X133326190Y-74382380D01*
X133469047Y-74430000D01*
X133564285Y-74525238D01*
X133611904Y-74620476D01*
X133659523Y-74810952D01*
X133659523Y-74953809D01*
X133611904Y-75144285D01*
X133564285Y-75239523D01*
X133469047Y-75334761D01*
X133326190Y-75382380D01*
X133088095Y-75382380D01*
X134040476Y-74477619D02*
X134088095Y-74430000D01*
X134183333Y-74382380D01*
X134421428Y-74382380D01*
X134516666Y-74430000D01*
X134564285Y-74477619D01*
X134611904Y-74572857D01*
X134611904Y-74668095D01*
X134564285Y-74810952D01*
X133992857Y-75382380D01*
X134611904Y-75382380D01*
X132588095Y-69350000D02*
X132492857Y-69302380D01*
X132350000Y-69302380D01*
X132207142Y-69350000D01*
X132111904Y-69445238D01*
X132064285Y-69540476D01*
X132016666Y-69730952D01*
X132016666Y-69873809D01*
X132064285Y-70064285D01*
X132111904Y-70159523D01*
X132207142Y-70254761D01*
X132350000Y-70302380D01*
X132445238Y-70302380D01*
X132588095Y-70254761D01*
X132635714Y-70207142D01*
X132635714Y-69873809D01*
X132445238Y-69873809D01*
X133064285Y-70302380D02*
X133064285Y-69302380D01*
X133635714Y-70302380D01*
X133635714Y-69302380D01*
X134111904Y-70302380D02*
X134111904Y-69302380D01*
X134350000Y-69302380D01*
X134492857Y-69350000D01*
X134588095Y-69445238D01*
X134635714Y-69540476D01*
X134683333Y-69730952D01*
X134683333Y-69873809D01*
X134635714Y-70064285D01*
X134588095Y-70159523D01*
X134492857Y-70254761D01*
X134350000Y-70302380D01*
X134111904Y-70302380D01*
X132540476Y-66762380D02*
X132873809Y-67762380D01*
X133207142Y-66762380D01*
X134016666Y-66762380D02*
X133540476Y-66762380D01*
X133492857Y-67238571D01*
X133540476Y-67190952D01*
X133635714Y-67143333D01*
X133873809Y-67143333D01*
X133969047Y-67190952D01*
X134016666Y-67238571D01*
X134064285Y-67333809D01*
X134064285Y-67571904D01*
X134016666Y-67667142D01*
X133969047Y-67714761D01*
X133873809Y-67762380D01*
X133635714Y-67762380D01*
X133540476Y-67714761D01*
X133492857Y-67667142D01*
X114808095Y-112530000D02*
X114712857Y-112482380D01*
X114570000Y-112482380D01*
X114427142Y-112530000D01*
X114331904Y-112625238D01*
X114284285Y-112720476D01*
X114236666Y-112910952D01*
X114236666Y-113053809D01*
X114284285Y-113244285D01*
X114331904Y-113339523D01*
X114427142Y-113434761D01*
X114570000Y-113482380D01*
X114665238Y-113482380D01*
X114808095Y-113434761D01*
X114855714Y-113387142D01*
X114855714Y-113053809D01*
X114665238Y-113053809D01*
X115284285Y-113482380D02*
X115284285Y-112482380D01*
X115855714Y-113482380D01*
X115855714Y-112482380D01*
X116331904Y-113482380D02*
X116331904Y-112482380D01*
X116570000Y-112482380D01*
X116712857Y-112530000D01*
X116808095Y-112625238D01*
X116855714Y-112720476D01*
X116903333Y-112910952D01*
X116903333Y-113053809D01*
X116855714Y-113244285D01*
X116808095Y-113339523D01*
X116712857Y-113434761D01*
X116570000Y-113482380D01*
X116331904Y-113482380D01*
X114879523Y-109990000D02*
X114784285Y-109942380D01*
X114641428Y-109942380D01*
X114498571Y-109990000D01*
X114403333Y-110085238D01*
X114355714Y-110180476D01*
X114308095Y-110370952D01*
X114308095Y-110513809D01*
X114355714Y-110704285D01*
X114403333Y-110799523D01*
X114498571Y-110894761D01*
X114641428Y-110942380D01*
X114736666Y-110942380D01*
X114879523Y-110894761D01*
X114927142Y-110847142D01*
X114927142Y-110513809D01*
X114736666Y-110513809D01*
X115308095Y-110037619D02*
X115355714Y-109990000D01*
X115450952Y-109942380D01*
X115689047Y-109942380D01*
X115784285Y-109990000D01*
X115831904Y-110037619D01*
X115879523Y-110132857D01*
X115879523Y-110228095D01*
X115831904Y-110370952D01*
X115260476Y-110942380D01*
X115879523Y-110942380D01*
X116212857Y-109942380D02*
X116831904Y-109942380D01*
X116498571Y-110323333D01*
X116641428Y-110323333D01*
X116736666Y-110370952D01*
X116784285Y-110418571D01*
X116831904Y-110513809D01*
X116831904Y-110751904D01*
X116784285Y-110847142D01*
X116736666Y-110894761D01*
X116641428Y-110942380D01*
X116355714Y-110942380D01*
X116260476Y-110894761D01*
X116212857Y-110847142D01*
X114879523Y-107450000D02*
X114784285Y-107402380D01*
X114641428Y-107402380D01*
X114498571Y-107450000D01*
X114403333Y-107545238D01*
X114355714Y-107640476D01*
X114308095Y-107830952D01*
X114308095Y-107973809D01*
X114355714Y-108164285D01*
X114403333Y-108259523D01*
X114498571Y-108354761D01*
X114641428Y-108402380D01*
X114736666Y-108402380D01*
X114879523Y-108354761D01*
X114927142Y-108307142D01*
X114927142Y-107973809D01*
X114736666Y-107973809D01*
X115308095Y-107497619D02*
X115355714Y-107450000D01*
X115450952Y-107402380D01*
X115689047Y-107402380D01*
X115784285Y-107450000D01*
X115831904Y-107497619D01*
X115879523Y-107592857D01*
X115879523Y-107688095D01*
X115831904Y-107830952D01*
X115260476Y-108402380D01*
X115879523Y-108402380D01*
X116260476Y-107497619D02*
X116308095Y-107450000D01*
X116403333Y-107402380D01*
X116641428Y-107402380D01*
X116736666Y-107450000D01*
X116784285Y-107497619D01*
X116831904Y-107592857D01*
X116831904Y-107688095D01*
X116784285Y-107830952D01*
X116212857Y-108402380D01*
X116831904Y-108402380D01*
X114331904Y-104862380D02*
X114903333Y-104862380D01*
X114617619Y-105862380D02*
X114617619Y-104862380D01*
X115141428Y-104862380D02*
X115808095Y-105862380D01*
X115808095Y-104862380D02*
X115141428Y-105862380D01*
X116379523Y-104862380D02*
X116474761Y-104862380D01*
X116570000Y-104910000D01*
X116617619Y-104957619D01*
X116665238Y-105052857D01*
X116712857Y-105243333D01*
X116712857Y-105481428D01*
X116665238Y-105671904D01*
X116617619Y-105767142D01*
X116570000Y-105814761D01*
X116474761Y-105862380D01*
X116379523Y-105862380D01*
X116284285Y-105814761D01*
X116236666Y-105767142D01*
X116189047Y-105671904D01*
X116141428Y-105481428D01*
X116141428Y-105243333D01*
X116189047Y-105052857D01*
X116236666Y-104957619D01*
X116284285Y-104910000D01*
X116379523Y-104862380D01*
X114927142Y-103322380D02*
X114593809Y-102846190D01*
X114355714Y-103322380D02*
X114355714Y-102322380D01*
X114736666Y-102322380D01*
X114831904Y-102370000D01*
X114879523Y-102417619D01*
X114927142Y-102512857D01*
X114927142Y-102655714D01*
X114879523Y-102750952D01*
X114831904Y-102798571D01*
X114736666Y-102846190D01*
X114355714Y-102846190D01*
X115260476Y-102322380D02*
X115927142Y-103322380D01*
X115927142Y-102322380D02*
X115260476Y-103322380D01*
X116498571Y-102322380D02*
X116593809Y-102322380D01*
X116689047Y-102370000D01*
X116736666Y-102417619D01*
X116784285Y-102512857D01*
X116831904Y-102703333D01*
X116831904Y-102941428D01*
X116784285Y-103131904D01*
X116736666Y-103227142D01*
X116689047Y-103274761D01*
X116593809Y-103322380D01*
X116498571Y-103322380D01*
X116403333Y-103274761D01*
X116355714Y-103227142D01*
X116308095Y-103131904D01*
X116260476Y-102941428D01*
X116260476Y-102703333D01*
X116308095Y-102512857D01*
X116355714Y-102417619D01*
X116403333Y-102370000D01*
X116498571Y-102322380D01*
X114879523Y-99830000D02*
X114784285Y-99782380D01*
X114641428Y-99782380D01*
X114498571Y-99830000D01*
X114403333Y-99925238D01*
X114355714Y-100020476D01*
X114308095Y-100210952D01*
X114308095Y-100353809D01*
X114355714Y-100544285D01*
X114403333Y-100639523D01*
X114498571Y-100734761D01*
X114641428Y-100782380D01*
X114736666Y-100782380D01*
X114879523Y-100734761D01*
X114927142Y-100687142D01*
X114927142Y-100353809D01*
X114736666Y-100353809D01*
X115308095Y-99877619D02*
X115355714Y-99830000D01*
X115450952Y-99782380D01*
X115689047Y-99782380D01*
X115784285Y-99830000D01*
X115831904Y-99877619D01*
X115879523Y-99972857D01*
X115879523Y-100068095D01*
X115831904Y-100210952D01*
X115260476Y-100782380D01*
X115879523Y-100782380D01*
X116831904Y-100782380D02*
X116260476Y-100782380D01*
X116546190Y-100782380D02*
X116546190Y-99782380D01*
X116450952Y-99925238D01*
X116355714Y-100020476D01*
X116260476Y-100068095D01*
X114808095Y-97290000D02*
X114712857Y-97242380D01*
X114570000Y-97242380D01*
X114427142Y-97290000D01*
X114331904Y-97385238D01*
X114284285Y-97480476D01*
X114236666Y-97670952D01*
X114236666Y-97813809D01*
X114284285Y-98004285D01*
X114331904Y-98099523D01*
X114427142Y-98194761D01*
X114570000Y-98242380D01*
X114665238Y-98242380D01*
X114808095Y-98194761D01*
X114855714Y-98147142D01*
X114855714Y-97813809D01*
X114665238Y-97813809D01*
X115284285Y-98242380D02*
X115284285Y-97242380D01*
X115855714Y-98242380D01*
X115855714Y-97242380D01*
X116331904Y-98242380D02*
X116331904Y-97242380D01*
X116570000Y-97242380D01*
X116712857Y-97290000D01*
X116808095Y-97385238D01*
X116855714Y-97480476D01*
X116903333Y-97670952D01*
X116903333Y-97813809D01*
X116855714Y-98004285D01*
X116808095Y-98099523D01*
X116712857Y-98194761D01*
X116570000Y-98242380D01*
X116331904Y-98242380D01*
X114879523Y-94750000D02*
X114784285Y-94702380D01*
X114641428Y-94702380D01*
X114498571Y-94750000D01*
X114403333Y-94845238D01*
X114355714Y-94940476D01*
X114308095Y-95130952D01*
X114308095Y-95273809D01*
X114355714Y-95464285D01*
X114403333Y-95559523D01*
X114498571Y-95654761D01*
X114641428Y-95702380D01*
X114736666Y-95702380D01*
X114879523Y-95654761D01*
X114927142Y-95607142D01*
X114927142Y-95273809D01*
X114736666Y-95273809D01*
X115879523Y-95702380D02*
X115308095Y-95702380D01*
X115593809Y-95702380D02*
X115593809Y-94702380D01*
X115498571Y-94845238D01*
X115403333Y-94940476D01*
X115308095Y-94988095D01*
X116355714Y-95702380D02*
X116546190Y-95702380D01*
X116641428Y-95654761D01*
X116689047Y-95607142D01*
X116784285Y-95464285D01*
X116831904Y-95273809D01*
X116831904Y-94892857D01*
X116784285Y-94797619D01*
X116736666Y-94750000D01*
X116641428Y-94702380D01*
X116450952Y-94702380D01*
X116355714Y-94750000D01*
X116308095Y-94797619D01*
X116260476Y-94892857D01*
X116260476Y-95130952D01*
X116308095Y-95226190D01*
X116355714Y-95273809D01*
X116450952Y-95321428D01*
X116641428Y-95321428D01*
X116736666Y-95273809D01*
X116784285Y-95226190D01*
X116831904Y-95130952D01*
X114879523Y-92210000D02*
X114784285Y-92162380D01*
X114641428Y-92162380D01*
X114498571Y-92210000D01*
X114403333Y-92305238D01*
X114355714Y-92400476D01*
X114308095Y-92590952D01*
X114308095Y-92733809D01*
X114355714Y-92924285D01*
X114403333Y-93019523D01*
X114498571Y-93114761D01*
X114641428Y-93162380D01*
X114736666Y-93162380D01*
X114879523Y-93114761D01*
X114927142Y-93067142D01*
X114927142Y-92733809D01*
X114736666Y-92733809D01*
X115879523Y-93162380D02*
X115308095Y-93162380D01*
X115593809Y-93162380D02*
X115593809Y-92162380D01*
X115498571Y-92305238D01*
X115403333Y-92400476D01*
X115308095Y-92448095D01*
X116450952Y-92590952D02*
X116355714Y-92543333D01*
X116308095Y-92495714D01*
X116260476Y-92400476D01*
X116260476Y-92352857D01*
X116308095Y-92257619D01*
X116355714Y-92210000D01*
X116450952Y-92162380D01*
X116641428Y-92162380D01*
X116736666Y-92210000D01*
X116784285Y-92257619D01*
X116831904Y-92352857D01*
X116831904Y-92400476D01*
X116784285Y-92495714D01*
X116736666Y-92543333D01*
X116641428Y-92590952D01*
X116450952Y-92590952D01*
X116355714Y-92638571D01*
X116308095Y-92686190D01*
X116260476Y-92781428D01*
X116260476Y-92971904D01*
X116308095Y-93067142D01*
X116355714Y-93114761D01*
X116450952Y-93162380D01*
X116641428Y-93162380D01*
X116736666Y-93114761D01*
X116784285Y-93067142D01*
X116831904Y-92971904D01*
X116831904Y-92781428D01*
X116784285Y-92686190D01*
X116736666Y-92638571D01*
X116641428Y-92590952D01*
X115355714Y-89670000D02*
X115260476Y-89622380D01*
X115117619Y-89622380D01*
X114974761Y-89670000D01*
X114879523Y-89765238D01*
X114831904Y-89860476D01*
X114784285Y-90050952D01*
X114784285Y-90193809D01*
X114831904Y-90384285D01*
X114879523Y-90479523D01*
X114974761Y-90574761D01*
X115117619Y-90622380D01*
X115212857Y-90622380D01*
X115355714Y-90574761D01*
X115403333Y-90527142D01*
X115403333Y-90193809D01*
X115212857Y-90193809D01*
X116308095Y-89622380D02*
X115831904Y-89622380D01*
X115784285Y-90098571D01*
X115831904Y-90050952D01*
X115927142Y-90003333D01*
X116165238Y-90003333D01*
X116260476Y-90050952D01*
X116308095Y-90098571D01*
X116355714Y-90193809D01*
X116355714Y-90431904D01*
X116308095Y-90527142D01*
X116260476Y-90574761D01*
X116165238Y-90622380D01*
X115927142Y-90622380D01*
X115831904Y-90574761D01*
X115784285Y-90527142D01*
X114879523Y-87130000D02*
X114784285Y-87082380D01*
X114641428Y-87082380D01*
X114498571Y-87130000D01*
X114403333Y-87225238D01*
X114355714Y-87320476D01*
X114308095Y-87510952D01*
X114308095Y-87653809D01*
X114355714Y-87844285D01*
X114403333Y-87939523D01*
X114498571Y-88034761D01*
X114641428Y-88082380D01*
X114736666Y-88082380D01*
X114879523Y-88034761D01*
X114927142Y-87987142D01*
X114927142Y-87653809D01*
X114736666Y-87653809D01*
X115879523Y-88082380D02*
X115308095Y-88082380D01*
X115593809Y-88082380D02*
X115593809Y-87082380D01*
X115498571Y-87225238D01*
X115403333Y-87320476D01*
X115308095Y-87368095D01*
X116212857Y-87082380D02*
X116879523Y-87082380D01*
X116450952Y-88082380D01*
X114879523Y-84590000D02*
X114784285Y-84542380D01*
X114641428Y-84542380D01*
X114498571Y-84590000D01*
X114403333Y-84685238D01*
X114355714Y-84780476D01*
X114308095Y-84970952D01*
X114308095Y-85113809D01*
X114355714Y-85304285D01*
X114403333Y-85399523D01*
X114498571Y-85494761D01*
X114641428Y-85542380D01*
X114736666Y-85542380D01*
X114879523Y-85494761D01*
X114927142Y-85447142D01*
X114927142Y-85113809D01*
X114736666Y-85113809D01*
X115879523Y-85542380D02*
X115308095Y-85542380D01*
X115593809Y-85542380D02*
X115593809Y-84542380D01*
X115498571Y-84685238D01*
X115403333Y-84780476D01*
X115308095Y-84828095D01*
X116736666Y-84542380D02*
X116546190Y-84542380D01*
X116450952Y-84590000D01*
X116403333Y-84637619D01*
X116308095Y-84780476D01*
X116260476Y-84970952D01*
X116260476Y-85351904D01*
X116308095Y-85447142D01*
X116355714Y-85494761D01*
X116450952Y-85542380D01*
X116641428Y-85542380D01*
X116736666Y-85494761D01*
X116784285Y-85447142D01*
X116831904Y-85351904D01*
X116831904Y-85113809D01*
X116784285Y-85018571D01*
X116736666Y-84970952D01*
X116641428Y-84923333D01*
X116450952Y-84923333D01*
X116355714Y-84970952D01*
X116308095Y-85018571D01*
X116260476Y-85113809D01*
X115355714Y-82050000D02*
X115260476Y-82002380D01*
X115117619Y-82002380D01*
X114974761Y-82050000D01*
X114879523Y-82145238D01*
X114831904Y-82240476D01*
X114784285Y-82430952D01*
X114784285Y-82573809D01*
X114831904Y-82764285D01*
X114879523Y-82859523D01*
X114974761Y-82954761D01*
X115117619Y-83002380D01*
X115212857Y-83002380D01*
X115355714Y-82954761D01*
X115403333Y-82907142D01*
X115403333Y-82573809D01*
X115212857Y-82573809D01*
X116260476Y-82335714D02*
X116260476Y-83002380D01*
X116022380Y-81954761D02*
X115784285Y-82669047D01*
X116403333Y-82669047D01*
X115355714Y-79510000D02*
X115260476Y-79462380D01*
X115117619Y-79462380D01*
X114974761Y-79510000D01*
X114879523Y-79605238D01*
X114831904Y-79700476D01*
X114784285Y-79890952D01*
X114784285Y-80033809D01*
X114831904Y-80224285D01*
X114879523Y-80319523D01*
X114974761Y-80414761D01*
X115117619Y-80462380D01*
X115212857Y-80462380D01*
X115355714Y-80414761D01*
X115403333Y-80367142D01*
X115403333Y-80033809D01*
X115212857Y-80033809D01*
X116022380Y-79462380D02*
X116117619Y-79462380D01*
X116212857Y-79510000D01*
X116260476Y-79557619D01*
X116308095Y-79652857D01*
X116355714Y-79843333D01*
X116355714Y-80081428D01*
X116308095Y-80271904D01*
X116260476Y-80367142D01*
X116212857Y-80414761D01*
X116117619Y-80462380D01*
X116022380Y-80462380D01*
X115927142Y-80414761D01*
X115879523Y-80367142D01*
X115831904Y-80271904D01*
X115784285Y-80081428D01*
X115784285Y-79843333D01*
X115831904Y-79652857D01*
X115879523Y-79557619D01*
X115927142Y-79510000D01*
X116022380Y-79462380D01*
X115355714Y-76970000D02*
X115260476Y-76922380D01*
X115117619Y-76922380D01*
X114974761Y-76970000D01*
X114879523Y-77065238D01*
X114831904Y-77160476D01*
X114784285Y-77350952D01*
X114784285Y-77493809D01*
X114831904Y-77684285D01*
X114879523Y-77779523D01*
X114974761Y-77874761D01*
X115117619Y-77922380D01*
X115212857Y-77922380D01*
X115355714Y-77874761D01*
X115403333Y-77827142D01*
X115403333Y-77493809D01*
X115212857Y-77493809D01*
X115784285Y-77017619D02*
X115831904Y-76970000D01*
X115927142Y-76922380D01*
X116165238Y-76922380D01*
X116260476Y-76970000D01*
X116308095Y-77017619D01*
X116355714Y-77112857D01*
X116355714Y-77208095D01*
X116308095Y-77350952D01*
X115736666Y-77922380D01*
X116355714Y-77922380D01*
X114879523Y-74430000D02*
X114784285Y-74382380D01*
X114641428Y-74382380D01*
X114498571Y-74430000D01*
X114403333Y-74525238D01*
X114355714Y-74620476D01*
X114308095Y-74810952D01*
X114308095Y-74953809D01*
X114355714Y-75144285D01*
X114403333Y-75239523D01*
X114498571Y-75334761D01*
X114641428Y-75382380D01*
X114736666Y-75382380D01*
X114879523Y-75334761D01*
X114927142Y-75287142D01*
X114927142Y-74953809D01*
X114736666Y-74953809D01*
X115879523Y-75382380D02*
X115308095Y-75382380D01*
X115593809Y-75382380D02*
X115593809Y-74382380D01*
X115498571Y-74525238D01*
X115403333Y-74620476D01*
X115308095Y-74668095D01*
X116784285Y-74382380D02*
X116308095Y-74382380D01*
X116260476Y-74858571D01*
X116308095Y-74810952D01*
X116403333Y-74763333D01*
X116641428Y-74763333D01*
X116736666Y-74810952D01*
X116784285Y-74858571D01*
X116831904Y-74953809D01*
X116831904Y-75191904D01*
X116784285Y-75287142D01*
X116736666Y-75334761D01*
X116641428Y-75382380D01*
X116403333Y-75382380D01*
X116308095Y-75334761D01*
X116260476Y-75287142D01*
X114331904Y-72794761D02*
X114474761Y-72842380D01*
X114712857Y-72842380D01*
X114808095Y-72794761D01*
X114855714Y-72747142D01*
X114903333Y-72651904D01*
X114903333Y-72556666D01*
X114855714Y-72461428D01*
X114808095Y-72413809D01*
X114712857Y-72366190D01*
X114522380Y-72318571D01*
X114427142Y-72270952D01*
X114379523Y-72223333D01*
X114331904Y-72128095D01*
X114331904Y-72032857D01*
X114379523Y-71937619D01*
X114427142Y-71890000D01*
X114522380Y-71842380D01*
X114760476Y-71842380D01*
X114903333Y-71890000D01*
X115522380Y-71842380D02*
X115617619Y-71842380D01*
X115712857Y-71890000D01*
X115760476Y-71937619D01*
X115808095Y-72032857D01*
X115855714Y-72223333D01*
X115855714Y-72461428D01*
X115808095Y-72651904D01*
X115760476Y-72747142D01*
X115712857Y-72794761D01*
X115617619Y-72842380D01*
X115522380Y-72842380D01*
X115427142Y-72794761D01*
X115379523Y-72747142D01*
X115331904Y-72651904D01*
X115284285Y-72461428D01*
X115284285Y-72223333D01*
X115331904Y-72032857D01*
X115379523Y-71937619D01*
X115427142Y-71890000D01*
X115522380Y-71842380D01*
X116808095Y-72842380D02*
X116236666Y-72842380D01*
X116522380Y-72842380D02*
X116522380Y-71842380D01*
X116427142Y-71985238D01*
X116331904Y-72080476D01*
X116236666Y-72128095D01*
X114308095Y-70254761D02*
X114450952Y-70302380D01*
X114689047Y-70302380D01*
X114784285Y-70254761D01*
X114831904Y-70207142D01*
X114879523Y-70111904D01*
X114879523Y-70016666D01*
X114831904Y-69921428D01*
X114784285Y-69873809D01*
X114689047Y-69826190D01*
X114498571Y-69778571D01*
X114403333Y-69730952D01*
X114355714Y-69683333D01*
X114308095Y-69588095D01*
X114308095Y-69492857D01*
X114355714Y-69397619D01*
X114403333Y-69350000D01*
X114498571Y-69302380D01*
X114736666Y-69302380D01*
X114879523Y-69350000D01*
X115308095Y-70302380D02*
X115308095Y-69302380D01*
X115546190Y-69302380D01*
X115689047Y-69350000D01*
X115784285Y-69445238D01*
X115831904Y-69540476D01*
X115879523Y-69730952D01*
X115879523Y-69873809D01*
X115831904Y-70064285D01*
X115784285Y-70159523D01*
X115689047Y-70254761D01*
X115546190Y-70302380D01*
X115308095Y-70302380D01*
X116498571Y-69302380D02*
X116593809Y-69302380D01*
X116689047Y-69350000D01*
X116736666Y-69397619D01*
X116784285Y-69492857D01*
X116831904Y-69683333D01*
X116831904Y-69921428D01*
X116784285Y-70111904D01*
X116736666Y-70207142D01*
X116689047Y-70254761D01*
X116593809Y-70302380D01*
X116498571Y-70302380D01*
X116403333Y-70254761D01*
X116355714Y-70207142D01*
X116308095Y-70111904D01*
X116260476Y-69921428D01*
X116260476Y-69683333D01*
X116308095Y-69492857D01*
X116355714Y-69397619D01*
X116403333Y-69350000D01*
X116498571Y-69302380D01*
X114974761Y-67667142D02*
X114927142Y-67714761D01*
X114784285Y-67762380D01*
X114689047Y-67762380D01*
X114546190Y-67714761D01*
X114450952Y-67619523D01*
X114403333Y-67524285D01*
X114355714Y-67333809D01*
X114355714Y-67190952D01*
X114403333Y-67000476D01*
X114450952Y-66905238D01*
X114546190Y-66810000D01*
X114689047Y-66762380D01*
X114784285Y-66762380D01*
X114927142Y-66810000D01*
X114974761Y-66857619D01*
X115879523Y-67762380D02*
X115403333Y-67762380D01*
X115403333Y-66762380D01*
X116212857Y-67762380D02*
X116212857Y-66762380D01*
X116784285Y-67762380D02*
X116355714Y-67190952D01*
X116784285Y-66762380D02*
X116212857Y-67333809D01*
X166878095Y-112530000D02*
X166782857Y-112482380D01*
X166640000Y-112482380D01*
X166497142Y-112530000D01*
X166401904Y-112625238D01*
X166354285Y-112720476D01*
X166306666Y-112910952D01*
X166306666Y-113053809D01*
X166354285Y-113244285D01*
X166401904Y-113339523D01*
X166497142Y-113434761D01*
X166640000Y-113482380D01*
X166735238Y-113482380D01*
X166878095Y-113434761D01*
X166925714Y-113387142D01*
X166925714Y-113053809D01*
X166735238Y-113053809D01*
X167354285Y-113482380D02*
X167354285Y-112482380D01*
X167925714Y-113482380D01*
X167925714Y-112482380D01*
X168401904Y-113482380D02*
X168401904Y-112482380D01*
X168640000Y-112482380D01*
X168782857Y-112530000D01*
X168878095Y-112625238D01*
X168925714Y-112720476D01*
X168973333Y-112910952D01*
X168973333Y-113053809D01*
X168925714Y-113244285D01*
X168878095Y-113339523D01*
X168782857Y-113434761D01*
X168640000Y-113482380D01*
X168401904Y-113482380D01*
X165473333Y-109575000D02*
X166330476Y-109575000D01*
X166044761Y-110418571D02*
X165711428Y-110418571D01*
X165711428Y-110942380D02*
X165711428Y-109942380D01*
X166187619Y-109942380D01*
X166330476Y-109575000D02*
X167187619Y-109575000D01*
X166520952Y-110656666D02*
X166997142Y-110656666D01*
X166425714Y-110942380D02*
X166759047Y-109942380D01*
X167092380Y-110942380D01*
X167187619Y-109575000D02*
X168235238Y-109575000D01*
X167425714Y-109942380D02*
X167425714Y-110751904D01*
X167473333Y-110847142D01*
X167520952Y-110894761D01*
X167616190Y-110942380D01*
X167806666Y-110942380D01*
X167901904Y-110894761D01*
X167949523Y-110847142D01*
X167997142Y-110751904D01*
X167997142Y-109942380D01*
X168235238Y-109575000D02*
X169044761Y-109575000D01*
X168949523Y-110942380D02*
X168473333Y-110942380D01*
X168473333Y-109942380D01*
X169044761Y-109575000D02*
X169806666Y-109575000D01*
X169140000Y-109942380D02*
X169711428Y-109942380D01*
X169425714Y-110942380D02*
X169425714Y-109942380D01*
X166925714Y-108116666D02*
X167401904Y-108116666D01*
X166830476Y-108402380D02*
X167163809Y-107402380D01*
X167497142Y-108402380D01*
X167782857Y-107497619D02*
X167830476Y-107450000D01*
X167925714Y-107402380D01*
X168163809Y-107402380D01*
X168259047Y-107450000D01*
X168306666Y-107497619D01*
X168354285Y-107592857D01*
X168354285Y-107688095D01*
X168306666Y-107830952D01*
X167735238Y-108402380D01*
X168354285Y-108402380D01*
X166925714Y-105576666D02*
X167401904Y-105576666D01*
X166830476Y-105862380D02*
X167163809Y-104862380D01*
X167497142Y-105862380D01*
X168354285Y-105862380D02*
X167782857Y-105862380D01*
X168068571Y-105862380D02*
X168068571Y-104862380D01*
X167973333Y-105005238D01*
X167878095Y-105100476D01*
X167782857Y-105148095D01*
X167235238Y-102798571D02*
X167378095Y-102846190D01*
X167425714Y-102893809D01*
X167473333Y-102989047D01*
X167473333Y-103131904D01*
X167425714Y-103227142D01*
X167378095Y-103274761D01*
X167282857Y-103322380D01*
X166901904Y-103322380D01*
X166901904Y-102322380D01*
X167235238Y-102322380D01*
X167330476Y-102370000D01*
X167378095Y-102417619D01*
X167425714Y-102512857D01*
X167425714Y-102608095D01*
X167378095Y-102703333D01*
X167330476Y-102750952D01*
X167235238Y-102798571D01*
X166901904Y-102798571D01*
X168425714Y-103322380D02*
X167854285Y-103322380D01*
X168140000Y-103322380D02*
X168140000Y-102322380D01*
X168044761Y-102465238D01*
X167949523Y-102560476D01*
X167854285Y-102608095D01*
X167235238Y-100258571D02*
X167378095Y-100306190D01*
X167425714Y-100353809D01*
X167473333Y-100449047D01*
X167473333Y-100591904D01*
X167425714Y-100687142D01*
X167378095Y-100734761D01*
X167282857Y-100782380D01*
X166901904Y-100782380D01*
X166901904Y-99782380D01*
X167235238Y-99782380D01*
X167330476Y-99830000D01*
X167378095Y-99877619D01*
X167425714Y-99972857D01*
X167425714Y-100068095D01*
X167378095Y-100163333D01*
X167330476Y-100210952D01*
X167235238Y-100258571D01*
X166901904Y-100258571D01*
X167854285Y-99877619D02*
X167901904Y-99830000D01*
X167997142Y-99782380D01*
X168235238Y-99782380D01*
X168330476Y-99830000D01*
X168378095Y-99877619D01*
X168425714Y-99972857D01*
X168425714Y-100068095D01*
X168378095Y-100210952D01*
X167806666Y-100782380D01*
X168425714Y-100782380D01*
X166878095Y-97290000D02*
X166782857Y-97242380D01*
X166640000Y-97242380D01*
X166497142Y-97290000D01*
X166401904Y-97385238D01*
X166354285Y-97480476D01*
X166306666Y-97670952D01*
X166306666Y-97813809D01*
X166354285Y-98004285D01*
X166401904Y-98099523D01*
X166497142Y-98194761D01*
X166640000Y-98242380D01*
X166735238Y-98242380D01*
X166878095Y-98194761D01*
X166925714Y-98147142D01*
X166925714Y-97813809D01*
X166735238Y-97813809D01*
X167354285Y-98242380D02*
X167354285Y-97242380D01*
X167925714Y-98242380D01*
X167925714Y-97242380D01*
X168401904Y-98242380D02*
X168401904Y-97242380D01*
X168640000Y-97242380D01*
X168782857Y-97290000D01*
X168878095Y-97385238D01*
X168925714Y-97480476D01*
X168973333Y-97670952D01*
X168973333Y-97813809D01*
X168925714Y-98004285D01*
X168878095Y-98099523D01*
X168782857Y-98194761D01*
X168640000Y-98242380D01*
X168401904Y-98242380D01*
X165830476Y-94702380D02*
X166163809Y-95702380D01*
X166497142Y-94702380D01*
X166830476Y-95702380D02*
X166830476Y-94702380D01*
X167163809Y-95416666D01*
X167497142Y-94702380D01*
X167497142Y-95702380D01*
X168163809Y-94702380D02*
X168354285Y-94702380D01*
X168449523Y-94750000D01*
X168544761Y-94845238D01*
X168592380Y-95035714D01*
X168592380Y-95369047D01*
X168544761Y-95559523D01*
X168449523Y-95654761D01*
X168354285Y-95702380D01*
X168163809Y-95702380D01*
X168068571Y-95654761D01*
X167973333Y-95559523D01*
X167925714Y-95369047D01*
X167925714Y-95035714D01*
X167973333Y-94845238D01*
X168068571Y-94750000D01*
X168163809Y-94702380D01*
X168878095Y-94702380D02*
X169449523Y-94702380D01*
X169163809Y-95702380D02*
X169163809Y-94702380D01*
X145050000Y-113482380D02*
X145050000Y-112482380D01*
X145288095Y-112482380D01*
X145430952Y-112530000D01*
X145526190Y-112625238D01*
X145573809Y-112720476D01*
X145621428Y-112910952D01*
X145621428Y-113053809D01*
X145573809Y-113244285D01*
X145526190Y-113339523D01*
X145430952Y-113434761D01*
X145288095Y-113482380D01*
X145050000Y-113482380D01*
X146050000Y-113482380D02*
X146050000Y-112482380D01*
X147097619Y-113482380D02*
X146764285Y-113006190D01*
X146526190Y-113482380D02*
X146526190Y-112482380D01*
X146907142Y-112482380D01*
X147002380Y-112530000D01*
X147050000Y-112577619D01*
X147097619Y-112672857D01*
X147097619Y-112815714D01*
X147050000Y-112910952D01*
X147002380Y-112958571D01*
X146907142Y-113006190D01*
X146526190Y-113006190D01*
X144430952Y-110894761D02*
X144573809Y-110942380D01*
X144811904Y-110942380D01*
X144907142Y-110894761D01*
X144954761Y-110847142D01*
X145002380Y-110751904D01*
X145002380Y-110656666D01*
X144954761Y-110561428D01*
X144907142Y-110513809D01*
X144811904Y-110466190D01*
X144621428Y-110418571D01*
X144526190Y-110370952D01*
X144478571Y-110323333D01*
X144430952Y-110228095D01*
X144430952Y-110132857D01*
X144478571Y-110037619D01*
X144526190Y-109990000D01*
X144621428Y-109942380D01*
X144859523Y-109942380D01*
X145002380Y-109990000D01*
X145288095Y-109942380D02*
X145859523Y-109942380D01*
X145573809Y-110942380D02*
X145573809Y-109942380D01*
X146192857Y-110418571D02*
X146526190Y-110418571D01*
X146669047Y-110942380D02*
X146192857Y-110942380D01*
X146192857Y-109942380D01*
X146669047Y-109942380D01*
X147097619Y-110942380D02*
X147097619Y-109942380D01*
X147478571Y-109942380D01*
X147573809Y-109990000D01*
X147621428Y-110037619D01*
X147669047Y-110132857D01*
X147669047Y-110275714D01*
X147621428Y-110370952D01*
X147573809Y-110418571D01*
X147478571Y-110466190D01*
X147097619Y-110466190D01*
X143764285Y-107035000D02*
X144716666Y-107035000D01*
X143954761Y-108354761D02*
X144097619Y-108402380D01*
X144335714Y-108402380D01*
X144430952Y-108354761D01*
X144478571Y-108307142D01*
X144526190Y-108211904D01*
X144526190Y-108116666D01*
X144478571Y-108021428D01*
X144430952Y-107973809D01*
X144335714Y-107926190D01*
X144145238Y-107878571D01*
X144050000Y-107830952D01*
X144002380Y-107783333D01*
X143954761Y-107688095D01*
X143954761Y-107592857D01*
X144002380Y-107497619D01*
X144050000Y-107450000D01*
X144145238Y-107402380D01*
X144383333Y-107402380D01*
X144526190Y-107450000D01*
X144716666Y-107035000D02*
X145526190Y-107035000D01*
X145430952Y-108402380D02*
X144954761Y-108402380D01*
X144954761Y-107402380D01*
X145526190Y-107035000D02*
X146430952Y-107035000D01*
X145764285Y-107878571D02*
X146097619Y-107878571D01*
X146240476Y-108402380D02*
X145764285Y-108402380D01*
X145764285Y-107402380D01*
X146240476Y-107402380D01*
X146430952Y-107035000D02*
X147335714Y-107035000D01*
X146669047Y-107878571D02*
X147002380Y-107878571D01*
X147145238Y-108402380D02*
X146669047Y-108402380D01*
X146669047Y-107402380D01*
X147145238Y-107402380D01*
X147335714Y-107035000D02*
X148335714Y-107035000D01*
X147573809Y-108402380D02*
X147573809Y-107402380D01*
X147954761Y-107402380D01*
X148050000Y-107450000D01*
X148097619Y-107497619D01*
X148145238Y-107592857D01*
X148145238Y-107735714D01*
X148097619Y-107830952D01*
X148050000Y-107878571D01*
X147954761Y-107926190D01*
X147573809Y-107926190D01*
X143788095Y-104495000D02*
X144788095Y-104495000D01*
X144597619Y-105862380D02*
X144264285Y-105386190D01*
X144026190Y-105862380D02*
X144026190Y-104862380D01*
X144407142Y-104862380D01*
X144502380Y-104910000D01*
X144550000Y-104957619D01*
X144597619Y-105052857D01*
X144597619Y-105195714D01*
X144550000Y-105290952D01*
X144502380Y-105338571D01*
X144407142Y-105386190D01*
X144026190Y-105386190D01*
X144788095Y-104495000D02*
X145692857Y-104495000D01*
X145026190Y-105338571D02*
X145359523Y-105338571D01*
X145502380Y-105862380D02*
X145026190Y-105862380D01*
X145026190Y-104862380D01*
X145502380Y-104862380D01*
X145692857Y-104495000D02*
X146645238Y-104495000D01*
X145883333Y-105814761D02*
X146026190Y-105862380D01*
X146264285Y-105862380D01*
X146359523Y-105814761D01*
X146407142Y-105767142D01*
X146454761Y-105671904D01*
X146454761Y-105576666D01*
X146407142Y-105481428D01*
X146359523Y-105433809D01*
X146264285Y-105386190D01*
X146073809Y-105338571D01*
X145978571Y-105290952D01*
X145930952Y-105243333D01*
X145883333Y-105148095D01*
X145883333Y-105052857D01*
X145930952Y-104957619D01*
X145978571Y-104910000D01*
X146073809Y-104862380D01*
X146311904Y-104862380D01*
X146454761Y-104910000D01*
X146645238Y-104495000D02*
X147550000Y-104495000D01*
X146883333Y-105338571D02*
X147216666Y-105338571D01*
X147359523Y-105862380D02*
X146883333Y-105862380D01*
X146883333Y-104862380D01*
X147359523Y-104862380D01*
X147550000Y-104495000D02*
X148311904Y-104495000D01*
X147645238Y-104862380D02*
X148216666Y-104862380D01*
X147930952Y-105862380D02*
X147930952Y-104862380D01*
X146510476Y-103322380D02*
X146510476Y-102322380D01*
X146843809Y-103036666D01*
X147177142Y-102322380D01*
X147177142Y-103322380D01*
X147605714Y-102417619D02*
X147653333Y-102370000D01*
X147748571Y-102322380D01*
X147986666Y-102322380D01*
X148081904Y-102370000D01*
X148129523Y-102417619D01*
X148177142Y-102512857D01*
X148177142Y-102608095D01*
X148129523Y-102750952D01*
X147558095Y-103322380D01*
X148177142Y-103322380D01*
X146510476Y-100782380D02*
X146510476Y-99782380D01*
X146843809Y-100496666D01*
X147177142Y-99782380D01*
X147177142Y-100782380D01*
X148177142Y-100782380D02*
X147605714Y-100782380D01*
X147891428Y-100782380D02*
X147891428Y-99782380D01*
X147796190Y-99925238D01*
X147700952Y-100020476D01*
X147605714Y-100068095D01*
X146510476Y-98242380D02*
X146510476Y-97242380D01*
X146843809Y-97956666D01*
X147177142Y-97242380D01*
X147177142Y-98242380D01*
X147843809Y-97242380D02*
X147939047Y-97242380D01*
X148034285Y-97290000D01*
X148081904Y-97337619D01*
X148129523Y-97432857D01*
X148177142Y-97623333D01*
X148177142Y-97861428D01*
X148129523Y-98051904D01*
X148081904Y-98147142D01*
X148034285Y-98194761D01*
X147939047Y-98242380D01*
X147843809Y-98242380D01*
X147748571Y-98194761D01*
X147700952Y-98147142D01*
X147653333Y-98051904D01*
X147605714Y-97861428D01*
X147605714Y-97623333D01*
X147653333Y-97432857D01*
X147700952Y-97337619D01*
X147748571Y-97290000D01*
X147843809Y-97242380D01*
X143288095Y-94335000D02*
X144192857Y-94335000D01*
X143526190Y-95178571D02*
X143859523Y-95178571D01*
X144002380Y-95702380D02*
X143526190Y-95702380D01*
X143526190Y-94702380D01*
X144002380Y-94702380D01*
X144192857Y-94335000D02*
X145240476Y-94335000D01*
X144430952Y-95702380D02*
X144430952Y-94702380D01*
X145002380Y-95702380D01*
X145002380Y-94702380D01*
X145240476Y-94335000D02*
X146097619Y-94335000D01*
X145430952Y-95416666D02*
X145907142Y-95416666D01*
X145335714Y-95702380D02*
X145669047Y-94702380D01*
X146002380Y-95702380D01*
X146097619Y-94335000D02*
X147097619Y-94335000D01*
X146669047Y-95178571D02*
X146811904Y-95226190D01*
X146859523Y-95273809D01*
X146907142Y-95369047D01*
X146907142Y-95511904D01*
X146859523Y-95607142D01*
X146811904Y-95654761D01*
X146716666Y-95702380D01*
X146335714Y-95702380D01*
X146335714Y-94702380D01*
X146669047Y-94702380D01*
X146764285Y-94750000D01*
X146811904Y-94797619D01*
X146859523Y-94892857D01*
X146859523Y-94988095D01*
X146811904Y-95083333D01*
X146764285Y-95130952D01*
X146669047Y-95178571D01*
X146335714Y-95178571D01*
X147097619Y-94335000D02*
X147907142Y-94335000D01*
X147811904Y-95702380D02*
X147335714Y-95702380D01*
X147335714Y-94702380D01*
X147907142Y-94335000D02*
X148811904Y-94335000D01*
X148145238Y-95178571D02*
X148478571Y-95178571D01*
X148621428Y-95702380D02*
X148145238Y-95702380D01*
X148145238Y-94702380D01*
X148621428Y-94702380D01*
X166878095Y-85860000D02*
X166782857Y-85812380D01*
X166640000Y-85812380D01*
X166497142Y-85860000D01*
X166401904Y-85955238D01*
X166354285Y-86050476D01*
X166306666Y-86240952D01*
X166306666Y-86383809D01*
X166354285Y-86574285D01*
X166401904Y-86669523D01*
X166497142Y-86764761D01*
X166640000Y-86812380D01*
X166735238Y-86812380D01*
X166878095Y-86764761D01*
X166925714Y-86717142D01*
X166925714Y-86383809D01*
X166735238Y-86383809D01*
X167354285Y-86812380D02*
X167354285Y-85812380D01*
X167925714Y-86812380D01*
X167925714Y-85812380D01*
X168401904Y-86812380D02*
X168401904Y-85812380D01*
X168640000Y-85812380D01*
X168782857Y-85860000D01*
X168878095Y-85955238D01*
X168925714Y-86050476D01*
X168973333Y-86240952D01*
X168973333Y-86383809D01*
X168925714Y-86574285D01*
X168878095Y-86669523D01*
X168782857Y-86764761D01*
X168640000Y-86812380D01*
X168401904Y-86812380D01*
X165473333Y-82905000D02*
X166330476Y-82905000D01*
X166044761Y-83748571D02*
X165711428Y-83748571D01*
X165711428Y-84272380D02*
X165711428Y-83272380D01*
X166187619Y-83272380D01*
X166330476Y-82905000D02*
X167187619Y-82905000D01*
X166520952Y-83986666D02*
X166997142Y-83986666D01*
X166425714Y-84272380D02*
X166759047Y-83272380D01*
X167092380Y-84272380D01*
X167187619Y-82905000D02*
X168235238Y-82905000D01*
X167425714Y-83272380D02*
X167425714Y-84081904D01*
X167473333Y-84177142D01*
X167520952Y-84224761D01*
X167616190Y-84272380D01*
X167806666Y-84272380D01*
X167901904Y-84224761D01*
X167949523Y-84177142D01*
X167997142Y-84081904D01*
X167997142Y-83272380D01*
X168235238Y-82905000D02*
X169044761Y-82905000D01*
X168949523Y-84272380D02*
X168473333Y-84272380D01*
X168473333Y-83272380D01*
X169044761Y-82905000D02*
X169806666Y-82905000D01*
X169140000Y-83272380D02*
X169711428Y-83272380D01*
X169425714Y-84272380D02*
X169425714Y-83272380D01*
X166925714Y-81446666D02*
X167401904Y-81446666D01*
X166830476Y-81732380D02*
X167163809Y-80732380D01*
X167497142Y-81732380D01*
X167782857Y-80827619D02*
X167830476Y-80780000D01*
X167925714Y-80732380D01*
X168163809Y-80732380D01*
X168259047Y-80780000D01*
X168306666Y-80827619D01*
X168354285Y-80922857D01*
X168354285Y-81018095D01*
X168306666Y-81160952D01*
X167735238Y-81732380D01*
X168354285Y-81732380D01*
X166925714Y-78906666D02*
X167401904Y-78906666D01*
X166830476Y-79192380D02*
X167163809Y-78192380D01*
X167497142Y-79192380D01*
X168354285Y-79192380D02*
X167782857Y-79192380D01*
X168068571Y-79192380D02*
X168068571Y-78192380D01*
X167973333Y-78335238D01*
X167878095Y-78430476D01*
X167782857Y-78478095D01*
X167235238Y-76128571D02*
X167378095Y-76176190D01*
X167425714Y-76223809D01*
X167473333Y-76319047D01*
X167473333Y-76461904D01*
X167425714Y-76557142D01*
X167378095Y-76604761D01*
X167282857Y-76652380D01*
X166901904Y-76652380D01*
X166901904Y-75652380D01*
X167235238Y-75652380D01*
X167330476Y-75700000D01*
X167378095Y-75747619D01*
X167425714Y-75842857D01*
X167425714Y-75938095D01*
X167378095Y-76033333D01*
X167330476Y-76080952D01*
X167235238Y-76128571D01*
X166901904Y-76128571D01*
X168425714Y-76652380D02*
X167854285Y-76652380D01*
X168140000Y-76652380D02*
X168140000Y-75652380D01*
X168044761Y-75795238D01*
X167949523Y-75890476D01*
X167854285Y-75938095D01*
X167235238Y-73588571D02*
X167378095Y-73636190D01*
X167425714Y-73683809D01*
X167473333Y-73779047D01*
X167473333Y-73921904D01*
X167425714Y-74017142D01*
X167378095Y-74064761D01*
X167282857Y-74112380D01*
X166901904Y-74112380D01*
X166901904Y-73112380D01*
X167235238Y-73112380D01*
X167330476Y-73160000D01*
X167378095Y-73207619D01*
X167425714Y-73302857D01*
X167425714Y-73398095D01*
X167378095Y-73493333D01*
X167330476Y-73540952D01*
X167235238Y-73588571D01*
X166901904Y-73588571D01*
X167854285Y-73207619D02*
X167901904Y-73160000D01*
X167997142Y-73112380D01*
X168235238Y-73112380D01*
X168330476Y-73160000D01*
X168378095Y-73207619D01*
X168425714Y-73302857D01*
X168425714Y-73398095D01*
X168378095Y-73540952D01*
X167806666Y-74112380D01*
X168425714Y-74112380D01*
X166878095Y-70620000D02*
X166782857Y-70572380D01*
X166640000Y-70572380D01*
X166497142Y-70620000D01*
X166401904Y-70715238D01*
X166354285Y-70810476D01*
X166306666Y-71000952D01*
X166306666Y-71143809D01*
X166354285Y-71334285D01*
X166401904Y-71429523D01*
X166497142Y-71524761D01*
X166640000Y-71572380D01*
X166735238Y-71572380D01*
X166878095Y-71524761D01*
X166925714Y-71477142D01*
X166925714Y-71143809D01*
X166735238Y-71143809D01*
X167354285Y-71572380D02*
X167354285Y-70572380D01*
X167925714Y-71572380D01*
X167925714Y-70572380D01*
X168401904Y-71572380D02*
X168401904Y-70572380D01*
X168640000Y-70572380D01*
X168782857Y-70620000D01*
X168878095Y-70715238D01*
X168925714Y-70810476D01*
X168973333Y-71000952D01*
X168973333Y-71143809D01*
X168925714Y-71334285D01*
X168878095Y-71429523D01*
X168782857Y-71524761D01*
X168640000Y-71572380D01*
X168401904Y-71572380D01*
X165830476Y-68032380D02*
X166163809Y-69032380D01*
X166497142Y-68032380D01*
X166830476Y-69032380D02*
X166830476Y-68032380D01*
X167163809Y-68746666D01*
X167497142Y-68032380D01*
X167497142Y-69032380D01*
X168163809Y-68032380D02*
X168354285Y-68032380D01*
X168449523Y-68080000D01*
X168544761Y-68175238D01*
X168592380Y-68365714D01*
X168592380Y-68699047D01*
X168544761Y-68889523D01*
X168449523Y-68984761D01*
X168354285Y-69032380D01*
X168163809Y-69032380D01*
X168068571Y-68984761D01*
X167973333Y-68889523D01*
X167925714Y-68699047D01*
X167925714Y-68365714D01*
X167973333Y-68175238D01*
X168068571Y-68080000D01*
X168163809Y-68032380D01*
X168878095Y-68032380D02*
X169449523Y-68032380D01*
X169163809Y-69032380D02*
X169163809Y-68032380D01*
X145050000Y-86812380D02*
X145050000Y-85812380D01*
X145288095Y-85812380D01*
X145430952Y-85860000D01*
X145526190Y-85955238D01*
X145573809Y-86050476D01*
X145621428Y-86240952D01*
X145621428Y-86383809D01*
X145573809Y-86574285D01*
X145526190Y-86669523D01*
X145430952Y-86764761D01*
X145288095Y-86812380D01*
X145050000Y-86812380D01*
X146050000Y-86812380D02*
X146050000Y-85812380D01*
X147097619Y-86812380D02*
X146764285Y-86336190D01*
X146526190Y-86812380D02*
X146526190Y-85812380D01*
X146907142Y-85812380D01*
X147002380Y-85860000D01*
X147050000Y-85907619D01*
X147097619Y-86002857D01*
X147097619Y-86145714D01*
X147050000Y-86240952D01*
X147002380Y-86288571D01*
X146907142Y-86336190D01*
X146526190Y-86336190D01*
X144430952Y-84224761D02*
X144573809Y-84272380D01*
X144811904Y-84272380D01*
X144907142Y-84224761D01*
X144954761Y-84177142D01*
X145002380Y-84081904D01*
X145002380Y-83986666D01*
X144954761Y-83891428D01*
X144907142Y-83843809D01*
X144811904Y-83796190D01*
X144621428Y-83748571D01*
X144526190Y-83700952D01*
X144478571Y-83653333D01*
X144430952Y-83558095D01*
X144430952Y-83462857D01*
X144478571Y-83367619D01*
X144526190Y-83320000D01*
X144621428Y-83272380D01*
X144859523Y-83272380D01*
X145002380Y-83320000D01*
X145288095Y-83272380D02*
X145859523Y-83272380D01*
X145573809Y-84272380D02*
X145573809Y-83272380D01*
X146192857Y-83748571D02*
X146526190Y-83748571D01*
X146669047Y-84272380D02*
X146192857Y-84272380D01*
X146192857Y-83272380D01*
X146669047Y-83272380D01*
X147097619Y-84272380D02*
X147097619Y-83272380D01*
X147478571Y-83272380D01*
X147573809Y-83320000D01*
X147621428Y-83367619D01*
X147669047Y-83462857D01*
X147669047Y-83605714D01*
X147621428Y-83700952D01*
X147573809Y-83748571D01*
X147478571Y-83796190D01*
X147097619Y-83796190D01*
X143764285Y-80365000D02*
X144716666Y-80365000D01*
X143954761Y-81684761D02*
X144097619Y-81732380D01*
X144335714Y-81732380D01*
X144430952Y-81684761D01*
X144478571Y-81637142D01*
X144526190Y-81541904D01*
X144526190Y-81446666D01*
X144478571Y-81351428D01*
X144430952Y-81303809D01*
X144335714Y-81256190D01*
X144145238Y-81208571D01*
X144050000Y-81160952D01*
X144002380Y-81113333D01*
X143954761Y-81018095D01*
X143954761Y-80922857D01*
X144002380Y-80827619D01*
X144050000Y-80780000D01*
X144145238Y-80732380D01*
X144383333Y-80732380D01*
X144526190Y-80780000D01*
X144716666Y-80365000D02*
X145526190Y-80365000D01*
X145430952Y-81732380D02*
X144954761Y-81732380D01*
X144954761Y-80732380D01*
X145526190Y-80365000D02*
X146430952Y-80365000D01*
X145764285Y-81208571D02*
X146097619Y-81208571D01*
X146240476Y-81732380D02*
X145764285Y-81732380D01*
X145764285Y-80732380D01*
X146240476Y-80732380D01*
X146430952Y-80365000D02*
X147335714Y-80365000D01*
X146669047Y-81208571D02*
X147002380Y-81208571D01*
X147145238Y-81732380D02*
X146669047Y-81732380D01*
X146669047Y-80732380D01*
X147145238Y-80732380D01*
X147335714Y-80365000D02*
X148335714Y-80365000D01*
X147573809Y-81732380D02*
X147573809Y-80732380D01*
X147954761Y-80732380D01*
X148050000Y-80780000D01*
X148097619Y-80827619D01*
X148145238Y-80922857D01*
X148145238Y-81065714D01*
X148097619Y-81160952D01*
X148050000Y-81208571D01*
X147954761Y-81256190D01*
X147573809Y-81256190D01*
X143788095Y-77825000D02*
X144788095Y-77825000D01*
X144597619Y-79192380D02*
X144264285Y-78716190D01*
X144026190Y-79192380D02*
X144026190Y-78192380D01*
X144407142Y-78192380D01*
X144502380Y-78240000D01*
X144550000Y-78287619D01*
X144597619Y-78382857D01*
X144597619Y-78525714D01*
X144550000Y-78620952D01*
X144502380Y-78668571D01*
X144407142Y-78716190D01*
X144026190Y-78716190D01*
X144788095Y-77825000D02*
X145692857Y-77825000D01*
X145026190Y-78668571D02*
X145359523Y-78668571D01*
X145502380Y-79192380D02*
X145026190Y-79192380D01*
X145026190Y-78192380D01*
X145502380Y-78192380D01*
X145692857Y-77825000D02*
X146645238Y-77825000D01*
X145883333Y-79144761D02*
X146026190Y-79192380D01*
X146264285Y-79192380D01*
X146359523Y-79144761D01*
X146407142Y-79097142D01*
X146454761Y-79001904D01*
X146454761Y-78906666D01*
X146407142Y-78811428D01*
X146359523Y-78763809D01*
X146264285Y-78716190D01*
X146073809Y-78668571D01*
X145978571Y-78620952D01*
X145930952Y-78573333D01*
X145883333Y-78478095D01*
X145883333Y-78382857D01*
X145930952Y-78287619D01*
X145978571Y-78240000D01*
X146073809Y-78192380D01*
X146311904Y-78192380D01*
X146454761Y-78240000D01*
X146645238Y-77825000D02*
X147550000Y-77825000D01*
X146883333Y-78668571D02*
X147216666Y-78668571D01*
X147359523Y-79192380D02*
X146883333Y-79192380D01*
X146883333Y-78192380D01*
X147359523Y-78192380D01*
X147550000Y-77825000D02*
X148311904Y-77825000D01*
X147645238Y-78192380D02*
X148216666Y-78192380D01*
X147930952Y-79192380D02*
X147930952Y-78192380D01*
X145240476Y-76652380D02*
X145240476Y-75652380D01*
X145573809Y-76366666D01*
X145907142Y-75652380D01*
X145907142Y-76652380D01*
X146335714Y-75747619D02*
X146383333Y-75700000D01*
X146478571Y-75652380D01*
X146716666Y-75652380D01*
X146811904Y-75700000D01*
X146859523Y-75747619D01*
X146907142Y-75842857D01*
X146907142Y-75938095D01*
X146859523Y-76080952D01*
X146288095Y-76652380D01*
X146907142Y-76652380D01*
X145240476Y-74112380D02*
X145240476Y-73112380D01*
X145573809Y-73826666D01*
X145907142Y-73112380D01*
X145907142Y-74112380D01*
X146907142Y-74112380D02*
X146335714Y-74112380D01*
X146621428Y-74112380D02*
X146621428Y-73112380D01*
X146526190Y-73255238D01*
X146430952Y-73350476D01*
X146335714Y-73398095D01*
X145240476Y-71572380D02*
X145240476Y-70572380D01*
X145573809Y-71286666D01*
X145907142Y-70572380D01*
X145907142Y-71572380D01*
X146573809Y-70572380D02*
X146669047Y-70572380D01*
X146764285Y-70620000D01*
X146811904Y-70667619D01*
X146859523Y-70762857D01*
X146907142Y-70953333D01*
X146907142Y-71191428D01*
X146859523Y-71381904D01*
X146811904Y-71477142D01*
X146764285Y-71524761D01*
X146669047Y-71572380D01*
X146573809Y-71572380D01*
X146478571Y-71524761D01*
X146430952Y-71477142D01*
X146383333Y-71381904D01*
X146335714Y-71191428D01*
X146335714Y-70953333D01*
X146383333Y-70762857D01*
X146430952Y-70667619D01*
X146478571Y-70620000D01*
X146573809Y-70572380D01*
X143288095Y-67665000D02*
X144192857Y-67665000D01*
X143526190Y-68508571D02*
X143859523Y-68508571D01*
X144002380Y-69032380D02*
X143526190Y-69032380D01*
X143526190Y-68032380D01*
X144002380Y-68032380D01*
X144192857Y-67665000D02*
X145240476Y-67665000D01*
X144430952Y-69032380D02*
X144430952Y-68032380D01*
X145002380Y-69032380D01*
X145002380Y-68032380D01*
X145240476Y-67665000D02*
X146097619Y-67665000D01*
X145430952Y-68746666D02*
X145907142Y-68746666D01*
X145335714Y-69032380D02*
X145669047Y-68032380D01*
X146002380Y-69032380D01*
X146097619Y-67665000D02*
X147097619Y-67665000D01*
X146669047Y-68508571D02*
X146811904Y-68556190D01*
X146859523Y-68603809D01*
X146907142Y-68699047D01*
X146907142Y-68841904D01*
X146859523Y-68937142D01*
X146811904Y-68984761D01*
X146716666Y-69032380D01*
X146335714Y-69032380D01*
X146335714Y-68032380D01*
X146669047Y-68032380D01*
X146764285Y-68080000D01*
X146811904Y-68127619D01*
X146859523Y-68222857D01*
X146859523Y-68318095D01*
X146811904Y-68413333D01*
X146764285Y-68460952D01*
X146669047Y-68508571D01*
X146335714Y-68508571D01*
X147097619Y-67665000D02*
X147907142Y-67665000D01*
X147811904Y-69032380D02*
X147335714Y-69032380D01*
X147335714Y-68032380D01*
X147907142Y-67665000D02*
X148811904Y-67665000D01*
X148145238Y-68508571D02*
X148478571Y-68508571D01*
X148621428Y-69032380D02*
X148145238Y-69032380D01*
X148145238Y-68032380D01*
X148621428Y-68032380D01*
D12*
X169296000Y-93375241D02*
X169926000Y-93375241D01*
X169611000Y-93690241D02*
X169611000Y-93060241D01*
X171048000Y-86949000D02*
X171852000Y-86949000D01*
X170817000Y-86989000D02*
X172083000Y-86989000D01*
X170648000Y-87029000D02*
X172252000Y-87029000D01*
X170510000Y-87069000D02*
X172390000Y-87069000D01*
X170391000Y-87109000D02*
X172509000Y-87109000D01*
X170285000Y-87149000D02*
X172615000Y-87149000D01*
X170188000Y-87189000D02*
X172712000Y-87189000D01*
X170100000Y-87229000D02*
X172800000Y-87229000D01*
X170018000Y-87269000D02*
X172882000Y-87269000D01*
X169941000Y-87309000D02*
X172959000Y-87309000D01*
X169869000Y-87349000D02*
X173031000Y-87349000D01*
X169800000Y-87389000D02*
X173100000Y-87389000D01*
X169736000Y-87429000D02*
X173164000Y-87429000D01*
X169674000Y-87469000D02*
X173226000Y-87469000D01*
X169616000Y-87509000D02*
X173284000Y-87509000D01*
X169560000Y-87549000D02*
X173340000Y-87549000D01*
X169506000Y-87589000D02*
X173394000Y-87589000D01*
X169455000Y-87629000D02*
X173445000Y-87629000D01*
X169406000Y-87669000D02*
X173494000Y-87669000D01*
X169358000Y-87709000D02*
X173542000Y-87709000D01*
X169313000Y-87749000D02*
X173587000Y-87749000D01*
X169268000Y-87789000D02*
X173632000Y-87789000D01*
X169226000Y-87829000D02*
X173674000Y-87829000D01*
X169185000Y-87869000D02*
X173715000Y-87869000D01*
X172490000Y-87909000D02*
X173755000Y-87909000D01*
X169145000Y-87909000D02*
X170410000Y-87909000D01*
X172490000Y-87949000D02*
X173793000Y-87949000D01*
X169107000Y-87949000D02*
X170410000Y-87949000D01*
X172490000Y-87989000D02*
X173830000Y-87989000D01*
X169070000Y-87989000D02*
X170410000Y-87989000D01*
X172490000Y-88029000D02*
X173866000Y-88029000D01*
X169034000Y-88029000D02*
X170410000Y-88029000D01*
X172490000Y-88069000D02*
X173900000Y-88069000D01*
X169000000Y-88069000D02*
X170410000Y-88069000D01*
X172490000Y-88109000D02*
X173934000Y-88109000D01*
X168966000Y-88109000D02*
X170410000Y-88109000D01*
X172490000Y-88149000D02*
X173966000Y-88149000D01*
X168934000Y-88149000D02*
X170410000Y-88149000D01*
X172490000Y-88189000D02*
X173998000Y-88189000D01*
X168902000Y-88189000D02*
X170410000Y-88189000D01*
X172490000Y-88229000D02*
X174028000Y-88229000D01*
X168872000Y-88229000D02*
X170410000Y-88229000D01*
X172490000Y-88269000D02*
X174057000Y-88269000D01*
X168843000Y-88269000D02*
X170410000Y-88269000D01*
X172490000Y-88309000D02*
X174086000Y-88309000D01*
X168814000Y-88309000D02*
X170410000Y-88309000D01*
X172490000Y-88349000D02*
X174114000Y-88349000D01*
X168786000Y-88349000D02*
X170410000Y-88349000D01*
X172490000Y-88389000D02*
X174140000Y-88389000D01*
X168760000Y-88389000D02*
X170410000Y-88389000D01*
X172490000Y-88429000D02*
X174166000Y-88429000D01*
X168734000Y-88429000D02*
X170410000Y-88429000D01*
X172490000Y-88469000D02*
X174192000Y-88469000D01*
X168708000Y-88469000D02*
X170410000Y-88469000D01*
X172490000Y-88509000D02*
X174216000Y-88509000D01*
X168684000Y-88509000D02*
X170410000Y-88509000D01*
X172490000Y-88549000D02*
X174240000Y-88549000D01*
X168660000Y-88549000D02*
X170410000Y-88549000D01*
X172490000Y-88589000D02*
X174262000Y-88589000D01*
X168638000Y-88589000D02*
X170410000Y-88589000D01*
X172490000Y-88629000D02*
X174284000Y-88629000D01*
X168616000Y-88629000D02*
X170410000Y-88629000D01*
X172490000Y-88669000D02*
X174306000Y-88669000D01*
X168594000Y-88669000D02*
X170410000Y-88669000D01*
X172490000Y-88709000D02*
X174326000Y-88709000D01*
X168574000Y-88709000D02*
X170410000Y-88709000D01*
X172490000Y-88749000D02*
X174346000Y-88749000D01*
X168554000Y-88749000D02*
X170410000Y-88749000D01*
X172490000Y-88789000D02*
X174366000Y-88789000D01*
X168534000Y-88789000D02*
X170410000Y-88789000D01*
X172490000Y-88829000D02*
X174384000Y-88829000D01*
X168516000Y-88829000D02*
X170410000Y-88829000D01*
X172490000Y-88869000D02*
X174402000Y-88869000D01*
X168498000Y-88869000D02*
X170410000Y-88869000D01*
X172490000Y-88909000D02*
X174420000Y-88909000D01*
X168480000Y-88909000D02*
X170410000Y-88909000D01*
X172490000Y-88949000D02*
X174436000Y-88949000D01*
X168464000Y-88949000D02*
X170410000Y-88949000D01*
X172490000Y-88989000D02*
X174452000Y-88989000D01*
X168448000Y-88989000D02*
X170410000Y-88989000D01*
X172490000Y-89029000D02*
X174468000Y-89029000D01*
X168432000Y-89029000D02*
X170410000Y-89029000D01*
X172490000Y-89069000D02*
X174483000Y-89069000D01*
X168417000Y-89069000D02*
X170410000Y-89069000D01*
X172490000Y-89109000D02*
X174497000Y-89109000D01*
X168403000Y-89109000D02*
X170410000Y-89109000D01*
X172490000Y-89149000D02*
X174511000Y-89149000D01*
X168389000Y-89149000D02*
X170410000Y-89149000D01*
X172490000Y-89189000D02*
X174524000Y-89189000D01*
X168376000Y-89189000D02*
X170410000Y-89189000D01*
X172490000Y-89229000D02*
X174536000Y-89229000D01*
X168364000Y-89229000D02*
X170410000Y-89229000D01*
X172490000Y-89269000D02*
X174548000Y-89269000D01*
X168352000Y-89269000D02*
X170410000Y-89269000D01*
X172490000Y-89309000D02*
X174560000Y-89309000D01*
X168340000Y-89309000D02*
X170410000Y-89309000D01*
X172490000Y-89349000D02*
X174571000Y-89349000D01*
X168329000Y-89349000D02*
X170410000Y-89349000D01*
X172490000Y-89389000D02*
X174581000Y-89389000D01*
X168319000Y-89389000D02*
X170410000Y-89389000D01*
X172490000Y-89429000D02*
X174591000Y-89429000D01*
X168309000Y-89429000D02*
X170410000Y-89429000D01*
X172490000Y-89469000D02*
X174600000Y-89469000D01*
X168300000Y-89469000D02*
X170410000Y-89469000D01*
X172490000Y-89510000D02*
X174609000Y-89510000D01*
X168291000Y-89510000D02*
X170410000Y-89510000D01*
X172490000Y-89550000D02*
X174617000Y-89550000D01*
X168283000Y-89550000D02*
X170410000Y-89550000D01*
X172490000Y-89590000D02*
X174625000Y-89590000D01*
X168275000Y-89590000D02*
X170410000Y-89590000D01*
X172490000Y-89630000D02*
X174632000Y-89630000D01*
X168268000Y-89630000D02*
X170410000Y-89630000D01*
X172490000Y-89670000D02*
X174639000Y-89670000D01*
X168261000Y-89670000D02*
X170410000Y-89670000D01*
X172490000Y-89710000D02*
X174645000Y-89710000D01*
X168255000Y-89710000D02*
X170410000Y-89710000D01*
X172490000Y-89750000D02*
X174651000Y-89750000D01*
X168249000Y-89750000D02*
X170410000Y-89750000D01*
X172490000Y-89790000D02*
X174656000Y-89790000D01*
X168244000Y-89790000D02*
X170410000Y-89790000D01*
X172490000Y-89830000D02*
X174661000Y-89830000D01*
X168239000Y-89830000D02*
X170410000Y-89830000D01*
X172490000Y-89870000D02*
X174665000Y-89870000D01*
X168235000Y-89870000D02*
X170410000Y-89870000D01*
X172490000Y-89910000D02*
X174668000Y-89910000D01*
X168232000Y-89910000D02*
X170410000Y-89910000D01*
X172490000Y-89950000D02*
X174672000Y-89950000D01*
X168228000Y-89950000D02*
X170410000Y-89950000D01*
X168226000Y-89990000D02*
X174674000Y-89990000D01*
X168223000Y-90030000D02*
X174677000Y-90030000D01*
X168222000Y-90070000D02*
X174678000Y-90070000D01*
X168220000Y-90110000D02*
X174680000Y-90110000D01*
X168220000Y-90150000D02*
X174680000Y-90150000D01*
X168220000Y-90190000D02*
X174680000Y-90190000D01*
X174720000Y-90190000D02*
G75*
G03*
X174720000Y-90190000I-3270000J0D01*
G01*
X78955000Y-111650000D02*
X78640000Y-111650000D01*
X81380000Y-111650000D02*
X81065000Y-111650000D01*
X78955000Y-106710000D02*
X78640000Y-106710000D01*
X81380000Y-106710000D02*
X81065000Y-106710000D01*
X78640000Y-106710000D02*
X78640000Y-111650000D01*
X81380000Y-106710000D02*
X81380000Y-111650000D01*
X90920000Y-99060000D02*
G75*
G03*
X90920000Y-99060000I-3270000J0D01*
G01*
X87650000Y-102290000D02*
X87650000Y-95830000D01*
X87610000Y-102290000D02*
X87610000Y-95830000D01*
X87570000Y-102290000D02*
X87570000Y-95830000D01*
X87530000Y-102288000D02*
X87530000Y-95832000D01*
X87490000Y-102287000D02*
X87490000Y-95833000D01*
X87450000Y-102284000D02*
X87450000Y-95836000D01*
X87410000Y-102282000D02*
X87410000Y-100100000D01*
X87410000Y-98020000D02*
X87410000Y-95838000D01*
X87370000Y-102278000D02*
X87370000Y-100100000D01*
X87370000Y-98020000D02*
X87370000Y-95842000D01*
X87330000Y-102275000D02*
X87330000Y-100100000D01*
X87330000Y-98020000D02*
X87330000Y-95845000D01*
X87290000Y-102271000D02*
X87290000Y-100100000D01*
X87290000Y-98020000D02*
X87290000Y-95849000D01*
X87250000Y-102266000D02*
X87250000Y-100100000D01*
X87250000Y-98020000D02*
X87250000Y-95854000D01*
X87210000Y-102261000D02*
X87210000Y-100100000D01*
X87210000Y-98020000D02*
X87210000Y-95859000D01*
X87170000Y-102255000D02*
X87170000Y-100100000D01*
X87170000Y-98020000D02*
X87170000Y-95865000D01*
X87130000Y-102249000D02*
X87130000Y-100100000D01*
X87130000Y-98020000D02*
X87130000Y-95871000D01*
X87090000Y-102242000D02*
X87090000Y-100100000D01*
X87090000Y-98020000D02*
X87090000Y-95878000D01*
X87050000Y-102235000D02*
X87050000Y-100100000D01*
X87050000Y-98020000D02*
X87050000Y-95885000D01*
X87010000Y-102227000D02*
X87010000Y-100100000D01*
X87010000Y-98020000D02*
X87010000Y-95893000D01*
X86970000Y-102219000D02*
X86970000Y-100100000D01*
X86970000Y-98020000D02*
X86970000Y-95901000D01*
X86929000Y-102210000D02*
X86929000Y-100100000D01*
X86929000Y-98020000D02*
X86929000Y-95910000D01*
X86889000Y-102201000D02*
X86889000Y-100100000D01*
X86889000Y-98020000D02*
X86889000Y-95919000D01*
X86849000Y-102191000D02*
X86849000Y-100100000D01*
X86849000Y-98020000D02*
X86849000Y-95929000D01*
X86809000Y-102181000D02*
X86809000Y-100100000D01*
X86809000Y-98020000D02*
X86809000Y-95939000D01*
X86769000Y-102170000D02*
X86769000Y-100100000D01*
X86769000Y-98020000D02*
X86769000Y-95950000D01*
X86729000Y-102158000D02*
X86729000Y-100100000D01*
X86729000Y-98020000D02*
X86729000Y-95962000D01*
X86689000Y-102146000D02*
X86689000Y-100100000D01*
X86689000Y-98020000D02*
X86689000Y-95974000D01*
X86649000Y-102134000D02*
X86649000Y-100100000D01*
X86649000Y-98020000D02*
X86649000Y-95986000D01*
X86609000Y-102121000D02*
X86609000Y-100100000D01*
X86609000Y-98020000D02*
X86609000Y-95999000D01*
X86569000Y-102107000D02*
X86569000Y-100100000D01*
X86569000Y-98020000D02*
X86569000Y-96013000D01*
X86529000Y-102093000D02*
X86529000Y-100100000D01*
X86529000Y-98020000D02*
X86529000Y-96027000D01*
X86489000Y-102078000D02*
X86489000Y-100100000D01*
X86489000Y-98020000D02*
X86489000Y-96042000D01*
X86449000Y-102062000D02*
X86449000Y-100100000D01*
X86449000Y-98020000D02*
X86449000Y-96058000D01*
X86409000Y-102046000D02*
X86409000Y-100100000D01*
X86409000Y-98020000D02*
X86409000Y-96074000D01*
X86369000Y-102030000D02*
X86369000Y-100100000D01*
X86369000Y-98020000D02*
X86369000Y-96090000D01*
X86329000Y-102012000D02*
X86329000Y-100100000D01*
X86329000Y-98020000D02*
X86329000Y-96108000D01*
X86289000Y-101994000D02*
X86289000Y-100100000D01*
X86289000Y-98020000D02*
X86289000Y-96126000D01*
X86249000Y-101976000D02*
X86249000Y-100100000D01*
X86249000Y-98020000D02*
X86249000Y-96144000D01*
X86209000Y-101956000D02*
X86209000Y-100100000D01*
X86209000Y-98020000D02*
X86209000Y-96164000D01*
X86169000Y-101936000D02*
X86169000Y-100100000D01*
X86169000Y-98020000D02*
X86169000Y-96184000D01*
X86129000Y-101916000D02*
X86129000Y-100100000D01*
X86129000Y-98020000D02*
X86129000Y-96204000D01*
X86089000Y-101894000D02*
X86089000Y-100100000D01*
X86089000Y-98020000D02*
X86089000Y-96226000D01*
X86049000Y-101872000D02*
X86049000Y-100100000D01*
X86049000Y-98020000D02*
X86049000Y-96248000D01*
X86009000Y-101850000D02*
X86009000Y-100100000D01*
X86009000Y-98020000D02*
X86009000Y-96270000D01*
X85969000Y-101826000D02*
X85969000Y-100100000D01*
X85969000Y-98020000D02*
X85969000Y-96294000D01*
X85929000Y-101802000D02*
X85929000Y-100100000D01*
X85929000Y-98020000D02*
X85929000Y-96318000D01*
X85889000Y-101776000D02*
X85889000Y-100100000D01*
X85889000Y-98020000D02*
X85889000Y-96344000D01*
X85849000Y-101750000D02*
X85849000Y-100100000D01*
X85849000Y-98020000D02*
X85849000Y-96370000D01*
X85809000Y-101724000D02*
X85809000Y-100100000D01*
X85809000Y-98020000D02*
X85809000Y-96396000D01*
X85769000Y-101696000D02*
X85769000Y-100100000D01*
X85769000Y-98020000D02*
X85769000Y-96424000D01*
X85729000Y-101667000D02*
X85729000Y-100100000D01*
X85729000Y-98020000D02*
X85729000Y-96453000D01*
X85689000Y-101638000D02*
X85689000Y-100100000D01*
X85689000Y-98020000D02*
X85689000Y-96482000D01*
X85649000Y-101608000D02*
X85649000Y-100100000D01*
X85649000Y-98020000D02*
X85649000Y-96512000D01*
X85609000Y-101576000D02*
X85609000Y-100100000D01*
X85609000Y-98020000D02*
X85609000Y-96544000D01*
X85569000Y-101544000D02*
X85569000Y-100100000D01*
X85569000Y-98020000D02*
X85569000Y-96576000D01*
X85529000Y-101510000D02*
X85529000Y-100100000D01*
X85529000Y-98020000D02*
X85529000Y-96610000D01*
X85489000Y-101476000D02*
X85489000Y-100100000D01*
X85489000Y-98020000D02*
X85489000Y-96644000D01*
X85449000Y-101440000D02*
X85449000Y-100100000D01*
X85449000Y-98020000D02*
X85449000Y-96680000D01*
X85409000Y-101403000D02*
X85409000Y-100100000D01*
X85409000Y-98020000D02*
X85409000Y-96717000D01*
X85369000Y-101365000D02*
X85369000Y-100100000D01*
X85369000Y-98020000D02*
X85369000Y-96755000D01*
X85329000Y-101325000D02*
X85329000Y-96795000D01*
X85289000Y-101284000D02*
X85289000Y-96836000D01*
X85249000Y-101242000D02*
X85249000Y-96878000D01*
X85209000Y-101197000D02*
X85209000Y-96923000D01*
X85169000Y-101152000D02*
X85169000Y-96968000D01*
X85129000Y-101104000D02*
X85129000Y-97016000D01*
X85089000Y-101055000D02*
X85089000Y-97065000D01*
X85049000Y-101004000D02*
X85049000Y-97116000D01*
X85009000Y-100950000D02*
X85009000Y-97170000D01*
X84969000Y-100894000D02*
X84969000Y-97226000D01*
X84929000Y-100836000D02*
X84929000Y-97284000D01*
X84889000Y-100774000D02*
X84889000Y-97346000D01*
X84849000Y-100710000D02*
X84849000Y-97410000D01*
X84809000Y-100641000D02*
X84809000Y-97479000D01*
X84769000Y-100569000D02*
X84769000Y-97551000D01*
X84729000Y-100492000D02*
X84729000Y-97628000D01*
X84689000Y-100410000D02*
X84689000Y-97710000D01*
X84649000Y-100322000D02*
X84649000Y-97798000D01*
X84609000Y-100225000D02*
X84609000Y-97895000D01*
X84569000Y-100119000D02*
X84569000Y-98001000D01*
X84529000Y-100000000D02*
X84529000Y-98120000D01*
X84489000Y-99862000D02*
X84489000Y-98258000D01*
X84449000Y-99693000D02*
X84449000Y-98427000D01*
X84409000Y-99462000D02*
X84409000Y-98658000D01*
X91150241Y-100899000D02*
X90520241Y-100899000D01*
X90835241Y-101214000D02*
X90835241Y-100584000D01*
X87730000Y-106710000D02*
X87730000Y-111650000D01*
X84990000Y-106710000D02*
X84990000Y-111650000D01*
X87730000Y-106710000D02*
X87415000Y-106710000D01*
X85305000Y-106710000D02*
X84990000Y-106710000D01*
X87730000Y-111650000D02*
X87415000Y-111650000D01*
X85305000Y-111650000D02*
X84990000Y-111650000D01*
X84275000Y-115285225D02*
X83775000Y-115285225D01*
X84025000Y-115035225D02*
X84025000Y-115535225D01*
X82834000Y-120441000D02*
X82266000Y-120441000D01*
X83068000Y-120401000D02*
X82032000Y-120401000D01*
X83227000Y-120361000D02*
X81873000Y-120361000D01*
X83355000Y-120321000D02*
X81745000Y-120321000D01*
X83465000Y-120281000D02*
X81635000Y-120281000D01*
X83561000Y-120241000D02*
X81539000Y-120241000D01*
X83648000Y-120201000D02*
X81452000Y-120201000D01*
X83728000Y-120161000D02*
X81372000Y-120161000D01*
X83801000Y-120121000D02*
X81299000Y-120121000D01*
X83869000Y-120081000D02*
X81231000Y-120081000D01*
X83933000Y-120041000D02*
X81167000Y-120041000D01*
X83993000Y-120001000D02*
X81107000Y-120001000D01*
X84050000Y-119961000D02*
X81050000Y-119961000D01*
X84104000Y-119921000D02*
X80996000Y-119921000D01*
X84155000Y-119881000D02*
X80945000Y-119881000D01*
X81510000Y-119841000D02*
X80897000Y-119841000D01*
X84203000Y-119841000D02*
X83590000Y-119841000D01*
X81510000Y-119801000D02*
X80851000Y-119801000D01*
X84249000Y-119801000D02*
X83590000Y-119801000D01*
X81510000Y-119761000D02*
X80807000Y-119761000D01*
X84293000Y-119761000D02*
X83590000Y-119761000D01*
X81510000Y-119721000D02*
X80765000Y-119721000D01*
X84335000Y-119721000D02*
X83590000Y-119721000D01*
X81510000Y-119681000D02*
X80724000Y-119681000D01*
X84376000Y-119681000D02*
X83590000Y-119681000D01*
X81510000Y-119641000D02*
X80686000Y-119641000D01*
X84414000Y-119641000D02*
X83590000Y-119641000D01*
X81510000Y-119601000D02*
X80649000Y-119601000D01*
X84451000Y-119601000D02*
X83590000Y-119601000D01*
X81510000Y-119561000D02*
X80613000Y-119561000D01*
X84487000Y-119561000D02*
X83590000Y-119561000D01*
X81510000Y-119521000D02*
X80579000Y-119521000D01*
X84521000Y-119521000D02*
X83590000Y-119521000D01*
X81510000Y-119481000D02*
X80546000Y-119481000D01*
X84554000Y-119481000D02*
X83590000Y-119481000D01*
X81510000Y-119441000D02*
X80515000Y-119441000D01*
X84585000Y-119441000D02*
X83590000Y-119441000D01*
X81510000Y-119401000D02*
X80485000Y-119401000D01*
X84615000Y-119401000D02*
X83590000Y-119401000D01*
X81510000Y-119361000D02*
X80455000Y-119361000D01*
X84645000Y-119361000D02*
X83590000Y-119361000D01*
X81510000Y-119321000D02*
X80428000Y-119321000D01*
X84672000Y-119321000D02*
X83590000Y-119321000D01*
X81510000Y-119281000D02*
X80401000Y-119281000D01*
X84699000Y-119281000D02*
X83590000Y-119281000D01*
X81510000Y-119241000D02*
X80375000Y-119241000D01*
X84725000Y-119241000D02*
X83590000Y-119241000D01*
X81510000Y-119201000D02*
X80350000Y-119201000D01*
X84750000Y-119201000D02*
X83590000Y-119201000D01*
X81510000Y-119161000D02*
X80326000Y-119161000D01*
X84774000Y-119161000D02*
X83590000Y-119161000D01*
X81510000Y-119121000D02*
X80303000Y-119121000D01*
X84797000Y-119121000D02*
X83590000Y-119121000D01*
X81510000Y-119081000D02*
X80282000Y-119081000D01*
X84818000Y-119081000D02*
X83590000Y-119081000D01*
X81510000Y-119041000D02*
X80260000Y-119041000D01*
X84840000Y-119041000D02*
X83590000Y-119041000D01*
X81510000Y-119001000D02*
X80240000Y-119001000D01*
X84860000Y-119001000D02*
X83590000Y-119001000D01*
X81510000Y-118961000D02*
X80221000Y-118961000D01*
X84879000Y-118961000D02*
X83590000Y-118961000D01*
X81510000Y-118921000D02*
X80202000Y-118921000D01*
X84898000Y-118921000D02*
X83590000Y-118921000D01*
X81510000Y-118881000D02*
X80185000Y-118881000D01*
X84915000Y-118881000D02*
X83590000Y-118881000D01*
X81510000Y-118841000D02*
X80168000Y-118841000D01*
X84932000Y-118841000D02*
X83590000Y-118841000D01*
X81510000Y-118801000D02*
X80152000Y-118801000D01*
X84948000Y-118801000D02*
X83590000Y-118801000D01*
X81510000Y-118761000D02*
X80136000Y-118761000D01*
X84964000Y-118761000D02*
X83590000Y-118761000D01*
X81510000Y-118721000D02*
X80122000Y-118721000D01*
X84978000Y-118721000D02*
X83590000Y-118721000D01*
X81510000Y-118681000D02*
X80108000Y-118681000D01*
X84992000Y-118681000D02*
X83590000Y-118681000D01*
X81510000Y-118641000D02*
X80095000Y-118641000D01*
X85005000Y-118641000D02*
X83590000Y-118641000D01*
X81510000Y-118601000D02*
X80082000Y-118601000D01*
X85018000Y-118601000D02*
X83590000Y-118601000D01*
X81510000Y-118561000D02*
X80070000Y-118561000D01*
X85030000Y-118561000D02*
X83590000Y-118561000D01*
X81510000Y-118520000D02*
X80059000Y-118520000D01*
X85041000Y-118520000D02*
X83590000Y-118520000D01*
X81510000Y-118480000D02*
X80049000Y-118480000D01*
X85051000Y-118480000D02*
X83590000Y-118480000D01*
X81510000Y-118440000D02*
X80039000Y-118440000D01*
X85061000Y-118440000D02*
X83590000Y-118440000D01*
X81510000Y-118400000D02*
X80030000Y-118400000D01*
X85070000Y-118400000D02*
X83590000Y-118400000D01*
X81510000Y-118360000D02*
X80022000Y-118360000D01*
X85078000Y-118360000D02*
X83590000Y-118360000D01*
X81510000Y-118320000D02*
X80014000Y-118320000D01*
X85086000Y-118320000D02*
X83590000Y-118320000D01*
X81510000Y-118280000D02*
X80007000Y-118280000D01*
X85093000Y-118280000D02*
X83590000Y-118280000D01*
X81510000Y-118240000D02*
X80000000Y-118240000D01*
X85100000Y-118240000D02*
X83590000Y-118240000D01*
X81510000Y-118200000D02*
X79994000Y-118200000D01*
X85106000Y-118200000D02*
X83590000Y-118200000D01*
X81510000Y-118160000D02*
X79989000Y-118160000D01*
X85111000Y-118160000D02*
X83590000Y-118160000D01*
X81510000Y-118120000D02*
X79985000Y-118120000D01*
X85115000Y-118120000D02*
X83590000Y-118120000D01*
X81510000Y-118080000D02*
X79981000Y-118080000D01*
X85119000Y-118080000D02*
X83590000Y-118080000D01*
X81510000Y-118040000D02*
X79977000Y-118040000D01*
X85123000Y-118040000D02*
X83590000Y-118040000D01*
X81510000Y-118000000D02*
X79974000Y-118000000D01*
X85126000Y-118000000D02*
X83590000Y-118000000D01*
X81510000Y-117960000D02*
X79972000Y-117960000D01*
X85128000Y-117960000D02*
X83590000Y-117960000D01*
X81510000Y-117920000D02*
X79971000Y-117920000D01*
X85129000Y-117920000D02*
X83590000Y-117920000D01*
X85130000Y-117880000D02*
X83590000Y-117880000D01*
X81510000Y-117880000D02*
X79970000Y-117880000D01*
X85130000Y-117840000D02*
X83590000Y-117840000D01*
X81510000Y-117840000D02*
X79970000Y-117840000D01*
X85170000Y-117840000D02*
G75*
G03*
X85170000Y-117840000I-2620000J0D01*
G01*
X104805241Y-101214000D02*
X104805241Y-100584000D01*
X105120241Y-100899000D02*
X104490241Y-100899000D01*
X98379000Y-99462000D02*
X98379000Y-98658000D01*
X98419000Y-99693000D02*
X98419000Y-98427000D01*
X98459000Y-99862000D02*
X98459000Y-98258000D01*
X98499000Y-100000000D02*
X98499000Y-98120000D01*
X98539000Y-100119000D02*
X98539000Y-98001000D01*
X98579000Y-100225000D02*
X98579000Y-97895000D01*
X98619000Y-100322000D02*
X98619000Y-97798000D01*
X98659000Y-100410000D02*
X98659000Y-97710000D01*
X98699000Y-100492000D02*
X98699000Y-97628000D01*
X98739000Y-100569000D02*
X98739000Y-97551000D01*
X98779000Y-100641000D02*
X98779000Y-97479000D01*
X98819000Y-100710000D02*
X98819000Y-97410000D01*
X98859000Y-100774000D02*
X98859000Y-97346000D01*
X98899000Y-100836000D02*
X98899000Y-97284000D01*
X98939000Y-100894000D02*
X98939000Y-97226000D01*
X98979000Y-100950000D02*
X98979000Y-97170000D01*
X99019000Y-101004000D02*
X99019000Y-97116000D01*
X99059000Y-101055000D02*
X99059000Y-97065000D01*
X99099000Y-101104000D02*
X99099000Y-97016000D01*
X99139000Y-101152000D02*
X99139000Y-96968000D01*
X99179000Y-101197000D02*
X99179000Y-96923000D01*
X99219000Y-101242000D02*
X99219000Y-96878000D01*
X99259000Y-101284000D02*
X99259000Y-96836000D01*
X99299000Y-101325000D02*
X99299000Y-96795000D01*
X99339000Y-98020000D02*
X99339000Y-96755000D01*
X99339000Y-101365000D02*
X99339000Y-100100000D01*
X99379000Y-98020000D02*
X99379000Y-96717000D01*
X99379000Y-101403000D02*
X99379000Y-100100000D01*
X99419000Y-98020000D02*
X99419000Y-96680000D01*
X99419000Y-101440000D02*
X99419000Y-100100000D01*
X99459000Y-98020000D02*
X99459000Y-96644000D01*
X99459000Y-101476000D02*
X99459000Y-100100000D01*
X99499000Y-98020000D02*
X99499000Y-96610000D01*
X99499000Y-101510000D02*
X99499000Y-100100000D01*
X99539000Y-98020000D02*
X99539000Y-96576000D01*
X99539000Y-101544000D02*
X99539000Y-100100000D01*
X99579000Y-98020000D02*
X99579000Y-96544000D01*
X99579000Y-101576000D02*
X99579000Y-100100000D01*
X99619000Y-98020000D02*
X99619000Y-96512000D01*
X99619000Y-101608000D02*
X99619000Y-100100000D01*
X99659000Y-98020000D02*
X99659000Y-96482000D01*
X99659000Y-101638000D02*
X99659000Y-100100000D01*
X99699000Y-98020000D02*
X99699000Y-96453000D01*
X99699000Y-101667000D02*
X99699000Y-100100000D01*
X99739000Y-98020000D02*
X99739000Y-96424000D01*
X99739000Y-101696000D02*
X99739000Y-100100000D01*
X99779000Y-98020000D02*
X99779000Y-96396000D01*
X99779000Y-101724000D02*
X99779000Y-100100000D01*
X99819000Y-98020000D02*
X99819000Y-96370000D01*
X99819000Y-101750000D02*
X99819000Y-100100000D01*
X99859000Y-98020000D02*
X99859000Y-96344000D01*
X99859000Y-101776000D02*
X99859000Y-100100000D01*
X99899000Y-98020000D02*
X99899000Y-96318000D01*
X99899000Y-101802000D02*
X99899000Y-100100000D01*
X99939000Y-98020000D02*
X99939000Y-96294000D01*
X99939000Y-101826000D02*
X99939000Y-100100000D01*
X99979000Y-98020000D02*
X99979000Y-96270000D01*
X99979000Y-101850000D02*
X99979000Y-100100000D01*
X100019000Y-98020000D02*
X100019000Y-96248000D01*
X100019000Y-101872000D02*
X100019000Y-100100000D01*
X100059000Y-98020000D02*
X100059000Y-96226000D01*
X100059000Y-101894000D02*
X100059000Y-100100000D01*
X100099000Y-98020000D02*
X100099000Y-96204000D01*
X100099000Y-101916000D02*
X100099000Y-100100000D01*
X100139000Y-98020000D02*
X100139000Y-96184000D01*
X100139000Y-101936000D02*
X100139000Y-100100000D01*
X100179000Y-98020000D02*
X100179000Y-96164000D01*
X100179000Y-101956000D02*
X100179000Y-100100000D01*
X100219000Y-98020000D02*
X100219000Y-96144000D01*
X100219000Y-101976000D02*
X100219000Y-100100000D01*
X100259000Y-98020000D02*
X100259000Y-96126000D01*
X100259000Y-101994000D02*
X100259000Y-100100000D01*
X100299000Y-98020000D02*
X100299000Y-96108000D01*
X100299000Y-102012000D02*
X100299000Y-100100000D01*
X100339000Y-98020000D02*
X100339000Y-96090000D01*
X100339000Y-102030000D02*
X100339000Y-100100000D01*
X100379000Y-98020000D02*
X100379000Y-96074000D01*
X100379000Y-102046000D02*
X100379000Y-100100000D01*
X100419000Y-98020000D02*
X100419000Y-96058000D01*
X100419000Y-102062000D02*
X100419000Y-100100000D01*
X100459000Y-98020000D02*
X100459000Y-96042000D01*
X100459000Y-102078000D02*
X100459000Y-100100000D01*
X100499000Y-98020000D02*
X100499000Y-96027000D01*
X100499000Y-102093000D02*
X100499000Y-100100000D01*
X100539000Y-98020000D02*
X100539000Y-96013000D01*
X100539000Y-102107000D02*
X100539000Y-100100000D01*
X100579000Y-98020000D02*
X100579000Y-95999000D01*
X100579000Y-102121000D02*
X100579000Y-100100000D01*
X100619000Y-98020000D02*
X100619000Y-95986000D01*
X100619000Y-102134000D02*
X100619000Y-100100000D01*
X100659000Y-98020000D02*
X100659000Y-95974000D01*
X100659000Y-102146000D02*
X100659000Y-100100000D01*
X100699000Y-98020000D02*
X100699000Y-95962000D01*
X100699000Y-102158000D02*
X100699000Y-100100000D01*
X100739000Y-98020000D02*
X100739000Y-95950000D01*
X100739000Y-102170000D02*
X100739000Y-100100000D01*
X100779000Y-98020000D02*
X100779000Y-95939000D01*
X100779000Y-102181000D02*
X100779000Y-100100000D01*
X100819000Y-98020000D02*
X100819000Y-95929000D01*
X100819000Y-102191000D02*
X100819000Y-100100000D01*
X100859000Y-98020000D02*
X100859000Y-95919000D01*
X100859000Y-102201000D02*
X100859000Y-100100000D01*
X100899000Y-98020000D02*
X100899000Y-95910000D01*
X100899000Y-102210000D02*
X100899000Y-100100000D01*
X100940000Y-98020000D02*
X100940000Y-95901000D01*
X100940000Y-102219000D02*
X100940000Y-100100000D01*
X100980000Y-98020000D02*
X100980000Y-95893000D01*
X100980000Y-102227000D02*
X100980000Y-100100000D01*
X101020000Y-98020000D02*
X101020000Y-95885000D01*
X101020000Y-102235000D02*
X101020000Y-100100000D01*
X101060000Y-98020000D02*
X101060000Y-95878000D01*
X101060000Y-102242000D02*
X101060000Y-100100000D01*
X101100000Y-98020000D02*
X101100000Y-95871000D01*
X101100000Y-102249000D02*
X101100000Y-100100000D01*
X101140000Y-98020000D02*
X101140000Y-95865000D01*
X101140000Y-102255000D02*
X101140000Y-100100000D01*
X101180000Y-98020000D02*
X101180000Y-95859000D01*
X101180000Y-102261000D02*
X101180000Y-100100000D01*
X101220000Y-98020000D02*
X101220000Y-95854000D01*
X101220000Y-102266000D02*
X101220000Y-100100000D01*
X101260000Y-98020000D02*
X101260000Y-95849000D01*
X101260000Y-102271000D02*
X101260000Y-100100000D01*
X101300000Y-98020000D02*
X101300000Y-95845000D01*
X101300000Y-102275000D02*
X101300000Y-100100000D01*
X101340000Y-98020000D02*
X101340000Y-95842000D01*
X101340000Y-102278000D02*
X101340000Y-100100000D01*
X101380000Y-98020000D02*
X101380000Y-95838000D01*
X101380000Y-102282000D02*
X101380000Y-100100000D01*
X101420000Y-102284000D02*
X101420000Y-95836000D01*
X101460000Y-102287000D02*
X101460000Y-95833000D01*
X101500000Y-102288000D02*
X101500000Y-95832000D01*
X101540000Y-102290000D02*
X101540000Y-95830000D01*
X101580000Y-102290000D02*
X101580000Y-95830000D01*
X101620000Y-102290000D02*
X101620000Y-95830000D01*
X104890000Y-99060000D02*
G75*
G03*
X104890000Y-99060000I-3270000J0D01*
G01*
X78540000Y-87030000D02*
X81480000Y-87030000D01*
X78540000Y-86790000D02*
X81480000Y-86790000D01*
X78540000Y-86910000D02*
X81480000Y-86910000D01*
X80010000Y-81350000D02*
X80010000Y-82370000D01*
X80010000Y-88830000D02*
X80010000Y-87810000D01*
X78540000Y-82370000D02*
X78540000Y-87810000D01*
X81480000Y-82370000D02*
X78540000Y-82370000D01*
X81480000Y-87810000D02*
X81480000Y-82370000D01*
X78540000Y-87810000D02*
X81480000Y-87810000D01*
X103145000Y-64750000D02*
X100055000Y-64750000D01*
X104100000Y-67310000D02*
G75*
G03*
X104100000Y-67310000I-2500000J0D01*
G01*
X101600462Y-70300000D02*
G75*
G02*
X100055170Y-64750000I-462J2990000D01*
G01*
X101599538Y-70300000D02*
G75*
G03*
X103144830Y-64750000I462J2990000D01*
G01*
X94770000Y-78370000D02*
X92170000Y-78370000D01*
X94770000Y-63670000D02*
X94770000Y-78370000D01*
X85570000Y-78370000D02*
X85570000Y-76470000D01*
X88270000Y-78370000D02*
X85570000Y-78370000D01*
X85570000Y-63670000D02*
X94770000Y-63670000D01*
X85570000Y-72470000D02*
X85570000Y-63670000D01*
X94970000Y-77520000D02*
X94970000Y-78570000D01*
X93920000Y-78570000D02*
X94970000Y-78570000D01*
X138490000Y-111760000D02*
X135830000Y-111760000D01*
X138490000Y-111760000D02*
X138490000Y-65980000D01*
X138490000Y-65980000D02*
X135830000Y-65980000D01*
X135830000Y-111760000D02*
X135830000Y-65980000D01*
X135830000Y-114360000D02*
X135830000Y-113030000D01*
X137160000Y-114360000D02*
X135830000Y-114360000D01*
X111760000Y-114360000D02*
X110430000Y-114360000D01*
X110430000Y-114360000D02*
X110430000Y-113030000D01*
X110430000Y-111760000D02*
X110430000Y-65980000D01*
X113090000Y-65980000D02*
X110430000Y-65980000D01*
X113090000Y-111760000D02*
X113090000Y-65980000D01*
X113090000Y-111760000D02*
X110430000Y-111760000D01*
X116900000Y-133350000D02*
X114240000Y-133350000D01*
X116900000Y-133350000D02*
X116900000Y-130750000D01*
X116900000Y-130750000D02*
X114240000Y-130750000D01*
X114240000Y-133350000D02*
X114240000Y-130750000D01*
X114240000Y-135950000D02*
X114240000Y-134620000D01*
X115570000Y-135950000D02*
X114240000Y-135950000D01*
X115570000Y-129600000D02*
X114240000Y-129600000D01*
X114240000Y-129600000D02*
X114240000Y-128270000D01*
X114240000Y-127000000D02*
X114240000Y-124400000D01*
X116900000Y-124400000D02*
X114240000Y-124400000D01*
X116900000Y-127000000D02*
X116900000Y-124400000D01*
X116900000Y-127000000D02*
X114240000Y-127000000D01*
X135830000Y-127000000D02*
X138490000Y-127000000D01*
X135830000Y-127000000D02*
X135830000Y-134680000D01*
X135830000Y-134680000D02*
X138490000Y-134680000D01*
X138490000Y-127000000D02*
X138490000Y-134680000D01*
X138490000Y-124400000D02*
X138490000Y-125730000D01*
X137160000Y-124400000D02*
X138490000Y-124400000D01*
X151130000Y-124400000D02*
X152460000Y-124400000D01*
X152460000Y-124400000D02*
X152460000Y-125730000D01*
X152460000Y-127000000D02*
X152460000Y-134680000D01*
X149800000Y-134680000D02*
X152460000Y-134680000D01*
X149800000Y-127000000D02*
X149800000Y-134680000D01*
X149800000Y-127000000D02*
X152460000Y-127000000D01*
X151130000Y-67250000D02*
X152460000Y-67250000D01*
X152460000Y-67250000D02*
X152460000Y-68580000D01*
X152460000Y-69850000D02*
X152460000Y-87690000D01*
X149800000Y-87690000D02*
X152460000Y-87690000D01*
X149800000Y-69850000D02*
X149800000Y-87690000D01*
X149800000Y-69850000D02*
X152460000Y-69850000D01*
X151130000Y-93920000D02*
X152460000Y-93920000D01*
X152460000Y-93920000D02*
X152460000Y-95250000D01*
X152460000Y-96520000D02*
X152460000Y-114360000D01*
X149800000Y-114360000D02*
X152460000Y-114360000D01*
X149800000Y-96520000D02*
X149800000Y-114360000D01*
X149800000Y-96520000D02*
X152460000Y-96520000D01*
X162500000Y-69850000D02*
X165160000Y-69850000D01*
X162500000Y-69850000D02*
X162500000Y-87690000D01*
X162500000Y-87690000D02*
X165160000Y-87690000D01*
X165160000Y-69850000D02*
X165160000Y-87690000D01*
X165160000Y-67250000D02*
X165160000Y-68580000D01*
X163830000Y-67250000D02*
X165160000Y-67250000D01*
X162500000Y-96520000D02*
X165160000Y-96520000D01*
X162500000Y-96520000D02*
X162500000Y-114360000D01*
X162500000Y-114360000D02*
X165160000Y-114360000D01*
X165160000Y-96520000D02*
X165160000Y-114360000D01*
X165160000Y-93920000D02*
X165160000Y-95250000D01*
X163830000Y-93920000D02*
X165160000Y-93920000D01*
X172660000Y-72330000D02*
X173990000Y-72330000D01*
X172660000Y-73660000D02*
X172660000Y-72330000D01*
X172660000Y-74930000D02*
X175320000Y-74930000D01*
X175320000Y-74930000D02*
X175320000Y-82610000D01*
X172660000Y-74930000D02*
X172660000Y-82610000D01*
X172660000Y-82610000D02*
X175320000Y-82610000D01*
X172660000Y-109280000D02*
X175320000Y-109280000D01*
X172660000Y-101600000D02*
X172660000Y-109280000D01*
X175320000Y-101600000D02*
X175320000Y-109280000D01*
X172660000Y-101600000D02*
X175320000Y-101600000D01*
X172660000Y-100330000D02*
X172660000Y-99000000D01*
X172660000Y-99000000D02*
X173990000Y-99000000D01*
X109220000Y-125500000D02*
X109220000Y-126270000D01*
X109220000Y-133580000D02*
X109220000Y-132810000D01*
X107850000Y-126270000D02*
X107850000Y-132810000D01*
X110590000Y-126270000D02*
X107850000Y-126270000D01*
X110590000Y-132810000D02*
X110590000Y-126270000D01*
X107850000Y-132810000D02*
X110590000Y-132810000D01*
X102770000Y-132810000D02*
X105510000Y-132810000D01*
X105510000Y-132810000D02*
X105510000Y-126270000D01*
X105510000Y-126270000D02*
X102770000Y-126270000D01*
X102770000Y-126270000D02*
X102770000Y-132810000D01*
X104140000Y-133580000D02*
X104140000Y-132810000D01*
X104140000Y-125500000D02*
X104140000Y-126270000D01*
X98830000Y-76200000D02*
X99600000Y-76200000D01*
X106910000Y-76200000D02*
X106140000Y-76200000D01*
X99600000Y-77570000D02*
X106140000Y-77570000D01*
X99600000Y-74830000D02*
X99600000Y-77570000D01*
X106140000Y-74830000D02*
X99600000Y-74830000D01*
X106140000Y-77570000D02*
X106140000Y-74830000D01*
X85490000Y-90460000D02*
X85490000Y-84450000D01*
X92310000Y-88210000D02*
X92310000Y-84450000D01*
X85490000Y-84450000D02*
X86750000Y-84450000D01*
X92310000Y-84450000D02*
X91050000Y-84450000D01*
X105010000Y-84450000D02*
X103750000Y-84450000D01*
X98190000Y-84450000D02*
X99450000Y-84450000D01*
X105010000Y-88210000D02*
X105010000Y-84450000D01*
X98190000Y-90460000D02*
X98190000Y-84450000D01*
D11*
X167407142Y-91606666D02*
X167454761Y-91654285D01*
X167502380Y-91797142D01*
X167502380Y-91892380D01*
X167454761Y-92035238D01*
X167359523Y-92130476D01*
X167264285Y-92178095D01*
X167073809Y-92225714D01*
X166930952Y-92225714D01*
X166740476Y-92178095D01*
X166645238Y-92130476D01*
X166550000Y-92035238D01*
X166502380Y-91892380D01*
X166502380Y-91797142D01*
X166550000Y-91654285D01*
X166597619Y-91606666D01*
X167502380Y-90654285D02*
X167502380Y-91225714D01*
X167502380Y-90940000D02*
X166502380Y-90940000D01*
X166645238Y-91035238D01*
X166740476Y-91130476D01*
X166788095Y-91225714D01*
X77827142Y-109346666D02*
X77874761Y-109394285D01*
X77922380Y-109537142D01*
X77922380Y-109632380D01*
X77874761Y-109775238D01*
X77779523Y-109870476D01*
X77684285Y-109918095D01*
X77493809Y-109965714D01*
X77350952Y-109965714D01*
X77160476Y-109918095D01*
X77065238Y-109870476D01*
X76970000Y-109775238D01*
X76922380Y-109632380D01*
X76922380Y-109537142D01*
X76970000Y-109394285D01*
X77017619Y-109346666D01*
X77017619Y-108965714D02*
X76970000Y-108918095D01*
X76922380Y-108822857D01*
X76922380Y-108584761D01*
X76970000Y-108489523D01*
X77017619Y-108441904D01*
X77112857Y-108394285D01*
X77208095Y-108394285D01*
X77350952Y-108441904D01*
X77922380Y-109013333D01*
X77922380Y-108394285D01*
X87463333Y-95607142D02*
X87415714Y-95654761D01*
X87272857Y-95702380D01*
X87177619Y-95702380D01*
X87034761Y-95654761D01*
X86939523Y-95559523D01*
X86891904Y-95464285D01*
X86844285Y-95273809D01*
X86844285Y-95130952D01*
X86891904Y-94940476D01*
X86939523Y-94845238D01*
X87034761Y-94750000D01*
X87177619Y-94702380D01*
X87272857Y-94702380D01*
X87415714Y-94750000D01*
X87463333Y-94797619D01*
X87796666Y-94702380D02*
X88415714Y-94702380D01*
X88082380Y-95083333D01*
X88225238Y-95083333D01*
X88320476Y-95130952D01*
X88368095Y-95178571D01*
X88415714Y-95273809D01*
X88415714Y-95511904D01*
X88368095Y-95607142D01*
X88320476Y-95654761D01*
X88225238Y-95702380D01*
X87939523Y-95702380D01*
X87844285Y-95654761D01*
X87796666Y-95607142D01*
X84177142Y-109346666D02*
X84224761Y-109394285D01*
X84272380Y-109537142D01*
X84272380Y-109632380D01*
X84224761Y-109775238D01*
X84129523Y-109870476D01*
X84034285Y-109918095D01*
X83843809Y-109965714D01*
X83700952Y-109965714D01*
X83510476Y-109918095D01*
X83415238Y-109870476D01*
X83320000Y-109775238D01*
X83272380Y-109632380D01*
X83272380Y-109537142D01*
X83320000Y-109394285D01*
X83367619Y-109346666D01*
X83605714Y-108489523D02*
X84272380Y-108489523D01*
X83224761Y-108727619D02*
X83939047Y-108965714D01*
X83939047Y-108346666D01*
X79097142Y-118276666D02*
X79144761Y-118324285D01*
X79192380Y-118467142D01*
X79192380Y-118562380D01*
X79144761Y-118705238D01*
X79049523Y-118800476D01*
X78954285Y-118848095D01*
X78763809Y-118895714D01*
X78620952Y-118895714D01*
X78430476Y-118848095D01*
X78335238Y-118800476D01*
X78240000Y-118705238D01*
X78192380Y-118562380D01*
X78192380Y-118467142D01*
X78240000Y-118324285D01*
X78287619Y-118276666D01*
X78192380Y-117371904D02*
X78192380Y-117848095D01*
X78668571Y-117895714D01*
X78620952Y-117848095D01*
X78573333Y-117752857D01*
X78573333Y-117514761D01*
X78620952Y-117419523D01*
X78668571Y-117371904D01*
X78763809Y-117324285D01*
X79001904Y-117324285D01*
X79097142Y-117371904D01*
X79144761Y-117419523D01*
X79192380Y-117514761D01*
X79192380Y-117752857D01*
X79144761Y-117848095D01*
X79097142Y-117895714D01*
X101453333Y-95607142D02*
X101405714Y-95654761D01*
X101262857Y-95702380D01*
X101167619Y-95702380D01*
X101024761Y-95654761D01*
X100929523Y-95559523D01*
X100881904Y-95464285D01*
X100834285Y-95273809D01*
X100834285Y-95130952D01*
X100881904Y-94940476D01*
X100929523Y-94845238D01*
X101024761Y-94750000D01*
X101167619Y-94702380D01*
X101262857Y-94702380D01*
X101405714Y-94750000D01*
X101453333Y-94797619D01*
X102310476Y-94702380D02*
X102120000Y-94702380D01*
X102024761Y-94750000D01*
X101977142Y-94797619D01*
X101881904Y-94940476D01*
X101834285Y-95130952D01*
X101834285Y-95511904D01*
X101881904Y-95607142D01*
X101929523Y-95654761D01*
X102024761Y-95702380D01*
X102215238Y-95702380D01*
X102310476Y-95654761D01*
X102358095Y-95607142D01*
X102405714Y-95511904D01*
X102405714Y-95273809D01*
X102358095Y-95178571D01*
X102310476Y-95130952D01*
X102215238Y-95083333D01*
X102024761Y-95083333D01*
X101929523Y-95130952D01*
X101881904Y-95178571D01*
X101834285Y-95273809D01*
X77992380Y-85828095D02*
X76992380Y-85828095D01*
X76992380Y-85590000D01*
X77040000Y-85447142D01*
X77135238Y-85351904D01*
X77230476Y-85304285D01*
X77420952Y-85256666D01*
X77563809Y-85256666D01*
X77754285Y-85304285D01*
X77849523Y-85351904D01*
X77944761Y-85447142D01*
X77992380Y-85590000D01*
X77992380Y-85828095D01*
X77992380Y-84304285D02*
X77992380Y-84875714D01*
X77992380Y-84590000D02*
X76992380Y-84590000D01*
X77135238Y-84685238D01*
X77230476Y-84780476D01*
X77278095Y-84875714D01*
X78362380Y-90431904D02*
X77362380Y-90431904D01*
X78362380Y-89860476D02*
X77790952Y-90289047D01*
X77362380Y-89860476D02*
X77933809Y-90431904D01*
X98242380Y-68048095D02*
X97242380Y-68048095D01*
X97242380Y-67810000D01*
X97290000Y-67667142D01*
X97385238Y-67571904D01*
X97480476Y-67524285D01*
X97670952Y-67476666D01*
X97813809Y-67476666D01*
X98004285Y-67524285D01*
X98099523Y-67571904D01*
X98194761Y-67667142D01*
X98242380Y-67810000D01*
X98242380Y-68048095D01*
X97337619Y-67095714D02*
X97290000Y-67048095D01*
X97242380Y-66952857D01*
X97242380Y-66714761D01*
X97290000Y-66619523D01*
X97337619Y-66571904D01*
X97432857Y-66524285D01*
X97528095Y-66524285D01*
X97670952Y-66571904D01*
X98242380Y-67143333D01*
X98242380Y-66524285D01*
X83872380Y-69353333D02*
X84586666Y-69353333D01*
X84729523Y-69400952D01*
X84824761Y-69496190D01*
X84872380Y-69639047D01*
X84872380Y-69734285D01*
X84872380Y-68353333D02*
X84872380Y-68924761D01*
X84872380Y-68639047D02*
X83872380Y-68639047D01*
X84015238Y-68734285D01*
X84110476Y-68829523D01*
X84158095Y-68924761D01*
X136826666Y-64222380D02*
X136826666Y-64936666D01*
X136779047Y-65079523D01*
X136683809Y-65174761D01*
X136540952Y-65222380D01*
X136445714Y-65222380D01*
X137255238Y-64317619D02*
X137302857Y-64270000D01*
X137398095Y-64222380D01*
X137636190Y-64222380D01*
X137731428Y-64270000D01*
X137779047Y-64317619D01*
X137826666Y-64412857D01*
X137826666Y-64508095D01*
X137779047Y-64650952D01*
X137207619Y-65222380D01*
X137826666Y-65222380D01*
X111426666Y-64222380D02*
X111426666Y-64936666D01*
X111379047Y-65079523D01*
X111283809Y-65174761D01*
X111140952Y-65222380D01*
X111045714Y-65222380D01*
X111807619Y-64222380D02*
X112426666Y-64222380D01*
X112093333Y-64603333D01*
X112236190Y-64603333D01*
X112331428Y-64650952D01*
X112379047Y-64698571D01*
X112426666Y-64793809D01*
X112426666Y-65031904D01*
X112379047Y-65127142D01*
X112331428Y-65174761D01*
X112236190Y-65222380D01*
X111950476Y-65222380D01*
X111855238Y-65174761D01*
X111807619Y-65127142D01*
X112696666Y-131532380D02*
X112696666Y-132246666D01*
X112649047Y-132389523D01*
X112553809Y-132484761D01*
X112410952Y-132532380D01*
X112315714Y-132532380D01*
X113601428Y-131865714D02*
X113601428Y-132532380D01*
X113363333Y-131484761D02*
X113125238Y-132199047D01*
X113744285Y-132199047D01*
X112696666Y-125182380D02*
X112696666Y-125896666D01*
X112649047Y-126039523D01*
X112553809Y-126134761D01*
X112410952Y-126182380D01*
X112315714Y-126182380D01*
X113649047Y-125182380D02*
X113172857Y-125182380D01*
X113125238Y-125658571D01*
X113172857Y-125610952D01*
X113268095Y-125563333D01*
X113506190Y-125563333D01*
X113601428Y-125610952D01*
X113649047Y-125658571D01*
X113696666Y-125753809D01*
X113696666Y-125991904D01*
X113649047Y-126087142D01*
X113601428Y-126134761D01*
X113506190Y-126182380D01*
X113268095Y-126182380D01*
X113172857Y-126134761D01*
X113125238Y-126087142D01*
X136826666Y-122642380D02*
X136826666Y-123356666D01*
X136779047Y-123499523D01*
X136683809Y-123594761D01*
X136540952Y-123642380D01*
X136445714Y-123642380D01*
X137731428Y-122642380D02*
X137540952Y-122642380D01*
X137445714Y-122690000D01*
X137398095Y-122737619D01*
X137302857Y-122880476D01*
X137255238Y-123070952D01*
X137255238Y-123451904D01*
X137302857Y-123547142D01*
X137350476Y-123594761D01*
X137445714Y-123642380D01*
X137636190Y-123642380D01*
X137731428Y-123594761D01*
X137779047Y-123547142D01*
X137826666Y-123451904D01*
X137826666Y-123213809D01*
X137779047Y-123118571D01*
X137731428Y-123070952D01*
X137636190Y-123023333D01*
X137445714Y-123023333D01*
X137350476Y-123070952D01*
X137302857Y-123118571D01*
X137255238Y-123213809D01*
X150796666Y-122642380D02*
X150796666Y-123356666D01*
X150749047Y-123499523D01*
X150653809Y-123594761D01*
X150510952Y-123642380D01*
X150415714Y-123642380D01*
X151177619Y-122642380D02*
X151844285Y-122642380D01*
X151415714Y-123642380D01*
X150796666Y-65262380D02*
X150796666Y-65976666D01*
X150749047Y-66119523D01*
X150653809Y-66214761D01*
X150510952Y-66262380D01*
X150415714Y-66262380D01*
X151415714Y-65690952D02*
X151320476Y-65643333D01*
X151272857Y-65595714D01*
X151225238Y-65500476D01*
X151225238Y-65452857D01*
X151272857Y-65357619D01*
X151320476Y-65310000D01*
X151415714Y-65262380D01*
X151606190Y-65262380D01*
X151701428Y-65310000D01*
X151749047Y-65357619D01*
X151796666Y-65452857D01*
X151796666Y-65500476D01*
X151749047Y-65595714D01*
X151701428Y-65643333D01*
X151606190Y-65690952D01*
X151415714Y-65690952D01*
X151320476Y-65738571D01*
X151272857Y-65786190D01*
X151225238Y-65881428D01*
X151225238Y-66071904D01*
X151272857Y-66167142D01*
X151320476Y-66214761D01*
X151415714Y-66262380D01*
X151606190Y-66262380D01*
X151701428Y-66214761D01*
X151749047Y-66167142D01*
X151796666Y-66071904D01*
X151796666Y-65881428D01*
X151749047Y-65786190D01*
X151701428Y-65738571D01*
X151606190Y-65690952D01*
X150796666Y-91932380D02*
X150796666Y-92646666D01*
X150749047Y-92789523D01*
X150653809Y-92884761D01*
X150510952Y-92932380D01*
X150415714Y-92932380D01*
X151320476Y-92932380D02*
X151510952Y-92932380D01*
X151606190Y-92884761D01*
X151653809Y-92837142D01*
X151749047Y-92694285D01*
X151796666Y-92503809D01*
X151796666Y-92122857D01*
X151749047Y-92027619D01*
X151701428Y-91980000D01*
X151606190Y-91932380D01*
X151415714Y-91932380D01*
X151320476Y-91980000D01*
X151272857Y-92027619D01*
X151225238Y-92122857D01*
X151225238Y-92360952D01*
X151272857Y-92456190D01*
X151320476Y-92503809D01*
X151415714Y-92551428D01*
X151606190Y-92551428D01*
X151701428Y-92503809D01*
X151749047Y-92456190D01*
X151796666Y-92360952D01*
X163020476Y-65262380D02*
X163020476Y-65976666D01*
X162972857Y-66119523D01*
X162877619Y-66214761D01*
X162734761Y-66262380D01*
X162639523Y-66262380D01*
X164020476Y-66262380D02*
X163449047Y-66262380D01*
X163734761Y-66262380D02*
X163734761Y-65262380D01*
X163639523Y-65405238D01*
X163544285Y-65500476D01*
X163449047Y-65548095D01*
X164639523Y-65262380D02*
X164734761Y-65262380D01*
X164830000Y-65310000D01*
X164877619Y-65357619D01*
X164925238Y-65452857D01*
X164972857Y-65643333D01*
X164972857Y-65881428D01*
X164925238Y-66071904D01*
X164877619Y-66167142D01*
X164830000Y-66214761D01*
X164734761Y-66262380D01*
X164639523Y-66262380D01*
X164544285Y-66214761D01*
X164496666Y-66167142D01*
X164449047Y-66071904D01*
X164401428Y-65881428D01*
X164401428Y-65643333D01*
X164449047Y-65452857D01*
X164496666Y-65357619D01*
X164544285Y-65310000D01*
X164639523Y-65262380D01*
X163020476Y-91932380D02*
X163020476Y-92646666D01*
X162972857Y-92789523D01*
X162877619Y-92884761D01*
X162734761Y-92932380D01*
X162639523Y-92932380D01*
X164020476Y-92932380D02*
X163449047Y-92932380D01*
X163734761Y-92932380D02*
X163734761Y-91932380D01*
X163639523Y-92075238D01*
X163544285Y-92170476D01*
X163449047Y-92218095D01*
X164972857Y-92932380D02*
X164401428Y-92932380D01*
X164687142Y-92932380D02*
X164687142Y-91932380D01*
X164591904Y-92075238D01*
X164496666Y-92170476D01*
X164401428Y-92218095D01*
X173180476Y-70782380D02*
X173180476Y-71496666D01*
X173132857Y-71639523D01*
X173037619Y-71734761D01*
X172894761Y-71782380D01*
X172799523Y-71782380D01*
X174180476Y-71782380D02*
X173609047Y-71782380D01*
X173894761Y-71782380D02*
X173894761Y-70782380D01*
X173799523Y-70925238D01*
X173704285Y-71020476D01*
X173609047Y-71068095D01*
X174561428Y-70877619D02*
X174609047Y-70830000D01*
X174704285Y-70782380D01*
X174942380Y-70782380D01*
X175037619Y-70830000D01*
X175085238Y-70877619D01*
X175132857Y-70972857D01*
X175132857Y-71068095D01*
X175085238Y-71210952D01*
X174513809Y-71782380D01*
X175132857Y-71782380D01*
X173180476Y-97242380D02*
X173180476Y-97956666D01*
X173132857Y-98099523D01*
X173037619Y-98194761D01*
X172894761Y-98242380D01*
X172799523Y-98242380D01*
X174180476Y-98242380D02*
X173609047Y-98242380D01*
X173894761Y-98242380D02*
X173894761Y-97242380D01*
X173799523Y-97385238D01*
X173704285Y-97480476D01*
X173609047Y-97528095D01*
X174513809Y-97242380D02*
X175132857Y-97242380D01*
X174799523Y-97623333D01*
X174942380Y-97623333D01*
X175037619Y-97670952D01*
X175085238Y-97718571D01*
X175132857Y-97813809D01*
X175132857Y-98051904D01*
X175085238Y-98147142D01*
X175037619Y-98194761D01*
X174942380Y-98242380D01*
X174656666Y-98242380D01*
X174561428Y-98194761D01*
X174513809Y-98147142D01*
X112212380Y-129706666D02*
X111736190Y-130040000D01*
X112212380Y-130278095D02*
X111212380Y-130278095D01*
X111212380Y-129897142D01*
X111260000Y-129801904D01*
X111307619Y-129754285D01*
X111402857Y-129706666D01*
X111545714Y-129706666D01*
X111640952Y-129754285D01*
X111688571Y-129801904D01*
X111736190Y-129897142D01*
X111736190Y-130278095D01*
X112212380Y-128754285D02*
X112212380Y-129325714D01*
X112212380Y-129040000D02*
X111212380Y-129040000D01*
X111355238Y-129135238D01*
X111450476Y-129230476D01*
X111498095Y-129325714D01*
X107132380Y-129706666D02*
X106656190Y-130040000D01*
X107132380Y-130278095D02*
X106132380Y-130278095D01*
X106132380Y-129897142D01*
X106180000Y-129801904D01*
X106227619Y-129754285D01*
X106322857Y-129706666D01*
X106465714Y-129706666D01*
X106560952Y-129754285D01*
X106608571Y-129801904D01*
X106656190Y-129897142D01*
X106656190Y-130278095D01*
X106227619Y-129325714D02*
X106180000Y-129278095D01*
X106132380Y-129182857D01*
X106132380Y-128944761D01*
X106180000Y-128849523D01*
X106227619Y-128801904D01*
X106322857Y-128754285D01*
X106418095Y-128754285D01*
X106560952Y-128801904D01*
X107132380Y-129373333D01*
X107132380Y-128754285D01*
X102703333Y-74112380D02*
X102370000Y-73636190D01*
X102131904Y-74112380D02*
X102131904Y-73112380D01*
X102512857Y-73112380D01*
X102608095Y-73160000D01*
X102655714Y-73207619D01*
X102703333Y-73302857D01*
X102703333Y-73445714D01*
X102655714Y-73540952D01*
X102608095Y-73588571D01*
X102512857Y-73636190D01*
X102131904Y-73636190D01*
X103036666Y-73112380D02*
X103655714Y-73112380D01*
X103322380Y-73493333D01*
X103465238Y-73493333D01*
X103560476Y-73540952D01*
X103608095Y-73588571D01*
X103655714Y-73683809D01*
X103655714Y-73921904D01*
X103608095Y-74017142D01*
X103560476Y-74064761D01*
X103465238Y-74112380D01*
X103179523Y-74112380D01*
X103084285Y-74064761D01*
X103036666Y-74017142D01*
X83852380Y-87121904D02*
X84661904Y-87121904D01*
X84757142Y-87074285D01*
X84804761Y-87026666D01*
X84852380Y-86931428D01*
X84852380Y-86740952D01*
X84804761Y-86645714D01*
X84757142Y-86598095D01*
X84661904Y-86550476D01*
X83852380Y-86550476D01*
X84852380Y-85550476D02*
X84852380Y-86121904D01*
X84852380Y-85836190D02*
X83852380Y-85836190D01*
X83995238Y-85931428D01*
X84090476Y-86026666D01*
X84138095Y-86121904D01*
X96552380Y-87121904D02*
X97361904Y-87121904D01*
X97457142Y-87074285D01*
X97504761Y-87026666D01*
X97552380Y-86931428D01*
X97552380Y-86740952D01*
X97504761Y-86645714D01*
X97457142Y-86598095D01*
X97361904Y-86550476D01*
X96552380Y-86550476D01*
X96647619Y-86121904D02*
X96600000Y-86074285D01*
X96552380Y-85979047D01*
X96552380Y-85740952D01*
X96600000Y-85645714D01*
X96647619Y-85598095D01*
X96742857Y-85550476D01*
X96838095Y-85550476D01*
X96980952Y-85598095D01*
X97552380Y-86169523D01*
X97552380Y-85550476D01*
M02*
