G04 #@! TF.GenerationSoftware,KiCad,Pcbnew,5.1.6-c6e7f7d~86~ubuntu18.04.1*
G04 #@! TF.CreationDate,2020-06-24T19:05:53+01:00*
G04 #@! TF.ProjectId,placa_modular,706c6163-615f-46d6-9f64-756c61722e6b,V1.0*
G04 #@! TF.SameCoordinates,Original*
G04 #@! TF.FileFunction,Copper,L2,Bot*
G04 #@! TF.FilePolarity,Positive*
%FSLAX46Y46*%
G04 Gerber Fmt 4.6, Leading zero omitted, Abs format (unit mm)*
G04 Created by KiCad (PCBNEW 5.1.6-c6e7f7d~86~ubuntu18.04.1) date 2020-06-24 19:05:53*
%MOMM*%
%LPD*%
G01*
G04 APERTURE LIST*
G04 #@! TA.AperFunction,ComponentPad*
%ADD10C,1.600000*%
G04 #@! TD*
G04 #@! TA.AperFunction,ComponentPad*
%ADD11R,1.600000X1.600000*%
G04 #@! TD*
G04 #@! TA.AperFunction,ComponentPad*
%ADD12O,2.200000X2.200000*%
G04 #@! TD*
G04 #@! TA.AperFunction,ComponentPad*
%ADD13R,2.200000X2.200000*%
G04 #@! TD*
G04 #@! TA.AperFunction,ComponentPad*
%ADD14C,1.800000*%
G04 #@! TD*
G04 #@! TA.AperFunction,ComponentPad*
%ADD15R,1.800000X1.800000*%
G04 #@! TD*
G04 #@! TA.AperFunction,ComponentPad*
%ADD16R,3.500000X3.500000*%
G04 #@! TD*
G04 #@! TA.AperFunction,ComponentPad*
%ADD17R,1.700000X1.700000*%
G04 #@! TD*
G04 #@! TA.AperFunction,ComponentPad*
%ADD18O,1.700000X1.700000*%
G04 #@! TD*
G04 #@! TA.AperFunction,ComponentPad*
%ADD19O,1.600000X1.600000*%
G04 #@! TD*
G04 #@! TA.AperFunction,ViaPad*
%ADD20C,0.800000*%
G04 #@! TD*
G04 #@! TA.AperFunction,Conductor*
%ADD21C,1.000000*%
G04 #@! TD*
G04 #@! TA.AperFunction,Conductor*
%ADD22C,0.400000*%
G04 #@! TD*
G04 #@! TA.AperFunction,Conductor*
%ADD23C,0.254000*%
G04 #@! TD*
G04 APERTURE END LIST*
D10*
X171450000Y-88940000D03*
D11*
X171450000Y-91440000D03*
D10*
X80010000Y-111680000D03*
X80010000Y-106680000D03*
D11*
X88900000Y-99060000D03*
D10*
X86400000Y-99060000D03*
X86360000Y-106680000D03*
X86360000Y-111680000D03*
X82550000Y-118840000D03*
D11*
X82550000Y-116840000D03*
D10*
X100370000Y-99060000D03*
D11*
X102870000Y-99060000D03*
D12*
X80010000Y-80010000D03*
D13*
X80010000Y-90170000D03*
D14*
X101600000Y-68580000D03*
D15*
X101600000Y-66040000D03*
G04 #@! TA.AperFunction,ComponentPad*
G36*
G01*
X84595000Y-72720000D02*
X86345000Y-72720000D01*
G75*
G02*
X87220000Y-73595000I0J-875000D01*
G01*
X87220000Y-75345000D01*
G75*
G02*
X86345000Y-76220000I-875000J0D01*
G01*
X84595000Y-76220000D01*
G75*
G02*
X83720000Y-75345000I0J875000D01*
G01*
X83720000Y-73595000D01*
G75*
G02*
X84595000Y-72720000I875000J0D01*
G01*
G37*
G04 #@! TD.AperFunction*
G04 #@! TA.AperFunction,ComponentPad*
G36*
G01*
X89170000Y-69970000D02*
X91170000Y-69970000D01*
G75*
G02*
X91920000Y-70720000I0J-750000D01*
G01*
X91920000Y-72220000D01*
G75*
G02*
X91170000Y-72970000I-750000J0D01*
G01*
X89170000Y-72970000D01*
G75*
G02*
X88420000Y-72220000I0J750000D01*
G01*
X88420000Y-70720000D01*
G75*
G02*
X89170000Y-69970000I750000J0D01*
G01*
G37*
G04 #@! TD.AperFunction*
D16*
X90170000Y-77470000D03*
D17*
X137160000Y-113030000D03*
D18*
X137160000Y-110490000D03*
X137160000Y-107950000D03*
X137160000Y-105410000D03*
X137160000Y-102870000D03*
X137160000Y-100330000D03*
X137160000Y-97790000D03*
X137160000Y-95250000D03*
X137160000Y-92710000D03*
X137160000Y-90170000D03*
X137160000Y-87630000D03*
X137160000Y-85090000D03*
X137160000Y-82550000D03*
X137160000Y-80010000D03*
X137160000Y-77470000D03*
X137160000Y-74930000D03*
X137160000Y-72390000D03*
X137160000Y-69850000D03*
X137160000Y-67310000D03*
X111760000Y-67310000D03*
X111760000Y-69850000D03*
X111760000Y-72390000D03*
X111760000Y-74930000D03*
X111760000Y-77470000D03*
X111760000Y-80010000D03*
X111760000Y-82550000D03*
X111760000Y-85090000D03*
X111760000Y-87630000D03*
X111760000Y-90170000D03*
X111760000Y-92710000D03*
X111760000Y-95250000D03*
X111760000Y-97790000D03*
X111760000Y-100330000D03*
X111760000Y-102870000D03*
X111760000Y-105410000D03*
X111760000Y-107950000D03*
X111760000Y-110490000D03*
D17*
X111760000Y-113030000D03*
X115570000Y-134620000D03*
D18*
X115570000Y-132080000D03*
X115570000Y-125730000D03*
D17*
X115570000Y-128270000D03*
X137160000Y-125730000D03*
D18*
X137160000Y-128270000D03*
X137160000Y-130810000D03*
X137160000Y-133350000D03*
X151130000Y-133350000D03*
X151130000Y-130810000D03*
X151130000Y-128270000D03*
D17*
X151130000Y-125730000D03*
D18*
X151130000Y-86360000D03*
X151130000Y-83820000D03*
X151130000Y-81280000D03*
X151130000Y-78740000D03*
X151130000Y-76200000D03*
X151130000Y-73660000D03*
X151130000Y-71120000D03*
D17*
X151130000Y-68580000D03*
D18*
X151130000Y-113030000D03*
X151130000Y-110490000D03*
X151130000Y-107950000D03*
X151130000Y-105410000D03*
X151130000Y-102870000D03*
X151130000Y-100330000D03*
X151130000Y-97790000D03*
D17*
X151130000Y-95250000D03*
X163830000Y-68580000D03*
D18*
X163830000Y-71120000D03*
X163830000Y-73660000D03*
X163830000Y-76200000D03*
X163830000Y-78740000D03*
X163830000Y-81280000D03*
X163830000Y-83820000D03*
X163830000Y-86360000D03*
D17*
X163830000Y-95250000D03*
D18*
X163830000Y-97790000D03*
X163830000Y-100330000D03*
X163830000Y-102870000D03*
X163830000Y-105410000D03*
X163830000Y-107950000D03*
X163830000Y-110490000D03*
X163830000Y-113030000D03*
X173990000Y-81280000D03*
X173990000Y-78740000D03*
X173990000Y-76200000D03*
D17*
X173990000Y-73660000D03*
X173990000Y-100330000D03*
D18*
X173990000Y-102870000D03*
X173990000Y-105410000D03*
X173990000Y-107950000D03*
D19*
X109220000Y-124460000D03*
D10*
X109220000Y-134620000D03*
X104140000Y-134620000D03*
D19*
X104140000Y-124460000D03*
X97790000Y-76200000D03*
D10*
X107950000Y-76200000D03*
D20*
X132080000Y-85090000D03*
X115570000Y-102870000D03*
X91440000Y-86360000D03*
X95439999Y-90359999D03*
X160020000Y-121920000D03*
X158750000Y-100330000D03*
X156210000Y-105410000D03*
X156210000Y-132080000D03*
X142240000Y-111760000D03*
X119380000Y-111760000D03*
X92710000Y-114300000D03*
X157480000Y-92710000D03*
X154940000Y-109220000D03*
X160020000Y-81280000D03*
X116840000Y-78740000D03*
D21*
X82550000Y-77470000D02*
X80010000Y-80010000D01*
X90170000Y-77470000D02*
X82550000Y-77470000D01*
X167640000Y-119380000D02*
X171450000Y-115570000D01*
X104140000Y-119380000D02*
X167640000Y-119380000D01*
X97790000Y-113030000D02*
X104140000Y-119380000D01*
X171450000Y-115570000D02*
X171450000Y-91440000D01*
X90170000Y-77470000D02*
X97790000Y-85090000D01*
X97790000Y-85090000D02*
X97790000Y-113030000D01*
X167640000Y-91440000D02*
X163830000Y-95250000D01*
X171450000Y-91440000D02*
X167640000Y-91440000D01*
X171450000Y-91440000D02*
X173990000Y-91440000D01*
X173990000Y-91440000D02*
X175260000Y-90170000D01*
X175260000Y-90170000D02*
X175260000Y-87630000D01*
X175260000Y-87630000D02*
X170180000Y-82550000D01*
X170180000Y-74930000D02*
X163830000Y-68580000D01*
X170180000Y-82550000D02*
X170180000Y-74930000D01*
X91440000Y-86360000D02*
X95439999Y-90359999D01*
D22*
X151130000Y-113030000D02*
X148590000Y-115570000D01*
X148590000Y-115570000D02*
X109220000Y-115570000D01*
X109220000Y-115570000D02*
X106680000Y-113030000D01*
X106680000Y-113030000D02*
X106680000Y-109220000D01*
X106680000Y-109220000D02*
X109220000Y-106680000D01*
X111199997Y-96500001D02*
X118129999Y-96500001D01*
X109220000Y-106680000D02*
X109220000Y-98479998D01*
X109220000Y-98479998D02*
X111199997Y-96500001D01*
X118129999Y-96500001D02*
X137160000Y-77470000D01*
X140970000Y-78740000D02*
X137160000Y-82550000D01*
X151130000Y-78740000D02*
X140970000Y-78740000D01*
X136599997Y-104159999D02*
X133350000Y-100910002D01*
X151130000Y-105410000D02*
X149879999Y-104159999D01*
X149879999Y-104159999D02*
X136599997Y-104159999D01*
X133350000Y-88900000D02*
X137160000Y-85090000D01*
X133350000Y-100910002D02*
X133350000Y-88900000D01*
X148590000Y-86360000D02*
X137160000Y-97790000D01*
X151130000Y-86360000D02*
X148590000Y-86360000D01*
X115570000Y-132080000D02*
X121920000Y-138430000D01*
X121920000Y-138430000D02*
X154940000Y-138430000D01*
X154940000Y-138430000D02*
X160020000Y-133350000D01*
X160020000Y-133350000D02*
X160020000Y-121920000D01*
X138410001Y-99079999D02*
X137160000Y-100330000D01*
X157499999Y-99079999D02*
X138410001Y-99079999D01*
X158750000Y-100330000D02*
X157499999Y-99079999D01*
X152419999Y-101619999D02*
X156210000Y-105410000D01*
X137160000Y-102870000D02*
X138410001Y-101619999D01*
X138410001Y-101619999D02*
X152419999Y-101619999D01*
X156210000Y-132080000D02*
X156210000Y-133350000D01*
X156210000Y-133350000D02*
X153670000Y-135890000D01*
X125730000Y-135890000D02*
X115570000Y-125730000D01*
X153670000Y-135890000D02*
X125730000Y-135890000D01*
X113010001Y-109239999D02*
X111760000Y-110490000D01*
X149879999Y-109239999D02*
X113010001Y-109239999D01*
X151130000Y-110490000D02*
X149879999Y-109239999D01*
X142240000Y-111760000D02*
X119380000Y-111760000D01*
X151130000Y-130810000D02*
X147320000Y-130810000D01*
X147320000Y-130810000D02*
X137160000Y-120650000D01*
X137160000Y-120650000D02*
X99060000Y-120650000D01*
X99060000Y-120650000D02*
X92710000Y-114300000D01*
X106680000Y-95250000D02*
X111760000Y-90170000D01*
X157480000Y-116840000D02*
X106680000Y-116840000D01*
X104140000Y-114300000D02*
X104140000Y-109220000D01*
X104140000Y-109220000D02*
X106680000Y-106680000D01*
X163830000Y-110490000D02*
X157480000Y-116840000D01*
X106680000Y-116840000D02*
X104140000Y-114300000D01*
X106680000Y-106680000D02*
X106680000Y-95250000D01*
X157480000Y-92710000D02*
X154940000Y-90170000D01*
X137760001Y-76219999D02*
X123170001Y-76219999D01*
X139030001Y-77489999D02*
X137760001Y-76219999D01*
X154270001Y-77489999D02*
X139030001Y-77489999D01*
X123170001Y-76219999D02*
X111760000Y-87630000D01*
X154940000Y-78159998D02*
X154270001Y-77489999D01*
X154940000Y-90170000D02*
X154940000Y-78159998D01*
X154940000Y-109220000D02*
X158280001Y-105879999D01*
X158280001Y-105879999D02*
X160020000Y-104140000D01*
X160020000Y-104140000D02*
X160020000Y-83820000D01*
X160020000Y-83820000D02*
X160020000Y-82550000D01*
X160020000Y-82550000D02*
X160020000Y-81280000D01*
X116840000Y-79320002D02*
X114300000Y-81860002D01*
X116840000Y-78740000D02*
X116840000Y-79320002D01*
X114300000Y-82550000D02*
X111760000Y-85090000D01*
X114300000Y-81860002D02*
X114300000Y-82550000D01*
X115550001Y-73679999D02*
X111760000Y-77470000D01*
X154940000Y-74930000D02*
X154940000Y-68580000D01*
X137720003Y-73679999D02*
X115550001Y-73679999D01*
X163830000Y-83820000D02*
X154940000Y-74930000D01*
X154940000Y-68580000D02*
X152400000Y-66040000D01*
X152400000Y-66040000D02*
X145360002Y-66040000D01*
X145360002Y-66040000D02*
X137720003Y-73679999D01*
D23*
G36*
X177140001Y-139040000D02*
G01*
X155512931Y-139040000D01*
X155533291Y-139023291D01*
X155559446Y-138991421D01*
X158880996Y-135669872D01*
X171755000Y-135669872D01*
X171755000Y-136110128D01*
X171840890Y-136541925D01*
X172009369Y-136948669D01*
X172253962Y-137314729D01*
X172565271Y-137626038D01*
X172931331Y-137870631D01*
X173338075Y-138039110D01*
X173769872Y-138125000D01*
X174210128Y-138125000D01*
X174641925Y-138039110D01*
X175048669Y-137870631D01*
X175414729Y-137626038D01*
X175726038Y-137314729D01*
X175970631Y-136948669D01*
X176139110Y-136541925D01*
X176225000Y-136110128D01*
X176225000Y-135669872D01*
X176139110Y-135238075D01*
X175970631Y-134831331D01*
X175726038Y-134465271D01*
X175414729Y-134153962D01*
X175048669Y-133909369D01*
X174641925Y-133740890D01*
X174210128Y-133655000D01*
X173769872Y-133655000D01*
X173338075Y-133740890D01*
X172931331Y-133909369D01*
X172565271Y-134153962D01*
X172253962Y-134465271D01*
X172009369Y-134831331D01*
X171840890Y-135238075D01*
X171755000Y-135669872D01*
X158880996Y-135669872D01*
X160581433Y-133969436D01*
X160613291Y-133943291D01*
X160717636Y-133816146D01*
X160795172Y-133671087D01*
X160842918Y-133513689D01*
X160855000Y-133391019D01*
X160855000Y-133391018D01*
X160859040Y-133350000D01*
X160855000Y-133308982D01*
X160855000Y-122533285D01*
X160937205Y-122410256D01*
X161015226Y-122221898D01*
X161055000Y-122021939D01*
X161055000Y-121818061D01*
X161015226Y-121618102D01*
X160937205Y-121429744D01*
X160823937Y-121260226D01*
X160679774Y-121116063D01*
X160510256Y-121002795D01*
X160321898Y-120924774D01*
X160121939Y-120885000D01*
X159918061Y-120885000D01*
X159718102Y-120924774D01*
X159529744Y-121002795D01*
X159360226Y-121116063D01*
X159216063Y-121260226D01*
X159102795Y-121429744D01*
X159024774Y-121618102D01*
X158985000Y-121818061D01*
X158985000Y-122021939D01*
X159024774Y-122221898D01*
X159102795Y-122410256D01*
X159185001Y-122533286D01*
X159185000Y-133004131D01*
X154594133Y-137595000D01*
X122265868Y-137595000D01*
X117028807Y-132357940D01*
X117055000Y-132226260D01*
X117055000Y-131933740D01*
X116997932Y-131646842D01*
X116885990Y-131376589D01*
X116723475Y-131133368D01*
X116516632Y-130926525D01*
X116273411Y-130764010D01*
X116003158Y-130652068D01*
X115716260Y-130595000D01*
X115423740Y-130595000D01*
X115136842Y-130652068D01*
X114866589Y-130764010D01*
X114623368Y-130926525D01*
X114416525Y-131133368D01*
X114254010Y-131376589D01*
X114142068Y-131646842D01*
X114085000Y-131933740D01*
X114085000Y-132226260D01*
X114142068Y-132513158D01*
X114254010Y-132783411D01*
X114416525Y-133026632D01*
X114548380Y-133158487D01*
X114475820Y-133180498D01*
X114365506Y-133239463D01*
X114268815Y-133318815D01*
X114189463Y-133415506D01*
X114130498Y-133525820D01*
X114094188Y-133645518D01*
X114081928Y-133770000D01*
X114085000Y-134334250D01*
X114243750Y-134493000D01*
X115443000Y-134493000D01*
X115443000Y-134473000D01*
X115697000Y-134473000D01*
X115697000Y-134493000D01*
X115717000Y-134493000D01*
X115717000Y-134747000D01*
X115697000Y-134747000D01*
X115697000Y-135946250D01*
X115855750Y-136105000D01*
X116420000Y-136108072D01*
X116544482Y-136095812D01*
X116664180Y-136059502D01*
X116774494Y-136000537D01*
X116871185Y-135921185D01*
X116950537Y-135824494D01*
X117009502Y-135714180D01*
X117045812Y-135594482D01*
X117058072Y-135470000D01*
X117055000Y-134905750D01*
X116896252Y-134747002D01*
X117055000Y-134747002D01*
X117055000Y-134745867D01*
X121300559Y-138991427D01*
X121326709Y-139023291D01*
X121347069Y-139040000D01*
X76860000Y-139040000D01*
X76860000Y-135669872D01*
X77775000Y-135669872D01*
X77775000Y-136110128D01*
X77860890Y-136541925D01*
X78029369Y-136948669D01*
X78273962Y-137314729D01*
X78585271Y-137626038D01*
X78951331Y-137870631D01*
X79358075Y-138039110D01*
X79789872Y-138125000D01*
X80230128Y-138125000D01*
X80661925Y-138039110D01*
X81068669Y-137870631D01*
X81434729Y-137626038D01*
X81746038Y-137314729D01*
X81990631Y-136948669D01*
X82159110Y-136541925D01*
X82245000Y-136110128D01*
X82245000Y-135669872D01*
X82159110Y-135238075D01*
X81990631Y-134831331D01*
X81754988Y-134478665D01*
X102705000Y-134478665D01*
X102705000Y-134761335D01*
X102760147Y-135038574D01*
X102868320Y-135299727D01*
X103025363Y-135534759D01*
X103225241Y-135734637D01*
X103460273Y-135891680D01*
X103721426Y-135999853D01*
X103998665Y-136055000D01*
X104281335Y-136055000D01*
X104558574Y-135999853D01*
X104819727Y-135891680D01*
X105054759Y-135734637D01*
X105254637Y-135534759D01*
X105411680Y-135299727D01*
X105519853Y-135038574D01*
X105575000Y-134761335D01*
X105575000Y-134478665D01*
X107785000Y-134478665D01*
X107785000Y-134761335D01*
X107840147Y-135038574D01*
X107948320Y-135299727D01*
X108105363Y-135534759D01*
X108305241Y-135734637D01*
X108540273Y-135891680D01*
X108801426Y-135999853D01*
X109078665Y-136055000D01*
X109361335Y-136055000D01*
X109638574Y-135999853D01*
X109899727Y-135891680D01*
X110134759Y-135734637D01*
X110334637Y-135534759D01*
X110377907Y-135470000D01*
X114081928Y-135470000D01*
X114094188Y-135594482D01*
X114130498Y-135714180D01*
X114189463Y-135824494D01*
X114268815Y-135921185D01*
X114365506Y-136000537D01*
X114475820Y-136059502D01*
X114595518Y-136095812D01*
X114720000Y-136108072D01*
X115284250Y-136105000D01*
X115443000Y-135946250D01*
X115443000Y-134747000D01*
X114243750Y-134747000D01*
X114085000Y-134905750D01*
X114081928Y-135470000D01*
X110377907Y-135470000D01*
X110491680Y-135299727D01*
X110599853Y-135038574D01*
X110655000Y-134761335D01*
X110655000Y-134478665D01*
X110599853Y-134201426D01*
X110491680Y-133940273D01*
X110334637Y-133705241D01*
X110134759Y-133505363D01*
X109899727Y-133348320D01*
X109638574Y-133240147D01*
X109361335Y-133185000D01*
X109078665Y-133185000D01*
X108801426Y-133240147D01*
X108540273Y-133348320D01*
X108305241Y-133505363D01*
X108105363Y-133705241D01*
X107948320Y-133940273D01*
X107840147Y-134201426D01*
X107785000Y-134478665D01*
X105575000Y-134478665D01*
X105519853Y-134201426D01*
X105411680Y-133940273D01*
X105254637Y-133705241D01*
X105054759Y-133505363D01*
X104819727Y-133348320D01*
X104558574Y-133240147D01*
X104281335Y-133185000D01*
X103998665Y-133185000D01*
X103721426Y-133240147D01*
X103460273Y-133348320D01*
X103225241Y-133505363D01*
X103025363Y-133705241D01*
X102868320Y-133940273D01*
X102760147Y-134201426D01*
X102705000Y-134478665D01*
X81754988Y-134478665D01*
X81746038Y-134465271D01*
X81434729Y-134153962D01*
X81068669Y-133909369D01*
X80661925Y-133740890D01*
X80230128Y-133655000D01*
X79789872Y-133655000D01*
X79358075Y-133740890D01*
X78951331Y-133909369D01*
X78585271Y-134153962D01*
X78273962Y-134465271D01*
X78029369Y-134831331D01*
X77860890Y-135238075D01*
X77775000Y-135669872D01*
X76860000Y-135669872D01*
X76860000Y-129120000D01*
X114081928Y-129120000D01*
X114094188Y-129244482D01*
X114130498Y-129364180D01*
X114189463Y-129474494D01*
X114268815Y-129571185D01*
X114365506Y-129650537D01*
X114475820Y-129709502D01*
X114595518Y-129745812D01*
X114720000Y-129758072D01*
X115284250Y-129755000D01*
X115443000Y-129596250D01*
X115443000Y-128397000D01*
X114243750Y-128397000D01*
X114085000Y-128555750D01*
X114081928Y-129120000D01*
X76860000Y-129120000D01*
X76860000Y-127420000D01*
X114081928Y-127420000D01*
X114085000Y-127984250D01*
X114243750Y-128143000D01*
X115443000Y-128143000D01*
X115443000Y-128123000D01*
X115697000Y-128123000D01*
X115697000Y-128143000D01*
X115717000Y-128143000D01*
X115717000Y-128397000D01*
X115697000Y-128397000D01*
X115697000Y-129596250D01*
X115855750Y-129755000D01*
X116420000Y-129758072D01*
X116544482Y-129745812D01*
X116664180Y-129709502D01*
X116774494Y-129650537D01*
X116871185Y-129571185D01*
X116950537Y-129474494D01*
X117009502Y-129364180D01*
X117045812Y-129244482D01*
X117058072Y-129120000D01*
X117055000Y-128555750D01*
X116896252Y-128397002D01*
X117055000Y-128397002D01*
X117055000Y-128395867D01*
X125110563Y-136451432D01*
X125136709Y-136483291D01*
X125168568Y-136509437D01*
X125168570Y-136509439D01*
X125263854Y-136587636D01*
X125408913Y-136665172D01*
X125566311Y-136712918D01*
X125730000Y-136729040D01*
X125771018Y-136725000D01*
X153628982Y-136725000D01*
X153670000Y-136729040D01*
X153711018Y-136725000D01*
X153711019Y-136725000D01*
X153833689Y-136712918D01*
X153991087Y-136665172D01*
X154136146Y-136587636D01*
X154263291Y-136483291D01*
X154289446Y-136451421D01*
X156771427Y-133969441D01*
X156803291Y-133943291D01*
X156907636Y-133816146D01*
X156985172Y-133671087D01*
X157032918Y-133513689D01*
X157045000Y-133391019D01*
X157045000Y-133391009D01*
X157049039Y-133350001D01*
X157045000Y-133308993D01*
X157045000Y-132693285D01*
X157127205Y-132570256D01*
X157205226Y-132381898D01*
X157245000Y-132181939D01*
X157245000Y-131978061D01*
X157205226Y-131778102D01*
X157127205Y-131589744D01*
X157013937Y-131420226D01*
X156869774Y-131276063D01*
X156700256Y-131162795D01*
X156511898Y-131084774D01*
X156311939Y-131045000D01*
X156108061Y-131045000D01*
X155908102Y-131084774D01*
X155719744Y-131162795D01*
X155550226Y-131276063D01*
X155406063Y-131420226D01*
X155292795Y-131589744D01*
X155214774Y-131778102D01*
X155175000Y-131978061D01*
X155175000Y-132181939D01*
X155214774Y-132381898D01*
X155292795Y-132570256D01*
X155375000Y-132693286D01*
X155375001Y-133004131D01*
X153324133Y-135055000D01*
X126075869Y-135055000D01*
X124727759Y-133706890D01*
X135718524Y-133706890D01*
X135763175Y-133854099D01*
X135888359Y-134116920D01*
X136062412Y-134350269D01*
X136278645Y-134545178D01*
X136528748Y-134694157D01*
X136803109Y-134791481D01*
X137033000Y-134670814D01*
X137033000Y-133477000D01*
X137287000Y-133477000D01*
X137287000Y-134670814D01*
X137516891Y-134791481D01*
X137791252Y-134694157D01*
X138041355Y-134545178D01*
X138257588Y-134350269D01*
X138431641Y-134116920D01*
X138556825Y-133854099D01*
X138601476Y-133706890D01*
X149688524Y-133706890D01*
X149733175Y-133854099D01*
X149858359Y-134116920D01*
X150032412Y-134350269D01*
X150248645Y-134545178D01*
X150498748Y-134694157D01*
X150773109Y-134791481D01*
X151003000Y-134670814D01*
X151003000Y-133477000D01*
X151257000Y-133477000D01*
X151257000Y-134670814D01*
X151486891Y-134791481D01*
X151761252Y-134694157D01*
X152011355Y-134545178D01*
X152227588Y-134350269D01*
X152401641Y-134116920D01*
X152526825Y-133854099D01*
X152571476Y-133706890D01*
X152450155Y-133477000D01*
X151257000Y-133477000D01*
X151003000Y-133477000D01*
X149809845Y-133477000D01*
X149688524Y-133706890D01*
X138601476Y-133706890D01*
X138480155Y-133477000D01*
X137287000Y-133477000D01*
X137033000Y-133477000D01*
X135839845Y-133477000D01*
X135718524Y-133706890D01*
X124727759Y-133706890D01*
X117028807Y-126007940D01*
X117055000Y-125876260D01*
X117055000Y-125583740D01*
X116997932Y-125296842D01*
X116885990Y-125026589D01*
X116788043Y-124880000D01*
X135671928Y-124880000D01*
X135671928Y-126580000D01*
X135684188Y-126704482D01*
X135720498Y-126824180D01*
X135779463Y-126934494D01*
X135858815Y-127031185D01*
X135955506Y-127110537D01*
X136065820Y-127169502D01*
X136138380Y-127191513D01*
X136006525Y-127323368D01*
X135844010Y-127566589D01*
X135732068Y-127836842D01*
X135675000Y-128123740D01*
X135675000Y-128416260D01*
X135732068Y-128703158D01*
X135844010Y-128973411D01*
X136006525Y-129216632D01*
X136213368Y-129423475D01*
X136387760Y-129540000D01*
X136213368Y-129656525D01*
X136006525Y-129863368D01*
X135844010Y-130106589D01*
X135732068Y-130376842D01*
X135675000Y-130663740D01*
X135675000Y-130956260D01*
X135732068Y-131243158D01*
X135844010Y-131513411D01*
X136006525Y-131756632D01*
X136213368Y-131963475D01*
X136395534Y-132085195D01*
X136278645Y-132154822D01*
X136062412Y-132349731D01*
X135888359Y-132583080D01*
X135763175Y-132845901D01*
X135718524Y-132993110D01*
X135839845Y-133223000D01*
X137033000Y-133223000D01*
X137033000Y-133203000D01*
X137287000Y-133203000D01*
X137287000Y-133223000D01*
X138480155Y-133223000D01*
X138601476Y-132993110D01*
X138556825Y-132845901D01*
X138431641Y-132583080D01*
X138257588Y-132349731D01*
X138041355Y-132154822D01*
X137924466Y-132085195D01*
X138106632Y-131963475D01*
X138313475Y-131756632D01*
X138475990Y-131513411D01*
X138587932Y-131243158D01*
X138645000Y-130956260D01*
X138645000Y-130663740D01*
X138587932Y-130376842D01*
X138475990Y-130106589D01*
X138313475Y-129863368D01*
X138106632Y-129656525D01*
X137932240Y-129540000D01*
X138106632Y-129423475D01*
X138313475Y-129216632D01*
X138475990Y-128973411D01*
X138587932Y-128703158D01*
X138645000Y-128416260D01*
X138645000Y-128123740D01*
X138587932Y-127836842D01*
X138475990Y-127566589D01*
X138313475Y-127323368D01*
X138181620Y-127191513D01*
X138254180Y-127169502D01*
X138364494Y-127110537D01*
X138461185Y-127031185D01*
X138540537Y-126934494D01*
X138599502Y-126824180D01*
X138635812Y-126704482D01*
X138648072Y-126580000D01*
X138648072Y-124880000D01*
X138635812Y-124755518D01*
X138599502Y-124635820D01*
X138540537Y-124525506D01*
X138461185Y-124428815D01*
X138364494Y-124349463D01*
X138254180Y-124290498D01*
X138134482Y-124254188D01*
X138010000Y-124241928D01*
X136310000Y-124241928D01*
X136185518Y-124254188D01*
X136065820Y-124290498D01*
X135955506Y-124349463D01*
X135858815Y-124428815D01*
X135779463Y-124525506D01*
X135720498Y-124635820D01*
X135684188Y-124755518D01*
X135671928Y-124880000D01*
X116788043Y-124880000D01*
X116723475Y-124783368D01*
X116516632Y-124576525D01*
X116273411Y-124414010D01*
X116003158Y-124302068D01*
X115716260Y-124245000D01*
X115423740Y-124245000D01*
X115136842Y-124302068D01*
X114866589Y-124414010D01*
X114623368Y-124576525D01*
X114416525Y-124783368D01*
X114254010Y-125026589D01*
X114142068Y-125296842D01*
X114085000Y-125583740D01*
X114085000Y-125876260D01*
X114142068Y-126163158D01*
X114254010Y-126433411D01*
X114416525Y-126676632D01*
X114548380Y-126808487D01*
X114475820Y-126830498D01*
X114365506Y-126889463D01*
X114268815Y-126968815D01*
X114189463Y-127065506D01*
X114130498Y-127175820D01*
X114094188Y-127295518D01*
X114081928Y-127420000D01*
X76860000Y-127420000D01*
X76860000Y-124318665D01*
X102705000Y-124318665D01*
X102705000Y-124601335D01*
X102760147Y-124878574D01*
X102868320Y-125139727D01*
X103025363Y-125374759D01*
X103225241Y-125574637D01*
X103460273Y-125731680D01*
X103721426Y-125839853D01*
X103998665Y-125895000D01*
X104281335Y-125895000D01*
X104558574Y-125839853D01*
X104819727Y-125731680D01*
X105054759Y-125574637D01*
X105254637Y-125374759D01*
X105411680Y-125139727D01*
X105519853Y-124878574D01*
X105575000Y-124601335D01*
X105575000Y-124318665D01*
X107785000Y-124318665D01*
X107785000Y-124601335D01*
X107840147Y-124878574D01*
X107948320Y-125139727D01*
X108105363Y-125374759D01*
X108305241Y-125574637D01*
X108540273Y-125731680D01*
X108801426Y-125839853D01*
X109078665Y-125895000D01*
X109361335Y-125895000D01*
X109638574Y-125839853D01*
X109899727Y-125731680D01*
X110134759Y-125574637D01*
X110334637Y-125374759D01*
X110491680Y-125139727D01*
X110599853Y-124878574D01*
X110655000Y-124601335D01*
X110655000Y-124318665D01*
X110599853Y-124041426D01*
X110491680Y-123780273D01*
X110334637Y-123545241D01*
X110134759Y-123345363D01*
X109899727Y-123188320D01*
X109638574Y-123080147D01*
X109361335Y-123025000D01*
X109078665Y-123025000D01*
X108801426Y-123080147D01*
X108540273Y-123188320D01*
X108305241Y-123345363D01*
X108105363Y-123545241D01*
X107948320Y-123780273D01*
X107840147Y-124041426D01*
X107785000Y-124318665D01*
X105575000Y-124318665D01*
X105519853Y-124041426D01*
X105411680Y-123780273D01*
X105254637Y-123545241D01*
X105054759Y-123345363D01*
X104819727Y-123188320D01*
X104558574Y-123080147D01*
X104281335Y-123025000D01*
X103998665Y-123025000D01*
X103721426Y-123080147D01*
X103460273Y-123188320D01*
X103225241Y-123345363D01*
X103025363Y-123545241D01*
X102868320Y-123780273D01*
X102760147Y-124041426D01*
X102705000Y-124318665D01*
X76860000Y-124318665D01*
X76860000Y-119832702D01*
X81736903Y-119832702D01*
X81808486Y-120076671D01*
X82063996Y-120197571D01*
X82338184Y-120266300D01*
X82620512Y-120280217D01*
X82900130Y-120238787D01*
X83166292Y-120143603D01*
X83291514Y-120076671D01*
X83363097Y-119832702D01*
X82550000Y-119019605D01*
X81736903Y-119832702D01*
X76860000Y-119832702D01*
X76860000Y-118910512D01*
X81109783Y-118910512D01*
X81151213Y-119190130D01*
X81246397Y-119456292D01*
X81313329Y-119581514D01*
X81557298Y-119653097D01*
X82370395Y-118840000D01*
X82356253Y-118825858D01*
X82535858Y-118646253D01*
X82550000Y-118660395D01*
X82564143Y-118646253D01*
X82743748Y-118825858D01*
X82729605Y-118840000D01*
X83542702Y-119653097D01*
X83786671Y-119581514D01*
X83907571Y-119326004D01*
X83976300Y-119051816D01*
X83990217Y-118769488D01*
X83948787Y-118489870D01*
X83853603Y-118223708D01*
X83788384Y-118101691D01*
X83801185Y-118091185D01*
X83880537Y-117994494D01*
X83939502Y-117884180D01*
X83975812Y-117764482D01*
X83988072Y-117640000D01*
X83988072Y-116040000D01*
X83975812Y-115915518D01*
X83939502Y-115795820D01*
X83880537Y-115685506D01*
X83801185Y-115588815D01*
X83704494Y-115509463D01*
X83594180Y-115450498D01*
X83474482Y-115414188D01*
X83350000Y-115401928D01*
X81750000Y-115401928D01*
X81625518Y-115414188D01*
X81505820Y-115450498D01*
X81395506Y-115509463D01*
X81298815Y-115588815D01*
X81219463Y-115685506D01*
X81160498Y-115795820D01*
X81124188Y-115915518D01*
X81111928Y-116040000D01*
X81111928Y-117640000D01*
X81124188Y-117764482D01*
X81160498Y-117884180D01*
X81219463Y-117994494D01*
X81298815Y-118091185D01*
X81311758Y-118101807D01*
X81192429Y-118353996D01*
X81123700Y-118628184D01*
X81109783Y-118910512D01*
X76860000Y-118910512D01*
X76860000Y-112672702D01*
X79196903Y-112672702D01*
X79268486Y-112916671D01*
X79523996Y-113037571D01*
X79798184Y-113106300D01*
X80080512Y-113120217D01*
X80360130Y-113078787D01*
X80626292Y-112983603D01*
X80751514Y-112916671D01*
X80823097Y-112672702D01*
X85546903Y-112672702D01*
X85618486Y-112916671D01*
X85873996Y-113037571D01*
X86148184Y-113106300D01*
X86430512Y-113120217D01*
X86710130Y-113078787D01*
X86976292Y-112983603D01*
X87101514Y-112916671D01*
X87173097Y-112672702D01*
X86360000Y-111859605D01*
X85546903Y-112672702D01*
X80823097Y-112672702D01*
X80010000Y-111859605D01*
X79196903Y-112672702D01*
X76860000Y-112672702D01*
X76860000Y-111750512D01*
X78569783Y-111750512D01*
X78611213Y-112030130D01*
X78706397Y-112296292D01*
X78773329Y-112421514D01*
X79017298Y-112493097D01*
X79830395Y-111680000D01*
X80189605Y-111680000D01*
X81002702Y-112493097D01*
X81246671Y-112421514D01*
X81367571Y-112166004D01*
X81436300Y-111891816D01*
X81443265Y-111750512D01*
X84919783Y-111750512D01*
X84961213Y-112030130D01*
X85056397Y-112296292D01*
X85123329Y-112421514D01*
X85367298Y-112493097D01*
X86180395Y-111680000D01*
X86539605Y-111680000D01*
X87352702Y-112493097D01*
X87596671Y-112421514D01*
X87717571Y-112166004D01*
X87786300Y-111891816D01*
X87800217Y-111609488D01*
X87758787Y-111329870D01*
X87663603Y-111063708D01*
X87596671Y-110938486D01*
X87352702Y-110866903D01*
X86539605Y-111680000D01*
X86180395Y-111680000D01*
X85367298Y-110866903D01*
X85123329Y-110938486D01*
X85002429Y-111193996D01*
X84933700Y-111468184D01*
X84919783Y-111750512D01*
X81443265Y-111750512D01*
X81450217Y-111609488D01*
X81408787Y-111329870D01*
X81313603Y-111063708D01*
X81246671Y-110938486D01*
X81002702Y-110866903D01*
X80189605Y-111680000D01*
X79830395Y-111680000D01*
X79017298Y-110866903D01*
X78773329Y-110938486D01*
X78652429Y-111193996D01*
X78583700Y-111468184D01*
X78569783Y-111750512D01*
X76860000Y-111750512D01*
X76860000Y-110687298D01*
X79196903Y-110687298D01*
X80010000Y-111500395D01*
X80823097Y-110687298D01*
X85546903Y-110687298D01*
X86360000Y-111500395D01*
X87173097Y-110687298D01*
X87101514Y-110443329D01*
X86846004Y-110322429D01*
X86571816Y-110253700D01*
X86289488Y-110239783D01*
X86009870Y-110281213D01*
X85743708Y-110376397D01*
X85618486Y-110443329D01*
X85546903Y-110687298D01*
X80823097Y-110687298D01*
X80751514Y-110443329D01*
X80496004Y-110322429D01*
X80221816Y-110253700D01*
X79939488Y-110239783D01*
X79659870Y-110281213D01*
X79393708Y-110376397D01*
X79268486Y-110443329D01*
X79196903Y-110687298D01*
X76860000Y-110687298D01*
X76860000Y-106538665D01*
X78575000Y-106538665D01*
X78575000Y-106821335D01*
X78630147Y-107098574D01*
X78738320Y-107359727D01*
X78895363Y-107594759D01*
X79095241Y-107794637D01*
X79330273Y-107951680D01*
X79591426Y-108059853D01*
X79868665Y-108115000D01*
X80151335Y-108115000D01*
X80428574Y-108059853D01*
X80689727Y-107951680D01*
X80924759Y-107794637D01*
X81124637Y-107594759D01*
X81281680Y-107359727D01*
X81389853Y-107098574D01*
X81445000Y-106821335D01*
X81445000Y-106538665D01*
X84925000Y-106538665D01*
X84925000Y-106821335D01*
X84980147Y-107098574D01*
X85088320Y-107359727D01*
X85245363Y-107594759D01*
X85445241Y-107794637D01*
X85680273Y-107951680D01*
X85941426Y-108059853D01*
X86218665Y-108115000D01*
X86501335Y-108115000D01*
X86778574Y-108059853D01*
X87039727Y-107951680D01*
X87274759Y-107794637D01*
X87474637Y-107594759D01*
X87631680Y-107359727D01*
X87739853Y-107098574D01*
X87795000Y-106821335D01*
X87795000Y-106538665D01*
X87739853Y-106261426D01*
X87631680Y-106000273D01*
X87474637Y-105765241D01*
X87274759Y-105565363D01*
X87039727Y-105408320D01*
X86778574Y-105300147D01*
X86501335Y-105245000D01*
X86218665Y-105245000D01*
X85941426Y-105300147D01*
X85680273Y-105408320D01*
X85445241Y-105565363D01*
X85245363Y-105765241D01*
X85088320Y-106000273D01*
X84980147Y-106261426D01*
X84925000Y-106538665D01*
X81445000Y-106538665D01*
X81389853Y-106261426D01*
X81281680Y-106000273D01*
X81124637Y-105765241D01*
X80924759Y-105565363D01*
X80689727Y-105408320D01*
X80428574Y-105300147D01*
X80151335Y-105245000D01*
X79868665Y-105245000D01*
X79591426Y-105300147D01*
X79330273Y-105408320D01*
X79095241Y-105565363D01*
X78895363Y-105765241D01*
X78738320Y-106000273D01*
X78630147Y-106261426D01*
X78575000Y-106538665D01*
X76860000Y-106538665D01*
X76860000Y-100052702D01*
X85586903Y-100052702D01*
X85658486Y-100296671D01*
X85913996Y-100417571D01*
X86188184Y-100486300D01*
X86470512Y-100500217D01*
X86750130Y-100458787D01*
X87016292Y-100363603D01*
X87141514Y-100296671D01*
X87213097Y-100052702D01*
X86400000Y-99239605D01*
X85586903Y-100052702D01*
X76860000Y-100052702D01*
X76860000Y-99130512D01*
X84959783Y-99130512D01*
X85001213Y-99410130D01*
X85096397Y-99676292D01*
X85163329Y-99801514D01*
X85407298Y-99873097D01*
X86220395Y-99060000D01*
X86579605Y-99060000D01*
X87392702Y-99873097D01*
X87461928Y-99852785D01*
X87461928Y-99860000D01*
X87474188Y-99984482D01*
X87510498Y-100104180D01*
X87569463Y-100214494D01*
X87648815Y-100311185D01*
X87745506Y-100390537D01*
X87855820Y-100449502D01*
X87975518Y-100485812D01*
X88100000Y-100498072D01*
X89700000Y-100498072D01*
X89824482Y-100485812D01*
X89944180Y-100449502D01*
X90054494Y-100390537D01*
X90151185Y-100311185D01*
X90230537Y-100214494D01*
X90289502Y-100104180D01*
X90325812Y-99984482D01*
X90338072Y-99860000D01*
X90338072Y-98260000D01*
X90325812Y-98135518D01*
X90289502Y-98015820D01*
X90230537Y-97905506D01*
X90151185Y-97808815D01*
X90054494Y-97729463D01*
X89944180Y-97670498D01*
X89824482Y-97634188D01*
X89700000Y-97621928D01*
X88100000Y-97621928D01*
X87975518Y-97634188D01*
X87855820Y-97670498D01*
X87745506Y-97729463D01*
X87648815Y-97808815D01*
X87569463Y-97905506D01*
X87510498Y-98015820D01*
X87474188Y-98135518D01*
X87461928Y-98260000D01*
X87461928Y-98267215D01*
X87392702Y-98246903D01*
X86579605Y-99060000D01*
X86220395Y-99060000D01*
X85407298Y-98246903D01*
X85163329Y-98318486D01*
X85042429Y-98573996D01*
X84973700Y-98848184D01*
X84959783Y-99130512D01*
X76860000Y-99130512D01*
X76860000Y-98067298D01*
X85586903Y-98067298D01*
X86400000Y-98880395D01*
X87213097Y-98067298D01*
X87141514Y-97823329D01*
X86886004Y-97702429D01*
X86611816Y-97633700D01*
X86329488Y-97619783D01*
X86049870Y-97661213D01*
X85783708Y-97756397D01*
X85658486Y-97823329D01*
X85586903Y-98067298D01*
X76860000Y-98067298D01*
X76860000Y-89070000D01*
X78271928Y-89070000D01*
X78271928Y-91270000D01*
X78284188Y-91394482D01*
X78320498Y-91514180D01*
X78379463Y-91624494D01*
X78458815Y-91721185D01*
X78555506Y-91800537D01*
X78665820Y-91859502D01*
X78785518Y-91895812D01*
X78910000Y-91908072D01*
X81110000Y-91908072D01*
X81234482Y-91895812D01*
X81354180Y-91859502D01*
X81464494Y-91800537D01*
X81561185Y-91721185D01*
X81640537Y-91624494D01*
X81699502Y-91514180D01*
X81735812Y-91394482D01*
X81748072Y-91270000D01*
X81748072Y-89070000D01*
X81735812Y-88945518D01*
X81699502Y-88825820D01*
X81640537Y-88715506D01*
X81561185Y-88618815D01*
X81464494Y-88539463D01*
X81354180Y-88480498D01*
X81234482Y-88444188D01*
X81110000Y-88431928D01*
X78910000Y-88431928D01*
X78785518Y-88444188D01*
X78665820Y-88480498D01*
X78555506Y-88539463D01*
X78458815Y-88618815D01*
X78379463Y-88715506D01*
X78320498Y-88825820D01*
X78284188Y-88945518D01*
X78271928Y-89070000D01*
X76860000Y-89070000D01*
X76860000Y-86360000D01*
X90299509Y-86360000D01*
X90321423Y-86582498D01*
X90386324Y-86796446D01*
X90491717Y-86993622D01*
X90598012Y-87123143D01*
X94676855Y-91201987D01*
X94806376Y-91308283D01*
X95003552Y-91413675D01*
X95217500Y-91478576D01*
X95439999Y-91500490D01*
X95662498Y-91478576D01*
X95876445Y-91413675D01*
X96073621Y-91308283D01*
X96246448Y-91166448D01*
X96388283Y-90993621D01*
X96493675Y-90796445D01*
X96558576Y-90582498D01*
X96580490Y-90359999D01*
X96558576Y-90137500D01*
X96493675Y-89923552D01*
X96388283Y-89726376D01*
X96281987Y-89596855D01*
X92203143Y-85518012D01*
X92073622Y-85411717D01*
X91876446Y-85306324D01*
X91662498Y-85241423D01*
X91440000Y-85219509D01*
X91217502Y-85241423D01*
X91003554Y-85306324D01*
X90806378Y-85411717D01*
X90633552Y-85553552D01*
X90491717Y-85726378D01*
X90386324Y-85923554D01*
X90321423Y-86137502D01*
X90299509Y-86360000D01*
X76860000Y-86360000D01*
X76860000Y-79839117D01*
X78275000Y-79839117D01*
X78275000Y-80180883D01*
X78341675Y-80516081D01*
X78472463Y-80831831D01*
X78662337Y-81115998D01*
X78904002Y-81357663D01*
X79188169Y-81547537D01*
X79503919Y-81678325D01*
X79839117Y-81745000D01*
X80180883Y-81745000D01*
X80516081Y-81678325D01*
X80831831Y-81547537D01*
X81115998Y-81357663D01*
X81357663Y-81115998D01*
X81547537Y-80831831D01*
X81678325Y-80516081D01*
X81745000Y-80180883D01*
X81745000Y-79880131D01*
X83020132Y-78605000D01*
X87781928Y-78605000D01*
X87781928Y-79220000D01*
X87794188Y-79344482D01*
X87830498Y-79464180D01*
X87889463Y-79574494D01*
X87968815Y-79671185D01*
X88065506Y-79750537D01*
X88175820Y-79809502D01*
X88295518Y-79845812D01*
X88420000Y-79858072D01*
X90952941Y-79858072D01*
X96655000Y-85560132D01*
X96655001Y-112974238D01*
X96649509Y-113030000D01*
X96671423Y-113252498D01*
X96736324Y-113466446D01*
X96752199Y-113496146D01*
X96841717Y-113663623D01*
X96983552Y-113836449D01*
X97026860Y-113871991D01*
X102969868Y-119815000D01*
X99405868Y-119815000D01*
X93734093Y-114143226D01*
X93705226Y-113998102D01*
X93627205Y-113809744D01*
X93513937Y-113640226D01*
X93369774Y-113496063D01*
X93200256Y-113382795D01*
X93011898Y-113304774D01*
X92811939Y-113265000D01*
X92608061Y-113265000D01*
X92408102Y-113304774D01*
X92219744Y-113382795D01*
X92050226Y-113496063D01*
X91906063Y-113640226D01*
X91792795Y-113809744D01*
X91714774Y-113998102D01*
X91675000Y-114198061D01*
X91675000Y-114401939D01*
X91714774Y-114601898D01*
X91792795Y-114790256D01*
X91906063Y-114959774D01*
X92050226Y-115103937D01*
X92219744Y-115217205D01*
X92408102Y-115295226D01*
X92553226Y-115324093D01*
X98440559Y-121211427D01*
X98466709Y-121243291D01*
X98593854Y-121347636D01*
X98738913Y-121425172D01*
X98896311Y-121472918D01*
X99059999Y-121489040D01*
X99101018Y-121485000D01*
X136814133Y-121485000D01*
X146700563Y-131371432D01*
X146726709Y-131403291D01*
X146758568Y-131429437D01*
X146758570Y-131429439D01*
X146853854Y-131507636D01*
X146998913Y-131585172D01*
X147156311Y-131632918D01*
X147320000Y-131649040D01*
X147361018Y-131645000D01*
X149901935Y-131645000D01*
X149976525Y-131756632D01*
X150183368Y-131963475D01*
X150365534Y-132085195D01*
X150248645Y-132154822D01*
X150032412Y-132349731D01*
X149858359Y-132583080D01*
X149733175Y-132845901D01*
X149688524Y-132993110D01*
X149809845Y-133223000D01*
X151003000Y-133223000D01*
X151003000Y-133203000D01*
X151257000Y-133203000D01*
X151257000Y-133223000D01*
X152450155Y-133223000D01*
X152571476Y-132993110D01*
X152526825Y-132845901D01*
X152401641Y-132583080D01*
X152227588Y-132349731D01*
X152011355Y-132154822D01*
X151894466Y-132085195D01*
X152076632Y-131963475D01*
X152283475Y-131756632D01*
X152445990Y-131513411D01*
X152557932Y-131243158D01*
X152615000Y-130956260D01*
X152615000Y-130663740D01*
X152557932Y-130376842D01*
X152445990Y-130106589D01*
X152283475Y-129863368D01*
X152076632Y-129656525D01*
X151902240Y-129540000D01*
X152076632Y-129423475D01*
X152283475Y-129216632D01*
X152445990Y-128973411D01*
X152557932Y-128703158D01*
X152615000Y-128416260D01*
X152615000Y-128123740D01*
X152557932Y-127836842D01*
X152445990Y-127566589D01*
X152283475Y-127323368D01*
X152151620Y-127191513D01*
X152224180Y-127169502D01*
X152334494Y-127110537D01*
X152431185Y-127031185D01*
X152510537Y-126934494D01*
X152569502Y-126824180D01*
X152605812Y-126704482D01*
X152618072Y-126580000D01*
X152618072Y-124880000D01*
X152605812Y-124755518D01*
X152569502Y-124635820D01*
X152510537Y-124525506D01*
X152431185Y-124428815D01*
X152334494Y-124349463D01*
X152224180Y-124290498D01*
X152104482Y-124254188D01*
X151980000Y-124241928D01*
X150280000Y-124241928D01*
X150155518Y-124254188D01*
X150035820Y-124290498D01*
X149925506Y-124349463D01*
X149828815Y-124428815D01*
X149749463Y-124525506D01*
X149690498Y-124635820D01*
X149654188Y-124755518D01*
X149641928Y-124880000D01*
X149641928Y-126580000D01*
X149654188Y-126704482D01*
X149690498Y-126824180D01*
X149749463Y-126934494D01*
X149828815Y-127031185D01*
X149925506Y-127110537D01*
X150035820Y-127169502D01*
X150108380Y-127191513D01*
X149976525Y-127323368D01*
X149814010Y-127566589D01*
X149702068Y-127836842D01*
X149645000Y-128123740D01*
X149645000Y-128416260D01*
X149702068Y-128703158D01*
X149814010Y-128973411D01*
X149976525Y-129216632D01*
X150183368Y-129423475D01*
X150357760Y-129540000D01*
X150183368Y-129656525D01*
X149976525Y-129863368D01*
X149901935Y-129975000D01*
X147665869Y-129975000D01*
X138205867Y-120515000D01*
X167584249Y-120515000D01*
X167640000Y-120520491D01*
X167695751Y-120515000D01*
X167695752Y-120515000D01*
X167862499Y-120498577D01*
X168076447Y-120433676D01*
X168273623Y-120328284D01*
X168446449Y-120186449D01*
X168481996Y-120143135D01*
X172213146Y-116411987D01*
X172256449Y-116376449D01*
X172336777Y-116278570D01*
X172398284Y-116203623D01*
X172503676Y-116006447D01*
X172568577Y-115792499D01*
X172590491Y-115570000D01*
X172585000Y-115514248D01*
X172585000Y-108438521D01*
X172674010Y-108653411D01*
X172836525Y-108896632D01*
X173043368Y-109103475D01*
X173286589Y-109265990D01*
X173556842Y-109377932D01*
X173843740Y-109435000D01*
X174136260Y-109435000D01*
X174423158Y-109377932D01*
X174693411Y-109265990D01*
X174936632Y-109103475D01*
X175143475Y-108896632D01*
X175305990Y-108653411D01*
X175417932Y-108383158D01*
X175475000Y-108096260D01*
X175475000Y-107803740D01*
X175417932Y-107516842D01*
X175305990Y-107246589D01*
X175143475Y-107003368D01*
X174936632Y-106796525D01*
X174762240Y-106680000D01*
X174936632Y-106563475D01*
X175143475Y-106356632D01*
X175305990Y-106113411D01*
X175417932Y-105843158D01*
X175475000Y-105556260D01*
X175475000Y-105263740D01*
X175417932Y-104976842D01*
X175305990Y-104706589D01*
X175143475Y-104463368D01*
X174936632Y-104256525D01*
X174762240Y-104140000D01*
X174936632Y-104023475D01*
X175143475Y-103816632D01*
X175305990Y-103573411D01*
X175417932Y-103303158D01*
X175475000Y-103016260D01*
X175475000Y-102723740D01*
X175417932Y-102436842D01*
X175305990Y-102166589D01*
X175143475Y-101923368D01*
X175011620Y-101791513D01*
X175084180Y-101769502D01*
X175194494Y-101710537D01*
X175291185Y-101631185D01*
X175370537Y-101534494D01*
X175429502Y-101424180D01*
X175465812Y-101304482D01*
X175478072Y-101180000D01*
X175478072Y-99480000D01*
X175465812Y-99355518D01*
X175429502Y-99235820D01*
X175370537Y-99125506D01*
X175291185Y-99028815D01*
X175194494Y-98949463D01*
X175084180Y-98890498D01*
X174964482Y-98854188D01*
X174840000Y-98841928D01*
X173140000Y-98841928D01*
X173015518Y-98854188D01*
X172895820Y-98890498D01*
X172785506Y-98949463D01*
X172688815Y-99028815D01*
X172609463Y-99125506D01*
X172585000Y-99171272D01*
X172585000Y-92780957D01*
X172604494Y-92770537D01*
X172701185Y-92691185D01*
X172780537Y-92594494D01*
X172790957Y-92575000D01*
X173934249Y-92575000D01*
X173990000Y-92580491D01*
X174045751Y-92575000D01*
X174045752Y-92575000D01*
X174212499Y-92558577D01*
X174426447Y-92493676D01*
X174623623Y-92388284D01*
X174796449Y-92246449D01*
X174831996Y-92203135D01*
X176023140Y-91011992D01*
X176066449Y-90976449D01*
X176208284Y-90803623D01*
X176313676Y-90606447D01*
X176378577Y-90392499D01*
X176395000Y-90225752D01*
X176395000Y-90225745D01*
X176400490Y-90170001D01*
X176395000Y-90114257D01*
X176395000Y-87685751D01*
X176400491Y-87630000D01*
X176378577Y-87407501D01*
X176313676Y-87193553D01*
X176208284Y-86996377D01*
X176146776Y-86921430D01*
X176066449Y-86823551D01*
X176023141Y-86788009D01*
X171315000Y-82079869D01*
X171315000Y-74985751D01*
X171320491Y-74929999D01*
X171298577Y-74707500D01*
X171276427Y-74634482D01*
X171233676Y-74493553D01*
X171128284Y-74296377D01*
X170986449Y-74123551D01*
X170943141Y-74088009D01*
X169665132Y-72810000D01*
X172501928Y-72810000D01*
X172501928Y-74510000D01*
X172514188Y-74634482D01*
X172550498Y-74754180D01*
X172609463Y-74864494D01*
X172688815Y-74961185D01*
X172785506Y-75040537D01*
X172895820Y-75099502D01*
X172968380Y-75121513D01*
X172836525Y-75253368D01*
X172674010Y-75496589D01*
X172562068Y-75766842D01*
X172505000Y-76053740D01*
X172505000Y-76346260D01*
X172562068Y-76633158D01*
X172674010Y-76903411D01*
X172836525Y-77146632D01*
X173043368Y-77353475D01*
X173217760Y-77470000D01*
X173043368Y-77586525D01*
X172836525Y-77793368D01*
X172674010Y-78036589D01*
X172562068Y-78306842D01*
X172505000Y-78593740D01*
X172505000Y-78886260D01*
X172562068Y-79173158D01*
X172674010Y-79443411D01*
X172836525Y-79686632D01*
X173043368Y-79893475D01*
X173217760Y-80010000D01*
X173043368Y-80126525D01*
X172836525Y-80333368D01*
X172674010Y-80576589D01*
X172562068Y-80846842D01*
X172505000Y-81133740D01*
X172505000Y-81426260D01*
X172562068Y-81713158D01*
X172674010Y-81983411D01*
X172836525Y-82226632D01*
X173043368Y-82433475D01*
X173286589Y-82595990D01*
X173556842Y-82707932D01*
X173843740Y-82765000D01*
X174136260Y-82765000D01*
X174423158Y-82707932D01*
X174693411Y-82595990D01*
X174936632Y-82433475D01*
X175143475Y-82226632D01*
X175305990Y-81983411D01*
X175417932Y-81713158D01*
X175475000Y-81426260D01*
X175475000Y-81133740D01*
X175417932Y-80846842D01*
X175305990Y-80576589D01*
X175143475Y-80333368D01*
X174936632Y-80126525D01*
X174762240Y-80010000D01*
X174936632Y-79893475D01*
X175143475Y-79686632D01*
X175305990Y-79443411D01*
X175417932Y-79173158D01*
X175475000Y-78886260D01*
X175475000Y-78593740D01*
X175417932Y-78306842D01*
X175305990Y-78036589D01*
X175143475Y-77793368D01*
X174936632Y-77586525D01*
X174762240Y-77470000D01*
X174936632Y-77353475D01*
X175143475Y-77146632D01*
X175305990Y-76903411D01*
X175417932Y-76633158D01*
X175475000Y-76346260D01*
X175475000Y-76053740D01*
X175417932Y-75766842D01*
X175305990Y-75496589D01*
X175143475Y-75253368D01*
X175011620Y-75121513D01*
X175084180Y-75099502D01*
X175194494Y-75040537D01*
X175291185Y-74961185D01*
X175370537Y-74864494D01*
X175429502Y-74754180D01*
X175465812Y-74634482D01*
X175478072Y-74510000D01*
X175478072Y-72810000D01*
X175465812Y-72685518D01*
X175429502Y-72565820D01*
X175370537Y-72455506D01*
X175291185Y-72358815D01*
X175194494Y-72279463D01*
X175084180Y-72220498D01*
X174964482Y-72184188D01*
X174840000Y-72171928D01*
X173140000Y-72171928D01*
X173015518Y-72184188D01*
X172895820Y-72220498D01*
X172785506Y-72279463D01*
X172688815Y-72358815D01*
X172609463Y-72455506D01*
X172550498Y-72565820D01*
X172514188Y-72685518D01*
X172501928Y-72810000D01*
X169665132Y-72810000D01*
X165318072Y-68462941D01*
X165318072Y-67730000D01*
X165305812Y-67605518D01*
X165269502Y-67485820D01*
X165210537Y-67375506D01*
X165131185Y-67278815D01*
X165034494Y-67199463D01*
X164924180Y-67140498D01*
X164804482Y-67104188D01*
X164680000Y-67091928D01*
X162980000Y-67091928D01*
X162855518Y-67104188D01*
X162735820Y-67140498D01*
X162625506Y-67199463D01*
X162528815Y-67278815D01*
X162449463Y-67375506D01*
X162390498Y-67485820D01*
X162354188Y-67605518D01*
X162341928Y-67730000D01*
X162341928Y-69430000D01*
X162354188Y-69554482D01*
X162390498Y-69674180D01*
X162449463Y-69784494D01*
X162528815Y-69881185D01*
X162625506Y-69960537D01*
X162735820Y-70019502D01*
X162816466Y-70043966D01*
X162732412Y-70119731D01*
X162558359Y-70353080D01*
X162433175Y-70615901D01*
X162388524Y-70763110D01*
X162509845Y-70993000D01*
X163703000Y-70993000D01*
X163703000Y-70973000D01*
X163957000Y-70973000D01*
X163957000Y-70993000D01*
X163977000Y-70993000D01*
X163977000Y-71247000D01*
X163957000Y-71247000D01*
X163957000Y-71267000D01*
X163703000Y-71267000D01*
X163703000Y-71247000D01*
X162509845Y-71247000D01*
X162388524Y-71476890D01*
X162433175Y-71624099D01*
X162558359Y-71886920D01*
X162732412Y-72120269D01*
X162948645Y-72315178D01*
X163065534Y-72384805D01*
X162883368Y-72506525D01*
X162676525Y-72713368D01*
X162514010Y-72956589D01*
X162402068Y-73226842D01*
X162345000Y-73513740D01*
X162345000Y-73806260D01*
X162402068Y-74093158D01*
X162514010Y-74363411D01*
X162676525Y-74606632D01*
X162883368Y-74813475D01*
X163057760Y-74930000D01*
X162883368Y-75046525D01*
X162676525Y-75253368D01*
X162514010Y-75496589D01*
X162402068Y-75766842D01*
X162345000Y-76053740D01*
X162345000Y-76346260D01*
X162402068Y-76633158D01*
X162514010Y-76903411D01*
X162676525Y-77146632D01*
X162883368Y-77353475D01*
X163057760Y-77470000D01*
X162883368Y-77586525D01*
X162676525Y-77793368D01*
X162514010Y-78036589D01*
X162402068Y-78306842D01*
X162345000Y-78593740D01*
X162345000Y-78886260D01*
X162402068Y-79173158D01*
X162514010Y-79443411D01*
X162676525Y-79686632D01*
X162883368Y-79893475D01*
X163057760Y-80010000D01*
X162883368Y-80126525D01*
X162676525Y-80333368D01*
X162514010Y-80576589D01*
X162402068Y-80846842D01*
X162345000Y-81133740D01*
X162345000Y-81154131D01*
X155775000Y-74584133D01*
X155775000Y-68621007D01*
X155779039Y-68579999D01*
X155775000Y-68538991D01*
X155775000Y-68538981D01*
X155762918Y-68416311D01*
X155715172Y-68258913D01*
X155637636Y-68113854D01*
X155533291Y-67986709D01*
X155501427Y-67960559D01*
X154630740Y-67089872D01*
X171755000Y-67089872D01*
X171755000Y-67530128D01*
X171840890Y-67961925D01*
X172009369Y-68368669D01*
X172253962Y-68734729D01*
X172565271Y-69046038D01*
X172931331Y-69290631D01*
X173338075Y-69459110D01*
X173769872Y-69545000D01*
X174210128Y-69545000D01*
X174641925Y-69459110D01*
X175048669Y-69290631D01*
X175414729Y-69046038D01*
X175726038Y-68734729D01*
X175970631Y-68368669D01*
X176139110Y-67961925D01*
X176225000Y-67530128D01*
X176225000Y-67089872D01*
X176139110Y-66658075D01*
X175970631Y-66251331D01*
X175726038Y-65885271D01*
X175414729Y-65573962D01*
X175048669Y-65329369D01*
X174641925Y-65160890D01*
X174210128Y-65075000D01*
X173769872Y-65075000D01*
X173338075Y-65160890D01*
X172931331Y-65329369D01*
X172565271Y-65573962D01*
X172253962Y-65885271D01*
X172009369Y-66251331D01*
X171840890Y-66658075D01*
X171755000Y-67089872D01*
X154630740Y-67089872D01*
X153019446Y-65478579D01*
X152993291Y-65446709D01*
X152866146Y-65342364D01*
X152721087Y-65264828D01*
X152563689Y-65217082D01*
X152441019Y-65205000D01*
X152441018Y-65205000D01*
X152400000Y-65200960D01*
X152358982Y-65205000D01*
X145401020Y-65205000D01*
X145360001Y-65200960D01*
X145318983Y-65205000D01*
X145196313Y-65217082D01*
X145038915Y-65264828D01*
X144893856Y-65342364D01*
X144766711Y-65446709D01*
X144740561Y-65478573D01*
X138492555Y-71726580D01*
X138475990Y-71686589D01*
X138313475Y-71443368D01*
X138106632Y-71236525D01*
X137924466Y-71114805D01*
X138041355Y-71045178D01*
X138257588Y-70850269D01*
X138431641Y-70616920D01*
X138556825Y-70354099D01*
X138601476Y-70206890D01*
X138480155Y-69977000D01*
X137287000Y-69977000D01*
X137287000Y-69997000D01*
X137033000Y-69997000D01*
X137033000Y-69977000D01*
X135839845Y-69977000D01*
X135718524Y-70206890D01*
X135763175Y-70354099D01*
X135888359Y-70616920D01*
X136062412Y-70850269D01*
X136278645Y-71045178D01*
X136395534Y-71114805D01*
X136213368Y-71236525D01*
X136006525Y-71443368D01*
X135844010Y-71686589D01*
X135732068Y-71956842D01*
X135675000Y-72243740D01*
X135675000Y-72536260D01*
X135732068Y-72823158D01*
X135741115Y-72844999D01*
X115591019Y-72844999D01*
X115550001Y-72840959D01*
X115508982Y-72844999D01*
X115386312Y-72857081D01*
X115228914Y-72904827D01*
X115083855Y-72982363D01*
X114956710Y-73086708D01*
X114930564Y-73118567D01*
X113245000Y-74804132D01*
X113245000Y-74783740D01*
X113187932Y-74496842D01*
X113075990Y-74226589D01*
X112913475Y-73983368D01*
X112706632Y-73776525D01*
X112532240Y-73660000D01*
X112706632Y-73543475D01*
X112913475Y-73336632D01*
X113075990Y-73093411D01*
X113187932Y-72823158D01*
X113245000Y-72536260D01*
X113245000Y-72243740D01*
X113187932Y-71956842D01*
X113075990Y-71686589D01*
X112913475Y-71443368D01*
X112706632Y-71236525D01*
X112532240Y-71120000D01*
X112706632Y-71003475D01*
X112913475Y-70796632D01*
X113075990Y-70553411D01*
X113187932Y-70283158D01*
X113245000Y-69996260D01*
X113245000Y-69703740D01*
X113187932Y-69416842D01*
X113075990Y-69146589D01*
X112913475Y-68903368D01*
X112706632Y-68696525D01*
X112532240Y-68580000D01*
X112706632Y-68463475D01*
X112913475Y-68256632D01*
X113075990Y-68013411D01*
X113187932Y-67743158D01*
X113245000Y-67456260D01*
X113245000Y-67163740D01*
X135675000Y-67163740D01*
X135675000Y-67456260D01*
X135732068Y-67743158D01*
X135844010Y-68013411D01*
X136006525Y-68256632D01*
X136213368Y-68463475D01*
X136395534Y-68585195D01*
X136278645Y-68654822D01*
X136062412Y-68849731D01*
X135888359Y-69083080D01*
X135763175Y-69345901D01*
X135718524Y-69493110D01*
X135839845Y-69723000D01*
X137033000Y-69723000D01*
X137033000Y-69703000D01*
X137287000Y-69703000D01*
X137287000Y-69723000D01*
X138480155Y-69723000D01*
X138601476Y-69493110D01*
X138556825Y-69345901D01*
X138431641Y-69083080D01*
X138257588Y-68849731D01*
X138041355Y-68654822D01*
X137924466Y-68585195D01*
X138106632Y-68463475D01*
X138313475Y-68256632D01*
X138475990Y-68013411D01*
X138587932Y-67743158D01*
X138645000Y-67456260D01*
X138645000Y-67163740D01*
X138587932Y-66876842D01*
X138475990Y-66606589D01*
X138313475Y-66363368D01*
X138106632Y-66156525D01*
X137863411Y-65994010D01*
X137593158Y-65882068D01*
X137306260Y-65825000D01*
X137013740Y-65825000D01*
X136726842Y-65882068D01*
X136456589Y-65994010D01*
X136213368Y-66156525D01*
X136006525Y-66363368D01*
X135844010Y-66606589D01*
X135732068Y-66876842D01*
X135675000Y-67163740D01*
X113245000Y-67163740D01*
X113187932Y-66876842D01*
X113075990Y-66606589D01*
X112913475Y-66363368D01*
X112706632Y-66156525D01*
X112463411Y-65994010D01*
X112193158Y-65882068D01*
X111906260Y-65825000D01*
X111613740Y-65825000D01*
X111326842Y-65882068D01*
X111056589Y-65994010D01*
X110813368Y-66156525D01*
X110606525Y-66363368D01*
X110444010Y-66606589D01*
X110332068Y-66876842D01*
X110275000Y-67163740D01*
X110275000Y-67456260D01*
X110332068Y-67743158D01*
X110444010Y-68013411D01*
X110606525Y-68256632D01*
X110813368Y-68463475D01*
X110987760Y-68580000D01*
X110813368Y-68696525D01*
X110606525Y-68903368D01*
X110444010Y-69146589D01*
X110332068Y-69416842D01*
X110275000Y-69703740D01*
X110275000Y-69996260D01*
X110332068Y-70283158D01*
X110444010Y-70553411D01*
X110606525Y-70796632D01*
X110813368Y-71003475D01*
X110987760Y-71120000D01*
X110813368Y-71236525D01*
X110606525Y-71443368D01*
X110444010Y-71686589D01*
X110332068Y-71956842D01*
X110275000Y-72243740D01*
X110275000Y-72536260D01*
X110332068Y-72823158D01*
X110444010Y-73093411D01*
X110606525Y-73336632D01*
X110813368Y-73543475D01*
X110987760Y-73660000D01*
X110813368Y-73776525D01*
X110606525Y-73983368D01*
X110444010Y-74226589D01*
X110332068Y-74496842D01*
X110275000Y-74783740D01*
X110275000Y-75076260D01*
X110332068Y-75363158D01*
X110444010Y-75633411D01*
X110606525Y-75876632D01*
X110813368Y-76083475D01*
X110987760Y-76200000D01*
X110813368Y-76316525D01*
X110606525Y-76523368D01*
X110444010Y-76766589D01*
X110332068Y-77036842D01*
X110275000Y-77323740D01*
X110275000Y-77616260D01*
X110332068Y-77903158D01*
X110444010Y-78173411D01*
X110606525Y-78416632D01*
X110813368Y-78623475D01*
X110987760Y-78740000D01*
X110813368Y-78856525D01*
X110606525Y-79063368D01*
X110444010Y-79306589D01*
X110332068Y-79576842D01*
X110275000Y-79863740D01*
X110275000Y-80156260D01*
X110332068Y-80443158D01*
X110444010Y-80713411D01*
X110606525Y-80956632D01*
X110813368Y-81163475D01*
X110987760Y-81280000D01*
X110813368Y-81396525D01*
X110606525Y-81603368D01*
X110444010Y-81846589D01*
X110332068Y-82116842D01*
X110275000Y-82403740D01*
X110275000Y-82696260D01*
X110332068Y-82983158D01*
X110444010Y-83253411D01*
X110606525Y-83496632D01*
X110813368Y-83703475D01*
X110987760Y-83820000D01*
X110813368Y-83936525D01*
X110606525Y-84143368D01*
X110444010Y-84386589D01*
X110332068Y-84656842D01*
X110275000Y-84943740D01*
X110275000Y-85236260D01*
X110332068Y-85523158D01*
X110444010Y-85793411D01*
X110606525Y-86036632D01*
X110813368Y-86243475D01*
X110987760Y-86360000D01*
X110813368Y-86476525D01*
X110606525Y-86683368D01*
X110444010Y-86926589D01*
X110332068Y-87196842D01*
X110275000Y-87483740D01*
X110275000Y-87776260D01*
X110332068Y-88063158D01*
X110444010Y-88333411D01*
X110606525Y-88576632D01*
X110813368Y-88783475D01*
X110987760Y-88900000D01*
X110813368Y-89016525D01*
X110606525Y-89223368D01*
X110444010Y-89466589D01*
X110332068Y-89736842D01*
X110275000Y-90023740D01*
X110275000Y-90316260D01*
X110301193Y-90447939D01*
X106118574Y-94630559D01*
X106086710Y-94656709D01*
X106060562Y-94688571D01*
X105982364Y-94783855D01*
X105904828Y-94928914D01*
X105857082Y-95086312D01*
X105840960Y-95250000D01*
X105845001Y-95291029D01*
X105845000Y-106334132D01*
X103578574Y-108600559D01*
X103546710Y-108626709D01*
X103520562Y-108658571D01*
X103442364Y-108753855D01*
X103364828Y-108898914D01*
X103317082Y-109056312D01*
X103300960Y-109220000D01*
X103305001Y-109261028D01*
X103305000Y-114258981D01*
X103300960Y-114300000D01*
X103305000Y-114341018D01*
X103317082Y-114463688D01*
X103364828Y-114621086D01*
X103442364Y-114766145D01*
X103546709Y-114893291D01*
X103578579Y-114919446D01*
X106060559Y-117401427D01*
X106086709Y-117433291D01*
X106213854Y-117537636D01*
X106358913Y-117615172D01*
X106516311Y-117662918D01*
X106638981Y-117675000D01*
X106638991Y-117675000D01*
X106679999Y-117679039D01*
X106721007Y-117675000D01*
X157438982Y-117675000D01*
X157480000Y-117679040D01*
X157521018Y-117675000D01*
X157521019Y-117675000D01*
X157643689Y-117662918D01*
X157801087Y-117615172D01*
X157946146Y-117537636D01*
X158073291Y-117433291D01*
X158099446Y-117401421D01*
X162345000Y-113155868D01*
X162345000Y-113157002D01*
X162509844Y-113157002D01*
X162388524Y-113386890D01*
X162433175Y-113534099D01*
X162558359Y-113796920D01*
X162732412Y-114030269D01*
X162948645Y-114225178D01*
X163198748Y-114374157D01*
X163473109Y-114471481D01*
X163703000Y-114350814D01*
X163703000Y-113157000D01*
X163957000Y-113157000D01*
X163957000Y-114350814D01*
X164186891Y-114471481D01*
X164461252Y-114374157D01*
X164711355Y-114225178D01*
X164927588Y-114030269D01*
X165101641Y-113796920D01*
X165226825Y-113534099D01*
X165271476Y-113386890D01*
X165150155Y-113157000D01*
X163957000Y-113157000D01*
X163703000Y-113157000D01*
X163683000Y-113157000D01*
X163683000Y-112903000D01*
X163703000Y-112903000D01*
X163703000Y-112883000D01*
X163957000Y-112883000D01*
X163957000Y-112903000D01*
X165150155Y-112903000D01*
X165271476Y-112673110D01*
X165226825Y-112525901D01*
X165101641Y-112263080D01*
X164927588Y-112029731D01*
X164711355Y-111834822D01*
X164594466Y-111765195D01*
X164776632Y-111643475D01*
X164983475Y-111436632D01*
X165145990Y-111193411D01*
X165257932Y-110923158D01*
X165315000Y-110636260D01*
X165315000Y-110343740D01*
X165257932Y-110056842D01*
X165145990Y-109786589D01*
X164983475Y-109543368D01*
X164776632Y-109336525D01*
X164602240Y-109220000D01*
X164776632Y-109103475D01*
X164983475Y-108896632D01*
X165145990Y-108653411D01*
X165257932Y-108383158D01*
X165315000Y-108096260D01*
X165315000Y-107803740D01*
X165257932Y-107516842D01*
X165145990Y-107246589D01*
X164983475Y-107003368D01*
X164776632Y-106796525D01*
X164602240Y-106680000D01*
X164776632Y-106563475D01*
X164983475Y-106356632D01*
X165145990Y-106113411D01*
X165257932Y-105843158D01*
X165315000Y-105556260D01*
X165315000Y-105263740D01*
X165257932Y-104976842D01*
X165145990Y-104706589D01*
X164983475Y-104463368D01*
X164776632Y-104256525D01*
X164602240Y-104140000D01*
X164776632Y-104023475D01*
X164983475Y-103816632D01*
X165145990Y-103573411D01*
X165257932Y-103303158D01*
X165315000Y-103016260D01*
X165315000Y-102723740D01*
X165257932Y-102436842D01*
X165145990Y-102166589D01*
X164983475Y-101923368D01*
X164776632Y-101716525D01*
X164602240Y-101600000D01*
X164776632Y-101483475D01*
X164983475Y-101276632D01*
X165145990Y-101033411D01*
X165257932Y-100763158D01*
X165315000Y-100476260D01*
X165315000Y-100183740D01*
X165257932Y-99896842D01*
X165145990Y-99626589D01*
X164983475Y-99383368D01*
X164776632Y-99176525D01*
X164594466Y-99054805D01*
X164711355Y-98985178D01*
X164927588Y-98790269D01*
X165101641Y-98556920D01*
X165226825Y-98294099D01*
X165271476Y-98146890D01*
X165150155Y-97917000D01*
X163957000Y-97917000D01*
X163957000Y-97937000D01*
X163703000Y-97937000D01*
X163703000Y-97917000D01*
X162509845Y-97917000D01*
X162388524Y-98146890D01*
X162433175Y-98294099D01*
X162558359Y-98556920D01*
X162732412Y-98790269D01*
X162948645Y-98985178D01*
X163065534Y-99054805D01*
X162883368Y-99176525D01*
X162676525Y-99383368D01*
X162514010Y-99626589D01*
X162402068Y-99896842D01*
X162345000Y-100183740D01*
X162345000Y-100476260D01*
X162402068Y-100763158D01*
X162514010Y-101033411D01*
X162676525Y-101276632D01*
X162883368Y-101483475D01*
X163057760Y-101600000D01*
X162883368Y-101716525D01*
X162676525Y-101923368D01*
X162514010Y-102166589D01*
X162402068Y-102436842D01*
X162345000Y-102723740D01*
X162345000Y-103016260D01*
X162402068Y-103303158D01*
X162514010Y-103573411D01*
X162676525Y-103816632D01*
X162883368Y-104023475D01*
X163057760Y-104140000D01*
X162883368Y-104256525D01*
X162676525Y-104463368D01*
X162514010Y-104706589D01*
X162402068Y-104976842D01*
X162345000Y-105263740D01*
X162345000Y-105556260D01*
X162402068Y-105843158D01*
X162514010Y-106113411D01*
X162676525Y-106356632D01*
X162883368Y-106563475D01*
X163057760Y-106680000D01*
X162883368Y-106796525D01*
X162676525Y-107003368D01*
X162514010Y-107246589D01*
X162402068Y-107516842D01*
X162345000Y-107803740D01*
X162345000Y-108096260D01*
X162402068Y-108383158D01*
X162514010Y-108653411D01*
X162676525Y-108896632D01*
X162883368Y-109103475D01*
X163057760Y-109220000D01*
X162883368Y-109336525D01*
X162676525Y-109543368D01*
X162514010Y-109786589D01*
X162402068Y-110056842D01*
X162345000Y-110343740D01*
X162345000Y-110636260D01*
X162371193Y-110767939D01*
X157134133Y-116005000D01*
X149335867Y-116005000D01*
X150852061Y-114488807D01*
X150983740Y-114515000D01*
X151276260Y-114515000D01*
X151563158Y-114457932D01*
X151833411Y-114345990D01*
X152076632Y-114183475D01*
X152283475Y-113976632D01*
X152445990Y-113733411D01*
X152557932Y-113463158D01*
X152615000Y-113176260D01*
X152615000Y-112883740D01*
X152557932Y-112596842D01*
X152445990Y-112326589D01*
X152283475Y-112083368D01*
X152076632Y-111876525D01*
X151902240Y-111760000D01*
X152076632Y-111643475D01*
X152283475Y-111436632D01*
X152445990Y-111193411D01*
X152557932Y-110923158D01*
X152615000Y-110636260D01*
X152615000Y-110343740D01*
X152557932Y-110056842D01*
X152445990Y-109786589D01*
X152283475Y-109543368D01*
X152076632Y-109336525D01*
X151902240Y-109220000D01*
X152076632Y-109103475D01*
X152283475Y-108896632D01*
X152445990Y-108653411D01*
X152557932Y-108383158D01*
X152615000Y-108096260D01*
X152615000Y-107803740D01*
X152557932Y-107516842D01*
X152445990Y-107246589D01*
X152283475Y-107003368D01*
X152076632Y-106796525D01*
X151902240Y-106680000D01*
X152076632Y-106563475D01*
X152283475Y-106356632D01*
X152445990Y-106113411D01*
X152557932Y-105843158D01*
X152615000Y-105556260D01*
X152615000Y-105263740D01*
X152557932Y-104976842D01*
X152445990Y-104706589D01*
X152283475Y-104463368D01*
X152076632Y-104256525D01*
X151902240Y-104140000D01*
X152076632Y-104023475D01*
X152283475Y-103816632D01*
X152445990Y-103573411D01*
X152557932Y-103303158D01*
X152615000Y-103016260D01*
X152615000Y-102995867D01*
X155185908Y-105566777D01*
X155214774Y-105711898D01*
X155292795Y-105900256D01*
X155406063Y-106069774D01*
X155550226Y-106213937D01*
X155719744Y-106327205D01*
X155908102Y-106405226D01*
X156108061Y-106445000D01*
X156311939Y-106445000D01*
X156511898Y-106405226D01*
X156617752Y-106361379D01*
X154783225Y-108195907D01*
X154638102Y-108224774D01*
X154449744Y-108302795D01*
X154280226Y-108416063D01*
X154136063Y-108560226D01*
X154022795Y-108729744D01*
X153944774Y-108918102D01*
X153905000Y-109118061D01*
X153905000Y-109321939D01*
X153944774Y-109521898D01*
X154022795Y-109710256D01*
X154136063Y-109879774D01*
X154280226Y-110023937D01*
X154449744Y-110137205D01*
X154638102Y-110215226D01*
X154838061Y-110255000D01*
X155041939Y-110255000D01*
X155241898Y-110215226D01*
X155430256Y-110137205D01*
X155599774Y-110023937D01*
X155743937Y-109879774D01*
X155857205Y-109710256D01*
X155935226Y-109521898D01*
X155964093Y-109376775D01*
X158899440Y-106441429D01*
X158899449Y-106441418D01*
X160581428Y-104759440D01*
X160613291Y-104733291D01*
X160717636Y-104606146D01*
X160795172Y-104461087D01*
X160842918Y-104303689D01*
X160855000Y-104181019D01*
X160855000Y-104181018D01*
X160859040Y-104140001D01*
X160855000Y-104098982D01*
X160855000Y-89010512D01*
X170009783Y-89010512D01*
X170051213Y-89290130D01*
X170146397Y-89556292D01*
X170213329Y-89681514D01*
X170457298Y-89753097D01*
X171270395Y-88940000D01*
X171629605Y-88940000D01*
X172442702Y-89753097D01*
X172686671Y-89681514D01*
X172807571Y-89426004D01*
X172876300Y-89151816D01*
X172890217Y-88869488D01*
X172848787Y-88589870D01*
X172753603Y-88323708D01*
X172686671Y-88198486D01*
X172442702Y-88126903D01*
X171629605Y-88940000D01*
X171270395Y-88940000D01*
X170457298Y-88126903D01*
X170213329Y-88198486D01*
X170092429Y-88453996D01*
X170023700Y-88728184D01*
X170009783Y-89010512D01*
X160855000Y-89010512D01*
X160855000Y-87947298D01*
X170636903Y-87947298D01*
X171450000Y-88760395D01*
X172263097Y-87947298D01*
X172191514Y-87703329D01*
X171936004Y-87582429D01*
X171661816Y-87513700D01*
X171379488Y-87499783D01*
X171099870Y-87541213D01*
X170833708Y-87636397D01*
X170708486Y-87703329D01*
X170636903Y-87947298D01*
X160855000Y-87947298D01*
X160855000Y-86716890D01*
X162388524Y-86716890D01*
X162433175Y-86864099D01*
X162558359Y-87126920D01*
X162732412Y-87360269D01*
X162948645Y-87555178D01*
X163198748Y-87704157D01*
X163473109Y-87801481D01*
X163703000Y-87680814D01*
X163703000Y-86487000D01*
X163957000Y-86487000D01*
X163957000Y-87680814D01*
X164186891Y-87801481D01*
X164461252Y-87704157D01*
X164711355Y-87555178D01*
X164927588Y-87360269D01*
X165101641Y-87126920D01*
X165226825Y-86864099D01*
X165271476Y-86716890D01*
X165150155Y-86487000D01*
X163957000Y-86487000D01*
X163703000Y-86487000D01*
X162509845Y-86487000D01*
X162388524Y-86716890D01*
X160855000Y-86716890D01*
X160855000Y-82025868D01*
X162371193Y-83542061D01*
X162345000Y-83673740D01*
X162345000Y-83966260D01*
X162402068Y-84253158D01*
X162514010Y-84523411D01*
X162676525Y-84766632D01*
X162883368Y-84973475D01*
X163065534Y-85095195D01*
X162948645Y-85164822D01*
X162732412Y-85359731D01*
X162558359Y-85593080D01*
X162433175Y-85855901D01*
X162388524Y-86003110D01*
X162509845Y-86233000D01*
X163703000Y-86233000D01*
X163703000Y-86213000D01*
X163957000Y-86213000D01*
X163957000Y-86233000D01*
X165150155Y-86233000D01*
X165271476Y-86003110D01*
X165226825Y-85855901D01*
X165101641Y-85593080D01*
X164927588Y-85359731D01*
X164711355Y-85164822D01*
X164594466Y-85095195D01*
X164776632Y-84973475D01*
X164983475Y-84766632D01*
X165145990Y-84523411D01*
X165257932Y-84253158D01*
X165315000Y-83966260D01*
X165315000Y-83673740D01*
X165257932Y-83386842D01*
X165145990Y-83116589D01*
X164983475Y-82873368D01*
X164776632Y-82666525D01*
X164602240Y-82550000D01*
X164776632Y-82433475D01*
X164983475Y-82226632D01*
X165145990Y-81983411D01*
X165257932Y-81713158D01*
X165315000Y-81426260D01*
X165315000Y-81133740D01*
X165257932Y-80846842D01*
X165145990Y-80576589D01*
X164983475Y-80333368D01*
X164776632Y-80126525D01*
X164602240Y-80010000D01*
X164776632Y-79893475D01*
X164983475Y-79686632D01*
X165145990Y-79443411D01*
X165257932Y-79173158D01*
X165315000Y-78886260D01*
X165315000Y-78593740D01*
X165257932Y-78306842D01*
X165145990Y-78036589D01*
X164983475Y-77793368D01*
X164776632Y-77586525D01*
X164602240Y-77470000D01*
X164776632Y-77353475D01*
X164983475Y-77146632D01*
X165145990Y-76903411D01*
X165257932Y-76633158D01*
X165315000Y-76346260D01*
X165315000Y-76053740D01*
X165257932Y-75766842D01*
X165145990Y-75496589D01*
X164983475Y-75253368D01*
X164776632Y-75046525D01*
X164602240Y-74930000D01*
X164776632Y-74813475D01*
X164983475Y-74606632D01*
X165145990Y-74363411D01*
X165257932Y-74093158D01*
X165315000Y-73806260D01*
X165315000Y-73513740D01*
X165257932Y-73226842D01*
X165145990Y-72956589D01*
X164983475Y-72713368D01*
X164776632Y-72506525D01*
X164594466Y-72384805D01*
X164711355Y-72315178D01*
X164927588Y-72120269D01*
X165101641Y-71886920D01*
X165226825Y-71624099D01*
X165236633Y-71591764D01*
X169045001Y-75400133D01*
X169045000Y-82494248D01*
X169039509Y-82550000D01*
X169045000Y-82605751D01*
X169061423Y-82772498D01*
X169126324Y-82986446D01*
X169231716Y-83183623D01*
X169373551Y-83356449D01*
X169416865Y-83391996D01*
X174125001Y-88100133D01*
X174125000Y-89699868D01*
X173519869Y-90305000D01*
X172790957Y-90305000D01*
X172780537Y-90285506D01*
X172701185Y-90188815D01*
X172604494Y-90109463D01*
X172494180Y-90050498D01*
X172374482Y-90014188D01*
X172250000Y-90001928D01*
X172242785Y-90001928D01*
X172263097Y-89932702D01*
X171450000Y-89119605D01*
X170636903Y-89932702D01*
X170657215Y-90001928D01*
X170650000Y-90001928D01*
X170525518Y-90014188D01*
X170405820Y-90050498D01*
X170295506Y-90109463D01*
X170198815Y-90188815D01*
X170119463Y-90285506D01*
X170109043Y-90305000D01*
X167695752Y-90305000D01*
X167640000Y-90299509D01*
X167417501Y-90321423D01*
X167203553Y-90386324D01*
X167006377Y-90491716D01*
X166876856Y-90598011D01*
X166876854Y-90598013D01*
X166833551Y-90633551D01*
X166798013Y-90676854D01*
X163712941Y-93761928D01*
X162980000Y-93761928D01*
X162855518Y-93774188D01*
X162735820Y-93810498D01*
X162625506Y-93869463D01*
X162528815Y-93948815D01*
X162449463Y-94045506D01*
X162390498Y-94155820D01*
X162354188Y-94275518D01*
X162341928Y-94400000D01*
X162341928Y-96100000D01*
X162354188Y-96224482D01*
X162390498Y-96344180D01*
X162449463Y-96454494D01*
X162528815Y-96551185D01*
X162625506Y-96630537D01*
X162735820Y-96689502D01*
X162816466Y-96713966D01*
X162732412Y-96789731D01*
X162558359Y-97023080D01*
X162433175Y-97285901D01*
X162388524Y-97433110D01*
X162509845Y-97663000D01*
X163703000Y-97663000D01*
X163703000Y-97643000D01*
X163957000Y-97643000D01*
X163957000Y-97663000D01*
X165150155Y-97663000D01*
X165271476Y-97433110D01*
X165226825Y-97285901D01*
X165101641Y-97023080D01*
X164927588Y-96789731D01*
X164843534Y-96713966D01*
X164924180Y-96689502D01*
X165034494Y-96630537D01*
X165131185Y-96551185D01*
X165210537Y-96454494D01*
X165269502Y-96344180D01*
X165305812Y-96224482D01*
X165318072Y-96100000D01*
X165318072Y-95367059D01*
X168110133Y-92575000D01*
X170109043Y-92575000D01*
X170119463Y-92594494D01*
X170198815Y-92691185D01*
X170295506Y-92770537D01*
X170315001Y-92780957D01*
X170315000Y-115099867D01*
X167169869Y-118245000D01*
X104610132Y-118245000D01*
X98925000Y-112559869D01*
X98925000Y-100052702D01*
X99556903Y-100052702D01*
X99628486Y-100296671D01*
X99883996Y-100417571D01*
X100158184Y-100486300D01*
X100440512Y-100500217D01*
X100720130Y-100458787D01*
X100986292Y-100363603D01*
X101111514Y-100296671D01*
X101183097Y-100052702D01*
X100370000Y-99239605D01*
X99556903Y-100052702D01*
X98925000Y-100052702D01*
X98925000Y-99130512D01*
X98929783Y-99130512D01*
X98971213Y-99410130D01*
X99066397Y-99676292D01*
X99133329Y-99801514D01*
X99377298Y-99873097D01*
X100190395Y-99060000D01*
X100549605Y-99060000D01*
X101362702Y-99873097D01*
X101431928Y-99852785D01*
X101431928Y-99860000D01*
X101444188Y-99984482D01*
X101480498Y-100104180D01*
X101539463Y-100214494D01*
X101618815Y-100311185D01*
X101715506Y-100390537D01*
X101825820Y-100449502D01*
X101945518Y-100485812D01*
X102070000Y-100498072D01*
X103670000Y-100498072D01*
X103794482Y-100485812D01*
X103914180Y-100449502D01*
X104024494Y-100390537D01*
X104121185Y-100311185D01*
X104200537Y-100214494D01*
X104259502Y-100104180D01*
X104295812Y-99984482D01*
X104308072Y-99860000D01*
X104308072Y-98260000D01*
X104295812Y-98135518D01*
X104259502Y-98015820D01*
X104200537Y-97905506D01*
X104121185Y-97808815D01*
X104024494Y-97729463D01*
X103914180Y-97670498D01*
X103794482Y-97634188D01*
X103670000Y-97621928D01*
X102070000Y-97621928D01*
X101945518Y-97634188D01*
X101825820Y-97670498D01*
X101715506Y-97729463D01*
X101618815Y-97808815D01*
X101539463Y-97905506D01*
X101480498Y-98015820D01*
X101444188Y-98135518D01*
X101431928Y-98260000D01*
X101431928Y-98267215D01*
X101362702Y-98246903D01*
X100549605Y-99060000D01*
X100190395Y-99060000D01*
X99377298Y-98246903D01*
X99133329Y-98318486D01*
X99012429Y-98573996D01*
X98943700Y-98848184D01*
X98929783Y-99130512D01*
X98925000Y-99130512D01*
X98925000Y-98067298D01*
X99556903Y-98067298D01*
X100370000Y-98880395D01*
X101183097Y-98067298D01*
X101111514Y-97823329D01*
X100856004Y-97702429D01*
X100581816Y-97633700D01*
X100299488Y-97619783D01*
X100019870Y-97661213D01*
X99753708Y-97756397D01*
X99628486Y-97823329D01*
X99556903Y-98067298D01*
X98925000Y-98067298D01*
X98925000Y-85145741D01*
X98930490Y-85089999D01*
X98925000Y-85034257D01*
X98925000Y-85034248D01*
X98908577Y-84867501D01*
X98843676Y-84653553D01*
X98738284Y-84456377D01*
X98596449Y-84283551D01*
X98553141Y-84248009D01*
X92558072Y-78252941D01*
X92558072Y-76058665D01*
X96355000Y-76058665D01*
X96355000Y-76341335D01*
X96410147Y-76618574D01*
X96518320Y-76879727D01*
X96675363Y-77114759D01*
X96875241Y-77314637D01*
X97110273Y-77471680D01*
X97371426Y-77579853D01*
X97648665Y-77635000D01*
X97931335Y-77635000D01*
X98208574Y-77579853D01*
X98469727Y-77471680D01*
X98704759Y-77314637D01*
X98904637Y-77114759D01*
X99061680Y-76879727D01*
X99169853Y-76618574D01*
X99225000Y-76341335D01*
X99225000Y-76058665D01*
X106515000Y-76058665D01*
X106515000Y-76341335D01*
X106570147Y-76618574D01*
X106678320Y-76879727D01*
X106835363Y-77114759D01*
X107035241Y-77314637D01*
X107270273Y-77471680D01*
X107531426Y-77579853D01*
X107808665Y-77635000D01*
X108091335Y-77635000D01*
X108368574Y-77579853D01*
X108629727Y-77471680D01*
X108864759Y-77314637D01*
X109064637Y-77114759D01*
X109221680Y-76879727D01*
X109329853Y-76618574D01*
X109385000Y-76341335D01*
X109385000Y-76058665D01*
X109329853Y-75781426D01*
X109221680Y-75520273D01*
X109064637Y-75285241D01*
X108864759Y-75085363D01*
X108629727Y-74928320D01*
X108368574Y-74820147D01*
X108091335Y-74765000D01*
X107808665Y-74765000D01*
X107531426Y-74820147D01*
X107270273Y-74928320D01*
X107035241Y-75085363D01*
X106835363Y-75285241D01*
X106678320Y-75520273D01*
X106570147Y-75781426D01*
X106515000Y-76058665D01*
X99225000Y-76058665D01*
X99169853Y-75781426D01*
X99061680Y-75520273D01*
X98904637Y-75285241D01*
X98704759Y-75085363D01*
X98469727Y-74928320D01*
X98208574Y-74820147D01*
X97931335Y-74765000D01*
X97648665Y-74765000D01*
X97371426Y-74820147D01*
X97110273Y-74928320D01*
X96875241Y-75085363D01*
X96675363Y-75285241D01*
X96518320Y-75520273D01*
X96410147Y-75781426D01*
X96355000Y-76058665D01*
X92558072Y-76058665D01*
X92558072Y-75720000D01*
X92545812Y-75595518D01*
X92509502Y-75475820D01*
X92450537Y-75365506D01*
X92371185Y-75268815D01*
X92274494Y-75189463D01*
X92164180Y-75130498D01*
X92044482Y-75094188D01*
X91920000Y-75081928D01*
X88420000Y-75081928D01*
X88295518Y-75094188D01*
X88175820Y-75130498D01*
X88065506Y-75189463D01*
X87968815Y-75268815D01*
X87889463Y-75365506D01*
X87848506Y-75442131D01*
X87858072Y-75345000D01*
X87858072Y-73595000D01*
X87828999Y-73299814D01*
X87742896Y-73015972D01*
X87718324Y-72970000D01*
X87781928Y-72970000D01*
X87794188Y-73094482D01*
X87830498Y-73214180D01*
X87889463Y-73324494D01*
X87968815Y-73421185D01*
X88065506Y-73500537D01*
X88175820Y-73559502D01*
X88295518Y-73595812D01*
X88420000Y-73608072D01*
X89884250Y-73605000D01*
X90043000Y-73446250D01*
X90043000Y-71597000D01*
X90297000Y-71597000D01*
X90297000Y-73446250D01*
X90455750Y-73605000D01*
X91920000Y-73608072D01*
X92044482Y-73595812D01*
X92164180Y-73559502D01*
X92274494Y-73500537D01*
X92371185Y-73421185D01*
X92450537Y-73324494D01*
X92509502Y-73214180D01*
X92545812Y-73094482D01*
X92558072Y-72970000D01*
X92555000Y-71755750D01*
X92396250Y-71597000D01*
X90297000Y-71597000D01*
X90043000Y-71597000D01*
X87943750Y-71597000D01*
X87785000Y-71755750D01*
X87781928Y-72970000D01*
X87718324Y-72970000D01*
X87603073Y-72754382D01*
X87414903Y-72525097D01*
X87185618Y-72336927D01*
X86924028Y-72197104D01*
X86640186Y-72111001D01*
X86345000Y-72081928D01*
X84595000Y-72081928D01*
X84299814Y-72111001D01*
X84015972Y-72197104D01*
X83754382Y-72336927D01*
X83525097Y-72525097D01*
X83336927Y-72754382D01*
X83197104Y-73015972D01*
X83111001Y-73299814D01*
X83081928Y-73595000D01*
X83081928Y-75345000D01*
X83111001Y-75640186D01*
X83197104Y-75924028D01*
X83336927Y-76185618D01*
X83459522Y-76335000D01*
X82605741Y-76335000D01*
X82549999Y-76329510D01*
X82494257Y-76335000D01*
X82494248Y-76335000D01*
X82327501Y-76351423D01*
X82113553Y-76416324D01*
X81916377Y-76521716D01*
X81743551Y-76663551D01*
X81708009Y-76706859D01*
X80139869Y-78275000D01*
X79839117Y-78275000D01*
X79503919Y-78341675D01*
X79188169Y-78472463D01*
X78904002Y-78662337D01*
X78662337Y-78904002D01*
X78472463Y-79188169D01*
X78341675Y-79503919D01*
X78275000Y-79839117D01*
X76860000Y-79839117D01*
X76860000Y-69970000D01*
X87781928Y-69970000D01*
X87785000Y-71184250D01*
X87943750Y-71343000D01*
X90043000Y-71343000D01*
X90043000Y-69493750D01*
X90297000Y-69493750D01*
X90297000Y-71343000D01*
X92396250Y-71343000D01*
X92555000Y-71184250D01*
X92558072Y-69970000D01*
X92545812Y-69845518D01*
X92509502Y-69725820D01*
X92450537Y-69615506D01*
X92371185Y-69518815D01*
X92274494Y-69439463D01*
X92164180Y-69380498D01*
X92044482Y-69344188D01*
X91920000Y-69331928D01*
X90455750Y-69335000D01*
X90297000Y-69493750D01*
X90043000Y-69493750D01*
X89884250Y-69335000D01*
X88420000Y-69331928D01*
X88295518Y-69344188D01*
X88175820Y-69380498D01*
X88065506Y-69439463D01*
X87968815Y-69518815D01*
X87889463Y-69615506D01*
X87830498Y-69725820D01*
X87794188Y-69845518D01*
X87781928Y-69970000D01*
X76860000Y-69970000D01*
X76860000Y-67089872D01*
X77775000Y-67089872D01*
X77775000Y-67530128D01*
X77860890Y-67961925D01*
X78029369Y-68368669D01*
X78273962Y-68734729D01*
X78585271Y-69046038D01*
X78951331Y-69290631D01*
X79358075Y-69459110D01*
X79789872Y-69545000D01*
X80230128Y-69545000D01*
X80661925Y-69459110D01*
X81068669Y-69290631D01*
X81434729Y-69046038D01*
X81746038Y-68734729D01*
X81990631Y-68368669D01*
X82159110Y-67961925D01*
X82245000Y-67530128D01*
X82245000Y-67089872D01*
X82215189Y-66940000D01*
X100061928Y-66940000D01*
X100074188Y-67064482D01*
X100110498Y-67184180D01*
X100169463Y-67294494D01*
X100248815Y-67391185D01*
X100345506Y-67470537D01*
X100455820Y-67529502D01*
X100474127Y-67535056D01*
X100407688Y-67601495D01*
X100239701Y-67852905D01*
X100123989Y-68132257D01*
X100065000Y-68428816D01*
X100065000Y-68731184D01*
X100123989Y-69027743D01*
X100239701Y-69307095D01*
X100407688Y-69558505D01*
X100621495Y-69772312D01*
X100872905Y-69940299D01*
X101152257Y-70056011D01*
X101448816Y-70115000D01*
X101751184Y-70115000D01*
X102047743Y-70056011D01*
X102327095Y-69940299D01*
X102578505Y-69772312D01*
X102792312Y-69558505D01*
X102960299Y-69307095D01*
X103076011Y-69027743D01*
X103135000Y-68731184D01*
X103135000Y-68428816D01*
X103076011Y-68132257D01*
X102960299Y-67852905D01*
X102792312Y-67601495D01*
X102725873Y-67535056D01*
X102744180Y-67529502D01*
X102854494Y-67470537D01*
X102951185Y-67391185D01*
X103030537Y-67294494D01*
X103089502Y-67184180D01*
X103125812Y-67064482D01*
X103138072Y-66940000D01*
X103135000Y-66325750D01*
X102976250Y-66167000D01*
X101727000Y-66167000D01*
X101727000Y-66187000D01*
X101473000Y-66187000D01*
X101473000Y-66167000D01*
X100223750Y-66167000D01*
X100065000Y-66325750D01*
X100061928Y-66940000D01*
X82215189Y-66940000D01*
X82159110Y-66658075D01*
X81990631Y-66251331D01*
X81746038Y-65885271D01*
X81434729Y-65573962D01*
X81068669Y-65329369D01*
X80661925Y-65160890D01*
X80556905Y-65140000D01*
X100061928Y-65140000D01*
X100065000Y-65754250D01*
X100223750Y-65913000D01*
X101473000Y-65913000D01*
X101473000Y-64663750D01*
X101727000Y-64663750D01*
X101727000Y-65913000D01*
X102976250Y-65913000D01*
X103135000Y-65754250D01*
X103138072Y-65140000D01*
X103125812Y-65015518D01*
X103089502Y-64895820D01*
X103030537Y-64785506D01*
X102951185Y-64688815D01*
X102854494Y-64609463D01*
X102744180Y-64550498D01*
X102624482Y-64514188D01*
X102500000Y-64501928D01*
X101885750Y-64505000D01*
X101727000Y-64663750D01*
X101473000Y-64663750D01*
X101314250Y-64505000D01*
X100700000Y-64501928D01*
X100575518Y-64514188D01*
X100455820Y-64550498D01*
X100345506Y-64609463D01*
X100248815Y-64688815D01*
X100169463Y-64785506D01*
X100110498Y-64895820D01*
X100074188Y-65015518D01*
X100061928Y-65140000D01*
X80556905Y-65140000D01*
X80230128Y-65075000D01*
X79789872Y-65075000D01*
X79358075Y-65160890D01*
X78951331Y-65329369D01*
X78585271Y-65573962D01*
X78273962Y-65885271D01*
X78029369Y-66251331D01*
X77860890Y-66658075D01*
X77775000Y-67089872D01*
X76860000Y-67089872D01*
X76860000Y-64160000D01*
X177140000Y-64160000D01*
X177140001Y-139040000D01*
G37*
X177140001Y-139040000D02*
X155512931Y-139040000D01*
X155533291Y-139023291D01*
X155559446Y-138991421D01*
X158880996Y-135669872D01*
X171755000Y-135669872D01*
X171755000Y-136110128D01*
X171840890Y-136541925D01*
X172009369Y-136948669D01*
X172253962Y-137314729D01*
X172565271Y-137626038D01*
X172931331Y-137870631D01*
X173338075Y-138039110D01*
X173769872Y-138125000D01*
X174210128Y-138125000D01*
X174641925Y-138039110D01*
X175048669Y-137870631D01*
X175414729Y-137626038D01*
X175726038Y-137314729D01*
X175970631Y-136948669D01*
X176139110Y-136541925D01*
X176225000Y-136110128D01*
X176225000Y-135669872D01*
X176139110Y-135238075D01*
X175970631Y-134831331D01*
X175726038Y-134465271D01*
X175414729Y-134153962D01*
X175048669Y-133909369D01*
X174641925Y-133740890D01*
X174210128Y-133655000D01*
X173769872Y-133655000D01*
X173338075Y-133740890D01*
X172931331Y-133909369D01*
X172565271Y-134153962D01*
X172253962Y-134465271D01*
X172009369Y-134831331D01*
X171840890Y-135238075D01*
X171755000Y-135669872D01*
X158880996Y-135669872D01*
X160581433Y-133969436D01*
X160613291Y-133943291D01*
X160717636Y-133816146D01*
X160795172Y-133671087D01*
X160842918Y-133513689D01*
X160855000Y-133391019D01*
X160855000Y-133391018D01*
X160859040Y-133350000D01*
X160855000Y-133308982D01*
X160855000Y-122533285D01*
X160937205Y-122410256D01*
X161015226Y-122221898D01*
X161055000Y-122021939D01*
X161055000Y-121818061D01*
X161015226Y-121618102D01*
X160937205Y-121429744D01*
X160823937Y-121260226D01*
X160679774Y-121116063D01*
X160510256Y-121002795D01*
X160321898Y-120924774D01*
X160121939Y-120885000D01*
X159918061Y-120885000D01*
X159718102Y-120924774D01*
X159529744Y-121002795D01*
X159360226Y-121116063D01*
X159216063Y-121260226D01*
X159102795Y-121429744D01*
X159024774Y-121618102D01*
X158985000Y-121818061D01*
X158985000Y-122021939D01*
X159024774Y-122221898D01*
X159102795Y-122410256D01*
X159185001Y-122533286D01*
X159185000Y-133004131D01*
X154594133Y-137595000D01*
X122265868Y-137595000D01*
X117028807Y-132357940D01*
X117055000Y-132226260D01*
X117055000Y-131933740D01*
X116997932Y-131646842D01*
X116885990Y-131376589D01*
X116723475Y-131133368D01*
X116516632Y-130926525D01*
X116273411Y-130764010D01*
X116003158Y-130652068D01*
X115716260Y-130595000D01*
X115423740Y-130595000D01*
X115136842Y-130652068D01*
X114866589Y-130764010D01*
X114623368Y-130926525D01*
X114416525Y-131133368D01*
X114254010Y-131376589D01*
X114142068Y-131646842D01*
X114085000Y-131933740D01*
X114085000Y-132226260D01*
X114142068Y-132513158D01*
X114254010Y-132783411D01*
X114416525Y-133026632D01*
X114548380Y-133158487D01*
X114475820Y-133180498D01*
X114365506Y-133239463D01*
X114268815Y-133318815D01*
X114189463Y-133415506D01*
X114130498Y-133525820D01*
X114094188Y-133645518D01*
X114081928Y-133770000D01*
X114085000Y-134334250D01*
X114243750Y-134493000D01*
X115443000Y-134493000D01*
X115443000Y-134473000D01*
X115697000Y-134473000D01*
X115697000Y-134493000D01*
X115717000Y-134493000D01*
X115717000Y-134747000D01*
X115697000Y-134747000D01*
X115697000Y-135946250D01*
X115855750Y-136105000D01*
X116420000Y-136108072D01*
X116544482Y-136095812D01*
X116664180Y-136059502D01*
X116774494Y-136000537D01*
X116871185Y-135921185D01*
X116950537Y-135824494D01*
X117009502Y-135714180D01*
X117045812Y-135594482D01*
X117058072Y-135470000D01*
X117055000Y-134905750D01*
X116896252Y-134747002D01*
X117055000Y-134747002D01*
X117055000Y-134745867D01*
X121300559Y-138991427D01*
X121326709Y-139023291D01*
X121347069Y-139040000D01*
X76860000Y-139040000D01*
X76860000Y-135669872D01*
X77775000Y-135669872D01*
X77775000Y-136110128D01*
X77860890Y-136541925D01*
X78029369Y-136948669D01*
X78273962Y-137314729D01*
X78585271Y-137626038D01*
X78951331Y-137870631D01*
X79358075Y-138039110D01*
X79789872Y-138125000D01*
X80230128Y-138125000D01*
X80661925Y-138039110D01*
X81068669Y-137870631D01*
X81434729Y-137626038D01*
X81746038Y-137314729D01*
X81990631Y-136948669D01*
X82159110Y-136541925D01*
X82245000Y-136110128D01*
X82245000Y-135669872D01*
X82159110Y-135238075D01*
X81990631Y-134831331D01*
X81754988Y-134478665D01*
X102705000Y-134478665D01*
X102705000Y-134761335D01*
X102760147Y-135038574D01*
X102868320Y-135299727D01*
X103025363Y-135534759D01*
X103225241Y-135734637D01*
X103460273Y-135891680D01*
X103721426Y-135999853D01*
X103998665Y-136055000D01*
X104281335Y-136055000D01*
X104558574Y-135999853D01*
X104819727Y-135891680D01*
X105054759Y-135734637D01*
X105254637Y-135534759D01*
X105411680Y-135299727D01*
X105519853Y-135038574D01*
X105575000Y-134761335D01*
X105575000Y-134478665D01*
X107785000Y-134478665D01*
X107785000Y-134761335D01*
X107840147Y-135038574D01*
X107948320Y-135299727D01*
X108105363Y-135534759D01*
X108305241Y-135734637D01*
X108540273Y-135891680D01*
X108801426Y-135999853D01*
X109078665Y-136055000D01*
X109361335Y-136055000D01*
X109638574Y-135999853D01*
X109899727Y-135891680D01*
X110134759Y-135734637D01*
X110334637Y-135534759D01*
X110377907Y-135470000D01*
X114081928Y-135470000D01*
X114094188Y-135594482D01*
X114130498Y-135714180D01*
X114189463Y-135824494D01*
X114268815Y-135921185D01*
X114365506Y-136000537D01*
X114475820Y-136059502D01*
X114595518Y-136095812D01*
X114720000Y-136108072D01*
X115284250Y-136105000D01*
X115443000Y-135946250D01*
X115443000Y-134747000D01*
X114243750Y-134747000D01*
X114085000Y-134905750D01*
X114081928Y-135470000D01*
X110377907Y-135470000D01*
X110491680Y-135299727D01*
X110599853Y-135038574D01*
X110655000Y-134761335D01*
X110655000Y-134478665D01*
X110599853Y-134201426D01*
X110491680Y-133940273D01*
X110334637Y-133705241D01*
X110134759Y-133505363D01*
X109899727Y-133348320D01*
X109638574Y-133240147D01*
X109361335Y-133185000D01*
X109078665Y-133185000D01*
X108801426Y-133240147D01*
X108540273Y-133348320D01*
X108305241Y-133505363D01*
X108105363Y-133705241D01*
X107948320Y-133940273D01*
X107840147Y-134201426D01*
X107785000Y-134478665D01*
X105575000Y-134478665D01*
X105519853Y-134201426D01*
X105411680Y-133940273D01*
X105254637Y-133705241D01*
X105054759Y-133505363D01*
X104819727Y-133348320D01*
X104558574Y-133240147D01*
X104281335Y-133185000D01*
X103998665Y-133185000D01*
X103721426Y-133240147D01*
X103460273Y-133348320D01*
X103225241Y-133505363D01*
X103025363Y-133705241D01*
X102868320Y-133940273D01*
X102760147Y-134201426D01*
X102705000Y-134478665D01*
X81754988Y-134478665D01*
X81746038Y-134465271D01*
X81434729Y-134153962D01*
X81068669Y-133909369D01*
X80661925Y-133740890D01*
X80230128Y-133655000D01*
X79789872Y-133655000D01*
X79358075Y-133740890D01*
X78951331Y-133909369D01*
X78585271Y-134153962D01*
X78273962Y-134465271D01*
X78029369Y-134831331D01*
X77860890Y-135238075D01*
X77775000Y-135669872D01*
X76860000Y-135669872D01*
X76860000Y-129120000D01*
X114081928Y-129120000D01*
X114094188Y-129244482D01*
X114130498Y-129364180D01*
X114189463Y-129474494D01*
X114268815Y-129571185D01*
X114365506Y-129650537D01*
X114475820Y-129709502D01*
X114595518Y-129745812D01*
X114720000Y-129758072D01*
X115284250Y-129755000D01*
X115443000Y-129596250D01*
X115443000Y-128397000D01*
X114243750Y-128397000D01*
X114085000Y-128555750D01*
X114081928Y-129120000D01*
X76860000Y-129120000D01*
X76860000Y-127420000D01*
X114081928Y-127420000D01*
X114085000Y-127984250D01*
X114243750Y-128143000D01*
X115443000Y-128143000D01*
X115443000Y-128123000D01*
X115697000Y-128123000D01*
X115697000Y-128143000D01*
X115717000Y-128143000D01*
X115717000Y-128397000D01*
X115697000Y-128397000D01*
X115697000Y-129596250D01*
X115855750Y-129755000D01*
X116420000Y-129758072D01*
X116544482Y-129745812D01*
X116664180Y-129709502D01*
X116774494Y-129650537D01*
X116871185Y-129571185D01*
X116950537Y-129474494D01*
X117009502Y-129364180D01*
X117045812Y-129244482D01*
X117058072Y-129120000D01*
X117055000Y-128555750D01*
X116896252Y-128397002D01*
X117055000Y-128397002D01*
X117055000Y-128395867D01*
X125110563Y-136451432D01*
X125136709Y-136483291D01*
X125168568Y-136509437D01*
X125168570Y-136509439D01*
X125263854Y-136587636D01*
X125408913Y-136665172D01*
X125566311Y-136712918D01*
X125730000Y-136729040D01*
X125771018Y-136725000D01*
X153628982Y-136725000D01*
X153670000Y-136729040D01*
X153711018Y-136725000D01*
X153711019Y-136725000D01*
X153833689Y-136712918D01*
X153991087Y-136665172D01*
X154136146Y-136587636D01*
X154263291Y-136483291D01*
X154289446Y-136451421D01*
X156771427Y-133969441D01*
X156803291Y-133943291D01*
X156907636Y-133816146D01*
X156985172Y-133671087D01*
X157032918Y-133513689D01*
X157045000Y-133391019D01*
X157045000Y-133391009D01*
X157049039Y-133350001D01*
X157045000Y-133308993D01*
X157045000Y-132693285D01*
X157127205Y-132570256D01*
X157205226Y-132381898D01*
X157245000Y-132181939D01*
X157245000Y-131978061D01*
X157205226Y-131778102D01*
X157127205Y-131589744D01*
X157013937Y-131420226D01*
X156869774Y-131276063D01*
X156700256Y-131162795D01*
X156511898Y-131084774D01*
X156311939Y-131045000D01*
X156108061Y-131045000D01*
X155908102Y-131084774D01*
X155719744Y-131162795D01*
X155550226Y-131276063D01*
X155406063Y-131420226D01*
X155292795Y-131589744D01*
X155214774Y-131778102D01*
X155175000Y-131978061D01*
X155175000Y-132181939D01*
X155214774Y-132381898D01*
X155292795Y-132570256D01*
X155375000Y-132693286D01*
X155375001Y-133004131D01*
X153324133Y-135055000D01*
X126075869Y-135055000D01*
X124727759Y-133706890D01*
X135718524Y-133706890D01*
X135763175Y-133854099D01*
X135888359Y-134116920D01*
X136062412Y-134350269D01*
X136278645Y-134545178D01*
X136528748Y-134694157D01*
X136803109Y-134791481D01*
X137033000Y-134670814D01*
X137033000Y-133477000D01*
X137287000Y-133477000D01*
X137287000Y-134670814D01*
X137516891Y-134791481D01*
X137791252Y-134694157D01*
X138041355Y-134545178D01*
X138257588Y-134350269D01*
X138431641Y-134116920D01*
X138556825Y-133854099D01*
X138601476Y-133706890D01*
X149688524Y-133706890D01*
X149733175Y-133854099D01*
X149858359Y-134116920D01*
X150032412Y-134350269D01*
X150248645Y-134545178D01*
X150498748Y-134694157D01*
X150773109Y-134791481D01*
X151003000Y-134670814D01*
X151003000Y-133477000D01*
X151257000Y-133477000D01*
X151257000Y-134670814D01*
X151486891Y-134791481D01*
X151761252Y-134694157D01*
X152011355Y-134545178D01*
X152227588Y-134350269D01*
X152401641Y-134116920D01*
X152526825Y-133854099D01*
X152571476Y-133706890D01*
X152450155Y-133477000D01*
X151257000Y-133477000D01*
X151003000Y-133477000D01*
X149809845Y-133477000D01*
X149688524Y-133706890D01*
X138601476Y-133706890D01*
X138480155Y-133477000D01*
X137287000Y-133477000D01*
X137033000Y-133477000D01*
X135839845Y-133477000D01*
X135718524Y-133706890D01*
X124727759Y-133706890D01*
X117028807Y-126007940D01*
X117055000Y-125876260D01*
X117055000Y-125583740D01*
X116997932Y-125296842D01*
X116885990Y-125026589D01*
X116788043Y-124880000D01*
X135671928Y-124880000D01*
X135671928Y-126580000D01*
X135684188Y-126704482D01*
X135720498Y-126824180D01*
X135779463Y-126934494D01*
X135858815Y-127031185D01*
X135955506Y-127110537D01*
X136065820Y-127169502D01*
X136138380Y-127191513D01*
X136006525Y-127323368D01*
X135844010Y-127566589D01*
X135732068Y-127836842D01*
X135675000Y-128123740D01*
X135675000Y-128416260D01*
X135732068Y-128703158D01*
X135844010Y-128973411D01*
X136006525Y-129216632D01*
X136213368Y-129423475D01*
X136387760Y-129540000D01*
X136213368Y-129656525D01*
X136006525Y-129863368D01*
X135844010Y-130106589D01*
X135732068Y-130376842D01*
X135675000Y-130663740D01*
X135675000Y-130956260D01*
X135732068Y-131243158D01*
X135844010Y-131513411D01*
X136006525Y-131756632D01*
X136213368Y-131963475D01*
X136395534Y-132085195D01*
X136278645Y-132154822D01*
X136062412Y-132349731D01*
X135888359Y-132583080D01*
X135763175Y-132845901D01*
X135718524Y-132993110D01*
X135839845Y-133223000D01*
X137033000Y-133223000D01*
X137033000Y-133203000D01*
X137287000Y-133203000D01*
X137287000Y-133223000D01*
X138480155Y-133223000D01*
X138601476Y-132993110D01*
X138556825Y-132845901D01*
X138431641Y-132583080D01*
X138257588Y-132349731D01*
X138041355Y-132154822D01*
X137924466Y-132085195D01*
X138106632Y-131963475D01*
X138313475Y-131756632D01*
X138475990Y-131513411D01*
X138587932Y-131243158D01*
X138645000Y-130956260D01*
X138645000Y-130663740D01*
X138587932Y-130376842D01*
X138475990Y-130106589D01*
X138313475Y-129863368D01*
X138106632Y-129656525D01*
X137932240Y-129540000D01*
X138106632Y-129423475D01*
X138313475Y-129216632D01*
X138475990Y-128973411D01*
X138587932Y-128703158D01*
X138645000Y-128416260D01*
X138645000Y-128123740D01*
X138587932Y-127836842D01*
X138475990Y-127566589D01*
X138313475Y-127323368D01*
X138181620Y-127191513D01*
X138254180Y-127169502D01*
X138364494Y-127110537D01*
X138461185Y-127031185D01*
X138540537Y-126934494D01*
X138599502Y-126824180D01*
X138635812Y-126704482D01*
X138648072Y-126580000D01*
X138648072Y-124880000D01*
X138635812Y-124755518D01*
X138599502Y-124635820D01*
X138540537Y-124525506D01*
X138461185Y-124428815D01*
X138364494Y-124349463D01*
X138254180Y-124290498D01*
X138134482Y-124254188D01*
X138010000Y-124241928D01*
X136310000Y-124241928D01*
X136185518Y-124254188D01*
X136065820Y-124290498D01*
X135955506Y-124349463D01*
X135858815Y-124428815D01*
X135779463Y-124525506D01*
X135720498Y-124635820D01*
X135684188Y-124755518D01*
X135671928Y-124880000D01*
X116788043Y-124880000D01*
X116723475Y-124783368D01*
X116516632Y-124576525D01*
X116273411Y-124414010D01*
X116003158Y-124302068D01*
X115716260Y-124245000D01*
X115423740Y-124245000D01*
X115136842Y-124302068D01*
X114866589Y-124414010D01*
X114623368Y-124576525D01*
X114416525Y-124783368D01*
X114254010Y-125026589D01*
X114142068Y-125296842D01*
X114085000Y-125583740D01*
X114085000Y-125876260D01*
X114142068Y-126163158D01*
X114254010Y-126433411D01*
X114416525Y-126676632D01*
X114548380Y-126808487D01*
X114475820Y-126830498D01*
X114365506Y-126889463D01*
X114268815Y-126968815D01*
X114189463Y-127065506D01*
X114130498Y-127175820D01*
X114094188Y-127295518D01*
X114081928Y-127420000D01*
X76860000Y-127420000D01*
X76860000Y-124318665D01*
X102705000Y-124318665D01*
X102705000Y-124601335D01*
X102760147Y-124878574D01*
X102868320Y-125139727D01*
X103025363Y-125374759D01*
X103225241Y-125574637D01*
X103460273Y-125731680D01*
X103721426Y-125839853D01*
X103998665Y-125895000D01*
X104281335Y-125895000D01*
X104558574Y-125839853D01*
X104819727Y-125731680D01*
X105054759Y-125574637D01*
X105254637Y-125374759D01*
X105411680Y-125139727D01*
X105519853Y-124878574D01*
X105575000Y-124601335D01*
X105575000Y-124318665D01*
X107785000Y-124318665D01*
X107785000Y-124601335D01*
X107840147Y-124878574D01*
X107948320Y-125139727D01*
X108105363Y-125374759D01*
X108305241Y-125574637D01*
X108540273Y-125731680D01*
X108801426Y-125839853D01*
X109078665Y-125895000D01*
X109361335Y-125895000D01*
X109638574Y-125839853D01*
X109899727Y-125731680D01*
X110134759Y-125574637D01*
X110334637Y-125374759D01*
X110491680Y-125139727D01*
X110599853Y-124878574D01*
X110655000Y-124601335D01*
X110655000Y-124318665D01*
X110599853Y-124041426D01*
X110491680Y-123780273D01*
X110334637Y-123545241D01*
X110134759Y-123345363D01*
X109899727Y-123188320D01*
X109638574Y-123080147D01*
X109361335Y-123025000D01*
X109078665Y-123025000D01*
X108801426Y-123080147D01*
X108540273Y-123188320D01*
X108305241Y-123345363D01*
X108105363Y-123545241D01*
X107948320Y-123780273D01*
X107840147Y-124041426D01*
X107785000Y-124318665D01*
X105575000Y-124318665D01*
X105519853Y-124041426D01*
X105411680Y-123780273D01*
X105254637Y-123545241D01*
X105054759Y-123345363D01*
X104819727Y-123188320D01*
X104558574Y-123080147D01*
X104281335Y-123025000D01*
X103998665Y-123025000D01*
X103721426Y-123080147D01*
X103460273Y-123188320D01*
X103225241Y-123345363D01*
X103025363Y-123545241D01*
X102868320Y-123780273D01*
X102760147Y-124041426D01*
X102705000Y-124318665D01*
X76860000Y-124318665D01*
X76860000Y-119832702D01*
X81736903Y-119832702D01*
X81808486Y-120076671D01*
X82063996Y-120197571D01*
X82338184Y-120266300D01*
X82620512Y-120280217D01*
X82900130Y-120238787D01*
X83166292Y-120143603D01*
X83291514Y-120076671D01*
X83363097Y-119832702D01*
X82550000Y-119019605D01*
X81736903Y-119832702D01*
X76860000Y-119832702D01*
X76860000Y-118910512D01*
X81109783Y-118910512D01*
X81151213Y-119190130D01*
X81246397Y-119456292D01*
X81313329Y-119581514D01*
X81557298Y-119653097D01*
X82370395Y-118840000D01*
X82356253Y-118825858D01*
X82535858Y-118646253D01*
X82550000Y-118660395D01*
X82564143Y-118646253D01*
X82743748Y-118825858D01*
X82729605Y-118840000D01*
X83542702Y-119653097D01*
X83786671Y-119581514D01*
X83907571Y-119326004D01*
X83976300Y-119051816D01*
X83990217Y-118769488D01*
X83948787Y-118489870D01*
X83853603Y-118223708D01*
X83788384Y-118101691D01*
X83801185Y-118091185D01*
X83880537Y-117994494D01*
X83939502Y-117884180D01*
X83975812Y-117764482D01*
X83988072Y-117640000D01*
X83988072Y-116040000D01*
X83975812Y-115915518D01*
X83939502Y-115795820D01*
X83880537Y-115685506D01*
X83801185Y-115588815D01*
X83704494Y-115509463D01*
X83594180Y-115450498D01*
X83474482Y-115414188D01*
X83350000Y-115401928D01*
X81750000Y-115401928D01*
X81625518Y-115414188D01*
X81505820Y-115450498D01*
X81395506Y-115509463D01*
X81298815Y-115588815D01*
X81219463Y-115685506D01*
X81160498Y-115795820D01*
X81124188Y-115915518D01*
X81111928Y-116040000D01*
X81111928Y-117640000D01*
X81124188Y-117764482D01*
X81160498Y-117884180D01*
X81219463Y-117994494D01*
X81298815Y-118091185D01*
X81311758Y-118101807D01*
X81192429Y-118353996D01*
X81123700Y-118628184D01*
X81109783Y-118910512D01*
X76860000Y-118910512D01*
X76860000Y-112672702D01*
X79196903Y-112672702D01*
X79268486Y-112916671D01*
X79523996Y-113037571D01*
X79798184Y-113106300D01*
X80080512Y-113120217D01*
X80360130Y-113078787D01*
X80626292Y-112983603D01*
X80751514Y-112916671D01*
X80823097Y-112672702D01*
X85546903Y-112672702D01*
X85618486Y-112916671D01*
X85873996Y-113037571D01*
X86148184Y-113106300D01*
X86430512Y-113120217D01*
X86710130Y-113078787D01*
X86976292Y-112983603D01*
X87101514Y-112916671D01*
X87173097Y-112672702D01*
X86360000Y-111859605D01*
X85546903Y-112672702D01*
X80823097Y-112672702D01*
X80010000Y-111859605D01*
X79196903Y-112672702D01*
X76860000Y-112672702D01*
X76860000Y-111750512D01*
X78569783Y-111750512D01*
X78611213Y-112030130D01*
X78706397Y-112296292D01*
X78773329Y-112421514D01*
X79017298Y-112493097D01*
X79830395Y-111680000D01*
X80189605Y-111680000D01*
X81002702Y-112493097D01*
X81246671Y-112421514D01*
X81367571Y-112166004D01*
X81436300Y-111891816D01*
X81443265Y-111750512D01*
X84919783Y-111750512D01*
X84961213Y-112030130D01*
X85056397Y-112296292D01*
X85123329Y-112421514D01*
X85367298Y-112493097D01*
X86180395Y-111680000D01*
X86539605Y-111680000D01*
X87352702Y-112493097D01*
X87596671Y-112421514D01*
X87717571Y-112166004D01*
X87786300Y-111891816D01*
X87800217Y-111609488D01*
X87758787Y-111329870D01*
X87663603Y-111063708D01*
X87596671Y-110938486D01*
X87352702Y-110866903D01*
X86539605Y-111680000D01*
X86180395Y-111680000D01*
X85367298Y-110866903D01*
X85123329Y-110938486D01*
X85002429Y-111193996D01*
X84933700Y-111468184D01*
X84919783Y-111750512D01*
X81443265Y-111750512D01*
X81450217Y-111609488D01*
X81408787Y-111329870D01*
X81313603Y-111063708D01*
X81246671Y-110938486D01*
X81002702Y-110866903D01*
X80189605Y-111680000D01*
X79830395Y-111680000D01*
X79017298Y-110866903D01*
X78773329Y-110938486D01*
X78652429Y-111193996D01*
X78583700Y-111468184D01*
X78569783Y-111750512D01*
X76860000Y-111750512D01*
X76860000Y-110687298D01*
X79196903Y-110687298D01*
X80010000Y-111500395D01*
X80823097Y-110687298D01*
X85546903Y-110687298D01*
X86360000Y-111500395D01*
X87173097Y-110687298D01*
X87101514Y-110443329D01*
X86846004Y-110322429D01*
X86571816Y-110253700D01*
X86289488Y-110239783D01*
X86009870Y-110281213D01*
X85743708Y-110376397D01*
X85618486Y-110443329D01*
X85546903Y-110687298D01*
X80823097Y-110687298D01*
X80751514Y-110443329D01*
X80496004Y-110322429D01*
X80221816Y-110253700D01*
X79939488Y-110239783D01*
X79659870Y-110281213D01*
X79393708Y-110376397D01*
X79268486Y-110443329D01*
X79196903Y-110687298D01*
X76860000Y-110687298D01*
X76860000Y-106538665D01*
X78575000Y-106538665D01*
X78575000Y-106821335D01*
X78630147Y-107098574D01*
X78738320Y-107359727D01*
X78895363Y-107594759D01*
X79095241Y-107794637D01*
X79330273Y-107951680D01*
X79591426Y-108059853D01*
X79868665Y-108115000D01*
X80151335Y-108115000D01*
X80428574Y-108059853D01*
X80689727Y-107951680D01*
X80924759Y-107794637D01*
X81124637Y-107594759D01*
X81281680Y-107359727D01*
X81389853Y-107098574D01*
X81445000Y-106821335D01*
X81445000Y-106538665D01*
X84925000Y-106538665D01*
X84925000Y-106821335D01*
X84980147Y-107098574D01*
X85088320Y-107359727D01*
X85245363Y-107594759D01*
X85445241Y-107794637D01*
X85680273Y-107951680D01*
X85941426Y-108059853D01*
X86218665Y-108115000D01*
X86501335Y-108115000D01*
X86778574Y-108059853D01*
X87039727Y-107951680D01*
X87274759Y-107794637D01*
X87474637Y-107594759D01*
X87631680Y-107359727D01*
X87739853Y-107098574D01*
X87795000Y-106821335D01*
X87795000Y-106538665D01*
X87739853Y-106261426D01*
X87631680Y-106000273D01*
X87474637Y-105765241D01*
X87274759Y-105565363D01*
X87039727Y-105408320D01*
X86778574Y-105300147D01*
X86501335Y-105245000D01*
X86218665Y-105245000D01*
X85941426Y-105300147D01*
X85680273Y-105408320D01*
X85445241Y-105565363D01*
X85245363Y-105765241D01*
X85088320Y-106000273D01*
X84980147Y-106261426D01*
X84925000Y-106538665D01*
X81445000Y-106538665D01*
X81389853Y-106261426D01*
X81281680Y-106000273D01*
X81124637Y-105765241D01*
X80924759Y-105565363D01*
X80689727Y-105408320D01*
X80428574Y-105300147D01*
X80151335Y-105245000D01*
X79868665Y-105245000D01*
X79591426Y-105300147D01*
X79330273Y-105408320D01*
X79095241Y-105565363D01*
X78895363Y-105765241D01*
X78738320Y-106000273D01*
X78630147Y-106261426D01*
X78575000Y-106538665D01*
X76860000Y-106538665D01*
X76860000Y-100052702D01*
X85586903Y-100052702D01*
X85658486Y-100296671D01*
X85913996Y-100417571D01*
X86188184Y-100486300D01*
X86470512Y-100500217D01*
X86750130Y-100458787D01*
X87016292Y-100363603D01*
X87141514Y-100296671D01*
X87213097Y-100052702D01*
X86400000Y-99239605D01*
X85586903Y-100052702D01*
X76860000Y-100052702D01*
X76860000Y-99130512D01*
X84959783Y-99130512D01*
X85001213Y-99410130D01*
X85096397Y-99676292D01*
X85163329Y-99801514D01*
X85407298Y-99873097D01*
X86220395Y-99060000D01*
X86579605Y-99060000D01*
X87392702Y-99873097D01*
X87461928Y-99852785D01*
X87461928Y-99860000D01*
X87474188Y-99984482D01*
X87510498Y-100104180D01*
X87569463Y-100214494D01*
X87648815Y-100311185D01*
X87745506Y-100390537D01*
X87855820Y-100449502D01*
X87975518Y-100485812D01*
X88100000Y-100498072D01*
X89700000Y-100498072D01*
X89824482Y-100485812D01*
X89944180Y-100449502D01*
X90054494Y-100390537D01*
X90151185Y-100311185D01*
X90230537Y-100214494D01*
X90289502Y-100104180D01*
X90325812Y-99984482D01*
X90338072Y-99860000D01*
X90338072Y-98260000D01*
X90325812Y-98135518D01*
X90289502Y-98015820D01*
X90230537Y-97905506D01*
X90151185Y-97808815D01*
X90054494Y-97729463D01*
X89944180Y-97670498D01*
X89824482Y-97634188D01*
X89700000Y-97621928D01*
X88100000Y-97621928D01*
X87975518Y-97634188D01*
X87855820Y-97670498D01*
X87745506Y-97729463D01*
X87648815Y-97808815D01*
X87569463Y-97905506D01*
X87510498Y-98015820D01*
X87474188Y-98135518D01*
X87461928Y-98260000D01*
X87461928Y-98267215D01*
X87392702Y-98246903D01*
X86579605Y-99060000D01*
X86220395Y-99060000D01*
X85407298Y-98246903D01*
X85163329Y-98318486D01*
X85042429Y-98573996D01*
X84973700Y-98848184D01*
X84959783Y-99130512D01*
X76860000Y-99130512D01*
X76860000Y-98067298D01*
X85586903Y-98067298D01*
X86400000Y-98880395D01*
X87213097Y-98067298D01*
X87141514Y-97823329D01*
X86886004Y-97702429D01*
X86611816Y-97633700D01*
X86329488Y-97619783D01*
X86049870Y-97661213D01*
X85783708Y-97756397D01*
X85658486Y-97823329D01*
X85586903Y-98067298D01*
X76860000Y-98067298D01*
X76860000Y-89070000D01*
X78271928Y-89070000D01*
X78271928Y-91270000D01*
X78284188Y-91394482D01*
X78320498Y-91514180D01*
X78379463Y-91624494D01*
X78458815Y-91721185D01*
X78555506Y-91800537D01*
X78665820Y-91859502D01*
X78785518Y-91895812D01*
X78910000Y-91908072D01*
X81110000Y-91908072D01*
X81234482Y-91895812D01*
X81354180Y-91859502D01*
X81464494Y-91800537D01*
X81561185Y-91721185D01*
X81640537Y-91624494D01*
X81699502Y-91514180D01*
X81735812Y-91394482D01*
X81748072Y-91270000D01*
X81748072Y-89070000D01*
X81735812Y-88945518D01*
X81699502Y-88825820D01*
X81640537Y-88715506D01*
X81561185Y-88618815D01*
X81464494Y-88539463D01*
X81354180Y-88480498D01*
X81234482Y-88444188D01*
X81110000Y-88431928D01*
X78910000Y-88431928D01*
X78785518Y-88444188D01*
X78665820Y-88480498D01*
X78555506Y-88539463D01*
X78458815Y-88618815D01*
X78379463Y-88715506D01*
X78320498Y-88825820D01*
X78284188Y-88945518D01*
X78271928Y-89070000D01*
X76860000Y-89070000D01*
X76860000Y-86360000D01*
X90299509Y-86360000D01*
X90321423Y-86582498D01*
X90386324Y-86796446D01*
X90491717Y-86993622D01*
X90598012Y-87123143D01*
X94676855Y-91201987D01*
X94806376Y-91308283D01*
X95003552Y-91413675D01*
X95217500Y-91478576D01*
X95439999Y-91500490D01*
X95662498Y-91478576D01*
X95876445Y-91413675D01*
X96073621Y-91308283D01*
X96246448Y-91166448D01*
X96388283Y-90993621D01*
X96493675Y-90796445D01*
X96558576Y-90582498D01*
X96580490Y-90359999D01*
X96558576Y-90137500D01*
X96493675Y-89923552D01*
X96388283Y-89726376D01*
X96281987Y-89596855D01*
X92203143Y-85518012D01*
X92073622Y-85411717D01*
X91876446Y-85306324D01*
X91662498Y-85241423D01*
X91440000Y-85219509D01*
X91217502Y-85241423D01*
X91003554Y-85306324D01*
X90806378Y-85411717D01*
X90633552Y-85553552D01*
X90491717Y-85726378D01*
X90386324Y-85923554D01*
X90321423Y-86137502D01*
X90299509Y-86360000D01*
X76860000Y-86360000D01*
X76860000Y-79839117D01*
X78275000Y-79839117D01*
X78275000Y-80180883D01*
X78341675Y-80516081D01*
X78472463Y-80831831D01*
X78662337Y-81115998D01*
X78904002Y-81357663D01*
X79188169Y-81547537D01*
X79503919Y-81678325D01*
X79839117Y-81745000D01*
X80180883Y-81745000D01*
X80516081Y-81678325D01*
X80831831Y-81547537D01*
X81115998Y-81357663D01*
X81357663Y-81115998D01*
X81547537Y-80831831D01*
X81678325Y-80516081D01*
X81745000Y-80180883D01*
X81745000Y-79880131D01*
X83020132Y-78605000D01*
X87781928Y-78605000D01*
X87781928Y-79220000D01*
X87794188Y-79344482D01*
X87830498Y-79464180D01*
X87889463Y-79574494D01*
X87968815Y-79671185D01*
X88065506Y-79750537D01*
X88175820Y-79809502D01*
X88295518Y-79845812D01*
X88420000Y-79858072D01*
X90952941Y-79858072D01*
X96655000Y-85560132D01*
X96655001Y-112974238D01*
X96649509Y-113030000D01*
X96671423Y-113252498D01*
X96736324Y-113466446D01*
X96752199Y-113496146D01*
X96841717Y-113663623D01*
X96983552Y-113836449D01*
X97026860Y-113871991D01*
X102969868Y-119815000D01*
X99405868Y-119815000D01*
X93734093Y-114143226D01*
X93705226Y-113998102D01*
X93627205Y-113809744D01*
X93513937Y-113640226D01*
X93369774Y-113496063D01*
X93200256Y-113382795D01*
X93011898Y-113304774D01*
X92811939Y-113265000D01*
X92608061Y-113265000D01*
X92408102Y-113304774D01*
X92219744Y-113382795D01*
X92050226Y-113496063D01*
X91906063Y-113640226D01*
X91792795Y-113809744D01*
X91714774Y-113998102D01*
X91675000Y-114198061D01*
X91675000Y-114401939D01*
X91714774Y-114601898D01*
X91792795Y-114790256D01*
X91906063Y-114959774D01*
X92050226Y-115103937D01*
X92219744Y-115217205D01*
X92408102Y-115295226D01*
X92553226Y-115324093D01*
X98440559Y-121211427D01*
X98466709Y-121243291D01*
X98593854Y-121347636D01*
X98738913Y-121425172D01*
X98896311Y-121472918D01*
X99059999Y-121489040D01*
X99101018Y-121485000D01*
X136814133Y-121485000D01*
X146700563Y-131371432D01*
X146726709Y-131403291D01*
X146758568Y-131429437D01*
X146758570Y-131429439D01*
X146853854Y-131507636D01*
X146998913Y-131585172D01*
X147156311Y-131632918D01*
X147320000Y-131649040D01*
X147361018Y-131645000D01*
X149901935Y-131645000D01*
X149976525Y-131756632D01*
X150183368Y-131963475D01*
X150365534Y-132085195D01*
X150248645Y-132154822D01*
X150032412Y-132349731D01*
X149858359Y-132583080D01*
X149733175Y-132845901D01*
X149688524Y-132993110D01*
X149809845Y-133223000D01*
X151003000Y-133223000D01*
X151003000Y-133203000D01*
X151257000Y-133203000D01*
X151257000Y-133223000D01*
X152450155Y-133223000D01*
X152571476Y-132993110D01*
X152526825Y-132845901D01*
X152401641Y-132583080D01*
X152227588Y-132349731D01*
X152011355Y-132154822D01*
X151894466Y-132085195D01*
X152076632Y-131963475D01*
X152283475Y-131756632D01*
X152445990Y-131513411D01*
X152557932Y-131243158D01*
X152615000Y-130956260D01*
X152615000Y-130663740D01*
X152557932Y-130376842D01*
X152445990Y-130106589D01*
X152283475Y-129863368D01*
X152076632Y-129656525D01*
X151902240Y-129540000D01*
X152076632Y-129423475D01*
X152283475Y-129216632D01*
X152445990Y-128973411D01*
X152557932Y-128703158D01*
X152615000Y-128416260D01*
X152615000Y-128123740D01*
X152557932Y-127836842D01*
X152445990Y-127566589D01*
X152283475Y-127323368D01*
X152151620Y-127191513D01*
X152224180Y-127169502D01*
X152334494Y-127110537D01*
X152431185Y-127031185D01*
X152510537Y-126934494D01*
X152569502Y-126824180D01*
X152605812Y-126704482D01*
X152618072Y-126580000D01*
X152618072Y-124880000D01*
X152605812Y-124755518D01*
X152569502Y-124635820D01*
X152510537Y-124525506D01*
X152431185Y-124428815D01*
X152334494Y-124349463D01*
X152224180Y-124290498D01*
X152104482Y-124254188D01*
X151980000Y-124241928D01*
X150280000Y-124241928D01*
X150155518Y-124254188D01*
X150035820Y-124290498D01*
X149925506Y-124349463D01*
X149828815Y-124428815D01*
X149749463Y-124525506D01*
X149690498Y-124635820D01*
X149654188Y-124755518D01*
X149641928Y-124880000D01*
X149641928Y-126580000D01*
X149654188Y-126704482D01*
X149690498Y-126824180D01*
X149749463Y-126934494D01*
X149828815Y-127031185D01*
X149925506Y-127110537D01*
X150035820Y-127169502D01*
X150108380Y-127191513D01*
X149976525Y-127323368D01*
X149814010Y-127566589D01*
X149702068Y-127836842D01*
X149645000Y-128123740D01*
X149645000Y-128416260D01*
X149702068Y-128703158D01*
X149814010Y-128973411D01*
X149976525Y-129216632D01*
X150183368Y-129423475D01*
X150357760Y-129540000D01*
X150183368Y-129656525D01*
X149976525Y-129863368D01*
X149901935Y-129975000D01*
X147665869Y-129975000D01*
X138205867Y-120515000D01*
X167584249Y-120515000D01*
X167640000Y-120520491D01*
X167695751Y-120515000D01*
X167695752Y-120515000D01*
X167862499Y-120498577D01*
X168076447Y-120433676D01*
X168273623Y-120328284D01*
X168446449Y-120186449D01*
X168481996Y-120143135D01*
X172213146Y-116411987D01*
X172256449Y-116376449D01*
X172336777Y-116278570D01*
X172398284Y-116203623D01*
X172503676Y-116006447D01*
X172568577Y-115792499D01*
X172590491Y-115570000D01*
X172585000Y-115514248D01*
X172585000Y-108438521D01*
X172674010Y-108653411D01*
X172836525Y-108896632D01*
X173043368Y-109103475D01*
X173286589Y-109265990D01*
X173556842Y-109377932D01*
X173843740Y-109435000D01*
X174136260Y-109435000D01*
X174423158Y-109377932D01*
X174693411Y-109265990D01*
X174936632Y-109103475D01*
X175143475Y-108896632D01*
X175305990Y-108653411D01*
X175417932Y-108383158D01*
X175475000Y-108096260D01*
X175475000Y-107803740D01*
X175417932Y-107516842D01*
X175305990Y-107246589D01*
X175143475Y-107003368D01*
X174936632Y-106796525D01*
X174762240Y-106680000D01*
X174936632Y-106563475D01*
X175143475Y-106356632D01*
X175305990Y-106113411D01*
X175417932Y-105843158D01*
X175475000Y-105556260D01*
X175475000Y-105263740D01*
X175417932Y-104976842D01*
X175305990Y-104706589D01*
X175143475Y-104463368D01*
X174936632Y-104256525D01*
X174762240Y-104140000D01*
X174936632Y-104023475D01*
X175143475Y-103816632D01*
X175305990Y-103573411D01*
X175417932Y-103303158D01*
X175475000Y-103016260D01*
X175475000Y-102723740D01*
X175417932Y-102436842D01*
X175305990Y-102166589D01*
X175143475Y-101923368D01*
X175011620Y-101791513D01*
X175084180Y-101769502D01*
X175194494Y-101710537D01*
X175291185Y-101631185D01*
X175370537Y-101534494D01*
X175429502Y-101424180D01*
X175465812Y-101304482D01*
X175478072Y-101180000D01*
X175478072Y-99480000D01*
X175465812Y-99355518D01*
X175429502Y-99235820D01*
X175370537Y-99125506D01*
X175291185Y-99028815D01*
X175194494Y-98949463D01*
X175084180Y-98890498D01*
X174964482Y-98854188D01*
X174840000Y-98841928D01*
X173140000Y-98841928D01*
X173015518Y-98854188D01*
X172895820Y-98890498D01*
X172785506Y-98949463D01*
X172688815Y-99028815D01*
X172609463Y-99125506D01*
X172585000Y-99171272D01*
X172585000Y-92780957D01*
X172604494Y-92770537D01*
X172701185Y-92691185D01*
X172780537Y-92594494D01*
X172790957Y-92575000D01*
X173934249Y-92575000D01*
X173990000Y-92580491D01*
X174045751Y-92575000D01*
X174045752Y-92575000D01*
X174212499Y-92558577D01*
X174426447Y-92493676D01*
X174623623Y-92388284D01*
X174796449Y-92246449D01*
X174831996Y-92203135D01*
X176023140Y-91011992D01*
X176066449Y-90976449D01*
X176208284Y-90803623D01*
X176313676Y-90606447D01*
X176378577Y-90392499D01*
X176395000Y-90225752D01*
X176395000Y-90225745D01*
X176400490Y-90170001D01*
X176395000Y-90114257D01*
X176395000Y-87685751D01*
X176400491Y-87630000D01*
X176378577Y-87407501D01*
X176313676Y-87193553D01*
X176208284Y-86996377D01*
X176146776Y-86921430D01*
X176066449Y-86823551D01*
X176023141Y-86788009D01*
X171315000Y-82079869D01*
X171315000Y-74985751D01*
X171320491Y-74929999D01*
X171298577Y-74707500D01*
X171276427Y-74634482D01*
X171233676Y-74493553D01*
X171128284Y-74296377D01*
X170986449Y-74123551D01*
X170943141Y-74088009D01*
X169665132Y-72810000D01*
X172501928Y-72810000D01*
X172501928Y-74510000D01*
X172514188Y-74634482D01*
X172550498Y-74754180D01*
X172609463Y-74864494D01*
X172688815Y-74961185D01*
X172785506Y-75040537D01*
X172895820Y-75099502D01*
X172968380Y-75121513D01*
X172836525Y-75253368D01*
X172674010Y-75496589D01*
X172562068Y-75766842D01*
X172505000Y-76053740D01*
X172505000Y-76346260D01*
X172562068Y-76633158D01*
X172674010Y-76903411D01*
X172836525Y-77146632D01*
X173043368Y-77353475D01*
X173217760Y-77470000D01*
X173043368Y-77586525D01*
X172836525Y-77793368D01*
X172674010Y-78036589D01*
X172562068Y-78306842D01*
X172505000Y-78593740D01*
X172505000Y-78886260D01*
X172562068Y-79173158D01*
X172674010Y-79443411D01*
X172836525Y-79686632D01*
X173043368Y-79893475D01*
X173217760Y-80010000D01*
X173043368Y-80126525D01*
X172836525Y-80333368D01*
X172674010Y-80576589D01*
X172562068Y-80846842D01*
X172505000Y-81133740D01*
X172505000Y-81426260D01*
X172562068Y-81713158D01*
X172674010Y-81983411D01*
X172836525Y-82226632D01*
X173043368Y-82433475D01*
X173286589Y-82595990D01*
X173556842Y-82707932D01*
X173843740Y-82765000D01*
X174136260Y-82765000D01*
X174423158Y-82707932D01*
X174693411Y-82595990D01*
X174936632Y-82433475D01*
X175143475Y-82226632D01*
X175305990Y-81983411D01*
X175417932Y-81713158D01*
X175475000Y-81426260D01*
X175475000Y-81133740D01*
X175417932Y-80846842D01*
X175305990Y-80576589D01*
X175143475Y-80333368D01*
X174936632Y-80126525D01*
X174762240Y-80010000D01*
X174936632Y-79893475D01*
X175143475Y-79686632D01*
X175305990Y-79443411D01*
X175417932Y-79173158D01*
X175475000Y-78886260D01*
X175475000Y-78593740D01*
X175417932Y-78306842D01*
X175305990Y-78036589D01*
X175143475Y-77793368D01*
X174936632Y-77586525D01*
X174762240Y-77470000D01*
X174936632Y-77353475D01*
X175143475Y-77146632D01*
X175305990Y-76903411D01*
X175417932Y-76633158D01*
X175475000Y-76346260D01*
X175475000Y-76053740D01*
X175417932Y-75766842D01*
X175305990Y-75496589D01*
X175143475Y-75253368D01*
X175011620Y-75121513D01*
X175084180Y-75099502D01*
X175194494Y-75040537D01*
X175291185Y-74961185D01*
X175370537Y-74864494D01*
X175429502Y-74754180D01*
X175465812Y-74634482D01*
X175478072Y-74510000D01*
X175478072Y-72810000D01*
X175465812Y-72685518D01*
X175429502Y-72565820D01*
X175370537Y-72455506D01*
X175291185Y-72358815D01*
X175194494Y-72279463D01*
X175084180Y-72220498D01*
X174964482Y-72184188D01*
X174840000Y-72171928D01*
X173140000Y-72171928D01*
X173015518Y-72184188D01*
X172895820Y-72220498D01*
X172785506Y-72279463D01*
X172688815Y-72358815D01*
X172609463Y-72455506D01*
X172550498Y-72565820D01*
X172514188Y-72685518D01*
X172501928Y-72810000D01*
X169665132Y-72810000D01*
X165318072Y-68462941D01*
X165318072Y-67730000D01*
X165305812Y-67605518D01*
X165269502Y-67485820D01*
X165210537Y-67375506D01*
X165131185Y-67278815D01*
X165034494Y-67199463D01*
X164924180Y-67140498D01*
X164804482Y-67104188D01*
X164680000Y-67091928D01*
X162980000Y-67091928D01*
X162855518Y-67104188D01*
X162735820Y-67140498D01*
X162625506Y-67199463D01*
X162528815Y-67278815D01*
X162449463Y-67375506D01*
X162390498Y-67485820D01*
X162354188Y-67605518D01*
X162341928Y-67730000D01*
X162341928Y-69430000D01*
X162354188Y-69554482D01*
X162390498Y-69674180D01*
X162449463Y-69784494D01*
X162528815Y-69881185D01*
X162625506Y-69960537D01*
X162735820Y-70019502D01*
X162816466Y-70043966D01*
X162732412Y-70119731D01*
X162558359Y-70353080D01*
X162433175Y-70615901D01*
X162388524Y-70763110D01*
X162509845Y-70993000D01*
X163703000Y-70993000D01*
X163703000Y-70973000D01*
X163957000Y-70973000D01*
X163957000Y-70993000D01*
X163977000Y-70993000D01*
X163977000Y-71247000D01*
X163957000Y-71247000D01*
X163957000Y-71267000D01*
X163703000Y-71267000D01*
X163703000Y-71247000D01*
X162509845Y-71247000D01*
X162388524Y-71476890D01*
X162433175Y-71624099D01*
X162558359Y-71886920D01*
X162732412Y-72120269D01*
X162948645Y-72315178D01*
X163065534Y-72384805D01*
X162883368Y-72506525D01*
X162676525Y-72713368D01*
X162514010Y-72956589D01*
X162402068Y-73226842D01*
X162345000Y-73513740D01*
X162345000Y-73806260D01*
X162402068Y-74093158D01*
X162514010Y-74363411D01*
X162676525Y-74606632D01*
X162883368Y-74813475D01*
X163057760Y-74930000D01*
X162883368Y-75046525D01*
X162676525Y-75253368D01*
X162514010Y-75496589D01*
X162402068Y-75766842D01*
X162345000Y-76053740D01*
X162345000Y-76346260D01*
X162402068Y-76633158D01*
X162514010Y-76903411D01*
X162676525Y-77146632D01*
X162883368Y-77353475D01*
X163057760Y-77470000D01*
X162883368Y-77586525D01*
X162676525Y-77793368D01*
X162514010Y-78036589D01*
X162402068Y-78306842D01*
X162345000Y-78593740D01*
X162345000Y-78886260D01*
X162402068Y-79173158D01*
X162514010Y-79443411D01*
X162676525Y-79686632D01*
X162883368Y-79893475D01*
X163057760Y-80010000D01*
X162883368Y-80126525D01*
X162676525Y-80333368D01*
X162514010Y-80576589D01*
X162402068Y-80846842D01*
X162345000Y-81133740D01*
X162345000Y-81154131D01*
X155775000Y-74584133D01*
X155775000Y-68621007D01*
X155779039Y-68579999D01*
X155775000Y-68538991D01*
X155775000Y-68538981D01*
X155762918Y-68416311D01*
X155715172Y-68258913D01*
X155637636Y-68113854D01*
X155533291Y-67986709D01*
X155501427Y-67960559D01*
X154630740Y-67089872D01*
X171755000Y-67089872D01*
X171755000Y-67530128D01*
X171840890Y-67961925D01*
X172009369Y-68368669D01*
X172253962Y-68734729D01*
X172565271Y-69046038D01*
X172931331Y-69290631D01*
X173338075Y-69459110D01*
X173769872Y-69545000D01*
X174210128Y-69545000D01*
X174641925Y-69459110D01*
X175048669Y-69290631D01*
X175414729Y-69046038D01*
X175726038Y-68734729D01*
X175970631Y-68368669D01*
X176139110Y-67961925D01*
X176225000Y-67530128D01*
X176225000Y-67089872D01*
X176139110Y-66658075D01*
X175970631Y-66251331D01*
X175726038Y-65885271D01*
X175414729Y-65573962D01*
X175048669Y-65329369D01*
X174641925Y-65160890D01*
X174210128Y-65075000D01*
X173769872Y-65075000D01*
X173338075Y-65160890D01*
X172931331Y-65329369D01*
X172565271Y-65573962D01*
X172253962Y-65885271D01*
X172009369Y-66251331D01*
X171840890Y-66658075D01*
X171755000Y-67089872D01*
X154630740Y-67089872D01*
X153019446Y-65478579D01*
X152993291Y-65446709D01*
X152866146Y-65342364D01*
X152721087Y-65264828D01*
X152563689Y-65217082D01*
X152441019Y-65205000D01*
X152441018Y-65205000D01*
X152400000Y-65200960D01*
X152358982Y-65205000D01*
X145401020Y-65205000D01*
X145360001Y-65200960D01*
X145318983Y-65205000D01*
X145196313Y-65217082D01*
X145038915Y-65264828D01*
X144893856Y-65342364D01*
X144766711Y-65446709D01*
X144740561Y-65478573D01*
X138492555Y-71726580D01*
X138475990Y-71686589D01*
X138313475Y-71443368D01*
X138106632Y-71236525D01*
X137924466Y-71114805D01*
X138041355Y-71045178D01*
X138257588Y-70850269D01*
X138431641Y-70616920D01*
X138556825Y-70354099D01*
X138601476Y-70206890D01*
X138480155Y-69977000D01*
X137287000Y-69977000D01*
X137287000Y-69997000D01*
X137033000Y-69997000D01*
X137033000Y-69977000D01*
X135839845Y-69977000D01*
X135718524Y-70206890D01*
X135763175Y-70354099D01*
X135888359Y-70616920D01*
X136062412Y-70850269D01*
X136278645Y-71045178D01*
X136395534Y-71114805D01*
X136213368Y-71236525D01*
X136006525Y-71443368D01*
X135844010Y-71686589D01*
X135732068Y-71956842D01*
X135675000Y-72243740D01*
X135675000Y-72536260D01*
X135732068Y-72823158D01*
X135741115Y-72844999D01*
X115591019Y-72844999D01*
X115550001Y-72840959D01*
X115508982Y-72844999D01*
X115386312Y-72857081D01*
X115228914Y-72904827D01*
X115083855Y-72982363D01*
X114956710Y-73086708D01*
X114930564Y-73118567D01*
X113245000Y-74804132D01*
X113245000Y-74783740D01*
X113187932Y-74496842D01*
X113075990Y-74226589D01*
X112913475Y-73983368D01*
X112706632Y-73776525D01*
X112532240Y-73660000D01*
X112706632Y-73543475D01*
X112913475Y-73336632D01*
X113075990Y-73093411D01*
X113187932Y-72823158D01*
X113245000Y-72536260D01*
X113245000Y-72243740D01*
X113187932Y-71956842D01*
X113075990Y-71686589D01*
X112913475Y-71443368D01*
X112706632Y-71236525D01*
X112532240Y-71120000D01*
X112706632Y-71003475D01*
X112913475Y-70796632D01*
X113075990Y-70553411D01*
X113187932Y-70283158D01*
X113245000Y-69996260D01*
X113245000Y-69703740D01*
X113187932Y-69416842D01*
X113075990Y-69146589D01*
X112913475Y-68903368D01*
X112706632Y-68696525D01*
X112532240Y-68580000D01*
X112706632Y-68463475D01*
X112913475Y-68256632D01*
X113075990Y-68013411D01*
X113187932Y-67743158D01*
X113245000Y-67456260D01*
X113245000Y-67163740D01*
X135675000Y-67163740D01*
X135675000Y-67456260D01*
X135732068Y-67743158D01*
X135844010Y-68013411D01*
X136006525Y-68256632D01*
X136213368Y-68463475D01*
X136395534Y-68585195D01*
X136278645Y-68654822D01*
X136062412Y-68849731D01*
X135888359Y-69083080D01*
X135763175Y-69345901D01*
X135718524Y-69493110D01*
X135839845Y-69723000D01*
X137033000Y-69723000D01*
X137033000Y-69703000D01*
X137287000Y-69703000D01*
X137287000Y-69723000D01*
X138480155Y-69723000D01*
X138601476Y-69493110D01*
X138556825Y-69345901D01*
X138431641Y-69083080D01*
X138257588Y-68849731D01*
X138041355Y-68654822D01*
X137924466Y-68585195D01*
X138106632Y-68463475D01*
X138313475Y-68256632D01*
X138475990Y-68013411D01*
X138587932Y-67743158D01*
X138645000Y-67456260D01*
X138645000Y-67163740D01*
X138587932Y-66876842D01*
X138475990Y-66606589D01*
X138313475Y-66363368D01*
X138106632Y-66156525D01*
X137863411Y-65994010D01*
X137593158Y-65882068D01*
X137306260Y-65825000D01*
X137013740Y-65825000D01*
X136726842Y-65882068D01*
X136456589Y-65994010D01*
X136213368Y-66156525D01*
X136006525Y-66363368D01*
X135844010Y-66606589D01*
X135732068Y-66876842D01*
X135675000Y-67163740D01*
X113245000Y-67163740D01*
X113187932Y-66876842D01*
X113075990Y-66606589D01*
X112913475Y-66363368D01*
X112706632Y-66156525D01*
X112463411Y-65994010D01*
X112193158Y-65882068D01*
X111906260Y-65825000D01*
X111613740Y-65825000D01*
X111326842Y-65882068D01*
X111056589Y-65994010D01*
X110813368Y-66156525D01*
X110606525Y-66363368D01*
X110444010Y-66606589D01*
X110332068Y-66876842D01*
X110275000Y-67163740D01*
X110275000Y-67456260D01*
X110332068Y-67743158D01*
X110444010Y-68013411D01*
X110606525Y-68256632D01*
X110813368Y-68463475D01*
X110987760Y-68580000D01*
X110813368Y-68696525D01*
X110606525Y-68903368D01*
X110444010Y-69146589D01*
X110332068Y-69416842D01*
X110275000Y-69703740D01*
X110275000Y-69996260D01*
X110332068Y-70283158D01*
X110444010Y-70553411D01*
X110606525Y-70796632D01*
X110813368Y-71003475D01*
X110987760Y-71120000D01*
X110813368Y-71236525D01*
X110606525Y-71443368D01*
X110444010Y-71686589D01*
X110332068Y-71956842D01*
X110275000Y-72243740D01*
X110275000Y-72536260D01*
X110332068Y-72823158D01*
X110444010Y-73093411D01*
X110606525Y-73336632D01*
X110813368Y-73543475D01*
X110987760Y-73660000D01*
X110813368Y-73776525D01*
X110606525Y-73983368D01*
X110444010Y-74226589D01*
X110332068Y-74496842D01*
X110275000Y-74783740D01*
X110275000Y-75076260D01*
X110332068Y-75363158D01*
X110444010Y-75633411D01*
X110606525Y-75876632D01*
X110813368Y-76083475D01*
X110987760Y-76200000D01*
X110813368Y-76316525D01*
X110606525Y-76523368D01*
X110444010Y-76766589D01*
X110332068Y-77036842D01*
X110275000Y-77323740D01*
X110275000Y-77616260D01*
X110332068Y-77903158D01*
X110444010Y-78173411D01*
X110606525Y-78416632D01*
X110813368Y-78623475D01*
X110987760Y-78740000D01*
X110813368Y-78856525D01*
X110606525Y-79063368D01*
X110444010Y-79306589D01*
X110332068Y-79576842D01*
X110275000Y-79863740D01*
X110275000Y-80156260D01*
X110332068Y-80443158D01*
X110444010Y-80713411D01*
X110606525Y-80956632D01*
X110813368Y-81163475D01*
X110987760Y-81280000D01*
X110813368Y-81396525D01*
X110606525Y-81603368D01*
X110444010Y-81846589D01*
X110332068Y-82116842D01*
X110275000Y-82403740D01*
X110275000Y-82696260D01*
X110332068Y-82983158D01*
X110444010Y-83253411D01*
X110606525Y-83496632D01*
X110813368Y-83703475D01*
X110987760Y-83820000D01*
X110813368Y-83936525D01*
X110606525Y-84143368D01*
X110444010Y-84386589D01*
X110332068Y-84656842D01*
X110275000Y-84943740D01*
X110275000Y-85236260D01*
X110332068Y-85523158D01*
X110444010Y-85793411D01*
X110606525Y-86036632D01*
X110813368Y-86243475D01*
X110987760Y-86360000D01*
X110813368Y-86476525D01*
X110606525Y-86683368D01*
X110444010Y-86926589D01*
X110332068Y-87196842D01*
X110275000Y-87483740D01*
X110275000Y-87776260D01*
X110332068Y-88063158D01*
X110444010Y-88333411D01*
X110606525Y-88576632D01*
X110813368Y-88783475D01*
X110987760Y-88900000D01*
X110813368Y-89016525D01*
X110606525Y-89223368D01*
X110444010Y-89466589D01*
X110332068Y-89736842D01*
X110275000Y-90023740D01*
X110275000Y-90316260D01*
X110301193Y-90447939D01*
X106118574Y-94630559D01*
X106086710Y-94656709D01*
X106060562Y-94688571D01*
X105982364Y-94783855D01*
X105904828Y-94928914D01*
X105857082Y-95086312D01*
X105840960Y-95250000D01*
X105845001Y-95291029D01*
X105845000Y-106334132D01*
X103578574Y-108600559D01*
X103546710Y-108626709D01*
X103520562Y-108658571D01*
X103442364Y-108753855D01*
X103364828Y-108898914D01*
X103317082Y-109056312D01*
X103300960Y-109220000D01*
X103305001Y-109261028D01*
X103305000Y-114258981D01*
X103300960Y-114300000D01*
X103305000Y-114341018D01*
X103317082Y-114463688D01*
X103364828Y-114621086D01*
X103442364Y-114766145D01*
X103546709Y-114893291D01*
X103578579Y-114919446D01*
X106060559Y-117401427D01*
X106086709Y-117433291D01*
X106213854Y-117537636D01*
X106358913Y-117615172D01*
X106516311Y-117662918D01*
X106638981Y-117675000D01*
X106638991Y-117675000D01*
X106679999Y-117679039D01*
X106721007Y-117675000D01*
X157438982Y-117675000D01*
X157480000Y-117679040D01*
X157521018Y-117675000D01*
X157521019Y-117675000D01*
X157643689Y-117662918D01*
X157801087Y-117615172D01*
X157946146Y-117537636D01*
X158073291Y-117433291D01*
X158099446Y-117401421D01*
X162345000Y-113155868D01*
X162345000Y-113157002D01*
X162509844Y-113157002D01*
X162388524Y-113386890D01*
X162433175Y-113534099D01*
X162558359Y-113796920D01*
X162732412Y-114030269D01*
X162948645Y-114225178D01*
X163198748Y-114374157D01*
X163473109Y-114471481D01*
X163703000Y-114350814D01*
X163703000Y-113157000D01*
X163957000Y-113157000D01*
X163957000Y-114350814D01*
X164186891Y-114471481D01*
X164461252Y-114374157D01*
X164711355Y-114225178D01*
X164927588Y-114030269D01*
X165101641Y-113796920D01*
X165226825Y-113534099D01*
X165271476Y-113386890D01*
X165150155Y-113157000D01*
X163957000Y-113157000D01*
X163703000Y-113157000D01*
X163683000Y-113157000D01*
X163683000Y-112903000D01*
X163703000Y-112903000D01*
X163703000Y-112883000D01*
X163957000Y-112883000D01*
X163957000Y-112903000D01*
X165150155Y-112903000D01*
X165271476Y-112673110D01*
X165226825Y-112525901D01*
X165101641Y-112263080D01*
X164927588Y-112029731D01*
X164711355Y-111834822D01*
X164594466Y-111765195D01*
X164776632Y-111643475D01*
X164983475Y-111436632D01*
X165145990Y-111193411D01*
X165257932Y-110923158D01*
X165315000Y-110636260D01*
X165315000Y-110343740D01*
X165257932Y-110056842D01*
X165145990Y-109786589D01*
X164983475Y-109543368D01*
X164776632Y-109336525D01*
X164602240Y-109220000D01*
X164776632Y-109103475D01*
X164983475Y-108896632D01*
X165145990Y-108653411D01*
X165257932Y-108383158D01*
X165315000Y-108096260D01*
X165315000Y-107803740D01*
X165257932Y-107516842D01*
X165145990Y-107246589D01*
X164983475Y-107003368D01*
X164776632Y-106796525D01*
X164602240Y-106680000D01*
X164776632Y-106563475D01*
X164983475Y-106356632D01*
X165145990Y-106113411D01*
X165257932Y-105843158D01*
X165315000Y-105556260D01*
X165315000Y-105263740D01*
X165257932Y-104976842D01*
X165145990Y-104706589D01*
X164983475Y-104463368D01*
X164776632Y-104256525D01*
X164602240Y-104140000D01*
X164776632Y-104023475D01*
X164983475Y-103816632D01*
X165145990Y-103573411D01*
X165257932Y-103303158D01*
X165315000Y-103016260D01*
X165315000Y-102723740D01*
X165257932Y-102436842D01*
X165145990Y-102166589D01*
X164983475Y-101923368D01*
X164776632Y-101716525D01*
X164602240Y-101600000D01*
X164776632Y-101483475D01*
X164983475Y-101276632D01*
X165145990Y-101033411D01*
X165257932Y-100763158D01*
X165315000Y-100476260D01*
X165315000Y-100183740D01*
X165257932Y-99896842D01*
X165145990Y-99626589D01*
X164983475Y-99383368D01*
X164776632Y-99176525D01*
X164594466Y-99054805D01*
X164711355Y-98985178D01*
X164927588Y-98790269D01*
X165101641Y-98556920D01*
X165226825Y-98294099D01*
X165271476Y-98146890D01*
X165150155Y-97917000D01*
X163957000Y-97917000D01*
X163957000Y-97937000D01*
X163703000Y-97937000D01*
X163703000Y-97917000D01*
X162509845Y-97917000D01*
X162388524Y-98146890D01*
X162433175Y-98294099D01*
X162558359Y-98556920D01*
X162732412Y-98790269D01*
X162948645Y-98985178D01*
X163065534Y-99054805D01*
X162883368Y-99176525D01*
X162676525Y-99383368D01*
X162514010Y-99626589D01*
X162402068Y-99896842D01*
X162345000Y-100183740D01*
X162345000Y-100476260D01*
X162402068Y-100763158D01*
X162514010Y-101033411D01*
X162676525Y-101276632D01*
X162883368Y-101483475D01*
X163057760Y-101600000D01*
X162883368Y-101716525D01*
X162676525Y-101923368D01*
X162514010Y-102166589D01*
X162402068Y-102436842D01*
X162345000Y-102723740D01*
X162345000Y-103016260D01*
X162402068Y-103303158D01*
X162514010Y-103573411D01*
X162676525Y-103816632D01*
X162883368Y-104023475D01*
X163057760Y-104140000D01*
X162883368Y-104256525D01*
X162676525Y-104463368D01*
X162514010Y-104706589D01*
X162402068Y-104976842D01*
X162345000Y-105263740D01*
X162345000Y-105556260D01*
X162402068Y-105843158D01*
X162514010Y-106113411D01*
X162676525Y-106356632D01*
X162883368Y-106563475D01*
X163057760Y-106680000D01*
X162883368Y-106796525D01*
X162676525Y-107003368D01*
X162514010Y-107246589D01*
X162402068Y-107516842D01*
X162345000Y-107803740D01*
X162345000Y-108096260D01*
X162402068Y-108383158D01*
X162514010Y-108653411D01*
X162676525Y-108896632D01*
X162883368Y-109103475D01*
X163057760Y-109220000D01*
X162883368Y-109336525D01*
X162676525Y-109543368D01*
X162514010Y-109786589D01*
X162402068Y-110056842D01*
X162345000Y-110343740D01*
X162345000Y-110636260D01*
X162371193Y-110767939D01*
X157134133Y-116005000D01*
X149335867Y-116005000D01*
X150852061Y-114488807D01*
X150983740Y-114515000D01*
X151276260Y-114515000D01*
X151563158Y-114457932D01*
X151833411Y-114345990D01*
X152076632Y-114183475D01*
X152283475Y-113976632D01*
X152445990Y-113733411D01*
X152557932Y-113463158D01*
X152615000Y-113176260D01*
X152615000Y-112883740D01*
X152557932Y-112596842D01*
X152445990Y-112326589D01*
X152283475Y-112083368D01*
X152076632Y-111876525D01*
X151902240Y-111760000D01*
X152076632Y-111643475D01*
X152283475Y-111436632D01*
X152445990Y-111193411D01*
X152557932Y-110923158D01*
X152615000Y-110636260D01*
X152615000Y-110343740D01*
X152557932Y-110056842D01*
X152445990Y-109786589D01*
X152283475Y-109543368D01*
X152076632Y-109336525D01*
X151902240Y-109220000D01*
X152076632Y-109103475D01*
X152283475Y-108896632D01*
X152445990Y-108653411D01*
X152557932Y-108383158D01*
X152615000Y-108096260D01*
X152615000Y-107803740D01*
X152557932Y-107516842D01*
X152445990Y-107246589D01*
X152283475Y-107003368D01*
X152076632Y-106796525D01*
X151902240Y-106680000D01*
X152076632Y-106563475D01*
X152283475Y-106356632D01*
X152445990Y-106113411D01*
X152557932Y-105843158D01*
X152615000Y-105556260D01*
X152615000Y-105263740D01*
X152557932Y-104976842D01*
X152445990Y-104706589D01*
X152283475Y-104463368D01*
X152076632Y-104256525D01*
X151902240Y-104140000D01*
X152076632Y-104023475D01*
X152283475Y-103816632D01*
X152445990Y-103573411D01*
X152557932Y-103303158D01*
X152615000Y-103016260D01*
X152615000Y-102995867D01*
X155185908Y-105566777D01*
X155214774Y-105711898D01*
X155292795Y-105900256D01*
X155406063Y-106069774D01*
X155550226Y-106213937D01*
X155719744Y-106327205D01*
X155908102Y-106405226D01*
X156108061Y-106445000D01*
X156311939Y-106445000D01*
X156511898Y-106405226D01*
X156617752Y-106361379D01*
X154783225Y-108195907D01*
X154638102Y-108224774D01*
X154449744Y-108302795D01*
X154280226Y-108416063D01*
X154136063Y-108560226D01*
X154022795Y-108729744D01*
X153944774Y-108918102D01*
X153905000Y-109118061D01*
X153905000Y-109321939D01*
X153944774Y-109521898D01*
X154022795Y-109710256D01*
X154136063Y-109879774D01*
X154280226Y-110023937D01*
X154449744Y-110137205D01*
X154638102Y-110215226D01*
X154838061Y-110255000D01*
X155041939Y-110255000D01*
X155241898Y-110215226D01*
X155430256Y-110137205D01*
X155599774Y-110023937D01*
X155743937Y-109879774D01*
X155857205Y-109710256D01*
X155935226Y-109521898D01*
X155964093Y-109376775D01*
X158899440Y-106441429D01*
X158899449Y-106441418D01*
X160581428Y-104759440D01*
X160613291Y-104733291D01*
X160717636Y-104606146D01*
X160795172Y-104461087D01*
X160842918Y-104303689D01*
X160855000Y-104181019D01*
X160855000Y-104181018D01*
X160859040Y-104140001D01*
X160855000Y-104098982D01*
X160855000Y-89010512D01*
X170009783Y-89010512D01*
X170051213Y-89290130D01*
X170146397Y-89556292D01*
X170213329Y-89681514D01*
X170457298Y-89753097D01*
X171270395Y-88940000D01*
X171629605Y-88940000D01*
X172442702Y-89753097D01*
X172686671Y-89681514D01*
X172807571Y-89426004D01*
X172876300Y-89151816D01*
X172890217Y-88869488D01*
X172848787Y-88589870D01*
X172753603Y-88323708D01*
X172686671Y-88198486D01*
X172442702Y-88126903D01*
X171629605Y-88940000D01*
X171270395Y-88940000D01*
X170457298Y-88126903D01*
X170213329Y-88198486D01*
X170092429Y-88453996D01*
X170023700Y-88728184D01*
X170009783Y-89010512D01*
X160855000Y-89010512D01*
X160855000Y-87947298D01*
X170636903Y-87947298D01*
X171450000Y-88760395D01*
X172263097Y-87947298D01*
X172191514Y-87703329D01*
X171936004Y-87582429D01*
X171661816Y-87513700D01*
X171379488Y-87499783D01*
X171099870Y-87541213D01*
X170833708Y-87636397D01*
X170708486Y-87703329D01*
X170636903Y-87947298D01*
X160855000Y-87947298D01*
X160855000Y-86716890D01*
X162388524Y-86716890D01*
X162433175Y-86864099D01*
X162558359Y-87126920D01*
X162732412Y-87360269D01*
X162948645Y-87555178D01*
X163198748Y-87704157D01*
X163473109Y-87801481D01*
X163703000Y-87680814D01*
X163703000Y-86487000D01*
X163957000Y-86487000D01*
X163957000Y-87680814D01*
X164186891Y-87801481D01*
X164461252Y-87704157D01*
X164711355Y-87555178D01*
X164927588Y-87360269D01*
X165101641Y-87126920D01*
X165226825Y-86864099D01*
X165271476Y-86716890D01*
X165150155Y-86487000D01*
X163957000Y-86487000D01*
X163703000Y-86487000D01*
X162509845Y-86487000D01*
X162388524Y-86716890D01*
X160855000Y-86716890D01*
X160855000Y-82025868D01*
X162371193Y-83542061D01*
X162345000Y-83673740D01*
X162345000Y-83966260D01*
X162402068Y-84253158D01*
X162514010Y-84523411D01*
X162676525Y-84766632D01*
X162883368Y-84973475D01*
X163065534Y-85095195D01*
X162948645Y-85164822D01*
X162732412Y-85359731D01*
X162558359Y-85593080D01*
X162433175Y-85855901D01*
X162388524Y-86003110D01*
X162509845Y-86233000D01*
X163703000Y-86233000D01*
X163703000Y-86213000D01*
X163957000Y-86213000D01*
X163957000Y-86233000D01*
X165150155Y-86233000D01*
X165271476Y-86003110D01*
X165226825Y-85855901D01*
X165101641Y-85593080D01*
X164927588Y-85359731D01*
X164711355Y-85164822D01*
X164594466Y-85095195D01*
X164776632Y-84973475D01*
X164983475Y-84766632D01*
X165145990Y-84523411D01*
X165257932Y-84253158D01*
X165315000Y-83966260D01*
X165315000Y-83673740D01*
X165257932Y-83386842D01*
X165145990Y-83116589D01*
X164983475Y-82873368D01*
X164776632Y-82666525D01*
X164602240Y-82550000D01*
X164776632Y-82433475D01*
X164983475Y-82226632D01*
X165145990Y-81983411D01*
X165257932Y-81713158D01*
X165315000Y-81426260D01*
X165315000Y-81133740D01*
X165257932Y-80846842D01*
X165145990Y-80576589D01*
X164983475Y-80333368D01*
X164776632Y-80126525D01*
X164602240Y-80010000D01*
X164776632Y-79893475D01*
X164983475Y-79686632D01*
X165145990Y-79443411D01*
X165257932Y-79173158D01*
X165315000Y-78886260D01*
X165315000Y-78593740D01*
X165257932Y-78306842D01*
X165145990Y-78036589D01*
X164983475Y-77793368D01*
X164776632Y-77586525D01*
X164602240Y-77470000D01*
X164776632Y-77353475D01*
X164983475Y-77146632D01*
X165145990Y-76903411D01*
X165257932Y-76633158D01*
X165315000Y-76346260D01*
X165315000Y-76053740D01*
X165257932Y-75766842D01*
X165145990Y-75496589D01*
X164983475Y-75253368D01*
X164776632Y-75046525D01*
X164602240Y-74930000D01*
X164776632Y-74813475D01*
X164983475Y-74606632D01*
X165145990Y-74363411D01*
X165257932Y-74093158D01*
X165315000Y-73806260D01*
X165315000Y-73513740D01*
X165257932Y-73226842D01*
X165145990Y-72956589D01*
X164983475Y-72713368D01*
X164776632Y-72506525D01*
X164594466Y-72384805D01*
X164711355Y-72315178D01*
X164927588Y-72120269D01*
X165101641Y-71886920D01*
X165226825Y-71624099D01*
X165236633Y-71591764D01*
X169045001Y-75400133D01*
X169045000Y-82494248D01*
X169039509Y-82550000D01*
X169045000Y-82605751D01*
X169061423Y-82772498D01*
X169126324Y-82986446D01*
X169231716Y-83183623D01*
X169373551Y-83356449D01*
X169416865Y-83391996D01*
X174125001Y-88100133D01*
X174125000Y-89699868D01*
X173519869Y-90305000D01*
X172790957Y-90305000D01*
X172780537Y-90285506D01*
X172701185Y-90188815D01*
X172604494Y-90109463D01*
X172494180Y-90050498D01*
X172374482Y-90014188D01*
X172250000Y-90001928D01*
X172242785Y-90001928D01*
X172263097Y-89932702D01*
X171450000Y-89119605D01*
X170636903Y-89932702D01*
X170657215Y-90001928D01*
X170650000Y-90001928D01*
X170525518Y-90014188D01*
X170405820Y-90050498D01*
X170295506Y-90109463D01*
X170198815Y-90188815D01*
X170119463Y-90285506D01*
X170109043Y-90305000D01*
X167695752Y-90305000D01*
X167640000Y-90299509D01*
X167417501Y-90321423D01*
X167203553Y-90386324D01*
X167006377Y-90491716D01*
X166876856Y-90598011D01*
X166876854Y-90598013D01*
X166833551Y-90633551D01*
X166798013Y-90676854D01*
X163712941Y-93761928D01*
X162980000Y-93761928D01*
X162855518Y-93774188D01*
X162735820Y-93810498D01*
X162625506Y-93869463D01*
X162528815Y-93948815D01*
X162449463Y-94045506D01*
X162390498Y-94155820D01*
X162354188Y-94275518D01*
X162341928Y-94400000D01*
X162341928Y-96100000D01*
X162354188Y-96224482D01*
X162390498Y-96344180D01*
X162449463Y-96454494D01*
X162528815Y-96551185D01*
X162625506Y-96630537D01*
X162735820Y-96689502D01*
X162816466Y-96713966D01*
X162732412Y-96789731D01*
X162558359Y-97023080D01*
X162433175Y-97285901D01*
X162388524Y-97433110D01*
X162509845Y-97663000D01*
X163703000Y-97663000D01*
X163703000Y-97643000D01*
X163957000Y-97643000D01*
X163957000Y-97663000D01*
X165150155Y-97663000D01*
X165271476Y-97433110D01*
X165226825Y-97285901D01*
X165101641Y-97023080D01*
X164927588Y-96789731D01*
X164843534Y-96713966D01*
X164924180Y-96689502D01*
X165034494Y-96630537D01*
X165131185Y-96551185D01*
X165210537Y-96454494D01*
X165269502Y-96344180D01*
X165305812Y-96224482D01*
X165318072Y-96100000D01*
X165318072Y-95367059D01*
X168110133Y-92575000D01*
X170109043Y-92575000D01*
X170119463Y-92594494D01*
X170198815Y-92691185D01*
X170295506Y-92770537D01*
X170315001Y-92780957D01*
X170315000Y-115099867D01*
X167169869Y-118245000D01*
X104610132Y-118245000D01*
X98925000Y-112559869D01*
X98925000Y-100052702D01*
X99556903Y-100052702D01*
X99628486Y-100296671D01*
X99883996Y-100417571D01*
X100158184Y-100486300D01*
X100440512Y-100500217D01*
X100720130Y-100458787D01*
X100986292Y-100363603D01*
X101111514Y-100296671D01*
X101183097Y-100052702D01*
X100370000Y-99239605D01*
X99556903Y-100052702D01*
X98925000Y-100052702D01*
X98925000Y-99130512D01*
X98929783Y-99130512D01*
X98971213Y-99410130D01*
X99066397Y-99676292D01*
X99133329Y-99801514D01*
X99377298Y-99873097D01*
X100190395Y-99060000D01*
X100549605Y-99060000D01*
X101362702Y-99873097D01*
X101431928Y-99852785D01*
X101431928Y-99860000D01*
X101444188Y-99984482D01*
X101480498Y-100104180D01*
X101539463Y-100214494D01*
X101618815Y-100311185D01*
X101715506Y-100390537D01*
X101825820Y-100449502D01*
X101945518Y-100485812D01*
X102070000Y-100498072D01*
X103670000Y-100498072D01*
X103794482Y-100485812D01*
X103914180Y-100449502D01*
X104024494Y-100390537D01*
X104121185Y-100311185D01*
X104200537Y-100214494D01*
X104259502Y-100104180D01*
X104295812Y-99984482D01*
X104308072Y-99860000D01*
X104308072Y-98260000D01*
X104295812Y-98135518D01*
X104259502Y-98015820D01*
X104200537Y-97905506D01*
X104121185Y-97808815D01*
X104024494Y-97729463D01*
X103914180Y-97670498D01*
X103794482Y-97634188D01*
X103670000Y-97621928D01*
X102070000Y-97621928D01*
X101945518Y-97634188D01*
X101825820Y-97670498D01*
X101715506Y-97729463D01*
X101618815Y-97808815D01*
X101539463Y-97905506D01*
X101480498Y-98015820D01*
X101444188Y-98135518D01*
X101431928Y-98260000D01*
X101431928Y-98267215D01*
X101362702Y-98246903D01*
X100549605Y-99060000D01*
X100190395Y-99060000D01*
X99377298Y-98246903D01*
X99133329Y-98318486D01*
X99012429Y-98573996D01*
X98943700Y-98848184D01*
X98929783Y-99130512D01*
X98925000Y-99130512D01*
X98925000Y-98067298D01*
X99556903Y-98067298D01*
X100370000Y-98880395D01*
X101183097Y-98067298D01*
X101111514Y-97823329D01*
X100856004Y-97702429D01*
X100581816Y-97633700D01*
X100299488Y-97619783D01*
X100019870Y-97661213D01*
X99753708Y-97756397D01*
X99628486Y-97823329D01*
X99556903Y-98067298D01*
X98925000Y-98067298D01*
X98925000Y-85145741D01*
X98930490Y-85089999D01*
X98925000Y-85034257D01*
X98925000Y-85034248D01*
X98908577Y-84867501D01*
X98843676Y-84653553D01*
X98738284Y-84456377D01*
X98596449Y-84283551D01*
X98553141Y-84248009D01*
X92558072Y-78252941D01*
X92558072Y-76058665D01*
X96355000Y-76058665D01*
X96355000Y-76341335D01*
X96410147Y-76618574D01*
X96518320Y-76879727D01*
X96675363Y-77114759D01*
X96875241Y-77314637D01*
X97110273Y-77471680D01*
X97371426Y-77579853D01*
X97648665Y-77635000D01*
X97931335Y-77635000D01*
X98208574Y-77579853D01*
X98469727Y-77471680D01*
X98704759Y-77314637D01*
X98904637Y-77114759D01*
X99061680Y-76879727D01*
X99169853Y-76618574D01*
X99225000Y-76341335D01*
X99225000Y-76058665D01*
X106515000Y-76058665D01*
X106515000Y-76341335D01*
X106570147Y-76618574D01*
X106678320Y-76879727D01*
X106835363Y-77114759D01*
X107035241Y-77314637D01*
X107270273Y-77471680D01*
X107531426Y-77579853D01*
X107808665Y-77635000D01*
X108091335Y-77635000D01*
X108368574Y-77579853D01*
X108629727Y-77471680D01*
X108864759Y-77314637D01*
X109064637Y-77114759D01*
X109221680Y-76879727D01*
X109329853Y-76618574D01*
X109385000Y-76341335D01*
X109385000Y-76058665D01*
X109329853Y-75781426D01*
X109221680Y-75520273D01*
X109064637Y-75285241D01*
X108864759Y-75085363D01*
X108629727Y-74928320D01*
X108368574Y-74820147D01*
X108091335Y-74765000D01*
X107808665Y-74765000D01*
X107531426Y-74820147D01*
X107270273Y-74928320D01*
X107035241Y-75085363D01*
X106835363Y-75285241D01*
X106678320Y-75520273D01*
X106570147Y-75781426D01*
X106515000Y-76058665D01*
X99225000Y-76058665D01*
X99169853Y-75781426D01*
X99061680Y-75520273D01*
X98904637Y-75285241D01*
X98704759Y-75085363D01*
X98469727Y-74928320D01*
X98208574Y-74820147D01*
X97931335Y-74765000D01*
X97648665Y-74765000D01*
X97371426Y-74820147D01*
X97110273Y-74928320D01*
X96875241Y-75085363D01*
X96675363Y-75285241D01*
X96518320Y-75520273D01*
X96410147Y-75781426D01*
X96355000Y-76058665D01*
X92558072Y-76058665D01*
X92558072Y-75720000D01*
X92545812Y-75595518D01*
X92509502Y-75475820D01*
X92450537Y-75365506D01*
X92371185Y-75268815D01*
X92274494Y-75189463D01*
X92164180Y-75130498D01*
X92044482Y-75094188D01*
X91920000Y-75081928D01*
X88420000Y-75081928D01*
X88295518Y-75094188D01*
X88175820Y-75130498D01*
X88065506Y-75189463D01*
X87968815Y-75268815D01*
X87889463Y-75365506D01*
X87848506Y-75442131D01*
X87858072Y-75345000D01*
X87858072Y-73595000D01*
X87828999Y-73299814D01*
X87742896Y-73015972D01*
X87718324Y-72970000D01*
X87781928Y-72970000D01*
X87794188Y-73094482D01*
X87830498Y-73214180D01*
X87889463Y-73324494D01*
X87968815Y-73421185D01*
X88065506Y-73500537D01*
X88175820Y-73559502D01*
X88295518Y-73595812D01*
X88420000Y-73608072D01*
X89884250Y-73605000D01*
X90043000Y-73446250D01*
X90043000Y-71597000D01*
X90297000Y-71597000D01*
X90297000Y-73446250D01*
X90455750Y-73605000D01*
X91920000Y-73608072D01*
X92044482Y-73595812D01*
X92164180Y-73559502D01*
X92274494Y-73500537D01*
X92371185Y-73421185D01*
X92450537Y-73324494D01*
X92509502Y-73214180D01*
X92545812Y-73094482D01*
X92558072Y-72970000D01*
X92555000Y-71755750D01*
X92396250Y-71597000D01*
X90297000Y-71597000D01*
X90043000Y-71597000D01*
X87943750Y-71597000D01*
X87785000Y-71755750D01*
X87781928Y-72970000D01*
X87718324Y-72970000D01*
X87603073Y-72754382D01*
X87414903Y-72525097D01*
X87185618Y-72336927D01*
X86924028Y-72197104D01*
X86640186Y-72111001D01*
X86345000Y-72081928D01*
X84595000Y-72081928D01*
X84299814Y-72111001D01*
X84015972Y-72197104D01*
X83754382Y-72336927D01*
X83525097Y-72525097D01*
X83336927Y-72754382D01*
X83197104Y-73015972D01*
X83111001Y-73299814D01*
X83081928Y-73595000D01*
X83081928Y-75345000D01*
X83111001Y-75640186D01*
X83197104Y-75924028D01*
X83336927Y-76185618D01*
X83459522Y-76335000D01*
X82605741Y-76335000D01*
X82549999Y-76329510D01*
X82494257Y-76335000D01*
X82494248Y-76335000D01*
X82327501Y-76351423D01*
X82113553Y-76416324D01*
X81916377Y-76521716D01*
X81743551Y-76663551D01*
X81708009Y-76706859D01*
X80139869Y-78275000D01*
X79839117Y-78275000D01*
X79503919Y-78341675D01*
X79188169Y-78472463D01*
X78904002Y-78662337D01*
X78662337Y-78904002D01*
X78472463Y-79188169D01*
X78341675Y-79503919D01*
X78275000Y-79839117D01*
X76860000Y-79839117D01*
X76860000Y-69970000D01*
X87781928Y-69970000D01*
X87785000Y-71184250D01*
X87943750Y-71343000D01*
X90043000Y-71343000D01*
X90043000Y-69493750D01*
X90297000Y-69493750D01*
X90297000Y-71343000D01*
X92396250Y-71343000D01*
X92555000Y-71184250D01*
X92558072Y-69970000D01*
X92545812Y-69845518D01*
X92509502Y-69725820D01*
X92450537Y-69615506D01*
X92371185Y-69518815D01*
X92274494Y-69439463D01*
X92164180Y-69380498D01*
X92044482Y-69344188D01*
X91920000Y-69331928D01*
X90455750Y-69335000D01*
X90297000Y-69493750D01*
X90043000Y-69493750D01*
X89884250Y-69335000D01*
X88420000Y-69331928D01*
X88295518Y-69344188D01*
X88175820Y-69380498D01*
X88065506Y-69439463D01*
X87968815Y-69518815D01*
X87889463Y-69615506D01*
X87830498Y-69725820D01*
X87794188Y-69845518D01*
X87781928Y-69970000D01*
X76860000Y-69970000D01*
X76860000Y-67089872D01*
X77775000Y-67089872D01*
X77775000Y-67530128D01*
X77860890Y-67961925D01*
X78029369Y-68368669D01*
X78273962Y-68734729D01*
X78585271Y-69046038D01*
X78951331Y-69290631D01*
X79358075Y-69459110D01*
X79789872Y-69545000D01*
X80230128Y-69545000D01*
X80661925Y-69459110D01*
X81068669Y-69290631D01*
X81434729Y-69046038D01*
X81746038Y-68734729D01*
X81990631Y-68368669D01*
X82159110Y-67961925D01*
X82245000Y-67530128D01*
X82245000Y-67089872D01*
X82215189Y-66940000D01*
X100061928Y-66940000D01*
X100074188Y-67064482D01*
X100110498Y-67184180D01*
X100169463Y-67294494D01*
X100248815Y-67391185D01*
X100345506Y-67470537D01*
X100455820Y-67529502D01*
X100474127Y-67535056D01*
X100407688Y-67601495D01*
X100239701Y-67852905D01*
X100123989Y-68132257D01*
X100065000Y-68428816D01*
X100065000Y-68731184D01*
X100123989Y-69027743D01*
X100239701Y-69307095D01*
X100407688Y-69558505D01*
X100621495Y-69772312D01*
X100872905Y-69940299D01*
X101152257Y-70056011D01*
X101448816Y-70115000D01*
X101751184Y-70115000D01*
X102047743Y-70056011D01*
X102327095Y-69940299D01*
X102578505Y-69772312D01*
X102792312Y-69558505D01*
X102960299Y-69307095D01*
X103076011Y-69027743D01*
X103135000Y-68731184D01*
X103135000Y-68428816D01*
X103076011Y-68132257D01*
X102960299Y-67852905D01*
X102792312Y-67601495D01*
X102725873Y-67535056D01*
X102744180Y-67529502D01*
X102854494Y-67470537D01*
X102951185Y-67391185D01*
X103030537Y-67294494D01*
X103089502Y-67184180D01*
X103125812Y-67064482D01*
X103138072Y-66940000D01*
X103135000Y-66325750D01*
X102976250Y-66167000D01*
X101727000Y-66167000D01*
X101727000Y-66187000D01*
X101473000Y-66187000D01*
X101473000Y-66167000D01*
X100223750Y-66167000D01*
X100065000Y-66325750D01*
X100061928Y-66940000D01*
X82215189Y-66940000D01*
X82159110Y-66658075D01*
X81990631Y-66251331D01*
X81746038Y-65885271D01*
X81434729Y-65573962D01*
X81068669Y-65329369D01*
X80661925Y-65160890D01*
X80556905Y-65140000D01*
X100061928Y-65140000D01*
X100065000Y-65754250D01*
X100223750Y-65913000D01*
X101473000Y-65913000D01*
X101473000Y-64663750D01*
X101727000Y-64663750D01*
X101727000Y-65913000D01*
X102976250Y-65913000D01*
X103135000Y-65754250D01*
X103138072Y-65140000D01*
X103125812Y-65015518D01*
X103089502Y-64895820D01*
X103030537Y-64785506D01*
X102951185Y-64688815D01*
X102854494Y-64609463D01*
X102744180Y-64550498D01*
X102624482Y-64514188D01*
X102500000Y-64501928D01*
X101885750Y-64505000D01*
X101727000Y-64663750D01*
X101473000Y-64663750D01*
X101314250Y-64505000D01*
X100700000Y-64501928D01*
X100575518Y-64514188D01*
X100455820Y-64550498D01*
X100345506Y-64609463D01*
X100248815Y-64688815D01*
X100169463Y-64785506D01*
X100110498Y-64895820D01*
X100074188Y-65015518D01*
X100061928Y-65140000D01*
X80556905Y-65140000D01*
X80230128Y-65075000D01*
X79789872Y-65075000D01*
X79358075Y-65160890D01*
X78951331Y-65329369D01*
X78585271Y-65573962D01*
X78273962Y-65885271D01*
X78029369Y-66251331D01*
X77860890Y-66658075D01*
X77775000Y-67089872D01*
X76860000Y-67089872D01*
X76860000Y-64160000D01*
X177140000Y-64160000D01*
X177140001Y-139040000D01*
G36*
X110488359Y-98556920D02*
G01*
X110662412Y-98790269D01*
X110878645Y-98985178D01*
X110995534Y-99054805D01*
X110813368Y-99176525D01*
X110606525Y-99383368D01*
X110444010Y-99626589D01*
X110332068Y-99896842D01*
X110275000Y-100183740D01*
X110275000Y-100476260D01*
X110332068Y-100763158D01*
X110444010Y-101033411D01*
X110606525Y-101276632D01*
X110813368Y-101483475D01*
X110987760Y-101600000D01*
X110813368Y-101716525D01*
X110606525Y-101923368D01*
X110444010Y-102166589D01*
X110332068Y-102436842D01*
X110275000Y-102723740D01*
X110275000Y-103016260D01*
X110332068Y-103303158D01*
X110444010Y-103573411D01*
X110606525Y-103816632D01*
X110813368Y-104023475D01*
X110987760Y-104140000D01*
X110813368Y-104256525D01*
X110606525Y-104463368D01*
X110444010Y-104706589D01*
X110332068Y-104976842D01*
X110275000Y-105263740D01*
X110275000Y-105556260D01*
X110332068Y-105843158D01*
X110444010Y-106113411D01*
X110606525Y-106356632D01*
X110813368Y-106563475D01*
X110987760Y-106680000D01*
X110813368Y-106796525D01*
X110606525Y-107003368D01*
X110444010Y-107246589D01*
X110332068Y-107516842D01*
X110275000Y-107803740D01*
X110275000Y-108096260D01*
X110332068Y-108383158D01*
X110444010Y-108653411D01*
X110606525Y-108896632D01*
X110813368Y-109103475D01*
X110987760Y-109220000D01*
X110813368Y-109336525D01*
X110606525Y-109543368D01*
X110444010Y-109786589D01*
X110332068Y-110056842D01*
X110275000Y-110343740D01*
X110275000Y-110636260D01*
X110332068Y-110923158D01*
X110444010Y-111193411D01*
X110606525Y-111436632D01*
X110738380Y-111568487D01*
X110665820Y-111590498D01*
X110555506Y-111649463D01*
X110458815Y-111728815D01*
X110379463Y-111825506D01*
X110320498Y-111935820D01*
X110284188Y-112055518D01*
X110271928Y-112180000D01*
X110275000Y-112744250D01*
X110433750Y-112903000D01*
X111633000Y-112903000D01*
X111633000Y-112883000D01*
X111887000Y-112883000D01*
X111887000Y-112903000D01*
X113086250Y-112903000D01*
X113245000Y-112744250D01*
X113248072Y-112180000D01*
X113235812Y-112055518D01*
X113199502Y-111935820D01*
X113140537Y-111825506D01*
X113061185Y-111728815D01*
X112964494Y-111649463D01*
X112854180Y-111590498D01*
X112781620Y-111568487D01*
X112913475Y-111436632D01*
X113075990Y-111193411D01*
X113187932Y-110923158D01*
X113245000Y-110636260D01*
X113245000Y-110343740D01*
X113218807Y-110212061D01*
X113355869Y-110074999D01*
X135728456Y-110074999D01*
X135675000Y-110343740D01*
X135675000Y-110636260D01*
X135732068Y-110923158D01*
X135732831Y-110925000D01*
X119993285Y-110925000D01*
X119870256Y-110842795D01*
X119681898Y-110764774D01*
X119481939Y-110725000D01*
X119278061Y-110725000D01*
X119078102Y-110764774D01*
X118889744Y-110842795D01*
X118720226Y-110956063D01*
X118576063Y-111100226D01*
X118462795Y-111269744D01*
X118384774Y-111458102D01*
X118345000Y-111658061D01*
X118345000Y-111861939D01*
X118384774Y-112061898D01*
X118462795Y-112250256D01*
X118576063Y-112419774D01*
X118720226Y-112563937D01*
X118889744Y-112677205D01*
X119078102Y-112755226D01*
X119278061Y-112795000D01*
X119481939Y-112795000D01*
X119681898Y-112755226D01*
X119870256Y-112677205D01*
X119993285Y-112595000D01*
X135671928Y-112595000D01*
X135671928Y-113880000D01*
X135684188Y-114004482D01*
X135720498Y-114124180D01*
X135779463Y-114234494D01*
X135858815Y-114331185D01*
X135955506Y-114410537D01*
X136065820Y-114469502D01*
X136185518Y-114505812D01*
X136310000Y-114518072D01*
X138010000Y-114518072D01*
X138134482Y-114505812D01*
X138254180Y-114469502D01*
X138364494Y-114410537D01*
X138461185Y-114331185D01*
X138540537Y-114234494D01*
X138599502Y-114124180D01*
X138635812Y-114004482D01*
X138648072Y-113880000D01*
X138648072Y-112595000D01*
X141626715Y-112595000D01*
X141749744Y-112677205D01*
X141938102Y-112755226D01*
X142138061Y-112795000D01*
X142341939Y-112795000D01*
X142541898Y-112755226D01*
X142730256Y-112677205D01*
X142899774Y-112563937D01*
X143043937Y-112419774D01*
X143157205Y-112250256D01*
X143235226Y-112061898D01*
X143275000Y-111861939D01*
X143275000Y-111658061D01*
X143235226Y-111458102D01*
X143157205Y-111269744D01*
X143043937Y-111100226D01*
X142899774Y-110956063D01*
X142730256Y-110842795D01*
X142541898Y-110764774D01*
X142341939Y-110725000D01*
X142138061Y-110725000D01*
X141938102Y-110764774D01*
X141749744Y-110842795D01*
X141626715Y-110925000D01*
X138587169Y-110925000D01*
X138587932Y-110923158D01*
X138645000Y-110636260D01*
X138645000Y-110343740D01*
X138591544Y-110074999D01*
X149534132Y-110074999D01*
X149671193Y-110212060D01*
X149645000Y-110343740D01*
X149645000Y-110636260D01*
X149702068Y-110923158D01*
X149814010Y-111193411D01*
X149976525Y-111436632D01*
X150183368Y-111643475D01*
X150357760Y-111760000D01*
X150183368Y-111876525D01*
X149976525Y-112083368D01*
X149814010Y-112326589D01*
X149702068Y-112596842D01*
X149645000Y-112883740D01*
X149645000Y-113176260D01*
X149671193Y-113307939D01*
X148244133Y-114735000D01*
X109565868Y-114735000D01*
X108710868Y-113880000D01*
X110271928Y-113880000D01*
X110284188Y-114004482D01*
X110320498Y-114124180D01*
X110379463Y-114234494D01*
X110458815Y-114331185D01*
X110555506Y-114410537D01*
X110665820Y-114469502D01*
X110785518Y-114505812D01*
X110910000Y-114518072D01*
X111474250Y-114515000D01*
X111633000Y-114356250D01*
X111633000Y-113157000D01*
X111887000Y-113157000D01*
X111887000Y-114356250D01*
X112045750Y-114515000D01*
X112610000Y-114518072D01*
X112734482Y-114505812D01*
X112854180Y-114469502D01*
X112964494Y-114410537D01*
X113061185Y-114331185D01*
X113140537Y-114234494D01*
X113199502Y-114124180D01*
X113235812Y-114004482D01*
X113248072Y-113880000D01*
X113245000Y-113315750D01*
X113086250Y-113157000D01*
X111887000Y-113157000D01*
X111633000Y-113157000D01*
X110433750Y-113157000D01*
X110275000Y-113315750D01*
X110271928Y-113880000D01*
X108710868Y-113880000D01*
X107515000Y-112684133D01*
X107515000Y-109565867D01*
X109781428Y-107299440D01*
X109813291Y-107273291D01*
X109917636Y-107146146D01*
X109995172Y-107001087D01*
X110042918Y-106843689D01*
X110055000Y-106721019D01*
X110055000Y-106721009D01*
X110059039Y-106680001D01*
X110055000Y-106638993D01*
X110055000Y-98825865D01*
X110435313Y-98445552D01*
X110488359Y-98556920D01*
G37*
X110488359Y-98556920D02*
X110662412Y-98790269D01*
X110878645Y-98985178D01*
X110995534Y-99054805D01*
X110813368Y-99176525D01*
X110606525Y-99383368D01*
X110444010Y-99626589D01*
X110332068Y-99896842D01*
X110275000Y-100183740D01*
X110275000Y-100476260D01*
X110332068Y-100763158D01*
X110444010Y-101033411D01*
X110606525Y-101276632D01*
X110813368Y-101483475D01*
X110987760Y-101600000D01*
X110813368Y-101716525D01*
X110606525Y-101923368D01*
X110444010Y-102166589D01*
X110332068Y-102436842D01*
X110275000Y-102723740D01*
X110275000Y-103016260D01*
X110332068Y-103303158D01*
X110444010Y-103573411D01*
X110606525Y-103816632D01*
X110813368Y-104023475D01*
X110987760Y-104140000D01*
X110813368Y-104256525D01*
X110606525Y-104463368D01*
X110444010Y-104706589D01*
X110332068Y-104976842D01*
X110275000Y-105263740D01*
X110275000Y-105556260D01*
X110332068Y-105843158D01*
X110444010Y-106113411D01*
X110606525Y-106356632D01*
X110813368Y-106563475D01*
X110987760Y-106680000D01*
X110813368Y-106796525D01*
X110606525Y-107003368D01*
X110444010Y-107246589D01*
X110332068Y-107516842D01*
X110275000Y-107803740D01*
X110275000Y-108096260D01*
X110332068Y-108383158D01*
X110444010Y-108653411D01*
X110606525Y-108896632D01*
X110813368Y-109103475D01*
X110987760Y-109220000D01*
X110813368Y-109336525D01*
X110606525Y-109543368D01*
X110444010Y-109786589D01*
X110332068Y-110056842D01*
X110275000Y-110343740D01*
X110275000Y-110636260D01*
X110332068Y-110923158D01*
X110444010Y-111193411D01*
X110606525Y-111436632D01*
X110738380Y-111568487D01*
X110665820Y-111590498D01*
X110555506Y-111649463D01*
X110458815Y-111728815D01*
X110379463Y-111825506D01*
X110320498Y-111935820D01*
X110284188Y-112055518D01*
X110271928Y-112180000D01*
X110275000Y-112744250D01*
X110433750Y-112903000D01*
X111633000Y-112903000D01*
X111633000Y-112883000D01*
X111887000Y-112883000D01*
X111887000Y-112903000D01*
X113086250Y-112903000D01*
X113245000Y-112744250D01*
X113248072Y-112180000D01*
X113235812Y-112055518D01*
X113199502Y-111935820D01*
X113140537Y-111825506D01*
X113061185Y-111728815D01*
X112964494Y-111649463D01*
X112854180Y-111590498D01*
X112781620Y-111568487D01*
X112913475Y-111436632D01*
X113075990Y-111193411D01*
X113187932Y-110923158D01*
X113245000Y-110636260D01*
X113245000Y-110343740D01*
X113218807Y-110212061D01*
X113355869Y-110074999D01*
X135728456Y-110074999D01*
X135675000Y-110343740D01*
X135675000Y-110636260D01*
X135732068Y-110923158D01*
X135732831Y-110925000D01*
X119993285Y-110925000D01*
X119870256Y-110842795D01*
X119681898Y-110764774D01*
X119481939Y-110725000D01*
X119278061Y-110725000D01*
X119078102Y-110764774D01*
X118889744Y-110842795D01*
X118720226Y-110956063D01*
X118576063Y-111100226D01*
X118462795Y-111269744D01*
X118384774Y-111458102D01*
X118345000Y-111658061D01*
X118345000Y-111861939D01*
X118384774Y-112061898D01*
X118462795Y-112250256D01*
X118576063Y-112419774D01*
X118720226Y-112563937D01*
X118889744Y-112677205D01*
X119078102Y-112755226D01*
X119278061Y-112795000D01*
X119481939Y-112795000D01*
X119681898Y-112755226D01*
X119870256Y-112677205D01*
X119993285Y-112595000D01*
X135671928Y-112595000D01*
X135671928Y-113880000D01*
X135684188Y-114004482D01*
X135720498Y-114124180D01*
X135779463Y-114234494D01*
X135858815Y-114331185D01*
X135955506Y-114410537D01*
X136065820Y-114469502D01*
X136185518Y-114505812D01*
X136310000Y-114518072D01*
X138010000Y-114518072D01*
X138134482Y-114505812D01*
X138254180Y-114469502D01*
X138364494Y-114410537D01*
X138461185Y-114331185D01*
X138540537Y-114234494D01*
X138599502Y-114124180D01*
X138635812Y-114004482D01*
X138648072Y-113880000D01*
X138648072Y-112595000D01*
X141626715Y-112595000D01*
X141749744Y-112677205D01*
X141938102Y-112755226D01*
X142138061Y-112795000D01*
X142341939Y-112795000D01*
X142541898Y-112755226D01*
X142730256Y-112677205D01*
X142899774Y-112563937D01*
X143043937Y-112419774D01*
X143157205Y-112250256D01*
X143235226Y-112061898D01*
X143275000Y-111861939D01*
X143275000Y-111658061D01*
X143235226Y-111458102D01*
X143157205Y-111269744D01*
X143043937Y-111100226D01*
X142899774Y-110956063D01*
X142730256Y-110842795D01*
X142541898Y-110764774D01*
X142341939Y-110725000D01*
X142138061Y-110725000D01*
X141938102Y-110764774D01*
X141749744Y-110842795D01*
X141626715Y-110925000D01*
X138587169Y-110925000D01*
X138587932Y-110923158D01*
X138645000Y-110636260D01*
X138645000Y-110343740D01*
X138591544Y-110074999D01*
X149534132Y-110074999D01*
X149671193Y-110212060D01*
X149645000Y-110343740D01*
X149645000Y-110636260D01*
X149702068Y-110923158D01*
X149814010Y-111193411D01*
X149976525Y-111436632D01*
X150183368Y-111643475D01*
X150357760Y-111760000D01*
X150183368Y-111876525D01*
X149976525Y-112083368D01*
X149814010Y-112326589D01*
X149702068Y-112596842D01*
X149645000Y-112883740D01*
X149645000Y-113176260D01*
X149671193Y-113307939D01*
X148244133Y-114735000D01*
X109565868Y-114735000D01*
X108710868Y-113880000D01*
X110271928Y-113880000D01*
X110284188Y-114004482D01*
X110320498Y-114124180D01*
X110379463Y-114234494D01*
X110458815Y-114331185D01*
X110555506Y-114410537D01*
X110665820Y-114469502D01*
X110785518Y-114505812D01*
X110910000Y-114518072D01*
X111474250Y-114515000D01*
X111633000Y-114356250D01*
X111633000Y-113157000D01*
X111887000Y-113157000D01*
X111887000Y-114356250D01*
X112045750Y-114515000D01*
X112610000Y-114518072D01*
X112734482Y-114505812D01*
X112854180Y-114469502D01*
X112964494Y-114410537D01*
X113061185Y-114331185D01*
X113140537Y-114234494D01*
X113199502Y-114124180D01*
X113235812Y-114004482D01*
X113248072Y-113880000D01*
X113245000Y-113315750D01*
X113086250Y-113157000D01*
X111887000Y-113157000D01*
X111633000Y-113157000D01*
X110433750Y-113157000D01*
X110275000Y-113315750D01*
X110271928Y-113880000D01*
X108710868Y-113880000D01*
X107515000Y-112684133D01*
X107515000Y-109565867D01*
X109781428Y-107299440D01*
X109813291Y-107273291D01*
X109917636Y-107146146D01*
X109995172Y-107001087D01*
X110042918Y-106843689D01*
X110055000Y-106721019D01*
X110055000Y-106721009D01*
X110059039Y-106680001D01*
X110055000Y-106638993D01*
X110055000Y-98825865D01*
X110435313Y-98445552D01*
X110488359Y-98556920D01*
G36*
X135675000Y-80137002D02*
G01*
X135839844Y-80137002D01*
X135718524Y-80366890D01*
X135763175Y-80514099D01*
X135888359Y-80776920D01*
X136062412Y-81010269D01*
X136278645Y-81205178D01*
X136395534Y-81274805D01*
X136213368Y-81396525D01*
X136006525Y-81603368D01*
X135844010Y-81846589D01*
X135732068Y-82116842D01*
X135675000Y-82403740D01*
X135675000Y-82696260D01*
X135732068Y-82983158D01*
X135844010Y-83253411D01*
X136006525Y-83496632D01*
X136213368Y-83703475D01*
X136387760Y-83820000D01*
X136213368Y-83936525D01*
X136006525Y-84143368D01*
X135844010Y-84386589D01*
X135732068Y-84656842D01*
X135675000Y-84943740D01*
X135675000Y-85236260D01*
X135701193Y-85367939D01*
X132788574Y-88280559D01*
X132756710Y-88306709D01*
X132730562Y-88338571D01*
X132652364Y-88433855D01*
X132574828Y-88578914D01*
X132527082Y-88736312D01*
X132510960Y-88900000D01*
X132515001Y-88941029D01*
X132515000Y-100868983D01*
X132510960Y-100910002D01*
X132515000Y-100951020D01*
X132527082Y-101073690D01*
X132574828Y-101231088D01*
X132652364Y-101376147D01*
X132756709Y-101503293D01*
X132788579Y-101529448D01*
X135892759Y-104633630D01*
X135844010Y-104706589D01*
X135732068Y-104976842D01*
X135675000Y-105263740D01*
X135675000Y-105556260D01*
X135732068Y-105843158D01*
X135844010Y-106113411D01*
X136006525Y-106356632D01*
X136213368Y-106563475D01*
X136387760Y-106680000D01*
X136213368Y-106796525D01*
X136006525Y-107003368D01*
X135844010Y-107246589D01*
X135732068Y-107516842D01*
X135675000Y-107803740D01*
X135675000Y-108096260D01*
X135732068Y-108383158D01*
X135741115Y-108404999D01*
X113178885Y-108404999D01*
X113187932Y-108383158D01*
X113245000Y-108096260D01*
X113245000Y-107803740D01*
X113187932Y-107516842D01*
X113075990Y-107246589D01*
X112913475Y-107003368D01*
X112706632Y-106796525D01*
X112532240Y-106680000D01*
X112706632Y-106563475D01*
X112913475Y-106356632D01*
X113075990Y-106113411D01*
X113187932Y-105843158D01*
X113245000Y-105556260D01*
X113245000Y-105263740D01*
X113187932Y-104976842D01*
X113075990Y-104706589D01*
X112913475Y-104463368D01*
X112706632Y-104256525D01*
X112532240Y-104140000D01*
X112706632Y-104023475D01*
X112913475Y-103816632D01*
X113075990Y-103573411D01*
X113187932Y-103303158D01*
X113245000Y-103016260D01*
X113245000Y-102723740D01*
X113187932Y-102436842D01*
X113075990Y-102166589D01*
X112913475Y-101923368D01*
X112706632Y-101716525D01*
X112532240Y-101600000D01*
X112706632Y-101483475D01*
X112913475Y-101276632D01*
X113075990Y-101033411D01*
X113187932Y-100763158D01*
X113245000Y-100476260D01*
X113245000Y-100183740D01*
X113187932Y-99896842D01*
X113075990Y-99626589D01*
X112913475Y-99383368D01*
X112706632Y-99176525D01*
X112524466Y-99054805D01*
X112641355Y-98985178D01*
X112857588Y-98790269D01*
X113031641Y-98556920D01*
X113156825Y-98294099D01*
X113201476Y-98146890D01*
X113080155Y-97917000D01*
X111887000Y-97917000D01*
X111887000Y-97937000D01*
X111633000Y-97937000D01*
X111633000Y-97917000D01*
X111613000Y-97917000D01*
X111613000Y-97663000D01*
X111633000Y-97663000D01*
X111633000Y-97643000D01*
X111887000Y-97643000D01*
X111887000Y-97663000D01*
X113080155Y-97663000D01*
X113201476Y-97433110D01*
X113171718Y-97335001D01*
X118088981Y-97335001D01*
X118129999Y-97339041D01*
X118171017Y-97335001D01*
X118171018Y-97335001D01*
X118293688Y-97322919D01*
X118451086Y-97275173D01*
X118596145Y-97197637D01*
X118723290Y-97093292D01*
X118749445Y-97061422D01*
X135675000Y-80135869D01*
X135675000Y-80137002D01*
G37*
X135675000Y-80137002D02*
X135839844Y-80137002D01*
X135718524Y-80366890D01*
X135763175Y-80514099D01*
X135888359Y-80776920D01*
X136062412Y-81010269D01*
X136278645Y-81205178D01*
X136395534Y-81274805D01*
X136213368Y-81396525D01*
X136006525Y-81603368D01*
X135844010Y-81846589D01*
X135732068Y-82116842D01*
X135675000Y-82403740D01*
X135675000Y-82696260D01*
X135732068Y-82983158D01*
X135844010Y-83253411D01*
X136006525Y-83496632D01*
X136213368Y-83703475D01*
X136387760Y-83820000D01*
X136213368Y-83936525D01*
X136006525Y-84143368D01*
X135844010Y-84386589D01*
X135732068Y-84656842D01*
X135675000Y-84943740D01*
X135675000Y-85236260D01*
X135701193Y-85367939D01*
X132788574Y-88280559D01*
X132756710Y-88306709D01*
X132730562Y-88338571D01*
X132652364Y-88433855D01*
X132574828Y-88578914D01*
X132527082Y-88736312D01*
X132510960Y-88900000D01*
X132515001Y-88941029D01*
X132515000Y-100868983D01*
X132510960Y-100910002D01*
X132515000Y-100951020D01*
X132527082Y-101073690D01*
X132574828Y-101231088D01*
X132652364Y-101376147D01*
X132756709Y-101503293D01*
X132788579Y-101529448D01*
X135892759Y-104633630D01*
X135844010Y-104706589D01*
X135732068Y-104976842D01*
X135675000Y-105263740D01*
X135675000Y-105556260D01*
X135732068Y-105843158D01*
X135844010Y-106113411D01*
X136006525Y-106356632D01*
X136213368Y-106563475D01*
X136387760Y-106680000D01*
X136213368Y-106796525D01*
X136006525Y-107003368D01*
X135844010Y-107246589D01*
X135732068Y-107516842D01*
X135675000Y-107803740D01*
X135675000Y-108096260D01*
X135732068Y-108383158D01*
X135741115Y-108404999D01*
X113178885Y-108404999D01*
X113187932Y-108383158D01*
X113245000Y-108096260D01*
X113245000Y-107803740D01*
X113187932Y-107516842D01*
X113075990Y-107246589D01*
X112913475Y-107003368D01*
X112706632Y-106796525D01*
X112532240Y-106680000D01*
X112706632Y-106563475D01*
X112913475Y-106356632D01*
X113075990Y-106113411D01*
X113187932Y-105843158D01*
X113245000Y-105556260D01*
X113245000Y-105263740D01*
X113187932Y-104976842D01*
X113075990Y-104706589D01*
X112913475Y-104463368D01*
X112706632Y-104256525D01*
X112532240Y-104140000D01*
X112706632Y-104023475D01*
X112913475Y-103816632D01*
X113075990Y-103573411D01*
X113187932Y-103303158D01*
X113245000Y-103016260D01*
X113245000Y-102723740D01*
X113187932Y-102436842D01*
X113075990Y-102166589D01*
X112913475Y-101923368D01*
X112706632Y-101716525D01*
X112532240Y-101600000D01*
X112706632Y-101483475D01*
X112913475Y-101276632D01*
X113075990Y-101033411D01*
X113187932Y-100763158D01*
X113245000Y-100476260D01*
X113245000Y-100183740D01*
X113187932Y-99896842D01*
X113075990Y-99626589D01*
X112913475Y-99383368D01*
X112706632Y-99176525D01*
X112524466Y-99054805D01*
X112641355Y-98985178D01*
X112857588Y-98790269D01*
X113031641Y-98556920D01*
X113156825Y-98294099D01*
X113201476Y-98146890D01*
X113080155Y-97917000D01*
X111887000Y-97917000D01*
X111887000Y-97937000D01*
X111633000Y-97937000D01*
X111633000Y-97917000D01*
X111613000Y-97917000D01*
X111613000Y-97663000D01*
X111633000Y-97663000D01*
X111633000Y-97643000D01*
X111887000Y-97643000D01*
X111887000Y-97663000D01*
X113080155Y-97663000D01*
X113201476Y-97433110D01*
X113171718Y-97335001D01*
X118088981Y-97335001D01*
X118129999Y-97339041D01*
X118171017Y-97335001D01*
X118171018Y-97335001D01*
X118293688Y-97322919D01*
X118451086Y-97275173D01*
X118596145Y-97197637D01*
X118723290Y-97093292D01*
X118749445Y-97061422D01*
X135675000Y-80135869D01*
X135675000Y-80137002D01*
G36*
X137287000Y-79883000D02*
G01*
X137307000Y-79883000D01*
X137307000Y-80137000D01*
X137287000Y-80137000D01*
X137287000Y-80157000D01*
X137033000Y-80157000D01*
X137033000Y-80137000D01*
X137013000Y-80137000D01*
X137013000Y-79883000D01*
X137033000Y-79883000D01*
X137033000Y-79863000D01*
X137287000Y-79863000D01*
X137287000Y-79883000D01*
G37*
X137287000Y-79883000D02*
X137307000Y-79883000D01*
X137307000Y-80137000D01*
X137287000Y-80137000D01*
X137287000Y-80157000D01*
X137033000Y-80157000D01*
X137033000Y-80137000D01*
X137013000Y-80137000D01*
X137013000Y-79883000D01*
X137033000Y-79883000D01*
X137033000Y-79863000D01*
X137287000Y-79863000D01*
X137287000Y-79883000D01*
M02*
