G04 #@! TF.GenerationSoftware,KiCad,Pcbnew,5.1.6-c6e7f7d~86~ubuntu18.04.1*
G04 #@! TF.CreationDate,2020-06-15T20:43:44+01:00*
G04 #@! TF.ProjectId,placa_modular,706c6163-615f-46d6-9f64-756c61722e6b,V1.0*
G04 #@! TF.SameCoordinates,Original*
G04 #@! TF.FileFunction,Copper,L2,Bot*
G04 #@! TF.FilePolarity,Positive*
%FSLAX46Y46*%
G04 Gerber Fmt 4.6, Leading zero omitted, Abs format (unit mm)*
G04 Created by KiCad (PCBNEW 5.1.6-c6e7f7d~86~ubuntu18.04.1) date 2020-06-15 20:43:44*
%MOMM*%
%LPD*%
G01*
G04 APERTURE LIST*
G04 #@! TA.AperFunction,ComponentPad*
%ADD10R,2.200000X2.200000*%
G04 #@! TD*
G04 #@! TA.AperFunction,ComponentPad*
%ADD11O,2.200000X2.200000*%
G04 #@! TD*
G04 #@! TA.AperFunction,ComponentPad*
%ADD12R,1.800000X1.800000*%
G04 #@! TD*
G04 #@! TA.AperFunction,ComponentPad*
%ADD13C,1.800000*%
G04 #@! TD*
G04 #@! TA.AperFunction,ComponentPad*
%ADD14R,3.500000X3.500000*%
G04 #@! TD*
G04 #@! TA.AperFunction,ComponentPad*
%ADD15O,1.700000X1.700000*%
G04 #@! TD*
G04 #@! TA.AperFunction,ComponentPad*
%ADD16R,1.700000X1.700000*%
G04 #@! TD*
G04 #@! TA.AperFunction,ComponentPad*
%ADD17C,1.600000*%
G04 #@! TD*
G04 #@! TA.AperFunction,ComponentPad*
%ADD18O,1.600000X1.600000*%
G04 #@! TD*
G04 #@! TA.AperFunction,ComponentPad*
%ADD19R,1.600000X1.600000*%
G04 #@! TD*
G04 #@! TA.AperFunction,ViaPad*
%ADD20C,0.800000*%
G04 #@! TD*
G04 #@! TA.AperFunction,Conductor*
%ADD21C,1.000000*%
G04 #@! TD*
G04 #@! TA.AperFunction,Conductor*
%ADD22C,0.400000*%
G04 #@! TD*
G04 #@! TA.AperFunction,Conductor*
%ADD23C,0.254000*%
G04 #@! TD*
G04 APERTURE END LIST*
D10*
X110490000Y-82550000D03*
D11*
X120650000Y-82550000D03*
D12*
X110490000Y-88900000D03*
D13*
X113030000Y-88900000D03*
D14*
X121920000Y-63500000D03*
G04 #@! TA.AperFunction,ComponentPad*
G36*
G01*
X120920000Y-56000000D02*
X122920000Y-56000000D01*
G75*
G02*
X123670000Y-56750000I0J-750000D01*
G01*
X123670000Y-58250000D01*
G75*
G02*
X122920000Y-59000000I-750000J0D01*
G01*
X120920000Y-59000000D01*
G75*
G02*
X120170000Y-58250000I0J750000D01*
G01*
X120170000Y-56750000D01*
G75*
G02*
X120920000Y-56000000I750000J0D01*
G01*
G37*
G04 #@! TD.AperFunction*
G04 #@! TA.AperFunction,ComponentPad*
G36*
G01*
X116345000Y-58750000D02*
X118095000Y-58750000D01*
G75*
G02*
X118970000Y-59625000I0J-875000D01*
G01*
X118970000Y-61375000D01*
G75*
G02*
X118095000Y-62250000I-875000J0D01*
G01*
X116345000Y-62250000D01*
G75*
G02*
X115470000Y-61375000I0J875000D01*
G01*
X115470000Y-59625000D01*
G75*
G02*
X116345000Y-58750000I875000J0D01*
G01*
G37*
G04 #@! TD.AperFunction*
D15*
X133350000Y-52070000D03*
X133350000Y-54610000D03*
X133350000Y-57150000D03*
X133350000Y-59690000D03*
X133350000Y-62230000D03*
X133350000Y-64770000D03*
X133350000Y-67310000D03*
X133350000Y-69850000D03*
X133350000Y-72390000D03*
X133350000Y-74930000D03*
X133350000Y-77470000D03*
X133350000Y-80010000D03*
X133350000Y-82550000D03*
X133350000Y-85090000D03*
X133350000Y-87630000D03*
X133350000Y-90170000D03*
X133350000Y-92710000D03*
X133350000Y-95250000D03*
D16*
X133350000Y-97790000D03*
X158750000Y-97790000D03*
D15*
X158750000Y-95250000D03*
X158750000Y-92710000D03*
X158750000Y-90170000D03*
X158750000Y-87630000D03*
X158750000Y-85090000D03*
X158750000Y-82550000D03*
X158750000Y-80010000D03*
X158750000Y-77470000D03*
X158750000Y-74930000D03*
X158750000Y-72390000D03*
X158750000Y-69850000D03*
X158750000Y-67310000D03*
X158750000Y-64770000D03*
X158750000Y-62230000D03*
X158750000Y-59690000D03*
X158750000Y-57150000D03*
X158750000Y-54610000D03*
X158750000Y-52070000D03*
X176530000Y-118110000D03*
X176530000Y-115570000D03*
X176530000Y-113030000D03*
D16*
X176530000Y-110490000D03*
D15*
X176530000Y-96520000D03*
X176530000Y-93980000D03*
X176530000Y-91440000D03*
X176530000Y-88900000D03*
X176530000Y-86360000D03*
X176530000Y-83820000D03*
X176530000Y-81280000D03*
D16*
X176530000Y-78740000D03*
D15*
X176530000Y-71120000D03*
X176530000Y-68580000D03*
X176530000Y-66040000D03*
X176530000Y-63500000D03*
X176530000Y-60960000D03*
X176530000Y-58420000D03*
X176530000Y-55880000D03*
D16*
X176530000Y-53340000D03*
X189230000Y-78740000D03*
D15*
X189230000Y-81280000D03*
X189230000Y-83820000D03*
X189230000Y-86360000D03*
X189230000Y-88900000D03*
X189230000Y-91440000D03*
X189230000Y-93980000D03*
X189230000Y-96520000D03*
D16*
X189230000Y-53340000D03*
D15*
X189230000Y-55880000D03*
X189230000Y-58420000D03*
X189230000Y-60960000D03*
X189230000Y-63500000D03*
X189230000Y-66040000D03*
X189230000Y-68580000D03*
X189230000Y-71120000D03*
D16*
X198120000Y-83820000D03*
D15*
X198120000Y-86360000D03*
X198120000Y-88900000D03*
X198120000Y-91440000D03*
X198120000Y-66040000D03*
X198120000Y-63500000D03*
X198120000Y-60960000D03*
D16*
X198120000Y-58420000D03*
X158750000Y-110490000D03*
D15*
X158750000Y-113030000D03*
X158750000Y-115570000D03*
X158750000Y-118110000D03*
D17*
X128270000Y-86360000D03*
D18*
X118110000Y-86360000D03*
D17*
X128230000Y-99060000D03*
D19*
X125730000Y-99060000D03*
X118110000Y-99060000D03*
D17*
X120610000Y-99060000D03*
D19*
X118110000Y-91440000D03*
D17*
X120110000Y-91440000D03*
D19*
X113030000Y-99060000D03*
D17*
X110530000Y-99060000D03*
X129460000Y-91440000D03*
X124460000Y-91440000D03*
X124460000Y-82550000D03*
X129460000Y-82550000D03*
D20*
X120650000Y-69850000D03*
X124460000Y-72390000D03*
X128270000Y-63500000D03*
X113030000Y-80010000D03*
X113030000Y-72390000D03*
X111760000Y-78740000D03*
X171450000Y-77470000D03*
X165100000Y-78740000D03*
X171450000Y-85090000D03*
X171450000Y-87630000D03*
X162560000Y-90170000D03*
X172720000Y-106680000D03*
X175260000Y-101600000D03*
X185420000Y-105410000D03*
X165100000Y-57150000D03*
D21*
X124460000Y-72390000D02*
X124460000Y-67310000D01*
X124460000Y-67310000D02*
X128270000Y-63500000D01*
X121920000Y-81280000D02*
X120650000Y-82550000D01*
X121920000Y-63500000D02*
X121920000Y-81280000D01*
X194310000Y-83820000D02*
X189230000Y-78740000D01*
X194310000Y-101600000D02*
X194310000Y-83820000D01*
X125730000Y-99060000D02*
X130810000Y-104140000D01*
X191770000Y-104140000D02*
X194310000Y-101600000D01*
X130810000Y-104140000D02*
X191770000Y-104140000D01*
X189230000Y-53585998D02*
X189230000Y-53340000D01*
X194310000Y-58665998D02*
X189230000Y-53585998D01*
X194310000Y-83820000D02*
X194310000Y-58665998D01*
X120650000Y-82550000D02*
X120650000Y-87630000D01*
X120650000Y-87630000D02*
X121920000Y-88900000D01*
X121920000Y-95250000D02*
X125730000Y-99060000D01*
X121920000Y-88900000D02*
X121920000Y-95250000D01*
D22*
X128270000Y-86360000D02*
X124460000Y-82550000D01*
D21*
X111760000Y-61982600D02*
X111760000Y-78740000D01*
X133350000Y-52070000D02*
X121672600Y-52070000D01*
X121672600Y-52070000D02*
X111760000Y-61982600D01*
X118110000Y-93980000D02*
X113030000Y-99060000D01*
X118110000Y-91440000D02*
X118110000Y-93980000D01*
D22*
X115570000Y-88900000D02*
X118110000Y-86360000D01*
X113030000Y-88900000D02*
X115570000Y-88900000D01*
X175279999Y-69869999D02*
X175279999Y-63519999D01*
X176530000Y-71120000D02*
X175279999Y-69869999D01*
X175279999Y-63519999D02*
X161290000Y-49530000D01*
X145360002Y-49530000D02*
X137160000Y-57730002D01*
X161290000Y-49530000D02*
X145360002Y-49530000D01*
X137160000Y-58420000D02*
X133350000Y-62230000D01*
X137160000Y-57730002D02*
X137160000Y-58420000D01*
X142240000Y-81280000D02*
X133350000Y-72390000D01*
X176530000Y-81280000D02*
X142240000Y-81280000D01*
X142240000Y-83820000D02*
X133350000Y-74930000D01*
X176530000Y-83820000D02*
X142240000Y-83820000D01*
X176530000Y-86360000D02*
X162560000Y-100330000D01*
X162560000Y-100330000D02*
X156210000Y-100330000D01*
X156210000Y-100330000D02*
X133350000Y-77470000D01*
X176530000Y-93980000D02*
X171450000Y-93980000D01*
X171450000Y-93980000D02*
X163830000Y-101600000D01*
X154940000Y-101600000D02*
X133350000Y-80010000D01*
X163830000Y-101600000D02*
X154940000Y-101600000D01*
X176530000Y-96520000D02*
X171450000Y-96520000D01*
X171450000Y-96520000D02*
X165100000Y-102870000D01*
X152980002Y-102870000D02*
X137160000Y-87049998D01*
X165100000Y-102870000D02*
X152980002Y-102870000D01*
X137160000Y-86360000D02*
X133350000Y-82550000D01*
X137160000Y-87049998D02*
X137160000Y-86360000D01*
X171450000Y-77470000D02*
X166370000Y-77470000D01*
X166370000Y-77470000D02*
X165100000Y-78740000D01*
X166370000Y-85090000D02*
X158750000Y-92710000D01*
X171450000Y-85090000D02*
X166370000Y-85090000D01*
X171450000Y-87630000D02*
X165100000Y-87630000D01*
X165100000Y-87630000D02*
X162560000Y-90170000D01*
X158750000Y-113030000D02*
X166370000Y-113030000D01*
X166370000Y-113030000D02*
X172720000Y-106680000D01*
X176530000Y-73660000D02*
X160020000Y-73660000D01*
X160020000Y-73660000D02*
X158750000Y-72390000D01*
X179070000Y-76200000D02*
X176530000Y-73660000D01*
X175260000Y-101600000D02*
X179070000Y-97790000D01*
X179070000Y-97790000D02*
X179070000Y-76200000D01*
X184950001Y-105879999D02*
X185420000Y-105410000D01*
X158750000Y-110490000D02*
X163360001Y-105879999D01*
X163360001Y-105879999D02*
X184950001Y-105879999D01*
X165100000Y-63500000D02*
X158750000Y-69850000D01*
X165100000Y-57150000D02*
X165100000Y-63500000D01*
D23*
G36*
X144766711Y-48936709D02*
G01*
X144740561Y-48968573D01*
X136598579Y-57110556D01*
X136566709Y-57136711D01*
X136494945Y-57224157D01*
X136462364Y-57263857D01*
X136384828Y-57408916D01*
X136337082Y-57566314D01*
X136320960Y-57730002D01*
X136325000Y-57771020D01*
X136325000Y-58074131D01*
X134835000Y-59564132D01*
X134835000Y-59543740D01*
X134777932Y-59256842D01*
X134665990Y-58986589D01*
X134503475Y-58743368D01*
X134296632Y-58536525D01*
X134122240Y-58420000D01*
X134296632Y-58303475D01*
X134503475Y-58096632D01*
X134665990Y-57853411D01*
X134777932Y-57583158D01*
X134835000Y-57296260D01*
X134835000Y-57003740D01*
X134777932Y-56716842D01*
X134665990Y-56446589D01*
X134503475Y-56203368D01*
X134296632Y-55996525D01*
X134114466Y-55874805D01*
X134231355Y-55805178D01*
X134447588Y-55610269D01*
X134621641Y-55376920D01*
X134746825Y-55114099D01*
X134791476Y-54966890D01*
X134670155Y-54737000D01*
X133477000Y-54737000D01*
X133477000Y-54757000D01*
X133223000Y-54757000D01*
X133223000Y-54737000D01*
X132029845Y-54737000D01*
X131908524Y-54966890D01*
X131953175Y-55114099D01*
X132078359Y-55376920D01*
X132252412Y-55610269D01*
X132468645Y-55805178D01*
X132585534Y-55874805D01*
X132403368Y-55996525D01*
X132196525Y-56203368D01*
X132034010Y-56446589D01*
X131922068Y-56716842D01*
X131865000Y-57003740D01*
X131865000Y-57296260D01*
X131922068Y-57583158D01*
X132034010Y-57853411D01*
X132196525Y-58096632D01*
X132403368Y-58303475D01*
X132577760Y-58420000D01*
X132403368Y-58536525D01*
X132196525Y-58743368D01*
X132034010Y-58986589D01*
X131922068Y-59256842D01*
X131865000Y-59543740D01*
X131865000Y-59836260D01*
X131922068Y-60123158D01*
X132034010Y-60393411D01*
X132196525Y-60636632D01*
X132403368Y-60843475D01*
X132577760Y-60960000D01*
X132403368Y-61076525D01*
X132196525Y-61283368D01*
X132034010Y-61526589D01*
X131922068Y-61796842D01*
X131865000Y-62083740D01*
X131865000Y-62376260D01*
X131922068Y-62663158D01*
X132034010Y-62933411D01*
X132196525Y-63176632D01*
X132403368Y-63383475D01*
X132585534Y-63505195D01*
X132468645Y-63574822D01*
X132252412Y-63769731D01*
X132078359Y-64003080D01*
X131953175Y-64265901D01*
X131908524Y-64413110D01*
X132029845Y-64643000D01*
X133223000Y-64643000D01*
X133223000Y-64623000D01*
X133477000Y-64623000D01*
X133477000Y-64643000D01*
X134670155Y-64643000D01*
X134791476Y-64413110D01*
X134746825Y-64265901D01*
X134621641Y-64003080D01*
X134447588Y-63769731D01*
X134231355Y-63574822D01*
X134114466Y-63505195D01*
X134296632Y-63383475D01*
X134503475Y-63176632D01*
X134665990Y-62933411D01*
X134777932Y-62663158D01*
X134835000Y-62376260D01*
X134835000Y-62083740D01*
X134808807Y-61952060D01*
X137721432Y-59039437D01*
X137753291Y-59013291D01*
X137857636Y-58886146D01*
X137935172Y-58741087D01*
X137982918Y-58583689D01*
X137995000Y-58461019D01*
X137995000Y-58461018D01*
X137999040Y-58420000D01*
X137995000Y-58378982D01*
X137995000Y-58075869D01*
X145705870Y-50365000D01*
X160944133Y-50365000D01*
X174445000Y-63865868D01*
X174444999Y-69828980D01*
X174440959Y-69869999D01*
X174444999Y-69911017D01*
X174457081Y-70033687D01*
X174504827Y-70191085D01*
X174582363Y-70336144D01*
X174686708Y-70463290D01*
X174718578Y-70489445D01*
X175071193Y-70842060D01*
X175045000Y-70973740D01*
X175045000Y-71266260D01*
X175102068Y-71553158D01*
X175214010Y-71823411D01*
X175376525Y-72066632D01*
X175583368Y-72273475D01*
X175826589Y-72435990D01*
X176096842Y-72547932D01*
X176383740Y-72605000D01*
X176676260Y-72605000D01*
X176963158Y-72547932D01*
X177233411Y-72435990D01*
X177476632Y-72273475D01*
X177683475Y-72066632D01*
X177845990Y-71823411D01*
X177957932Y-71553158D01*
X177973102Y-71476890D01*
X187788524Y-71476890D01*
X187833175Y-71624099D01*
X187958359Y-71886920D01*
X188132412Y-72120269D01*
X188348645Y-72315178D01*
X188598748Y-72464157D01*
X188873109Y-72561481D01*
X189103000Y-72440814D01*
X189103000Y-71247000D01*
X189357000Y-71247000D01*
X189357000Y-72440814D01*
X189586891Y-72561481D01*
X189861252Y-72464157D01*
X190111355Y-72315178D01*
X190327588Y-72120269D01*
X190501641Y-71886920D01*
X190626825Y-71624099D01*
X190671476Y-71476890D01*
X190550155Y-71247000D01*
X189357000Y-71247000D01*
X189103000Y-71247000D01*
X187909845Y-71247000D01*
X187788524Y-71476890D01*
X177973102Y-71476890D01*
X178015000Y-71266260D01*
X178015000Y-70973740D01*
X177957932Y-70686842D01*
X177845990Y-70416589D01*
X177683475Y-70173368D01*
X177476632Y-69966525D01*
X177302240Y-69850000D01*
X177476632Y-69733475D01*
X177683475Y-69526632D01*
X177845990Y-69283411D01*
X177957932Y-69013158D01*
X178015000Y-68726260D01*
X178015000Y-68433740D01*
X177957932Y-68146842D01*
X177845990Y-67876589D01*
X177683475Y-67633368D01*
X177476632Y-67426525D01*
X177302240Y-67310000D01*
X177476632Y-67193475D01*
X177683475Y-66986632D01*
X177845990Y-66743411D01*
X177957932Y-66473158D01*
X178015000Y-66186260D01*
X178015000Y-65893740D01*
X177957932Y-65606842D01*
X177845990Y-65336589D01*
X177683475Y-65093368D01*
X177476632Y-64886525D01*
X177302240Y-64770000D01*
X177476632Y-64653475D01*
X177683475Y-64446632D01*
X177845990Y-64203411D01*
X177957932Y-63933158D01*
X178015000Y-63646260D01*
X178015000Y-63353740D01*
X177957932Y-63066842D01*
X177845990Y-62796589D01*
X177683475Y-62553368D01*
X177476632Y-62346525D01*
X177302240Y-62230000D01*
X177476632Y-62113475D01*
X177683475Y-61906632D01*
X177845990Y-61663411D01*
X177957932Y-61393158D01*
X178015000Y-61106260D01*
X178015000Y-60813740D01*
X177957932Y-60526842D01*
X177845990Y-60256589D01*
X177683475Y-60013368D01*
X177476632Y-59806525D01*
X177302240Y-59690000D01*
X177476632Y-59573475D01*
X177683475Y-59366632D01*
X177845990Y-59123411D01*
X177957932Y-58853158D01*
X178015000Y-58566260D01*
X178015000Y-58273740D01*
X177957932Y-57986842D01*
X177845990Y-57716589D01*
X177683475Y-57473368D01*
X177476632Y-57266525D01*
X177302240Y-57150000D01*
X177476632Y-57033475D01*
X177683475Y-56826632D01*
X177845990Y-56583411D01*
X177957932Y-56313158D01*
X178015000Y-56026260D01*
X178015000Y-55733740D01*
X177957932Y-55446842D01*
X177845990Y-55176589D01*
X177683475Y-54933368D01*
X177551620Y-54801513D01*
X177624180Y-54779502D01*
X177734494Y-54720537D01*
X177831185Y-54641185D01*
X177910537Y-54544494D01*
X177969502Y-54434180D01*
X178005812Y-54314482D01*
X178018072Y-54190000D01*
X178018072Y-52490000D01*
X178005812Y-52365518D01*
X177969502Y-52245820D01*
X177910537Y-52135506D01*
X177831185Y-52038815D01*
X177734494Y-51959463D01*
X177624180Y-51900498D01*
X177504482Y-51864188D01*
X177380000Y-51851928D01*
X175680000Y-51851928D01*
X175555518Y-51864188D01*
X175435820Y-51900498D01*
X175325506Y-51959463D01*
X175228815Y-52038815D01*
X175149463Y-52135506D01*
X175090498Y-52245820D01*
X175054188Y-52365518D01*
X175041928Y-52490000D01*
X175041928Y-54190000D01*
X175054188Y-54314482D01*
X175090498Y-54434180D01*
X175149463Y-54544494D01*
X175228815Y-54641185D01*
X175325506Y-54720537D01*
X175435820Y-54779502D01*
X175508380Y-54801513D01*
X175376525Y-54933368D01*
X175214010Y-55176589D01*
X175102068Y-55446842D01*
X175045000Y-55733740D01*
X175045000Y-56026260D01*
X175102068Y-56313158D01*
X175214010Y-56583411D01*
X175376525Y-56826632D01*
X175583368Y-57033475D01*
X175757760Y-57150000D01*
X175583368Y-57266525D01*
X175376525Y-57473368D01*
X175214010Y-57716589D01*
X175102068Y-57986842D01*
X175045000Y-58273740D01*
X175045000Y-58566260D01*
X175102068Y-58853158D01*
X175214010Y-59123411D01*
X175376525Y-59366632D01*
X175583368Y-59573475D01*
X175757760Y-59690000D01*
X175583368Y-59806525D01*
X175376525Y-60013368D01*
X175214010Y-60256589D01*
X175102068Y-60526842D01*
X175045000Y-60813740D01*
X175045000Y-61106260D01*
X175102068Y-61393158D01*
X175214010Y-61663411D01*
X175376525Y-61906632D01*
X175583368Y-62113475D01*
X175757760Y-62230000D01*
X175583368Y-62346525D01*
X175435380Y-62494513D01*
X164790739Y-51849872D01*
X197155000Y-51849872D01*
X197155000Y-52290128D01*
X197240890Y-52721925D01*
X197409369Y-53128669D01*
X197653962Y-53494729D01*
X197965271Y-53806038D01*
X198331331Y-54050631D01*
X198738075Y-54219110D01*
X199169872Y-54305000D01*
X199610128Y-54305000D01*
X200041925Y-54219110D01*
X200448669Y-54050631D01*
X200814729Y-53806038D01*
X201126038Y-53494729D01*
X201370631Y-53128669D01*
X201539110Y-52721925D01*
X201625000Y-52290128D01*
X201625000Y-51849872D01*
X201539110Y-51418075D01*
X201370631Y-51011331D01*
X201126038Y-50645271D01*
X200814729Y-50333962D01*
X200448669Y-50089369D01*
X200041925Y-49920890D01*
X199610128Y-49835000D01*
X199169872Y-49835000D01*
X198738075Y-49920890D01*
X198331331Y-50089369D01*
X197965271Y-50333962D01*
X197653962Y-50645271D01*
X197409369Y-51011331D01*
X197240890Y-51418075D01*
X197155000Y-51849872D01*
X164790739Y-51849872D01*
X161909446Y-48968579D01*
X161883291Y-48936709D01*
X161862931Y-48920000D01*
X202540000Y-48920000D01*
X202540001Y-121260000D01*
X108610000Y-121260000D01*
X108610000Y-117889872D01*
X109525000Y-117889872D01*
X109525000Y-118330128D01*
X109610890Y-118761925D01*
X109779369Y-119168669D01*
X110023962Y-119534729D01*
X110335271Y-119846038D01*
X110701331Y-120090631D01*
X111108075Y-120259110D01*
X111539872Y-120345000D01*
X111980128Y-120345000D01*
X112411925Y-120259110D01*
X112818669Y-120090631D01*
X113184729Y-119846038D01*
X113496038Y-119534729D01*
X113740631Y-119168669D01*
X113909110Y-118761925D01*
X113967796Y-118466890D01*
X157308524Y-118466890D01*
X157353175Y-118614099D01*
X157478359Y-118876920D01*
X157652412Y-119110269D01*
X157868645Y-119305178D01*
X158118748Y-119454157D01*
X158393109Y-119551481D01*
X158623000Y-119430814D01*
X158623000Y-118237000D01*
X158877000Y-118237000D01*
X158877000Y-119430814D01*
X159106891Y-119551481D01*
X159381252Y-119454157D01*
X159631355Y-119305178D01*
X159847588Y-119110269D01*
X160021641Y-118876920D01*
X160146825Y-118614099D01*
X160191476Y-118466890D01*
X175088524Y-118466890D01*
X175133175Y-118614099D01*
X175258359Y-118876920D01*
X175432412Y-119110269D01*
X175648645Y-119305178D01*
X175898748Y-119454157D01*
X176173109Y-119551481D01*
X176403000Y-119430814D01*
X176403000Y-118237000D01*
X176657000Y-118237000D01*
X176657000Y-119430814D01*
X176886891Y-119551481D01*
X177161252Y-119454157D01*
X177411355Y-119305178D01*
X177627588Y-119110269D01*
X177801641Y-118876920D01*
X177926825Y-118614099D01*
X177971476Y-118466890D01*
X177850155Y-118237000D01*
X176657000Y-118237000D01*
X176403000Y-118237000D01*
X175209845Y-118237000D01*
X175088524Y-118466890D01*
X160191476Y-118466890D01*
X160070155Y-118237000D01*
X158877000Y-118237000D01*
X158623000Y-118237000D01*
X157429845Y-118237000D01*
X157308524Y-118466890D01*
X113967796Y-118466890D01*
X113995000Y-118330128D01*
X113995000Y-117889872D01*
X113909110Y-117458075D01*
X113740631Y-117051331D01*
X113496038Y-116685271D01*
X113184729Y-116373962D01*
X112818669Y-116129369D01*
X112411925Y-115960890D01*
X111980128Y-115875000D01*
X111539872Y-115875000D01*
X111108075Y-115960890D01*
X110701331Y-116129369D01*
X110335271Y-116373962D01*
X110023962Y-116685271D01*
X109779369Y-117051331D01*
X109610890Y-117458075D01*
X109525000Y-117889872D01*
X108610000Y-117889872D01*
X108610000Y-100052702D01*
X109716903Y-100052702D01*
X109788486Y-100296671D01*
X110043996Y-100417571D01*
X110318184Y-100486300D01*
X110600512Y-100500217D01*
X110880130Y-100458787D01*
X111146292Y-100363603D01*
X111271514Y-100296671D01*
X111343097Y-100052702D01*
X110530000Y-99239605D01*
X109716903Y-100052702D01*
X108610000Y-100052702D01*
X108610000Y-99130512D01*
X109089783Y-99130512D01*
X109131213Y-99410130D01*
X109226397Y-99676292D01*
X109293329Y-99801514D01*
X109537298Y-99873097D01*
X110350395Y-99060000D01*
X109537298Y-98246903D01*
X109293329Y-98318486D01*
X109172429Y-98573996D01*
X109103700Y-98848184D01*
X109089783Y-99130512D01*
X108610000Y-99130512D01*
X108610000Y-98067298D01*
X109716903Y-98067298D01*
X110530000Y-98880395D01*
X111343097Y-98067298D01*
X111271514Y-97823329D01*
X111016004Y-97702429D01*
X110741816Y-97633700D01*
X110459488Y-97619783D01*
X110179870Y-97661213D01*
X109913708Y-97756397D01*
X109788486Y-97823329D01*
X109716903Y-98067298D01*
X108610000Y-98067298D01*
X108610000Y-89800000D01*
X108951928Y-89800000D01*
X108964188Y-89924482D01*
X109000498Y-90044180D01*
X109059463Y-90154494D01*
X109138815Y-90251185D01*
X109235506Y-90330537D01*
X109345820Y-90389502D01*
X109465518Y-90425812D01*
X109590000Y-90438072D01*
X110204250Y-90435000D01*
X110363000Y-90276250D01*
X110363000Y-89027000D01*
X109113750Y-89027000D01*
X108955000Y-89185750D01*
X108951928Y-89800000D01*
X108610000Y-89800000D01*
X108610000Y-88000000D01*
X108951928Y-88000000D01*
X108955000Y-88614250D01*
X109113750Y-88773000D01*
X110363000Y-88773000D01*
X110363000Y-87523750D01*
X110617000Y-87523750D01*
X110617000Y-88773000D01*
X110637000Y-88773000D01*
X110637000Y-89027000D01*
X110617000Y-89027000D01*
X110617000Y-90276250D01*
X110775750Y-90435000D01*
X111390000Y-90438072D01*
X111514482Y-90425812D01*
X111634180Y-90389502D01*
X111744494Y-90330537D01*
X111841185Y-90251185D01*
X111920537Y-90154494D01*
X111979502Y-90044180D01*
X111985056Y-90025873D01*
X112051495Y-90092312D01*
X112302905Y-90260299D01*
X112582257Y-90376011D01*
X112878816Y-90435000D01*
X113181184Y-90435000D01*
X113477743Y-90376011D01*
X113757095Y-90260299D01*
X114008505Y-90092312D01*
X114222312Y-89878505D01*
X114318199Y-89735000D01*
X115528982Y-89735000D01*
X115570000Y-89739040D01*
X115611018Y-89735000D01*
X115611019Y-89735000D01*
X115733689Y-89722918D01*
X115891087Y-89675172D01*
X116036146Y-89597636D01*
X116163291Y-89493291D01*
X116189446Y-89461421D01*
X117874582Y-87776286D01*
X117968665Y-87795000D01*
X118251335Y-87795000D01*
X118528574Y-87739853D01*
X118789727Y-87631680D01*
X119024759Y-87474637D01*
X119224637Y-87274759D01*
X119381680Y-87039727D01*
X119489853Y-86778574D01*
X119515001Y-86652149D01*
X119515001Y-87574239D01*
X119509509Y-87630000D01*
X119531423Y-87852498D01*
X119596324Y-88066446D01*
X119596325Y-88066447D01*
X119701717Y-88263623D01*
X119843552Y-88436449D01*
X119886860Y-88471991D01*
X120785000Y-89370132D01*
X120785000Y-90171857D01*
X120596004Y-90082429D01*
X120321816Y-90013700D01*
X120039488Y-89999783D01*
X119759870Y-90041213D01*
X119493708Y-90136397D01*
X119371691Y-90201616D01*
X119361185Y-90188815D01*
X119264494Y-90109463D01*
X119154180Y-90050498D01*
X119034482Y-90014188D01*
X118910000Y-90001928D01*
X117310000Y-90001928D01*
X117185518Y-90014188D01*
X117065820Y-90050498D01*
X116955506Y-90109463D01*
X116858815Y-90188815D01*
X116779463Y-90285506D01*
X116720498Y-90395820D01*
X116684188Y-90515518D01*
X116671928Y-90640000D01*
X116671928Y-92240000D01*
X116684188Y-92364482D01*
X116720498Y-92484180D01*
X116779463Y-92594494D01*
X116858815Y-92691185D01*
X116955506Y-92770537D01*
X116975001Y-92780957D01*
X116975001Y-93509867D01*
X112862941Y-97621928D01*
X112230000Y-97621928D01*
X112105518Y-97634188D01*
X111985820Y-97670498D01*
X111875506Y-97729463D01*
X111778815Y-97808815D01*
X111699463Y-97905506D01*
X111640498Y-98015820D01*
X111604188Y-98135518D01*
X111591928Y-98260000D01*
X111591928Y-98267215D01*
X111522702Y-98246903D01*
X110709605Y-99060000D01*
X111522702Y-99873097D01*
X111591928Y-99852785D01*
X111591928Y-99860000D01*
X111604188Y-99984482D01*
X111640498Y-100104180D01*
X111699463Y-100214494D01*
X111778815Y-100311185D01*
X111875506Y-100390537D01*
X111985820Y-100449502D01*
X112105518Y-100485812D01*
X112230000Y-100498072D01*
X113830000Y-100498072D01*
X113954482Y-100485812D01*
X114074180Y-100449502D01*
X114184494Y-100390537D01*
X114281185Y-100311185D01*
X114360537Y-100214494D01*
X114419502Y-100104180D01*
X114455812Y-99984482D01*
X114468072Y-99860000D01*
X114468072Y-99227059D01*
X115435131Y-98260000D01*
X116671928Y-98260000D01*
X116671928Y-99860000D01*
X116684188Y-99984482D01*
X116720498Y-100104180D01*
X116779463Y-100214494D01*
X116858815Y-100311185D01*
X116955506Y-100390537D01*
X117065820Y-100449502D01*
X117185518Y-100485812D01*
X117310000Y-100498072D01*
X118910000Y-100498072D01*
X119034482Y-100485812D01*
X119154180Y-100449502D01*
X119264494Y-100390537D01*
X119361185Y-100311185D01*
X119440537Y-100214494D01*
X119499502Y-100104180D01*
X119515117Y-100052702D01*
X119796903Y-100052702D01*
X119868486Y-100296671D01*
X120123996Y-100417571D01*
X120398184Y-100486300D01*
X120680512Y-100500217D01*
X120960130Y-100458787D01*
X121226292Y-100363603D01*
X121351514Y-100296671D01*
X121423097Y-100052702D01*
X120610000Y-99239605D01*
X119796903Y-100052702D01*
X119515117Y-100052702D01*
X119535812Y-99984482D01*
X119548072Y-99860000D01*
X119548072Y-99852785D01*
X119617298Y-99873097D01*
X120430395Y-99060000D01*
X120789605Y-99060000D01*
X121602702Y-99873097D01*
X121846671Y-99801514D01*
X121967571Y-99546004D01*
X122036300Y-99271816D01*
X122050217Y-98989488D01*
X122008787Y-98709870D01*
X121913603Y-98443708D01*
X121846671Y-98318486D01*
X121602702Y-98246903D01*
X120789605Y-99060000D01*
X120430395Y-99060000D01*
X119617298Y-98246903D01*
X119548072Y-98267215D01*
X119548072Y-98260000D01*
X119535812Y-98135518D01*
X119515118Y-98067298D01*
X119796903Y-98067298D01*
X120610000Y-98880395D01*
X121423097Y-98067298D01*
X121351514Y-97823329D01*
X121096004Y-97702429D01*
X120821816Y-97633700D01*
X120539488Y-97619783D01*
X120259870Y-97661213D01*
X119993708Y-97756397D01*
X119868486Y-97823329D01*
X119796903Y-98067298D01*
X119515118Y-98067298D01*
X119499502Y-98015820D01*
X119440537Y-97905506D01*
X119361185Y-97808815D01*
X119264494Y-97729463D01*
X119154180Y-97670498D01*
X119034482Y-97634188D01*
X118910000Y-97621928D01*
X117310000Y-97621928D01*
X117185518Y-97634188D01*
X117065820Y-97670498D01*
X116955506Y-97729463D01*
X116858815Y-97808815D01*
X116779463Y-97905506D01*
X116720498Y-98015820D01*
X116684188Y-98135518D01*
X116671928Y-98260000D01*
X115435131Y-98260000D01*
X118873141Y-94821991D01*
X118916449Y-94786449D01*
X119058284Y-94613623D01*
X119163676Y-94416447D01*
X119228577Y-94202499D01*
X119245000Y-94035752D01*
X119250491Y-93980000D01*
X119245000Y-93924249D01*
X119245000Y-92780957D01*
X119264494Y-92770537D01*
X119361185Y-92691185D01*
X119371807Y-92678242D01*
X119623996Y-92797571D01*
X119898184Y-92866300D01*
X120180512Y-92880217D01*
X120460130Y-92838787D01*
X120726292Y-92743603D01*
X120785001Y-92712223D01*
X120785001Y-95194239D01*
X120779509Y-95250000D01*
X120801423Y-95472498D01*
X120866324Y-95686446D01*
X120866325Y-95686447D01*
X120971717Y-95883623D01*
X121113552Y-96056449D01*
X121156860Y-96091991D01*
X124291928Y-99227061D01*
X124291928Y-99860000D01*
X124304188Y-99984482D01*
X124340498Y-100104180D01*
X124399463Y-100214494D01*
X124478815Y-100311185D01*
X124575506Y-100390537D01*
X124685820Y-100449502D01*
X124805518Y-100485812D01*
X124930000Y-100498072D01*
X125562941Y-100498072D01*
X129968009Y-104903141D01*
X130003551Y-104946449D01*
X130138356Y-105057081D01*
X130176377Y-105088284D01*
X130373553Y-105193676D01*
X130587501Y-105258577D01*
X130810000Y-105280491D01*
X130865751Y-105275000D01*
X162780976Y-105275000D01*
X162766710Y-105286708D01*
X162740564Y-105318567D01*
X159057205Y-109001928D01*
X157900000Y-109001928D01*
X157775518Y-109014188D01*
X157655820Y-109050498D01*
X157545506Y-109109463D01*
X157448815Y-109188815D01*
X157369463Y-109285506D01*
X157310498Y-109395820D01*
X157274188Y-109515518D01*
X157261928Y-109640000D01*
X157261928Y-111340000D01*
X157274188Y-111464482D01*
X157310498Y-111584180D01*
X157369463Y-111694494D01*
X157448815Y-111791185D01*
X157545506Y-111870537D01*
X157655820Y-111929502D01*
X157728380Y-111951513D01*
X157596525Y-112083368D01*
X157434010Y-112326589D01*
X157322068Y-112596842D01*
X157265000Y-112883740D01*
X157265000Y-113176260D01*
X157322068Y-113463158D01*
X157434010Y-113733411D01*
X157596525Y-113976632D01*
X157803368Y-114183475D01*
X157977760Y-114300000D01*
X157803368Y-114416525D01*
X157596525Y-114623368D01*
X157434010Y-114866589D01*
X157322068Y-115136842D01*
X157265000Y-115423740D01*
X157265000Y-115716260D01*
X157322068Y-116003158D01*
X157434010Y-116273411D01*
X157596525Y-116516632D01*
X157803368Y-116723475D01*
X157985534Y-116845195D01*
X157868645Y-116914822D01*
X157652412Y-117109731D01*
X157478359Y-117343080D01*
X157353175Y-117605901D01*
X157308524Y-117753110D01*
X157429845Y-117983000D01*
X158623000Y-117983000D01*
X158623000Y-117963000D01*
X158877000Y-117963000D01*
X158877000Y-117983000D01*
X160070155Y-117983000D01*
X160191476Y-117753110D01*
X160146825Y-117605901D01*
X160021641Y-117343080D01*
X159847588Y-117109731D01*
X159631355Y-116914822D01*
X159514466Y-116845195D01*
X159696632Y-116723475D01*
X159903475Y-116516632D01*
X160065990Y-116273411D01*
X160177932Y-116003158D01*
X160235000Y-115716260D01*
X160235000Y-115423740D01*
X160177932Y-115136842D01*
X160065990Y-114866589D01*
X159903475Y-114623368D01*
X159696632Y-114416525D01*
X159522240Y-114300000D01*
X159696632Y-114183475D01*
X159903475Y-113976632D01*
X159978065Y-113865000D01*
X166328982Y-113865000D01*
X166370000Y-113869040D01*
X166411018Y-113865000D01*
X166411019Y-113865000D01*
X166533689Y-113852918D01*
X166691087Y-113805172D01*
X166836146Y-113727636D01*
X166963291Y-113623291D01*
X166989446Y-113591421D01*
X170940867Y-109640000D01*
X175041928Y-109640000D01*
X175041928Y-111340000D01*
X175054188Y-111464482D01*
X175090498Y-111584180D01*
X175149463Y-111694494D01*
X175228815Y-111791185D01*
X175325506Y-111870537D01*
X175435820Y-111929502D01*
X175508380Y-111951513D01*
X175376525Y-112083368D01*
X175214010Y-112326589D01*
X175102068Y-112596842D01*
X175045000Y-112883740D01*
X175045000Y-113176260D01*
X175102068Y-113463158D01*
X175214010Y-113733411D01*
X175376525Y-113976632D01*
X175583368Y-114183475D01*
X175757760Y-114300000D01*
X175583368Y-114416525D01*
X175376525Y-114623368D01*
X175214010Y-114866589D01*
X175102068Y-115136842D01*
X175045000Y-115423740D01*
X175045000Y-115716260D01*
X175102068Y-116003158D01*
X175214010Y-116273411D01*
X175376525Y-116516632D01*
X175583368Y-116723475D01*
X175765534Y-116845195D01*
X175648645Y-116914822D01*
X175432412Y-117109731D01*
X175258359Y-117343080D01*
X175133175Y-117605901D01*
X175088524Y-117753110D01*
X175209845Y-117983000D01*
X176403000Y-117983000D01*
X176403000Y-117963000D01*
X176657000Y-117963000D01*
X176657000Y-117983000D01*
X177850155Y-117983000D01*
X177899301Y-117889872D01*
X197155000Y-117889872D01*
X197155000Y-118330128D01*
X197240890Y-118761925D01*
X197409369Y-119168669D01*
X197653962Y-119534729D01*
X197965271Y-119846038D01*
X198331331Y-120090631D01*
X198738075Y-120259110D01*
X199169872Y-120345000D01*
X199610128Y-120345000D01*
X200041925Y-120259110D01*
X200448669Y-120090631D01*
X200814729Y-119846038D01*
X201126038Y-119534729D01*
X201370631Y-119168669D01*
X201539110Y-118761925D01*
X201625000Y-118330128D01*
X201625000Y-117889872D01*
X201539110Y-117458075D01*
X201370631Y-117051331D01*
X201126038Y-116685271D01*
X200814729Y-116373962D01*
X200448669Y-116129369D01*
X200041925Y-115960890D01*
X199610128Y-115875000D01*
X199169872Y-115875000D01*
X198738075Y-115960890D01*
X198331331Y-116129369D01*
X197965271Y-116373962D01*
X197653962Y-116685271D01*
X197409369Y-117051331D01*
X197240890Y-117458075D01*
X197155000Y-117889872D01*
X177899301Y-117889872D01*
X177971476Y-117753110D01*
X177926825Y-117605901D01*
X177801641Y-117343080D01*
X177627588Y-117109731D01*
X177411355Y-116914822D01*
X177294466Y-116845195D01*
X177476632Y-116723475D01*
X177683475Y-116516632D01*
X177845990Y-116273411D01*
X177957932Y-116003158D01*
X178015000Y-115716260D01*
X178015000Y-115423740D01*
X177957932Y-115136842D01*
X177845990Y-114866589D01*
X177683475Y-114623368D01*
X177476632Y-114416525D01*
X177302240Y-114300000D01*
X177476632Y-114183475D01*
X177683475Y-113976632D01*
X177845990Y-113733411D01*
X177957932Y-113463158D01*
X178015000Y-113176260D01*
X178015000Y-112883740D01*
X177957932Y-112596842D01*
X177845990Y-112326589D01*
X177683475Y-112083368D01*
X177551620Y-111951513D01*
X177624180Y-111929502D01*
X177734494Y-111870537D01*
X177831185Y-111791185D01*
X177910537Y-111694494D01*
X177969502Y-111584180D01*
X178005812Y-111464482D01*
X178018072Y-111340000D01*
X178018072Y-109640000D01*
X178005812Y-109515518D01*
X177969502Y-109395820D01*
X177910537Y-109285506D01*
X177831185Y-109188815D01*
X177734494Y-109109463D01*
X177624180Y-109050498D01*
X177504482Y-109014188D01*
X177380000Y-109001928D01*
X175680000Y-109001928D01*
X175555518Y-109014188D01*
X175435820Y-109050498D01*
X175325506Y-109109463D01*
X175228815Y-109188815D01*
X175149463Y-109285506D01*
X175090498Y-109395820D01*
X175054188Y-109515518D01*
X175041928Y-109640000D01*
X170940867Y-109640000D01*
X172876775Y-107704092D01*
X173021898Y-107675226D01*
X173210256Y-107597205D01*
X173379774Y-107483937D01*
X173523937Y-107339774D01*
X173637205Y-107170256D01*
X173715226Y-106981898D01*
X173755000Y-106781939D01*
X173755000Y-106714999D01*
X184908983Y-106714999D01*
X184950001Y-106719039D01*
X184991019Y-106714999D01*
X184991020Y-106714999D01*
X185113690Y-106702917D01*
X185271088Y-106655171D01*
X185416147Y-106577635D01*
X185543292Y-106473290D01*
X185569446Y-106441421D01*
X185576774Y-106434093D01*
X185721898Y-106405226D01*
X185910256Y-106327205D01*
X186079774Y-106213937D01*
X186223937Y-106069774D01*
X186337205Y-105900256D01*
X186415226Y-105711898D01*
X186455000Y-105511939D01*
X186455000Y-105308061D01*
X186448424Y-105275000D01*
X191714249Y-105275000D01*
X191770000Y-105280491D01*
X191825751Y-105275000D01*
X191825752Y-105275000D01*
X191992499Y-105258577D01*
X192206447Y-105193676D01*
X192403623Y-105088284D01*
X192576449Y-104946449D01*
X192611996Y-104903135D01*
X195073141Y-102441991D01*
X195116449Y-102406449D01*
X195258284Y-102233623D01*
X195363676Y-102036447D01*
X195428577Y-101822499D01*
X195445000Y-101655752D01*
X195445000Y-101655743D01*
X195450490Y-101600001D01*
X195445000Y-101544259D01*
X195445000Y-83875751D01*
X195450491Y-83820000D01*
X195445000Y-83764248D01*
X195445000Y-82970000D01*
X196631928Y-82970000D01*
X196631928Y-84670000D01*
X196644188Y-84794482D01*
X196680498Y-84914180D01*
X196739463Y-85024494D01*
X196818815Y-85121185D01*
X196915506Y-85200537D01*
X197025820Y-85259502D01*
X197098380Y-85281513D01*
X196966525Y-85413368D01*
X196804010Y-85656589D01*
X196692068Y-85926842D01*
X196635000Y-86213740D01*
X196635000Y-86506260D01*
X196692068Y-86793158D01*
X196804010Y-87063411D01*
X196966525Y-87306632D01*
X197173368Y-87513475D01*
X197347760Y-87630000D01*
X197173368Y-87746525D01*
X196966525Y-87953368D01*
X196804010Y-88196589D01*
X196692068Y-88466842D01*
X196635000Y-88753740D01*
X196635000Y-89046260D01*
X196692068Y-89333158D01*
X196804010Y-89603411D01*
X196966525Y-89846632D01*
X197173368Y-90053475D01*
X197347760Y-90170000D01*
X197173368Y-90286525D01*
X196966525Y-90493368D01*
X196804010Y-90736589D01*
X196692068Y-91006842D01*
X196635000Y-91293740D01*
X196635000Y-91586260D01*
X196692068Y-91873158D01*
X196804010Y-92143411D01*
X196966525Y-92386632D01*
X197173368Y-92593475D01*
X197416589Y-92755990D01*
X197686842Y-92867932D01*
X197973740Y-92925000D01*
X198266260Y-92925000D01*
X198553158Y-92867932D01*
X198823411Y-92755990D01*
X199066632Y-92593475D01*
X199273475Y-92386632D01*
X199435990Y-92143411D01*
X199547932Y-91873158D01*
X199605000Y-91586260D01*
X199605000Y-91293740D01*
X199547932Y-91006842D01*
X199435990Y-90736589D01*
X199273475Y-90493368D01*
X199066632Y-90286525D01*
X198892240Y-90170000D01*
X199066632Y-90053475D01*
X199273475Y-89846632D01*
X199435990Y-89603411D01*
X199547932Y-89333158D01*
X199605000Y-89046260D01*
X199605000Y-88753740D01*
X199547932Y-88466842D01*
X199435990Y-88196589D01*
X199273475Y-87953368D01*
X199066632Y-87746525D01*
X198892240Y-87630000D01*
X199066632Y-87513475D01*
X199273475Y-87306632D01*
X199435990Y-87063411D01*
X199547932Y-86793158D01*
X199605000Y-86506260D01*
X199605000Y-86213740D01*
X199547932Y-85926842D01*
X199435990Y-85656589D01*
X199273475Y-85413368D01*
X199141620Y-85281513D01*
X199214180Y-85259502D01*
X199324494Y-85200537D01*
X199421185Y-85121185D01*
X199500537Y-85024494D01*
X199559502Y-84914180D01*
X199595812Y-84794482D01*
X199608072Y-84670000D01*
X199608072Y-82970000D01*
X199595812Y-82845518D01*
X199559502Y-82725820D01*
X199500537Y-82615506D01*
X199421185Y-82518815D01*
X199324494Y-82439463D01*
X199214180Y-82380498D01*
X199094482Y-82344188D01*
X198970000Y-82331928D01*
X197270000Y-82331928D01*
X197145518Y-82344188D01*
X197025820Y-82380498D01*
X196915506Y-82439463D01*
X196818815Y-82518815D01*
X196739463Y-82615506D01*
X196680498Y-82725820D01*
X196644188Y-82845518D01*
X196631928Y-82970000D01*
X195445000Y-82970000D01*
X195445000Y-58721749D01*
X195450491Y-58665998D01*
X195428577Y-58443499D01*
X195363676Y-58229551D01*
X195258284Y-58032375D01*
X195193844Y-57953855D01*
X195116449Y-57859549D01*
X195073141Y-57824007D01*
X194819134Y-57570000D01*
X196631928Y-57570000D01*
X196631928Y-59270000D01*
X196644188Y-59394482D01*
X196680498Y-59514180D01*
X196739463Y-59624494D01*
X196818815Y-59721185D01*
X196915506Y-59800537D01*
X197025820Y-59859502D01*
X197098380Y-59881513D01*
X196966525Y-60013368D01*
X196804010Y-60256589D01*
X196692068Y-60526842D01*
X196635000Y-60813740D01*
X196635000Y-61106260D01*
X196692068Y-61393158D01*
X196804010Y-61663411D01*
X196966525Y-61906632D01*
X197173368Y-62113475D01*
X197347760Y-62230000D01*
X197173368Y-62346525D01*
X196966525Y-62553368D01*
X196804010Y-62796589D01*
X196692068Y-63066842D01*
X196635000Y-63353740D01*
X196635000Y-63646260D01*
X196692068Y-63933158D01*
X196804010Y-64203411D01*
X196966525Y-64446632D01*
X197173368Y-64653475D01*
X197347760Y-64770000D01*
X197173368Y-64886525D01*
X196966525Y-65093368D01*
X196804010Y-65336589D01*
X196692068Y-65606842D01*
X196635000Y-65893740D01*
X196635000Y-66186260D01*
X196692068Y-66473158D01*
X196804010Y-66743411D01*
X196966525Y-66986632D01*
X197173368Y-67193475D01*
X197416589Y-67355990D01*
X197686842Y-67467932D01*
X197973740Y-67525000D01*
X198266260Y-67525000D01*
X198553158Y-67467932D01*
X198823411Y-67355990D01*
X199066632Y-67193475D01*
X199273475Y-66986632D01*
X199435990Y-66743411D01*
X199547932Y-66473158D01*
X199605000Y-66186260D01*
X199605000Y-65893740D01*
X199547932Y-65606842D01*
X199435990Y-65336589D01*
X199273475Y-65093368D01*
X199066632Y-64886525D01*
X198892240Y-64770000D01*
X199066632Y-64653475D01*
X199273475Y-64446632D01*
X199435990Y-64203411D01*
X199547932Y-63933158D01*
X199605000Y-63646260D01*
X199605000Y-63353740D01*
X199547932Y-63066842D01*
X199435990Y-62796589D01*
X199273475Y-62553368D01*
X199066632Y-62346525D01*
X198892240Y-62230000D01*
X199066632Y-62113475D01*
X199273475Y-61906632D01*
X199435990Y-61663411D01*
X199547932Y-61393158D01*
X199605000Y-61106260D01*
X199605000Y-60813740D01*
X199547932Y-60526842D01*
X199435990Y-60256589D01*
X199273475Y-60013368D01*
X199141620Y-59881513D01*
X199214180Y-59859502D01*
X199324494Y-59800537D01*
X199421185Y-59721185D01*
X199500537Y-59624494D01*
X199559502Y-59514180D01*
X199595812Y-59394482D01*
X199608072Y-59270000D01*
X199608072Y-57570000D01*
X199595812Y-57445518D01*
X199559502Y-57325820D01*
X199500537Y-57215506D01*
X199421185Y-57118815D01*
X199324494Y-57039463D01*
X199214180Y-56980498D01*
X199094482Y-56944188D01*
X198970000Y-56931928D01*
X197270000Y-56931928D01*
X197145518Y-56944188D01*
X197025820Y-56980498D01*
X196915506Y-57039463D01*
X196818815Y-57118815D01*
X196739463Y-57215506D01*
X196680498Y-57325820D01*
X196644188Y-57445518D01*
X196631928Y-57570000D01*
X194819134Y-57570000D01*
X190718072Y-53468939D01*
X190718072Y-52490000D01*
X190705812Y-52365518D01*
X190669502Y-52245820D01*
X190610537Y-52135506D01*
X190531185Y-52038815D01*
X190434494Y-51959463D01*
X190324180Y-51900498D01*
X190204482Y-51864188D01*
X190080000Y-51851928D01*
X188380000Y-51851928D01*
X188255518Y-51864188D01*
X188135820Y-51900498D01*
X188025506Y-51959463D01*
X187928815Y-52038815D01*
X187849463Y-52135506D01*
X187790498Y-52245820D01*
X187754188Y-52365518D01*
X187741928Y-52490000D01*
X187741928Y-54190000D01*
X187754188Y-54314482D01*
X187790498Y-54434180D01*
X187849463Y-54544494D01*
X187928815Y-54641185D01*
X188025506Y-54720537D01*
X188135820Y-54779502D01*
X188216466Y-54803966D01*
X188132412Y-54879731D01*
X187958359Y-55113080D01*
X187833175Y-55375901D01*
X187788524Y-55523110D01*
X187909845Y-55753000D01*
X189103000Y-55753000D01*
X189103000Y-55733000D01*
X189357000Y-55733000D01*
X189357000Y-55753000D01*
X189377000Y-55753000D01*
X189377000Y-56007000D01*
X189357000Y-56007000D01*
X189357000Y-56027000D01*
X189103000Y-56027000D01*
X189103000Y-56007000D01*
X187909845Y-56007000D01*
X187788524Y-56236890D01*
X187833175Y-56384099D01*
X187958359Y-56646920D01*
X188132412Y-56880269D01*
X188348645Y-57075178D01*
X188465534Y-57144805D01*
X188283368Y-57266525D01*
X188076525Y-57473368D01*
X187914010Y-57716589D01*
X187802068Y-57986842D01*
X187745000Y-58273740D01*
X187745000Y-58566260D01*
X187802068Y-58853158D01*
X187914010Y-59123411D01*
X188076525Y-59366632D01*
X188283368Y-59573475D01*
X188457760Y-59690000D01*
X188283368Y-59806525D01*
X188076525Y-60013368D01*
X187914010Y-60256589D01*
X187802068Y-60526842D01*
X187745000Y-60813740D01*
X187745000Y-61106260D01*
X187802068Y-61393158D01*
X187914010Y-61663411D01*
X188076525Y-61906632D01*
X188283368Y-62113475D01*
X188457760Y-62230000D01*
X188283368Y-62346525D01*
X188076525Y-62553368D01*
X187914010Y-62796589D01*
X187802068Y-63066842D01*
X187745000Y-63353740D01*
X187745000Y-63646260D01*
X187802068Y-63933158D01*
X187914010Y-64203411D01*
X188076525Y-64446632D01*
X188283368Y-64653475D01*
X188457760Y-64770000D01*
X188283368Y-64886525D01*
X188076525Y-65093368D01*
X187914010Y-65336589D01*
X187802068Y-65606842D01*
X187745000Y-65893740D01*
X187745000Y-66186260D01*
X187802068Y-66473158D01*
X187914010Y-66743411D01*
X188076525Y-66986632D01*
X188283368Y-67193475D01*
X188457760Y-67310000D01*
X188283368Y-67426525D01*
X188076525Y-67633368D01*
X187914010Y-67876589D01*
X187802068Y-68146842D01*
X187745000Y-68433740D01*
X187745000Y-68726260D01*
X187802068Y-69013158D01*
X187914010Y-69283411D01*
X188076525Y-69526632D01*
X188283368Y-69733475D01*
X188465534Y-69855195D01*
X188348645Y-69924822D01*
X188132412Y-70119731D01*
X187958359Y-70353080D01*
X187833175Y-70615901D01*
X187788524Y-70763110D01*
X187909845Y-70993000D01*
X189103000Y-70993000D01*
X189103000Y-70973000D01*
X189357000Y-70973000D01*
X189357000Y-70993000D01*
X190550155Y-70993000D01*
X190671476Y-70763110D01*
X190626825Y-70615901D01*
X190501641Y-70353080D01*
X190327588Y-70119731D01*
X190111355Y-69924822D01*
X189994466Y-69855195D01*
X190176632Y-69733475D01*
X190383475Y-69526632D01*
X190545990Y-69283411D01*
X190657932Y-69013158D01*
X190715000Y-68726260D01*
X190715000Y-68433740D01*
X190657932Y-68146842D01*
X190545990Y-67876589D01*
X190383475Y-67633368D01*
X190176632Y-67426525D01*
X190002240Y-67310000D01*
X190176632Y-67193475D01*
X190383475Y-66986632D01*
X190545990Y-66743411D01*
X190657932Y-66473158D01*
X190715000Y-66186260D01*
X190715000Y-65893740D01*
X190657932Y-65606842D01*
X190545990Y-65336589D01*
X190383475Y-65093368D01*
X190176632Y-64886525D01*
X190002240Y-64770000D01*
X190176632Y-64653475D01*
X190383475Y-64446632D01*
X190545990Y-64203411D01*
X190657932Y-63933158D01*
X190715000Y-63646260D01*
X190715000Y-63353740D01*
X190657932Y-63066842D01*
X190545990Y-62796589D01*
X190383475Y-62553368D01*
X190176632Y-62346525D01*
X190002240Y-62230000D01*
X190176632Y-62113475D01*
X190383475Y-61906632D01*
X190545990Y-61663411D01*
X190657932Y-61393158D01*
X190715000Y-61106260D01*
X190715000Y-60813740D01*
X190657932Y-60526842D01*
X190545990Y-60256589D01*
X190383475Y-60013368D01*
X190176632Y-59806525D01*
X190002240Y-59690000D01*
X190176632Y-59573475D01*
X190383475Y-59366632D01*
X190545990Y-59123411D01*
X190657932Y-58853158D01*
X190715000Y-58566260D01*
X190715000Y-58273740D01*
X190657932Y-57986842D01*
X190545990Y-57716589D01*
X190383475Y-57473368D01*
X190176632Y-57266525D01*
X189994466Y-57144805D01*
X190111355Y-57075178D01*
X190327588Y-56880269D01*
X190501641Y-56646920D01*
X190561054Y-56522184D01*
X193175001Y-59136131D01*
X193175000Y-81079868D01*
X190718072Y-78622941D01*
X190718072Y-77890000D01*
X190705812Y-77765518D01*
X190669502Y-77645820D01*
X190610537Y-77535506D01*
X190531185Y-77438815D01*
X190434494Y-77359463D01*
X190324180Y-77300498D01*
X190204482Y-77264188D01*
X190080000Y-77251928D01*
X188380000Y-77251928D01*
X188255518Y-77264188D01*
X188135820Y-77300498D01*
X188025506Y-77359463D01*
X187928815Y-77438815D01*
X187849463Y-77535506D01*
X187790498Y-77645820D01*
X187754188Y-77765518D01*
X187741928Y-77890000D01*
X187741928Y-79590000D01*
X187754188Y-79714482D01*
X187790498Y-79834180D01*
X187849463Y-79944494D01*
X187928815Y-80041185D01*
X188025506Y-80120537D01*
X188135820Y-80179502D01*
X188216466Y-80203966D01*
X188132412Y-80279731D01*
X187958359Y-80513080D01*
X187833175Y-80775901D01*
X187788524Y-80923110D01*
X187909845Y-81153000D01*
X189103000Y-81153000D01*
X189103000Y-81133000D01*
X189357000Y-81133000D01*
X189357000Y-81153000D01*
X189377000Y-81153000D01*
X189377000Y-81407000D01*
X189357000Y-81407000D01*
X189357000Y-81427000D01*
X189103000Y-81427000D01*
X189103000Y-81407000D01*
X187909845Y-81407000D01*
X187788524Y-81636890D01*
X187833175Y-81784099D01*
X187958359Y-82046920D01*
X188132412Y-82280269D01*
X188348645Y-82475178D01*
X188465534Y-82544805D01*
X188283368Y-82666525D01*
X188076525Y-82873368D01*
X187914010Y-83116589D01*
X187802068Y-83386842D01*
X187745000Y-83673740D01*
X187745000Y-83966260D01*
X187802068Y-84253158D01*
X187914010Y-84523411D01*
X188076525Y-84766632D01*
X188283368Y-84973475D01*
X188457760Y-85090000D01*
X188283368Y-85206525D01*
X188076525Y-85413368D01*
X187914010Y-85656589D01*
X187802068Y-85926842D01*
X187745000Y-86213740D01*
X187745000Y-86506260D01*
X187802068Y-86793158D01*
X187914010Y-87063411D01*
X188076525Y-87306632D01*
X188283368Y-87513475D01*
X188457760Y-87630000D01*
X188283368Y-87746525D01*
X188076525Y-87953368D01*
X187914010Y-88196589D01*
X187802068Y-88466842D01*
X187745000Y-88753740D01*
X187745000Y-89046260D01*
X187802068Y-89333158D01*
X187914010Y-89603411D01*
X188076525Y-89846632D01*
X188283368Y-90053475D01*
X188457760Y-90170000D01*
X188283368Y-90286525D01*
X188076525Y-90493368D01*
X187914010Y-90736589D01*
X187802068Y-91006842D01*
X187745000Y-91293740D01*
X187745000Y-91586260D01*
X187802068Y-91873158D01*
X187914010Y-92143411D01*
X188076525Y-92386632D01*
X188283368Y-92593475D01*
X188457760Y-92710000D01*
X188283368Y-92826525D01*
X188076525Y-93033368D01*
X187914010Y-93276589D01*
X187802068Y-93546842D01*
X187745000Y-93833740D01*
X187745000Y-94126260D01*
X187802068Y-94413158D01*
X187914010Y-94683411D01*
X188076525Y-94926632D01*
X188283368Y-95133475D01*
X188465534Y-95255195D01*
X188348645Y-95324822D01*
X188132412Y-95519731D01*
X187958359Y-95753080D01*
X187833175Y-96015901D01*
X187788524Y-96163110D01*
X187909845Y-96393000D01*
X189103000Y-96393000D01*
X189103000Y-96373000D01*
X189357000Y-96373000D01*
X189357000Y-96393000D01*
X190550155Y-96393000D01*
X190671476Y-96163110D01*
X190626825Y-96015901D01*
X190501641Y-95753080D01*
X190327588Y-95519731D01*
X190111355Y-95324822D01*
X189994466Y-95255195D01*
X190176632Y-95133475D01*
X190383475Y-94926632D01*
X190545990Y-94683411D01*
X190657932Y-94413158D01*
X190715000Y-94126260D01*
X190715000Y-93833740D01*
X190657932Y-93546842D01*
X190545990Y-93276589D01*
X190383475Y-93033368D01*
X190176632Y-92826525D01*
X190002240Y-92710000D01*
X190176632Y-92593475D01*
X190383475Y-92386632D01*
X190545990Y-92143411D01*
X190657932Y-91873158D01*
X190715000Y-91586260D01*
X190715000Y-91293740D01*
X190657932Y-91006842D01*
X190545990Y-90736589D01*
X190383475Y-90493368D01*
X190176632Y-90286525D01*
X190002240Y-90170000D01*
X190176632Y-90053475D01*
X190383475Y-89846632D01*
X190545990Y-89603411D01*
X190657932Y-89333158D01*
X190715000Y-89046260D01*
X190715000Y-88753740D01*
X190657932Y-88466842D01*
X190545990Y-88196589D01*
X190383475Y-87953368D01*
X190176632Y-87746525D01*
X190002240Y-87630000D01*
X190176632Y-87513475D01*
X190383475Y-87306632D01*
X190545990Y-87063411D01*
X190657932Y-86793158D01*
X190715000Y-86506260D01*
X190715000Y-86213740D01*
X190657932Y-85926842D01*
X190545990Y-85656589D01*
X190383475Y-85413368D01*
X190176632Y-85206525D01*
X190002240Y-85090000D01*
X190176632Y-84973475D01*
X190383475Y-84766632D01*
X190545990Y-84523411D01*
X190657932Y-84253158D01*
X190715000Y-83966260D01*
X190715000Y-83673740D01*
X190657932Y-83386842D01*
X190545990Y-83116589D01*
X190383475Y-82873368D01*
X190176632Y-82666525D01*
X189994466Y-82544805D01*
X190111355Y-82475178D01*
X190327588Y-82280269D01*
X190501641Y-82046920D01*
X190626825Y-81784099D01*
X190636633Y-81751764D01*
X193175001Y-84290133D01*
X193175000Y-101129868D01*
X191299869Y-103005000D01*
X166145867Y-103005000D01*
X171795868Y-97355000D01*
X175301935Y-97355000D01*
X175376525Y-97466632D01*
X175583368Y-97673475D01*
X175826589Y-97835990D01*
X176096842Y-97947932D01*
X176383740Y-98005000D01*
X176676260Y-98005000D01*
X176963158Y-97947932D01*
X177233411Y-97835990D01*
X177476632Y-97673475D01*
X177683475Y-97466632D01*
X177845990Y-97223411D01*
X177957932Y-96953158D01*
X178015000Y-96666260D01*
X178015000Y-96373740D01*
X177957932Y-96086842D01*
X177845990Y-95816589D01*
X177683475Y-95573368D01*
X177476632Y-95366525D01*
X177302240Y-95250000D01*
X177476632Y-95133475D01*
X177683475Y-94926632D01*
X177845990Y-94683411D01*
X177957932Y-94413158D01*
X178015000Y-94126260D01*
X178015000Y-93833740D01*
X177957932Y-93546842D01*
X177845990Y-93276589D01*
X177683475Y-93033368D01*
X177476632Y-92826525D01*
X177302240Y-92710000D01*
X177476632Y-92593475D01*
X177683475Y-92386632D01*
X177845990Y-92143411D01*
X177957932Y-91873158D01*
X178015000Y-91586260D01*
X178015000Y-91293740D01*
X177957932Y-91006842D01*
X177845990Y-90736589D01*
X177683475Y-90493368D01*
X177476632Y-90286525D01*
X177302240Y-90170000D01*
X177476632Y-90053475D01*
X177683475Y-89846632D01*
X177845990Y-89603411D01*
X177957932Y-89333158D01*
X178015000Y-89046260D01*
X178015000Y-88753740D01*
X177957932Y-88466842D01*
X177845990Y-88196589D01*
X177683475Y-87953368D01*
X177476632Y-87746525D01*
X177302240Y-87630000D01*
X177476632Y-87513475D01*
X177683475Y-87306632D01*
X177845990Y-87063411D01*
X177957932Y-86793158D01*
X178015000Y-86506260D01*
X178015000Y-86213740D01*
X177957932Y-85926842D01*
X177845990Y-85656589D01*
X177683475Y-85413368D01*
X177476632Y-85206525D01*
X177302240Y-85090000D01*
X177476632Y-84973475D01*
X177683475Y-84766632D01*
X177845990Y-84523411D01*
X177957932Y-84253158D01*
X178015000Y-83966260D01*
X178015000Y-83673740D01*
X177957932Y-83386842D01*
X177845990Y-83116589D01*
X177683475Y-82873368D01*
X177476632Y-82666525D01*
X177302240Y-82550000D01*
X177476632Y-82433475D01*
X177683475Y-82226632D01*
X177845990Y-81983411D01*
X177957932Y-81713158D01*
X178015000Y-81426260D01*
X178015000Y-81133740D01*
X177957932Y-80846842D01*
X177845990Y-80576589D01*
X177683475Y-80333368D01*
X177551620Y-80201513D01*
X177624180Y-80179502D01*
X177734494Y-80120537D01*
X177831185Y-80041185D01*
X177910537Y-79944494D01*
X177969502Y-79834180D01*
X178005812Y-79714482D01*
X178018072Y-79590000D01*
X178018072Y-77890000D01*
X178005812Y-77765518D01*
X177969502Y-77645820D01*
X177910537Y-77535506D01*
X177831185Y-77438815D01*
X177734494Y-77359463D01*
X177624180Y-77300498D01*
X177504482Y-77264188D01*
X177380000Y-77251928D01*
X175680000Y-77251928D01*
X175555518Y-77264188D01*
X175435820Y-77300498D01*
X175325506Y-77359463D01*
X175228815Y-77438815D01*
X175149463Y-77535506D01*
X175090498Y-77645820D01*
X175054188Y-77765518D01*
X175041928Y-77890000D01*
X175041928Y-79590000D01*
X175054188Y-79714482D01*
X175090498Y-79834180D01*
X175149463Y-79944494D01*
X175228815Y-80041185D01*
X175325506Y-80120537D01*
X175435820Y-80179502D01*
X175508380Y-80201513D01*
X175376525Y-80333368D01*
X175301935Y-80445000D01*
X160177169Y-80445000D01*
X160177932Y-80443158D01*
X160235000Y-80156260D01*
X160235000Y-79863740D01*
X160177932Y-79576842D01*
X160065990Y-79306589D01*
X159903475Y-79063368D01*
X159696632Y-78856525D01*
X159522240Y-78740000D01*
X159674802Y-78638061D01*
X164065000Y-78638061D01*
X164065000Y-78841939D01*
X164104774Y-79041898D01*
X164182795Y-79230256D01*
X164296063Y-79399774D01*
X164440226Y-79543937D01*
X164609744Y-79657205D01*
X164798102Y-79735226D01*
X164998061Y-79775000D01*
X165201939Y-79775000D01*
X165401898Y-79735226D01*
X165590256Y-79657205D01*
X165759774Y-79543937D01*
X165903937Y-79399774D01*
X166017205Y-79230256D01*
X166095226Y-79041898D01*
X166124093Y-78896775D01*
X166715868Y-78305000D01*
X170836715Y-78305000D01*
X170959744Y-78387205D01*
X171148102Y-78465226D01*
X171348061Y-78505000D01*
X171551939Y-78505000D01*
X171751898Y-78465226D01*
X171940256Y-78387205D01*
X172109774Y-78273937D01*
X172253937Y-78129774D01*
X172367205Y-77960256D01*
X172445226Y-77771898D01*
X172485000Y-77571939D01*
X172485000Y-77368061D01*
X172445226Y-77168102D01*
X172367205Y-76979744D01*
X172253937Y-76810226D01*
X172109774Y-76666063D01*
X171940256Y-76552795D01*
X171751898Y-76474774D01*
X171551939Y-76435000D01*
X171348061Y-76435000D01*
X171148102Y-76474774D01*
X170959744Y-76552795D01*
X170836715Y-76635000D01*
X166411015Y-76635000D01*
X166369999Y-76630960D01*
X166328983Y-76635000D01*
X166328981Y-76635000D01*
X166206311Y-76647082D01*
X166048913Y-76694828D01*
X165903854Y-76772364D01*
X165776709Y-76876709D01*
X165750558Y-76908574D01*
X164943225Y-77715907D01*
X164798102Y-77744774D01*
X164609744Y-77822795D01*
X164440226Y-77936063D01*
X164296063Y-78080226D01*
X164182795Y-78249744D01*
X164104774Y-78438102D01*
X164065000Y-78638061D01*
X159674802Y-78638061D01*
X159696632Y-78623475D01*
X159903475Y-78416632D01*
X160065990Y-78173411D01*
X160177932Y-77903158D01*
X160235000Y-77616260D01*
X160235000Y-77323740D01*
X160177932Y-77036842D01*
X160065990Y-76766589D01*
X159903475Y-76523368D01*
X159696632Y-76316525D01*
X159522240Y-76200000D01*
X159696632Y-76083475D01*
X159903475Y-75876632D01*
X160065990Y-75633411D01*
X160177932Y-75363158D01*
X160235000Y-75076260D01*
X160235000Y-74783740D01*
X160177932Y-74496842D01*
X160177169Y-74495000D01*
X176184133Y-74495000D01*
X178235001Y-76545869D01*
X178235000Y-97444131D01*
X175103225Y-100575907D01*
X174958102Y-100604774D01*
X174769744Y-100682795D01*
X174600226Y-100796063D01*
X174456063Y-100940226D01*
X174342795Y-101109744D01*
X174264774Y-101298102D01*
X174225000Y-101498061D01*
X174225000Y-101701939D01*
X174264774Y-101901898D01*
X174342795Y-102090256D01*
X174456063Y-102259774D01*
X174600226Y-102403937D01*
X174769744Y-102517205D01*
X174958102Y-102595226D01*
X175158061Y-102635000D01*
X175361939Y-102635000D01*
X175561898Y-102595226D01*
X175750256Y-102517205D01*
X175919774Y-102403937D01*
X176063937Y-102259774D01*
X176177205Y-102090256D01*
X176255226Y-101901898D01*
X176284093Y-101756775D01*
X179631433Y-98409436D01*
X179663291Y-98383291D01*
X179734226Y-98296857D01*
X179767636Y-98256146D01*
X179845172Y-98111087D01*
X179892918Y-97953688D01*
X179896532Y-97917000D01*
X179905000Y-97831019D01*
X179905000Y-97831018D01*
X179909040Y-97790000D01*
X179905000Y-97748982D01*
X179905000Y-96876890D01*
X187788524Y-96876890D01*
X187833175Y-97024099D01*
X187958359Y-97286920D01*
X188132412Y-97520269D01*
X188348645Y-97715178D01*
X188598748Y-97864157D01*
X188873109Y-97961481D01*
X189103000Y-97840814D01*
X189103000Y-96647000D01*
X189357000Y-96647000D01*
X189357000Y-97840814D01*
X189586891Y-97961481D01*
X189861252Y-97864157D01*
X190111355Y-97715178D01*
X190327588Y-97520269D01*
X190501641Y-97286920D01*
X190626825Y-97024099D01*
X190671476Y-96876890D01*
X190550155Y-96647000D01*
X189357000Y-96647000D01*
X189103000Y-96647000D01*
X187909845Y-96647000D01*
X187788524Y-96876890D01*
X179905000Y-96876890D01*
X179905000Y-76241007D01*
X179909039Y-76199999D01*
X179905000Y-76158991D01*
X179905000Y-76158981D01*
X179892918Y-76036311D01*
X179845172Y-75878913D01*
X179767636Y-75733854D01*
X179663291Y-75606709D01*
X179631427Y-75580559D01*
X177149446Y-73098579D01*
X177123291Y-73066709D01*
X176996146Y-72962364D01*
X176851087Y-72884828D01*
X176693689Y-72837082D01*
X176571019Y-72825000D01*
X176571018Y-72825000D01*
X176530000Y-72820960D01*
X176488982Y-72825000D01*
X160365868Y-72825000D01*
X160208807Y-72667939D01*
X160235000Y-72536260D01*
X160235000Y-72243740D01*
X160177932Y-71956842D01*
X160065990Y-71686589D01*
X159903475Y-71443368D01*
X159696632Y-71236525D01*
X159522240Y-71120000D01*
X159696632Y-71003475D01*
X159903475Y-70796632D01*
X160065990Y-70553411D01*
X160177932Y-70283158D01*
X160235000Y-69996260D01*
X160235000Y-69703740D01*
X160208807Y-69572060D01*
X165661427Y-64119441D01*
X165693291Y-64093291D01*
X165797636Y-63966146D01*
X165875172Y-63821087D01*
X165922918Y-63663689D01*
X165935000Y-63541019D01*
X165939040Y-63500001D01*
X165935000Y-63458982D01*
X165935000Y-57763285D01*
X166017205Y-57640256D01*
X166095226Y-57451898D01*
X166135000Y-57251939D01*
X166135000Y-57048061D01*
X166095226Y-56848102D01*
X166017205Y-56659744D01*
X165903937Y-56490226D01*
X165759774Y-56346063D01*
X165590256Y-56232795D01*
X165401898Y-56154774D01*
X165201939Y-56115000D01*
X164998061Y-56115000D01*
X164798102Y-56154774D01*
X164609744Y-56232795D01*
X164440226Y-56346063D01*
X164296063Y-56490226D01*
X164182795Y-56659744D01*
X164104774Y-56848102D01*
X164065000Y-57048061D01*
X164065000Y-57251939D01*
X164104774Y-57451898D01*
X164182795Y-57640256D01*
X164265000Y-57763285D01*
X164265001Y-63154131D01*
X160235000Y-67184133D01*
X160235000Y-67163740D01*
X160177932Y-66876842D01*
X160065990Y-66606589D01*
X159903475Y-66363368D01*
X159696632Y-66156525D01*
X159522240Y-66040000D01*
X159696632Y-65923475D01*
X159903475Y-65716632D01*
X160065990Y-65473411D01*
X160177932Y-65203158D01*
X160235000Y-64916260D01*
X160235000Y-64623740D01*
X160177932Y-64336842D01*
X160065990Y-64066589D01*
X159903475Y-63823368D01*
X159696632Y-63616525D01*
X159522240Y-63500000D01*
X159696632Y-63383475D01*
X159903475Y-63176632D01*
X160065990Y-62933411D01*
X160177932Y-62663158D01*
X160235000Y-62376260D01*
X160235000Y-62083740D01*
X160177932Y-61796842D01*
X160065990Y-61526589D01*
X159903475Y-61283368D01*
X159696632Y-61076525D01*
X159522240Y-60960000D01*
X159696632Y-60843475D01*
X159903475Y-60636632D01*
X160065990Y-60393411D01*
X160177932Y-60123158D01*
X160235000Y-59836260D01*
X160235000Y-59543740D01*
X160177932Y-59256842D01*
X160065990Y-58986589D01*
X159903475Y-58743368D01*
X159696632Y-58536525D01*
X159522240Y-58420000D01*
X159696632Y-58303475D01*
X159903475Y-58096632D01*
X160065990Y-57853411D01*
X160177932Y-57583158D01*
X160235000Y-57296260D01*
X160235000Y-57003740D01*
X160177932Y-56716842D01*
X160065990Y-56446589D01*
X159903475Y-56203368D01*
X159696632Y-55996525D01*
X159522240Y-55880000D01*
X159696632Y-55763475D01*
X159903475Y-55556632D01*
X160065990Y-55313411D01*
X160177932Y-55043158D01*
X160235000Y-54756260D01*
X160235000Y-54463740D01*
X160177932Y-54176842D01*
X160065990Y-53906589D01*
X159903475Y-53663368D01*
X159696632Y-53456525D01*
X159522240Y-53340000D01*
X159696632Y-53223475D01*
X159903475Y-53016632D01*
X160065990Y-52773411D01*
X160177932Y-52503158D01*
X160235000Y-52216260D01*
X160235000Y-51923740D01*
X160177932Y-51636842D01*
X160065990Y-51366589D01*
X159903475Y-51123368D01*
X159696632Y-50916525D01*
X159453411Y-50754010D01*
X159183158Y-50642068D01*
X158896260Y-50585000D01*
X158603740Y-50585000D01*
X158316842Y-50642068D01*
X158046589Y-50754010D01*
X157803368Y-50916525D01*
X157596525Y-51123368D01*
X157434010Y-51366589D01*
X157322068Y-51636842D01*
X157265000Y-51923740D01*
X157265000Y-52216260D01*
X157322068Y-52503158D01*
X157434010Y-52773411D01*
X157596525Y-53016632D01*
X157803368Y-53223475D01*
X157977760Y-53340000D01*
X157803368Y-53456525D01*
X157596525Y-53663368D01*
X157434010Y-53906589D01*
X157322068Y-54176842D01*
X157265000Y-54463740D01*
X157265000Y-54756260D01*
X157322068Y-55043158D01*
X157434010Y-55313411D01*
X157596525Y-55556632D01*
X157803368Y-55763475D01*
X157977760Y-55880000D01*
X157803368Y-55996525D01*
X157596525Y-56203368D01*
X157434010Y-56446589D01*
X157322068Y-56716842D01*
X157265000Y-57003740D01*
X157265000Y-57296260D01*
X157322068Y-57583158D01*
X157434010Y-57853411D01*
X157596525Y-58096632D01*
X157803368Y-58303475D01*
X157977760Y-58420000D01*
X157803368Y-58536525D01*
X157596525Y-58743368D01*
X157434010Y-58986589D01*
X157322068Y-59256842D01*
X157265000Y-59543740D01*
X157265000Y-59836260D01*
X157322068Y-60123158D01*
X157434010Y-60393411D01*
X157596525Y-60636632D01*
X157803368Y-60843475D01*
X157977760Y-60960000D01*
X157803368Y-61076525D01*
X157596525Y-61283368D01*
X157434010Y-61526589D01*
X157322068Y-61796842D01*
X157265000Y-62083740D01*
X157265000Y-62376260D01*
X157322068Y-62663158D01*
X157434010Y-62933411D01*
X157596525Y-63176632D01*
X157803368Y-63383475D01*
X157977760Y-63500000D01*
X157803368Y-63616525D01*
X157596525Y-63823368D01*
X157434010Y-64066589D01*
X157322068Y-64336842D01*
X157265000Y-64623740D01*
X157265000Y-64916260D01*
X157322068Y-65203158D01*
X157434010Y-65473411D01*
X157596525Y-65716632D01*
X157803368Y-65923475D01*
X157977760Y-66040000D01*
X157803368Y-66156525D01*
X157596525Y-66363368D01*
X157434010Y-66606589D01*
X157322068Y-66876842D01*
X157265000Y-67163740D01*
X157265000Y-67456260D01*
X157322068Y-67743158D01*
X157434010Y-68013411D01*
X157596525Y-68256632D01*
X157803368Y-68463475D01*
X157977760Y-68580000D01*
X157803368Y-68696525D01*
X157596525Y-68903368D01*
X157434010Y-69146589D01*
X157322068Y-69416842D01*
X157265000Y-69703740D01*
X157265000Y-69996260D01*
X157322068Y-70283158D01*
X157434010Y-70553411D01*
X157596525Y-70796632D01*
X157803368Y-71003475D01*
X157977760Y-71120000D01*
X157803368Y-71236525D01*
X157596525Y-71443368D01*
X157434010Y-71686589D01*
X157322068Y-71956842D01*
X157265000Y-72243740D01*
X157265000Y-72536260D01*
X157322068Y-72823158D01*
X157434010Y-73093411D01*
X157596525Y-73336632D01*
X157803368Y-73543475D01*
X157977760Y-73660000D01*
X157803368Y-73776525D01*
X157596525Y-73983368D01*
X157434010Y-74226589D01*
X157322068Y-74496842D01*
X157265000Y-74783740D01*
X157265000Y-75076260D01*
X157322068Y-75363158D01*
X157434010Y-75633411D01*
X157596525Y-75876632D01*
X157803368Y-76083475D01*
X157977760Y-76200000D01*
X157803368Y-76316525D01*
X157596525Y-76523368D01*
X157434010Y-76766589D01*
X157322068Y-77036842D01*
X157265000Y-77323740D01*
X157265000Y-77616260D01*
X157322068Y-77903158D01*
X157434010Y-78173411D01*
X157596525Y-78416632D01*
X157803368Y-78623475D01*
X157977760Y-78740000D01*
X157803368Y-78856525D01*
X157596525Y-79063368D01*
X157434010Y-79306589D01*
X157322068Y-79576842D01*
X157265000Y-79863740D01*
X157265000Y-80156260D01*
X157322068Y-80443158D01*
X157322831Y-80445000D01*
X142585869Y-80445000D01*
X134808807Y-72667940D01*
X134835000Y-72536260D01*
X134835000Y-72243740D01*
X134777932Y-71956842D01*
X134665990Y-71686589D01*
X134503475Y-71443368D01*
X134296632Y-71236525D01*
X134122240Y-71120000D01*
X134296632Y-71003475D01*
X134503475Y-70796632D01*
X134665990Y-70553411D01*
X134777932Y-70283158D01*
X134835000Y-69996260D01*
X134835000Y-69703740D01*
X134777932Y-69416842D01*
X134665990Y-69146589D01*
X134503475Y-68903368D01*
X134296632Y-68696525D01*
X134122240Y-68580000D01*
X134296632Y-68463475D01*
X134503475Y-68256632D01*
X134665990Y-68013411D01*
X134777932Y-67743158D01*
X134835000Y-67456260D01*
X134835000Y-67163740D01*
X134777932Y-66876842D01*
X134665990Y-66606589D01*
X134503475Y-66363368D01*
X134296632Y-66156525D01*
X134114466Y-66034805D01*
X134231355Y-65965178D01*
X134447588Y-65770269D01*
X134621641Y-65536920D01*
X134746825Y-65274099D01*
X134791476Y-65126890D01*
X134670155Y-64897000D01*
X133477000Y-64897000D01*
X133477000Y-64917000D01*
X133223000Y-64917000D01*
X133223000Y-64897000D01*
X132029845Y-64897000D01*
X131908524Y-65126890D01*
X131953175Y-65274099D01*
X132078359Y-65536920D01*
X132252412Y-65770269D01*
X132468645Y-65965178D01*
X132585534Y-66034805D01*
X132403368Y-66156525D01*
X132196525Y-66363368D01*
X132034010Y-66606589D01*
X131922068Y-66876842D01*
X131865000Y-67163740D01*
X131865000Y-67456260D01*
X131922068Y-67743158D01*
X132034010Y-68013411D01*
X132196525Y-68256632D01*
X132403368Y-68463475D01*
X132577760Y-68580000D01*
X132403368Y-68696525D01*
X132196525Y-68903368D01*
X132034010Y-69146589D01*
X131922068Y-69416842D01*
X131865000Y-69703740D01*
X131865000Y-69996260D01*
X131922068Y-70283158D01*
X132034010Y-70553411D01*
X132196525Y-70796632D01*
X132403368Y-71003475D01*
X132577760Y-71120000D01*
X132403368Y-71236525D01*
X132196525Y-71443368D01*
X132034010Y-71686589D01*
X131922068Y-71956842D01*
X131865000Y-72243740D01*
X131865000Y-72536260D01*
X131922068Y-72823158D01*
X132034010Y-73093411D01*
X132196525Y-73336632D01*
X132403368Y-73543475D01*
X132577760Y-73660000D01*
X132403368Y-73776525D01*
X132196525Y-73983368D01*
X132034010Y-74226589D01*
X131922068Y-74496842D01*
X131865000Y-74783740D01*
X131865000Y-75076260D01*
X131922068Y-75363158D01*
X132034010Y-75633411D01*
X132196525Y-75876632D01*
X132403368Y-76083475D01*
X132577760Y-76200000D01*
X132403368Y-76316525D01*
X132196525Y-76523368D01*
X132034010Y-76766589D01*
X131922068Y-77036842D01*
X131865000Y-77323740D01*
X131865000Y-77616260D01*
X131922068Y-77903158D01*
X132034010Y-78173411D01*
X132196525Y-78416632D01*
X132403368Y-78623475D01*
X132577760Y-78740000D01*
X132403368Y-78856525D01*
X132196525Y-79063368D01*
X132034010Y-79306589D01*
X131922068Y-79576842D01*
X131865000Y-79863740D01*
X131865000Y-80156260D01*
X131922068Y-80443158D01*
X132034010Y-80713411D01*
X132196525Y-80956632D01*
X132403368Y-81163475D01*
X132577760Y-81280000D01*
X132403368Y-81396525D01*
X132196525Y-81603368D01*
X132034010Y-81846589D01*
X131922068Y-82116842D01*
X131865000Y-82403740D01*
X131865000Y-82696260D01*
X131922068Y-82983158D01*
X132034010Y-83253411D01*
X132196525Y-83496632D01*
X132403368Y-83703475D01*
X132577760Y-83820000D01*
X132403368Y-83936525D01*
X132196525Y-84143368D01*
X132034010Y-84386589D01*
X131922068Y-84656842D01*
X131865000Y-84943740D01*
X131865000Y-85236260D01*
X131922068Y-85523158D01*
X132034010Y-85793411D01*
X132196525Y-86036632D01*
X132403368Y-86243475D01*
X132577760Y-86360000D01*
X132403368Y-86476525D01*
X132196525Y-86683368D01*
X132034010Y-86926589D01*
X131922068Y-87196842D01*
X131865000Y-87483740D01*
X131865000Y-87776260D01*
X131922068Y-88063158D01*
X132034010Y-88333411D01*
X132196525Y-88576632D01*
X132403368Y-88783475D01*
X132577760Y-88900000D01*
X132403368Y-89016525D01*
X132196525Y-89223368D01*
X132034010Y-89466589D01*
X131922068Y-89736842D01*
X131865000Y-90023740D01*
X131865000Y-90316260D01*
X131922068Y-90603158D01*
X132034010Y-90873411D01*
X132196525Y-91116632D01*
X132403368Y-91323475D01*
X132577760Y-91440000D01*
X132403368Y-91556525D01*
X132196525Y-91763368D01*
X132034010Y-92006589D01*
X131922068Y-92276842D01*
X131865000Y-92563740D01*
X131865000Y-92856260D01*
X131922068Y-93143158D01*
X132034010Y-93413411D01*
X132196525Y-93656632D01*
X132403368Y-93863475D01*
X132577760Y-93980000D01*
X132403368Y-94096525D01*
X132196525Y-94303368D01*
X132034010Y-94546589D01*
X131922068Y-94816842D01*
X131865000Y-95103740D01*
X131865000Y-95396260D01*
X131922068Y-95683158D01*
X132034010Y-95953411D01*
X132196525Y-96196632D01*
X132328380Y-96328487D01*
X132255820Y-96350498D01*
X132145506Y-96409463D01*
X132048815Y-96488815D01*
X131969463Y-96585506D01*
X131910498Y-96695820D01*
X131874188Y-96815518D01*
X131861928Y-96940000D01*
X131861928Y-98640000D01*
X131874188Y-98764482D01*
X131910498Y-98884180D01*
X131969463Y-98994494D01*
X132048815Y-99091185D01*
X132145506Y-99170537D01*
X132255820Y-99229502D01*
X132375518Y-99265812D01*
X132500000Y-99278072D01*
X134200000Y-99278072D01*
X134324482Y-99265812D01*
X134444180Y-99229502D01*
X134554494Y-99170537D01*
X134651185Y-99091185D01*
X134730537Y-98994494D01*
X134789502Y-98884180D01*
X134825812Y-98764482D01*
X134838072Y-98640000D01*
X134838072Y-96940000D01*
X134825812Y-96815518D01*
X134789502Y-96695820D01*
X134730537Y-96585506D01*
X134651185Y-96488815D01*
X134554494Y-96409463D01*
X134444180Y-96350498D01*
X134371620Y-96328487D01*
X134503475Y-96196632D01*
X134665990Y-95953411D01*
X134777932Y-95683158D01*
X134835000Y-95396260D01*
X134835000Y-95103740D01*
X134777932Y-94816842D01*
X134665990Y-94546589D01*
X134503475Y-94303368D01*
X134296632Y-94096525D01*
X134122240Y-93980000D01*
X134296632Y-93863475D01*
X134503475Y-93656632D01*
X134665990Y-93413411D01*
X134777932Y-93143158D01*
X134835000Y-92856260D01*
X134835000Y-92563740D01*
X134777932Y-92276842D01*
X134665990Y-92006589D01*
X134503475Y-91763368D01*
X134296632Y-91556525D01*
X134122240Y-91440000D01*
X134296632Y-91323475D01*
X134503475Y-91116632D01*
X134665990Y-90873411D01*
X134777932Y-90603158D01*
X134835000Y-90316260D01*
X134835000Y-90023740D01*
X134777932Y-89736842D01*
X134665990Y-89466589D01*
X134503475Y-89223368D01*
X134296632Y-89016525D01*
X134122240Y-88900000D01*
X134296632Y-88783475D01*
X134503475Y-88576632D01*
X134665990Y-88333411D01*
X134777932Y-88063158D01*
X134835000Y-87776260D01*
X134835000Y-87483740D01*
X134777932Y-87196842D01*
X134665990Y-86926589D01*
X134503475Y-86683368D01*
X134296632Y-86476525D01*
X134122240Y-86360000D01*
X134296632Y-86243475D01*
X134503475Y-86036632D01*
X134665990Y-85793411D01*
X134777932Y-85523158D01*
X134835000Y-85236260D01*
X134835000Y-85215868D01*
X136325000Y-86705869D01*
X136325000Y-87008980D01*
X136320960Y-87049998D01*
X136325000Y-87091016D01*
X136337082Y-87213686D01*
X136384828Y-87371084D01*
X136462364Y-87516143D01*
X136566709Y-87643289D01*
X136598579Y-87669444D01*
X151934134Y-103005000D01*
X131280132Y-103005000D01*
X128693408Y-100418277D01*
X128846292Y-100363603D01*
X128971514Y-100296671D01*
X129043097Y-100052702D01*
X128230000Y-99239605D01*
X128215858Y-99253748D01*
X128036253Y-99074143D01*
X128050395Y-99060000D01*
X128409605Y-99060000D01*
X129222702Y-99873097D01*
X129466671Y-99801514D01*
X129587571Y-99546004D01*
X129656300Y-99271816D01*
X129670217Y-98989488D01*
X129628787Y-98709870D01*
X129533603Y-98443708D01*
X129466671Y-98318486D01*
X129222702Y-98246903D01*
X128409605Y-99060000D01*
X128050395Y-99060000D01*
X127237298Y-98246903D01*
X127168072Y-98267215D01*
X127168072Y-98260000D01*
X127155812Y-98135518D01*
X127135118Y-98067298D01*
X127416903Y-98067298D01*
X128230000Y-98880395D01*
X129043097Y-98067298D01*
X128971514Y-97823329D01*
X128716004Y-97702429D01*
X128441816Y-97633700D01*
X128159488Y-97619783D01*
X127879870Y-97661213D01*
X127613708Y-97756397D01*
X127488486Y-97823329D01*
X127416903Y-98067298D01*
X127135118Y-98067298D01*
X127119502Y-98015820D01*
X127060537Y-97905506D01*
X126981185Y-97808815D01*
X126884494Y-97729463D01*
X126774180Y-97670498D01*
X126654482Y-97634188D01*
X126530000Y-97621928D01*
X125897061Y-97621928D01*
X123055000Y-94779869D01*
X123055000Y-91732153D01*
X123080147Y-91858574D01*
X123188320Y-92119727D01*
X123345363Y-92354759D01*
X123545241Y-92554637D01*
X123780273Y-92711680D01*
X124041426Y-92819853D01*
X124318665Y-92875000D01*
X124601335Y-92875000D01*
X124878574Y-92819853D01*
X125139727Y-92711680D01*
X125374759Y-92554637D01*
X125496694Y-92432702D01*
X128646903Y-92432702D01*
X128718486Y-92676671D01*
X128973996Y-92797571D01*
X129248184Y-92866300D01*
X129530512Y-92880217D01*
X129810130Y-92838787D01*
X130076292Y-92743603D01*
X130201514Y-92676671D01*
X130273097Y-92432702D01*
X129460000Y-91619605D01*
X128646903Y-92432702D01*
X125496694Y-92432702D01*
X125574637Y-92354759D01*
X125731680Y-92119727D01*
X125839853Y-91858574D01*
X125895000Y-91581335D01*
X125895000Y-91510512D01*
X128019783Y-91510512D01*
X128061213Y-91790130D01*
X128156397Y-92056292D01*
X128223329Y-92181514D01*
X128467298Y-92253097D01*
X129280395Y-91440000D01*
X129639605Y-91440000D01*
X130452702Y-92253097D01*
X130696671Y-92181514D01*
X130817571Y-91926004D01*
X130886300Y-91651816D01*
X130900217Y-91369488D01*
X130858787Y-91089870D01*
X130763603Y-90823708D01*
X130696671Y-90698486D01*
X130452702Y-90626903D01*
X129639605Y-91440000D01*
X129280395Y-91440000D01*
X128467298Y-90626903D01*
X128223329Y-90698486D01*
X128102429Y-90953996D01*
X128033700Y-91228184D01*
X128019783Y-91510512D01*
X125895000Y-91510512D01*
X125895000Y-91298665D01*
X125839853Y-91021426D01*
X125731680Y-90760273D01*
X125574637Y-90525241D01*
X125496694Y-90447298D01*
X128646903Y-90447298D01*
X129460000Y-91260395D01*
X130273097Y-90447298D01*
X130201514Y-90203329D01*
X129946004Y-90082429D01*
X129671816Y-90013700D01*
X129389488Y-89999783D01*
X129109870Y-90041213D01*
X128843708Y-90136397D01*
X128718486Y-90203329D01*
X128646903Y-90447298D01*
X125496694Y-90447298D01*
X125374759Y-90325363D01*
X125139727Y-90168320D01*
X124878574Y-90060147D01*
X124601335Y-90005000D01*
X124318665Y-90005000D01*
X124041426Y-90060147D01*
X123780273Y-90168320D01*
X123545241Y-90325363D01*
X123345363Y-90525241D01*
X123188320Y-90760273D01*
X123080147Y-91021426D01*
X123055000Y-91147847D01*
X123055000Y-88955743D01*
X123060490Y-88899999D01*
X123055000Y-88844255D01*
X123055000Y-88844248D01*
X123038577Y-88677501D01*
X122973676Y-88463553D01*
X122868284Y-88266377D01*
X122726449Y-88093551D01*
X122683140Y-88058008D01*
X121785000Y-87159869D01*
X121785000Y-83868661D01*
X121997663Y-83655998D01*
X122187537Y-83371831D01*
X122318325Y-83056081D01*
X122385000Y-82720883D01*
X122385000Y-82420132D01*
X122396467Y-82408665D01*
X123025000Y-82408665D01*
X123025000Y-82691335D01*
X123080147Y-82968574D01*
X123188320Y-83229727D01*
X123345363Y-83464759D01*
X123545241Y-83664637D01*
X123780273Y-83821680D01*
X124041426Y-83929853D01*
X124318665Y-83985000D01*
X124601335Y-83985000D01*
X124695418Y-83966285D01*
X126853714Y-86124583D01*
X126835000Y-86218665D01*
X126835000Y-86501335D01*
X126890147Y-86778574D01*
X126998320Y-87039727D01*
X127155363Y-87274759D01*
X127355241Y-87474637D01*
X127590273Y-87631680D01*
X127851426Y-87739853D01*
X128128665Y-87795000D01*
X128411335Y-87795000D01*
X128688574Y-87739853D01*
X128949727Y-87631680D01*
X129184759Y-87474637D01*
X129384637Y-87274759D01*
X129541680Y-87039727D01*
X129649853Y-86778574D01*
X129705000Y-86501335D01*
X129705000Y-86218665D01*
X129649853Y-85941426D01*
X129541680Y-85680273D01*
X129384637Y-85445241D01*
X129184759Y-85245363D01*
X128949727Y-85088320D01*
X128688574Y-84980147D01*
X128411335Y-84925000D01*
X128128665Y-84925000D01*
X128034583Y-84943714D01*
X126633570Y-83542702D01*
X128646903Y-83542702D01*
X128718486Y-83786671D01*
X128973996Y-83907571D01*
X129248184Y-83976300D01*
X129530512Y-83990217D01*
X129810130Y-83948787D01*
X130076292Y-83853603D01*
X130201514Y-83786671D01*
X130273097Y-83542702D01*
X129460000Y-82729605D01*
X128646903Y-83542702D01*
X126633570Y-83542702D01*
X125876285Y-82785418D01*
X125895000Y-82691335D01*
X125895000Y-82620512D01*
X128019783Y-82620512D01*
X128061213Y-82900130D01*
X128156397Y-83166292D01*
X128223329Y-83291514D01*
X128467298Y-83363097D01*
X129280395Y-82550000D01*
X129639605Y-82550000D01*
X130452702Y-83363097D01*
X130696671Y-83291514D01*
X130817571Y-83036004D01*
X130886300Y-82761816D01*
X130900217Y-82479488D01*
X130858787Y-82199870D01*
X130763603Y-81933708D01*
X130696671Y-81808486D01*
X130452702Y-81736903D01*
X129639605Y-82550000D01*
X129280395Y-82550000D01*
X128467298Y-81736903D01*
X128223329Y-81808486D01*
X128102429Y-82063996D01*
X128033700Y-82338184D01*
X128019783Y-82620512D01*
X125895000Y-82620512D01*
X125895000Y-82408665D01*
X125839853Y-82131426D01*
X125731680Y-81870273D01*
X125574637Y-81635241D01*
X125496694Y-81557298D01*
X128646903Y-81557298D01*
X129460000Y-82370395D01*
X130273097Y-81557298D01*
X130201514Y-81313329D01*
X129946004Y-81192429D01*
X129671816Y-81123700D01*
X129389488Y-81109783D01*
X129109870Y-81151213D01*
X128843708Y-81246397D01*
X128718486Y-81313329D01*
X128646903Y-81557298D01*
X125496694Y-81557298D01*
X125374759Y-81435363D01*
X125139727Y-81278320D01*
X124878574Y-81170147D01*
X124601335Y-81115000D01*
X124318665Y-81115000D01*
X124041426Y-81170147D01*
X123780273Y-81278320D01*
X123545241Y-81435363D01*
X123345363Y-81635241D01*
X123188320Y-81870273D01*
X123080147Y-82131426D01*
X123025000Y-82408665D01*
X122396467Y-82408665D01*
X122683140Y-82121992D01*
X122726449Y-82086449D01*
X122868284Y-81913623D01*
X122973676Y-81716447D01*
X123038577Y-81502499D01*
X123055000Y-81335752D01*
X123055000Y-81335745D01*
X123060490Y-81280001D01*
X123055000Y-81224257D01*
X123055000Y-65888072D01*
X123670000Y-65888072D01*
X123794482Y-65875812D01*
X123914180Y-65839502D01*
X124024494Y-65780537D01*
X124121185Y-65701185D01*
X124200537Y-65604494D01*
X124259502Y-65494180D01*
X124295812Y-65374482D01*
X124308072Y-65250000D01*
X124308072Y-61750000D01*
X124295812Y-61625518D01*
X124259502Y-61505820D01*
X124200537Y-61395506D01*
X124121185Y-61298815D01*
X124024494Y-61219463D01*
X123914180Y-61160498D01*
X123794482Y-61124188D01*
X123670000Y-61111928D01*
X120170000Y-61111928D01*
X120045518Y-61124188D01*
X119925820Y-61160498D01*
X119815506Y-61219463D01*
X119718815Y-61298815D01*
X119639463Y-61395506D01*
X119598506Y-61472131D01*
X119608072Y-61375000D01*
X119608072Y-59625000D01*
X119578999Y-59329814D01*
X119492896Y-59045972D01*
X119468324Y-59000000D01*
X119531928Y-59000000D01*
X119544188Y-59124482D01*
X119580498Y-59244180D01*
X119639463Y-59354494D01*
X119718815Y-59451185D01*
X119815506Y-59530537D01*
X119925820Y-59589502D01*
X120045518Y-59625812D01*
X120170000Y-59638072D01*
X121634250Y-59635000D01*
X121793000Y-59476250D01*
X121793000Y-57627000D01*
X122047000Y-57627000D01*
X122047000Y-59476250D01*
X122205750Y-59635000D01*
X123670000Y-59638072D01*
X123794482Y-59625812D01*
X123914180Y-59589502D01*
X124024494Y-59530537D01*
X124121185Y-59451185D01*
X124200537Y-59354494D01*
X124259502Y-59244180D01*
X124295812Y-59124482D01*
X124308072Y-59000000D01*
X124305000Y-57785750D01*
X124146250Y-57627000D01*
X122047000Y-57627000D01*
X121793000Y-57627000D01*
X119693750Y-57627000D01*
X119535000Y-57785750D01*
X119531928Y-59000000D01*
X119468324Y-59000000D01*
X119353073Y-58784382D01*
X119164903Y-58555097D01*
X118935618Y-58366927D01*
X118674028Y-58227104D01*
X118390186Y-58141001D01*
X118095000Y-58111928D01*
X117235803Y-58111928D01*
X119575528Y-55772204D01*
X119544188Y-55875518D01*
X119531928Y-56000000D01*
X119535000Y-57214250D01*
X119693750Y-57373000D01*
X121793000Y-57373000D01*
X121793000Y-55523750D01*
X122047000Y-55523750D01*
X122047000Y-57373000D01*
X124146250Y-57373000D01*
X124305000Y-57214250D01*
X124308072Y-56000000D01*
X124295812Y-55875518D01*
X124259502Y-55755820D01*
X124200537Y-55645506D01*
X124121185Y-55548815D01*
X124024494Y-55469463D01*
X123914180Y-55410498D01*
X123794482Y-55374188D01*
X123670000Y-55361928D01*
X122205750Y-55365000D01*
X122047000Y-55523750D01*
X121793000Y-55523750D01*
X121634250Y-55365000D01*
X120170000Y-55361928D01*
X120045518Y-55374188D01*
X119942204Y-55405528D01*
X122142732Y-53205000D01*
X132384893Y-53205000D01*
X132403368Y-53223475D01*
X132585534Y-53345195D01*
X132468645Y-53414822D01*
X132252412Y-53609731D01*
X132078359Y-53843080D01*
X131953175Y-54105901D01*
X131908524Y-54253110D01*
X132029845Y-54483000D01*
X133223000Y-54483000D01*
X133223000Y-54463000D01*
X133477000Y-54463000D01*
X133477000Y-54483000D01*
X134670155Y-54483000D01*
X134791476Y-54253110D01*
X134746825Y-54105901D01*
X134621641Y-53843080D01*
X134447588Y-53609731D01*
X134231355Y-53414822D01*
X134114466Y-53345195D01*
X134296632Y-53223475D01*
X134503475Y-53016632D01*
X134665990Y-52773411D01*
X134777932Y-52503158D01*
X134835000Y-52216260D01*
X134835000Y-51923740D01*
X134777932Y-51636842D01*
X134665990Y-51366589D01*
X134503475Y-51123368D01*
X134296632Y-50916525D01*
X134053411Y-50754010D01*
X133783158Y-50642068D01*
X133496260Y-50585000D01*
X133203740Y-50585000D01*
X132916842Y-50642068D01*
X132646589Y-50754010D01*
X132403368Y-50916525D01*
X132384893Y-50935000D01*
X121728341Y-50935000D01*
X121672599Y-50929510D01*
X121616857Y-50935000D01*
X121616848Y-50935000D01*
X121450101Y-50951423D01*
X121236153Y-51016324D01*
X121038977Y-51121716D01*
X120866151Y-51263551D01*
X120830609Y-51306859D01*
X110996865Y-61140604D01*
X110953551Y-61176151D01*
X110811716Y-61348977D01*
X110727883Y-61505820D01*
X110706324Y-61546154D01*
X110641423Y-61760102D01*
X110619509Y-61982600D01*
X110625000Y-62038351D01*
X110625001Y-78795752D01*
X110641424Y-78962499D01*
X110706325Y-79176447D01*
X110811717Y-79373623D01*
X110953552Y-79546449D01*
X111126378Y-79688284D01*
X111323554Y-79793676D01*
X111537502Y-79858577D01*
X111760000Y-79880491D01*
X111982499Y-79858577D01*
X112196447Y-79793676D01*
X112393623Y-79688284D01*
X112566449Y-79546449D01*
X112708284Y-79373623D01*
X112813676Y-79176447D01*
X112878577Y-78962499D01*
X112895000Y-78795752D01*
X112895000Y-62452731D01*
X114831928Y-60515803D01*
X114831928Y-61375000D01*
X114861001Y-61670186D01*
X114947104Y-61954028D01*
X115086927Y-62215618D01*
X115275097Y-62444903D01*
X115504382Y-62633073D01*
X115765972Y-62772896D01*
X116049814Y-62858999D01*
X116345000Y-62888072D01*
X118095000Y-62888072D01*
X118390186Y-62858999D01*
X118674028Y-62772896D01*
X118935618Y-62633073D01*
X119164903Y-62444903D01*
X119353073Y-62215618D01*
X119492896Y-61954028D01*
X119531928Y-61825357D01*
X119531928Y-65250000D01*
X119544188Y-65374482D01*
X119580498Y-65494180D01*
X119639463Y-65604494D01*
X119718815Y-65701185D01*
X119815506Y-65780537D01*
X119925820Y-65839502D01*
X120045518Y-65875812D01*
X120170000Y-65888072D01*
X120785000Y-65888072D01*
X120785000Y-68821576D01*
X120751939Y-68815000D01*
X120548061Y-68815000D01*
X120348102Y-68854774D01*
X120159744Y-68932795D01*
X119990226Y-69046063D01*
X119846063Y-69190226D01*
X119732795Y-69359744D01*
X119654774Y-69548102D01*
X119615000Y-69748061D01*
X119615000Y-69951939D01*
X119654774Y-70151898D01*
X119732795Y-70340256D01*
X119846063Y-70509774D01*
X119990226Y-70653937D01*
X120159744Y-70767205D01*
X120348102Y-70845226D01*
X120548061Y-70885000D01*
X120751939Y-70885000D01*
X120785000Y-70878424D01*
X120785001Y-80809867D01*
X120779868Y-80815000D01*
X120479117Y-80815000D01*
X120143919Y-80881675D01*
X119828169Y-81012463D01*
X119544002Y-81202337D01*
X119302337Y-81444002D01*
X119112463Y-81728169D01*
X118981675Y-82043919D01*
X118915000Y-82379117D01*
X118915000Y-82720883D01*
X118981675Y-83056081D01*
X119112463Y-83371831D01*
X119302337Y-83655998D01*
X119515000Y-83868661D01*
X119515001Y-86067850D01*
X119489853Y-85941426D01*
X119381680Y-85680273D01*
X119224637Y-85445241D01*
X119024759Y-85245363D01*
X118789727Y-85088320D01*
X118528574Y-84980147D01*
X118251335Y-84925000D01*
X117968665Y-84925000D01*
X117691426Y-84980147D01*
X117430273Y-85088320D01*
X117195241Y-85245363D01*
X116995363Y-85445241D01*
X116838320Y-85680273D01*
X116730147Y-85941426D01*
X116675000Y-86218665D01*
X116675000Y-86501335D01*
X116693714Y-86595418D01*
X115224133Y-88065000D01*
X114318199Y-88065000D01*
X114222312Y-87921495D01*
X114008505Y-87707688D01*
X113757095Y-87539701D01*
X113477743Y-87423989D01*
X113181184Y-87365000D01*
X112878816Y-87365000D01*
X112582257Y-87423989D01*
X112302905Y-87539701D01*
X112051495Y-87707688D01*
X111985056Y-87774127D01*
X111979502Y-87755820D01*
X111920537Y-87645506D01*
X111841185Y-87548815D01*
X111744494Y-87469463D01*
X111634180Y-87410498D01*
X111514482Y-87374188D01*
X111390000Y-87361928D01*
X110775750Y-87365000D01*
X110617000Y-87523750D01*
X110363000Y-87523750D01*
X110204250Y-87365000D01*
X109590000Y-87361928D01*
X109465518Y-87374188D01*
X109345820Y-87410498D01*
X109235506Y-87469463D01*
X109138815Y-87548815D01*
X109059463Y-87645506D01*
X109000498Y-87755820D01*
X108964188Y-87875518D01*
X108951928Y-88000000D01*
X108610000Y-88000000D01*
X108610000Y-81450000D01*
X108751928Y-81450000D01*
X108751928Y-83650000D01*
X108764188Y-83774482D01*
X108800498Y-83894180D01*
X108859463Y-84004494D01*
X108938815Y-84101185D01*
X109035506Y-84180537D01*
X109145820Y-84239502D01*
X109265518Y-84275812D01*
X109390000Y-84288072D01*
X111590000Y-84288072D01*
X111714482Y-84275812D01*
X111834180Y-84239502D01*
X111944494Y-84180537D01*
X112041185Y-84101185D01*
X112120537Y-84004494D01*
X112179502Y-83894180D01*
X112215812Y-83774482D01*
X112228072Y-83650000D01*
X112228072Y-81450000D01*
X112215812Y-81325518D01*
X112179502Y-81205820D01*
X112120537Y-81095506D01*
X112041185Y-80998815D01*
X111944494Y-80919463D01*
X111834180Y-80860498D01*
X111714482Y-80824188D01*
X111590000Y-80811928D01*
X109390000Y-80811928D01*
X109265518Y-80824188D01*
X109145820Y-80860498D01*
X109035506Y-80919463D01*
X108938815Y-80998815D01*
X108859463Y-81095506D01*
X108800498Y-81205820D01*
X108764188Y-81325518D01*
X108751928Y-81450000D01*
X108610000Y-81450000D01*
X108610000Y-51849872D01*
X109525000Y-51849872D01*
X109525000Y-52290128D01*
X109610890Y-52721925D01*
X109779369Y-53128669D01*
X110023962Y-53494729D01*
X110335271Y-53806038D01*
X110701331Y-54050631D01*
X111108075Y-54219110D01*
X111539872Y-54305000D01*
X111980128Y-54305000D01*
X112411925Y-54219110D01*
X112818669Y-54050631D01*
X113184729Y-53806038D01*
X113496038Y-53494729D01*
X113740631Y-53128669D01*
X113909110Y-52721925D01*
X113995000Y-52290128D01*
X113995000Y-51849872D01*
X113909110Y-51418075D01*
X113740631Y-51011331D01*
X113496038Y-50645271D01*
X113184729Y-50333962D01*
X112818669Y-50089369D01*
X112411925Y-49920890D01*
X111980128Y-49835000D01*
X111539872Y-49835000D01*
X111108075Y-49920890D01*
X110701331Y-50089369D01*
X110335271Y-50333962D01*
X110023962Y-50645271D01*
X109779369Y-51011331D01*
X109610890Y-51418075D01*
X109525000Y-51849872D01*
X108610000Y-51849872D01*
X108610000Y-48920000D01*
X144787071Y-48920000D01*
X144766711Y-48936709D01*
G37*
X144766711Y-48936709D02*
X144740561Y-48968573D01*
X136598579Y-57110556D01*
X136566709Y-57136711D01*
X136494945Y-57224157D01*
X136462364Y-57263857D01*
X136384828Y-57408916D01*
X136337082Y-57566314D01*
X136320960Y-57730002D01*
X136325000Y-57771020D01*
X136325000Y-58074131D01*
X134835000Y-59564132D01*
X134835000Y-59543740D01*
X134777932Y-59256842D01*
X134665990Y-58986589D01*
X134503475Y-58743368D01*
X134296632Y-58536525D01*
X134122240Y-58420000D01*
X134296632Y-58303475D01*
X134503475Y-58096632D01*
X134665990Y-57853411D01*
X134777932Y-57583158D01*
X134835000Y-57296260D01*
X134835000Y-57003740D01*
X134777932Y-56716842D01*
X134665990Y-56446589D01*
X134503475Y-56203368D01*
X134296632Y-55996525D01*
X134114466Y-55874805D01*
X134231355Y-55805178D01*
X134447588Y-55610269D01*
X134621641Y-55376920D01*
X134746825Y-55114099D01*
X134791476Y-54966890D01*
X134670155Y-54737000D01*
X133477000Y-54737000D01*
X133477000Y-54757000D01*
X133223000Y-54757000D01*
X133223000Y-54737000D01*
X132029845Y-54737000D01*
X131908524Y-54966890D01*
X131953175Y-55114099D01*
X132078359Y-55376920D01*
X132252412Y-55610269D01*
X132468645Y-55805178D01*
X132585534Y-55874805D01*
X132403368Y-55996525D01*
X132196525Y-56203368D01*
X132034010Y-56446589D01*
X131922068Y-56716842D01*
X131865000Y-57003740D01*
X131865000Y-57296260D01*
X131922068Y-57583158D01*
X132034010Y-57853411D01*
X132196525Y-58096632D01*
X132403368Y-58303475D01*
X132577760Y-58420000D01*
X132403368Y-58536525D01*
X132196525Y-58743368D01*
X132034010Y-58986589D01*
X131922068Y-59256842D01*
X131865000Y-59543740D01*
X131865000Y-59836260D01*
X131922068Y-60123158D01*
X132034010Y-60393411D01*
X132196525Y-60636632D01*
X132403368Y-60843475D01*
X132577760Y-60960000D01*
X132403368Y-61076525D01*
X132196525Y-61283368D01*
X132034010Y-61526589D01*
X131922068Y-61796842D01*
X131865000Y-62083740D01*
X131865000Y-62376260D01*
X131922068Y-62663158D01*
X132034010Y-62933411D01*
X132196525Y-63176632D01*
X132403368Y-63383475D01*
X132585534Y-63505195D01*
X132468645Y-63574822D01*
X132252412Y-63769731D01*
X132078359Y-64003080D01*
X131953175Y-64265901D01*
X131908524Y-64413110D01*
X132029845Y-64643000D01*
X133223000Y-64643000D01*
X133223000Y-64623000D01*
X133477000Y-64623000D01*
X133477000Y-64643000D01*
X134670155Y-64643000D01*
X134791476Y-64413110D01*
X134746825Y-64265901D01*
X134621641Y-64003080D01*
X134447588Y-63769731D01*
X134231355Y-63574822D01*
X134114466Y-63505195D01*
X134296632Y-63383475D01*
X134503475Y-63176632D01*
X134665990Y-62933411D01*
X134777932Y-62663158D01*
X134835000Y-62376260D01*
X134835000Y-62083740D01*
X134808807Y-61952060D01*
X137721432Y-59039437D01*
X137753291Y-59013291D01*
X137857636Y-58886146D01*
X137935172Y-58741087D01*
X137982918Y-58583689D01*
X137995000Y-58461019D01*
X137995000Y-58461018D01*
X137999040Y-58420000D01*
X137995000Y-58378982D01*
X137995000Y-58075869D01*
X145705870Y-50365000D01*
X160944133Y-50365000D01*
X174445000Y-63865868D01*
X174444999Y-69828980D01*
X174440959Y-69869999D01*
X174444999Y-69911017D01*
X174457081Y-70033687D01*
X174504827Y-70191085D01*
X174582363Y-70336144D01*
X174686708Y-70463290D01*
X174718578Y-70489445D01*
X175071193Y-70842060D01*
X175045000Y-70973740D01*
X175045000Y-71266260D01*
X175102068Y-71553158D01*
X175214010Y-71823411D01*
X175376525Y-72066632D01*
X175583368Y-72273475D01*
X175826589Y-72435990D01*
X176096842Y-72547932D01*
X176383740Y-72605000D01*
X176676260Y-72605000D01*
X176963158Y-72547932D01*
X177233411Y-72435990D01*
X177476632Y-72273475D01*
X177683475Y-72066632D01*
X177845990Y-71823411D01*
X177957932Y-71553158D01*
X177973102Y-71476890D01*
X187788524Y-71476890D01*
X187833175Y-71624099D01*
X187958359Y-71886920D01*
X188132412Y-72120269D01*
X188348645Y-72315178D01*
X188598748Y-72464157D01*
X188873109Y-72561481D01*
X189103000Y-72440814D01*
X189103000Y-71247000D01*
X189357000Y-71247000D01*
X189357000Y-72440814D01*
X189586891Y-72561481D01*
X189861252Y-72464157D01*
X190111355Y-72315178D01*
X190327588Y-72120269D01*
X190501641Y-71886920D01*
X190626825Y-71624099D01*
X190671476Y-71476890D01*
X190550155Y-71247000D01*
X189357000Y-71247000D01*
X189103000Y-71247000D01*
X187909845Y-71247000D01*
X187788524Y-71476890D01*
X177973102Y-71476890D01*
X178015000Y-71266260D01*
X178015000Y-70973740D01*
X177957932Y-70686842D01*
X177845990Y-70416589D01*
X177683475Y-70173368D01*
X177476632Y-69966525D01*
X177302240Y-69850000D01*
X177476632Y-69733475D01*
X177683475Y-69526632D01*
X177845990Y-69283411D01*
X177957932Y-69013158D01*
X178015000Y-68726260D01*
X178015000Y-68433740D01*
X177957932Y-68146842D01*
X177845990Y-67876589D01*
X177683475Y-67633368D01*
X177476632Y-67426525D01*
X177302240Y-67310000D01*
X177476632Y-67193475D01*
X177683475Y-66986632D01*
X177845990Y-66743411D01*
X177957932Y-66473158D01*
X178015000Y-66186260D01*
X178015000Y-65893740D01*
X177957932Y-65606842D01*
X177845990Y-65336589D01*
X177683475Y-65093368D01*
X177476632Y-64886525D01*
X177302240Y-64770000D01*
X177476632Y-64653475D01*
X177683475Y-64446632D01*
X177845990Y-64203411D01*
X177957932Y-63933158D01*
X178015000Y-63646260D01*
X178015000Y-63353740D01*
X177957932Y-63066842D01*
X177845990Y-62796589D01*
X177683475Y-62553368D01*
X177476632Y-62346525D01*
X177302240Y-62230000D01*
X177476632Y-62113475D01*
X177683475Y-61906632D01*
X177845990Y-61663411D01*
X177957932Y-61393158D01*
X178015000Y-61106260D01*
X178015000Y-60813740D01*
X177957932Y-60526842D01*
X177845990Y-60256589D01*
X177683475Y-60013368D01*
X177476632Y-59806525D01*
X177302240Y-59690000D01*
X177476632Y-59573475D01*
X177683475Y-59366632D01*
X177845990Y-59123411D01*
X177957932Y-58853158D01*
X178015000Y-58566260D01*
X178015000Y-58273740D01*
X177957932Y-57986842D01*
X177845990Y-57716589D01*
X177683475Y-57473368D01*
X177476632Y-57266525D01*
X177302240Y-57150000D01*
X177476632Y-57033475D01*
X177683475Y-56826632D01*
X177845990Y-56583411D01*
X177957932Y-56313158D01*
X178015000Y-56026260D01*
X178015000Y-55733740D01*
X177957932Y-55446842D01*
X177845990Y-55176589D01*
X177683475Y-54933368D01*
X177551620Y-54801513D01*
X177624180Y-54779502D01*
X177734494Y-54720537D01*
X177831185Y-54641185D01*
X177910537Y-54544494D01*
X177969502Y-54434180D01*
X178005812Y-54314482D01*
X178018072Y-54190000D01*
X178018072Y-52490000D01*
X178005812Y-52365518D01*
X177969502Y-52245820D01*
X177910537Y-52135506D01*
X177831185Y-52038815D01*
X177734494Y-51959463D01*
X177624180Y-51900498D01*
X177504482Y-51864188D01*
X177380000Y-51851928D01*
X175680000Y-51851928D01*
X175555518Y-51864188D01*
X175435820Y-51900498D01*
X175325506Y-51959463D01*
X175228815Y-52038815D01*
X175149463Y-52135506D01*
X175090498Y-52245820D01*
X175054188Y-52365518D01*
X175041928Y-52490000D01*
X175041928Y-54190000D01*
X175054188Y-54314482D01*
X175090498Y-54434180D01*
X175149463Y-54544494D01*
X175228815Y-54641185D01*
X175325506Y-54720537D01*
X175435820Y-54779502D01*
X175508380Y-54801513D01*
X175376525Y-54933368D01*
X175214010Y-55176589D01*
X175102068Y-55446842D01*
X175045000Y-55733740D01*
X175045000Y-56026260D01*
X175102068Y-56313158D01*
X175214010Y-56583411D01*
X175376525Y-56826632D01*
X175583368Y-57033475D01*
X175757760Y-57150000D01*
X175583368Y-57266525D01*
X175376525Y-57473368D01*
X175214010Y-57716589D01*
X175102068Y-57986842D01*
X175045000Y-58273740D01*
X175045000Y-58566260D01*
X175102068Y-58853158D01*
X175214010Y-59123411D01*
X175376525Y-59366632D01*
X175583368Y-59573475D01*
X175757760Y-59690000D01*
X175583368Y-59806525D01*
X175376525Y-60013368D01*
X175214010Y-60256589D01*
X175102068Y-60526842D01*
X175045000Y-60813740D01*
X175045000Y-61106260D01*
X175102068Y-61393158D01*
X175214010Y-61663411D01*
X175376525Y-61906632D01*
X175583368Y-62113475D01*
X175757760Y-62230000D01*
X175583368Y-62346525D01*
X175435380Y-62494513D01*
X164790739Y-51849872D01*
X197155000Y-51849872D01*
X197155000Y-52290128D01*
X197240890Y-52721925D01*
X197409369Y-53128669D01*
X197653962Y-53494729D01*
X197965271Y-53806038D01*
X198331331Y-54050631D01*
X198738075Y-54219110D01*
X199169872Y-54305000D01*
X199610128Y-54305000D01*
X200041925Y-54219110D01*
X200448669Y-54050631D01*
X200814729Y-53806038D01*
X201126038Y-53494729D01*
X201370631Y-53128669D01*
X201539110Y-52721925D01*
X201625000Y-52290128D01*
X201625000Y-51849872D01*
X201539110Y-51418075D01*
X201370631Y-51011331D01*
X201126038Y-50645271D01*
X200814729Y-50333962D01*
X200448669Y-50089369D01*
X200041925Y-49920890D01*
X199610128Y-49835000D01*
X199169872Y-49835000D01*
X198738075Y-49920890D01*
X198331331Y-50089369D01*
X197965271Y-50333962D01*
X197653962Y-50645271D01*
X197409369Y-51011331D01*
X197240890Y-51418075D01*
X197155000Y-51849872D01*
X164790739Y-51849872D01*
X161909446Y-48968579D01*
X161883291Y-48936709D01*
X161862931Y-48920000D01*
X202540000Y-48920000D01*
X202540001Y-121260000D01*
X108610000Y-121260000D01*
X108610000Y-117889872D01*
X109525000Y-117889872D01*
X109525000Y-118330128D01*
X109610890Y-118761925D01*
X109779369Y-119168669D01*
X110023962Y-119534729D01*
X110335271Y-119846038D01*
X110701331Y-120090631D01*
X111108075Y-120259110D01*
X111539872Y-120345000D01*
X111980128Y-120345000D01*
X112411925Y-120259110D01*
X112818669Y-120090631D01*
X113184729Y-119846038D01*
X113496038Y-119534729D01*
X113740631Y-119168669D01*
X113909110Y-118761925D01*
X113967796Y-118466890D01*
X157308524Y-118466890D01*
X157353175Y-118614099D01*
X157478359Y-118876920D01*
X157652412Y-119110269D01*
X157868645Y-119305178D01*
X158118748Y-119454157D01*
X158393109Y-119551481D01*
X158623000Y-119430814D01*
X158623000Y-118237000D01*
X158877000Y-118237000D01*
X158877000Y-119430814D01*
X159106891Y-119551481D01*
X159381252Y-119454157D01*
X159631355Y-119305178D01*
X159847588Y-119110269D01*
X160021641Y-118876920D01*
X160146825Y-118614099D01*
X160191476Y-118466890D01*
X175088524Y-118466890D01*
X175133175Y-118614099D01*
X175258359Y-118876920D01*
X175432412Y-119110269D01*
X175648645Y-119305178D01*
X175898748Y-119454157D01*
X176173109Y-119551481D01*
X176403000Y-119430814D01*
X176403000Y-118237000D01*
X176657000Y-118237000D01*
X176657000Y-119430814D01*
X176886891Y-119551481D01*
X177161252Y-119454157D01*
X177411355Y-119305178D01*
X177627588Y-119110269D01*
X177801641Y-118876920D01*
X177926825Y-118614099D01*
X177971476Y-118466890D01*
X177850155Y-118237000D01*
X176657000Y-118237000D01*
X176403000Y-118237000D01*
X175209845Y-118237000D01*
X175088524Y-118466890D01*
X160191476Y-118466890D01*
X160070155Y-118237000D01*
X158877000Y-118237000D01*
X158623000Y-118237000D01*
X157429845Y-118237000D01*
X157308524Y-118466890D01*
X113967796Y-118466890D01*
X113995000Y-118330128D01*
X113995000Y-117889872D01*
X113909110Y-117458075D01*
X113740631Y-117051331D01*
X113496038Y-116685271D01*
X113184729Y-116373962D01*
X112818669Y-116129369D01*
X112411925Y-115960890D01*
X111980128Y-115875000D01*
X111539872Y-115875000D01*
X111108075Y-115960890D01*
X110701331Y-116129369D01*
X110335271Y-116373962D01*
X110023962Y-116685271D01*
X109779369Y-117051331D01*
X109610890Y-117458075D01*
X109525000Y-117889872D01*
X108610000Y-117889872D01*
X108610000Y-100052702D01*
X109716903Y-100052702D01*
X109788486Y-100296671D01*
X110043996Y-100417571D01*
X110318184Y-100486300D01*
X110600512Y-100500217D01*
X110880130Y-100458787D01*
X111146292Y-100363603D01*
X111271514Y-100296671D01*
X111343097Y-100052702D01*
X110530000Y-99239605D01*
X109716903Y-100052702D01*
X108610000Y-100052702D01*
X108610000Y-99130512D01*
X109089783Y-99130512D01*
X109131213Y-99410130D01*
X109226397Y-99676292D01*
X109293329Y-99801514D01*
X109537298Y-99873097D01*
X110350395Y-99060000D01*
X109537298Y-98246903D01*
X109293329Y-98318486D01*
X109172429Y-98573996D01*
X109103700Y-98848184D01*
X109089783Y-99130512D01*
X108610000Y-99130512D01*
X108610000Y-98067298D01*
X109716903Y-98067298D01*
X110530000Y-98880395D01*
X111343097Y-98067298D01*
X111271514Y-97823329D01*
X111016004Y-97702429D01*
X110741816Y-97633700D01*
X110459488Y-97619783D01*
X110179870Y-97661213D01*
X109913708Y-97756397D01*
X109788486Y-97823329D01*
X109716903Y-98067298D01*
X108610000Y-98067298D01*
X108610000Y-89800000D01*
X108951928Y-89800000D01*
X108964188Y-89924482D01*
X109000498Y-90044180D01*
X109059463Y-90154494D01*
X109138815Y-90251185D01*
X109235506Y-90330537D01*
X109345820Y-90389502D01*
X109465518Y-90425812D01*
X109590000Y-90438072D01*
X110204250Y-90435000D01*
X110363000Y-90276250D01*
X110363000Y-89027000D01*
X109113750Y-89027000D01*
X108955000Y-89185750D01*
X108951928Y-89800000D01*
X108610000Y-89800000D01*
X108610000Y-88000000D01*
X108951928Y-88000000D01*
X108955000Y-88614250D01*
X109113750Y-88773000D01*
X110363000Y-88773000D01*
X110363000Y-87523750D01*
X110617000Y-87523750D01*
X110617000Y-88773000D01*
X110637000Y-88773000D01*
X110637000Y-89027000D01*
X110617000Y-89027000D01*
X110617000Y-90276250D01*
X110775750Y-90435000D01*
X111390000Y-90438072D01*
X111514482Y-90425812D01*
X111634180Y-90389502D01*
X111744494Y-90330537D01*
X111841185Y-90251185D01*
X111920537Y-90154494D01*
X111979502Y-90044180D01*
X111985056Y-90025873D01*
X112051495Y-90092312D01*
X112302905Y-90260299D01*
X112582257Y-90376011D01*
X112878816Y-90435000D01*
X113181184Y-90435000D01*
X113477743Y-90376011D01*
X113757095Y-90260299D01*
X114008505Y-90092312D01*
X114222312Y-89878505D01*
X114318199Y-89735000D01*
X115528982Y-89735000D01*
X115570000Y-89739040D01*
X115611018Y-89735000D01*
X115611019Y-89735000D01*
X115733689Y-89722918D01*
X115891087Y-89675172D01*
X116036146Y-89597636D01*
X116163291Y-89493291D01*
X116189446Y-89461421D01*
X117874582Y-87776286D01*
X117968665Y-87795000D01*
X118251335Y-87795000D01*
X118528574Y-87739853D01*
X118789727Y-87631680D01*
X119024759Y-87474637D01*
X119224637Y-87274759D01*
X119381680Y-87039727D01*
X119489853Y-86778574D01*
X119515001Y-86652149D01*
X119515001Y-87574239D01*
X119509509Y-87630000D01*
X119531423Y-87852498D01*
X119596324Y-88066446D01*
X119596325Y-88066447D01*
X119701717Y-88263623D01*
X119843552Y-88436449D01*
X119886860Y-88471991D01*
X120785000Y-89370132D01*
X120785000Y-90171857D01*
X120596004Y-90082429D01*
X120321816Y-90013700D01*
X120039488Y-89999783D01*
X119759870Y-90041213D01*
X119493708Y-90136397D01*
X119371691Y-90201616D01*
X119361185Y-90188815D01*
X119264494Y-90109463D01*
X119154180Y-90050498D01*
X119034482Y-90014188D01*
X118910000Y-90001928D01*
X117310000Y-90001928D01*
X117185518Y-90014188D01*
X117065820Y-90050498D01*
X116955506Y-90109463D01*
X116858815Y-90188815D01*
X116779463Y-90285506D01*
X116720498Y-90395820D01*
X116684188Y-90515518D01*
X116671928Y-90640000D01*
X116671928Y-92240000D01*
X116684188Y-92364482D01*
X116720498Y-92484180D01*
X116779463Y-92594494D01*
X116858815Y-92691185D01*
X116955506Y-92770537D01*
X116975001Y-92780957D01*
X116975001Y-93509867D01*
X112862941Y-97621928D01*
X112230000Y-97621928D01*
X112105518Y-97634188D01*
X111985820Y-97670498D01*
X111875506Y-97729463D01*
X111778815Y-97808815D01*
X111699463Y-97905506D01*
X111640498Y-98015820D01*
X111604188Y-98135518D01*
X111591928Y-98260000D01*
X111591928Y-98267215D01*
X111522702Y-98246903D01*
X110709605Y-99060000D01*
X111522702Y-99873097D01*
X111591928Y-99852785D01*
X111591928Y-99860000D01*
X111604188Y-99984482D01*
X111640498Y-100104180D01*
X111699463Y-100214494D01*
X111778815Y-100311185D01*
X111875506Y-100390537D01*
X111985820Y-100449502D01*
X112105518Y-100485812D01*
X112230000Y-100498072D01*
X113830000Y-100498072D01*
X113954482Y-100485812D01*
X114074180Y-100449502D01*
X114184494Y-100390537D01*
X114281185Y-100311185D01*
X114360537Y-100214494D01*
X114419502Y-100104180D01*
X114455812Y-99984482D01*
X114468072Y-99860000D01*
X114468072Y-99227059D01*
X115435131Y-98260000D01*
X116671928Y-98260000D01*
X116671928Y-99860000D01*
X116684188Y-99984482D01*
X116720498Y-100104180D01*
X116779463Y-100214494D01*
X116858815Y-100311185D01*
X116955506Y-100390537D01*
X117065820Y-100449502D01*
X117185518Y-100485812D01*
X117310000Y-100498072D01*
X118910000Y-100498072D01*
X119034482Y-100485812D01*
X119154180Y-100449502D01*
X119264494Y-100390537D01*
X119361185Y-100311185D01*
X119440537Y-100214494D01*
X119499502Y-100104180D01*
X119515117Y-100052702D01*
X119796903Y-100052702D01*
X119868486Y-100296671D01*
X120123996Y-100417571D01*
X120398184Y-100486300D01*
X120680512Y-100500217D01*
X120960130Y-100458787D01*
X121226292Y-100363603D01*
X121351514Y-100296671D01*
X121423097Y-100052702D01*
X120610000Y-99239605D01*
X119796903Y-100052702D01*
X119515117Y-100052702D01*
X119535812Y-99984482D01*
X119548072Y-99860000D01*
X119548072Y-99852785D01*
X119617298Y-99873097D01*
X120430395Y-99060000D01*
X120789605Y-99060000D01*
X121602702Y-99873097D01*
X121846671Y-99801514D01*
X121967571Y-99546004D01*
X122036300Y-99271816D01*
X122050217Y-98989488D01*
X122008787Y-98709870D01*
X121913603Y-98443708D01*
X121846671Y-98318486D01*
X121602702Y-98246903D01*
X120789605Y-99060000D01*
X120430395Y-99060000D01*
X119617298Y-98246903D01*
X119548072Y-98267215D01*
X119548072Y-98260000D01*
X119535812Y-98135518D01*
X119515118Y-98067298D01*
X119796903Y-98067298D01*
X120610000Y-98880395D01*
X121423097Y-98067298D01*
X121351514Y-97823329D01*
X121096004Y-97702429D01*
X120821816Y-97633700D01*
X120539488Y-97619783D01*
X120259870Y-97661213D01*
X119993708Y-97756397D01*
X119868486Y-97823329D01*
X119796903Y-98067298D01*
X119515118Y-98067298D01*
X119499502Y-98015820D01*
X119440537Y-97905506D01*
X119361185Y-97808815D01*
X119264494Y-97729463D01*
X119154180Y-97670498D01*
X119034482Y-97634188D01*
X118910000Y-97621928D01*
X117310000Y-97621928D01*
X117185518Y-97634188D01*
X117065820Y-97670498D01*
X116955506Y-97729463D01*
X116858815Y-97808815D01*
X116779463Y-97905506D01*
X116720498Y-98015820D01*
X116684188Y-98135518D01*
X116671928Y-98260000D01*
X115435131Y-98260000D01*
X118873141Y-94821991D01*
X118916449Y-94786449D01*
X119058284Y-94613623D01*
X119163676Y-94416447D01*
X119228577Y-94202499D01*
X119245000Y-94035752D01*
X119250491Y-93980000D01*
X119245000Y-93924249D01*
X119245000Y-92780957D01*
X119264494Y-92770537D01*
X119361185Y-92691185D01*
X119371807Y-92678242D01*
X119623996Y-92797571D01*
X119898184Y-92866300D01*
X120180512Y-92880217D01*
X120460130Y-92838787D01*
X120726292Y-92743603D01*
X120785001Y-92712223D01*
X120785001Y-95194239D01*
X120779509Y-95250000D01*
X120801423Y-95472498D01*
X120866324Y-95686446D01*
X120866325Y-95686447D01*
X120971717Y-95883623D01*
X121113552Y-96056449D01*
X121156860Y-96091991D01*
X124291928Y-99227061D01*
X124291928Y-99860000D01*
X124304188Y-99984482D01*
X124340498Y-100104180D01*
X124399463Y-100214494D01*
X124478815Y-100311185D01*
X124575506Y-100390537D01*
X124685820Y-100449502D01*
X124805518Y-100485812D01*
X124930000Y-100498072D01*
X125562941Y-100498072D01*
X129968009Y-104903141D01*
X130003551Y-104946449D01*
X130138356Y-105057081D01*
X130176377Y-105088284D01*
X130373553Y-105193676D01*
X130587501Y-105258577D01*
X130810000Y-105280491D01*
X130865751Y-105275000D01*
X162780976Y-105275000D01*
X162766710Y-105286708D01*
X162740564Y-105318567D01*
X159057205Y-109001928D01*
X157900000Y-109001928D01*
X157775518Y-109014188D01*
X157655820Y-109050498D01*
X157545506Y-109109463D01*
X157448815Y-109188815D01*
X157369463Y-109285506D01*
X157310498Y-109395820D01*
X157274188Y-109515518D01*
X157261928Y-109640000D01*
X157261928Y-111340000D01*
X157274188Y-111464482D01*
X157310498Y-111584180D01*
X157369463Y-111694494D01*
X157448815Y-111791185D01*
X157545506Y-111870537D01*
X157655820Y-111929502D01*
X157728380Y-111951513D01*
X157596525Y-112083368D01*
X157434010Y-112326589D01*
X157322068Y-112596842D01*
X157265000Y-112883740D01*
X157265000Y-113176260D01*
X157322068Y-113463158D01*
X157434010Y-113733411D01*
X157596525Y-113976632D01*
X157803368Y-114183475D01*
X157977760Y-114300000D01*
X157803368Y-114416525D01*
X157596525Y-114623368D01*
X157434010Y-114866589D01*
X157322068Y-115136842D01*
X157265000Y-115423740D01*
X157265000Y-115716260D01*
X157322068Y-116003158D01*
X157434010Y-116273411D01*
X157596525Y-116516632D01*
X157803368Y-116723475D01*
X157985534Y-116845195D01*
X157868645Y-116914822D01*
X157652412Y-117109731D01*
X157478359Y-117343080D01*
X157353175Y-117605901D01*
X157308524Y-117753110D01*
X157429845Y-117983000D01*
X158623000Y-117983000D01*
X158623000Y-117963000D01*
X158877000Y-117963000D01*
X158877000Y-117983000D01*
X160070155Y-117983000D01*
X160191476Y-117753110D01*
X160146825Y-117605901D01*
X160021641Y-117343080D01*
X159847588Y-117109731D01*
X159631355Y-116914822D01*
X159514466Y-116845195D01*
X159696632Y-116723475D01*
X159903475Y-116516632D01*
X160065990Y-116273411D01*
X160177932Y-116003158D01*
X160235000Y-115716260D01*
X160235000Y-115423740D01*
X160177932Y-115136842D01*
X160065990Y-114866589D01*
X159903475Y-114623368D01*
X159696632Y-114416525D01*
X159522240Y-114300000D01*
X159696632Y-114183475D01*
X159903475Y-113976632D01*
X159978065Y-113865000D01*
X166328982Y-113865000D01*
X166370000Y-113869040D01*
X166411018Y-113865000D01*
X166411019Y-113865000D01*
X166533689Y-113852918D01*
X166691087Y-113805172D01*
X166836146Y-113727636D01*
X166963291Y-113623291D01*
X166989446Y-113591421D01*
X170940867Y-109640000D01*
X175041928Y-109640000D01*
X175041928Y-111340000D01*
X175054188Y-111464482D01*
X175090498Y-111584180D01*
X175149463Y-111694494D01*
X175228815Y-111791185D01*
X175325506Y-111870537D01*
X175435820Y-111929502D01*
X175508380Y-111951513D01*
X175376525Y-112083368D01*
X175214010Y-112326589D01*
X175102068Y-112596842D01*
X175045000Y-112883740D01*
X175045000Y-113176260D01*
X175102068Y-113463158D01*
X175214010Y-113733411D01*
X175376525Y-113976632D01*
X175583368Y-114183475D01*
X175757760Y-114300000D01*
X175583368Y-114416525D01*
X175376525Y-114623368D01*
X175214010Y-114866589D01*
X175102068Y-115136842D01*
X175045000Y-115423740D01*
X175045000Y-115716260D01*
X175102068Y-116003158D01*
X175214010Y-116273411D01*
X175376525Y-116516632D01*
X175583368Y-116723475D01*
X175765534Y-116845195D01*
X175648645Y-116914822D01*
X175432412Y-117109731D01*
X175258359Y-117343080D01*
X175133175Y-117605901D01*
X175088524Y-117753110D01*
X175209845Y-117983000D01*
X176403000Y-117983000D01*
X176403000Y-117963000D01*
X176657000Y-117963000D01*
X176657000Y-117983000D01*
X177850155Y-117983000D01*
X177899301Y-117889872D01*
X197155000Y-117889872D01*
X197155000Y-118330128D01*
X197240890Y-118761925D01*
X197409369Y-119168669D01*
X197653962Y-119534729D01*
X197965271Y-119846038D01*
X198331331Y-120090631D01*
X198738075Y-120259110D01*
X199169872Y-120345000D01*
X199610128Y-120345000D01*
X200041925Y-120259110D01*
X200448669Y-120090631D01*
X200814729Y-119846038D01*
X201126038Y-119534729D01*
X201370631Y-119168669D01*
X201539110Y-118761925D01*
X201625000Y-118330128D01*
X201625000Y-117889872D01*
X201539110Y-117458075D01*
X201370631Y-117051331D01*
X201126038Y-116685271D01*
X200814729Y-116373962D01*
X200448669Y-116129369D01*
X200041925Y-115960890D01*
X199610128Y-115875000D01*
X199169872Y-115875000D01*
X198738075Y-115960890D01*
X198331331Y-116129369D01*
X197965271Y-116373962D01*
X197653962Y-116685271D01*
X197409369Y-117051331D01*
X197240890Y-117458075D01*
X197155000Y-117889872D01*
X177899301Y-117889872D01*
X177971476Y-117753110D01*
X177926825Y-117605901D01*
X177801641Y-117343080D01*
X177627588Y-117109731D01*
X177411355Y-116914822D01*
X177294466Y-116845195D01*
X177476632Y-116723475D01*
X177683475Y-116516632D01*
X177845990Y-116273411D01*
X177957932Y-116003158D01*
X178015000Y-115716260D01*
X178015000Y-115423740D01*
X177957932Y-115136842D01*
X177845990Y-114866589D01*
X177683475Y-114623368D01*
X177476632Y-114416525D01*
X177302240Y-114300000D01*
X177476632Y-114183475D01*
X177683475Y-113976632D01*
X177845990Y-113733411D01*
X177957932Y-113463158D01*
X178015000Y-113176260D01*
X178015000Y-112883740D01*
X177957932Y-112596842D01*
X177845990Y-112326589D01*
X177683475Y-112083368D01*
X177551620Y-111951513D01*
X177624180Y-111929502D01*
X177734494Y-111870537D01*
X177831185Y-111791185D01*
X177910537Y-111694494D01*
X177969502Y-111584180D01*
X178005812Y-111464482D01*
X178018072Y-111340000D01*
X178018072Y-109640000D01*
X178005812Y-109515518D01*
X177969502Y-109395820D01*
X177910537Y-109285506D01*
X177831185Y-109188815D01*
X177734494Y-109109463D01*
X177624180Y-109050498D01*
X177504482Y-109014188D01*
X177380000Y-109001928D01*
X175680000Y-109001928D01*
X175555518Y-109014188D01*
X175435820Y-109050498D01*
X175325506Y-109109463D01*
X175228815Y-109188815D01*
X175149463Y-109285506D01*
X175090498Y-109395820D01*
X175054188Y-109515518D01*
X175041928Y-109640000D01*
X170940867Y-109640000D01*
X172876775Y-107704092D01*
X173021898Y-107675226D01*
X173210256Y-107597205D01*
X173379774Y-107483937D01*
X173523937Y-107339774D01*
X173637205Y-107170256D01*
X173715226Y-106981898D01*
X173755000Y-106781939D01*
X173755000Y-106714999D01*
X184908983Y-106714999D01*
X184950001Y-106719039D01*
X184991019Y-106714999D01*
X184991020Y-106714999D01*
X185113690Y-106702917D01*
X185271088Y-106655171D01*
X185416147Y-106577635D01*
X185543292Y-106473290D01*
X185569446Y-106441421D01*
X185576774Y-106434093D01*
X185721898Y-106405226D01*
X185910256Y-106327205D01*
X186079774Y-106213937D01*
X186223937Y-106069774D01*
X186337205Y-105900256D01*
X186415226Y-105711898D01*
X186455000Y-105511939D01*
X186455000Y-105308061D01*
X186448424Y-105275000D01*
X191714249Y-105275000D01*
X191770000Y-105280491D01*
X191825751Y-105275000D01*
X191825752Y-105275000D01*
X191992499Y-105258577D01*
X192206447Y-105193676D01*
X192403623Y-105088284D01*
X192576449Y-104946449D01*
X192611996Y-104903135D01*
X195073141Y-102441991D01*
X195116449Y-102406449D01*
X195258284Y-102233623D01*
X195363676Y-102036447D01*
X195428577Y-101822499D01*
X195445000Y-101655752D01*
X195445000Y-101655743D01*
X195450490Y-101600001D01*
X195445000Y-101544259D01*
X195445000Y-83875751D01*
X195450491Y-83820000D01*
X195445000Y-83764248D01*
X195445000Y-82970000D01*
X196631928Y-82970000D01*
X196631928Y-84670000D01*
X196644188Y-84794482D01*
X196680498Y-84914180D01*
X196739463Y-85024494D01*
X196818815Y-85121185D01*
X196915506Y-85200537D01*
X197025820Y-85259502D01*
X197098380Y-85281513D01*
X196966525Y-85413368D01*
X196804010Y-85656589D01*
X196692068Y-85926842D01*
X196635000Y-86213740D01*
X196635000Y-86506260D01*
X196692068Y-86793158D01*
X196804010Y-87063411D01*
X196966525Y-87306632D01*
X197173368Y-87513475D01*
X197347760Y-87630000D01*
X197173368Y-87746525D01*
X196966525Y-87953368D01*
X196804010Y-88196589D01*
X196692068Y-88466842D01*
X196635000Y-88753740D01*
X196635000Y-89046260D01*
X196692068Y-89333158D01*
X196804010Y-89603411D01*
X196966525Y-89846632D01*
X197173368Y-90053475D01*
X197347760Y-90170000D01*
X197173368Y-90286525D01*
X196966525Y-90493368D01*
X196804010Y-90736589D01*
X196692068Y-91006842D01*
X196635000Y-91293740D01*
X196635000Y-91586260D01*
X196692068Y-91873158D01*
X196804010Y-92143411D01*
X196966525Y-92386632D01*
X197173368Y-92593475D01*
X197416589Y-92755990D01*
X197686842Y-92867932D01*
X197973740Y-92925000D01*
X198266260Y-92925000D01*
X198553158Y-92867932D01*
X198823411Y-92755990D01*
X199066632Y-92593475D01*
X199273475Y-92386632D01*
X199435990Y-92143411D01*
X199547932Y-91873158D01*
X199605000Y-91586260D01*
X199605000Y-91293740D01*
X199547932Y-91006842D01*
X199435990Y-90736589D01*
X199273475Y-90493368D01*
X199066632Y-90286525D01*
X198892240Y-90170000D01*
X199066632Y-90053475D01*
X199273475Y-89846632D01*
X199435990Y-89603411D01*
X199547932Y-89333158D01*
X199605000Y-89046260D01*
X199605000Y-88753740D01*
X199547932Y-88466842D01*
X199435990Y-88196589D01*
X199273475Y-87953368D01*
X199066632Y-87746525D01*
X198892240Y-87630000D01*
X199066632Y-87513475D01*
X199273475Y-87306632D01*
X199435990Y-87063411D01*
X199547932Y-86793158D01*
X199605000Y-86506260D01*
X199605000Y-86213740D01*
X199547932Y-85926842D01*
X199435990Y-85656589D01*
X199273475Y-85413368D01*
X199141620Y-85281513D01*
X199214180Y-85259502D01*
X199324494Y-85200537D01*
X199421185Y-85121185D01*
X199500537Y-85024494D01*
X199559502Y-84914180D01*
X199595812Y-84794482D01*
X199608072Y-84670000D01*
X199608072Y-82970000D01*
X199595812Y-82845518D01*
X199559502Y-82725820D01*
X199500537Y-82615506D01*
X199421185Y-82518815D01*
X199324494Y-82439463D01*
X199214180Y-82380498D01*
X199094482Y-82344188D01*
X198970000Y-82331928D01*
X197270000Y-82331928D01*
X197145518Y-82344188D01*
X197025820Y-82380498D01*
X196915506Y-82439463D01*
X196818815Y-82518815D01*
X196739463Y-82615506D01*
X196680498Y-82725820D01*
X196644188Y-82845518D01*
X196631928Y-82970000D01*
X195445000Y-82970000D01*
X195445000Y-58721749D01*
X195450491Y-58665998D01*
X195428577Y-58443499D01*
X195363676Y-58229551D01*
X195258284Y-58032375D01*
X195193844Y-57953855D01*
X195116449Y-57859549D01*
X195073141Y-57824007D01*
X194819134Y-57570000D01*
X196631928Y-57570000D01*
X196631928Y-59270000D01*
X196644188Y-59394482D01*
X196680498Y-59514180D01*
X196739463Y-59624494D01*
X196818815Y-59721185D01*
X196915506Y-59800537D01*
X197025820Y-59859502D01*
X197098380Y-59881513D01*
X196966525Y-60013368D01*
X196804010Y-60256589D01*
X196692068Y-60526842D01*
X196635000Y-60813740D01*
X196635000Y-61106260D01*
X196692068Y-61393158D01*
X196804010Y-61663411D01*
X196966525Y-61906632D01*
X197173368Y-62113475D01*
X197347760Y-62230000D01*
X197173368Y-62346525D01*
X196966525Y-62553368D01*
X196804010Y-62796589D01*
X196692068Y-63066842D01*
X196635000Y-63353740D01*
X196635000Y-63646260D01*
X196692068Y-63933158D01*
X196804010Y-64203411D01*
X196966525Y-64446632D01*
X197173368Y-64653475D01*
X197347760Y-64770000D01*
X197173368Y-64886525D01*
X196966525Y-65093368D01*
X196804010Y-65336589D01*
X196692068Y-65606842D01*
X196635000Y-65893740D01*
X196635000Y-66186260D01*
X196692068Y-66473158D01*
X196804010Y-66743411D01*
X196966525Y-66986632D01*
X197173368Y-67193475D01*
X197416589Y-67355990D01*
X197686842Y-67467932D01*
X197973740Y-67525000D01*
X198266260Y-67525000D01*
X198553158Y-67467932D01*
X198823411Y-67355990D01*
X199066632Y-67193475D01*
X199273475Y-66986632D01*
X199435990Y-66743411D01*
X199547932Y-66473158D01*
X199605000Y-66186260D01*
X199605000Y-65893740D01*
X199547932Y-65606842D01*
X199435990Y-65336589D01*
X199273475Y-65093368D01*
X199066632Y-64886525D01*
X198892240Y-64770000D01*
X199066632Y-64653475D01*
X199273475Y-64446632D01*
X199435990Y-64203411D01*
X199547932Y-63933158D01*
X199605000Y-63646260D01*
X199605000Y-63353740D01*
X199547932Y-63066842D01*
X199435990Y-62796589D01*
X199273475Y-62553368D01*
X199066632Y-62346525D01*
X198892240Y-62230000D01*
X199066632Y-62113475D01*
X199273475Y-61906632D01*
X199435990Y-61663411D01*
X199547932Y-61393158D01*
X199605000Y-61106260D01*
X199605000Y-60813740D01*
X199547932Y-60526842D01*
X199435990Y-60256589D01*
X199273475Y-60013368D01*
X199141620Y-59881513D01*
X199214180Y-59859502D01*
X199324494Y-59800537D01*
X199421185Y-59721185D01*
X199500537Y-59624494D01*
X199559502Y-59514180D01*
X199595812Y-59394482D01*
X199608072Y-59270000D01*
X199608072Y-57570000D01*
X199595812Y-57445518D01*
X199559502Y-57325820D01*
X199500537Y-57215506D01*
X199421185Y-57118815D01*
X199324494Y-57039463D01*
X199214180Y-56980498D01*
X199094482Y-56944188D01*
X198970000Y-56931928D01*
X197270000Y-56931928D01*
X197145518Y-56944188D01*
X197025820Y-56980498D01*
X196915506Y-57039463D01*
X196818815Y-57118815D01*
X196739463Y-57215506D01*
X196680498Y-57325820D01*
X196644188Y-57445518D01*
X196631928Y-57570000D01*
X194819134Y-57570000D01*
X190718072Y-53468939D01*
X190718072Y-52490000D01*
X190705812Y-52365518D01*
X190669502Y-52245820D01*
X190610537Y-52135506D01*
X190531185Y-52038815D01*
X190434494Y-51959463D01*
X190324180Y-51900498D01*
X190204482Y-51864188D01*
X190080000Y-51851928D01*
X188380000Y-51851928D01*
X188255518Y-51864188D01*
X188135820Y-51900498D01*
X188025506Y-51959463D01*
X187928815Y-52038815D01*
X187849463Y-52135506D01*
X187790498Y-52245820D01*
X187754188Y-52365518D01*
X187741928Y-52490000D01*
X187741928Y-54190000D01*
X187754188Y-54314482D01*
X187790498Y-54434180D01*
X187849463Y-54544494D01*
X187928815Y-54641185D01*
X188025506Y-54720537D01*
X188135820Y-54779502D01*
X188216466Y-54803966D01*
X188132412Y-54879731D01*
X187958359Y-55113080D01*
X187833175Y-55375901D01*
X187788524Y-55523110D01*
X187909845Y-55753000D01*
X189103000Y-55753000D01*
X189103000Y-55733000D01*
X189357000Y-55733000D01*
X189357000Y-55753000D01*
X189377000Y-55753000D01*
X189377000Y-56007000D01*
X189357000Y-56007000D01*
X189357000Y-56027000D01*
X189103000Y-56027000D01*
X189103000Y-56007000D01*
X187909845Y-56007000D01*
X187788524Y-56236890D01*
X187833175Y-56384099D01*
X187958359Y-56646920D01*
X188132412Y-56880269D01*
X188348645Y-57075178D01*
X188465534Y-57144805D01*
X188283368Y-57266525D01*
X188076525Y-57473368D01*
X187914010Y-57716589D01*
X187802068Y-57986842D01*
X187745000Y-58273740D01*
X187745000Y-58566260D01*
X187802068Y-58853158D01*
X187914010Y-59123411D01*
X188076525Y-59366632D01*
X188283368Y-59573475D01*
X188457760Y-59690000D01*
X188283368Y-59806525D01*
X188076525Y-60013368D01*
X187914010Y-60256589D01*
X187802068Y-60526842D01*
X187745000Y-60813740D01*
X187745000Y-61106260D01*
X187802068Y-61393158D01*
X187914010Y-61663411D01*
X188076525Y-61906632D01*
X188283368Y-62113475D01*
X188457760Y-62230000D01*
X188283368Y-62346525D01*
X188076525Y-62553368D01*
X187914010Y-62796589D01*
X187802068Y-63066842D01*
X187745000Y-63353740D01*
X187745000Y-63646260D01*
X187802068Y-63933158D01*
X187914010Y-64203411D01*
X188076525Y-64446632D01*
X188283368Y-64653475D01*
X188457760Y-64770000D01*
X188283368Y-64886525D01*
X188076525Y-65093368D01*
X187914010Y-65336589D01*
X187802068Y-65606842D01*
X187745000Y-65893740D01*
X187745000Y-66186260D01*
X187802068Y-66473158D01*
X187914010Y-66743411D01*
X188076525Y-66986632D01*
X188283368Y-67193475D01*
X188457760Y-67310000D01*
X188283368Y-67426525D01*
X188076525Y-67633368D01*
X187914010Y-67876589D01*
X187802068Y-68146842D01*
X187745000Y-68433740D01*
X187745000Y-68726260D01*
X187802068Y-69013158D01*
X187914010Y-69283411D01*
X188076525Y-69526632D01*
X188283368Y-69733475D01*
X188465534Y-69855195D01*
X188348645Y-69924822D01*
X188132412Y-70119731D01*
X187958359Y-70353080D01*
X187833175Y-70615901D01*
X187788524Y-70763110D01*
X187909845Y-70993000D01*
X189103000Y-70993000D01*
X189103000Y-70973000D01*
X189357000Y-70973000D01*
X189357000Y-70993000D01*
X190550155Y-70993000D01*
X190671476Y-70763110D01*
X190626825Y-70615901D01*
X190501641Y-70353080D01*
X190327588Y-70119731D01*
X190111355Y-69924822D01*
X189994466Y-69855195D01*
X190176632Y-69733475D01*
X190383475Y-69526632D01*
X190545990Y-69283411D01*
X190657932Y-69013158D01*
X190715000Y-68726260D01*
X190715000Y-68433740D01*
X190657932Y-68146842D01*
X190545990Y-67876589D01*
X190383475Y-67633368D01*
X190176632Y-67426525D01*
X190002240Y-67310000D01*
X190176632Y-67193475D01*
X190383475Y-66986632D01*
X190545990Y-66743411D01*
X190657932Y-66473158D01*
X190715000Y-66186260D01*
X190715000Y-65893740D01*
X190657932Y-65606842D01*
X190545990Y-65336589D01*
X190383475Y-65093368D01*
X190176632Y-64886525D01*
X190002240Y-64770000D01*
X190176632Y-64653475D01*
X190383475Y-64446632D01*
X190545990Y-64203411D01*
X190657932Y-63933158D01*
X190715000Y-63646260D01*
X190715000Y-63353740D01*
X190657932Y-63066842D01*
X190545990Y-62796589D01*
X190383475Y-62553368D01*
X190176632Y-62346525D01*
X190002240Y-62230000D01*
X190176632Y-62113475D01*
X190383475Y-61906632D01*
X190545990Y-61663411D01*
X190657932Y-61393158D01*
X190715000Y-61106260D01*
X190715000Y-60813740D01*
X190657932Y-60526842D01*
X190545990Y-60256589D01*
X190383475Y-60013368D01*
X190176632Y-59806525D01*
X190002240Y-59690000D01*
X190176632Y-59573475D01*
X190383475Y-59366632D01*
X190545990Y-59123411D01*
X190657932Y-58853158D01*
X190715000Y-58566260D01*
X190715000Y-58273740D01*
X190657932Y-57986842D01*
X190545990Y-57716589D01*
X190383475Y-57473368D01*
X190176632Y-57266525D01*
X189994466Y-57144805D01*
X190111355Y-57075178D01*
X190327588Y-56880269D01*
X190501641Y-56646920D01*
X190561054Y-56522184D01*
X193175001Y-59136131D01*
X193175000Y-81079868D01*
X190718072Y-78622941D01*
X190718072Y-77890000D01*
X190705812Y-77765518D01*
X190669502Y-77645820D01*
X190610537Y-77535506D01*
X190531185Y-77438815D01*
X190434494Y-77359463D01*
X190324180Y-77300498D01*
X190204482Y-77264188D01*
X190080000Y-77251928D01*
X188380000Y-77251928D01*
X188255518Y-77264188D01*
X188135820Y-77300498D01*
X188025506Y-77359463D01*
X187928815Y-77438815D01*
X187849463Y-77535506D01*
X187790498Y-77645820D01*
X187754188Y-77765518D01*
X187741928Y-77890000D01*
X187741928Y-79590000D01*
X187754188Y-79714482D01*
X187790498Y-79834180D01*
X187849463Y-79944494D01*
X187928815Y-80041185D01*
X188025506Y-80120537D01*
X188135820Y-80179502D01*
X188216466Y-80203966D01*
X188132412Y-80279731D01*
X187958359Y-80513080D01*
X187833175Y-80775901D01*
X187788524Y-80923110D01*
X187909845Y-81153000D01*
X189103000Y-81153000D01*
X189103000Y-81133000D01*
X189357000Y-81133000D01*
X189357000Y-81153000D01*
X189377000Y-81153000D01*
X189377000Y-81407000D01*
X189357000Y-81407000D01*
X189357000Y-81427000D01*
X189103000Y-81427000D01*
X189103000Y-81407000D01*
X187909845Y-81407000D01*
X187788524Y-81636890D01*
X187833175Y-81784099D01*
X187958359Y-82046920D01*
X188132412Y-82280269D01*
X188348645Y-82475178D01*
X188465534Y-82544805D01*
X188283368Y-82666525D01*
X188076525Y-82873368D01*
X187914010Y-83116589D01*
X187802068Y-83386842D01*
X187745000Y-83673740D01*
X187745000Y-83966260D01*
X187802068Y-84253158D01*
X187914010Y-84523411D01*
X188076525Y-84766632D01*
X188283368Y-84973475D01*
X188457760Y-85090000D01*
X188283368Y-85206525D01*
X188076525Y-85413368D01*
X187914010Y-85656589D01*
X187802068Y-85926842D01*
X187745000Y-86213740D01*
X187745000Y-86506260D01*
X187802068Y-86793158D01*
X187914010Y-87063411D01*
X188076525Y-87306632D01*
X188283368Y-87513475D01*
X188457760Y-87630000D01*
X188283368Y-87746525D01*
X188076525Y-87953368D01*
X187914010Y-88196589D01*
X187802068Y-88466842D01*
X187745000Y-88753740D01*
X187745000Y-89046260D01*
X187802068Y-89333158D01*
X187914010Y-89603411D01*
X188076525Y-89846632D01*
X188283368Y-90053475D01*
X188457760Y-90170000D01*
X188283368Y-90286525D01*
X188076525Y-90493368D01*
X187914010Y-90736589D01*
X187802068Y-91006842D01*
X187745000Y-91293740D01*
X187745000Y-91586260D01*
X187802068Y-91873158D01*
X187914010Y-92143411D01*
X188076525Y-92386632D01*
X188283368Y-92593475D01*
X188457760Y-92710000D01*
X188283368Y-92826525D01*
X188076525Y-93033368D01*
X187914010Y-93276589D01*
X187802068Y-93546842D01*
X187745000Y-93833740D01*
X187745000Y-94126260D01*
X187802068Y-94413158D01*
X187914010Y-94683411D01*
X188076525Y-94926632D01*
X188283368Y-95133475D01*
X188465534Y-95255195D01*
X188348645Y-95324822D01*
X188132412Y-95519731D01*
X187958359Y-95753080D01*
X187833175Y-96015901D01*
X187788524Y-96163110D01*
X187909845Y-96393000D01*
X189103000Y-96393000D01*
X189103000Y-96373000D01*
X189357000Y-96373000D01*
X189357000Y-96393000D01*
X190550155Y-96393000D01*
X190671476Y-96163110D01*
X190626825Y-96015901D01*
X190501641Y-95753080D01*
X190327588Y-95519731D01*
X190111355Y-95324822D01*
X189994466Y-95255195D01*
X190176632Y-95133475D01*
X190383475Y-94926632D01*
X190545990Y-94683411D01*
X190657932Y-94413158D01*
X190715000Y-94126260D01*
X190715000Y-93833740D01*
X190657932Y-93546842D01*
X190545990Y-93276589D01*
X190383475Y-93033368D01*
X190176632Y-92826525D01*
X190002240Y-92710000D01*
X190176632Y-92593475D01*
X190383475Y-92386632D01*
X190545990Y-92143411D01*
X190657932Y-91873158D01*
X190715000Y-91586260D01*
X190715000Y-91293740D01*
X190657932Y-91006842D01*
X190545990Y-90736589D01*
X190383475Y-90493368D01*
X190176632Y-90286525D01*
X190002240Y-90170000D01*
X190176632Y-90053475D01*
X190383475Y-89846632D01*
X190545990Y-89603411D01*
X190657932Y-89333158D01*
X190715000Y-89046260D01*
X190715000Y-88753740D01*
X190657932Y-88466842D01*
X190545990Y-88196589D01*
X190383475Y-87953368D01*
X190176632Y-87746525D01*
X190002240Y-87630000D01*
X190176632Y-87513475D01*
X190383475Y-87306632D01*
X190545990Y-87063411D01*
X190657932Y-86793158D01*
X190715000Y-86506260D01*
X190715000Y-86213740D01*
X190657932Y-85926842D01*
X190545990Y-85656589D01*
X190383475Y-85413368D01*
X190176632Y-85206525D01*
X190002240Y-85090000D01*
X190176632Y-84973475D01*
X190383475Y-84766632D01*
X190545990Y-84523411D01*
X190657932Y-84253158D01*
X190715000Y-83966260D01*
X190715000Y-83673740D01*
X190657932Y-83386842D01*
X190545990Y-83116589D01*
X190383475Y-82873368D01*
X190176632Y-82666525D01*
X189994466Y-82544805D01*
X190111355Y-82475178D01*
X190327588Y-82280269D01*
X190501641Y-82046920D01*
X190626825Y-81784099D01*
X190636633Y-81751764D01*
X193175001Y-84290133D01*
X193175000Y-101129868D01*
X191299869Y-103005000D01*
X166145867Y-103005000D01*
X171795868Y-97355000D01*
X175301935Y-97355000D01*
X175376525Y-97466632D01*
X175583368Y-97673475D01*
X175826589Y-97835990D01*
X176096842Y-97947932D01*
X176383740Y-98005000D01*
X176676260Y-98005000D01*
X176963158Y-97947932D01*
X177233411Y-97835990D01*
X177476632Y-97673475D01*
X177683475Y-97466632D01*
X177845990Y-97223411D01*
X177957932Y-96953158D01*
X178015000Y-96666260D01*
X178015000Y-96373740D01*
X177957932Y-96086842D01*
X177845990Y-95816589D01*
X177683475Y-95573368D01*
X177476632Y-95366525D01*
X177302240Y-95250000D01*
X177476632Y-95133475D01*
X177683475Y-94926632D01*
X177845990Y-94683411D01*
X177957932Y-94413158D01*
X178015000Y-94126260D01*
X178015000Y-93833740D01*
X177957932Y-93546842D01*
X177845990Y-93276589D01*
X177683475Y-93033368D01*
X177476632Y-92826525D01*
X177302240Y-92710000D01*
X177476632Y-92593475D01*
X177683475Y-92386632D01*
X177845990Y-92143411D01*
X177957932Y-91873158D01*
X178015000Y-91586260D01*
X178015000Y-91293740D01*
X177957932Y-91006842D01*
X177845990Y-90736589D01*
X177683475Y-90493368D01*
X177476632Y-90286525D01*
X177302240Y-90170000D01*
X177476632Y-90053475D01*
X177683475Y-89846632D01*
X177845990Y-89603411D01*
X177957932Y-89333158D01*
X178015000Y-89046260D01*
X178015000Y-88753740D01*
X177957932Y-88466842D01*
X177845990Y-88196589D01*
X177683475Y-87953368D01*
X177476632Y-87746525D01*
X177302240Y-87630000D01*
X177476632Y-87513475D01*
X177683475Y-87306632D01*
X177845990Y-87063411D01*
X177957932Y-86793158D01*
X178015000Y-86506260D01*
X178015000Y-86213740D01*
X177957932Y-85926842D01*
X177845990Y-85656589D01*
X177683475Y-85413368D01*
X177476632Y-85206525D01*
X177302240Y-85090000D01*
X177476632Y-84973475D01*
X177683475Y-84766632D01*
X177845990Y-84523411D01*
X177957932Y-84253158D01*
X178015000Y-83966260D01*
X178015000Y-83673740D01*
X177957932Y-83386842D01*
X177845990Y-83116589D01*
X177683475Y-82873368D01*
X177476632Y-82666525D01*
X177302240Y-82550000D01*
X177476632Y-82433475D01*
X177683475Y-82226632D01*
X177845990Y-81983411D01*
X177957932Y-81713158D01*
X178015000Y-81426260D01*
X178015000Y-81133740D01*
X177957932Y-80846842D01*
X177845990Y-80576589D01*
X177683475Y-80333368D01*
X177551620Y-80201513D01*
X177624180Y-80179502D01*
X177734494Y-80120537D01*
X177831185Y-80041185D01*
X177910537Y-79944494D01*
X177969502Y-79834180D01*
X178005812Y-79714482D01*
X178018072Y-79590000D01*
X178018072Y-77890000D01*
X178005812Y-77765518D01*
X177969502Y-77645820D01*
X177910537Y-77535506D01*
X177831185Y-77438815D01*
X177734494Y-77359463D01*
X177624180Y-77300498D01*
X177504482Y-77264188D01*
X177380000Y-77251928D01*
X175680000Y-77251928D01*
X175555518Y-77264188D01*
X175435820Y-77300498D01*
X175325506Y-77359463D01*
X175228815Y-77438815D01*
X175149463Y-77535506D01*
X175090498Y-77645820D01*
X175054188Y-77765518D01*
X175041928Y-77890000D01*
X175041928Y-79590000D01*
X175054188Y-79714482D01*
X175090498Y-79834180D01*
X175149463Y-79944494D01*
X175228815Y-80041185D01*
X175325506Y-80120537D01*
X175435820Y-80179502D01*
X175508380Y-80201513D01*
X175376525Y-80333368D01*
X175301935Y-80445000D01*
X160177169Y-80445000D01*
X160177932Y-80443158D01*
X160235000Y-80156260D01*
X160235000Y-79863740D01*
X160177932Y-79576842D01*
X160065990Y-79306589D01*
X159903475Y-79063368D01*
X159696632Y-78856525D01*
X159522240Y-78740000D01*
X159674802Y-78638061D01*
X164065000Y-78638061D01*
X164065000Y-78841939D01*
X164104774Y-79041898D01*
X164182795Y-79230256D01*
X164296063Y-79399774D01*
X164440226Y-79543937D01*
X164609744Y-79657205D01*
X164798102Y-79735226D01*
X164998061Y-79775000D01*
X165201939Y-79775000D01*
X165401898Y-79735226D01*
X165590256Y-79657205D01*
X165759774Y-79543937D01*
X165903937Y-79399774D01*
X166017205Y-79230256D01*
X166095226Y-79041898D01*
X166124093Y-78896775D01*
X166715868Y-78305000D01*
X170836715Y-78305000D01*
X170959744Y-78387205D01*
X171148102Y-78465226D01*
X171348061Y-78505000D01*
X171551939Y-78505000D01*
X171751898Y-78465226D01*
X171940256Y-78387205D01*
X172109774Y-78273937D01*
X172253937Y-78129774D01*
X172367205Y-77960256D01*
X172445226Y-77771898D01*
X172485000Y-77571939D01*
X172485000Y-77368061D01*
X172445226Y-77168102D01*
X172367205Y-76979744D01*
X172253937Y-76810226D01*
X172109774Y-76666063D01*
X171940256Y-76552795D01*
X171751898Y-76474774D01*
X171551939Y-76435000D01*
X171348061Y-76435000D01*
X171148102Y-76474774D01*
X170959744Y-76552795D01*
X170836715Y-76635000D01*
X166411015Y-76635000D01*
X166369999Y-76630960D01*
X166328983Y-76635000D01*
X166328981Y-76635000D01*
X166206311Y-76647082D01*
X166048913Y-76694828D01*
X165903854Y-76772364D01*
X165776709Y-76876709D01*
X165750558Y-76908574D01*
X164943225Y-77715907D01*
X164798102Y-77744774D01*
X164609744Y-77822795D01*
X164440226Y-77936063D01*
X164296063Y-78080226D01*
X164182795Y-78249744D01*
X164104774Y-78438102D01*
X164065000Y-78638061D01*
X159674802Y-78638061D01*
X159696632Y-78623475D01*
X159903475Y-78416632D01*
X160065990Y-78173411D01*
X160177932Y-77903158D01*
X160235000Y-77616260D01*
X160235000Y-77323740D01*
X160177932Y-77036842D01*
X160065990Y-76766589D01*
X159903475Y-76523368D01*
X159696632Y-76316525D01*
X159522240Y-76200000D01*
X159696632Y-76083475D01*
X159903475Y-75876632D01*
X160065990Y-75633411D01*
X160177932Y-75363158D01*
X160235000Y-75076260D01*
X160235000Y-74783740D01*
X160177932Y-74496842D01*
X160177169Y-74495000D01*
X176184133Y-74495000D01*
X178235001Y-76545869D01*
X178235000Y-97444131D01*
X175103225Y-100575907D01*
X174958102Y-100604774D01*
X174769744Y-100682795D01*
X174600226Y-100796063D01*
X174456063Y-100940226D01*
X174342795Y-101109744D01*
X174264774Y-101298102D01*
X174225000Y-101498061D01*
X174225000Y-101701939D01*
X174264774Y-101901898D01*
X174342795Y-102090256D01*
X174456063Y-102259774D01*
X174600226Y-102403937D01*
X174769744Y-102517205D01*
X174958102Y-102595226D01*
X175158061Y-102635000D01*
X175361939Y-102635000D01*
X175561898Y-102595226D01*
X175750256Y-102517205D01*
X175919774Y-102403937D01*
X176063937Y-102259774D01*
X176177205Y-102090256D01*
X176255226Y-101901898D01*
X176284093Y-101756775D01*
X179631433Y-98409436D01*
X179663291Y-98383291D01*
X179734226Y-98296857D01*
X179767636Y-98256146D01*
X179845172Y-98111087D01*
X179892918Y-97953688D01*
X179896532Y-97917000D01*
X179905000Y-97831019D01*
X179905000Y-97831018D01*
X179909040Y-97790000D01*
X179905000Y-97748982D01*
X179905000Y-96876890D01*
X187788524Y-96876890D01*
X187833175Y-97024099D01*
X187958359Y-97286920D01*
X188132412Y-97520269D01*
X188348645Y-97715178D01*
X188598748Y-97864157D01*
X188873109Y-97961481D01*
X189103000Y-97840814D01*
X189103000Y-96647000D01*
X189357000Y-96647000D01*
X189357000Y-97840814D01*
X189586891Y-97961481D01*
X189861252Y-97864157D01*
X190111355Y-97715178D01*
X190327588Y-97520269D01*
X190501641Y-97286920D01*
X190626825Y-97024099D01*
X190671476Y-96876890D01*
X190550155Y-96647000D01*
X189357000Y-96647000D01*
X189103000Y-96647000D01*
X187909845Y-96647000D01*
X187788524Y-96876890D01*
X179905000Y-96876890D01*
X179905000Y-76241007D01*
X179909039Y-76199999D01*
X179905000Y-76158991D01*
X179905000Y-76158981D01*
X179892918Y-76036311D01*
X179845172Y-75878913D01*
X179767636Y-75733854D01*
X179663291Y-75606709D01*
X179631427Y-75580559D01*
X177149446Y-73098579D01*
X177123291Y-73066709D01*
X176996146Y-72962364D01*
X176851087Y-72884828D01*
X176693689Y-72837082D01*
X176571019Y-72825000D01*
X176571018Y-72825000D01*
X176530000Y-72820960D01*
X176488982Y-72825000D01*
X160365868Y-72825000D01*
X160208807Y-72667939D01*
X160235000Y-72536260D01*
X160235000Y-72243740D01*
X160177932Y-71956842D01*
X160065990Y-71686589D01*
X159903475Y-71443368D01*
X159696632Y-71236525D01*
X159522240Y-71120000D01*
X159696632Y-71003475D01*
X159903475Y-70796632D01*
X160065990Y-70553411D01*
X160177932Y-70283158D01*
X160235000Y-69996260D01*
X160235000Y-69703740D01*
X160208807Y-69572060D01*
X165661427Y-64119441D01*
X165693291Y-64093291D01*
X165797636Y-63966146D01*
X165875172Y-63821087D01*
X165922918Y-63663689D01*
X165935000Y-63541019D01*
X165939040Y-63500001D01*
X165935000Y-63458982D01*
X165935000Y-57763285D01*
X166017205Y-57640256D01*
X166095226Y-57451898D01*
X166135000Y-57251939D01*
X166135000Y-57048061D01*
X166095226Y-56848102D01*
X166017205Y-56659744D01*
X165903937Y-56490226D01*
X165759774Y-56346063D01*
X165590256Y-56232795D01*
X165401898Y-56154774D01*
X165201939Y-56115000D01*
X164998061Y-56115000D01*
X164798102Y-56154774D01*
X164609744Y-56232795D01*
X164440226Y-56346063D01*
X164296063Y-56490226D01*
X164182795Y-56659744D01*
X164104774Y-56848102D01*
X164065000Y-57048061D01*
X164065000Y-57251939D01*
X164104774Y-57451898D01*
X164182795Y-57640256D01*
X164265000Y-57763285D01*
X164265001Y-63154131D01*
X160235000Y-67184133D01*
X160235000Y-67163740D01*
X160177932Y-66876842D01*
X160065990Y-66606589D01*
X159903475Y-66363368D01*
X159696632Y-66156525D01*
X159522240Y-66040000D01*
X159696632Y-65923475D01*
X159903475Y-65716632D01*
X160065990Y-65473411D01*
X160177932Y-65203158D01*
X160235000Y-64916260D01*
X160235000Y-64623740D01*
X160177932Y-64336842D01*
X160065990Y-64066589D01*
X159903475Y-63823368D01*
X159696632Y-63616525D01*
X159522240Y-63500000D01*
X159696632Y-63383475D01*
X159903475Y-63176632D01*
X160065990Y-62933411D01*
X160177932Y-62663158D01*
X160235000Y-62376260D01*
X160235000Y-62083740D01*
X160177932Y-61796842D01*
X160065990Y-61526589D01*
X159903475Y-61283368D01*
X159696632Y-61076525D01*
X159522240Y-60960000D01*
X159696632Y-60843475D01*
X159903475Y-60636632D01*
X160065990Y-60393411D01*
X160177932Y-60123158D01*
X160235000Y-59836260D01*
X160235000Y-59543740D01*
X160177932Y-59256842D01*
X160065990Y-58986589D01*
X159903475Y-58743368D01*
X159696632Y-58536525D01*
X159522240Y-58420000D01*
X159696632Y-58303475D01*
X159903475Y-58096632D01*
X160065990Y-57853411D01*
X160177932Y-57583158D01*
X160235000Y-57296260D01*
X160235000Y-57003740D01*
X160177932Y-56716842D01*
X160065990Y-56446589D01*
X159903475Y-56203368D01*
X159696632Y-55996525D01*
X159522240Y-55880000D01*
X159696632Y-55763475D01*
X159903475Y-55556632D01*
X160065990Y-55313411D01*
X160177932Y-55043158D01*
X160235000Y-54756260D01*
X160235000Y-54463740D01*
X160177932Y-54176842D01*
X160065990Y-53906589D01*
X159903475Y-53663368D01*
X159696632Y-53456525D01*
X159522240Y-53340000D01*
X159696632Y-53223475D01*
X159903475Y-53016632D01*
X160065990Y-52773411D01*
X160177932Y-52503158D01*
X160235000Y-52216260D01*
X160235000Y-51923740D01*
X160177932Y-51636842D01*
X160065990Y-51366589D01*
X159903475Y-51123368D01*
X159696632Y-50916525D01*
X159453411Y-50754010D01*
X159183158Y-50642068D01*
X158896260Y-50585000D01*
X158603740Y-50585000D01*
X158316842Y-50642068D01*
X158046589Y-50754010D01*
X157803368Y-50916525D01*
X157596525Y-51123368D01*
X157434010Y-51366589D01*
X157322068Y-51636842D01*
X157265000Y-51923740D01*
X157265000Y-52216260D01*
X157322068Y-52503158D01*
X157434010Y-52773411D01*
X157596525Y-53016632D01*
X157803368Y-53223475D01*
X157977760Y-53340000D01*
X157803368Y-53456525D01*
X157596525Y-53663368D01*
X157434010Y-53906589D01*
X157322068Y-54176842D01*
X157265000Y-54463740D01*
X157265000Y-54756260D01*
X157322068Y-55043158D01*
X157434010Y-55313411D01*
X157596525Y-55556632D01*
X157803368Y-55763475D01*
X157977760Y-55880000D01*
X157803368Y-55996525D01*
X157596525Y-56203368D01*
X157434010Y-56446589D01*
X157322068Y-56716842D01*
X157265000Y-57003740D01*
X157265000Y-57296260D01*
X157322068Y-57583158D01*
X157434010Y-57853411D01*
X157596525Y-58096632D01*
X157803368Y-58303475D01*
X157977760Y-58420000D01*
X157803368Y-58536525D01*
X157596525Y-58743368D01*
X157434010Y-58986589D01*
X157322068Y-59256842D01*
X157265000Y-59543740D01*
X157265000Y-59836260D01*
X157322068Y-60123158D01*
X157434010Y-60393411D01*
X157596525Y-60636632D01*
X157803368Y-60843475D01*
X157977760Y-60960000D01*
X157803368Y-61076525D01*
X157596525Y-61283368D01*
X157434010Y-61526589D01*
X157322068Y-61796842D01*
X157265000Y-62083740D01*
X157265000Y-62376260D01*
X157322068Y-62663158D01*
X157434010Y-62933411D01*
X157596525Y-63176632D01*
X157803368Y-63383475D01*
X157977760Y-63500000D01*
X157803368Y-63616525D01*
X157596525Y-63823368D01*
X157434010Y-64066589D01*
X157322068Y-64336842D01*
X157265000Y-64623740D01*
X157265000Y-64916260D01*
X157322068Y-65203158D01*
X157434010Y-65473411D01*
X157596525Y-65716632D01*
X157803368Y-65923475D01*
X157977760Y-66040000D01*
X157803368Y-66156525D01*
X157596525Y-66363368D01*
X157434010Y-66606589D01*
X157322068Y-66876842D01*
X157265000Y-67163740D01*
X157265000Y-67456260D01*
X157322068Y-67743158D01*
X157434010Y-68013411D01*
X157596525Y-68256632D01*
X157803368Y-68463475D01*
X157977760Y-68580000D01*
X157803368Y-68696525D01*
X157596525Y-68903368D01*
X157434010Y-69146589D01*
X157322068Y-69416842D01*
X157265000Y-69703740D01*
X157265000Y-69996260D01*
X157322068Y-70283158D01*
X157434010Y-70553411D01*
X157596525Y-70796632D01*
X157803368Y-71003475D01*
X157977760Y-71120000D01*
X157803368Y-71236525D01*
X157596525Y-71443368D01*
X157434010Y-71686589D01*
X157322068Y-71956842D01*
X157265000Y-72243740D01*
X157265000Y-72536260D01*
X157322068Y-72823158D01*
X157434010Y-73093411D01*
X157596525Y-73336632D01*
X157803368Y-73543475D01*
X157977760Y-73660000D01*
X157803368Y-73776525D01*
X157596525Y-73983368D01*
X157434010Y-74226589D01*
X157322068Y-74496842D01*
X157265000Y-74783740D01*
X157265000Y-75076260D01*
X157322068Y-75363158D01*
X157434010Y-75633411D01*
X157596525Y-75876632D01*
X157803368Y-76083475D01*
X157977760Y-76200000D01*
X157803368Y-76316525D01*
X157596525Y-76523368D01*
X157434010Y-76766589D01*
X157322068Y-77036842D01*
X157265000Y-77323740D01*
X157265000Y-77616260D01*
X157322068Y-77903158D01*
X157434010Y-78173411D01*
X157596525Y-78416632D01*
X157803368Y-78623475D01*
X157977760Y-78740000D01*
X157803368Y-78856525D01*
X157596525Y-79063368D01*
X157434010Y-79306589D01*
X157322068Y-79576842D01*
X157265000Y-79863740D01*
X157265000Y-80156260D01*
X157322068Y-80443158D01*
X157322831Y-80445000D01*
X142585869Y-80445000D01*
X134808807Y-72667940D01*
X134835000Y-72536260D01*
X134835000Y-72243740D01*
X134777932Y-71956842D01*
X134665990Y-71686589D01*
X134503475Y-71443368D01*
X134296632Y-71236525D01*
X134122240Y-71120000D01*
X134296632Y-71003475D01*
X134503475Y-70796632D01*
X134665990Y-70553411D01*
X134777932Y-70283158D01*
X134835000Y-69996260D01*
X134835000Y-69703740D01*
X134777932Y-69416842D01*
X134665990Y-69146589D01*
X134503475Y-68903368D01*
X134296632Y-68696525D01*
X134122240Y-68580000D01*
X134296632Y-68463475D01*
X134503475Y-68256632D01*
X134665990Y-68013411D01*
X134777932Y-67743158D01*
X134835000Y-67456260D01*
X134835000Y-67163740D01*
X134777932Y-66876842D01*
X134665990Y-66606589D01*
X134503475Y-66363368D01*
X134296632Y-66156525D01*
X134114466Y-66034805D01*
X134231355Y-65965178D01*
X134447588Y-65770269D01*
X134621641Y-65536920D01*
X134746825Y-65274099D01*
X134791476Y-65126890D01*
X134670155Y-64897000D01*
X133477000Y-64897000D01*
X133477000Y-64917000D01*
X133223000Y-64917000D01*
X133223000Y-64897000D01*
X132029845Y-64897000D01*
X131908524Y-65126890D01*
X131953175Y-65274099D01*
X132078359Y-65536920D01*
X132252412Y-65770269D01*
X132468645Y-65965178D01*
X132585534Y-66034805D01*
X132403368Y-66156525D01*
X132196525Y-66363368D01*
X132034010Y-66606589D01*
X131922068Y-66876842D01*
X131865000Y-67163740D01*
X131865000Y-67456260D01*
X131922068Y-67743158D01*
X132034010Y-68013411D01*
X132196525Y-68256632D01*
X132403368Y-68463475D01*
X132577760Y-68580000D01*
X132403368Y-68696525D01*
X132196525Y-68903368D01*
X132034010Y-69146589D01*
X131922068Y-69416842D01*
X131865000Y-69703740D01*
X131865000Y-69996260D01*
X131922068Y-70283158D01*
X132034010Y-70553411D01*
X132196525Y-70796632D01*
X132403368Y-71003475D01*
X132577760Y-71120000D01*
X132403368Y-71236525D01*
X132196525Y-71443368D01*
X132034010Y-71686589D01*
X131922068Y-71956842D01*
X131865000Y-72243740D01*
X131865000Y-72536260D01*
X131922068Y-72823158D01*
X132034010Y-73093411D01*
X132196525Y-73336632D01*
X132403368Y-73543475D01*
X132577760Y-73660000D01*
X132403368Y-73776525D01*
X132196525Y-73983368D01*
X132034010Y-74226589D01*
X131922068Y-74496842D01*
X131865000Y-74783740D01*
X131865000Y-75076260D01*
X131922068Y-75363158D01*
X132034010Y-75633411D01*
X132196525Y-75876632D01*
X132403368Y-76083475D01*
X132577760Y-76200000D01*
X132403368Y-76316525D01*
X132196525Y-76523368D01*
X132034010Y-76766589D01*
X131922068Y-77036842D01*
X131865000Y-77323740D01*
X131865000Y-77616260D01*
X131922068Y-77903158D01*
X132034010Y-78173411D01*
X132196525Y-78416632D01*
X132403368Y-78623475D01*
X132577760Y-78740000D01*
X132403368Y-78856525D01*
X132196525Y-79063368D01*
X132034010Y-79306589D01*
X131922068Y-79576842D01*
X131865000Y-79863740D01*
X131865000Y-80156260D01*
X131922068Y-80443158D01*
X132034010Y-80713411D01*
X132196525Y-80956632D01*
X132403368Y-81163475D01*
X132577760Y-81280000D01*
X132403368Y-81396525D01*
X132196525Y-81603368D01*
X132034010Y-81846589D01*
X131922068Y-82116842D01*
X131865000Y-82403740D01*
X131865000Y-82696260D01*
X131922068Y-82983158D01*
X132034010Y-83253411D01*
X132196525Y-83496632D01*
X132403368Y-83703475D01*
X132577760Y-83820000D01*
X132403368Y-83936525D01*
X132196525Y-84143368D01*
X132034010Y-84386589D01*
X131922068Y-84656842D01*
X131865000Y-84943740D01*
X131865000Y-85236260D01*
X131922068Y-85523158D01*
X132034010Y-85793411D01*
X132196525Y-86036632D01*
X132403368Y-86243475D01*
X132577760Y-86360000D01*
X132403368Y-86476525D01*
X132196525Y-86683368D01*
X132034010Y-86926589D01*
X131922068Y-87196842D01*
X131865000Y-87483740D01*
X131865000Y-87776260D01*
X131922068Y-88063158D01*
X132034010Y-88333411D01*
X132196525Y-88576632D01*
X132403368Y-88783475D01*
X132577760Y-88900000D01*
X132403368Y-89016525D01*
X132196525Y-89223368D01*
X132034010Y-89466589D01*
X131922068Y-89736842D01*
X131865000Y-90023740D01*
X131865000Y-90316260D01*
X131922068Y-90603158D01*
X132034010Y-90873411D01*
X132196525Y-91116632D01*
X132403368Y-91323475D01*
X132577760Y-91440000D01*
X132403368Y-91556525D01*
X132196525Y-91763368D01*
X132034010Y-92006589D01*
X131922068Y-92276842D01*
X131865000Y-92563740D01*
X131865000Y-92856260D01*
X131922068Y-93143158D01*
X132034010Y-93413411D01*
X132196525Y-93656632D01*
X132403368Y-93863475D01*
X132577760Y-93980000D01*
X132403368Y-94096525D01*
X132196525Y-94303368D01*
X132034010Y-94546589D01*
X131922068Y-94816842D01*
X131865000Y-95103740D01*
X131865000Y-95396260D01*
X131922068Y-95683158D01*
X132034010Y-95953411D01*
X132196525Y-96196632D01*
X132328380Y-96328487D01*
X132255820Y-96350498D01*
X132145506Y-96409463D01*
X132048815Y-96488815D01*
X131969463Y-96585506D01*
X131910498Y-96695820D01*
X131874188Y-96815518D01*
X131861928Y-96940000D01*
X131861928Y-98640000D01*
X131874188Y-98764482D01*
X131910498Y-98884180D01*
X131969463Y-98994494D01*
X132048815Y-99091185D01*
X132145506Y-99170537D01*
X132255820Y-99229502D01*
X132375518Y-99265812D01*
X132500000Y-99278072D01*
X134200000Y-99278072D01*
X134324482Y-99265812D01*
X134444180Y-99229502D01*
X134554494Y-99170537D01*
X134651185Y-99091185D01*
X134730537Y-98994494D01*
X134789502Y-98884180D01*
X134825812Y-98764482D01*
X134838072Y-98640000D01*
X134838072Y-96940000D01*
X134825812Y-96815518D01*
X134789502Y-96695820D01*
X134730537Y-96585506D01*
X134651185Y-96488815D01*
X134554494Y-96409463D01*
X134444180Y-96350498D01*
X134371620Y-96328487D01*
X134503475Y-96196632D01*
X134665990Y-95953411D01*
X134777932Y-95683158D01*
X134835000Y-95396260D01*
X134835000Y-95103740D01*
X134777932Y-94816842D01*
X134665990Y-94546589D01*
X134503475Y-94303368D01*
X134296632Y-94096525D01*
X134122240Y-93980000D01*
X134296632Y-93863475D01*
X134503475Y-93656632D01*
X134665990Y-93413411D01*
X134777932Y-93143158D01*
X134835000Y-92856260D01*
X134835000Y-92563740D01*
X134777932Y-92276842D01*
X134665990Y-92006589D01*
X134503475Y-91763368D01*
X134296632Y-91556525D01*
X134122240Y-91440000D01*
X134296632Y-91323475D01*
X134503475Y-91116632D01*
X134665990Y-90873411D01*
X134777932Y-90603158D01*
X134835000Y-90316260D01*
X134835000Y-90023740D01*
X134777932Y-89736842D01*
X134665990Y-89466589D01*
X134503475Y-89223368D01*
X134296632Y-89016525D01*
X134122240Y-88900000D01*
X134296632Y-88783475D01*
X134503475Y-88576632D01*
X134665990Y-88333411D01*
X134777932Y-88063158D01*
X134835000Y-87776260D01*
X134835000Y-87483740D01*
X134777932Y-87196842D01*
X134665990Y-86926589D01*
X134503475Y-86683368D01*
X134296632Y-86476525D01*
X134122240Y-86360000D01*
X134296632Y-86243475D01*
X134503475Y-86036632D01*
X134665990Y-85793411D01*
X134777932Y-85523158D01*
X134835000Y-85236260D01*
X134835000Y-85215868D01*
X136325000Y-86705869D01*
X136325000Y-87008980D01*
X136320960Y-87049998D01*
X136325000Y-87091016D01*
X136337082Y-87213686D01*
X136384828Y-87371084D01*
X136462364Y-87516143D01*
X136566709Y-87643289D01*
X136598579Y-87669444D01*
X151934134Y-103005000D01*
X131280132Y-103005000D01*
X128693408Y-100418277D01*
X128846292Y-100363603D01*
X128971514Y-100296671D01*
X129043097Y-100052702D01*
X128230000Y-99239605D01*
X128215858Y-99253748D01*
X128036253Y-99074143D01*
X128050395Y-99060000D01*
X128409605Y-99060000D01*
X129222702Y-99873097D01*
X129466671Y-99801514D01*
X129587571Y-99546004D01*
X129656300Y-99271816D01*
X129670217Y-98989488D01*
X129628787Y-98709870D01*
X129533603Y-98443708D01*
X129466671Y-98318486D01*
X129222702Y-98246903D01*
X128409605Y-99060000D01*
X128050395Y-99060000D01*
X127237298Y-98246903D01*
X127168072Y-98267215D01*
X127168072Y-98260000D01*
X127155812Y-98135518D01*
X127135118Y-98067298D01*
X127416903Y-98067298D01*
X128230000Y-98880395D01*
X129043097Y-98067298D01*
X128971514Y-97823329D01*
X128716004Y-97702429D01*
X128441816Y-97633700D01*
X128159488Y-97619783D01*
X127879870Y-97661213D01*
X127613708Y-97756397D01*
X127488486Y-97823329D01*
X127416903Y-98067298D01*
X127135118Y-98067298D01*
X127119502Y-98015820D01*
X127060537Y-97905506D01*
X126981185Y-97808815D01*
X126884494Y-97729463D01*
X126774180Y-97670498D01*
X126654482Y-97634188D01*
X126530000Y-97621928D01*
X125897061Y-97621928D01*
X123055000Y-94779869D01*
X123055000Y-91732153D01*
X123080147Y-91858574D01*
X123188320Y-92119727D01*
X123345363Y-92354759D01*
X123545241Y-92554637D01*
X123780273Y-92711680D01*
X124041426Y-92819853D01*
X124318665Y-92875000D01*
X124601335Y-92875000D01*
X124878574Y-92819853D01*
X125139727Y-92711680D01*
X125374759Y-92554637D01*
X125496694Y-92432702D01*
X128646903Y-92432702D01*
X128718486Y-92676671D01*
X128973996Y-92797571D01*
X129248184Y-92866300D01*
X129530512Y-92880217D01*
X129810130Y-92838787D01*
X130076292Y-92743603D01*
X130201514Y-92676671D01*
X130273097Y-92432702D01*
X129460000Y-91619605D01*
X128646903Y-92432702D01*
X125496694Y-92432702D01*
X125574637Y-92354759D01*
X125731680Y-92119727D01*
X125839853Y-91858574D01*
X125895000Y-91581335D01*
X125895000Y-91510512D01*
X128019783Y-91510512D01*
X128061213Y-91790130D01*
X128156397Y-92056292D01*
X128223329Y-92181514D01*
X128467298Y-92253097D01*
X129280395Y-91440000D01*
X129639605Y-91440000D01*
X130452702Y-92253097D01*
X130696671Y-92181514D01*
X130817571Y-91926004D01*
X130886300Y-91651816D01*
X130900217Y-91369488D01*
X130858787Y-91089870D01*
X130763603Y-90823708D01*
X130696671Y-90698486D01*
X130452702Y-90626903D01*
X129639605Y-91440000D01*
X129280395Y-91440000D01*
X128467298Y-90626903D01*
X128223329Y-90698486D01*
X128102429Y-90953996D01*
X128033700Y-91228184D01*
X128019783Y-91510512D01*
X125895000Y-91510512D01*
X125895000Y-91298665D01*
X125839853Y-91021426D01*
X125731680Y-90760273D01*
X125574637Y-90525241D01*
X125496694Y-90447298D01*
X128646903Y-90447298D01*
X129460000Y-91260395D01*
X130273097Y-90447298D01*
X130201514Y-90203329D01*
X129946004Y-90082429D01*
X129671816Y-90013700D01*
X129389488Y-89999783D01*
X129109870Y-90041213D01*
X128843708Y-90136397D01*
X128718486Y-90203329D01*
X128646903Y-90447298D01*
X125496694Y-90447298D01*
X125374759Y-90325363D01*
X125139727Y-90168320D01*
X124878574Y-90060147D01*
X124601335Y-90005000D01*
X124318665Y-90005000D01*
X124041426Y-90060147D01*
X123780273Y-90168320D01*
X123545241Y-90325363D01*
X123345363Y-90525241D01*
X123188320Y-90760273D01*
X123080147Y-91021426D01*
X123055000Y-91147847D01*
X123055000Y-88955743D01*
X123060490Y-88899999D01*
X123055000Y-88844255D01*
X123055000Y-88844248D01*
X123038577Y-88677501D01*
X122973676Y-88463553D01*
X122868284Y-88266377D01*
X122726449Y-88093551D01*
X122683140Y-88058008D01*
X121785000Y-87159869D01*
X121785000Y-83868661D01*
X121997663Y-83655998D01*
X122187537Y-83371831D01*
X122318325Y-83056081D01*
X122385000Y-82720883D01*
X122385000Y-82420132D01*
X122396467Y-82408665D01*
X123025000Y-82408665D01*
X123025000Y-82691335D01*
X123080147Y-82968574D01*
X123188320Y-83229727D01*
X123345363Y-83464759D01*
X123545241Y-83664637D01*
X123780273Y-83821680D01*
X124041426Y-83929853D01*
X124318665Y-83985000D01*
X124601335Y-83985000D01*
X124695418Y-83966285D01*
X126853714Y-86124583D01*
X126835000Y-86218665D01*
X126835000Y-86501335D01*
X126890147Y-86778574D01*
X126998320Y-87039727D01*
X127155363Y-87274759D01*
X127355241Y-87474637D01*
X127590273Y-87631680D01*
X127851426Y-87739853D01*
X128128665Y-87795000D01*
X128411335Y-87795000D01*
X128688574Y-87739853D01*
X128949727Y-87631680D01*
X129184759Y-87474637D01*
X129384637Y-87274759D01*
X129541680Y-87039727D01*
X129649853Y-86778574D01*
X129705000Y-86501335D01*
X129705000Y-86218665D01*
X129649853Y-85941426D01*
X129541680Y-85680273D01*
X129384637Y-85445241D01*
X129184759Y-85245363D01*
X128949727Y-85088320D01*
X128688574Y-84980147D01*
X128411335Y-84925000D01*
X128128665Y-84925000D01*
X128034583Y-84943714D01*
X126633570Y-83542702D01*
X128646903Y-83542702D01*
X128718486Y-83786671D01*
X128973996Y-83907571D01*
X129248184Y-83976300D01*
X129530512Y-83990217D01*
X129810130Y-83948787D01*
X130076292Y-83853603D01*
X130201514Y-83786671D01*
X130273097Y-83542702D01*
X129460000Y-82729605D01*
X128646903Y-83542702D01*
X126633570Y-83542702D01*
X125876285Y-82785418D01*
X125895000Y-82691335D01*
X125895000Y-82620512D01*
X128019783Y-82620512D01*
X128061213Y-82900130D01*
X128156397Y-83166292D01*
X128223329Y-83291514D01*
X128467298Y-83363097D01*
X129280395Y-82550000D01*
X129639605Y-82550000D01*
X130452702Y-83363097D01*
X130696671Y-83291514D01*
X130817571Y-83036004D01*
X130886300Y-82761816D01*
X130900217Y-82479488D01*
X130858787Y-82199870D01*
X130763603Y-81933708D01*
X130696671Y-81808486D01*
X130452702Y-81736903D01*
X129639605Y-82550000D01*
X129280395Y-82550000D01*
X128467298Y-81736903D01*
X128223329Y-81808486D01*
X128102429Y-82063996D01*
X128033700Y-82338184D01*
X128019783Y-82620512D01*
X125895000Y-82620512D01*
X125895000Y-82408665D01*
X125839853Y-82131426D01*
X125731680Y-81870273D01*
X125574637Y-81635241D01*
X125496694Y-81557298D01*
X128646903Y-81557298D01*
X129460000Y-82370395D01*
X130273097Y-81557298D01*
X130201514Y-81313329D01*
X129946004Y-81192429D01*
X129671816Y-81123700D01*
X129389488Y-81109783D01*
X129109870Y-81151213D01*
X128843708Y-81246397D01*
X128718486Y-81313329D01*
X128646903Y-81557298D01*
X125496694Y-81557298D01*
X125374759Y-81435363D01*
X125139727Y-81278320D01*
X124878574Y-81170147D01*
X124601335Y-81115000D01*
X124318665Y-81115000D01*
X124041426Y-81170147D01*
X123780273Y-81278320D01*
X123545241Y-81435363D01*
X123345363Y-81635241D01*
X123188320Y-81870273D01*
X123080147Y-82131426D01*
X123025000Y-82408665D01*
X122396467Y-82408665D01*
X122683140Y-82121992D01*
X122726449Y-82086449D01*
X122868284Y-81913623D01*
X122973676Y-81716447D01*
X123038577Y-81502499D01*
X123055000Y-81335752D01*
X123055000Y-81335745D01*
X123060490Y-81280001D01*
X123055000Y-81224257D01*
X123055000Y-65888072D01*
X123670000Y-65888072D01*
X123794482Y-65875812D01*
X123914180Y-65839502D01*
X124024494Y-65780537D01*
X124121185Y-65701185D01*
X124200537Y-65604494D01*
X124259502Y-65494180D01*
X124295812Y-65374482D01*
X124308072Y-65250000D01*
X124308072Y-61750000D01*
X124295812Y-61625518D01*
X124259502Y-61505820D01*
X124200537Y-61395506D01*
X124121185Y-61298815D01*
X124024494Y-61219463D01*
X123914180Y-61160498D01*
X123794482Y-61124188D01*
X123670000Y-61111928D01*
X120170000Y-61111928D01*
X120045518Y-61124188D01*
X119925820Y-61160498D01*
X119815506Y-61219463D01*
X119718815Y-61298815D01*
X119639463Y-61395506D01*
X119598506Y-61472131D01*
X119608072Y-61375000D01*
X119608072Y-59625000D01*
X119578999Y-59329814D01*
X119492896Y-59045972D01*
X119468324Y-59000000D01*
X119531928Y-59000000D01*
X119544188Y-59124482D01*
X119580498Y-59244180D01*
X119639463Y-59354494D01*
X119718815Y-59451185D01*
X119815506Y-59530537D01*
X119925820Y-59589502D01*
X120045518Y-59625812D01*
X120170000Y-59638072D01*
X121634250Y-59635000D01*
X121793000Y-59476250D01*
X121793000Y-57627000D01*
X122047000Y-57627000D01*
X122047000Y-59476250D01*
X122205750Y-59635000D01*
X123670000Y-59638072D01*
X123794482Y-59625812D01*
X123914180Y-59589502D01*
X124024494Y-59530537D01*
X124121185Y-59451185D01*
X124200537Y-59354494D01*
X124259502Y-59244180D01*
X124295812Y-59124482D01*
X124308072Y-59000000D01*
X124305000Y-57785750D01*
X124146250Y-57627000D01*
X122047000Y-57627000D01*
X121793000Y-57627000D01*
X119693750Y-57627000D01*
X119535000Y-57785750D01*
X119531928Y-59000000D01*
X119468324Y-59000000D01*
X119353073Y-58784382D01*
X119164903Y-58555097D01*
X118935618Y-58366927D01*
X118674028Y-58227104D01*
X118390186Y-58141001D01*
X118095000Y-58111928D01*
X117235803Y-58111928D01*
X119575528Y-55772204D01*
X119544188Y-55875518D01*
X119531928Y-56000000D01*
X119535000Y-57214250D01*
X119693750Y-57373000D01*
X121793000Y-57373000D01*
X121793000Y-55523750D01*
X122047000Y-55523750D01*
X122047000Y-57373000D01*
X124146250Y-57373000D01*
X124305000Y-57214250D01*
X124308072Y-56000000D01*
X124295812Y-55875518D01*
X124259502Y-55755820D01*
X124200537Y-55645506D01*
X124121185Y-55548815D01*
X124024494Y-55469463D01*
X123914180Y-55410498D01*
X123794482Y-55374188D01*
X123670000Y-55361928D01*
X122205750Y-55365000D01*
X122047000Y-55523750D01*
X121793000Y-55523750D01*
X121634250Y-55365000D01*
X120170000Y-55361928D01*
X120045518Y-55374188D01*
X119942204Y-55405528D01*
X122142732Y-53205000D01*
X132384893Y-53205000D01*
X132403368Y-53223475D01*
X132585534Y-53345195D01*
X132468645Y-53414822D01*
X132252412Y-53609731D01*
X132078359Y-53843080D01*
X131953175Y-54105901D01*
X131908524Y-54253110D01*
X132029845Y-54483000D01*
X133223000Y-54483000D01*
X133223000Y-54463000D01*
X133477000Y-54463000D01*
X133477000Y-54483000D01*
X134670155Y-54483000D01*
X134791476Y-54253110D01*
X134746825Y-54105901D01*
X134621641Y-53843080D01*
X134447588Y-53609731D01*
X134231355Y-53414822D01*
X134114466Y-53345195D01*
X134296632Y-53223475D01*
X134503475Y-53016632D01*
X134665990Y-52773411D01*
X134777932Y-52503158D01*
X134835000Y-52216260D01*
X134835000Y-51923740D01*
X134777932Y-51636842D01*
X134665990Y-51366589D01*
X134503475Y-51123368D01*
X134296632Y-50916525D01*
X134053411Y-50754010D01*
X133783158Y-50642068D01*
X133496260Y-50585000D01*
X133203740Y-50585000D01*
X132916842Y-50642068D01*
X132646589Y-50754010D01*
X132403368Y-50916525D01*
X132384893Y-50935000D01*
X121728341Y-50935000D01*
X121672599Y-50929510D01*
X121616857Y-50935000D01*
X121616848Y-50935000D01*
X121450101Y-50951423D01*
X121236153Y-51016324D01*
X121038977Y-51121716D01*
X120866151Y-51263551D01*
X120830609Y-51306859D01*
X110996865Y-61140604D01*
X110953551Y-61176151D01*
X110811716Y-61348977D01*
X110727883Y-61505820D01*
X110706324Y-61546154D01*
X110641423Y-61760102D01*
X110619509Y-61982600D01*
X110625000Y-62038351D01*
X110625001Y-78795752D01*
X110641424Y-78962499D01*
X110706325Y-79176447D01*
X110811717Y-79373623D01*
X110953552Y-79546449D01*
X111126378Y-79688284D01*
X111323554Y-79793676D01*
X111537502Y-79858577D01*
X111760000Y-79880491D01*
X111982499Y-79858577D01*
X112196447Y-79793676D01*
X112393623Y-79688284D01*
X112566449Y-79546449D01*
X112708284Y-79373623D01*
X112813676Y-79176447D01*
X112878577Y-78962499D01*
X112895000Y-78795752D01*
X112895000Y-62452731D01*
X114831928Y-60515803D01*
X114831928Y-61375000D01*
X114861001Y-61670186D01*
X114947104Y-61954028D01*
X115086927Y-62215618D01*
X115275097Y-62444903D01*
X115504382Y-62633073D01*
X115765972Y-62772896D01*
X116049814Y-62858999D01*
X116345000Y-62888072D01*
X118095000Y-62888072D01*
X118390186Y-62858999D01*
X118674028Y-62772896D01*
X118935618Y-62633073D01*
X119164903Y-62444903D01*
X119353073Y-62215618D01*
X119492896Y-61954028D01*
X119531928Y-61825357D01*
X119531928Y-65250000D01*
X119544188Y-65374482D01*
X119580498Y-65494180D01*
X119639463Y-65604494D01*
X119718815Y-65701185D01*
X119815506Y-65780537D01*
X119925820Y-65839502D01*
X120045518Y-65875812D01*
X120170000Y-65888072D01*
X120785000Y-65888072D01*
X120785000Y-68821576D01*
X120751939Y-68815000D01*
X120548061Y-68815000D01*
X120348102Y-68854774D01*
X120159744Y-68932795D01*
X119990226Y-69046063D01*
X119846063Y-69190226D01*
X119732795Y-69359744D01*
X119654774Y-69548102D01*
X119615000Y-69748061D01*
X119615000Y-69951939D01*
X119654774Y-70151898D01*
X119732795Y-70340256D01*
X119846063Y-70509774D01*
X119990226Y-70653937D01*
X120159744Y-70767205D01*
X120348102Y-70845226D01*
X120548061Y-70885000D01*
X120751939Y-70885000D01*
X120785000Y-70878424D01*
X120785001Y-80809867D01*
X120779868Y-80815000D01*
X120479117Y-80815000D01*
X120143919Y-80881675D01*
X119828169Y-81012463D01*
X119544002Y-81202337D01*
X119302337Y-81444002D01*
X119112463Y-81728169D01*
X118981675Y-82043919D01*
X118915000Y-82379117D01*
X118915000Y-82720883D01*
X118981675Y-83056081D01*
X119112463Y-83371831D01*
X119302337Y-83655998D01*
X119515000Y-83868661D01*
X119515001Y-86067850D01*
X119489853Y-85941426D01*
X119381680Y-85680273D01*
X119224637Y-85445241D01*
X119024759Y-85245363D01*
X118789727Y-85088320D01*
X118528574Y-84980147D01*
X118251335Y-84925000D01*
X117968665Y-84925000D01*
X117691426Y-84980147D01*
X117430273Y-85088320D01*
X117195241Y-85245363D01*
X116995363Y-85445241D01*
X116838320Y-85680273D01*
X116730147Y-85941426D01*
X116675000Y-86218665D01*
X116675000Y-86501335D01*
X116693714Y-86595418D01*
X115224133Y-88065000D01*
X114318199Y-88065000D01*
X114222312Y-87921495D01*
X114008505Y-87707688D01*
X113757095Y-87539701D01*
X113477743Y-87423989D01*
X113181184Y-87365000D01*
X112878816Y-87365000D01*
X112582257Y-87423989D01*
X112302905Y-87539701D01*
X112051495Y-87707688D01*
X111985056Y-87774127D01*
X111979502Y-87755820D01*
X111920537Y-87645506D01*
X111841185Y-87548815D01*
X111744494Y-87469463D01*
X111634180Y-87410498D01*
X111514482Y-87374188D01*
X111390000Y-87361928D01*
X110775750Y-87365000D01*
X110617000Y-87523750D01*
X110363000Y-87523750D01*
X110204250Y-87365000D01*
X109590000Y-87361928D01*
X109465518Y-87374188D01*
X109345820Y-87410498D01*
X109235506Y-87469463D01*
X109138815Y-87548815D01*
X109059463Y-87645506D01*
X109000498Y-87755820D01*
X108964188Y-87875518D01*
X108951928Y-88000000D01*
X108610000Y-88000000D01*
X108610000Y-81450000D01*
X108751928Y-81450000D01*
X108751928Y-83650000D01*
X108764188Y-83774482D01*
X108800498Y-83894180D01*
X108859463Y-84004494D01*
X108938815Y-84101185D01*
X109035506Y-84180537D01*
X109145820Y-84239502D01*
X109265518Y-84275812D01*
X109390000Y-84288072D01*
X111590000Y-84288072D01*
X111714482Y-84275812D01*
X111834180Y-84239502D01*
X111944494Y-84180537D01*
X112041185Y-84101185D01*
X112120537Y-84004494D01*
X112179502Y-83894180D01*
X112215812Y-83774482D01*
X112228072Y-83650000D01*
X112228072Y-81450000D01*
X112215812Y-81325518D01*
X112179502Y-81205820D01*
X112120537Y-81095506D01*
X112041185Y-80998815D01*
X111944494Y-80919463D01*
X111834180Y-80860498D01*
X111714482Y-80824188D01*
X111590000Y-80811928D01*
X109390000Y-80811928D01*
X109265518Y-80824188D01*
X109145820Y-80860498D01*
X109035506Y-80919463D01*
X108938815Y-80998815D01*
X108859463Y-81095506D01*
X108800498Y-81205820D01*
X108764188Y-81325518D01*
X108751928Y-81450000D01*
X108610000Y-81450000D01*
X108610000Y-51849872D01*
X109525000Y-51849872D01*
X109525000Y-52290128D01*
X109610890Y-52721925D01*
X109779369Y-53128669D01*
X110023962Y-53494729D01*
X110335271Y-53806038D01*
X110701331Y-54050631D01*
X111108075Y-54219110D01*
X111539872Y-54305000D01*
X111980128Y-54305000D01*
X112411925Y-54219110D01*
X112818669Y-54050631D01*
X113184729Y-53806038D01*
X113496038Y-53494729D01*
X113740631Y-53128669D01*
X113909110Y-52721925D01*
X113995000Y-52290128D01*
X113995000Y-51849872D01*
X113909110Y-51418075D01*
X113740631Y-51011331D01*
X113496038Y-50645271D01*
X113184729Y-50333962D01*
X112818669Y-50089369D01*
X112411925Y-49920890D01*
X111980128Y-49835000D01*
X111539872Y-49835000D01*
X111108075Y-49920890D01*
X110701331Y-50089369D01*
X110335271Y-50333962D01*
X110023962Y-50645271D01*
X109779369Y-51011331D01*
X109610890Y-51418075D01*
X109525000Y-51849872D01*
X108610000Y-51849872D01*
X108610000Y-48920000D01*
X144787071Y-48920000D01*
X144766711Y-48936709D01*
G36*
X141620563Y-84381432D02*
G01*
X141646709Y-84413291D01*
X141678568Y-84439437D01*
X141678570Y-84439439D01*
X141695854Y-84453623D01*
X141773854Y-84517636D01*
X141918913Y-84595172D01*
X142076311Y-84642918D01*
X142198981Y-84655000D01*
X142198982Y-84655000D01*
X142240000Y-84659040D01*
X142281018Y-84655000D01*
X157322831Y-84655000D01*
X157322068Y-84656842D01*
X157265000Y-84943740D01*
X157265000Y-85236260D01*
X157322068Y-85523158D01*
X157434010Y-85793411D01*
X157596525Y-86036632D01*
X157803368Y-86243475D01*
X157977760Y-86360000D01*
X157803368Y-86476525D01*
X157596525Y-86683368D01*
X157434010Y-86926589D01*
X157322068Y-87196842D01*
X157265000Y-87483740D01*
X157265000Y-87776260D01*
X157322068Y-88063158D01*
X157434010Y-88333411D01*
X157596525Y-88576632D01*
X157803368Y-88783475D01*
X157977760Y-88900000D01*
X157803368Y-89016525D01*
X157596525Y-89223368D01*
X157434010Y-89466589D01*
X157322068Y-89736842D01*
X157265000Y-90023740D01*
X157265000Y-90316260D01*
X157322068Y-90603158D01*
X157434010Y-90873411D01*
X157596525Y-91116632D01*
X157803368Y-91323475D01*
X157977760Y-91440000D01*
X157803368Y-91556525D01*
X157596525Y-91763368D01*
X157434010Y-92006589D01*
X157322068Y-92276842D01*
X157265000Y-92563740D01*
X157265000Y-92856260D01*
X157322068Y-93143158D01*
X157434010Y-93413411D01*
X157596525Y-93656632D01*
X157803368Y-93863475D01*
X157977760Y-93980000D01*
X157803368Y-94096525D01*
X157596525Y-94303368D01*
X157434010Y-94546589D01*
X157322068Y-94816842D01*
X157265000Y-95103740D01*
X157265000Y-95396260D01*
X157322068Y-95683158D01*
X157434010Y-95953411D01*
X157596525Y-96196632D01*
X157728380Y-96328487D01*
X157655820Y-96350498D01*
X157545506Y-96409463D01*
X157448815Y-96488815D01*
X157369463Y-96585506D01*
X157310498Y-96695820D01*
X157274188Y-96815518D01*
X157261928Y-96940000D01*
X157265000Y-97504250D01*
X157423750Y-97663000D01*
X158623000Y-97663000D01*
X158623000Y-97643000D01*
X158877000Y-97643000D01*
X158877000Y-97663000D01*
X160076250Y-97663000D01*
X160235000Y-97504250D01*
X160238072Y-96940000D01*
X160225812Y-96815518D01*
X160189502Y-96695820D01*
X160130537Y-96585506D01*
X160051185Y-96488815D01*
X159954494Y-96409463D01*
X159844180Y-96350498D01*
X159771620Y-96328487D01*
X159903475Y-96196632D01*
X160065990Y-95953411D01*
X160177932Y-95683158D01*
X160235000Y-95396260D01*
X160235000Y-95103740D01*
X160177932Y-94816842D01*
X160065990Y-94546589D01*
X159903475Y-94303368D01*
X159696632Y-94096525D01*
X159522240Y-93980000D01*
X159696632Y-93863475D01*
X159903475Y-93656632D01*
X160065990Y-93413411D01*
X160177932Y-93143158D01*
X160235000Y-92856260D01*
X160235000Y-92563740D01*
X160208807Y-92432060D01*
X161783578Y-90857289D01*
X161900226Y-90973937D01*
X162069744Y-91087205D01*
X162258102Y-91165226D01*
X162458061Y-91205000D01*
X162661939Y-91205000D01*
X162861898Y-91165226D01*
X163050256Y-91087205D01*
X163219774Y-90973937D01*
X163363937Y-90829774D01*
X163477205Y-90660256D01*
X163555226Y-90471898D01*
X163584093Y-90326775D01*
X165445868Y-88465000D01*
X170836715Y-88465000D01*
X170959744Y-88547205D01*
X171148102Y-88625226D01*
X171348061Y-88665000D01*
X171551939Y-88665000D01*
X171751898Y-88625226D01*
X171940256Y-88547205D01*
X172109774Y-88433937D01*
X172253937Y-88289774D01*
X172367205Y-88120256D01*
X172445226Y-87931898D01*
X172485000Y-87731939D01*
X172485000Y-87528061D01*
X172445226Y-87328102D01*
X172367205Y-87139744D01*
X172253937Y-86970226D01*
X172109774Y-86826063D01*
X171940256Y-86712795D01*
X171751898Y-86634774D01*
X171551939Y-86595000D01*
X171348061Y-86595000D01*
X171148102Y-86634774D01*
X170959744Y-86712795D01*
X170836715Y-86795000D01*
X165845868Y-86795000D01*
X166715868Y-85925000D01*
X170836715Y-85925000D01*
X170959744Y-86007205D01*
X171148102Y-86085226D01*
X171348061Y-86125000D01*
X171551939Y-86125000D01*
X171751898Y-86085226D01*
X171940256Y-86007205D01*
X172109774Y-85893937D01*
X172253937Y-85749774D01*
X172367205Y-85580256D01*
X172445226Y-85391898D01*
X172485000Y-85191939D01*
X172485000Y-84988061D01*
X172445226Y-84788102D01*
X172390093Y-84655000D01*
X175301935Y-84655000D01*
X175376525Y-84766632D01*
X175583368Y-84973475D01*
X175757760Y-85090000D01*
X175583368Y-85206525D01*
X175376525Y-85413368D01*
X175214010Y-85656589D01*
X175102068Y-85926842D01*
X175045000Y-86213740D01*
X175045000Y-86506260D01*
X175071193Y-86637939D01*
X162214133Y-99495000D01*
X156555868Y-99495000D01*
X155700868Y-98640000D01*
X157261928Y-98640000D01*
X157274188Y-98764482D01*
X157310498Y-98884180D01*
X157369463Y-98994494D01*
X157448815Y-99091185D01*
X157545506Y-99170537D01*
X157655820Y-99229502D01*
X157775518Y-99265812D01*
X157900000Y-99278072D01*
X158464250Y-99275000D01*
X158623000Y-99116250D01*
X158623000Y-97917000D01*
X158877000Y-97917000D01*
X158877000Y-99116250D01*
X159035750Y-99275000D01*
X159600000Y-99278072D01*
X159724482Y-99265812D01*
X159844180Y-99229502D01*
X159954494Y-99170537D01*
X160051185Y-99091185D01*
X160130537Y-98994494D01*
X160189502Y-98884180D01*
X160225812Y-98764482D01*
X160238072Y-98640000D01*
X160235000Y-98075750D01*
X160076250Y-97917000D01*
X158877000Y-97917000D01*
X158623000Y-97917000D01*
X157423750Y-97917000D01*
X157265000Y-98075750D01*
X157261928Y-98640000D01*
X155700868Y-98640000D01*
X134808807Y-77747940D01*
X134835000Y-77616260D01*
X134835000Y-77595867D01*
X141620563Y-84381432D01*
G37*
X141620563Y-84381432D02*
X141646709Y-84413291D01*
X141678568Y-84439437D01*
X141678570Y-84439439D01*
X141695854Y-84453623D01*
X141773854Y-84517636D01*
X141918913Y-84595172D01*
X142076311Y-84642918D01*
X142198981Y-84655000D01*
X142198982Y-84655000D01*
X142240000Y-84659040D01*
X142281018Y-84655000D01*
X157322831Y-84655000D01*
X157322068Y-84656842D01*
X157265000Y-84943740D01*
X157265000Y-85236260D01*
X157322068Y-85523158D01*
X157434010Y-85793411D01*
X157596525Y-86036632D01*
X157803368Y-86243475D01*
X157977760Y-86360000D01*
X157803368Y-86476525D01*
X157596525Y-86683368D01*
X157434010Y-86926589D01*
X157322068Y-87196842D01*
X157265000Y-87483740D01*
X157265000Y-87776260D01*
X157322068Y-88063158D01*
X157434010Y-88333411D01*
X157596525Y-88576632D01*
X157803368Y-88783475D01*
X157977760Y-88900000D01*
X157803368Y-89016525D01*
X157596525Y-89223368D01*
X157434010Y-89466589D01*
X157322068Y-89736842D01*
X157265000Y-90023740D01*
X157265000Y-90316260D01*
X157322068Y-90603158D01*
X157434010Y-90873411D01*
X157596525Y-91116632D01*
X157803368Y-91323475D01*
X157977760Y-91440000D01*
X157803368Y-91556525D01*
X157596525Y-91763368D01*
X157434010Y-92006589D01*
X157322068Y-92276842D01*
X157265000Y-92563740D01*
X157265000Y-92856260D01*
X157322068Y-93143158D01*
X157434010Y-93413411D01*
X157596525Y-93656632D01*
X157803368Y-93863475D01*
X157977760Y-93980000D01*
X157803368Y-94096525D01*
X157596525Y-94303368D01*
X157434010Y-94546589D01*
X157322068Y-94816842D01*
X157265000Y-95103740D01*
X157265000Y-95396260D01*
X157322068Y-95683158D01*
X157434010Y-95953411D01*
X157596525Y-96196632D01*
X157728380Y-96328487D01*
X157655820Y-96350498D01*
X157545506Y-96409463D01*
X157448815Y-96488815D01*
X157369463Y-96585506D01*
X157310498Y-96695820D01*
X157274188Y-96815518D01*
X157261928Y-96940000D01*
X157265000Y-97504250D01*
X157423750Y-97663000D01*
X158623000Y-97663000D01*
X158623000Y-97643000D01*
X158877000Y-97643000D01*
X158877000Y-97663000D01*
X160076250Y-97663000D01*
X160235000Y-97504250D01*
X160238072Y-96940000D01*
X160225812Y-96815518D01*
X160189502Y-96695820D01*
X160130537Y-96585506D01*
X160051185Y-96488815D01*
X159954494Y-96409463D01*
X159844180Y-96350498D01*
X159771620Y-96328487D01*
X159903475Y-96196632D01*
X160065990Y-95953411D01*
X160177932Y-95683158D01*
X160235000Y-95396260D01*
X160235000Y-95103740D01*
X160177932Y-94816842D01*
X160065990Y-94546589D01*
X159903475Y-94303368D01*
X159696632Y-94096525D01*
X159522240Y-93980000D01*
X159696632Y-93863475D01*
X159903475Y-93656632D01*
X160065990Y-93413411D01*
X160177932Y-93143158D01*
X160235000Y-92856260D01*
X160235000Y-92563740D01*
X160208807Y-92432060D01*
X161783578Y-90857289D01*
X161900226Y-90973937D01*
X162069744Y-91087205D01*
X162258102Y-91165226D01*
X162458061Y-91205000D01*
X162661939Y-91205000D01*
X162861898Y-91165226D01*
X163050256Y-91087205D01*
X163219774Y-90973937D01*
X163363937Y-90829774D01*
X163477205Y-90660256D01*
X163555226Y-90471898D01*
X163584093Y-90326775D01*
X165445868Y-88465000D01*
X170836715Y-88465000D01*
X170959744Y-88547205D01*
X171148102Y-88625226D01*
X171348061Y-88665000D01*
X171551939Y-88665000D01*
X171751898Y-88625226D01*
X171940256Y-88547205D01*
X172109774Y-88433937D01*
X172253937Y-88289774D01*
X172367205Y-88120256D01*
X172445226Y-87931898D01*
X172485000Y-87731939D01*
X172485000Y-87528061D01*
X172445226Y-87328102D01*
X172367205Y-87139744D01*
X172253937Y-86970226D01*
X172109774Y-86826063D01*
X171940256Y-86712795D01*
X171751898Y-86634774D01*
X171551939Y-86595000D01*
X171348061Y-86595000D01*
X171148102Y-86634774D01*
X170959744Y-86712795D01*
X170836715Y-86795000D01*
X165845868Y-86795000D01*
X166715868Y-85925000D01*
X170836715Y-85925000D01*
X170959744Y-86007205D01*
X171148102Y-86085226D01*
X171348061Y-86125000D01*
X171551939Y-86125000D01*
X171751898Y-86085226D01*
X171940256Y-86007205D01*
X172109774Y-85893937D01*
X172253937Y-85749774D01*
X172367205Y-85580256D01*
X172445226Y-85391898D01*
X172485000Y-85191939D01*
X172485000Y-84988061D01*
X172445226Y-84788102D01*
X172390093Y-84655000D01*
X175301935Y-84655000D01*
X175376525Y-84766632D01*
X175583368Y-84973475D01*
X175757760Y-85090000D01*
X175583368Y-85206525D01*
X175376525Y-85413368D01*
X175214010Y-85656589D01*
X175102068Y-85926842D01*
X175045000Y-86213740D01*
X175045000Y-86506260D01*
X175071193Y-86637939D01*
X162214133Y-99495000D01*
X156555868Y-99495000D01*
X155700868Y-98640000D01*
X157261928Y-98640000D01*
X157274188Y-98764482D01*
X157310498Y-98884180D01*
X157369463Y-98994494D01*
X157448815Y-99091185D01*
X157545506Y-99170537D01*
X157655820Y-99229502D01*
X157775518Y-99265812D01*
X157900000Y-99278072D01*
X158464250Y-99275000D01*
X158623000Y-99116250D01*
X158623000Y-97917000D01*
X158877000Y-97917000D01*
X158877000Y-99116250D01*
X159035750Y-99275000D01*
X159600000Y-99278072D01*
X159724482Y-99265812D01*
X159844180Y-99229502D01*
X159954494Y-99170537D01*
X160051185Y-99091185D01*
X160130537Y-98994494D01*
X160189502Y-98884180D01*
X160225812Y-98764482D01*
X160238072Y-98640000D01*
X160235000Y-98075750D01*
X160076250Y-97917000D01*
X158877000Y-97917000D01*
X158623000Y-97917000D01*
X157423750Y-97917000D01*
X157265000Y-98075750D01*
X157261928Y-98640000D01*
X155700868Y-98640000D01*
X134808807Y-77747940D01*
X134835000Y-77616260D01*
X134835000Y-77595867D01*
X141620563Y-84381432D01*
G36*
X120303748Y-91425858D02*
G01*
X120289605Y-91440000D01*
X120303748Y-91454143D01*
X120124143Y-91633748D01*
X120110000Y-91619605D01*
X120095858Y-91633748D01*
X119916253Y-91454143D01*
X119930395Y-91440000D01*
X119916253Y-91425858D01*
X120095858Y-91246253D01*
X120110000Y-91260395D01*
X120124143Y-91246253D01*
X120303748Y-91425858D01*
G37*
X120303748Y-91425858D02*
X120289605Y-91440000D01*
X120303748Y-91454143D01*
X120124143Y-91633748D01*
X120110000Y-91619605D01*
X120095858Y-91633748D01*
X119916253Y-91454143D01*
X119930395Y-91440000D01*
X119916253Y-91425858D01*
X120095858Y-91246253D01*
X120110000Y-91260395D01*
X120124143Y-91246253D01*
X120303748Y-91425858D01*
G36*
X141620563Y-81841432D02*
G01*
X141646709Y-81873291D01*
X141678568Y-81899437D01*
X141678570Y-81899439D01*
X141699211Y-81916378D01*
X141773854Y-81977636D01*
X141918913Y-82055172D01*
X142076311Y-82102918D01*
X142198981Y-82115000D01*
X142198982Y-82115000D01*
X142240000Y-82119040D01*
X142281018Y-82115000D01*
X157332216Y-82115000D01*
X157308524Y-82193110D01*
X157429845Y-82423000D01*
X158623000Y-82423000D01*
X158623000Y-82403000D01*
X158877000Y-82403000D01*
X158877000Y-82423000D01*
X160070155Y-82423000D01*
X160191476Y-82193110D01*
X160167784Y-82115000D01*
X175301935Y-82115000D01*
X175376525Y-82226632D01*
X175583368Y-82433475D01*
X175757760Y-82550000D01*
X175583368Y-82666525D01*
X175376525Y-82873368D01*
X175301935Y-82985000D01*
X160167784Y-82985000D01*
X160191476Y-82906890D01*
X160070155Y-82677000D01*
X158877000Y-82677000D01*
X158877000Y-82697000D01*
X158623000Y-82697000D01*
X158623000Y-82677000D01*
X157429845Y-82677000D01*
X157308524Y-82906890D01*
X157332216Y-82985000D01*
X142585869Y-82985000D01*
X134808807Y-75207940D01*
X134835000Y-75076260D01*
X134835000Y-75055867D01*
X141620563Y-81841432D01*
G37*
X141620563Y-81841432D02*
X141646709Y-81873291D01*
X141678568Y-81899437D01*
X141678570Y-81899439D01*
X141699211Y-81916378D01*
X141773854Y-81977636D01*
X141918913Y-82055172D01*
X142076311Y-82102918D01*
X142198981Y-82115000D01*
X142198982Y-82115000D01*
X142240000Y-82119040D01*
X142281018Y-82115000D01*
X157332216Y-82115000D01*
X157308524Y-82193110D01*
X157429845Y-82423000D01*
X158623000Y-82423000D01*
X158623000Y-82403000D01*
X158877000Y-82403000D01*
X158877000Y-82423000D01*
X160070155Y-82423000D01*
X160191476Y-82193110D01*
X160167784Y-82115000D01*
X175301935Y-82115000D01*
X175376525Y-82226632D01*
X175583368Y-82433475D01*
X175757760Y-82550000D01*
X175583368Y-82666525D01*
X175376525Y-82873368D01*
X175301935Y-82985000D01*
X160167784Y-82985000D01*
X160191476Y-82906890D01*
X160070155Y-82677000D01*
X158877000Y-82677000D01*
X158877000Y-82697000D01*
X158623000Y-82697000D01*
X158623000Y-82677000D01*
X157429845Y-82677000D01*
X157308524Y-82906890D01*
X157332216Y-82985000D01*
X142585869Y-82985000D01*
X134808807Y-75207940D01*
X134835000Y-75076260D01*
X134835000Y-75055867D01*
X141620563Y-81841432D01*
M02*
