M48
; DRILL file {KiCad 5.1.6-c6e7f7d~86~ubuntu18.04.1} date Mon Jun 15 20:44:47 2020
; FORMAT={-:-/ absolute / metric / decimal}
; #@! TF.CreationDate,2020-06-15T20:44:47+01:00
; #@! TF.GenerationSoftware,Kicad,Pcbnew,5.1.6-c6e7f7d~86~ubuntu18.04.1
; #@! TF.FileFunction,Plated,1,2,PTH
FMAT,2
METRIC
T1C0.400
T2C0.800
T3C0.900
T4C1.000
T5C1.100
%
G90
G05
T1
X111.76Y-78.74
X113.03Y-72.39
X113.03Y-80.01
X120.65Y-69.85
X124.46Y-72.39
X128.27Y-63.5
X162.56Y-90.17
X165.1Y-57.15
X165.1Y-78.74
X171.45Y-77.47
X171.45Y-85.09
X171.45Y-87.63
X172.72Y-106.68
X175.26Y-101.6
X185.42Y-105.41
T2
X110.53Y-99.06
X113.03Y-99.06
X124.46Y-91.44
X129.46Y-91.44
X118.11Y-91.44
X120.11Y-91.44
X124.46Y-82.55
X129.46Y-82.55
X118.11Y-99.06
X120.61Y-99.06
X118.11Y-86.36
X128.27Y-86.36
X125.73Y-99.06
X128.23Y-99.06
T3
X110.49Y-88.9
X113.03Y-88.9
T4
X198.12Y-58.42
X198.12Y-60.96
X198.12Y-63.5
X198.12Y-66.04
X158.75Y-52.07
X158.75Y-54.61
X158.75Y-57.15
X158.75Y-59.69
X158.75Y-62.23
X158.75Y-64.77
X158.75Y-67.31
X158.75Y-69.85
X158.75Y-72.39
X158.75Y-74.93
X158.75Y-77.47
X158.75Y-80.01
X158.75Y-82.55
X158.75Y-85.09
X158.75Y-87.63
X158.75Y-90.17
X158.75Y-92.71
X158.75Y-95.25
X158.75Y-97.79
X133.35Y-52.07
X133.35Y-54.61
X133.35Y-57.15
X133.35Y-59.69
X133.35Y-62.23
X133.35Y-64.77
X133.35Y-67.31
X133.35Y-69.85
X133.35Y-72.39
X133.35Y-74.93
X133.35Y-77.47
X133.35Y-80.01
X133.35Y-82.55
X133.35Y-85.09
X133.35Y-87.63
X133.35Y-90.17
X133.35Y-92.71
X133.35Y-95.25
X133.35Y-97.79
X176.53Y-110.49
X176.53Y-113.03
X176.53Y-115.57
X176.53Y-118.11
X189.23Y-53.34
X189.23Y-55.88
X189.23Y-58.42
X189.23Y-60.96
X189.23Y-63.5
X189.23Y-66.04
X189.23Y-68.58
X189.23Y-71.12
X189.23Y-78.74
X189.23Y-81.28
X189.23Y-83.82
X189.23Y-86.36
X189.23Y-88.9
X189.23Y-91.44
X189.23Y-93.98
X189.23Y-96.52
X176.53Y-53.34
X176.53Y-55.88
X176.53Y-58.42
X176.53Y-60.96
X176.53Y-63.5
X176.53Y-66.04
X176.53Y-68.58
X176.53Y-71.12
X176.53Y-78.74
X176.53Y-81.28
X176.53Y-83.82
X176.53Y-86.36
X176.53Y-88.9
X176.53Y-91.44
X176.53Y-93.98
X176.53Y-96.52
X198.12Y-83.82
X198.12Y-86.36
X198.12Y-88.9
X198.12Y-91.44
X158.75Y-110.49
X158.75Y-113.03
X158.75Y-115.57
X158.75Y-118.11
T5
X110.49Y-82.55
X120.65Y-82.55
T4
G00X117.22Y-59.5
M15
G01X117.22Y-61.5
M16
G05
G00X122.92Y-57.5
M15
G01X120.92Y-57.5
M16
G05
G00X122.92Y-63.5
M15
G01X120.92Y-63.5
M16
G05
T0
M30
