G04 #@! TF.GenerationSoftware,KiCad,Pcbnew,5.1.6-c6e7f7d~86~ubuntu18.04.1*
G04 #@! TF.CreationDate,2020-06-15T20:43:44+01:00*
G04 #@! TF.ProjectId,placa_modular,706c6163-615f-46d6-9f64-756c61722e6b,V1.0*
G04 #@! TF.SameCoordinates,Original*
G04 #@! TF.FileFunction,Copper,L1,Top*
G04 #@! TF.FilePolarity,Positive*
%FSLAX46Y46*%
G04 Gerber Fmt 4.6, Leading zero omitted, Abs format (unit mm)*
G04 Created by KiCad (PCBNEW 5.1.6-c6e7f7d~86~ubuntu18.04.1) date 2020-06-15 20:43:44*
%MOMM*%
%LPD*%
G01*
G04 APERTURE LIST*
G04 #@! TA.AperFunction,ComponentPad*
%ADD10R,2.200000X2.200000*%
G04 #@! TD*
G04 #@! TA.AperFunction,ComponentPad*
%ADD11O,2.200000X2.200000*%
G04 #@! TD*
G04 #@! TA.AperFunction,ComponentPad*
%ADD12R,1.800000X1.800000*%
G04 #@! TD*
G04 #@! TA.AperFunction,ComponentPad*
%ADD13C,1.800000*%
G04 #@! TD*
G04 #@! TA.AperFunction,ComponentPad*
%ADD14R,3.500000X3.500000*%
G04 #@! TD*
G04 #@! TA.AperFunction,ComponentPad*
%ADD15O,1.700000X1.700000*%
G04 #@! TD*
G04 #@! TA.AperFunction,ComponentPad*
%ADD16R,1.700000X1.700000*%
G04 #@! TD*
G04 #@! TA.AperFunction,ComponentPad*
%ADD17C,1.600000*%
G04 #@! TD*
G04 #@! TA.AperFunction,ComponentPad*
%ADD18O,1.600000X1.600000*%
G04 #@! TD*
G04 #@! TA.AperFunction,SMDPad,CuDef*
%ADD19R,3.800000X2.000000*%
G04 #@! TD*
G04 #@! TA.AperFunction,SMDPad,CuDef*
%ADD20R,1.500000X2.000000*%
G04 #@! TD*
G04 #@! TA.AperFunction,ComponentPad*
%ADD21R,1.600000X1.600000*%
G04 #@! TD*
G04 #@! TA.AperFunction,ViaPad*
%ADD22C,0.800000*%
G04 #@! TD*
G04 #@! TA.AperFunction,Conductor*
%ADD23C,1.000000*%
G04 #@! TD*
G04 #@! TA.AperFunction,Conductor*
%ADD24C,0.400000*%
G04 #@! TD*
G04 #@! TA.AperFunction,Conductor*
%ADD25C,0.254000*%
G04 #@! TD*
G04 APERTURE END LIST*
D10*
X110490000Y-82550000D03*
D11*
X120650000Y-82550000D03*
D12*
X110490000Y-88900000D03*
D13*
X113030000Y-88900000D03*
D14*
X121920000Y-63500000D03*
G04 #@! TA.AperFunction,ComponentPad*
G36*
G01*
X120920000Y-56000000D02*
X122920000Y-56000000D01*
G75*
G02*
X123670000Y-56750000I0J-750000D01*
G01*
X123670000Y-58250000D01*
G75*
G02*
X122920000Y-59000000I-750000J0D01*
G01*
X120920000Y-59000000D01*
G75*
G02*
X120170000Y-58250000I0J750000D01*
G01*
X120170000Y-56750000D01*
G75*
G02*
X120920000Y-56000000I750000J0D01*
G01*
G37*
G04 #@! TD.AperFunction*
G04 #@! TA.AperFunction,ComponentPad*
G36*
G01*
X116345000Y-58750000D02*
X118095000Y-58750000D01*
G75*
G02*
X118970000Y-59625000I0J-875000D01*
G01*
X118970000Y-61375000D01*
G75*
G02*
X118095000Y-62250000I-875000J0D01*
G01*
X116345000Y-62250000D01*
G75*
G02*
X115470000Y-61375000I0J875000D01*
G01*
X115470000Y-59625000D01*
G75*
G02*
X116345000Y-58750000I875000J0D01*
G01*
G37*
G04 #@! TD.AperFunction*
D15*
X133350000Y-52070000D03*
X133350000Y-54610000D03*
X133350000Y-57150000D03*
X133350000Y-59690000D03*
X133350000Y-62230000D03*
X133350000Y-64770000D03*
X133350000Y-67310000D03*
X133350000Y-69850000D03*
X133350000Y-72390000D03*
X133350000Y-74930000D03*
X133350000Y-77470000D03*
X133350000Y-80010000D03*
X133350000Y-82550000D03*
X133350000Y-85090000D03*
X133350000Y-87630000D03*
X133350000Y-90170000D03*
X133350000Y-92710000D03*
X133350000Y-95250000D03*
D16*
X133350000Y-97790000D03*
X158750000Y-97790000D03*
D15*
X158750000Y-95250000D03*
X158750000Y-92710000D03*
X158750000Y-90170000D03*
X158750000Y-87630000D03*
X158750000Y-85090000D03*
X158750000Y-82550000D03*
X158750000Y-80010000D03*
X158750000Y-77470000D03*
X158750000Y-74930000D03*
X158750000Y-72390000D03*
X158750000Y-69850000D03*
X158750000Y-67310000D03*
X158750000Y-64770000D03*
X158750000Y-62230000D03*
X158750000Y-59690000D03*
X158750000Y-57150000D03*
X158750000Y-54610000D03*
X158750000Y-52070000D03*
X176530000Y-118110000D03*
X176530000Y-115570000D03*
X176530000Y-113030000D03*
D16*
X176530000Y-110490000D03*
D15*
X176530000Y-96520000D03*
X176530000Y-93980000D03*
X176530000Y-91440000D03*
X176530000Y-88900000D03*
X176530000Y-86360000D03*
X176530000Y-83820000D03*
X176530000Y-81280000D03*
D16*
X176530000Y-78740000D03*
D15*
X176530000Y-71120000D03*
X176530000Y-68580000D03*
X176530000Y-66040000D03*
X176530000Y-63500000D03*
X176530000Y-60960000D03*
X176530000Y-58420000D03*
X176530000Y-55880000D03*
D16*
X176530000Y-53340000D03*
X189230000Y-78740000D03*
D15*
X189230000Y-81280000D03*
X189230000Y-83820000D03*
X189230000Y-86360000D03*
X189230000Y-88900000D03*
X189230000Y-91440000D03*
X189230000Y-93980000D03*
X189230000Y-96520000D03*
D16*
X189230000Y-53340000D03*
D15*
X189230000Y-55880000D03*
X189230000Y-58420000D03*
X189230000Y-60960000D03*
X189230000Y-63500000D03*
X189230000Y-66040000D03*
X189230000Y-68580000D03*
X189230000Y-71120000D03*
D16*
X198120000Y-83820000D03*
D15*
X198120000Y-86360000D03*
X198120000Y-88900000D03*
X198120000Y-91440000D03*
X198120000Y-66040000D03*
X198120000Y-63500000D03*
X198120000Y-60960000D03*
D16*
X198120000Y-58420000D03*
X158750000Y-110490000D03*
D15*
X158750000Y-113030000D03*
X158750000Y-115570000D03*
X158750000Y-118110000D03*
D17*
X128270000Y-86360000D03*
D18*
X118110000Y-86360000D03*
D19*
X114300000Y-69240000D03*
D20*
X114300000Y-75540000D03*
X116600000Y-75540000D03*
X112000000Y-75540000D03*
X123430000Y-75540000D03*
X128030000Y-75540000D03*
X125730000Y-75540000D03*
D19*
X125730000Y-69240000D03*
D17*
X128230000Y-99060000D03*
D21*
X125730000Y-99060000D03*
X118110000Y-99060000D03*
D17*
X120610000Y-99060000D03*
D21*
X118110000Y-91440000D03*
D17*
X120110000Y-91440000D03*
D21*
X113030000Y-99060000D03*
D17*
X110530000Y-99060000D03*
X129460000Y-91440000D03*
X124460000Y-91440000D03*
X124460000Y-82550000D03*
X129460000Y-82550000D03*
D22*
X120650000Y-69850000D03*
X124460000Y-72390000D03*
X128270000Y-63500000D03*
X113030000Y-80010000D03*
X113030000Y-72390000D03*
X111760000Y-78740000D03*
X171450000Y-77470000D03*
X165100000Y-78740000D03*
X171450000Y-85090000D03*
X171450000Y-87630000D03*
X162560000Y-90170000D03*
X172720000Y-106680000D03*
X175260000Y-101600000D03*
X185420000Y-105410000D03*
X165100000Y-57150000D03*
D23*
X120650000Y-71120000D02*
X120650000Y-75770002D01*
X120650000Y-75770002D02*
X120650000Y-69850000D01*
X123430000Y-75540000D02*
X123430000Y-73420000D01*
X123430000Y-73420000D02*
X124460000Y-72390000D01*
X110490000Y-80450000D02*
X109220000Y-79180000D01*
X110490000Y-82550000D02*
X110490000Y-80450000D01*
X109220000Y-79180000D02*
X109220000Y-67310000D01*
X109220000Y-67310000D02*
X110490000Y-66040000D01*
X110490000Y-66040000D02*
X118110000Y-66040000D01*
X118110000Y-66040000D02*
X119380000Y-67310000D01*
X118770000Y-75540000D02*
X116600000Y-75540000D01*
X119380000Y-74930000D02*
X118770000Y-75540000D01*
D24*
X129540000Y-67310000D02*
X120650000Y-67310000D01*
D23*
X119380000Y-68580000D02*
X119380000Y-74930000D01*
D24*
X120650000Y-67310000D02*
X119380000Y-68580000D01*
X124460000Y-91440000D02*
X125591370Y-91440000D01*
D23*
X119380000Y-67310000D02*
X119380000Y-68580000D01*
D24*
X125591370Y-91440000D02*
X130810000Y-86221370D01*
X130810000Y-68580000D02*
X129540000Y-67310000D01*
X130810000Y-86221370D02*
X130810000Y-68580000D01*
D23*
X114300000Y-76250002D02*
X116789998Y-78740000D01*
X114300000Y-75540000D02*
X114300000Y-76250002D01*
X128030000Y-77540000D02*
X128030000Y-75540000D01*
X126830000Y-78740000D02*
X128030000Y-77540000D01*
X115570000Y-115570000D02*
X158750000Y-115570000D01*
X108675010Y-98334990D02*
X108675010Y-108675010D01*
X114630001Y-92379999D02*
X108675010Y-98334990D01*
X108675010Y-108675010D02*
X115570000Y-115570000D01*
X114300000Y-75540000D02*
X114630001Y-75870001D01*
D24*
X118110000Y-99060000D02*
X118110000Y-95250000D01*
X118110000Y-95250000D02*
X114630001Y-91770001D01*
D23*
X114630001Y-91770001D02*
X114630001Y-92379999D01*
D24*
X124460000Y-80010000D02*
X125730000Y-78740000D01*
X124460000Y-82550000D02*
X124460000Y-80010000D01*
D23*
X116789998Y-78740000D02*
X125730000Y-78740000D01*
X125730000Y-78740000D02*
X126830000Y-78740000D01*
X114300000Y-69240000D02*
X114300000Y-75540000D01*
X114300000Y-78740000D02*
X114630001Y-79070001D01*
X111760000Y-78740000D02*
X114300000Y-78740000D01*
X114630001Y-75870001D02*
X114630001Y-79070001D01*
X114630001Y-79070001D02*
X114630001Y-91770001D01*
X118110000Y-91219998D02*
X118110000Y-91440000D01*
X129480001Y-79849997D02*
X118110000Y-91219998D01*
X129480001Y-72990001D02*
X129480001Y-79849997D01*
X127000000Y-104140000D02*
X133350000Y-97790000D01*
X113030000Y-99060000D02*
X118110000Y-104140000D01*
X118110000Y-104140000D02*
X127000000Y-104140000D01*
X127000000Y-104140000D02*
X162560000Y-104140000D01*
X162560000Y-104140000D02*
X163830000Y-104140000D01*
X168910000Y-96520000D02*
X176530000Y-88900000D01*
X168910000Y-99060000D02*
X168910000Y-96520000D01*
X168910000Y-99060000D02*
X176530000Y-91440000D01*
X168910000Y-73660000D02*
X176530000Y-66040000D01*
X168910000Y-96520000D02*
X168910000Y-73660000D01*
X168910000Y-71120000D02*
X176530000Y-63500000D01*
X168910000Y-73660000D02*
X168910000Y-71120000D01*
X125730000Y-75540000D02*
X125730000Y-74930000D01*
X125730000Y-69240000D02*
X128575000Y-72085000D01*
X125730000Y-74930000D02*
X128575000Y-72085000D01*
X128575000Y-72085000D02*
X129480001Y-72990001D01*
X166370000Y-102180000D02*
X166370000Y-101600000D01*
X174680000Y-110490000D02*
X166370000Y-102180000D01*
X176530000Y-110490000D02*
X174680000Y-110490000D01*
X163830000Y-104140000D02*
X166370000Y-101600000D01*
X166370000Y-101600000D02*
X168910000Y-99060000D01*
D24*
X176530000Y-68580000D02*
X171450000Y-73660000D01*
X171450000Y-73660000D02*
X171450000Y-77470000D01*
X165100000Y-78740000D02*
X165100000Y-92710000D01*
X161290000Y-92710000D02*
X158750000Y-95250000D01*
X165100000Y-92710000D02*
X161290000Y-92710000D01*
X182880000Y-109220000D02*
X182880000Y-87630000D01*
X182880000Y-87630000D02*
X180340000Y-85090000D01*
X180340000Y-85090000D02*
X171450000Y-85090000D01*
X176530000Y-113030000D02*
X179070000Y-113030000D01*
X179070000Y-113030000D02*
X182880000Y-109220000D01*
X177780001Y-88299999D02*
X177110002Y-87630000D01*
X177110002Y-87630000D02*
X171450000Y-87630000D01*
X162560000Y-88900000D02*
X158750000Y-85090000D01*
X162560000Y-90170000D02*
X162560000Y-88900000D01*
X175929999Y-111779999D02*
X177660003Y-111779999D01*
X177780001Y-111660001D02*
X177780001Y-88299999D01*
X175279999Y-112429999D02*
X175929999Y-111779999D01*
X175279999Y-114319999D02*
X175279999Y-112429999D01*
X177660003Y-111779999D02*
X177780001Y-111660001D01*
X176530000Y-115570000D02*
X175279999Y-114319999D01*
X162560000Y-76200000D02*
X158750000Y-80010000D01*
X176530000Y-60960000D02*
X162560000Y-74930000D01*
X162560000Y-74930000D02*
X162560000Y-76200000D01*
X176530000Y-58420000D02*
X163830000Y-71120000D01*
X163830000Y-72390000D02*
X158750000Y-77470000D01*
X163830000Y-71120000D02*
X163830000Y-72390000D01*
X172720000Y-106680000D02*
X172720000Y-104140000D01*
X172720000Y-104140000D02*
X175260000Y-101600000D01*
X185420000Y-105410000D02*
X185420000Y-82550000D01*
X185420000Y-82550000D02*
X185420000Y-55880000D01*
X185420000Y-53340000D02*
X181610000Y-49530000D01*
X185420000Y-55880000D02*
X185420000Y-53340000D01*
X181610000Y-49530000D02*
X172720000Y-49530000D01*
X172720000Y-49530000D02*
X165100000Y-57150000D01*
X170180000Y-55880000D02*
X158750000Y-67310000D01*
X176530000Y-55880000D02*
X170180000Y-55880000D01*
D23*
X189230000Y-83820000D02*
X198120000Y-83820000D01*
X189230000Y-86360000D02*
X198120000Y-86360000D01*
X189230000Y-88900000D02*
X198120000Y-88900000D01*
X189230000Y-91440000D02*
X198120000Y-91440000D01*
X189230000Y-58420000D02*
X198120000Y-58420000D01*
X189230000Y-60960000D02*
X198120000Y-60960000D01*
X189230000Y-63500000D02*
X198120000Y-63500000D01*
X189230000Y-66040000D02*
X198120000Y-66040000D01*
D25*
G36*
X172126709Y-48936709D02*
G01*
X172100559Y-48968573D01*
X164943226Y-56125907D01*
X164798102Y-56154774D01*
X164609744Y-56232795D01*
X164440226Y-56346063D01*
X164296063Y-56490226D01*
X164182795Y-56659744D01*
X164104774Y-56848102D01*
X164065000Y-57048061D01*
X164065000Y-57251939D01*
X164104774Y-57451898D01*
X164182795Y-57640256D01*
X164296063Y-57809774D01*
X164440226Y-57953937D01*
X164609744Y-58067205D01*
X164798102Y-58145226D01*
X164998061Y-58185000D01*
X165201939Y-58185000D01*
X165401898Y-58145226D01*
X165590256Y-58067205D01*
X165759774Y-57953937D01*
X165903937Y-57809774D01*
X166017205Y-57640256D01*
X166095226Y-57451898D01*
X166124093Y-57306774D01*
X173065868Y-50365000D01*
X181264133Y-50365000D01*
X184585001Y-53685870D01*
X184585000Y-55921018D01*
X184585001Y-55921028D01*
X184585000Y-82591018D01*
X184585001Y-82591028D01*
X184585000Y-104796715D01*
X184502795Y-104919744D01*
X184424774Y-105108102D01*
X184385000Y-105308061D01*
X184385000Y-105511939D01*
X184424774Y-105711898D01*
X184502795Y-105900256D01*
X184616063Y-106069774D01*
X184760226Y-106213937D01*
X184929744Y-106327205D01*
X185118102Y-106405226D01*
X185318061Y-106445000D01*
X185521939Y-106445000D01*
X185721898Y-106405226D01*
X185910256Y-106327205D01*
X186079774Y-106213937D01*
X186223937Y-106069774D01*
X186337205Y-105900256D01*
X186415226Y-105711898D01*
X186455000Y-105511939D01*
X186455000Y-105308061D01*
X186415226Y-105108102D01*
X186337205Y-104919744D01*
X186255000Y-104796715D01*
X186255000Y-96876890D01*
X187788524Y-96876890D01*
X187833175Y-97024099D01*
X187958359Y-97286920D01*
X188132412Y-97520269D01*
X188348645Y-97715178D01*
X188598748Y-97864157D01*
X188873109Y-97961481D01*
X189103000Y-97840814D01*
X189103000Y-96647000D01*
X189357000Y-96647000D01*
X189357000Y-97840814D01*
X189586891Y-97961481D01*
X189861252Y-97864157D01*
X190111355Y-97715178D01*
X190327588Y-97520269D01*
X190501641Y-97286920D01*
X190626825Y-97024099D01*
X190671476Y-96876890D01*
X190550155Y-96647000D01*
X189357000Y-96647000D01*
X189103000Y-96647000D01*
X187909845Y-96647000D01*
X187788524Y-96876890D01*
X186255000Y-96876890D01*
X186255000Y-83673740D01*
X187745000Y-83673740D01*
X187745000Y-83966260D01*
X187802068Y-84253158D01*
X187914010Y-84523411D01*
X188076525Y-84766632D01*
X188283368Y-84973475D01*
X188457760Y-85090000D01*
X188283368Y-85206525D01*
X188076525Y-85413368D01*
X187914010Y-85656589D01*
X187802068Y-85926842D01*
X187745000Y-86213740D01*
X187745000Y-86506260D01*
X187802068Y-86793158D01*
X187914010Y-87063411D01*
X188076525Y-87306632D01*
X188283368Y-87513475D01*
X188457760Y-87630000D01*
X188283368Y-87746525D01*
X188076525Y-87953368D01*
X187914010Y-88196589D01*
X187802068Y-88466842D01*
X187745000Y-88753740D01*
X187745000Y-89046260D01*
X187802068Y-89333158D01*
X187914010Y-89603411D01*
X188076525Y-89846632D01*
X188283368Y-90053475D01*
X188457760Y-90170000D01*
X188283368Y-90286525D01*
X188076525Y-90493368D01*
X187914010Y-90736589D01*
X187802068Y-91006842D01*
X187745000Y-91293740D01*
X187745000Y-91586260D01*
X187802068Y-91873158D01*
X187914010Y-92143411D01*
X188076525Y-92386632D01*
X188283368Y-92593475D01*
X188457760Y-92710000D01*
X188283368Y-92826525D01*
X188076525Y-93033368D01*
X187914010Y-93276589D01*
X187802068Y-93546842D01*
X187745000Y-93833740D01*
X187745000Y-94126260D01*
X187802068Y-94413158D01*
X187914010Y-94683411D01*
X188076525Y-94926632D01*
X188283368Y-95133475D01*
X188465534Y-95255195D01*
X188348645Y-95324822D01*
X188132412Y-95519731D01*
X187958359Y-95753080D01*
X187833175Y-96015901D01*
X187788524Y-96163110D01*
X187909845Y-96393000D01*
X189103000Y-96393000D01*
X189103000Y-96373000D01*
X189357000Y-96373000D01*
X189357000Y-96393000D01*
X190550155Y-96393000D01*
X190671476Y-96163110D01*
X190626825Y-96015901D01*
X190501641Y-95753080D01*
X190327588Y-95519731D01*
X190111355Y-95324822D01*
X189994466Y-95255195D01*
X190176632Y-95133475D01*
X190383475Y-94926632D01*
X190545990Y-94683411D01*
X190657932Y-94413158D01*
X190715000Y-94126260D01*
X190715000Y-93833740D01*
X190657932Y-93546842D01*
X190545990Y-93276589D01*
X190383475Y-93033368D01*
X190176632Y-92826525D01*
X190002240Y-92710000D01*
X190176632Y-92593475D01*
X190195107Y-92575000D01*
X197154893Y-92575000D01*
X197173368Y-92593475D01*
X197416589Y-92755990D01*
X197686842Y-92867932D01*
X197973740Y-92925000D01*
X198266260Y-92925000D01*
X198553158Y-92867932D01*
X198823411Y-92755990D01*
X199066632Y-92593475D01*
X199273475Y-92386632D01*
X199435990Y-92143411D01*
X199547932Y-91873158D01*
X199605000Y-91586260D01*
X199605000Y-91293740D01*
X199547932Y-91006842D01*
X199435990Y-90736589D01*
X199273475Y-90493368D01*
X199066632Y-90286525D01*
X198892240Y-90170000D01*
X199066632Y-90053475D01*
X199273475Y-89846632D01*
X199435990Y-89603411D01*
X199547932Y-89333158D01*
X199605000Y-89046260D01*
X199605000Y-88753740D01*
X199547932Y-88466842D01*
X199435990Y-88196589D01*
X199273475Y-87953368D01*
X199066632Y-87746525D01*
X198892240Y-87630000D01*
X199066632Y-87513475D01*
X199273475Y-87306632D01*
X199435990Y-87063411D01*
X199547932Y-86793158D01*
X199605000Y-86506260D01*
X199605000Y-86213740D01*
X199547932Y-85926842D01*
X199435990Y-85656589D01*
X199273475Y-85413368D01*
X199141620Y-85281513D01*
X199214180Y-85259502D01*
X199324494Y-85200537D01*
X199421185Y-85121185D01*
X199500537Y-85024494D01*
X199559502Y-84914180D01*
X199595812Y-84794482D01*
X199608072Y-84670000D01*
X199608072Y-82970000D01*
X199595812Y-82845518D01*
X199559502Y-82725820D01*
X199500537Y-82615506D01*
X199421185Y-82518815D01*
X199324494Y-82439463D01*
X199214180Y-82380498D01*
X199094482Y-82344188D01*
X198970000Y-82331928D01*
X197270000Y-82331928D01*
X197145518Y-82344188D01*
X197025820Y-82380498D01*
X196915506Y-82439463D01*
X196818815Y-82518815D01*
X196739463Y-82615506D01*
X196702317Y-82685000D01*
X190195107Y-82685000D01*
X190176632Y-82666525D01*
X189994466Y-82544805D01*
X190111355Y-82475178D01*
X190327588Y-82280269D01*
X190501641Y-82046920D01*
X190626825Y-81784099D01*
X190671476Y-81636890D01*
X190550155Y-81407000D01*
X189357000Y-81407000D01*
X189357000Y-81427000D01*
X189103000Y-81427000D01*
X189103000Y-81407000D01*
X187909845Y-81407000D01*
X187788524Y-81636890D01*
X187833175Y-81784099D01*
X187958359Y-82046920D01*
X188132412Y-82280269D01*
X188348645Y-82475178D01*
X188465534Y-82544805D01*
X188283368Y-82666525D01*
X188076525Y-82873368D01*
X187914010Y-83116589D01*
X187802068Y-83386842D01*
X187745000Y-83673740D01*
X186255000Y-83673740D01*
X186255000Y-77890000D01*
X187741928Y-77890000D01*
X187741928Y-79590000D01*
X187754188Y-79714482D01*
X187790498Y-79834180D01*
X187849463Y-79944494D01*
X187928815Y-80041185D01*
X188025506Y-80120537D01*
X188135820Y-80179502D01*
X188216466Y-80203966D01*
X188132412Y-80279731D01*
X187958359Y-80513080D01*
X187833175Y-80775901D01*
X187788524Y-80923110D01*
X187909845Y-81153000D01*
X189103000Y-81153000D01*
X189103000Y-81133000D01*
X189357000Y-81133000D01*
X189357000Y-81153000D01*
X190550155Y-81153000D01*
X190671476Y-80923110D01*
X190626825Y-80775901D01*
X190501641Y-80513080D01*
X190327588Y-80279731D01*
X190243534Y-80203966D01*
X190324180Y-80179502D01*
X190434494Y-80120537D01*
X190531185Y-80041185D01*
X190610537Y-79944494D01*
X190669502Y-79834180D01*
X190705812Y-79714482D01*
X190718072Y-79590000D01*
X190718072Y-77890000D01*
X190705812Y-77765518D01*
X190669502Y-77645820D01*
X190610537Y-77535506D01*
X190531185Y-77438815D01*
X190434494Y-77359463D01*
X190324180Y-77300498D01*
X190204482Y-77264188D01*
X190080000Y-77251928D01*
X188380000Y-77251928D01*
X188255518Y-77264188D01*
X188135820Y-77300498D01*
X188025506Y-77359463D01*
X187928815Y-77438815D01*
X187849463Y-77535506D01*
X187790498Y-77645820D01*
X187754188Y-77765518D01*
X187741928Y-77890000D01*
X186255000Y-77890000D01*
X186255000Y-71476890D01*
X187788524Y-71476890D01*
X187833175Y-71624099D01*
X187958359Y-71886920D01*
X188132412Y-72120269D01*
X188348645Y-72315178D01*
X188598748Y-72464157D01*
X188873109Y-72561481D01*
X189103000Y-72440814D01*
X189103000Y-71247000D01*
X189357000Y-71247000D01*
X189357000Y-72440814D01*
X189586891Y-72561481D01*
X189861252Y-72464157D01*
X190111355Y-72315178D01*
X190327588Y-72120269D01*
X190501641Y-71886920D01*
X190626825Y-71624099D01*
X190671476Y-71476890D01*
X190550155Y-71247000D01*
X189357000Y-71247000D01*
X189103000Y-71247000D01*
X187909845Y-71247000D01*
X187788524Y-71476890D01*
X186255000Y-71476890D01*
X186255000Y-58273740D01*
X187745000Y-58273740D01*
X187745000Y-58566260D01*
X187802068Y-58853158D01*
X187914010Y-59123411D01*
X188076525Y-59366632D01*
X188283368Y-59573475D01*
X188457760Y-59690000D01*
X188283368Y-59806525D01*
X188076525Y-60013368D01*
X187914010Y-60256589D01*
X187802068Y-60526842D01*
X187745000Y-60813740D01*
X187745000Y-61106260D01*
X187802068Y-61393158D01*
X187914010Y-61663411D01*
X188076525Y-61906632D01*
X188283368Y-62113475D01*
X188457760Y-62230000D01*
X188283368Y-62346525D01*
X188076525Y-62553368D01*
X187914010Y-62796589D01*
X187802068Y-63066842D01*
X187745000Y-63353740D01*
X187745000Y-63646260D01*
X187802068Y-63933158D01*
X187914010Y-64203411D01*
X188076525Y-64446632D01*
X188283368Y-64653475D01*
X188457760Y-64770000D01*
X188283368Y-64886525D01*
X188076525Y-65093368D01*
X187914010Y-65336589D01*
X187802068Y-65606842D01*
X187745000Y-65893740D01*
X187745000Y-66186260D01*
X187802068Y-66473158D01*
X187914010Y-66743411D01*
X188076525Y-66986632D01*
X188283368Y-67193475D01*
X188457760Y-67310000D01*
X188283368Y-67426525D01*
X188076525Y-67633368D01*
X187914010Y-67876589D01*
X187802068Y-68146842D01*
X187745000Y-68433740D01*
X187745000Y-68726260D01*
X187802068Y-69013158D01*
X187914010Y-69283411D01*
X188076525Y-69526632D01*
X188283368Y-69733475D01*
X188465534Y-69855195D01*
X188348645Y-69924822D01*
X188132412Y-70119731D01*
X187958359Y-70353080D01*
X187833175Y-70615901D01*
X187788524Y-70763110D01*
X187909845Y-70993000D01*
X189103000Y-70993000D01*
X189103000Y-70973000D01*
X189357000Y-70973000D01*
X189357000Y-70993000D01*
X190550155Y-70993000D01*
X190671476Y-70763110D01*
X190626825Y-70615901D01*
X190501641Y-70353080D01*
X190327588Y-70119731D01*
X190111355Y-69924822D01*
X189994466Y-69855195D01*
X190176632Y-69733475D01*
X190383475Y-69526632D01*
X190545990Y-69283411D01*
X190657932Y-69013158D01*
X190715000Y-68726260D01*
X190715000Y-68433740D01*
X190657932Y-68146842D01*
X190545990Y-67876589D01*
X190383475Y-67633368D01*
X190176632Y-67426525D01*
X190002240Y-67310000D01*
X190176632Y-67193475D01*
X190195107Y-67175000D01*
X197154893Y-67175000D01*
X197173368Y-67193475D01*
X197416589Y-67355990D01*
X197686842Y-67467932D01*
X197973740Y-67525000D01*
X198266260Y-67525000D01*
X198553158Y-67467932D01*
X198823411Y-67355990D01*
X199066632Y-67193475D01*
X199273475Y-66986632D01*
X199435990Y-66743411D01*
X199547932Y-66473158D01*
X199605000Y-66186260D01*
X199605000Y-65893740D01*
X199547932Y-65606842D01*
X199435990Y-65336589D01*
X199273475Y-65093368D01*
X199066632Y-64886525D01*
X198892240Y-64770000D01*
X199066632Y-64653475D01*
X199273475Y-64446632D01*
X199435990Y-64203411D01*
X199547932Y-63933158D01*
X199605000Y-63646260D01*
X199605000Y-63353740D01*
X199547932Y-63066842D01*
X199435990Y-62796589D01*
X199273475Y-62553368D01*
X199066632Y-62346525D01*
X198892240Y-62230000D01*
X199066632Y-62113475D01*
X199273475Y-61906632D01*
X199435990Y-61663411D01*
X199547932Y-61393158D01*
X199605000Y-61106260D01*
X199605000Y-60813740D01*
X199547932Y-60526842D01*
X199435990Y-60256589D01*
X199273475Y-60013368D01*
X199141620Y-59881513D01*
X199214180Y-59859502D01*
X199324494Y-59800537D01*
X199421185Y-59721185D01*
X199500537Y-59624494D01*
X199559502Y-59514180D01*
X199595812Y-59394482D01*
X199608072Y-59270000D01*
X199608072Y-57570000D01*
X199595812Y-57445518D01*
X199559502Y-57325820D01*
X199500537Y-57215506D01*
X199421185Y-57118815D01*
X199324494Y-57039463D01*
X199214180Y-56980498D01*
X199094482Y-56944188D01*
X198970000Y-56931928D01*
X197270000Y-56931928D01*
X197145518Y-56944188D01*
X197025820Y-56980498D01*
X196915506Y-57039463D01*
X196818815Y-57118815D01*
X196739463Y-57215506D01*
X196702317Y-57285000D01*
X190195107Y-57285000D01*
X190176632Y-57266525D01*
X189994466Y-57144805D01*
X190111355Y-57075178D01*
X190327588Y-56880269D01*
X190501641Y-56646920D01*
X190626825Y-56384099D01*
X190671476Y-56236890D01*
X190550155Y-56007000D01*
X189357000Y-56007000D01*
X189357000Y-56027000D01*
X189103000Y-56027000D01*
X189103000Y-56007000D01*
X187909845Y-56007000D01*
X187788524Y-56236890D01*
X187833175Y-56384099D01*
X187958359Y-56646920D01*
X188132412Y-56880269D01*
X188348645Y-57075178D01*
X188465534Y-57144805D01*
X188283368Y-57266525D01*
X188076525Y-57473368D01*
X187914010Y-57716589D01*
X187802068Y-57986842D01*
X187745000Y-58273740D01*
X186255000Y-58273740D01*
X186255000Y-53381018D01*
X186259040Y-53340000D01*
X186242918Y-53176312D01*
X186195172Y-53018913D01*
X186117636Y-52873854D01*
X186039439Y-52778570D01*
X186039437Y-52778568D01*
X186013291Y-52746709D01*
X185981432Y-52720563D01*
X185750869Y-52490000D01*
X187741928Y-52490000D01*
X187741928Y-54190000D01*
X187754188Y-54314482D01*
X187790498Y-54434180D01*
X187849463Y-54544494D01*
X187928815Y-54641185D01*
X188025506Y-54720537D01*
X188135820Y-54779502D01*
X188216466Y-54803966D01*
X188132412Y-54879731D01*
X187958359Y-55113080D01*
X187833175Y-55375901D01*
X187788524Y-55523110D01*
X187909845Y-55753000D01*
X189103000Y-55753000D01*
X189103000Y-55733000D01*
X189357000Y-55733000D01*
X189357000Y-55753000D01*
X190550155Y-55753000D01*
X190671476Y-55523110D01*
X190626825Y-55375901D01*
X190501641Y-55113080D01*
X190327588Y-54879731D01*
X190243534Y-54803966D01*
X190324180Y-54779502D01*
X190434494Y-54720537D01*
X190531185Y-54641185D01*
X190610537Y-54544494D01*
X190669502Y-54434180D01*
X190705812Y-54314482D01*
X190718072Y-54190000D01*
X190718072Y-52490000D01*
X190705812Y-52365518D01*
X190669502Y-52245820D01*
X190610537Y-52135506D01*
X190531185Y-52038815D01*
X190434494Y-51959463D01*
X190324180Y-51900498D01*
X190204482Y-51864188D01*
X190080000Y-51851928D01*
X188380000Y-51851928D01*
X188255518Y-51864188D01*
X188135820Y-51900498D01*
X188025506Y-51959463D01*
X187928815Y-52038815D01*
X187849463Y-52135506D01*
X187790498Y-52245820D01*
X187754188Y-52365518D01*
X187741928Y-52490000D01*
X185750869Y-52490000D01*
X185110741Y-51849872D01*
X197155000Y-51849872D01*
X197155000Y-52290128D01*
X197240890Y-52721925D01*
X197409369Y-53128669D01*
X197653962Y-53494729D01*
X197965271Y-53806038D01*
X198331331Y-54050631D01*
X198738075Y-54219110D01*
X199169872Y-54305000D01*
X199610128Y-54305000D01*
X200041925Y-54219110D01*
X200448669Y-54050631D01*
X200814729Y-53806038D01*
X201126038Y-53494729D01*
X201370631Y-53128669D01*
X201539110Y-52721925D01*
X201625000Y-52290128D01*
X201625000Y-51849872D01*
X201539110Y-51418075D01*
X201370631Y-51011331D01*
X201126038Y-50645271D01*
X200814729Y-50333962D01*
X200448669Y-50089369D01*
X200041925Y-49920890D01*
X199610128Y-49835000D01*
X199169872Y-49835000D01*
X198738075Y-49920890D01*
X198331331Y-50089369D01*
X197965271Y-50333962D01*
X197653962Y-50645271D01*
X197409369Y-51011331D01*
X197240890Y-51418075D01*
X197155000Y-51849872D01*
X185110741Y-51849872D01*
X182229446Y-48968579D01*
X182203291Y-48936709D01*
X182182931Y-48920000D01*
X202540000Y-48920000D01*
X202540001Y-121260000D01*
X108610000Y-121260000D01*
X108610000Y-117889872D01*
X109525000Y-117889872D01*
X109525000Y-118330128D01*
X109610890Y-118761925D01*
X109779369Y-119168669D01*
X110023962Y-119534729D01*
X110335271Y-119846038D01*
X110701331Y-120090631D01*
X111108075Y-120259110D01*
X111539872Y-120345000D01*
X111980128Y-120345000D01*
X112411925Y-120259110D01*
X112818669Y-120090631D01*
X113184729Y-119846038D01*
X113496038Y-119534729D01*
X113740631Y-119168669D01*
X113909110Y-118761925D01*
X113967796Y-118466890D01*
X157308524Y-118466890D01*
X157353175Y-118614099D01*
X157478359Y-118876920D01*
X157652412Y-119110269D01*
X157868645Y-119305178D01*
X158118748Y-119454157D01*
X158393109Y-119551481D01*
X158623000Y-119430814D01*
X158623000Y-118237000D01*
X158877000Y-118237000D01*
X158877000Y-119430814D01*
X159106891Y-119551481D01*
X159381252Y-119454157D01*
X159631355Y-119305178D01*
X159847588Y-119110269D01*
X160021641Y-118876920D01*
X160146825Y-118614099D01*
X160191476Y-118466890D01*
X175088524Y-118466890D01*
X175133175Y-118614099D01*
X175258359Y-118876920D01*
X175432412Y-119110269D01*
X175648645Y-119305178D01*
X175898748Y-119454157D01*
X176173109Y-119551481D01*
X176403000Y-119430814D01*
X176403000Y-118237000D01*
X176657000Y-118237000D01*
X176657000Y-119430814D01*
X176886891Y-119551481D01*
X177161252Y-119454157D01*
X177411355Y-119305178D01*
X177627588Y-119110269D01*
X177801641Y-118876920D01*
X177926825Y-118614099D01*
X177971476Y-118466890D01*
X177850155Y-118237000D01*
X176657000Y-118237000D01*
X176403000Y-118237000D01*
X175209845Y-118237000D01*
X175088524Y-118466890D01*
X160191476Y-118466890D01*
X160070155Y-118237000D01*
X158877000Y-118237000D01*
X158623000Y-118237000D01*
X157429845Y-118237000D01*
X157308524Y-118466890D01*
X113967796Y-118466890D01*
X113995000Y-118330128D01*
X113995000Y-117889872D01*
X113909110Y-117458075D01*
X113740631Y-117051331D01*
X113496038Y-116685271D01*
X113184729Y-116373962D01*
X112818669Y-116129369D01*
X112411925Y-115960890D01*
X111980128Y-115875000D01*
X111539872Y-115875000D01*
X111108075Y-115960890D01*
X110701331Y-116129369D01*
X110335271Y-116373962D01*
X110023962Y-116685271D01*
X109779369Y-117051331D01*
X109610890Y-117458075D01*
X109525000Y-117889872D01*
X108610000Y-117889872D01*
X108610000Y-110215131D01*
X114728009Y-116333141D01*
X114763551Y-116376449D01*
X114936377Y-116518284D01*
X115133553Y-116623676D01*
X115347501Y-116688577D01*
X115514248Y-116705000D01*
X115514257Y-116705000D01*
X115569999Y-116710490D01*
X115625741Y-116705000D01*
X157784893Y-116705000D01*
X157803368Y-116723475D01*
X157985534Y-116845195D01*
X157868645Y-116914822D01*
X157652412Y-117109731D01*
X157478359Y-117343080D01*
X157353175Y-117605901D01*
X157308524Y-117753110D01*
X157429845Y-117983000D01*
X158623000Y-117983000D01*
X158623000Y-117963000D01*
X158877000Y-117963000D01*
X158877000Y-117983000D01*
X160070155Y-117983000D01*
X160191476Y-117753110D01*
X160146825Y-117605901D01*
X160021641Y-117343080D01*
X159847588Y-117109731D01*
X159631355Y-116914822D01*
X159514466Y-116845195D01*
X159696632Y-116723475D01*
X159903475Y-116516632D01*
X160065990Y-116273411D01*
X160177932Y-116003158D01*
X160235000Y-115716260D01*
X160235000Y-115423740D01*
X160177932Y-115136842D01*
X160065990Y-114866589D01*
X159903475Y-114623368D01*
X159696632Y-114416525D01*
X159522240Y-114300000D01*
X159696632Y-114183475D01*
X159903475Y-113976632D01*
X160065990Y-113733411D01*
X160177932Y-113463158D01*
X160235000Y-113176260D01*
X160235000Y-112883740D01*
X160177932Y-112596842D01*
X160065990Y-112326589D01*
X159903475Y-112083368D01*
X159771620Y-111951513D01*
X159844180Y-111929502D01*
X159954494Y-111870537D01*
X160051185Y-111791185D01*
X160130537Y-111694494D01*
X160189502Y-111584180D01*
X160225812Y-111464482D01*
X160238072Y-111340000D01*
X160238072Y-109640000D01*
X160225812Y-109515518D01*
X160189502Y-109395820D01*
X160130537Y-109285506D01*
X160051185Y-109188815D01*
X159954494Y-109109463D01*
X159844180Y-109050498D01*
X159724482Y-109014188D01*
X159600000Y-109001928D01*
X157900000Y-109001928D01*
X157775518Y-109014188D01*
X157655820Y-109050498D01*
X157545506Y-109109463D01*
X157448815Y-109188815D01*
X157369463Y-109285506D01*
X157310498Y-109395820D01*
X157274188Y-109515518D01*
X157261928Y-109640000D01*
X157261928Y-111340000D01*
X157274188Y-111464482D01*
X157310498Y-111584180D01*
X157369463Y-111694494D01*
X157448815Y-111791185D01*
X157545506Y-111870537D01*
X157655820Y-111929502D01*
X157728380Y-111951513D01*
X157596525Y-112083368D01*
X157434010Y-112326589D01*
X157322068Y-112596842D01*
X157265000Y-112883740D01*
X157265000Y-113176260D01*
X157322068Y-113463158D01*
X157434010Y-113733411D01*
X157596525Y-113976632D01*
X157803368Y-114183475D01*
X157977760Y-114300000D01*
X157803368Y-114416525D01*
X157784893Y-114435000D01*
X116040132Y-114435000D01*
X109810010Y-108204879D01*
X109810010Y-100306856D01*
X110043996Y-100417571D01*
X110318184Y-100486300D01*
X110600512Y-100500217D01*
X110880130Y-100458787D01*
X111146292Y-100363603D01*
X111271514Y-100296671D01*
X111343097Y-100052702D01*
X110530000Y-99239605D01*
X110515858Y-99253748D01*
X110336253Y-99074143D01*
X110350395Y-99060000D01*
X110709605Y-99060000D01*
X111522702Y-99873097D01*
X111591928Y-99852785D01*
X111591928Y-99860000D01*
X111604188Y-99984482D01*
X111640498Y-100104180D01*
X111699463Y-100214494D01*
X111778815Y-100311185D01*
X111875506Y-100390537D01*
X111985820Y-100449502D01*
X112105518Y-100485812D01*
X112230000Y-100498072D01*
X112862941Y-100498072D01*
X117268009Y-104903141D01*
X117303551Y-104946449D01*
X117476376Y-105088283D01*
X117476377Y-105088284D01*
X117673553Y-105193676D01*
X117887501Y-105258577D01*
X118110000Y-105280491D01*
X118165751Y-105275000D01*
X126944249Y-105275000D01*
X127000000Y-105280491D01*
X127055751Y-105275000D01*
X163774249Y-105275000D01*
X163830000Y-105280491D01*
X163885751Y-105275000D01*
X163885752Y-105275000D01*
X164052499Y-105258577D01*
X164266447Y-105193676D01*
X164463623Y-105088284D01*
X164636449Y-104946449D01*
X164671996Y-104903135D01*
X166080000Y-103495131D01*
X173838013Y-111253146D01*
X173873551Y-111296449D01*
X173916854Y-111331987D01*
X173916856Y-111331989D01*
X174046377Y-111438284D01*
X174243553Y-111543676D01*
X174457501Y-111608577D01*
X174680000Y-111630491D01*
X174735752Y-111625000D01*
X174904130Y-111625000D01*
X174718572Y-111810558D01*
X174686709Y-111836708D01*
X174654032Y-111876525D01*
X174582363Y-111963854D01*
X174504827Y-112108913D01*
X174457081Y-112266311D01*
X174440959Y-112429999D01*
X174445000Y-112471027D01*
X174444999Y-114278980D01*
X174440959Y-114319999D01*
X174444999Y-114361017D01*
X174457081Y-114483687D01*
X174504827Y-114641085D01*
X174582363Y-114786144D01*
X174686708Y-114913290D01*
X174718578Y-114939445D01*
X175071193Y-115292060D01*
X175045000Y-115423740D01*
X175045000Y-115716260D01*
X175102068Y-116003158D01*
X175214010Y-116273411D01*
X175376525Y-116516632D01*
X175583368Y-116723475D01*
X175765534Y-116845195D01*
X175648645Y-116914822D01*
X175432412Y-117109731D01*
X175258359Y-117343080D01*
X175133175Y-117605901D01*
X175088524Y-117753110D01*
X175209845Y-117983000D01*
X176403000Y-117983000D01*
X176403000Y-117963000D01*
X176657000Y-117963000D01*
X176657000Y-117983000D01*
X177850155Y-117983000D01*
X177899301Y-117889872D01*
X197155000Y-117889872D01*
X197155000Y-118330128D01*
X197240890Y-118761925D01*
X197409369Y-119168669D01*
X197653962Y-119534729D01*
X197965271Y-119846038D01*
X198331331Y-120090631D01*
X198738075Y-120259110D01*
X199169872Y-120345000D01*
X199610128Y-120345000D01*
X200041925Y-120259110D01*
X200448669Y-120090631D01*
X200814729Y-119846038D01*
X201126038Y-119534729D01*
X201370631Y-119168669D01*
X201539110Y-118761925D01*
X201625000Y-118330128D01*
X201625000Y-117889872D01*
X201539110Y-117458075D01*
X201370631Y-117051331D01*
X201126038Y-116685271D01*
X200814729Y-116373962D01*
X200448669Y-116129369D01*
X200041925Y-115960890D01*
X199610128Y-115875000D01*
X199169872Y-115875000D01*
X198738075Y-115960890D01*
X198331331Y-116129369D01*
X197965271Y-116373962D01*
X197653962Y-116685271D01*
X197409369Y-117051331D01*
X197240890Y-117458075D01*
X197155000Y-117889872D01*
X177899301Y-117889872D01*
X177971476Y-117753110D01*
X177926825Y-117605901D01*
X177801641Y-117343080D01*
X177627588Y-117109731D01*
X177411355Y-116914822D01*
X177294466Y-116845195D01*
X177476632Y-116723475D01*
X177683475Y-116516632D01*
X177845990Y-116273411D01*
X177957932Y-116003158D01*
X178015000Y-115716260D01*
X178015000Y-115423740D01*
X177957932Y-115136842D01*
X177845990Y-114866589D01*
X177683475Y-114623368D01*
X177476632Y-114416525D01*
X177302240Y-114300000D01*
X177476632Y-114183475D01*
X177683475Y-113976632D01*
X177758065Y-113865000D01*
X179028982Y-113865000D01*
X179070000Y-113869040D01*
X179111018Y-113865000D01*
X179111019Y-113865000D01*
X179233689Y-113852918D01*
X179391087Y-113805172D01*
X179536146Y-113727636D01*
X179663291Y-113623291D01*
X179689446Y-113591421D01*
X183441433Y-109839436D01*
X183473291Y-109813291D01*
X183542725Y-109728686D01*
X183577636Y-109686146D01*
X183655172Y-109541087D01*
X183673260Y-109481459D01*
X183702918Y-109383689D01*
X183715000Y-109261019D01*
X183715000Y-109261018D01*
X183719040Y-109220000D01*
X183715000Y-109178982D01*
X183715000Y-87671007D01*
X183719039Y-87629999D01*
X183715000Y-87588991D01*
X183715000Y-87588981D01*
X183702918Y-87466311D01*
X183655172Y-87308913D01*
X183577636Y-87163854D01*
X183473291Y-87036709D01*
X183441427Y-87010559D01*
X180959446Y-84528579D01*
X180933291Y-84496709D01*
X180806146Y-84392364D01*
X180661087Y-84314828D01*
X180503689Y-84267082D01*
X180381019Y-84255000D01*
X180381018Y-84255000D01*
X180340000Y-84250960D01*
X180298982Y-84255000D01*
X177957169Y-84255000D01*
X177957932Y-84253158D01*
X178015000Y-83966260D01*
X178015000Y-83673740D01*
X177957932Y-83386842D01*
X177845990Y-83116589D01*
X177683475Y-82873368D01*
X177476632Y-82666525D01*
X177302240Y-82550000D01*
X177476632Y-82433475D01*
X177683475Y-82226632D01*
X177845990Y-81983411D01*
X177957932Y-81713158D01*
X178015000Y-81426260D01*
X178015000Y-81133740D01*
X177957932Y-80846842D01*
X177845990Y-80576589D01*
X177683475Y-80333368D01*
X177551620Y-80201513D01*
X177624180Y-80179502D01*
X177734494Y-80120537D01*
X177831185Y-80041185D01*
X177910537Y-79944494D01*
X177969502Y-79834180D01*
X178005812Y-79714482D01*
X178018072Y-79590000D01*
X178018072Y-77890000D01*
X178005812Y-77765518D01*
X177969502Y-77645820D01*
X177910537Y-77535506D01*
X177831185Y-77438815D01*
X177734494Y-77359463D01*
X177624180Y-77300498D01*
X177504482Y-77264188D01*
X177380000Y-77251928D01*
X175680000Y-77251928D01*
X175555518Y-77264188D01*
X175435820Y-77300498D01*
X175325506Y-77359463D01*
X175228815Y-77438815D01*
X175149463Y-77535506D01*
X175090498Y-77645820D01*
X175054188Y-77765518D01*
X175041928Y-77890000D01*
X175041928Y-79590000D01*
X175054188Y-79714482D01*
X175090498Y-79834180D01*
X175149463Y-79944494D01*
X175228815Y-80041185D01*
X175325506Y-80120537D01*
X175435820Y-80179502D01*
X175508380Y-80201513D01*
X175376525Y-80333368D01*
X175214010Y-80576589D01*
X175102068Y-80846842D01*
X175045000Y-81133740D01*
X175045000Y-81426260D01*
X175102068Y-81713158D01*
X175214010Y-81983411D01*
X175376525Y-82226632D01*
X175583368Y-82433475D01*
X175757760Y-82550000D01*
X175583368Y-82666525D01*
X175376525Y-82873368D01*
X175214010Y-83116589D01*
X175102068Y-83386842D01*
X175045000Y-83673740D01*
X175045000Y-83966260D01*
X175102068Y-84253158D01*
X175102831Y-84255000D01*
X172063285Y-84255000D01*
X171940256Y-84172795D01*
X171751898Y-84094774D01*
X171551939Y-84055000D01*
X171348061Y-84055000D01*
X171148102Y-84094774D01*
X170959744Y-84172795D01*
X170790226Y-84286063D01*
X170646063Y-84430226D01*
X170532795Y-84599744D01*
X170454774Y-84788102D01*
X170415000Y-84988061D01*
X170415000Y-85191939D01*
X170454774Y-85391898D01*
X170532795Y-85580256D01*
X170646063Y-85749774D01*
X170790226Y-85893937D01*
X170959744Y-86007205D01*
X171148102Y-86085226D01*
X171348061Y-86125000D01*
X171551939Y-86125000D01*
X171751898Y-86085226D01*
X171940256Y-86007205D01*
X172063285Y-85925000D01*
X175102831Y-85925000D01*
X175102068Y-85926842D01*
X175045000Y-86213740D01*
X175045000Y-86506260D01*
X175102068Y-86793158D01*
X175102831Y-86795000D01*
X172063285Y-86795000D01*
X171940256Y-86712795D01*
X171751898Y-86634774D01*
X171551939Y-86595000D01*
X171348061Y-86595000D01*
X171148102Y-86634774D01*
X170959744Y-86712795D01*
X170790226Y-86826063D01*
X170646063Y-86970226D01*
X170532795Y-87139744D01*
X170454774Y-87328102D01*
X170415000Y-87528061D01*
X170415000Y-87731939D01*
X170454774Y-87931898D01*
X170532795Y-88120256D01*
X170646063Y-88289774D01*
X170790226Y-88433937D01*
X170959744Y-88547205D01*
X171148102Y-88625226D01*
X171348061Y-88665000D01*
X171551939Y-88665000D01*
X171751898Y-88625226D01*
X171940256Y-88547205D01*
X172063285Y-88465000D01*
X175102831Y-88465000D01*
X175102068Y-88466842D01*
X175045000Y-88753740D01*
X175045000Y-88779868D01*
X170045000Y-93779869D01*
X170045000Y-74130131D01*
X170621430Y-73553702D01*
X170610960Y-73660000D01*
X170615000Y-73701019D01*
X170615001Y-76856714D01*
X170532795Y-76979744D01*
X170454774Y-77168102D01*
X170415000Y-77368061D01*
X170415000Y-77571939D01*
X170454774Y-77771898D01*
X170532795Y-77960256D01*
X170646063Y-78129774D01*
X170790226Y-78273937D01*
X170959744Y-78387205D01*
X171148102Y-78465226D01*
X171348061Y-78505000D01*
X171551939Y-78505000D01*
X171751898Y-78465226D01*
X171940256Y-78387205D01*
X172109774Y-78273937D01*
X172253937Y-78129774D01*
X172367205Y-77960256D01*
X172445226Y-77771898D01*
X172485000Y-77571939D01*
X172485000Y-77368061D01*
X172445226Y-77168102D01*
X172367205Y-76979744D01*
X172285000Y-76856715D01*
X172285000Y-74005867D01*
X175045000Y-71245868D01*
X175045000Y-71266260D01*
X175102068Y-71553158D01*
X175214010Y-71823411D01*
X175376525Y-72066632D01*
X175583368Y-72273475D01*
X175826589Y-72435990D01*
X176096842Y-72547932D01*
X176383740Y-72605000D01*
X176676260Y-72605000D01*
X176963158Y-72547932D01*
X177233411Y-72435990D01*
X177476632Y-72273475D01*
X177683475Y-72066632D01*
X177845990Y-71823411D01*
X177957932Y-71553158D01*
X178015000Y-71266260D01*
X178015000Y-70973740D01*
X177957932Y-70686842D01*
X177845990Y-70416589D01*
X177683475Y-70173368D01*
X177476632Y-69966525D01*
X177302240Y-69850000D01*
X177476632Y-69733475D01*
X177683475Y-69526632D01*
X177845990Y-69283411D01*
X177957932Y-69013158D01*
X178015000Y-68726260D01*
X178015000Y-68433740D01*
X177957932Y-68146842D01*
X177845990Y-67876589D01*
X177683475Y-67633368D01*
X177476632Y-67426525D01*
X177302240Y-67310000D01*
X177476632Y-67193475D01*
X177683475Y-66986632D01*
X177845990Y-66743411D01*
X177957932Y-66473158D01*
X178015000Y-66186260D01*
X178015000Y-65893740D01*
X177957932Y-65606842D01*
X177845990Y-65336589D01*
X177683475Y-65093368D01*
X177476632Y-64886525D01*
X177302240Y-64770000D01*
X177476632Y-64653475D01*
X177683475Y-64446632D01*
X177845990Y-64203411D01*
X177957932Y-63933158D01*
X178015000Y-63646260D01*
X178015000Y-63353740D01*
X177957932Y-63066842D01*
X177845990Y-62796589D01*
X177683475Y-62553368D01*
X177476632Y-62346525D01*
X177302240Y-62230000D01*
X177476632Y-62113475D01*
X177683475Y-61906632D01*
X177845990Y-61663411D01*
X177957932Y-61393158D01*
X178015000Y-61106260D01*
X178015000Y-60813740D01*
X177957932Y-60526842D01*
X177845990Y-60256589D01*
X177683475Y-60013368D01*
X177476632Y-59806525D01*
X177302240Y-59690000D01*
X177476632Y-59573475D01*
X177683475Y-59366632D01*
X177845990Y-59123411D01*
X177957932Y-58853158D01*
X178015000Y-58566260D01*
X178015000Y-58273740D01*
X177957932Y-57986842D01*
X177845990Y-57716589D01*
X177683475Y-57473368D01*
X177476632Y-57266525D01*
X177302240Y-57150000D01*
X177476632Y-57033475D01*
X177683475Y-56826632D01*
X177845990Y-56583411D01*
X177957932Y-56313158D01*
X178015000Y-56026260D01*
X178015000Y-55733740D01*
X177957932Y-55446842D01*
X177845990Y-55176589D01*
X177683475Y-54933368D01*
X177551620Y-54801513D01*
X177624180Y-54779502D01*
X177734494Y-54720537D01*
X177831185Y-54641185D01*
X177910537Y-54544494D01*
X177969502Y-54434180D01*
X178005812Y-54314482D01*
X178018072Y-54190000D01*
X178018072Y-52490000D01*
X178005812Y-52365518D01*
X177969502Y-52245820D01*
X177910537Y-52135506D01*
X177831185Y-52038815D01*
X177734494Y-51959463D01*
X177624180Y-51900498D01*
X177504482Y-51864188D01*
X177380000Y-51851928D01*
X175680000Y-51851928D01*
X175555518Y-51864188D01*
X175435820Y-51900498D01*
X175325506Y-51959463D01*
X175228815Y-52038815D01*
X175149463Y-52135506D01*
X175090498Y-52245820D01*
X175054188Y-52365518D01*
X175041928Y-52490000D01*
X175041928Y-54190000D01*
X175054188Y-54314482D01*
X175090498Y-54434180D01*
X175149463Y-54544494D01*
X175228815Y-54641185D01*
X175325506Y-54720537D01*
X175435820Y-54779502D01*
X175508380Y-54801513D01*
X175376525Y-54933368D01*
X175301935Y-55045000D01*
X170221018Y-55045000D01*
X170179999Y-55040960D01*
X170138981Y-55045000D01*
X170016311Y-55057082D01*
X169858913Y-55104828D01*
X169713854Y-55182364D01*
X169586709Y-55286709D01*
X169560559Y-55318573D01*
X160235000Y-64644133D01*
X160235000Y-64623740D01*
X160177932Y-64336842D01*
X160065990Y-64066589D01*
X159903475Y-63823368D01*
X159696632Y-63616525D01*
X159522240Y-63500000D01*
X159696632Y-63383475D01*
X159903475Y-63176632D01*
X160065990Y-62933411D01*
X160177932Y-62663158D01*
X160235000Y-62376260D01*
X160235000Y-62083740D01*
X160177932Y-61796842D01*
X160065990Y-61526589D01*
X159903475Y-61283368D01*
X159696632Y-61076525D01*
X159522240Y-60960000D01*
X159696632Y-60843475D01*
X159903475Y-60636632D01*
X160065990Y-60393411D01*
X160177932Y-60123158D01*
X160235000Y-59836260D01*
X160235000Y-59543740D01*
X160177932Y-59256842D01*
X160065990Y-58986589D01*
X159903475Y-58743368D01*
X159696632Y-58536525D01*
X159522240Y-58420000D01*
X159696632Y-58303475D01*
X159903475Y-58096632D01*
X160065990Y-57853411D01*
X160177932Y-57583158D01*
X160235000Y-57296260D01*
X160235000Y-57003740D01*
X160177932Y-56716842D01*
X160065990Y-56446589D01*
X159903475Y-56203368D01*
X159696632Y-55996525D01*
X159522240Y-55880000D01*
X159696632Y-55763475D01*
X159903475Y-55556632D01*
X160065990Y-55313411D01*
X160177932Y-55043158D01*
X160235000Y-54756260D01*
X160235000Y-54463740D01*
X160177932Y-54176842D01*
X160065990Y-53906589D01*
X159903475Y-53663368D01*
X159696632Y-53456525D01*
X159522240Y-53340000D01*
X159696632Y-53223475D01*
X159903475Y-53016632D01*
X160065990Y-52773411D01*
X160177932Y-52503158D01*
X160235000Y-52216260D01*
X160235000Y-51923740D01*
X160177932Y-51636842D01*
X160065990Y-51366589D01*
X159903475Y-51123368D01*
X159696632Y-50916525D01*
X159453411Y-50754010D01*
X159183158Y-50642068D01*
X158896260Y-50585000D01*
X158603740Y-50585000D01*
X158316842Y-50642068D01*
X158046589Y-50754010D01*
X157803368Y-50916525D01*
X157596525Y-51123368D01*
X157434010Y-51366589D01*
X157322068Y-51636842D01*
X157265000Y-51923740D01*
X157265000Y-52216260D01*
X157322068Y-52503158D01*
X157434010Y-52773411D01*
X157596525Y-53016632D01*
X157803368Y-53223475D01*
X157977760Y-53340000D01*
X157803368Y-53456525D01*
X157596525Y-53663368D01*
X157434010Y-53906589D01*
X157322068Y-54176842D01*
X157265000Y-54463740D01*
X157265000Y-54756260D01*
X157322068Y-55043158D01*
X157434010Y-55313411D01*
X157596525Y-55556632D01*
X157803368Y-55763475D01*
X157977760Y-55880000D01*
X157803368Y-55996525D01*
X157596525Y-56203368D01*
X157434010Y-56446589D01*
X157322068Y-56716842D01*
X157265000Y-57003740D01*
X157265000Y-57296260D01*
X157322068Y-57583158D01*
X157434010Y-57853411D01*
X157596525Y-58096632D01*
X157803368Y-58303475D01*
X157977760Y-58420000D01*
X157803368Y-58536525D01*
X157596525Y-58743368D01*
X157434010Y-58986589D01*
X157322068Y-59256842D01*
X157265000Y-59543740D01*
X157265000Y-59836260D01*
X157322068Y-60123158D01*
X157434010Y-60393411D01*
X157596525Y-60636632D01*
X157803368Y-60843475D01*
X157977760Y-60960000D01*
X157803368Y-61076525D01*
X157596525Y-61283368D01*
X157434010Y-61526589D01*
X157322068Y-61796842D01*
X157265000Y-62083740D01*
X157265000Y-62376260D01*
X157322068Y-62663158D01*
X157434010Y-62933411D01*
X157596525Y-63176632D01*
X157803368Y-63383475D01*
X157977760Y-63500000D01*
X157803368Y-63616525D01*
X157596525Y-63823368D01*
X157434010Y-64066589D01*
X157322068Y-64336842D01*
X157265000Y-64623740D01*
X157265000Y-64916260D01*
X157322068Y-65203158D01*
X157434010Y-65473411D01*
X157596525Y-65716632D01*
X157803368Y-65923475D01*
X157977760Y-66040000D01*
X157803368Y-66156525D01*
X157596525Y-66363368D01*
X157434010Y-66606589D01*
X157322068Y-66876842D01*
X157265000Y-67163740D01*
X157265000Y-67456260D01*
X157322068Y-67743158D01*
X157434010Y-68013411D01*
X157596525Y-68256632D01*
X157803368Y-68463475D01*
X157977760Y-68580000D01*
X157803368Y-68696525D01*
X157596525Y-68903368D01*
X157434010Y-69146589D01*
X157322068Y-69416842D01*
X157265000Y-69703740D01*
X157265000Y-69996260D01*
X157322068Y-70283158D01*
X157434010Y-70553411D01*
X157596525Y-70796632D01*
X157803368Y-71003475D01*
X157977760Y-71120000D01*
X157803368Y-71236525D01*
X157596525Y-71443368D01*
X157434010Y-71686589D01*
X157322068Y-71956842D01*
X157265000Y-72243740D01*
X157265000Y-72536260D01*
X157322068Y-72823158D01*
X157434010Y-73093411D01*
X157596525Y-73336632D01*
X157803368Y-73543475D01*
X157977760Y-73660000D01*
X157803368Y-73776525D01*
X157596525Y-73983368D01*
X157434010Y-74226589D01*
X157322068Y-74496842D01*
X157265000Y-74783740D01*
X157265000Y-75076260D01*
X157322068Y-75363158D01*
X157434010Y-75633411D01*
X157596525Y-75876632D01*
X157803368Y-76083475D01*
X157977760Y-76200000D01*
X157803368Y-76316525D01*
X157596525Y-76523368D01*
X157434010Y-76766589D01*
X157322068Y-77036842D01*
X157265000Y-77323740D01*
X157265000Y-77616260D01*
X157322068Y-77903158D01*
X157434010Y-78173411D01*
X157596525Y-78416632D01*
X157803368Y-78623475D01*
X157977760Y-78740000D01*
X157803368Y-78856525D01*
X157596525Y-79063368D01*
X157434010Y-79306589D01*
X157322068Y-79576842D01*
X157265000Y-79863740D01*
X157265000Y-80156260D01*
X157322068Y-80443158D01*
X157434010Y-80713411D01*
X157596525Y-80956632D01*
X157803368Y-81163475D01*
X157985534Y-81285195D01*
X157868645Y-81354822D01*
X157652412Y-81549731D01*
X157478359Y-81783080D01*
X157353175Y-82045901D01*
X157308524Y-82193110D01*
X157429845Y-82423000D01*
X158623000Y-82423000D01*
X158623000Y-82403000D01*
X158877000Y-82403000D01*
X158877000Y-82423000D01*
X160070155Y-82423000D01*
X160191476Y-82193110D01*
X160146825Y-82045901D01*
X160021641Y-81783080D01*
X159847588Y-81549731D01*
X159631355Y-81354822D01*
X159514466Y-81285195D01*
X159696632Y-81163475D01*
X159903475Y-80956632D01*
X160065990Y-80713411D01*
X160177932Y-80443158D01*
X160235000Y-80156260D01*
X160235000Y-79863740D01*
X160208807Y-79732060D01*
X163121432Y-76819437D01*
X163153291Y-76793291D01*
X163202318Y-76733552D01*
X163257636Y-76666146D01*
X163335172Y-76521087D01*
X163367353Y-76415000D01*
X163382918Y-76363689D01*
X163395000Y-76241019D01*
X163395000Y-76241018D01*
X163399040Y-76200000D01*
X163395000Y-76158982D01*
X163395000Y-75275867D01*
X167799286Y-70871581D01*
X167791423Y-70897502D01*
X167769509Y-71120000D01*
X167775001Y-71175761D01*
X167775000Y-73604248D01*
X167769509Y-73660000D01*
X167775000Y-73715751D01*
X167775001Y-73715761D01*
X167775000Y-96464248D01*
X167769509Y-96520000D01*
X167775000Y-96575751D01*
X167775001Y-96575761D01*
X167775000Y-98589868D01*
X165606860Y-100758009D01*
X165563552Y-100793551D01*
X165528014Y-100836854D01*
X163359869Y-103005000D01*
X129740131Y-103005000D01*
X133467060Y-99278072D01*
X134200000Y-99278072D01*
X134324482Y-99265812D01*
X134444180Y-99229502D01*
X134554494Y-99170537D01*
X134651185Y-99091185D01*
X134730537Y-98994494D01*
X134789502Y-98884180D01*
X134825812Y-98764482D01*
X134838072Y-98640000D01*
X157261928Y-98640000D01*
X157274188Y-98764482D01*
X157310498Y-98884180D01*
X157369463Y-98994494D01*
X157448815Y-99091185D01*
X157545506Y-99170537D01*
X157655820Y-99229502D01*
X157775518Y-99265812D01*
X157900000Y-99278072D01*
X158464250Y-99275000D01*
X158623000Y-99116250D01*
X158623000Y-97917000D01*
X158877000Y-97917000D01*
X158877000Y-99116250D01*
X159035750Y-99275000D01*
X159600000Y-99278072D01*
X159724482Y-99265812D01*
X159844180Y-99229502D01*
X159954494Y-99170537D01*
X160051185Y-99091185D01*
X160130537Y-98994494D01*
X160189502Y-98884180D01*
X160225812Y-98764482D01*
X160238072Y-98640000D01*
X160235000Y-98075750D01*
X160076250Y-97917000D01*
X158877000Y-97917000D01*
X158623000Y-97917000D01*
X157423750Y-97917000D01*
X157265000Y-98075750D01*
X157261928Y-98640000D01*
X134838072Y-98640000D01*
X134838072Y-96940000D01*
X157261928Y-96940000D01*
X157265000Y-97504250D01*
X157423750Y-97663000D01*
X158623000Y-97663000D01*
X158623000Y-97643000D01*
X158877000Y-97643000D01*
X158877000Y-97663000D01*
X160076250Y-97663000D01*
X160235000Y-97504250D01*
X160238072Y-96940000D01*
X160225812Y-96815518D01*
X160189502Y-96695820D01*
X160130537Y-96585506D01*
X160051185Y-96488815D01*
X159954494Y-96409463D01*
X159844180Y-96350498D01*
X159771620Y-96328487D01*
X159903475Y-96196632D01*
X160065990Y-95953411D01*
X160177932Y-95683158D01*
X160235000Y-95396260D01*
X160235000Y-95103740D01*
X160208807Y-94972060D01*
X161635868Y-93545000D01*
X165058982Y-93545000D01*
X165100000Y-93549040D01*
X165263689Y-93532918D01*
X165421087Y-93485172D01*
X165566146Y-93407636D01*
X165693291Y-93303291D01*
X165797636Y-93176146D01*
X165875172Y-93031087D01*
X165922918Y-92873689D01*
X165935000Y-92751019D01*
X165939040Y-92710000D01*
X165935000Y-92668981D01*
X165935000Y-79353285D01*
X166017205Y-79230256D01*
X166095226Y-79041898D01*
X166135000Y-78841939D01*
X166135000Y-78638061D01*
X166095226Y-78438102D01*
X166017205Y-78249744D01*
X165903937Y-78080226D01*
X165759774Y-77936063D01*
X165590256Y-77822795D01*
X165401898Y-77744774D01*
X165201939Y-77705000D01*
X164998061Y-77705000D01*
X164798102Y-77744774D01*
X164609744Y-77822795D01*
X164440226Y-77936063D01*
X164296063Y-78080226D01*
X164182795Y-78249744D01*
X164104774Y-78438102D01*
X164065000Y-78638061D01*
X164065000Y-78841939D01*
X164104774Y-79041898D01*
X164182795Y-79230256D01*
X164265000Y-79353285D01*
X164265001Y-91875000D01*
X161331007Y-91875000D01*
X161289999Y-91870961D01*
X161248991Y-91875000D01*
X161248981Y-91875000D01*
X161126311Y-91887082D01*
X160968913Y-91934828D01*
X160823854Y-92012364D01*
X160696709Y-92116709D01*
X160670559Y-92148573D01*
X160235000Y-92584132D01*
X160235000Y-92563740D01*
X160177932Y-92276842D01*
X160065990Y-92006589D01*
X159903475Y-91763368D01*
X159696632Y-91556525D01*
X159522240Y-91440000D01*
X159696632Y-91323475D01*
X159903475Y-91116632D01*
X160065990Y-90873411D01*
X160177932Y-90603158D01*
X160235000Y-90316260D01*
X160235000Y-90023740D01*
X160177932Y-89736842D01*
X160065990Y-89466589D01*
X159903475Y-89223368D01*
X159696632Y-89016525D01*
X159522240Y-88900000D01*
X159696632Y-88783475D01*
X159903475Y-88576632D01*
X160065990Y-88333411D01*
X160177932Y-88063158D01*
X160235000Y-87776260D01*
X160235000Y-87755868D01*
X161725001Y-89245870D01*
X161725000Y-89556714D01*
X161642795Y-89679744D01*
X161564774Y-89868102D01*
X161525000Y-90068061D01*
X161525000Y-90271939D01*
X161564774Y-90471898D01*
X161642795Y-90660256D01*
X161756063Y-90829774D01*
X161900226Y-90973937D01*
X162069744Y-91087205D01*
X162258102Y-91165226D01*
X162458061Y-91205000D01*
X162661939Y-91205000D01*
X162861898Y-91165226D01*
X163050256Y-91087205D01*
X163219774Y-90973937D01*
X163363937Y-90829774D01*
X163477205Y-90660256D01*
X163555226Y-90471898D01*
X163595000Y-90271939D01*
X163595000Y-90068061D01*
X163555226Y-89868102D01*
X163477205Y-89679744D01*
X163395000Y-89556715D01*
X163395000Y-88941018D01*
X163399040Y-88900000D01*
X163387563Y-88783475D01*
X163382918Y-88736311D01*
X163335172Y-88578913D01*
X163257636Y-88433854D01*
X163153291Y-88306709D01*
X163121432Y-88280563D01*
X160208807Y-85367940D01*
X160235000Y-85236260D01*
X160235000Y-84943740D01*
X160177932Y-84656842D01*
X160065990Y-84386589D01*
X159903475Y-84143368D01*
X159696632Y-83936525D01*
X159514466Y-83814805D01*
X159631355Y-83745178D01*
X159847588Y-83550269D01*
X160021641Y-83316920D01*
X160146825Y-83054099D01*
X160191476Y-82906890D01*
X160070155Y-82677000D01*
X158877000Y-82677000D01*
X158877000Y-82697000D01*
X158623000Y-82697000D01*
X158623000Y-82677000D01*
X157429845Y-82677000D01*
X157308524Y-82906890D01*
X157353175Y-83054099D01*
X157478359Y-83316920D01*
X157652412Y-83550269D01*
X157868645Y-83745178D01*
X157985534Y-83814805D01*
X157803368Y-83936525D01*
X157596525Y-84143368D01*
X157434010Y-84386589D01*
X157322068Y-84656842D01*
X157265000Y-84943740D01*
X157265000Y-85236260D01*
X157322068Y-85523158D01*
X157434010Y-85793411D01*
X157596525Y-86036632D01*
X157803368Y-86243475D01*
X157977760Y-86360000D01*
X157803368Y-86476525D01*
X157596525Y-86683368D01*
X157434010Y-86926589D01*
X157322068Y-87196842D01*
X157265000Y-87483740D01*
X157265000Y-87776260D01*
X157322068Y-88063158D01*
X157434010Y-88333411D01*
X157596525Y-88576632D01*
X157803368Y-88783475D01*
X157977760Y-88900000D01*
X157803368Y-89016525D01*
X157596525Y-89223368D01*
X157434010Y-89466589D01*
X157322068Y-89736842D01*
X157265000Y-90023740D01*
X157265000Y-90316260D01*
X157322068Y-90603158D01*
X157434010Y-90873411D01*
X157596525Y-91116632D01*
X157803368Y-91323475D01*
X157977760Y-91440000D01*
X157803368Y-91556525D01*
X157596525Y-91763368D01*
X157434010Y-92006589D01*
X157322068Y-92276842D01*
X157265000Y-92563740D01*
X157265000Y-92856260D01*
X157322068Y-93143158D01*
X157434010Y-93413411D01*
X157596525Y-93656632D01*
X157803368Y-93863475D01*
X157977760Y-93980000D01*
X157803368Y-94096525D01*
X157596525Y-94303368D01*
X157434010Y-94546589D01*
X157322068Y-94816842D01*
X157265000Y-95103740D01*
X157265000Y-95396260D01*
X157322068Y-95683158D01*
X157434010Y-95953411D01*
X157596525Y-96196632D01*
X157728380Y-96328487D01*
X157655820Y-96350498D01*
X157545506Y-96409463D01*
X157448815Y-96488815D01*
X157369463Y-96585506D01*
X157310498Y-96695820D01*
X157274188Y-96815518D01*
X157261928Y-96940000D01*
X134838072Y-96940000D01*
X134825812Y-96815518D01*
X134789502Y-96695820D01*
X134730537Y-96585506D01*
X134651185Y-96488815D01*
X134554494Y-96409463D01*
X134444180Y-96350498D01*
X134371620Y-96328487D01*
X134503475Y-96196632D01*
X134665990Y-95953411D01*
X134777932Y-95683158D01*
X134835000Y-95396260D01*
X134835000Y-95103740D01*
X134777932Y-94816842D01*
X134665990Y-94546589D01*
X134503475Y-94303368D01*
X134296632Y-94096525D01*
X134122240Y-93980000D01*
X134296632Y-93863475D01*
X134503475Y-93656632D01*
X134665990Y-93413411D01*
X134777932Y-93143158D01*
X134835000Y-92856260D01*
X134835000Y-92563740D01*
X134777932Y-92276842D01*
X134665990Y-92006589D01*
X134503475Y-91763368D01*
X134296632Y-91556525D01*
X134122240Y-91440000D01*
X134296632Y-91323475D01*
X134503475Y-91116632D01*
X134665990Y-90873411D01*
X134777932Y-90603158D01*
X134835000Y-90316260D01*
X134835000Y-90023740D01*
X134777932Y-89736842D01*
X134665990Y-89466589D01*
X134503475Y-89223368D01*
X134296632Y-89016525D01*
X134122240Y-88900000D01*
X134296632Y-88783475D01*
X134503475Y-88576632D01*
X134665990Y-88333411D01*
X134777932Y-88063158D01*
X134835000Y-87776260D01*
X134835000Y-87483740D01*
X134777932Y-87196842D01*
X134665990Y-86926589D01*
X134503475Y-86683368D01*
X134296632Y-86476525D01*
X134122240Y-86360000D01*
X134296632Y-86243475D01*
X134503475Y-86036632D01*
X134665990Y-85793411D01*
X134777932Y-85523158D01*
X134835000Y-85236260D01*
X134835000Y-84943740D01*
X134777932Y-84656842D01*
X134665990Y-84386589D01*
X134503475Y-84143368D01*
X134296632Y-83936525D01*
X134122240Y-83820000D01*
X134296632Y-83703475D01*
X134503475Y-83496632D01*
X134665990Y-83253411D01*
X134777932Y-82983158D01*
X134835000Y-82696260D01*
X134835000Y-82403740D01*
X134777932Y-82116842D01*
X134665990Y-81846589D01*
X134503475Y-81603368D01*
X134296632Y-81396525D01*
X134122240Y-81280000D01*
X134296632Y-81163475D01*
X134503475Y-80956632D01*
X134665990Y-80713411D01*
X134777932Y-80443158D01*
X134835000Y-80156260D01*
X134835000Y-79863740D01*
X134777932Y-79576842D01*
X134665990Y-79306589D01*
X134503475Y-79063368D01*
X134296632Y-78856525D01*
X134122240Y-78740000D01*
X134296632Y-78623475D01*
X134503475Y-78416632D01*
X134665990Y-78173411D01*
X134777932Y-77903158D01*
X134835000Y-77616260D01*
X134835000Y-77323740D01*
X134777932Y-77036842D01*
X134665990Y-76766589D01*
X134503475Y-76523368D01*
X134296632Y-76316525D01*
X134122240Y-76200000D01*
X134296632Y-76083475D01*
X134503475Y-75876632D01*
X134665990Y-75633411D01*
X134777932Y-75363158D01*
X134835000Y-75076260D01*
X134835000Y-74783740D01*
X134777932Y-74496842D01*
X134665990Y-74226589D01*
X134503475Y-73983368D01*
X134296632Y-73776525D01*
X134122240Y-73660000D01*
X134296632Y-73543475D01*
X134503475Y-73336632D01*
X134665990Y-73093411D01*
X134777932Y-72823158D01*
X134835000Y-72536260D01*
X134835000Y-72243740D01*
X134777932Y-71956842D01*
X134665990Y-71686589D01*
X134503475Y-71443368D01*
X134296632Y-71236525D01*
X134122240Y-71120000D01*
X134296632Y-71003475D01*
X134503475Y-70796632D01*
X134665990Y-70553411D01*
X134777932Y-70283158D01*
X134835000Y-69996260D01*
X134835000Y-69703740D01*
X134777932Y-69416842D01*
X134665990Y-69146589D01*
X134503475Y-68903368D01*
X134296632Y-68696525D01*
X134122240Y-68580000D01*
X134296632Y-68463475D01*
X134503475Y-68256632D01*
X134665990Y-68013411D01*
X134777932Y-67743158D01*
X134835000Y-67456260D01*
X134835000Y-67163740D01*
X134777932Y-66876842D01*
X134665990Y-66606589D01*
X134503475Y-66363368D01*
X134296632Y-66156525D01*
X134114466Y-66034805D01*
X134231355Y-65965178D01*
X134447588Y-65770269D01*
X134621641Y-65536920D01*
X134746825Y-65274099D01*
X134791476Y-65126890D01*
X134670155Y-64897000D01*
X133477000Y-64897000D01*
X133477000Y-64917000D01*
X133223000Y-64917000D01*
X133223000Y-64897000D01*
X132029845Y-64897000D01*
X131908524Y-65126890D01*
X131953175Y-65274099D01*
X132078359Y-65536920D01*
X132252412Y-65770269D01*
X132468645Y-65965178D01*
X132585534Y-66034805D01*
X132403368Y-66156525D01*
X132196525Y-66363368D01*
X132034010Y-66606589D01*
X131922068Y-66876842D01*
X131865000Y-67163740D01*
X131865000Y-67456260D01*
X131922068Y-67743158D01*
X132034010Y-68013411D01*
X132196525Y-68256632D01*
X132403368Y-68463475D01*
X132577760Y-68580000D01*
X132403368Y-68696525D01*
X132196525Y-68903368D01*
X132034010Y-69146589D01*
X131922068Y-69416842D01*
X131865000Y-69703740D01*
X131865000Y-69996260D01*
X131922068Y-70283158D01*
X132034010Y-70553411D01*
X132196525Y-70796632D01*
X132403368Y-71003475D01*
X132577760Y-71120000D01*
X132403368Y-71236525D01*
X132196525Y-71443368D01*
X132034010Y-71686589D01*
X131922068Y-71956842D01*
X131865000Y-72243740D01*
X131865000Y-72536260D01*
X131922068Y-72823158D01*
X132034010Y-73093411D01*
X132196525Y-73336632D01*
X132403368Y-73543475D01*
X132577760Y-73660000D01*
X132403368Y-73776525D01*
X132196525Y-73983368D01*
X132034010Y-74226589D01*
X131922068Y-74496842D01*
X131865000Y-74783740D01*
X131865000Y-75076260D01*
X131922068Y-75363158D01*
X132034010Y-75633411D01*
X132196525Y-75876632D01*
X132403368Y-76083475D01*
X132577760Y-76200000D01*
X132403368Y-76316525D01*
X132196525Y-76523368D01*
X132034010Y-76766589D01*
X131922068Y-77036842D01*
X131865000Y-77323740D01*
X131865000Y-77616260D01*
X131922068Y-77903158D01*
X132034010Y-78173411D01*
X132196525Y-78416632D01*
X132403368Y-78623475D01*
X132577760Y-78740000D01*
X132403368Y-78856525D01*
X132196525Y-79063368D01*
X132034010Y-79306589D01*
X131922068Y-79576842D01*
X131865000Y-79863740D01*
X131865000Y-80156260D01*
X131922068Y-80443158D01*
X132034010Y-80713411D01*
X132196525Y-80956632D01*
X132403368Y-81163475D01*
X132577760Y-81280000D01*
X132403368Y-81396525D01*
X132196525Y-81603368D01*
X132034010Y-81846589D01*
X131922068Y-82116842D01*
X131865000Y-82403740D01*
X131865000Y-82696260D01*
X131922068Y-82983158D01*
X132034010Y-83253411D01*
X132196525Y-83496632D01*
X132403368Y-83703475D01*
X132577760Y-83820000D01*
X132403368Y-83936525D01*
X132196525Y-84143368D01*
X132034010Y-84386589D01*
X131922068Y-84656842D01*
X131865000Y-84943740D01*
X131865000Y-85236260D01*
X131922068Y-85523158D01*
X132034010Y-85793411D01*
X132196525Y-86036632D01*
X132403368Y-86243475D01*
X132577760Y-86360000D01*
X132403368Y-86476525D01*
X132196525Y-86683368D01*
X132034010Y-86926589D01*
X131922068Y-87196842D01*
X131865000Y-87483740D01*
X131865000Y-87776260D01*
X131922068Y-88063158D01*
X132034010Y-88333411D01*
X132196525Y-88576632D01*
X132403368Y-88783475D01*
X132577760Y-88900000D01*
X132403368Y-89016525D01*
X132196525Y-89223368D01*
X132034010Y-89466589D01*
X131922068Y-89736842D01*
X131865000Y-90023740D01*
X131865000Y-90316260D01*
X131922068Y-90603158D01*
X132034010Y-90873411D01*
X132196525Y-91116632D01*
X132403368Y-91323475D01*
X132577760Y-91440000D01*
X132403368Y-91556525D01*
X132196525Y-91763368D01*
X132034010Y-92006589D01*
X131922068Y-92276842D01*
X131865000Y-92563740D01*
X131865000Y-92856260D01*
X131922068Y-93143158D01*
X132034010Y-93413411D01*
X132196525Y-93656632D01*
X132403368Y-93863475D01*
X132577760Y-93980000D01*
X132403368Y-94096525D01*
X132196525Y-94303368D01*
X132034010Y-94546589D01*
X131922068Y-94816842D01*
X131865000Y-95103740D01*
X131865000Y-95396260D01*
X131922068Y-95683158D01*
X132034010Y-95953411D01*
X132196525Y-96196632D01*
X132328380Y-96328487D01*
X132255820Y-96350498D01*
X132145506Y-96409463D01*
X132048815Y-96488815D01*
X131969463Y-96585506D01*
X131910498Y-96695820D01*
X131874188Y-96815518D01*
X131861928Y-96940000D01*
X131861928Y-97672940D01*
X126529869Y-103005000D01*
X118580132Y-103005000D01*
X114468072Y-98892941D01*
X114468072Y-98260000D01*
X114455812Y-98135518D01*
X114419502Y-98015820D01*
X114360537Y-97905506D01*
X114281185Y-97808815D01*
X114184494Y-97729463D01*
X114074180Y-97670498D01*
X113954482Y-97634188D01*
X113830000Y-97621928D01*
X112230000Y-97621928D01*
X112105518Y-97634188D01*
X111985820Y-97670498D01*
X111875506Y-97729463D01*
X111778815Y-97808815D01*
X111699463Y-97905506D01*
X111640498Y-98015820D01*
X111604188Y-98135518D01*
X111591928Y-98260000D01*
X111591928Y-98267215D01*
X111522702Y-98246903D01*
X110709605Y-99060000D01*
X110350395Y-99060000D01*
X110336253Y-99045858D01*
X110515858Y-98866253D01*
X110530000Y-98880395D01*
X111343097Y-98067298D01*
X111271514Y-97823329D01*
X111016004Y-97702429D01*
X110933406Y-97681725D01*
X115147132Y-93468000D01*
X117275001Y-95595870D01*
X117275000Y-97625375D01*
X117185518Y-97634188D01*
X117065820Y-97670498D01*
X116955506Y-97729463D01*
X116858815Y-97808815D01*
X116779463Y-97905506D01*
X116720498Y-98015820D01*
X116684188Y-98135518D01*
X116671928Y-98260000D01*
X116671928Y-99860000D01*
X116684188Y-99984482D01*
X116720498Y-100104180D01*
X116779463Y-100214494D01*
X116858815Y-100311185D01*
X116955506Y-100390537D01*
X117065820Y-100449502D01*
X117185518Y-100485812D01*
X117310000Y-100498072D01*
X118910000Y-100498072D01*
X119034482Y-100485812D01*
X119154180Y-100449502D01*
X119264494Y-100390537D01*
X119361185Y-100311185D01*
X119440537Y-100214494D01*
X119499502Y-100104180D01*
X119515117Y-100052702D01*
X119796903Y-100052702D01*
X119868486Y-100296671D01*
X120123996Y-100417571D01*
X120398184Y-100486300D01*
X120680512Y-100500217D01*
X120960130Y-100458787D01*
X121226292Y-100363603D01*
X121351514Y-100296671D01*
X121423097Y-100052702D01*
X120610000Y-99239605D01*
X119796903Y-100052702D01*
X119515117Y-100052702D01*
X119535812Y-99984482D01*
X119548072Y-99860000D01*
X119548072Y-99852785D01*
X119617298Y-99873097D01*
X120430395Y-99060000D01*
X120789605Y-99060000D01*
X121602702Y-99873097D01*
X121846671Y-99801514D01*
X121967571Y-99546004D01*
X122036300Y-99271816D01*
X122050217Y-98989488D01*
X122008787Y-98709870D01*
X121913603Y-98443708D01*
X121846671Y-98318486D01*
X121647340Y-98260000D01*
X124291928Y-98260000D01*
X124291928Y-99860000D01*
X124304188Y-99984482D01*
X124340498Y-100104180D01*
X124399463Y-100214494D01*
X124478815Y-100311185D01*
X124575506Y-100390537D01*
X124685820Y-100449502D01*
X124805518Y-100485812D01*
X124930000Y-100498072D01*
X126530000Y-100498072D01*
X126654482Y-100485812D01*
X126774180Y-100449502D01*
X126884494Y-100390537D01*
X126981185Y-100311185D01*
X127060537Y-100214494D01*
X127119502Y-100104180D01*
X127135117Y-100052702D01*
X127416903Y-100052702D01*
X127488486Y-100296671D01*
X127743996Y-100417571D01*
X128018184Y-100486300D01*
X128300512Y-100500217D01*
X128580130Y-100458787D01*
X128846292Y-100363603D01*
X128971514Y-100296671D01*
X129043097Y-100052702D01*
X128230000Y-99239605D01*
X127416903Y-100052702D01*
X127135117Y-100052702D01*
X127155812Y-99984482D01*
X127168072Y-99860000D01*
X127168072Y-99852785D01*
X127237298Y-99873097D01*
X128050395Y-99060000D01*
X128409605Y-99060000D01*
X129222702Y-99873097D01*
X129466671Y-99801514D01*
X129587571Y-99546004D01*
X129656300Y-99271816D01*
X129670217Y-98989488D01*
X129628787Y-98709870D01*
X129533603Y-98443708D01*
X129466671Y-98318486D01*
X129222702Y-98246903D01*
X128409605Y-99060000D01*
X128050395Y-99060000D01*
X127237298Y-98246903D01*
X127168072Y-98267215D01*
X127168072Y-98260000D01*
X127155812Y-98135518D01*
X127135118Y-98067298D01*
X127416903Y-98067298D01*
X128230000Y-98880395D01*
X129043097Y-98067298D01*
X128971514Y-97823329D01*
X128716004Y-97702429D01*
X128441816Y-97633700D01*
X128159488Y-97619783D01*
X127879870Y-97661213D01*
X127613708Y-97756397D01*
X127488486Y-97823329D01*
X127416903Y-98067298D01*
X127135118Y-98067298D01*
X127119502Y-98015820D01*
X127060537Y-97905506D01*
X126981185Y-97808815D01*
X126884494Y-97729463D01*
X126774180Y-97670498D01*
X126654482Y-97634188D01*
X126530000Y-97621928D01*
X124930000Y-97621928D01*
X124805518Y-97634188D01*
X124685820Y-97670498D01*
X124575506Y-97729463D01*
X124478815Y-97808815D01*
X124399463Y-97905506D01*
X124340498Y-98015820D01*
X124304188Y-98135518D01*
X124291928Y-98260000D01*
X121647340Y-98260000D01*
X121602702Y-98246903D01*
X120789605Y-99060000D01*
X120430395Y-99060000D01*
X119617298Y-98246903D01*
X119548072Y-98267215D01*
X119548072Y-98260000D01*
X119535812Y-98135518D01*
X119515118Y-98067298D01*
X119796903Y-98067298D01*
X120610000Y-98880395D01*
X121423097Y-98067298D01*
X121351514Y-97823329D01*
X121096004Y-97702429D01*
X120821816Y-97633700D01*
X120539488Y-97619783D01*
X120259870Y-97661213D01*
X119993708Y-97756397D01*
X119868486Y-97823329D01*
X119796903Y-98067298D01*
X119515118Y-98067298D01*
X119499502Y-98015820D01*
X119440537Y-97905506D01*
X119361185Y-97808815D01*
X119264494Y-97729463D01*
X119154180Y-97670498D01*
X119034482Y-97634188D01*
X118945000Y-97625375D01*
X118945000Y-95291018D01*
X118949040Y-95250000D01*
X118932918Y-95086312D01*
X118885172Y-94928913D01*
X118807636Y-94783854D01*
X118729439Y-94688570D01*
X118729437Y-94688568D01*
X118703291Y-94656709D01*
X118671432Y-94630563D01*
X115765001Y-91724134D01*
X115765001Y-86218665D01*
X116675000Y-86218665D01*
X116675000Y-86501335D01*
X116730147Y-86778574D01*
X116838320Y-87039727D01*
X116995363Y-87274759D01*
X117195241Y-87474637D01*
X117430273Y-87631680D01*
X117691426Y-87739853D01*
X117968665Y-87795000D01*
X118251335Y-87795000D01*
X118528574Y-87739853D01*
X118789727Y-87631680D01*
X119024759Y-87474637D01*
X119224637Y-87274759D01*
X119381680Y-87039727D01*
X119489853Y-86778574D01*
X119545000Y-86501335D01*
X119545000Y-86218665D01*
X119489853Y-85941426D01*
X119381680Y-85680273D01*
X119224637Y-85445241D01*
X119024759Y-85245363D01*
X118789727Y-85088320D01*
X118528574Y-84980147D01*
X118251335Y-84925000D01*
X117968665Y-84925000D01*
X117691426Y-84980147D01*
X117430273Y-85088320D01*
X117195241Y-85245363D01*
X116995363Y-85445241D01*
X116838320Y-85680273D01*
X116730147Y-85941426D01*
X116675000Y-86218665D01*
X115765001Y-86218665D01*
X115765001Y-82379117D01*
X118915000Y-82379117D01*
X118915000Y-82720883D01*
X118981675Y-83056081D01*
X119112463Y-83371831D01*
X119302337Y-83655998D01*
X119544002Y-83897663D01*
X119828169Y-84087537D01*
X120143919Y-84218325D01*
X120479117Y-84285000D01*
X120820883Y-84285000D01*
X121156081Y-84218325D01*
X121471831Y-84087537D01*
X121755998Y-83897663D01*
X121997663Y-83655998D01*
X122187537Y-83371831D01*
X122318325Y-83056081D01*
X122385000Y-82720883D01*
X122385000Y-82379117D01*
X122318325Y-82043919D01*
X122187537Y-81728169D01*
X121997663Y-81444002D01*
X121755998Y-81202337D01*
X121471831Y-81012463D01*
X121156081Y-80881675D01*
X120820883Y-80815000D01*
X120479117Y-80815000D01*
X120143919Y-80881675D01*
X119828169Y-81012463D01*
X119544002Y-81202337D01*
X119302337Y-81444002D01*
X119112463Y-81728169D01*
X118981675Y-82043919D01*
X118915000Y-82379117D01*
X115765001Y-82379117D01*
X115765001Y-79320135D01*
X115948007Y-79503141D01*
X115983549Y-79546449D01*
X116156375Y-79688284D01*
X116353551Y-79793676D01*
X116567499Y-79858577D01*
X116789998Y-79880491D01*
X116845749Y-79875000D01*
X123634256Y-79875000D01*
X123620960Y-80010000D01*
X123625001Y-80051028D01*
X123625000Y-81382070D01*
X123545241Y-81435363D01*
X123345363Y-81635241D01*
X123188320Y-81870273D01*
X123080147Y-82131426D01*
X123025000Y-82408665D01*
X123025000Y-82691335D01*
X123080147Y-82968574D01*
X123188320Y-83229727D01*
X123345363Y-83464759D01*
X123545241Y-83664637D01*
X123780273Y-83821680D01*
X123867186Y-83857680D01*
X117722939Y-90001928D01*
X117310000Y-90001928D01*
X117185518Y-90014188D01*
X117065820Y-90050498D01*
X116955506Y-90109463D01*
X116858815Y-90188815D01*
X116779463Y-90285506D01*
X116720498Y-90395820D01*
X116684188Y-90515518D01*
X116671928Y-90640000D01*
X116671928Y-92240000D01*
X116684188Y-92364482D01*
X116720498Y-92484180D01*
X116779463Y-92594494D01*
X116858815Y-92691185D01*
X116955506Y-92770537D01*
X117065820Y-92829502D01*
X117185518Y-92865812D01*
X117310000Y-92878072D01*
X118910000Y-92878072D01*
X119034482Y-92865812D01*
X119154180Y-92829502D01*
X119264494Y-92770537D01*
X119361185Y-92691185D01*
X119371807Y-92678242D01*
X119623996Y-92797571D01*
X119898184Y-92866300D01*
X120180512Y-92880217D01*
X120460130Y-92838787D01*
X120726292Y-92743603D01*
X120851514Y-92676671D01*
X120923097Y-92432702D01*
X120110000Y-91619605D01*
X120095858Y-91633748D01*
X119916253Y-91454143D01*
X119930395Y-91440000D01*
X120289605Y-91440000D01*
X121102702Y-92253097D01*
X121346671Y-92181514D01*
X121467571Y-91926004D01*
X121536300Y-91651816D01*
X121550217Y-91369488D01*
X121508787Y-91089870D01*
X121413603Y-90823708D01*
X121346671Y-90698486D01*
X121102702Y-90626903D01*
X120289605Y-91440000D01*
X119930395Y-91440000D01*
X119916253Y-91425858D01*
X120095858Y-91246253D01*
X120110000Y-91260395D01*
X120923097Y-90447298D01*
X120851514Y-90203329D01*
X120770251Y-90164878D01*
X128057830Y-82877300D01*
X128061213Y-82900130D01*
X128156397Y-83166292D01*
X128223329Y-83291514D01*
X128467298Y-83363097D01*
X129280395Y-82550000D01*
X129266253Y-82535858D01*
X129445858Y-82356253D01*
X129460000Y-82370395D01*
X129474143Y-82356253D01*
X129653748Y-82535858D01*
X129639605Y-82550000D01*
X129653748Y-82564143D01*
X129474143Y-82743748D01*
X129460000Y-82729605D01*
X128646903Y-83542702D01*
X128718486Y-83786671D01*
X128973996Y-83907571D01*
X129248184Y-83976300D01*
X129530512Y-83990217D01*
X129810130Y-83948787D01*
X129975000Y-83889827D01*
X129975000Y-85875502D01*
X129692861Y-86157641D01*
X129649853Y-85941426D01*
X129541680Y-85680273D01*
X129384637Y-85445241D01*
X129184759Y-85245363D01*
X128949727Y-85088320D01*
X128688574Y-84980147D01*
X128411335Y-84925000D01*
X128128665Y-84925000D01*
X127851426Y-84980147D01*
X127590273Y-85088320D01*
X127355241Y-85245363D01*
X127155363Y-85445241D01*
X126998320Y-85680273D01*
X126890147Y-85941426D01*
X126835000Y-86218665D01*
X126835000Y-86501335D01*
X126890147Y-86778574D01*
X126998320Y-87039727D01*
X127155363Y-87274759D01*
X127355241Y-87474637D01*
X127590273Y-87631680D01*
X127851426Y-87739853D01*
X128067641Y-87782861D01*
X125449949Y-90400553D01*
X125374759Y-90325363D01*
X125139727Y-90168320D01*
X124878574Y-90060147D01*
X124601335Y-90005000D01*
X124318665Y-90005000D01*
X124041426Y-90060147D01*
X123780273Y-90168320D01*
X123545241Y-90325363D01*
X123345363Y-90525241D01*
X123188320Y-90760273D01*
X123080147Y-91021426D01*
X123025000Y-91298665D01*
X123025000Y-91581335D01*
X123080147Y-91858574D01*
X123188320Y-92119727D01*
X123345363Y-92354759D01*
X123545241Y-92554637D01*
X123780273Y-92711680D01*
X124041426Y-92819853D01*
X124318665Y-92875000D01*
X124601335Y-92875000D01*
X124878574Y-92819853D01*
X125139727Y-92711680D01*
X125374759Y-92554637D01*
X125496694Y-92432702D01*
X128646903Y-92432702D01*
X128718486Y-92676671D01*
X128973996Y-92797571D01*
X129248184Y-92866300D01*
X129530512Y-92880217D01*
X129810130Y-92838787D01*
X130076292Y-92743603D01*
X130201514Y-92676671D01*
X130273097Y-92432702D01*
X129460000Y-91619605D01*
X128646903Y-92432702D01*
X125496694Y-92432702D01*
X125574637Y-92354759D01*
X125627616Y-92275470D01*
X125632388Y-92275000D01*
X125632389Y-92275000D01*
X125755059Y-92262918D01*
X125912457Y-92215172D01*
X126057516Y-92137636D01*
X126184661Y-92033291D01*
X126210816Y-92001421D01*
X126701725Y-91510512D01*
X128019783Y-91510512D01*
X128061213Y-91790130D01*
X128156397Y-92056292D01*
X128223329Y-92181514D01*
X128467298Y-92253097D01*
X129280395Y-91440000D01*
X129639605Y-91440000D01*
X130452702Y-92253097D01*
X130696671Y-92181514D01*
X130817571Y-91926004D01*
X130886300Y-91651816D01*
X130900217Y-91369488D01*
X130858787Y-91089870D01*
X130763603Y-90823708D01*
X130696671Y-90698486D01*
X130452702Y-90626903D01*
X129639605Y-91440000D01*
X129280395Y-91440000D01*
X128467298Y-90626903D01*
X128223329Y-90698486D01*
X128102429Y-90953996D01*
X128033700Y-91228184D01*
X128019783Y-91510512D01*
X126701725Y-91510512D01*
X127764939Y-90447298D01*
X128646903Y-90447298D01*
X129460000Y-91260395D01*
X130273097Y-90447298D01*
X130201514Y-90203329D01*
X129946004Y-90082429D01*
X129671816Y-90013700D01*
X129389488Y-89999783D01*
X129109870Y-90041213D01*
X128843708Y-90136397D01*
X128718486Y-90203329D01*
X128646903Y-90447298D01*
X127764939Y-90447298D01*
X131371428Y-86840810D01*
X131403291Y-86814661D01*
X131507636Y-86687516D01*
X131585172Y-86542457D01*
X131632918Y-86385059D01*
X131645000Y-86262389D01*
X131645000Y-86262379D01*
X131649039Y-86221371D01*
X131645000Y-86180363D01*
X131645000Y-68621015D01*
X131649040Y-68579999D01*
X131636284Y-68450490D01*
X131632918Y-68416311D01*
X131585172Y-68258913D01*
X131507636Y-68113854D01*
X131403291Y-67986709D01*
X131371426Y-67960558D01*
X130159446Y-66748579D01*
X130133291Y-66716709D01*
X130006146Y-66612364D01*
X129861087Y-66534828D01*
X129703689Y-66487082D01*
X129581019Y-66475000D01*
X129581018Y-66475000D01*
X129540000Y-66470960D01*
X129498982Y-66475000D01*
X120691015Y-66475000D01*
X120649999Y-66470960D01*
X120608983Y-66475000D01*
X120608981Y-66475000D01*
X120486311Y-66487082D01*
X120328913Y-66534828D01*
X120247730Y-66578222D01*
X120186449Y-66503551D01*
X120143140Y-66468008D01*
X118951996Y-65276865D01*
X118916449Y-65233551D01*
X118743623Y-65091716D01*
X118546447Y-64986324D01*
X118332499Y-64921423D01*
X118165752Y-64905000D01*
X118165751Y-64905000D01*
X118110000Y-64899509D01*
X118054249Y-64905000D01*
X110545743Y-64905000D01*
X110489999Y-64899510D01*
X110434255Y-64905000D01*
X110434248Y-64905000D01*
X110288493Y-64919356D01*
X110267500Y-64921423D01*
X110217705Y-64936529D01*
X110053553Y-64986324D01*
X109856377Y-65091716D01*
X109683551Y-65233551D01*
X109648008Y-65276860D01*
X108610000Y-66314869D01*
X108610000Y-59625000D01*
X114831928Y-59625000D01*
X114831928Y-61375000D01*
X114861001Y-61670186D01*
X114947104Y-61954028D01*
X115086927Y-62215618D01*
X115275097Y-62444903D01*
X115504382Y-62633073D01*
X115765972Y-62772896D01*
X116049814Y-62858999D01*
X116345000Y-62888072D01*
X118095000Y-62888072D01*
X118390186Y-62858999D01*
X118674028Y-62772896D01*
X118935618Y-62633073D01*
X119164903Y-62444903D01*
X119353073Y-62215618D01*
X119492896Y-61954028D01*
X119531928Y-61825357D01*
X119531928Y-65250000D01*
X119544188Y-65374482D01*
X119580498Y-65494180D01*
X119639463Y-65604494D01*
X119718815Y-65701185D01*
X119815506Y-65780537D01*
X119925820Y-65839502D01*
X120045518Y-65875812D01*
X120170000Y-65888072D01*
X123670000Y-65888072D01*
X123794482Y-65875812D01*
X123914180Y-65839502D01*
X124024494Y-65780537D01*
X124121185Y-65701185D01*
X124200537Y-65604494D01*
X124259502Y-65494180D01*
X124295812Y-65374482D01*
X124308072Y-65250000D01*
X124308072Y-61750000D01*
X124295812Y-61625518D01*
X124259502Y-61505820D01*
X124200537Y-61395506D01*
X124121185Y-61298815D01*
X124024494Y-61219463D01*
X123914180Y-61160498D01*
X123794482Y-61124188D01*
X123670000Y-61111928D01*
X120170000Y-61111928D01*
X120045518Y-61124188D01*
X119925820Y-61160498D01*
X119815506Y-61219463D01*
X119718815Y-61298815D01*
X119639463Y-61395506D01*
X119598506Y-61472131D01*
X119608072Y-61375000D01*
X119608072Y-59625000D01*
X119578999Y-59329814D01*
X119492896Y-59045972D01*
X119468324Y-59000000D01*
X119531928Y-59000000D01*
X119544188Y-59124482D01*
X119580498Y-59244180D01*
X119639463Y-59354494D01*
X119718815Y-59451185D01*
X119815506Y-59530537D01*
X119925820Y-59589502D01*
X120045518Y-59625812D01*
X120170000Y-59638072D01*
X121634250Y-59635000D01*
X121793000Y-59476250D01*
X121793000Y-57627000D01*
X122047000Y-57627000D01*
X122047000Y-59476250D01*
X122205750Y-59635000D01*
X123670000Y-59638072D01*
X123794482Y-59625812D01*
X123914180Y-59589502D01*
X124024494Y-59530537D01*
X124121185Y-59451185D01*
X124200537Y-59354494D01*
X124259502Y-59244180D01*
X124295812Y-59124482D01*
X124308072Y-59000000D01*
X124305000Y-57785750D01*
X124146250Y-57627000D01*
X122047000Y-57627000D01*
X121793000Y-57627000D01*
X119693750Y-57627000D01*
X119535000Y-57785750D01*
X119531928Y-59000000D01*
X119468324Y-59000000D01*
X119353073Y-58784382D01*
X119164903Y-58555097D01*
X118935618Y-58366927D01*
X118674028Y-58227104D01*
X118390186Y-58141001D01*
X118095000Y-58111928D01*
X116345000Y-58111928D01*
X116049814Y-58141001D01*
X115765972Y-58227104D01*
X115504382Y-58366927D01*
X115275097Y-58555097D01*
X115086927Y-58784382D01*
X114947104Y-59045972D01*
X114861001Y-59329814D01*
X114831928Y-59625000D01*
X108610000Y-59625000D01*
X108610000Y-56000000D01*
X119531928Y-56000000D01*
X119535000Y-57214250D01*
X119693750Y-57373000D01*
X121793000Y-57373000D01*
X121793000Y-55523750D01*
X122047000Y-55523750D01*
X122047000Y-57373000D01*
X124146250Y-57373000D01*
X124305000Y-57214250D01*
X124305532Y-57003740D01*
X131865000Y-57003740D01*
X131865000Y-57296260D01*
X131922068Y-57583158D01*
X132034010Y-57853411D01*
X132196525Y-58096632D01*
X132403368Y-58303475D01*
X132577760Y-58420000D01*
X132403368Y-58536525D01*
X132196525Y-58743368D01*
X132034010Y-58986589D01*
X131922068Y-59256842D01*
X131865000Y-59543740D01*
X131865000Y-59836260D01*
X131922068Y-60123158D01*
X132034010Y-60393411D01*
X132196525Y-60636632D01*
X132403368Y-60843475D01*
X132577760Y-60960000D01*
X132403368Y-61076525D01*
X132196525Y-61283368D01*
X132034010Y-61526589D01*
X131922068Y-61796842D01*
X131865000Y-62083740D01*
X131865000Y-62376260D01*
X131922068Y-62663158D01*
X132034010Y-62933411D01*
X132196525Y-63176632D01*
X132403368Y-63383475D01*
X132585534Y-63505195D01*
X132468645Y-63574822D01*
X132252412Y-63769731D01*
X132078359Y-64003080D01*
X131953175Y-64265901D01*
X131908524Y-64413110D01*
X132029845Y-64643000D01*
X133223000Y-64643000D01*
X133223000Y-64623000D01*
X133477000Y-64623000D01*
X133477000Y-64643000D01*
X134670155Y-64643000D01*
X134791476Y-64413110D01*
X134746825Y-64265901D01*
X134621641Y-64003080D01*
X134447588Y-63769731D01*
X134231355Y-63574822D01*
X134114466Y-63505195D01*
X134296632Y-63383475D01*
X134503475Y-63176632D01*
X134665990Y-62933411D01*
X134777932Y-62663158D01*
X134835000Y-62376260D01*
X134835000Y-62083740D01*
X134777932Y-61796842D01*
X134665990Y-61526589D01*
X134503475Y-61283368D01*
X134296632Y-61076525D01*
X134122240Y-60960000D01*
X134296632Y-60843475D01*
X134503475Y-60636632D01*
X134665990Y-60393411D01*
X134777932Y-60123158D01*
X134835000Y-59836260D01*
X134835000Y-59543740D01*
X134777932Y-59256842D01*
X134665990Y-58986589D01*
X134503475Y-58743368D01*
X134296632Y-58536525D01*
X134122240Y-58420000D01*
X134296632Y-58303475D01*
X134503475Y-58096632D01*
X134665990Y-57853411D01*
X134777932Y-57583158D01*
X134835000Y-57296260D01*
X134835000Y-57003740D01*
X134777932Y-56716842D01*
X134665990Y-56446589D01*
X134503475Y-56203368D01*
X134296632Y-55996525D01*
X134114466Y-55874805D01*
X134231355Y-55805178D01*
X134447588Y-55610269D01*
X134621641Y-55376920D01*
X134746825Y-55114099D01*
X134791476Y-54966890D01*
X134670155Y-54737000D01*
X133477000Y-54737000D01*
X133477000Y-54757000D01*
X133223000Y-54757000D01*
X133223000Y-54737000D01*
X132029845Y-54737000D01*
X131908524Y-54966890D01*
X131953175Y-55114099D01*
X132078359Y-55376920D01*
X132252412Y-55610269D01*
X132468645Y-55805178D01*
X132585534Y-55874805D01*
X132403368Y-55996525D01*
X132196525Y-56203368D01*
X132034010Y-56446589D01*
X131922068Y-56716842D01*
X131865000Y-57003740D01*
X124305532Y-57003740D01*
X124308072Y-56000000D01*
X124295812Y-55875518D01*
X124259502Y-55755820D01*
X124200537Y-55645506D01*
X124121185Y-55548815D01*
X124024494Y-55469463D01*
X123914180Y-55410498D01*
X123794482Y-55374188D01*
X123670000Y-55361928D01*
X122205750Y-55365000D01*
X122047000Y-55523750D01*
X121793000Y-55523750D01*
X121634250Y-55365000D01*
X120170000Y-55361928D01*
X120045518Y-55374188D01*
X119925820Y-55410498D01*
X119815506Y-55469463D01*
X119718815Y-55548815D01*
X119639463Y-55645506D01*
X119580498Y-55755820D01*
X119544188Y-55875518D01*
X119531928Y-56000000D01*
X108610000Y-56000000D01*
X108610000Y-51849872D01*
X109525000Y-51849872D01*
X109525000Y-52290128D01*
X109610890Y-52721925D01*
X109779369Y-53128669D01*
X110023962Y-53494729D01*
X110335271Y-53806038D01*
X110701331Y-54050631D01*
X111108075Y-54219110D01*
X111539872Y-54305000D01*
X111980128Y-54305000D01*
X112411925Y-54219110D01*
X112818669Y-54050631D01*
X113184729Y-53806038D01*
X113496038Y-53494729D01*
X113740631Y-53128669D01*
X113909110Y-52721925D01*
X113995000Y-52290128D01*
X113995000Y-51923740D01*
X131865000Y-51923740D01*
X131865000Y-52216260D01*
X131922068Y-52503158D01*
X132034010Y-52773411D01*
X132196525Y-53016632D01*
X132403368Y-53223475D01*
X132585534Y-53345195D01*
X132468645Y-53414822D01*
X132252412Y-53609731D01*
X132078359Y-53843080D01*
X131953175Y-54105901D01*
X131908524Y-54253110D01*
X132029845Y-54483000D01*
X133223000Y-54483000D01*
X133223000Y-54463000D01*
X133477000Y-54463000D01*
X133477000Y-54483000D01*
X134670155Y-54483000D01*
X134791476Y-54253110D01*
X134746825Y-54105901D01*
X134621641Y-53843080D01*
X134447588Y-53609731D01*
X134231355Y-53414822D01*
X134114466Y-53345195D01*
X134296632Y-53223475D01*
X134503475Y-53016632D01*
X134665990Y-52773411D01*
X134777932Y-52503158D01*
X134835000Y-52216260D01*
X134835000Y-51923740D01*
X134777932Y-51636842D01*
X134665990Y-51366589D01*
X134503475Y-51123368D01*
X134296632Y-50916525D01*
X134053411Y-50754010D01*
X133783158Y-50642068D01*
X133496260Y-50585000D01*
X133203740Y-50585000D01*
X132916842Y-50642068D01*
X132646589Y-50754010D01*
X132403368Y-50916525D01*
X132196525Y-51123368D01*
X132034010Y-51366589D01*
X131922068Y-51636842D01*
X131865000Y-51923740D01*
X113995000Y-51923740D01*
X113995000Y-51849872D01*
X113909110Y-51418075D01*
X113740631Y-51011331D01*
X113496038Y-50645271D01*
X113184729Y-50333962D01*
X112818669Y-50089369D01*
X112411925Y-49920890D01*
X111980128Y-49835000D01*
X111539872Y-49835000D01*
X111108075Y-49920890D01*
X110701331Y-50089369D01*
X110335271Y-50333962D01*
X110023962Y-50645271D01*
X109779369Y-51011331D01*
X109610890Y-51418075D01*
X109525000Y-51849872D01*
X108610000Y-51849872D01*
X108610000Y-48920000D01*
X172147069Y-48920000D01*
X172126709Y-48936709D01*
G37*
X172126709Y-48936709D02*
X172100559Y-48968573D01*
X164943226Y-56125907D01*
X164798102Y-56154774D01*
X164609744Y-56232795D01*
X164440226Y-56346063D01*
X164296063Y-56490226D01*
X164182795Y-56659744D01*
X164104774Y-56848102D01*
X164065000Y-57048061D01*
X164065000Y-57251939D01*
X164104774Y-57451898D01*
X164182795Y-57640256D01*
X164296063Y-57809774D01*
X164440226Y-57953937D01*
X164609744Y-58067205D01*
X164798102Y-58145226D01*
X164998061Y-58185000D01*
X165201939Y-58185000D01*
X165401898Y-58145226D01*
X165590256Y-58067205D01*
X165759774Y-57953937D01*
X165903937Y-57809774D01*
X166017205Y-57640256D01*
X166095226Y-57451898D01*
X166124093Y-57306774D01*
X173065868Y-50365000D01*
X181264133Y-50365000D01*
X184585001Y-53685870D01*
X184585000Y-55921018D01*
X184585001Y-55921028D01*
X184585000Y-82591018D01*
X184585001Y-82591028D01*
X184585000Y-104796715D01*
X184502795Y-104919744D01*
X184424774Y-105108102D01*
X184385000Y-105308061D01*
X184385000Y-105511939D01*
X184424774Y-105711898D01*
X184502795Y-105900256D01*
X184616063Y-106069774D01*
X184760226Y-106213937D01*
X184929744Y-106327205D01*
X185118102Y-106405226D01*
X185318061Y-106445000D01*
X185521939Y-106445000D01*
X185721898Y-106405226D01*
X185910256Y-106327205D01*
X186079774Y-106213937D01*
X186223937Y-106069774D01*
X186337205Y-105900256D01*
X186415226Y-105711898D01*
X186455000Y-105511939D01*
X186455000Y-105308061D01*
X186415226Y-105108102D01*
X186337205Y-104919744D01*
X186255000Y-104796715D01*
X186255000Y-96876890D01*
X187788524Y-96876890D01*
X187833175Y-97024099D01*
X187958359Y-97286920D01*
X188132412Y-97520269D01*
X188348645Y-97715178D01*
X188598748Y-97864157D01*
X188873109Y-97961481D01*
X189103000Y-97840814D01*
X189103000Y-96647000D01*
X189357000Y-96647000D01*
X189357000Y-97840814D01*
X189586891Y-97961481D01*
X189861252Y-97864157D01*
X190111355Y-97715178D01*
X190327588Y-97520269D01*
X190501641Y-97286920D01*
X190626825Y-97024099D01*
X190671476Y-96876890D01*
X190550155Y-96647000D01*
X189357000Y-96647000D01*
X189103000Y-96647000D01*
X187909845Y-96647000D01*
X187788524Y-96876890D01*
X186255000Y-96876890D01*
X186255000Y-83673740D01*
X187745000Y-83673740D01*
X187745000Y-83966260D01*
X187802068Y-84253158D01*
X187914010Y-84523411D01*
X188076525Y-84766632D01*
X188283368Y-84973475D01*
X188457760Y-85090000D01*
X188283368Y-85206525D01*
X188076525Y-85413368D01*
X187914010Y-85656589D01*
X187802068Y-85926842D01*
X187745000Y-86213740D01*
X187745000Y-86506260D01*
X187802068Y-86793158D01*
X187914010Y-87063411D01*
X188076525Y-87306632D01*
X188283368Y-87513475D01*
X188457760Y-87630000D01*
X188283368Y-87746525D01*
X188076525Y-87953368D01*
X187914010Y-88196589D01*
X187802068Y-88466842D01*
X187745000Y-88753740D01*
X187745000Y-89046260D01*
X187802068Y-89333158D01*
X187914010Y-89603411D01*
X188076525Y-89846632D01*
X188283368Y-90053475D01*
X188457760Y-90170000D01*
X188283368Y-90286525D01*
X188076525Y-90493368D01*
X187914010Y-90736589D01*
X187802068Y-91006842D01*
X187745000Y-91293740D01*
X187745000Y-91586260D01*
X187802068Y-91873158D01*
X187914010Y-92143411D01*
X188076525Y-92386632D01*
X188283368Y-92593475D01*
X188457760Y-92710000D01*
X188283368Y-92826525D01*
X188076525Y-93033368D01*
X187914010Y-93276589D01*
X187802068Y-93546842D01*
X187745000Y-93833740D01*
X187745000Y-94126260D01*
X187802068Y-94413158D01*
X187914010Y-94683411D01*
X188076525Y-94926632D01*
X188283368Y-95133475D01*
X188465534Y-95255195D01*
X188348645Y-95324822D01*
X188132412Y-95519731D01*
X187958359Y-95753080D01*
X187833175Y-96015901D01*
X187788524Y-96163110D01*
X187909845Y-96393000D01*
X189103000Y-96393000D01*
X189103000Y-96373000D01*
X189357000Y-96373000D01*
X189357000Y-96393000D01*
X190550155Y-96393000D01*
X190671476Y-96163110D01*
X190626825Y-96015901D01*
X190501641Y-95753080D01*
X190327588Y-95519731D01*
X190111355Y-95324822D01*
X189994466Y-95255195D01*
X190176632Y-95133475D01*
X190383475Y-94926632D01*
X190545990Y-94683411D01*
X190657932Y-94413158D01*
X190715000Y-94126260D01*
X190715000Y-93833740D01*
X190657932Y-93546842D01*
X190545990Y-93276589D01*
X190383475Y-93033368D01*
X190176632Y-92826525D01*
X190002240Y-92710000D01*
X190176632Y-92593475D01*
X190195107Y-92575000D01*
X197154893Y-92575000D01*
X197173368Y-92593475D01*
X197416589Y-92755990D01*
X197686842Y-92867932D01*
X197973740Y-92925000D01*
X198266260Y-92925000D01*
X198553158Y-92867932D01*
X198823411Y-92755990D01*
X199066632Y-92593475D01*
X199273475Y-92386632D01*
X199435990Y-92143411D01*
X199547932Y-91873158D01*
X199605000Y-91586260D01*
X199605000Y-91293740D01*
X199547932Y-91006842D01*
X199435990Y-90736589D01*
X199273475Y-90493368D01*
X199066632Y-90286525D01*
X198892240Y-90170000D01*
X199066632Y-90053475D01*
X199273475Y-89846632D01*
X199435990Y-89603411D01*
X199547932Y-89333158D01*
X199605000Y-89046260D01*
X199605000Y-88753740D01*
X199547932Y-88466842D01*
X199435990Y-88196589D01*
X199273475Y-87953368D01*
X199066632Y-87746525D01*
X198892240Y-87630000D01*
X199066632Y-87513475D01*
X199273475Y-87306632D01*
X199435990Y-87063411D01*
X199547932Y-86793158D01*
X199605000Y-86506260D01*
X199605000Y-86213740D01*
X199547932Y-85926842D01*
X199435990Y-85656589D01*
X199273475Y-85413368D01*
X199141620Y-85281513D01*
X199214180Y-85259502D01*
X199324494Y-85200537D01*
X199421185Y-85121185D01*
X199500537Y-85024494D01*
X199559502Y-84914180D01*
X199595812Y-84794482D01*
X199608072Y-84670000D01*
X199608072Y-82970000D01*
X199595812Y-82845518D01*
X199559502Y-82725820D01*
X199500537Y-82615506D01*
X199421185Y-82518815D01*
X199324494Y-82439463D01*
X199214180Y-82380498D01*
X199094482Y-82344188D01*
X198970000Y-82331928D01*
X197270000Y-82331928D01*
X197145518Y-82344188D01*
X197025820Y-82380498D01*
X196915506Y-82439463D01*
X196818815Y-82518815D01*
X196739463Y-82615506D01*
X196702317Y-82685000D01*
X190195107Y-82685000D01*
X190176632Y-82666525D01*
X189994466Y-82544805D01*
X190111355Y-82475178D01*
X190327588Y-82280269D01*
X190501641Y-82046920D01*
X190626825Y-81784099D01*
X190671476Y-81636890D01*
X190550155Y-81407000D01*
X189357000Y-81407000D01*
X189357000Y-81427000D01*
X189103000Y-81427000D01*
X189103000Y-81407000D01*
X187909845Y-81407000D01*
X187788524Y-81636890D01*
X187833175Y-81784099D01*
X187958359Y-82046920D01*
X188132412Y-82280269D01*
X188348645Y-82475178D01*
X188465534Y-82544805D01*
X188283368Y-82666525D01*
X188076525Y-82873368D01*
X187914010Y-83116589D01*
X187802068Y-83386842D01*
X187745000Y-83673740D01*
X186255000Y-83673740D01*
X186255000Y-77890000D01*
X187741928Y-77890000D01*
X187741928Y-79590000D01*
X187754188Y-79714482D01*
X187790498Y-79834180D01*
X187849463Y-79944494D01*
X187928815Y-80041185D01*
X188025506Y-80120537D01*
X188135820Y-80179502D01*
X188216466Y-80203966D01*
X188132412Y-80279731D01*
X187958359Y-80513080D01*
X187833175Y-80775901D01*
X187788524Y-80923110D01*
X187909845Y-81153000D01*
X189103000Y-81153000D01*
X189103000Y-81133000D01*
X189357000Y-81133000D01*
X189357000Y-81153000D01*
X190550155Y-81153000D01*
X190671476Y-80923110D01*
X190626825Y-80775901D01*
X190501641Y-80513080D01*
X190327588Y-80279731D01*
X190243534Y-80203966D01*
X190324180Y-80179502D01*
X190434494Y-80120537D01*
X190531185Y-80041185D01*
X190610537Y-79944494D01*
X190669502Y-79834180D01*
X190705812Y-79714482D01*
X190718072Y-79590000D01*
X190718072Y-77890000D01*
X190705812Y-77765518D01*
X190669502Y-77645820D01*
X190610537Y-77535506D01*
X190531185Y-77438815D01*
X190434494Y-77359463D01*
X190324180Y-77300498D01*
X190204482Y-77264188D01*
X190080000Y-77251928D01*
X188380000Y-77251928D01*
X188255518Y-77264188D01*
X188135820Y-77300498D01*
X188025506Y-77359463D01*
X187928815Y-77438815D01*
X187849463Y-77535506D01*
X187790498Y-77645820D01*
X187754188Y-77765518D01*
X187741928Y-77890000D01*
X186255000Y-77890000D01*
X186255000Y-71476890D01*
X187788524Y-71476890D01*
X187833175Y-71624099D01*
X187958359Y-71886920D01*
X188132412Y-72120269D01*
X188348645Y-72315178D01*
X188598748Y-72464157D01*
X188873109Y-72561481D01*
X189103000Y-72440814D01*
X189103000Y-71247000D01*
X189357000Y-71247000D01*
X189357000Y-72440814D01*
X189586891Y-72561481D01*
X189861252Y-72464157D01*
X190111355Y-72315178D01*
X190327588Y-72120269D01*
X190501641Y-71886920D01*
X190626825Y-71624099D01*
X190671476Y-71476890D01*
X190550155Y-71247000D01*
X189357000Y-71247000D01*
X189103000Y-71247000D01*
X187909845Y-71247000D01*
X187788524Y-71476890D01*
X186255000Y-71476890D01*
X186255000Y-58273740D01*
X187745000Y-58273740D01*
X187745000Y-58566260D01*
X187802068Y-58853158D01*
X187914010Y-59123411D01*
X188076525Y-59366632D01*
X188283368Y-59573475D01*
X188457760Y-59690000D01*
X188283368Y-59806525D01*
X188076525Y-60013368D01*
X187914010Y-60256589D01*
X187802068Y-60526842D01*
X187745000Y-60813740D01*
X187745000Y-61106260D01*
X187802068Y-61393158D01*
X187914010Y-61663411D01*
X188076525Y-61906632D01*
X188283368Y-62113475D01*
X188457760Y-62230000D01*
X188283368Y-62346525D01*
X188076525Y-62553368D01*
X187914010Y-62796589D01*
X187802068Y-63066842D01*
X187745000Y-63353740D01*
X187745000Y-63646260D01*
X187802068Y-63933158D01*
X187914010Y-64203411D01*
X188076525Y-64446632D01*
X188283368Y-64653475D01*
X188457760Y-64770000D01*
X188283368Y-64886525D01*
X188076525Y-65093368D01*
X187914010Y-65336589D01*
X187802068Y-65606842D01*
X187745000Y-65893740D01*
X187745000Y-66186260D01*
X187802068Y-66473158D01*
X187914010Y-66743411D01*
X188076525Y-66986632D01*
X188283368Y-67193475D01*
X188457760Y-67310000D01*
X188283368Y-67426525D01*
X188076525Y-67633368D01*
X187914010Y-67876589D01*
X187802068Y-68146842D01*
X187745000Y-68433740D01*
X187745000Y-68726260D01*
X187802068Y-69013158D01*
X187914010Y-69283411D01*
X188076525Y-69526632D01*
X188283368Y-69733475D01*
X188465534Y-69855195D01*
X188348645Y-69924822D01*
X188132412Y-70119731D01*
X187958359Y-70353080D01*
X187833175Y-70615901D01*
X187788524Y-70763110D01*
X187909845Y-70993000D01*
X189103000Y-70993000D01*
X189103000Y-70973000D01*
X189357000Y-70973000D01*
X189357000Y-70993000D01*
X190550155Y-70993000D01*
X190671476Y-70763110D01*
X190626825Y-70615901D01*
X190501641Y-70353080D01*
X190327588Y-70119731D01*
X190111355Y-69924822D01*
X189994466Y-69855195D01*
X190176632Y-69733475D01*
X190383475Y-69526632D01*
X190545990Y-69283411D01*
X190657932Y-69013158D01*
X190715000Y-68726260D01*
X190715000Y-68433740D01*
X190657932Y-68146842D01*
X190545990Y-67876589D01*
X190383475Y-67633368D01*
X190176632Y-67426525D01*
X190002240Y-67310000D01*
X190176632Y-67193475D01*
X190195107Y-67175000D01*
X197154893Y-67175000D01*
X197173368Y-67193475D01*
X197416589Y-67355990D01*
X197686842Y-67467932D01*
X197973740Y-67525000D01*
X198266260Y-67525000D01*
X198553158Y-67467932D01*
X198823411Y-67355990D01*
X199066632Y-67193475D01*
X199273475Y-66986632D01*
X199435990Y-66743411D01*
X199547932Y-66473158D01*
X199605000Y-66186260D01*
X199605000Y-65893740D01*
X199547932Y-65606842D01*
X199435990Y-65336589D01*
X199273475Y-65093368D01*
X199066632Y-64886525D01*
X198892240Y-64770000D01*
X199066632Y-64653475D01*
X199273475Y-64446632D01*
X199435990Y-64203411D01*
X199547932Y-63933158D01*
X199605000Y-63646260D01*
X199605000Y-63353740D01*
X199547932Y-63066842D01*
X199435990Y-62796589D01*
X199273475Y-62553368D01*
X199066632Y-62346525D01*
X198892240Y-62230000D01*
X199066632Y-62113475D01*
X199273475Y-61906632D01*
X199435990Y-61663411D01*
X199547932Y-61393158D01*
X199605000Y-61106260D01*
X199605000Y-60813740D01*
X199547932Y-60526842D01*
X199435990Y-60256589D01*
X199273475Y-60013368D01*
X199141620Y-59881513D01*
X199214180Y-59859502D01*
X199324494Y-59800537D01*
X199421185Y-59721185D01*
X199500537Y-59624494D01*
X199559502Y-59514180D01*
X199595812Y-59394482D01*
X199608072Y-59270000D01*
X199608072Y-57570000D01*
X199595812Y-57445518D01*
X199559502Y-57325820D01*
X199500537Y-57215506D01*
X199421185Y-57118815D01*
X199324494Y-57039463D01*
X199214180Y-56980498D01*
X199094482Y-56944188D01*
X198970000Y-56931928D01*
X197270000Y-56931928D01*
X197145518Y-56944188D01*
X197025820Y-56980498D01*
X196915506Y-57039463D01*
X196818815Y-57118815D01*
X196739463Y-57215506D01*
X196702317Y-57285000D01*
X190195107Y-57285000D01*
X190176632Y-57266525D01*
X189994466Y-57144805D01*
X190111355Y-57075178D01*
X190327588Y-56880269D01*
X190501641Y-56646920D01*
X190626825Y-56384099D01*
X190671476Y-56236890D01*
X190550155Y-56007000D01*
X189357000Y-56007000D01*
X189357000Y-56027000D01*
X189103000Y-56027000D01*
X189103000Y-56007000D01*
X187909845Y-56007000D01*
X187788524Y-56236890D01*
X187833175Y-56384099D01*
X187958359Y-56646920D01*
X188132412Y-56880269D01*
X188348645Y-57075178D01*
X188465534Y-57144805D01*
X188283368Y-57266525D01*
X188076525Y-57473368D01*
X187914010Y-57716589D01*
X187802068Y-57986842D01*
X187745000Y-58273740D01*
X186255000Y-58273740D01*
X186255000Y-53381018D01*
X186259040Y-53340000D01*
X186242918Y-53176312D01*
X186195172Y-53018913D01*
X186117636Y-52873854D01*
X186039439Y-52778570D01*
X186039437Y-52778568D01*
X186013291Y-52746709D01*
X185981432Y-52720563D01*
X185750869Y-52490000D01*
X187741928Y-52490000D01*
X187741928Y-54190000D01*
X187754188Y-54314482D01*
X187790498Y-54434180D01*
X187849463Y-54544494D01*
X187928815Y-54641185D01*
X188025506Y-54720537D01*
X188135820Y-54779502D01*
X188216466Y-54803966D01*
X188132412Y-54879731D01*
X187958359Y-55113080D01*
X187833175Y-55375901D01*
X187788524Y-55523110D01*
X187909845Y-55753000D01*
X189103000Y-55753000D01*
X189103000Y-55733000D01*
X189357000Y-55733000D01*
X189357000Y-55753000D01*
X190550155Y-55753000D01*
X190671476Y-55523110D01*
X190626825Y-55375901D01*
X190501641Y-55113080D01*
X190327588Y-54879731D01*
X190243534Y-54803966D01*
X190324180Y-54779502D01*
X190434494Y-54720537D01*
X190531185Y-54641185D01*
X190610537Y-54544494D01*
X190669502Y-54434180D01*
X190705812Y-54314482D01*
X190718072Y-54190000D01*
X190718072Y-52490000D01*
X190705812Y-52365518D01*
X190669502Y-52245820D01*
X190610537Y-52135506D01*
X190531185Y-52038815D01*
X190434494Y-51959463D01*
X190324180Y-51900498D01*
X190204482Y-51864188D01*
X190080000Y-51851928D01*
X188380000Y-51851928D01*
X188255518Y-51864188D01*
X188135820Y-51900498D01*
X188025506Y-51959463D01*
X187928815Y-52038815D01*
X187849463Y-52135506D01*
X187790498Y-52245820D01*
X187754188Y-52365518D01*
X187741928Y-52490000D01*
X185750869Y-52490000D01*
X185110741Y-51849872D01*
X197155000Y-51849872D01*
X197155000Y-52290128D01*
X197240890Y-52721925D01*
X197409369Y-53128669D01*
X197653962Y-53494729D01*
X197965271Y-53806038D01*
X198331331Y-54050631D01*
X198738075Y-54219110D01*
X199169872Y-54305000D01*
X199610128Y-54305000D01*
X200041925Y-54219110D01*
X200448669Y-54050631D01*
X200814729Y-53806038D01*
X201126038Y-53494729D01*
X201370631Y-53128669D01*
X201539110Y-52721925D01*
X201625000Y-52290128D01*
X201625000Y-51849872D01*
X201539110Y-51418075D01*
X201370631Y-51011331D01*
X201126038Y-50645271D01*
X200814729Y-50333962D01*
X200448669Y-50089369D01*
X200041925Y-49920890D01*
X199610128Y-49835000D01*
X199169872Y-49835000D01*
X198738075Y-49920890D01*
X198331331Y-50089369D01*
X197965271Y-50333962D01*
X197653962Y-50645271D01*
X197409369Y-51011331D01*
X197240890Y-51418075D01*
X197155000Y-51849872D01*
X185110741Y-51849872D01*
X182229446Y-48968579D01*
X182203291Y-48936709D01*
X182182931Y-48920000D01*
X202540000Y-48920000D01*
X202540001Y-121260000D01*
X108610000Y-121260000D01*
X108610000Y-117889872D01*
X109525000Y-117889872D01*
X109525000Y-118330128D01*
X109610890Y-118761925D01*
X109779369Y-119168669D01*
X110023962Y-119534729D01*
X110335271Y-119846038D01*
X110701331Y-120090631D01*
X111108075Y-120259110D01*
X111539872Y-120345000D01*
X111980128Y-120345000D01*
X112411925Y-120259110D01*
X112818669Y-120090631D01*
X113184729Y-119846038D01*
X113496038Y-119534729D01*
X113740631Y-119168669D01*
X113909110Y-118761925D01*
X113967796Y-118466890D01*
X157308524Y-118466890D01*
X157353175Y-118614099D01*
X157478359Y-118876920D01*
X157652412Y-119110269D01*
X157868645Y-119305178D01*
X158118748Y-119454157D01*
X158393109Y-119551481D01*
X158623000Y-119430814D01*
X158623000Y-118237000D01*
X158877000Y-118237000D01*
X158877000Y-119430814D01*
X159106891Y-119551481D01*
X159381252Y-119454157D01*
X159631355Y-119305178D01*
X159847588Y-119110269D01*
X160021641Y-118876920D01*
X160146825Y-118614099D01*
X160191476Y-118466890D01*
X175088524Y-118466890D01*
X175133175Y-118614099D01*
X175258359Y-118876920D01*
X175432412Y-119110269D01*
X175648645Y-119305178D01*
X175898748Y-119454157D01*
X176173109Y-119551481D01*
X176403000Y-119430814D01*
X176403000Y-118237000D01*
X176657000Y-118237000D01*
X176657000Y-119430814D01*
X176886891Y-119551481D01*
X177161252Y-119454157D01*
X177411355Y-119305178D01*
X177627588Y-119110269D01*
X177801641Y-118876920D01*
X177926825Y-118614099D01*
X177971476Y-118466890D01*
X177850155Y-118237000D01*
X176657000Y-118237000D01*
X176403000Y-118237000D01*
X175209845Y-118237000D01*
X175088524Y-118466890D01*
X160191476Y-118466890D01*
X160070155Y-118237000D01*
X158877000Y-118237000D01*
X158623000Y-118237000D01*
X157429845Y-118237000D01*
X157308524Y-118466890D01*
X113967796Y-118466890D01*
X113995000Y-118330128D01*
X113995000Y-117889872D01*
X113909110Y-117458075D01*
X113740631Y-117051331D01*
X113496038Y-116685271D01*
X113184729Y-116373962D01*
X112818669Y-116129369D01*
X112411925Y-115960890D01*
X111980128Y-115875000D01*
X111539872Y-115875000D01*
X111108075Y-115960890D01*
X110701331Y-116129369D01*
X110335271Y-116373962D01*
X110023962Y-116685271D01*
X109779369Y-117051331D01*
X109610890Y-117458075D01*
X109525000Y-117889872D01*
X108610000Y-117889872D01*
X108610000Y-110215131D01*
X114728009Y-116333141D01*
X114763551Y-116376449D01*
X114936377Y-116518284D01*
X115133553Y-116623676D01*
X115347501Y-116688577D01*
X115514248Y-116705000D01*
X115514257Y-116705000D01*
X115569999Y-116710490D01*
X115625741Y-116705000D01*
X157784893Y-116705000D01*
X157803368Y-116723475D01*
X157985534Y-116845195D01*
X157868645Y-116914822D01*
X157652412Y-117109731D01*
X157478359Y-117343080D01*
X157353175Y-117605901D01*
X157308524Y-117753110D01*
X157429845Y-117983000D01*
X158623000Y-117983000D01*
X158623000Y-117963000D01*
X158877000Y-117963000D01*
X158877000Y-117983000D01*
X160070155Y-117983000D01*
X160191476Y-117753110D01*
X160146825Y-117605901D01*
X160021641Y-117343080D01*
X159847588Y-117109731D01*
X159631355Y-116914822D01*
X159514466Y-116845195D01*
X159696632Y-116723475D01*
X159903475Y-116516632D01*
X160065990Y-116273411D01*
X160177932Y-116003158D01*
X160235000Y-115716260D01*
X160235000Y-115423740D01*
X160177932Y-115136842D01*
X160065990Y-114866589D01*
X159903475Y-114623368D01*
X159696632Y-114416525D01*
X159522240Y-114300000D01*
X159696632Y-114183475D01*
X159903475Y-113976632D01*
X160065990Y-113733411D01*
X160177932Y-113463158D01*
X160235000Y-113176260D01*
X160235000Y-112883740D01*
X160177932Y-112596842D01*
X160065990Y-112326589D01*
X159903475Y-112083368D01*
X159771620Y-111951513D01*
X159844180Y-111929502D01*
X159954494Y-111870537D01*
X160051185Y-111791185D01*
X160130537Y-111694494D01*
X160189502Y-111584180D01*
X160225812Y-111464482D01*
X160238072Y-111340000D01*
X160238072Y-109640000D01*
X160225812Y-109515518D01*
X160189502Y-109395820D01*
X160130537Y-109285506D01*
X160051185Y-109188815D01*
X159954494Y-109109463D01*
X159844180Y-109050498D01*
X159724482Y-109014188D01*
X159600000Y-109001928D01*
X157900000Y-109001928D01*
X157775518Y-109014188D01*
X157655820Y-109050498D01*
X157545506Y-109109463D01*
X157448815Y-109188815D01*
X157369463Y-109285506D01*
X157310498Y-109395820D01*
X157274188Y-109515518D01*
X157261928Y-109640000D01*
X157261928Y-111340000D01*
X157274188Y-111464482D01*
X157310498Y-111584180D01*
X157369463Y-111694494D01*
X157448815Y-111791185D01*
X157545506Y-111870537D01*
X157655820Y-111929502D01*
X157728380Y-111951513D01*
X157596525Y-112083368D01*
X157434010Y-112326589D01*
X157322068Y-112596842D01*
X157265000Y-112883740D01*
X157265000Y-113176260D01*
X157322068Y-113463158D01*
X157434010Y-113733411D01*
X157596525Y-113976632D01*
X157803368Y-114183475D01*
X157977760Y-114300000D01*
X157803368Y-114416525D01*
X157784893Y-114435000D01*
X116040132Y-114435000D01*
X109810010Y-108204879D01*
X109810010Y-100306856D01*
X110043996Y-100417571D01*
X110318184Y-100486300D01*
X110600512Y-100500217D01*
X110880130Y-100458787D01*
X111146292Y-100363603D01*
X111271514Y-100296671D01*
X111343097Y-100052702D01*
X110530000Y-99239605D01*
X110515858Y-99253748D01*
X110336253Y-99074143D01*
X110350395Y-99060000D01*
X110709605Y-99060000D01*
X111522702Y-99873097D01*
X111591928Y-99852785D01*
X111591928Y-99860000D01*
X111604188Y-99984482D01*
X111640498Y-100104180D01*
X111699463Y-100214494D01*
X111778815Y-100311185D01*
X111875506Y-100390537D01*
X111985820Y-100449502D01*
X112105518Y-100485812D01*
X112230000Y-100498072D01*
X112862941Y-100498072D01*
X117268009Y-104903141D01*
X117303551Y-104946449D01*
X117476376Y-105088283D01*
X117476377Y-105088284D01*
X117673553Y-105193676D01*
X117887501Y-105258577D01*
X118110000Y-105280491D01*
X118165751Y-105275000D01*
X126944249Y-105275000D01*
X127000000Y-105280491D01*
X127055751Y-105275000D01*
X163774249Y-105275000D01*
X163830000Y-105280491D01*
X163885751Y-105275000D01*
X163885752Y-105275000D01*
X164052499Y-105258577D01*
X164266447Y-105193676D01*
X164463623Y-105088284D01*
X164636449Y-104946449D01*
X164671996Y-104903135D01*
X166080000Y-103495131D01*
X173838013Y-111253146D01*
X173873551Y-111296449D01*
X173916854Y-111331987D01*
X173916856Y-111331989D01*
X174046377Y-111438284D01*
X174243553Y-111543676D01*
X174457501Y-111608577D01*
X174680000Y-111630491D01*
X174735752Y-111625000D01*
X174904130Y-111625000D01*
X174718572Y-111810558D01*
X174686709Y-111836708D01*
X174654032Y-111876525D01*
X174582363Y-111963854D01*
X174504827Y-112108913D01*
X174457081Y-112266311D01*
X174440959Y-112429999D01*
X174445000Y-112471027D01*
X174444999Y-114278980D01*
X174440959Y-114319999D01*
X174444999Y-114361017D01*
X174457081Y-114483687D01*
X174504827Y-114641085D01*
X174582363Y-114786144D01*
X174686708Y-114913290D01*
X174718578Y-114939445D01*
X175071193Y-115292060D01*
X175045000Y-115423740D01*
X175045000Y-115716260D01*
X175102068Y-116003158D01*
X175214010Y-116273411D01*
X175376525Y-116516632D01*
X175583368Y-116723475D01*
X175765534Y-116845195D01*
X175648645Y-116914822D01*
X175432412Y-117109731D01*
X175258359Y-117343080D01*
X175133175Y-117605901D01*
X175088524Y-117753110D01*
X175209845Y-117983000D01*
X176403000Y-117983000D01*
X176403000Y-117963000D01*
X176657000Y-117963000D01*
X176657000Y-117983000D01*
X177850155Y-117983000D01*
X177899301Y-117889872D01*
X197155000Y-117889872D01*
X197155000Y-118330128D01*
X197240890Y-118761925D01*
X197409369Y-119168669D01*
X197653962Y-119534729D01*
X197965271Y-119846038D01*
X198331331Y-120090631D01*
X198738075Y-120259110D01*
X199169872Y-120345000D01*
X199610128Y-120345000D01*
X200041925Y-120259110D01*
X200448669Y-120090631D01*
X200814729Y-119846038D01*
X201126038Y-119534729D01*
X201370631Y-119168669D01*
X201539110Y-118761925D01*
X201625000Y-118330128D01*
X201625000Y-117889872D01*
X201539110Y-117458075D01*
X201370631Y-117051331D01*
X201126038Y-116685271D01*
X200814729Y-116373962D01*
X200448669Y-116129369D01*
X200041925Y-115960890D01*
X199610128Y-115875000D01*
X199169872Y-115875000D01*
X198738075Y-115960890D01*
X198331331Y-116129369D01*
X197965271Y-116373962D01*
X197653962Y-116685271D01*
X197409369Y-117051331D01*
X197240890Y-117458075D01*
X197155000Y-117889872D01*
X177899301Y-117889872D01*
X177971476Y-117753110D01*
X177926825Y-117605901D01*
X177801641Y-117343080D01*
X177627588Y-117109731D01*
X177411355Y-116914822D01*
X177294466Y-116845195D01*
X177476632Y-116723475D01*
X177683475Y-116516632D01*
X177845990Y-116273411D01*
X177957932Y-116003158D01*
X178015000Y-115716260D01*
X178015000Y-115423740D01*
X177957932Y-115136842D01*
X177845990Y-114866589D01*
X177683475Y-114623368D01*
X177476632Y-114416525D01*
X177302240Y-114300000D01*
X177476632Y-114183475D01*
X177683475Y-113976632D01*
X177758065Y-113865000D01*
X179028982Y-113865000D01*
X179070000Y-113869040D01*
X179111018Y-113865000D01*
X179111019Y-113865000D01*
X179233689Y-113852918D01*
X179391087Y-113805172D01*
X179536146Y-113727636D01*
X179663291Y-113623291D01*
X179689446Y-113591421D01*
X183441433Y-109839436D01*
X183473291Y-109813291D01*
X183542725Y-109728686D01*
X183577636Y-109686146D01*
X183655172Y-109541087D01*
X183673260Y-109481459D01*
X183702918Y-109383689D01*
X183715000Y-109261019D01*
X183715000Y-109261018D01*
X183719040Y-109220000D01*
X183715000Y-109178982D01*
X183715000Y-87671007D01*
X183719039Y-87629999D01*
X183715000Y-87588991D01*
X183715000Y-87588981D01*
X183702918Y-87466311D01*
X183655172Y-87308913D01*
X183577636Y-87163854D01*
X183473291Y-87036709D01*
X183441427Y-87010559D01*
X180959446Y-84528579D01*
X180933291Y-84496709D01*
X180806146Y-84392364D01*
X180661087Y-84314828D01*
X180503689Y-84267082D01*
X180381019Y-84255000D01*
X180381018Y-84255000D01*
X180340000Y-84250960D01*
X180298982Y-84255000D01*
X177957169Y-84255000D01*
X177957932Y-84253158D01*
X178015000Y-83966260D01*
X178015000Y-83673740D01*
X177957932Y-83386842D01*
X177845990Y-83116589D01*
X177683475Y-82873368D01*
X177476632Y-82666525D01*
X177302240Y-82550000D01*
X177476632Y-82433475D01*
X177683475Y-82226632D01*
X177845990Y-81983411D01*
X177957932Y-81713158D01*
X178015000Y-81426260D01*
X178015000Y-81133740D01*
X177957932Y-80846842D01*
X177845990Y-80576589D01*
X177683475Y-80333368D01*
X177551620Y-80201513D01*
X177624180Y-80179502D01*
X177734494Y-80120537D01*
X177831185Y-80041185D01*
X177910537Y-79944494D01*
X177969502Y-79834180D01*
X178005812Y-79714482D01*
X178018072Y-79590000D01*
X178018072Y-77890000D01*
X178005812Y-77765518D01*
X177969502Y-77645820D01*
X177910537Y-77535506D01*
X177831185Y-77438815D01*
X177734494Y-77359463D01*
X177624180Y-77300498D01*
X177504482Y-77264188D01*
X177380000Y-77251928D01*
X175680000Y-77251928D01*
X175555518Y-77264188D01*
X175435820Y-77300498D01*
X175325506Y-77359463D01*
X175228815Y-77438815D01*
X175149463Y-77535506D01*
X175090498Y-77645820D01*
X175054188Y-77765518D01*
X175041928Y-77890000D01*
X175041928Y-79590000D01*
X175054188Y-79714482D01*
X175090498Y-79834180D01*
X175149463Y-79944494D01*
X175228815Y-80041185D01*
X175325506Y-80120537D01*
X175435820Y-80179502D01*
X175508380Y-80201513D01*
X175376525Y-80333368D01*
X175214010Y-80576589D01*
X175102068Y-80846842D01*
X175045000Y-81133740D01*
X175045000Y-81426260D01*
X175102068Y-81713158D01*
X175214010Y-81983411D01*
X175376525Y-82226632D01*
X175583368Y-82433475D01*
X175757760Y-82550000D01*
X175583368Y-82666525D01*
X175376525Y-82873368D01*
X175214010Y-83116589D01*
X175102068Y-83386842D01*
X175045000Y-83673740D01*
X175045000Y-83966260D01*
X175102068Y-84253158D01*
X175102831Y-84255000D01*
X172063285Y-84255000D01*
X171940256Y-84172795D01*
X171751898Y-84094774D01*
X171551939Y-84055000D01*
X171348061Y-84055000D01*
X171148102Y-84094774D01*
X170959744Y-84172795D01*
X170790226Y-84286063D01*
X170646063Y-84430226D01*
X170532795Y-84599744D01*
X170454774Y-84788102D01*
X170415000Y-84988061D01*
X170415000Y-85191939D01*
X170454774Y-85391898D01*
X170532795Y-85580256D01*
X170646063Y-85749774D01*
X170790226Y-85893937D01*
X170959744Y-86007205D01*
X171148102Y-86085226D01*
X171348061Y-86125000D01*
X171551939Y-86125000D01*
X171751898Y-86085226D01*
X171940256Y-86007205D01*
X172063285Y-85925000D01*
X175102831Y-85925000D01*
X175102068Y-85926842D01*
X175045000Y-86213740D01*
X175045000Y-86506260D01*
X175102068Y-86793158D01*
X175102831Y-86795000D01*
X172063285Y-86795000D01*
X171940256Y-86712795D01*
X171751898Y-86634774D01*
X171551939Y-86595000D01*
X171348061Y-86595000D01*
X171148102Y-86634774D01*
X170959744Y-86712795D01*
X170790226Y-86826063D01*
X170646063Y-86970226D01*
X170532795Y-87139744D01*
X170454774Y-87328102D01*
X170415000Y-87528061D01*
X170415000Y-87731939D01*
X170454774Y-87931898D01*
X170532795Y-88120256D01*
X170646063Y-88289774D01*
X170790226Y-88433937D01*
X170959744Y-88547205D01*
X171148102Y-88625226D01*
X171348061Y-88665000D01*
X171551939Y-88665000D01*
X171751898Y-88625226D01*
X171940256Y-88547205D01*
X172063285Y-88465000D01*
X175102831Y-88465000D01*
X175102068Y-88466842D01*
X175045000Y-88753740D01*
X175045000Y-88779868D01*
X170045000Y-93779869D01*
X170045000Y-74130131D01*
X170621430Y-73553702D01*
X170610960Y-73660000D01*
X170615000Y-73701019D01*
X170615001Y-76856714D01*
X170532795Y-76979744D01*
X170454774Y-77168102D01*
X170415000Y-77368061D01*
X170415000Y-77571939D01*
X170454774Y-77771898D01*
X170532795Y-77960256D01*
X170646063Y-78129774D01*
X170790226Y-78273937D01*
X170959744Y-78387205D01*
X171148102Y-78465226D01*
X171348061Y-78505000D01*
X171551939Y-78505000D01*
X171751898Y-78465226D01*
X171940256Y-78387205D01*
X172109774Y-78273937D01*
X172253937Y-78129774D01*
X172367205Y-77960256D01*
X172445226Y-77771898D01*
X172485000Y-77571939D01*
X172485000Y-77368061D01*
X172445226Y-77168102D01*
X172367205Y-76979744D01*
X172285000Y-76856715D01*
X172285000Y-74005867D01*
X175045000Y-71245868D01*
X175045000Y-71266260D01*
X175102068Y-71553158D01*
X175214010Y-71823411D01*
X175376525Y-72066632D01*
X175583368Y-72273475D01*
X175826589Y-72435990D01*
X176096842Y-72547932D01*
X176383740Y-72605000D01*
X176676260Y-72605000D01*
X176963158Y-72547932D01*
X177233411Y-72435990D01*
X177476632Y-72273475D01*
X177683475Y-72066632D01*
X177845990Y-71823411D01*
X177957932Y-71553158D01*
X178015000Y-71266260D01*
X178015000Y-70973740D01*
X177957932Y-70686842D01*
X177845990Y-70416589D01*
X177683475Y-70173368D01*
X177476632Y-69966525D01*
X177302240Y-69850000D01*
X177476632Y-69733475D01*
X177683475Y-69526632D01*
X177845990Y-69283411D01*
X177957932Y-69013158D01*
X178015000Y-68726260D01*
X178015000Y-68433740D01*
X177957932Y-68146842D01*
X177845990Y-67876589D01*
X177683475Y-67633368D01*
X177476632Y-67426525D01*
X177302240Y-67310000D01*
X177476632Y-67193475D01*
X177683475Y-66986632D01*
X177845990Y-66743411D01*
X177957932Y-66473158D01*
X178015000Y-66186260D01*
X178015000Y-65893740D01*
X177957932Y-65606842D01*
X177845990Y-65336589D01*
X177683475Y-65093368D01*
X177476632Y-64886525D01*
X177302240Y-64770000D01*
X177476632Y-64653475D01*
X177683475Y-64446632D01*
X177845990Y-64203411D01*
X177957932Y-63933158D01*
X178015000Y-63646260D01*
X178015000Y-63353740D01*
X177957932Y-63066842D01*
X177845990Y-62796589D01*
X177683475Y-62553368D01*
X177476632Y-62346525D01*
X177302240Y-62230000D01*
X177476632Y-62113475D01*
X177683475Y-61906632D01*
X177845990Y-61663411D01*
X177957932Y-61393158D01*
X178015000Y-61106260D01*
X178015000Y-60813740D01*
X177957932Y-60526842D01*
X177845990Y-60256589D01*
X177683475Y-60013368D01*
X177476632Y-59806525D01*
X177302240Y-59690000D01*
X177476632Y-59573475D01*
X177683475Y-59366632D01*
X177845990Y-59123411D01*
X177957932Y-58853158D01*
X178015000Y-58566260D01*
X178015000Y-58273740D01*
X177957932Y-57986842D01*
X177845990Y-57716589D01*
X177683475Y-57473368D01*
X177476632Y-57266525D01*
X177302240Y-57150000D01*
X177476632Y-57033475D01*
X177683475Y-56826632D01*
X177845990Y-56583411D01*
X177957932Y-56313158D01*
X178015000Y-56026260D01*
X178015000Y-55733740D01*
X177957932Y-55446842D01*
X177845990Y-55176589D01*
X177683475Y-54933368D01*
X177551620Y-54801513D01*
X177624180Y-54779502D01*
X177734494Y-54720537D01*
X177831185Y-54641185D01*
X177910537Y-54544494D01*
X177969502Y-54434180D01*
X178005812Y-54314482D01*
X178018072Y-54190000D01*
X178018072Y-52490000D01*
X178005812Y-52365518D01*
X177969502Y-52245820D01*
X177910537Y-52135506D01*
X177831185Y-52038815D01*
X177734494Y-51959463D01*
X177624180Y-51900498D01*
X177504482Y-51864188D01*
X177380000Y-51851928D01*
X175680000Y-51851928D01*
X175555518Y-51864188D01*
X175435820Y-51900498D01*
X175325506Y-51959463D01*
X175228815Y-52038815D01*
X175149463Y-52135506D01*
X175090498Y-52245820D01*
X175054188Y-52365518D01*
X175041928Y-52490000D01*
X175041928Y-54190000D01*
X175054188Y-54314482D01*
X175090498Y-54434180D01*
X175149463Y-54544494D01*
X175228815Y-54641185D01*
X175325506Y-54720537D01*
X175435820Y-54779502D01*
X175508380Y-54801513D01*
X175376525Y-54933368D01*
X175301935Y-55045000D01*
X170221018Y-55045000D01*
X170179999Y-55040960D01*
X170138981Y-55045000D01*
X170016311Y-55057082D01*
X169858913Y-55104828D01*
X169713854Y-55182364D01*
X169586709Y-55286709D01*
X169560559Y-55318573D01*
X160235000Y-64644133D01*
X160235000Y-64623740D01*
X160177932Y-64336842D01*
X160065990Y-64066589D01*
X159903475Y-63823368D01*
X159696632Y-63616525D01*
X159522240Y-63500000D01*
X159696632Y-63383475D01*
X159903475Y-63176632D01*
X160065990Y-62933411D01*
X160177932Y-62663158D01*
X160235000Y-62376260D01*
X160235000Y-62083740D01*
X160177932Y-61796842D01*
X160065990Y-61526589D01*
X159903475Y-61283368D01*
X159696632Y-61076525D01*
X159522240Y-60960000D01*
X159696632Y-60843475D01*
X159903475Y-60636632D01*
X160065990Y-60393411D01*
X160177932Y-60123158D01*
X160235000Y-59836260D01*
X160235000Y-59543740D01*
X160177932Y-59256842D01*
X160065990Y-58986589D01*
X159903475Y-58743368D01*
X159696632Y-58536525D01*
X159522240Y-58420000D01*
X159696632Y-58303475D01*
X159903475Y-58096632D01*
X160065990Y-57853411D01*
X160177932Y-57583158D01*
X160235000Y-57296260D01*
X160235000Y-57003740D01*
X160177932Y-56716842D01*
X160065990Y-56446589D01*
X159903475Y-56203368D01*
X159696632Y-55996525D01*
X159522240Y-55880000D01*
X159696632Y-55763475D01*
X159903475Y-55556632D01*
X160065990Y-55313411D01*
X160177932Y-55043158D01*
X160235000Y-54756260D01*
X160235000Y-54463740D01*
X160177932Y-54176842D01*
X160065990Y-53906589D01*
X159903475Y-53663368D01*
X159696632Y-53456525D01*
X159522240Y-53340000D01*
X159696632Y-53223475D01*
X159903475Y-53016632D01*
X160065990Y-52773411D01*
X160177932Y-52503158D01*
X160235000Y-52216260D01*
X160235000Y-51923740D01*
X160177932Y-51636842D01*
X160065990Y-51366589D01*
X159903475Y-51123368D01*
X159696632Y-50916525D01*
X159453411Y-50754010D01*
X159183158Y-50642068D01*
X158896260Y-50585000D01*
X158603740Y-50585000D01*
X158316842Y-50642068D01*
X158046589Y-50754010D01*
X157803368Y-50916525D01*
X157596525Y-51123368D01*
X157434010Y-51366589D01*
X157322068Y-51636842D01*
X157265000Y-51923740D01*
X157265000Y-52216260D01*
X157322068Y-52503158D01*
X157434010Y-52773411D01*
X157596525Y-53016632D01*
X157803368Y-53223475D01*
X157977760Y-53340000D01*
X157803368Y-53456525D01*
X157596525Y-53663368D01*
X157434010Y-53906589D01*
X157322068Y-54176842D01*
X157265000Y-54463740D01*
X157265000Y-54756260D01*
X157322068Y-55043158D01*
X157434010Y-55313411D01*
X157596525Y-55556632D01*
X157803368Y-55763475D01*
X157977760Y-55880000D01*
X157803368Y-55996525D01*
X157596525Y-56203368D01*
X157434010Y-56446589D01*
X157322068Y-56716842D01*
X157265000Y-57003740D01*
X157265000Y-57296260D01*
X157322068Y-57583158D01*
X157434010Y-57853411D01*
X157596525Y-58096632D01*
X157803368Y-58303475D01*
X157977760Y-58420000D01*
X157803368Y-58536525D01*
X157596525Y-58743368D01*
X157434010Y-58986589D01*
X157322068Y-59256842D01*
X157265000Y-59543740D01*
X157265000Y-59836260D01*
X157322068Y-60123158D01*
X157434010Y-60393411D01*
X157596525Y-60636632D01*
X157803368Y-60843475D01*
X157977760Y-60960000D01*
X157803368Y-61076525D01*
X157596525Y-61283368D01*
X157434010Y-61526589D01*
X157322068Y-61796842D01*
X157265000Y-62083740D01*
X157265000Y-62376260D01*
X157322068Y-62663158D01*
X157434010Y-62933411D01*
X157596525Y-63176632D01*
X157803368Y-63383475D01*
X157977760Y-63500000D01*
X157803368Y-63616525D01*
X157596525Y-63823368D01*
X157434010Y-64066589D01*
X157322068Y-64336842D01*
X157265000Y-64623740D01*
X157265000Y-64916260D01*
X157322068Y-65203158D01*
X157434010Y-65473411D01*
X157596525Y-65716632D01*
X157803368Y-65923475D01*
X157977760Y-66040000D01*
X157803368Y-66156525D01*
X157596525Y-66363368D01*
X157434010Y-66606589D01*
X157322068Y-66876842D01*
X157265000Y-67163740D01*
X157265000Y-67456260D01*
X157322068Y-67743158D01*
X157434010Y-68013411D01*
X157596525Y-68256632D01*
X157803368Y-68463475D01*
X157977760Y-68580000D01*
X157803368Y-68696525D01*
X157596525Y-68903368D01*
X157434010Y-69146589D01*
X157322068Y-69416842D01*
X157265000Y-69703740D01*
X157265000Y-69996260D01*
X157322068Y-70283158D01*
X157434010Y-70553411D01*
X157596525Y-70796632D01*
X157803368Y-71003475D01*
X157977760Y-71120000D01*
X157803368Y-71236525D01*
X157596525Y-71443368D01*
X157434010Y-71686589D01*
X157322068Y-71956842D01*
X157265000Y-72243740D01*
X157265000Y-72536260D01*
X157322068Y-72823158D01*
X157434010Y-73093411D01*
X157596525Y-73336632D01*
X157803368Y-73543475D01*
X157977760Y-73660000D01*
X157803368Y-73776525D01*
X157596525Y-73983368D01*
X157434010Y-74226589D01*
X157322068Y-74496842D01*
X157265000Y-74783740D01*
X157265000Y-75076260D01*
X157322068Y-75363158D01*
X157434010Y-75633411D01*
X157596525Y-75876632D01*
X157803368Y-76083475D01*
X157977760Y-76200000D01*
X157803368Y-76316525D01*
X157596525Y-76523368D01*
X157434010Y-76766589D01*
X157322068Y-77036842D01*
X157265000Y-77323740D01*
X157265000Y-77616260D01*
X157322068Y-77903158D01*
X157434010Y-78173411D01*
X157596525Y-78416632D01*
X157803368Y-78623475D01*
X157977760Y-78740000D01*
X157803368Y-78856525D01*
X157596525Y-79063368D01*
X157434010Y-79306589D01*
X157322068Y-79576842D01*
X157265000Y-79863740D01*
X157265000Y-80156260D01*
X157322068Y-80443158D01*
X157434010Y-80713411D01*
X157596525Y-80956632D01*
X157803368Y-81163475D01*
X157985534Y-81285195D01*
X157868645Y-81354822D01*
X157652412Y-81549731D01*
X157478359Y-81783080D01*
X157353175Y-82045901D01*
X157308524Y-82193110D01*
X157429845Y-82423000D01*
X158623000Y-82423000D01*
X158623000Y-82403000D01*
X158877000Y-82403000D01*
X158877000Y-82423000D01*
X160070155Y-82423000D01*
X160191476Y-82193110D01*
X160146825Y-82045901D01*
X160021641Y-81783080D01*
X159847588Y-81549731D01*
X159631355Y-81354822D01*
X159514466Y-81285195D01*
X159696632Y-81163475D01*
X159903475Y-80956632D01*
X160065990Y-80713411D01*
X160177932Y-80443158D01*
X160235000Y-80156260D01*
X160235000Y-79863740D01*
X160208807Y-79732060D01*
X163121432Y-76819437D01*
X163153291Y-76793291D01*
X163202318Y-76733552D01*
X163257636Y-76666146D01*
X163335172Y-76521087D01*
X163367353Y-76415000D01*
X163382918Y-76363689D01*
X163395000Y-76241019D01*
X163395000Y-76241018D01*
X163399040Y-76200000D01*
X163395000Y-76158982D01*
X163395000Y-75275867D01*
X167799286Y-70871581D01*
X167791423Y-70897502D01*
X167769509Y-71120000D01*
X167775001Y-71175761D01*
X167775000Y-73604248D01*
X167769509Y-73660000D01*
X167775000Y-73715751D01*
X167775001Y-73715761D01*
X167775000Y-96464248D01*
X167769509Y-96520000D01*
X167775000Y-96575751D01*
X167775001Y-96575761D01*
X167775000Y-98589868D01*
X165606860Y-100758009D01*
X165563552Y-100793551D01*
X165528014Y-100836854D01*
X163359869Y-103005000D01*
X129740131Y-103005000D01*
X133467060Y-99278072D01*
X134200000Y-99278072D01*
X134324482Y-99265812D01*
X134444180Y-99229502D01*
X134554494Y-99170537D01*
X134651185Y-99091185D01*
X134730537Y-98994494D01*
X134789502Y-98884180D01*
X134825812Y-98764482D01*
X134838072Y-98640000D01*
X157261928Y-98640000D01*
X157274188Y-98764482D01*
X157310498Y-98884180D01*
X157369463Y-98994494D01*
X157448815Y-99091185D01*
X157545506Y-99170537D01*
X157655820Y-99229502D01*
X157775518Y-99265812D01*
X157900000Y-99278072D01*
X158464250Y-99275000D01*
X158623000Y-99116250D01*
X158623000Y-97917000D01*
X158877000Y-97917000D01*
X158877000Y-99116250D01*
X159035750Y-99275000D01*
X159600000Y-99278072D01*
X159724482Y-99265812D01*
X159844180Y-99229502D01*
X159954494Y-99170537D01*
X160051185Y-99091185D01*
X160130537Y-98994494D01*
X160189502Y-98884180D01*
X160225812Y-98764482D01*
X160238072Y-98640000D01*
X160235000Y-98075750D01*
X160076250Y-97917000D01*
X158877000Y-97917000D01*
X158623000Y-97917000D01*
X157423750Y-97917000D01*
X157265000Y-98075750D01*
X157261928Y-98640000D01*
X134838072Y-98640000D01*
X134838072Y-96940000D01*
X157261928Y-96940000D01*
X157265000Y-97504250D01*
X157423750Y-97663000D01*
X158623000Y-97663000D01*
X158623000Y-97643000D01*
X158877000Y-97643000D01*
X158877000Y-97663000D01*
X160076250Y-97663000D01*
X160235000Y-97504250D01*
X160238072Y-96940000D01*
X160225812Y-96815518D01*
X160189502Y-96695820D01*
X160130537Y-96585506D01*
X160051185Y-96488815D01*
X159954494Y-96409463D01*
X159844180Y-96350498D01*
X159771620Y-96328487D01*
X159903475Y-96196632D01*
X160065990Y-95953411D01*
X160177932Y-95683158D01*
X160235000Y-95396260D01*
X160235000Y-95103740D01*
X160208807Y-94972060D01*
X161635868Y-93545000D01*
X165058982Y-93545000D01*
X165100000Y-93549040D01*
X165263689Y-93532918D01*
X165421087Y-93485172D01*
X165566146Y-93407636D01*
X165693291Y-93303291D01*
X165797636Y-93176146D01*
X165875172Y-93031087D01*
X165922918Y-92873689D01*
X165935000Y-92751019D01*
X165939040Y-92710000D01*
X165935000Y-92668981D01*
X165935000Y-79353285D01*
X166017205Y-79230256D01*
X166095226Y-79041898D01*
X166135000Y-78841939D01*
X166135000Y-78638061D01*
X166095226Y-78438102D01*
X166017205Y-78249744D01*
X165903937Y-78080226D01*
X165759774Y-77936063D01*
X165590256Y-77822795D01*
X165401898Y-77744774D01*
X165201939Y-77705000D01*
X164998061Y-77705000D01*
X164798102Y-77744774D01*
X164609744Y-77822795D01*
X164440226Y-77936063D01*
X164296063Y-78080226D01*
X164182795Y-78249744D01*
X164104774Y-78438102D01*
X164065000Y-78638061D01*
X164065000Y-78841939D01*
X164104774Y-79041898D01*
X164182795Y-79230256D01*
X164265000Y-79353285D01*
X164265001Y-91875000D01*
X161331007Y-91875000D01*
X161289999Y-91870961D01*
X161248991Y-91875000D01*
X161248981Y-91875000D01*
X161126311Y-91887082D01*
X160968913Y-91934828D01*
X160823854Y-92012364D01*
X160696709Y-92116709D01*
X160670559Y-92148573D01*
X160235000Y-92584132D01*
X160235000Y-92563740D01*
X160177932Y-92276842D01*
X160065990Y-92006589D01*
X159903475Y-91763368D01*
X159696632Y-91556525D01*
X159522240Y-91440000D01*
X159696632Y-91323475D01*
X159903475Y-91116632D01*
X160065990Y-90873411D01*
X160177932Y-90603158D01*
X160235000Y-90316260D01*
X160235000Y-90023740D01*
X160177932Y-89736842D01*
X160065990Y-89466589D01*
X159903475Y-89223368D01*
X159696632Y-89016525D01*
X159522240Y-88900000D01*
X159696632Y-88783475D01*
X159903475Y-88576632D01*
X160065990Y-88333411D01*
X160177932Y-88063158D01*
X160235000Y-87776260D01*
X160235000Y-87755868D01*
X161725001Y-89245870D01*
X161725000Y-89556714D01*
X161642795Y-89679744D01*
X161564774Y-89868102D01*
X161525000Y-90068061D01*
X161525000Y-90271939D01*
X161564774Y-90471898D01*
X161642795Y-90660256D01*
X161756063Y-90829774D01*
X161900226Y-90973937D01*
X162069744Y-91087205D01*
X162258102Y-91165226D01*
X162458061Y-91205000D01*
X162661939Y-91205000D01*
X162861898Y-91165226D01*
X163050256Y-91087205D01*
X163219774Y-90973937D01*
X163363937Y-90829774D01*
X163477205Y-90660256D01*
X163555226Y-90471898D01*
X163595000Y-90271939D01*
X163595000Y-90068061D01*
X163555226Y-89868102D01*
X163477205Y-89679744D01*
X163395000Y-89556715D01*
X163395000Y-88941018D01*
X163399040Y-88900000D01*
X163387563Y-88783475D01*
X163382918Y-88736311D01*
X163335172Y-88578913D01*
X163257636Y-88433854D01*
X163153291Y-88306709D01*
X163121432Y-88280563D01*
X160208807Y-85367940D01*
X160235000Y-85236260D01*
X160235000Y-84943740D01*
X160177932Y-84656842D01*
X160065990Y-84386589D01*
X159903475Y-84143368D01*
X159696632Y-83936525D01*
X159514466Y-83814805D01*
X159631355Y-83745178D01*
X159847588Y-83550269D01*
X160021641Y-83316920D01*
X160146825Y-83054099D01*
X160191476Y-82906890D01*
X160070155Y-82677000D01*
X158877000Y-82677000D01*
X158877000Y-82697000D01*
X158623000Y-82697000D01*
X158623000Y-82677000D01*
X157429845Y-82677000D01*
X157308524Y-82906890D01*
X157353175Y-83054099D01*
X157478359Y-83316920D01*
X157652412Y-83550269D01*
X157868645Y-83745178D01*
X157985534Y-83814805D01*
X157803368Y-83936525D01*
X157596525Y-84143368D01*
X157434010Y-84386589D01*
X157322068Y-84656842D01*
X157265000Y-84943740D01*
X157265000Y-85236260D01*
X157322068Y-85523158D01*
X157434010Y-85793411D01*
X157596525Y-86036632D01*
X157803368Y-86243475D01*
X157977760Y-86360000D01*
X157803368Y-86476525D01*
X157596525Y-86683368D01*
X157434010Y-86926589D01*
X157322068Y-87196842D01*
X157265000Y-87483740D01*
X157265000Y-87776260D01*
X157322068Y-88063158D01*
X157434010Y-88333411D01*
X157596525Y-88576632D01*
X157803368Y-88783475D01*
X157977760Y-88900000D01*
X157803368Y-89016525D01*
X157596525Y-89223368D01*
X157434010Y-89466589D01*
X157322068Y-89736842D01*
X157265000Y-90023740D01*
X157265000Y-90316260D01*
X157322068Y-90603158D01*
X157434010Y-90873411D01*
X157596525Y-91116632D01*
X157803368Y-91323475D01*
X157977760Y-91440000D01*
X157803368Y-91556525D01*
X157596525Y-91763368D01*
X157434010Y-92006589D01*
X157322068Y-92276842D01*
X157265000Y-92563740D01*
X157265000Y-92856260D01*
X157322068Y-93143158D01*
X157434010Y-93413411D01*
X157596525Y-93656632D01*
X157803368Y-93863475D01*
X157977760Y-93980000D01*
X157803368Y-94096525D01*
X157596525Y-94303368D01*
X157434010Y-94546589D01*
X157322068Y-94816842D01*
X157265000Y-95103740D01*
X157265000Y-95396260D01*
X157322068Y-95683158D01*
X157434010Y-95953411D01*
X157596525Y-96196632D01*
X157728380Y-96328487D01*
X157655820Y-96350498D01*
X157545506Y-96409463D01*
X157448815Y-96488815D01*
X157369463Y-96585506D01*
X157310498Y-96695820D01*
X157274188Y-96815518D01*
X157261928Y-96940000D01*
X134838072Y-96940000D01*
X134825812Y-96815518D01*
X134789502Y-96695820D01*
X134730537Y-96585506D01*
X134651185Y-96488815D01*
X134554494Y-96409463D01*
X134444180Y-96350498D01*
X134371620Y-96328487D01*
X134503475Y-96196632D01*
X134665990Y-95953411D01*
X134777932Y-95683158D01*
X134835000Y-95396260D01*
X134835000Y-95103740D01*
X134777932Y-94816842D01*
X134665990Y-94546589D01*
X134503475Y-94303368D01*
X134296632Y-94096525D01*
X134122240Y-93980000D01*
X134296632Y-93863475D01*
X134503475Y-93656632D01*
X134665990Y-93413411D01*
X134777932Y-93143158D01*
X134835000Y-92856260D01*
X134835000Y-92563740D01*
X134777932Y-92276842D01*
X134665990Y-92006589D01*
X134503475Y-91763368D01*
X134296632Y-91556525D01*
X134122240Y-91440000D01*
X134296632Y-91323475D01*
X134503475Y-91116632D01*
X134665990Y-90873411D01*
X134777932Y-90603158D01*
X134835000Y-90316260D01*
X134835000Y-90023740D01*
X134777932Y-89736842D01*
X134665990Y-89466589D01*
X134503475Y-89223368D01*
X134296632Y-89016525D01*
X134122240Y-88900000D01*
X134296632Y-88783475D01*
X134503475Y-88576632D01*
X134665990Y-88333411D01*
X134777932Y-88063158D01*
X134835000Y-87776260D01*
X134835000Y-87483740D01*
X134777932Y-87196842D01*
X134665990Y-86926589D01*
X134503475Y-86683368D01*
X134296632Y-86476525D01*
X134122240Y-86360000D01*
X134296632Y-86243475D01*
X134503475Y-86036632D01*
X134665990Y-85793411D01*
X134777932Y-85523158D01*
X134835000Y-85236260D01*
X134835000Y-84943740D01*
X134777932Y-84656842D01*
X134665990Y-84386589D01*
X134503475Y-84143368D01*
X134296632Y-83936525D01*
X134122240Y-83820000D01*
X134296632Y-83703475D01*
X134503475Y-83496632D01*
X134665990Y-83253411D01*
X134777932Y-82983158D01*
X134835000Y-82696260D01*
X134835000Y-82403740D01*
X134777932Y-82116842D01*
X134665990Y-81846589D01*
X134503475Y-81603368D01*
X134296632Y-81396525D01*
X134122240Y-81280000D01*
X134296632Y-81163475D01*
X134503475Y-80956632D01*
X134665990Y-80713411D01*
X134777932Y-80443158D01*
X134835000Y-80156260D01*
X134835000Y-79863740D01*
X134777932Y-79576842D01*
X134665990Y-79306589D01*
X134503475Y-79063368D01*
X134296632Y-78856525D01*
X134122240Y-78740000D01*
X134296632Y-78623475D01*
X134503475Y-78416632D01*
X134665990Y-78173411D01*
X134777932Y-77903158D01*
X134835000Y-77616260D01*
X134835000Y-77323740D01*
X134777932Y-77036842D01*
X134665990Y-76766589D01*
X134503475Y-76523368D01*
X134296632Y-76316525D01*
X134122240Y-76200000D01*
X134296632Y-76083475D01*
X134503475Y-75876632D01*
X134665990Y-75633411D01*
X134777932Y-75363158D01*
X134835000Y-75076260D01*
X134835000Y-74783740D01*
X134777932Y-74496842D01*
X134665990Y-74226589D01*
X134503475Y-73983368D01*
X134296632Y-73776525D01*
X134122240Y-73660000D01*
X134296632Y-73543475D01*
X134503475Y-73336632D01*
X134665990Y-73093411D01*
X134777932Y-72823158D01*
X134835000Y-72536260D01*
X134835000Y-72243740D01*
X134777932Y-71956842D01*
X134665990Y-71686589D01*
X134503475Y-71443368D01*
X134296632Y-71236525D01*
X134122240Y-71120000D01*
X134296632Y-71003475D01*
X134503475Y-70796632D01*
X134665990Y-70553411D01*
X134777932Y-70283158D01*
X134835000Y-69996260D01*
X134835000Y-69703740D01*
X134777932Y-69416842D01*
X134665990Y-69146589D01*
X134503475Y-68903368D01*
X134296632Y-68696525D01*
X134122240Y-68580000D01*
X134296632Y-68463475D01*
X134503475Y-68256632D01*
X134665990Y-68013411D01*
X134777932Y-67743158D01*
X134835000Y-67456260D01*
X134835000Y-67163740D01*
X134777932Y-66876842D01*
X134665990Y-66606589D01*
X134503475Y-66363368D01*
X134296632Y-66156525D01*
X134114466Y-66034805D01*
X134231355Y-65965178D01*
X134447588Y-65770269D01*
X134621641Y-65536920D01*
X134746825Y-65274099D01*
X134791476Y-65126890D01*
X134670155Y-64897000D01*
X133477000Y-64897000D01*
X133477000Y-64917000D01*
X133223000Y-64917000D01*
X133223000Y-64897000D01*
X132029845Y-64897000D01*
X131908524Y-65126890D01*
X131953175Y-65274099D01*
X132078359Y-65536920D01*
X132252412Y-65770269D01*
X132468645Y-65965178D01*
X132585534Y-66034805D01*
X132403368Y-66156525D01*
X132196525Y-66363368D01*
X132034010Y-66606589D01*
X131922068Y-66876842D01*
X131865000Y-67163740D01*
X131865000Y-67456260D01*
X131922068Y-67743158D01*
X132034010Y-68013411D01*
X132196525Y-68256632D01*
X132403368Y-68463475D01*
X132577760Y-68580000D01*
X132403368Y-68696525D01*
X132196525Y-68903368D01*
X132034010Y-69146589D01*
X131922068Y-69416842D01*
X131865000Y-69703740D01*
X131865000Y-69996260D01*
X131922068Y-70283158D01*
X132034010Y-70553411D01*
X132196525Y-70796632D01*
X132403368Y-71003475D01*
X132577760Y-71120000D01*
X132403368Y-71236525D01*
X132196525Y-71443368D01*
X132034010Y-71686589D01*
X131922068Y-71956842D01*
X131865000Y-72243740D01*
X131865000Y-72536260D01*
X131922068Y-72823158D01*
X132034010Y-73093411D01*
X132196525Y-73336632D01*
X132403368Y-73543475D01*
X132577760Y-73660000D01*
X132403368Y-73776525D01*
X132196525Y-73983368D01*
X132034010Y-74226589D01*
X131922068Y-74496842D01*
X131865000Y-74783740D01*
X131865000Y-75076260D01*
X131922068Y-75363158D01*
X132034010Y-75633411D01*
X132196525Y-75876632D01*
X132403368Y-76083475D01*
X132577760Y-76200000D01*
X132403368Y-76316525D01*
X132196525Y-76523368D01*
X132034010Y-76766589D01*
X131922068Y-77036842D01*
X131865000Y-77323740D01*
X131865000Y-77616260D01*
X131922068Y-77903158D01*
X132034010Y-78173411D01*
X132196525Y-78416632D01*
X132403368Y-78623475D01*
X132577760Y-78740000D01*
X132403368Y-78856525D01*
X132196525Y-79063368D01*
X132034010Y-79306589D01*
X131922068Y-79576842D01*
X131865000Y-79863740D01*
X131865000Y-80156260D01*
X131922068Y-80443158D01*
X132034010Y-80713411D01*
X132196525Y-80956632D01*
X132403368Y-81163475D01*
X132577760Y-81280000D01*
X132403368Y-81396525D01*
X132196525Y-81603368D01*
X132034010Y-81846589D01*
X131922068Y-82116842D01*
X131865000Y-82403740D01*
X131865000Y-82696260D01*
X131922068Y-82983158D01*
X132034010Y-83253411D01*
X132196525Y-83496632D01*
X132403368Y-83703475D01*
X132577760Y-83820000D01*
X132403368Y-83936525D01*
X132196525Y-84143368D01*
X132034010Y-84386589D01*
X131922068Y-84656842D01*
X131865000Y-84943740D01*
X131865000Y-85236260D01*
X131922068Y-85523158D01*
X132034010Y-85793411D01*
X132196525Y-86036632D01*
X132403368Y-86243475D01*
X132577760Y-86360000D01*
X132403368Y-86476525D01*
X132196525Y-86683368D01*
X132034010Y-86926589D01*
X131922068Y-87196842D01*
X131865000Y-87483740D01*
X131865000Y-87776260D01*
X131922068Y-88063158D01*
X132034010Y-88333411D01*
X132196525Y-88576632D01*
X132403368Y-88783475D01*
X132577760Y-88900000D01*
X132403368Y-89016525D01*
X132196525Y-89223368D01*
X132034010Y-89466589D01*
X131922068Y-89736842D01*
X131865000Y-90023740D01*
X131865000Y-90316260D01*
X131922068Y-90603158D01*
X132034010Y-90873411D01*
X132196525Y-91116632D01*
X132403368Y-91323475D01*
X132577760Y-91440000D01*
X132403368Y-91556525D01*
X132196525Y-91763368D01*
X132034010Y-92006589D01*
X131922068Y-92276842D01*
X131865000Y-92563740D01*
X131865000Y-92856260D01*
X131922068Y-93143158D01*
X132034010Y-93413411D01*
X132196525Y-93656632D01*
X132403368Y-93863475D01*
X132577760Y-93980000D01*
X132403368Y-94096525D01*
X132196525Y-94303368D01*
X132034010Y-94546589D01*
X131922068Y-94816842D01*
X131865000Y-95103740D01*
X131865000Y-95396260D01*
X131922068Y-95683158D01*
X132034010Y-95953411D01*
X132196525Y-96196632D01*
X132328380Y-96328487D01*
X132255820Y-96350498D01*
X132145506Y-96409463D01*
X132048815Y-96488815D01*
X131969463Y-96585506D01*
X131910498Y-96695820D01*
X131874188Y-96815518D01*
X131861928Y-96940000D01*
X131861928Y-97672940D01*
X126529869Y-103005000D01*
X118580132Y-103005000D01*
X114468072Y-98892941D01*
X114468072Y-98260000D01*
X114455812Y-98135518D01*
X114419502Y-98015820D01*
X114360537Y-97905506D01*
X114281185Y-97808815D01*
X114184494Y-97729463D01*
X114074180Y-97670498D01*
X113954482Y-97634188D01*
X113830000Y-97621928D01*
X112230000Y-97621928D01*
X112105518Y-97634188D01*
X111985820Y-97670498D01*
X111875506Y-97729463D01*
X111778815Y-97808815D01*
X111699463Y-97905506D01*
X111640498Y-98015820D01*
X111604188Y-98135518D01*
X111591928Y-98260000D01*
X111591928Y-98267215D01*
X111522702Y-98246903D01*
X110709605Y-99060000D01*
X110350395Y-99060000D01*
X110336253Y-99045858D01*
X110515858Y-98866253D01*
X110530000Y-98880395D01*
X111343097Y-98067298D01*
X111271514Y-97823329D01*
X111016004Y-97702429D01*
X110933406Y-97681725D01*
X115147132Y-93468000D01*
X117275001Y-95595870D01*
X117275000Y-97625375D01*
X117185518Y-97634188D01*
X117065820Y-97670498D01*
X116955506Y-97729463D01*
X116858815Y-97808815D01*
X116779463Y-97905506D01*
X116720498Y-98015820D01*
X116684188Y-98135518D01*
X116671928Y-98260000D01*
X116671928Y-99860000D01*
X116684188Y-99984482D01*
X116720498Y-100104180D01*
X116779463Y-100214494D01*
X116858815Y-100311185D01*
X116955506Y-100390537D01*
X117065820Y-100449502D01*
X117185518Y-100485812D01*
X117310000Y-100498072D01*
X118910000Y-100498072D01*
X119034482Y-100485812D01*
X119154180Y-100449502D01*
X119264494Y-100390537D01*
X119361185Y-100311185D01*
X119440537Y-100214494D01*
X119499502Y-100104180D01*
X119515117Y-100052702D01*
X119796903Y-100052702D01*
X119868486Y-100296671D01*
X120123996Y-100417571D01*
X120398184Y-100486300D01*
X120680512Y-100500217D01*
X120960130Y-100458787D01*
X121226292Y-100363603D01*
X121351514Y-100296671D01*
X121423097Y-100052702D01*
X120610000Y-99239605D01*
X119796903Y-100052702D01*
X119515117Y-100052702D01*
X119535812Y-99984482D01*
X119548072Y-99860000D01*
X119548072Y-99852785D01*
X119617298Y-99873097D01*
X120430395Y-99060000D01*
X120789605Y-99060000D01*
X121602702Y-99873097D01*
X121846671Y-99801514D01*
X121967571Y-99546004D01*
X122036300Y-99271816D01*
X122050217Y-98989488D01*
X122008787Y-98709870D01*
X121913603Y-98443708D01*
X121846671Y-98318486D01*
X121647340Y-98260000D01*
X124291928Y-98260000D01*
X124291928Y-99860000D01*
X124304188Y-99984482D01*
X124340498Y-100104180D01*
X124399463Y-100214494D01*
X124478815Y-100311185D01*
X124575506Y-100390537D01*
X124685820Y-100449502D01*
X124805518Y-100485812D01*
X124930000Y-100498072D01*
X126530000Y-100498072D01*
X126654482Y-100485812D01*
X126774180Y-100449502D01*
X126884494Y-100390537D01*
X126981185Y-100311185D01*
X127060537Y-100214494D01*
X127119502Y-100104180D01*
X127135117Y-100052702D01*
X127416903Y-100052702D01*
X127488486Y-100296671D01*
X127743996Y-100417571D01*
X128018184Y-100486300D01*
X128300512Y-100500217D01*
X128580130Y-100458787D01*
X128846292Y-100363603D01*
X128971514Y-100296671D01*
X129043097Y-100052702D01*
X128230000Y-99239605D01*
X127416903Y-100052702D01*
X127135117Y-100052702D01*
X127155812Y-99984482D01*
X127168072Y-99860000D01*
X127168072Y-99852785D01*
X127237298Y-99873097D01*
X128050395Y-99060000D01*
X128409605Y-99060000D01*
X129222702Y-99873097D01*
X129466671Y-99801514D01*
X129587571Y-99546004D01*
X129656300Y-99271816D01*
X129670217Y-98989488D01*
X129628787Y-98709870D01*
X129533603Y-98443708D01*
X129466671Y-98318486D01*
X129222702Y-98246903D01*
X128409605Y-99060000D01*
X128050395Y-99060000D01*
X127237298Y-98246903D01*
X127168072Y-98267215D01*
X127168072Y-98260000D01*
X127155812Y-98135518D01*
X127135118Y-98067298D01*
X127416903Y-98067298D01*
X128230000Y-98880395D01*
X129043097Y-98067298D01*
X128971514Y-97823329D01*
X128716004Y-97702429D01*
X128441816Y-97633700D01*
X128159488Y-97619783D01*
X127879870Y-97661213D01*
X127613708Y-97756397D01*
X127488486Y-97823329D01*
X127416903Y-98067298D01*
X127135118Y-98067298D01*
X127119502Y-98015820D01*
X127060537Y-97905506D01*
X126981185Y-97808815D01*
X126884494Y-97729463D01*
X126774180Y-97670498D01*
X126654482Y-97634188D01*
X126530000Y-97621928D01*
X124930000Y-97621928D01*
X124805518Y-97634188D01*
X124685820Y-97670498D01*
X124575506Y-97729463D01*
X124478815Y-97808815D01*
X124399463Y-97905506D01*
X124340498Y-98015820D01*
X124304188Y-98135518D01*
X124291928Y-98260000D01*
X121647340Y-98260000D01*
X121602702Y-98246903D01*
X120789605Y-99060000D01*
X120430395Y-99060000D01*
X119617298Y-98246903D01*
X119548072Y-98267215D01*
X119548072Y-98260000D01*
X119535812Y-98135518D01*
X119515118Y-98067298D01*
X119796903Y-98067298D01*
X120610000Y-98880395D01*
X121423097Y-98067298D01*
X121351514Y-97823329D01*
X121096004Y-97702429D01*
X120821816Y-97633700D01*
X120539488Y-97619783D01*
X120259870Y-97661213D01*
X119993708Y-97756397D01*
X119868486Y-97823329D01*
X119796903Y-98067298D01*
X119515118Y-98067298D01*
X119499502Y-98015820D01*
X119440537Y-97905506D01*
X119361185Y-97808815D01*
X119264494Y-97729463D01*
X119154180Y-97670498D01*
X119034482Y-97634188D01*
X118945000Y-97625375D01*
X118945000Y-95291018D01*
X118949040Y-95250000D01*
X118932918Y-95086312D01*
X118885172Y-94928913D01*
X118807636Y-94783854D01*
X118729439Y-94688570D01*
X118729437Y-94688568D01*
X118703291Y-94656709D01*
X118671432Y-94630563D01*
X115765001Y-91724134D01*
X115765001Y-86218665D01*
X116675000Y-86218665D01*
X116675000Y-86501335D01*
X116730147Y-86778574D01*
X116838320Y-87039727D01*
X116995363Y-87274759D01*
X117195241Y-87474637D01*
X117430273Y-87631680D01*
X117691426Y-87739853D01*
X117968665Y-87795000D01*
X118251335Y-87795000D01*
X118528574Y-87739853D01*
X118789727Y-87631680D01*
X119024759Y-87474637D01*
X119224637Y-87274759D01*
X119381680Y-87039727D01*
X119489853Y-86778574D01*
X119545000Y-86501335D01*
X119545000Y-86218665D01*
X119489853Y-85941426D01*
X119381680Y-85680273D01*
X119224637Y-85445241D01*
X119024759Y-85245363D01*
X118789727Y-85088320D01*
X118528574Y-84980147D01*
X118251335Y-84925000D01*
X117968665Y-84925000D01*
X117691426Y-84980147D01*
X117430273Y-85088320D01*
X117195241Y-85245363D01*
X116995363Y-85445241D01*
X116838320Y-85680273D01*
X116730147Y-85941426D01*
X116675000Y-86218665D01*
X115765001Y-86218665D01*
X115765001Y-82379117D01*
X118915000Y-82379117D01*
X118915000Y-82720883D01*
X118981675Y-83056081D01*
X119112463Y-83371831D01*
X119302337Y-83655998D01*
X119544002Y-83897663D01*
X119828169Y-84087537D01*
X120143919Y-84218325D01*
X120479117Y-84285000D01*
X120820883Y-84285000D01*
X121156081Y-84218325D01*
X121471831Y-84087537D01*
X121755998Y-83897663D01*
X121997663Y-83655998D01*
X122187537Y-83371831D01*
X122318325Y-83056081D01*
X122385000Y-82720883D01*
X122385000Y-82379117D01*
X122318325Y-82043919D01*
X122187537Y-81728169D01*
X121997663Y-81444002D01*
X121755998Y-81202337D01*
X121471831Y-81012463D01*
X121156081Y-80881675D01*
X120820883Y-80815000D01*
X120479117Y-80815000D01*
X120143919Y-80881675D01*
X119828169Y-81012463D01*
X119544002Y-81202337D01*
X119302337Y-81444002D01*
X119112463Y-81728169D01*
X118981675Y-82043919D01*
X118915000Y-82379117D01*
X115765001Y-82379117D01*
X115765001Y-79320135D01*
X115948007Y-79503141D01*
X115983549Y-79546449D01*
X116156375Y-79688284D01*
X116353551Y-79793676D01*
X116567499Y-79858577D01*
X116789998Y-79880491D01*
X116845749Y-79875000D01*
X123634256Y-79875000D01*
X123620960Y-80010000D01*
X123625001Y-80051028D01*
X123625000Y-81382070D01*
X123545241Y-81435363D01*
X123345363Y-81635241D01*
X123188320Y-81870273D01*
X123080147Y-82131426D01*
X123025000Y-82408665D01*
X123025000Y-82691335D01*
X123080147Y-82968574D01*
X123188320Y-83229727D01*
X123345363Y-83464759D01*
X123545241Y-83664637D01*
X123780273Y-83821680D01*
X123867186Y-83857680D01*
X117722939Y-90001928D01*
X117310000Y-90001928D01*
X117185518Y-90014188D01*
X117065820Y-90050498D01*
X116955506Y-90109463D01*
X116858815Y-90188815D01*
X116779463Y-90285506D01*
X116720498Y-90395820D01*
X116684188Y-90515518D01*
X116671928Y-90640000D01*
X116671928Y-92240000D01*
X116684188Y-92364482D01*
X116720498Y-92484180D01*
X116779463Y-92594494D01*
X116858815Y-92691185D01*
X116955506Y-92770537D01*
X117065820Y-92829502D01*
X117185518Y-92865812D01*
X117310000Y-92878072D01*
X118910000Y-92878072D01*
X119034482Y-92865812D01*
X119154180Y-92829502D01*
X119264494Y-92770537D01*
X119361185Y-92691185D01*
X119371807Y-92678242D01*
X119623996Y-92797571D01*
X119898184Y-92866300D01*
X120180512Y-92880217D01*
X120460130Y-92838787D01*
X120726292Y-92743603D01*
X120851514Y-92676671D01*
X120923097Y-92432702D01*
X120110000Y-91619605D01*
X120095858Y-91633748D01*
X119916253Y-91454143D01*
X119930395Y-91440000D01*
X120289605Y-91440000D01*
X121102702Y-92253097D01*
X121346671Y-92181514D01*
X121467571Y-91926004D01*
X121536300Y-91651816D01*
X121550217Y-91369488D01*
X121508787Y-91089870D01*
X121413603Y-90823708D01*
X121346671Y-90698486D01*
X121102702Y-90626903D01*
X120289605Y-91440000D01*
X119930395Y-91440000D01*
X119916253Y-91425858D01*
X120095858Y-91246253D01*
X120110000Y-91260395D01*
X120923097Y-90447298D01*
X120851514Y-90203329D01*
X120770251Y-90164878D01*
X128057830Y-82877300D01*
X128061213Y-82900130D01*
X128156397Y-83166292D01*
X128223329Y-83291514D01*
X128467298Y-83363097D01*
X129280395Y-82550000D01*
X129266253Y-82535858D01*
X129445858Y-82356253D01*
X129460000Y-82370395D01*
X129474143Y-82356253D01*
X129653748Y-82535858D01*
X129639605Y-82550000D01*
X129653748Y-82564143D01*
X129474143Y-82743748D01*
X129460000Y-82729605D01*
X128646903Y-83542702D01*
X128718486Y-83786671D01*
X128973996Y-83907571D01*
X129248184Y-83976300D01*
X129530512Y-83990217D01*
X129810130Y-83948787D01*
X129975000Y-83889827D01*
X129975000Y-85875502D01*
X129692861Y-86157641D01*
X129649853Y-85941426D01*
X129541680Y-85680273D01*
X129384637Y-85445241D01*
X129184759Y-85245363D01*
X128949727Y-85088320D01*
X128688574Y-84980147D01*
X128411335Y-84925000D01*
X128128665Y-84925000D01*
X127851426Y-84980147D01*
X127590273Y-85088320D01*
X127355241Y-85245363D01*
X127155363Y-85445241D01*
X126998320Y-85680273D01*
X126890147Y-85941426D01*
X126835000Y-86218665D01*
X126835000Y-86501335D01*
X126890147Y-86778574D01*
X126998320Y-87039727D01*
X127155363Y-87274759D01*
X127355241Y-87474637D01*
X127590273Y-87631680D01*
X127851426Y-87739853D01*
X128067641Y-87782861D01*
X125449949Y-90400553D01*
X125374759Y-90325363D01*
X125139727Y-90168320D01*
X124878574Y-90060147D01*
X124601335Y-90005000D01*
X124318665Y-90005000D01*
X124041426Y-90060147D01*
X123780273Y-90168320D01*
X123545241Y-90325363D01*
X123345363Y-90525241D01*
X123188320Y-90760273D01*
X123080147Y-91021426D01*
X123025000Y-91298665D01*
X123025000Y-91581335D01*
X123080147Y-91858574D01*
X123188320Y-92119727D01*
X123345363Y-92354759D01*
X123545241Y-92554637D01*
X123780273Y-92711680D01*
X124041426Y-92819853D01*
X124318665Y-92875000D01*
X124601335Y-92875000D01*
X124878574Y-92819853D01*
X125139727Y-92711680D01*
X125374759Y-92554637D01*
X125496694Y-92432702D01*
X128646903Y-92432702D01*
X128718486Y-92676671D01*
X128973996Y-92797571D01*
X129248184Y-92866300D01*
X129530512Y-92880217D01*
X129810130Y-92838787D01*
X130076292Y-92743603D01*
X130201514Y-92676671D01*
X130273097Y-92432702D01*
X129460000Y-91619605D01*
X128646903Y-92432702D01*
X125496694Y-92432702D01*
X125574637Y-92354759D01*
X125627616Y-92275470D01*
X125632388Y-92275000D01*
X125632389Y-92275000D01*
X125755059Y-92262918D01*
X125912457Y-92215172D01*
X126057516Y-92137636D01*
X126184661Y-92033291D01*
X126210816Y-92001421D01*
X126701725Y-91510512D01*
X128019783Y-91510512D01*
X128061213Y-91790130D01*
X128156397Y-92056292D01*
X128223329Y-92181514D01*
X128467298Y-92253097D01*
X129280395Y-91440000D01*
X129639605Y-91440000D01*
X130452702Y-92253097D01*
X130696671Y-92181514D01*
X130817571Y-91926004D01*
X130886300Y-91651816D01*
X130900217Y-91369488D01*
X130858787Y-91089870D01*
X130763603Y-90823708D01*
X130696671Y-90698486D01*
X130452702Y-90626903D01*
X129639605Y-91440000D01*
X129280395Y-91440000D01*
X128467298Y-90626903D01*
X128223329Y-90698486D01*
X128102429Y-90953996D01*
X128033700Y-91228184D01*
X128019783Y-91510512D01*
X126701725Y-91510512D01*
X127764939Y-90447298D01*
X128646903Y-90447298D01*
X129460000Y-91260395D01*
X130273097Y-90447298D01*
X130201514Y-90203329D01*
X129946004Y-90082429D01*
X129671816Y-90013700D01*
X129389488Y-89999783D01*
X129109870Y-90041213D01*
X128843708Y-90136397D01*
X128718486Y-90203329D01*
X128646903Y-90447298D01*
X127764939Y-90447298D01*
X131371428Y-86840810D01*
X131403291Y-86814661D01*
X131507636Y-86687516D01*
X131585172Y-86542457D01*
X131632918Y-86385059D01*
X131645000Y-86262389D01*
X131645000Y-86262379D01*
X131649039Y-86221371D01*
X131645000Y-86180363D01*
X131645000Y-68621015D01*
X131649040Y-68579999D01*
X131636284Y-68450490D01*
X131632918Y-68416311D01*
X131585172Y-68258913D01*
X131507636Y-68113854D01*
X131403291Y-67986709D01*
X131371426Y-67960558D01*
X130159446Y-66748579D01*
X130133291Y-66716709D01*
X130006146Y-66612364D01*
X129861087Y-66534828D01*
X129703689Y-66487082D01*
X129581019Y-66475000D01*
X129581018Y-66475000D01*
X129540000Y-66470960D01*
X129498982Y-66475000D01*
X120691015Y-66475000D01*
X120649999Y-66470960D01*
X120608983Y-66475000D01*
X120608981Y-66475000D01*
X120486311Y-66487082D01*
X120328913Y-66534828D01*
X120247730Y-66578222D01*
X120186449Y-66503551D01*
X120143140Y-66468008D01*
X118951996Y-65276865D01*
X118916449Y-65233551D01*
X118743623Y-65091716D01*
X118546447Y-64986324D01*
X118332499Y-64921423D01*
X118165752Y-64905000D01*
X118165751Y-64905000D01*
X118110000Y-64899509D01*
X118054249Y-64905000D01*
X110545743Y-64905000D01*
X110489999Y-64899510D01*
X110434255Y-64905000D01*
X110434248Y-64905000D01*
X110288493Y-64919356D01*
X110267500Y-64921423D01*
X110217705Y-64936529D01*
X110053553Y-64986324D01*
X109856377Y-65091716D01*
X109683551Y-65233551D01*
X109648008Y-65276860D01*
X108610000Y-66314869D01*
X108610000Y-59625000D01*
X114831928Y-59625000D01*
X114831928Y-61375000D01*
X114861001Y-61670186D01*
X114947104Y-61954028D01*
X115086927Y-62215618D01*
X115275097Y-62444903D01*
X115504382Y-62633073D01*
X115765972Y-62772896D01*
X116049814Y-62858999D01*
X116345000Y-62888072D01*
X118095000Y-62888072D01*
X118390186Y-62858999D01*
X118674028Y-62772896D01*
X118935618Y-62633073D01*
X119164903Y-62444903D01*
X119353073Y-62215618D01*
X119492896Y-61954028D01*
X119531928Y-61825357D01*
X119531928Y-65250000D01*
X119544188Y-65374482D01*
X119580498Y-65494180D01*
X119639463Y-65604494D01*
X119718815Y-65701185D01*
X119815506Y-65780537D01*
X119925820Y-65839502D01*
X120045518Y-65875812D01*
X120170000Y-65888072D01*
X123670000Y-65888072D01*
X123794482Y-65875812D01*
X123914180Y-65839502D01*
X124024494Y-65780537D01*
X124121185Y-65701185D01*
X124200537Y-65604494D01*
X124259502Y-65494180D01*
X124295812Y-65374482D01*
X124308072Y-65250000D01*
X124308072Y-61750000D01*
X124295812Y-61625518D01*
X124259502Y-61505820D01*
X124200537Y-61395506D01*
X124121185Y-61298815D01*
X124024494Y-61219463D01*
X123914180Y-61160498D01*
X123794482Y-61124188D01*
X123670000Y-61111928D01*
X120170000Y-61111928D01*
X120045518Y-61124188D01*
X119925820Y-61160498D01*
X119815506Y-61219463D01*
X119718815Y-61298815D01*
X119639463Y-61395506D01*
X119598506Y-61472131D01*
X119608072Y-61375000D01*
X119608072Y-59625000D01*
X119578999Y-59329814D01*
X119492896Y-59045972D01*
X119468324Y-59000000D01*
X119531928Y-59000000D01*
X119544188Y-59124482D01*
X119580498Y-59244180D01*
X119639463Y-59354494D01*
X119718815Y-59451185D01*
X119815506Y-59530537D01*
X119925820Y-59589502D01*
X120045518Y-59625812D01*
X120170000Y-59638072D01*
X121634250Y-59635000D01*
X121793000Y-59476250D01*
X121793000Y-57627000D01*
X122047000Y-57627000D01*
X122047000Y-59476250D01*
X122205750Y-59635000D01*
X123670000Y-59638072D01*
X123794482Y-59625812D01*
X123914180Y-59589502D01*
X124024494Y-59530537D01*
X124121185Y-59451185D01*
X124200537Y-59354494D01*
X124259502Y-59244180D01*
X124295812Y-59124482D01*
X124308072Y-59000000D01*
X124305000Y-57785750D01*
X124146250Y-57627000D01*
X122047000Y-57627000D01*
X121793000Y-57627000D01*
X119693750Y-57627000D01*
X119535000Y-57785750D01*
X119531928Y-59000000D01*
X119468324Y-59000000D01*
X119353073Y-58784382D01*
X119164903Y-58555097D01*
X118935618Y-58366927D01*
X118674028Y-58227104D01*
X118390186Y-58141001D01*
X118095000Y-58111928D01*
X116345000Y-58111928D01*
X116049814Y-58141001D01*
X115765972Y-58227104D01*
X115504382Y-58366927D01*
X115275097Y-58555097D01*
X115086927Y-58784382D01*
X114947104Y-59045972D01*
X114861001Y-59329814D01*
X114831928Y-59625000D01*
X108610000Y-59625000D01*
X108610000Y-56000000D01*
X119531928Y-56000000D01*
X119535000Y-57214250D01*
X119693750Y-57373000D01*
X121793000Y-57373000D01*
X121793000Y-55523750D01*
X122047000Y-55523750D01*
X122047000Y-57373000D01*
X124146250Y-57373000D01*
X124305000Y-57214250D01*
X124305532Y-57003740D01*
X131865000Y-57003740D01*
X131865000Y-57296260D01*
X131922068Y-57583158D01*
X132034010Y-57853411D01*
X132196525Y-58096632D01*
X132403368Y-58303475D01*
X132577760Y-58420000D01*
X132403368Y-58536525D01*
X132196525Y-58743368D01*
X132034010Y-58986589D01*
X131922068Y-59256842D01*
X131865000Y-59543740D01*
X131865000Y-59836260D01*
X131922068Y-60123158D01*
X132034010Y-60393411D01*
X132196525Y-60636632D01*
X132403368Y-60843475D01*
X132577760Y-60960000D01*
X132403368Y-61076525D01*
X132196525Y-61283368D01*
X132034010Y-61526589D01*
X131922068Y-61796842D01*
X131865000Y-62083740D01*
X131865000Y-62376260D01*
X131922068Y-62663158D01*
X132034010Y-62933411D01*
X132196525Y-63176632D01*
X132403368Y-63383475D01*
X132585534Y-63505195D01*
X132468645Y-63574822D01*
X132252412Y-63769731D01*
X132078359Y-64003080D01*
X131953175Y-64265901D01*
X131908524Y-64413110D01*
X132029845Y-64643000D01*
X133223000Y-64643000D01*
X133223000Y-64623000D01*
X133477000Y-64623000D01*
X133477000Y-64643000D01*
X134670155Y-64643000D01*
X134791476Y-64413110D01*
X134746825Y-64265901D01*
X134621641Y-64003080D01*
X134447588Y-63769731D01*
X134231355Y-63574822D01*
X134114466Y-63505195D01*
X134296632Y-63383475D01*
X134503475Y-63176632D01*
X134665990Y-62933411D01*
X134777932Y-62663158D01*
X134835000Y-62376260D01*
X134835000Y-62083740D01*
X134777932Y-61796842D01*
X134665990Y-61526589D01*
X134503475Y-61283368D01*
X134296632Y-61076525D01*
X134122240Y-60960000D01*
X134296632Y-60843475D01*
X134503475Y-60636632D01*
X134665990Y-60393411D01*
X134777932Y-60123158D01*
X134835000Y-59836260D01*
X134835000Y-59543740D01*
X134777932Y-59256842D01*
X134665990Y-58986589D01*
X134503475Y-58743368D01*
X134296632Y-58536525D01*
X134122240Y-58420000D01*
X134296632Y-58303475D01*
X134503475Y-58096632D01*
X134665990Y-57853411D01*
X134777932Y-57583158D01*
X134835000Y-57296260D01*
X134835000Y-57003740D01*
X134777932Y-56716842D01*
X134665990Y-56446589D01*
X134503475Y-56203368D01*
X134296632Y-55996525D01*
X134114466Y-55874805D01*
X134231355Y-55805178D01*
X134447588Y-55610269D01*
X134621641Y-55376920D01*
X134746825Y-55114099D01*
X134791476Y-54966890D01*
X134670155Y-54737000D01*
X133477000Y-54737000D01*
X133477000Y-54757000D01*
X133223000Y-54757000D01*
X133223000Y-54737000D01*
X132029845Y-54737000D01*
X131908524Y-54966890D01*
X131953175Y-55114099D01*
X132078359Y-55376920D01*
X132252412Y-55610269D01*
X132468645Y-55805178D01*
X132585534Y-55874805D01*
X132403368Y-55996525D01*
X132196525Y-56203368D01*
X132034010Y-56446589D01*
X131922068Y-56716842D01*
X131865000Y-57003740D01*
X124305532Y-57003740D01*
X124308072Y-56000000D01*
X124295812Y-55875518D01*
X124259502Y-55755820D01*
X124200537Y-55645506D01*
X124121185Y-55548815D01*
X124024494Y-55469463D01*
X123914180Y-55410498D01*
X123794482Y-55374188D01*
X123670000Y-55361928D01*
X122205750Y-55365000D01*
X122047000Y-55523750D01*
X121793000Y-55523750D01*
X121634250Y-55365000D01*
X120170000Y-55361928D01*
X120045518Y-55374188D01*
X119925820Y-55410498D01*
X119815506Y-55469463D01*
X119718815Y-55548815D01*
X119639463Y-55645506D01*
X119580498Y-55755820D01*
X119544188Y-55875518D01*
X119531928Y-56000000D01*
X108610000Y-56000000D01*
X108610000Y-51849872D01*
X109525000Y-51849872D01*
X109525000Y-52290128D01*
X109610890Y-52721925D01*
X109779369Y-53128669D01*
X110023962Y-53494729D01*
X110335271Y-53806038D01*
X110701331Y-54050631D01*
X111108075Y-54219110D01*
X111539872Y-54305000D01*
X111980128Y-54305000D01*
X112411925Y-54219110D01*
X112818669Y-54050631D01*
X113184729Y-53806038D01*
X113496038Y-53494729D01*
X113740631Y-53128669D01*
X113909110Y-52721925D01*
X113995000Y-52290128D01*
X113995000Y-51923740D01*
X131865000Y-51923740D01*
X131865000Y-52216260D01*
X131922068Y-52503158D01*
X132034010Y-52773411D01*
X132196525Y-53016632D01*
X132403368Y-53223475D01*
X132585534Y-53345195D01*
X132468645Y-53414822D01*
X132252412Y-53609731D01*
X132078359Y-53843080D01*
X131953175Y-54105901D01*
X131908524Y-54253110D01*
X132029845Y-54483000D01*
X133223000Y-54483000D01*
X133223000Y-54463000D01*
X133477000Y-54463000D01*
X133477000Y-54483000D01*
X134670155Y-54483000D01*
X134791476Y-54253110D01*
X134746825Y-54105901D01*
X134621641Y-53843080D01*
X134447588Y-53609731D01*
X134231355Y-53414822D01*
X134114466Y-53345195D01*
X134296632Y-53223475D01*
X134503475Y-53016632D01*
X134665990Y-52773411D01*
X134777932Y-52503158D01*
X134835000Y-52216260D01*
X134835000Y-51923740D01*
X134777932Y-51636842D01*
X134665990Y-51366589D01*
X134503475Y-51123368D01*
X134296632Y-50916525D01*
X134053411Y-50754010D01*
X133783158Y-50642068D01*
X133496260Y-50585000D01*
X133203740Y-50585000D01*
X132916842Y-50642068D01*
X132646589Y-50754010D01*
X132403368Y-50916525D01*
X132196525Y-51123368D01*
X132034010Y-51366589D01*
X131922068Y-51636842D01*
X131865000Y-51923740D01*
X113995000Y-51923740D01*
X113995000Y-51849872D01*
X113909110Y-51418075D01*
X113740631Y-51011331D01*
X113496038Y-50645271D01*
X113184729Y-50333962D01*
X112818669Y-50089369D01*
X112411925Y-49920890D01*
X111980128Y-49835000D01*
X111539872Y-49835000D01*
X111108075Y-49920890D01*
X110701331Y-50089369D01*
X110335271Y-50333962D01*
X110023962Y-50645271D01*
X109779369Y-51011331D01*
X109610890Y-51418075D01*
X109525000Y-51849872D01*
X108610000Y-51849872D01*
X108610000Y-48920000D01*
X172147069Y-48920000D01*
X172126709Y-48936709D01*
G36*
X111537501Y-79858577D02*
G01*
X111704248Y-79875000D01*
X113495001Y-79875000D01*
X113495002Y-87431138D01*
X113477743Y-87423989D01*
X113181184Y-87365000D01*
X112878816Y-87365000D01*
X112582257Y-87423989D01*
X112302905Y-87539701D01*
X112051495Y-87707688D01*
X111985056Y-87774127D01*
X111979502Y-87755820D01*
X111920537Y-87645506D01*
X111841185Y-87548815D01*
X111744494Y-87469463D01*
X111634180Y-87410498D01*
X111514482Y-87374188D01*
X111390000Y-87361928D01*
X110775750Y-87365000D01*
X110617000Y-87523750D01*
X110617000Y-88773000D01*
X110637000Y-88773000D01*
X110637000Y-89027000D01*
X110617000Y-89027000D01*
X110617000Y-90276250D01*
X110775750Y-90435000D01*
X111390000Y-90438072D01*
X111514482Y-90425812D01*
X111634180Y-90389502D01*
X111744494Y-90330537D01*
X111841185Y-90251185D01*
X111920537Y-90154494D01*
X111979502Y-90044180D01*
X111985056Y-90025873D01*
X112051495Y-90092312D01*
X112302905Y-90260299D01*
X112582257Y-90376011D01*
X112878816Y-90435000D01*
X113181184Y-90435000D01*
X113477743Y-90376011D01*
X113495002Y-90368862D01*
X113495002Y-91714240D01*
X113495001Y-91714250D01*
X113495001Y-91909867D01*
X108610000Y-96794869D01*
X108610000Y-89800000D01*
X108951928Y-89800000D01*
X108964188Y-89924482D01*
X109000498Y-90044180D01*
X109059463Y-90154494D01*
X109138815Y-90251185D01*
X109235506Y-90330537D01*
X109345820Y-90389502D01*
X109465518Y-90425812D01*
X109590000Y-90438072D01*
X110204250Y-90435000D01*
X110363000Y-90276250D01*
X110363000Y-89027000D01*
X109113750Y-89027000D01*
X108955000Y-89185750D01*
X108951928Y-89800000D01*
X108610000Y-89800000D01*
X108610000Y-88000000D01*
X108951928Y-88000000D01*
X108955000Y-88614250D01*
X109113750Y-88773000D01*
X110363000Y-88773000D01*
X110363000Y-87523750D01*
X110204250Y-87365000D01*
X109590000Y-87361928D01*
X109465518Y-87374188D01*
X109345820Y-87410498D01*
X109235506Y-87469463D01*
X109138815Y-87548815D01*
X109059463Y-87645506D01*
X109000498Y-87755820D01*
X108964188Y-87875518D01*
X108951928Y-88000000D01*
X108610000Y-88000000D01*
X108610000Y-80175131D01*
X109260560Y-80825692D01*
X109145820Y-80860498D01*
X109035506Y-80919463D01*
X108938815Y-80998815D01*
X108859463Y-81095506D01*
X108800498Y-81205820D01*
X108764188Y-81325518D01*
X108751928Y-81450000D01*
X108751928Y-83650000D01*
X108764188Y-83774482D01*
X108800498Y-83894180D01*
X108859463Y-84004494D01*
X108938815Y-84101185D01*
X109035506Y-84180537D01*
X109145820Y-84239502D01*
X109265518Y-84275812D01*
X109390000Y-84288072D01*
X111590000Y-84288072D01*
X111714482Y-84275812D01*
X111834180Y-84239502D01*
X111944494Y-84180537D01*
X112041185Y-84101185D01*
X112120537Y-84004494D01*
X112179502Y-83894180D01*
X112215812Y-83774482D01*
X112228072Y-83650000D01*
X112228072Y-81450000D01*
X112215812Y-81325518D01*
X112179502Y-81205820D01*
X112120537Y-81095506D01*
X112041185Y-80998815D01*
X111944494Y-80919463D01*
X111834180Y-80860498D01*
X111714482Y-80824188D01*
X111625000Y-80815375D01*
X111625000Y-80505743D01*
X111630490Y-80449999D01*
X111625000Y-80394255D01*
X111625000Y-80394248D01*
X111608577Y-80227501D01*
X111603418Y-80210492D01*
X111586966Y-80156260D01*
X111543676Y-80013553D01*
X111446005Y-79830822D01*
X111537501Y-79858577D01*
G37*
X111537501Y-79858577D02*
X111704248Y-79875000D01*
X113495001Y-79875000D01*
X113495002Y-87431138D01*
X113477743Y-87423989D01*
X113181184Y-87365000D01*
X112878816Y-87365000D01*
X112582257Y-87423989D01*
X112302905Y-87539701D01*
X112051495Y-87707688D01*
X111985056Y-87774127D01*
X111979502Y-87755820D01*
X111920537Y-87645506D01*
X111841185Y-87548815D01*
X111744494Y-87469463D01*
X111634180Y-87410498D01*
X111514482Y-87374188D01*
X111390000Y-87361928D01*
X110775750Y-87365000D01*
X110617000Y-87523750D01*
X110617000Y-88773000D01*
X110637000Y-88773000D01*
X110637000Y-89027000D01*
X110617000Y-89027000D01*
X110617000Y-90276250D01*
X110775750Y-90435000D01*
X111390000Y-90438072D01*
X111514482Y-90425812D01*
X111634180Y-90389502D01*
X111744494Y-90330537D01*
X111841185Y-90251185D01*
X111920537Y-90154494D01*
X111979502Y-90044180D01*
X111985056Y-90025873D01*
X112051495Y-90092312D01*
X112302905Y-90260299D01*
X112582257Y-90376011D01*
X112878816Y-90435000D01*
X113181184Y-90435000D01*
X113477743Y-90376011D01*
X113495002Y-90368862D01*
X113495002Y-91714240D01*
X113495001Y-91714250D01*
X113495001Y-91909867D01*
X108610000Y-96794869D01*
X108610000Y-89800000D01*
X108951928Y-89800000D01*
X108964188Y-89924482D01*
X109000498Y-90044180D01*
X109059463Y-90154494D01*
X109138815Y-90251185D01*
X109235506Y-90330537D01*
X109345820Y-90389502D01*
X109465518Y-90425812D01*
X109590000Y-90438072D01*
X110204250Y-90435000D01*
X110363000Y-90276250D01*
X110363000Y-89027000D01*
X109113750Y-89027000D01*
X108955000Y-89185750D01*
X108951928Y-89800000D01*
X108610000Y-89800000D01*
X108610000Y-88000000D01*
X108951928Y-88000000D01*
X108955000Y-88614250D01*
X109113750Y-88773000D01*
X110363000Y-88773000D01*
X110363000Y-87523750D01*
X110204250Y-87365000D01*
X109590000Y-87361928D01*
X109465518Y-87374188D01*
X109345820Y-87410498D01*
X109235506Y-87469463D01*
X109138815Y-87548815D01*
X109059463Y-87645506D01*
X109000498Y-87755820D01*
X108964188Y-87875518D01*
X108951928Y-88000000D01*
X108610000Y-88000000D01*
X108610000Y-80175131D01*
X109260560Y-80825692D01*
X109145820Y-80860498D01*
X109035506Y-80919463D01*
X108938815Y-80998815D01*
X108859463Y-81095506D01*
X108800498Y-81205820D01*
X108764188Y-81325518D01*
X108751928Y-81450000D01*
X108751928Y-83650000D01*
X108764188Y-83774482D01*
X108800498Y-83894180D01*
X108859463Y-84004494D01*
X108938815Y-84101185D01*
X109035506Y-84180537D01*
X109145820Y-84239502D01*
X109265518Y-84275812D01*
X109390000Y-84288072D01*
X111590000Y-84288072D01*
X111714482Y-84275812D01*
X111834180Y-84239502D01*
X111944494Y-84180537D01*
X112041185Y-84101185D01*
X112120537Y-84004494D01*
X112179502Y-83894180D01*
X112215812Y-83774482D01*
X112228072Y-83650000D01*
X112228072Y-81450000D01*
X112215812Y-81325518D01*
X112179502Y-81205820D01*
X112120537Y-81095506D01*
X112041185Y-80998815D01*
X111944494Y-80919463D01*
X111834180Y-80860498D01*
X111714482Y-80824188D01*
X111625000Y-80815375D01*
X111625000Y-80505743D01*
X111630490Y-80449999D01*
X111625000Y-80394255D01*
X111625000Y-80394248D01*
X111608577Y-80227501D01*
X111603418Y-80210492D01*
X111586966Y-80156260D01*
X111543676Y-80013553D01*
X111446005Y-79830822D01*
X111537501Y-79858577D01*
G36*
X118245000Y-67780132D02*
G01*
X118245000Y-68524249D01*
X118245001Y-74405000D01*
X117972621Y-74405000D01*
X117939502Y-74295820D01*
X117880537Y-74185506D01*
X117801185Y-74088815D01*
X117704494Y-74009463D01*
X117594180Y-73950498D01*
X117474482Y-73914188D01*
X117350000Y-73901928D01*
X115850000Y-73901928D01*
X115725518Y-73914188D01*
X115605820Y-73950498D01*
X115495506Y-74009463D01*
X115450000Y-74046809D01*
X115435000Y-74034499D01*
X115435000Y-70878072D01*
X116200000Y-70878072D01*
X116324482Y-70865812D01*
X116444180Y-70829502D01*
X116554494Y-70770537D01*
X116651185Y-70691185D01*
X116730537Y-70594494D01*
X116789502Y-70484180D01*
X116825812Y-70364482D01*
X116838072Y-70240000D01*
X116838072Y-68240000D01*
X116825812Y-68115518D01*
X116789502Y-67995820D01*
X116730537Y-67885506D01*
X116651185Y-67788815D01*
X116554494Y-67709463D01*
X116444180Y-67650498D01*
X116324482Y-67614188D01*
X116200000Y-67601928D01*
X112400000Y-67601928D01*
X112275518Y-67614188D01*
X112155820Y-67650498D01*
X112045506Y-67709463D01*
X111948815Y-67788815D01*
X111869463Y-67885506D01*
X111810498Y-67995820D01*
X111774188Y-68115518D01*
X111761928Y-68240000D01*
X111761928Y-70240000D01*
X111774188Y-70364482D01*
X111810498Y-70484180D01*
X111869463Y-70594494D01*
X111948815Y-70691185D01*
X112045506Y-70770537D01*
X112155820Y-70829502D01*
X112275518Y-70865812D01*
X112400000Y-70878072D01*
X113165000Y-70878072D01*
X113165001Y-74034498D01*
X113150000Y-74046809D01*
X113104494Y-74009463D01*
X112994180Y-73950498D01*
X112874482Y-73914188D01*
X112750000Y-73901928D01*
X112285750Y-73905000D01*
X112127000Y-74063750D01*
X112127000Y-75413000D01*
X112147000Y-75413000D01*
X112147000Y-75667000D01*
X112127000Y-75667000D01*
X112127000Y-77016250D01*
X112285750Y-77175000D01*
X112750000Y-77178072D01*
X112874482Y-77165812D01*
X112994180Y-77129502D01*
X113104494Y-77070537D01*
X113150000Y-77033191D01*
X113195506Y-77070537D01*
X113305820Y-77129502D01*
X113425518Y-77165812D01*
X113495001Y-77172655D01*
X113495002Y-77605000D01*
X111704248Y-77605000D01*
X111537501Y-77621423D01*
X111323553Y-77686324D01*
X111126377Y-77791716D01*
X110953551Y-77933551D01*
X110811716Y-78106377D01*
X110706324Y-78303553D01*
X110641423Y-78517501D01*
X110619509Y-78740000D01*
X110641423Y-78962499D01*
X110656138Y-79011006D01*
X110355000Y-78709869D01*
X110355000Y-76540000D01*
X110611928Y-76540000D01*
X110624188Y-76664482D01*
X110660498Y-76784180D01*
X110719463Y-76894494D01*
X110798815Y-76991185D01*
X110895506Y-77070537D01*
X111005820Y-77129502D01*
X111125518Y-77165812D01*
X111250000Y-77178072D01*
X111714250Y-77175000D01*
X111873000Y-77016250D01*
X111873000Y-75667000D01*
X110773750Y-75667000D01*
X110615000Y-75825750D01*
X110611928Y-76540000D01*
X110355000Y-76540000D01*
X110355000Y-74540000D01*
X110611928Y-74540000D01*
X110615000Y-75254250D01*
X110773750Y-75413000D01*
X111873000Y-75413000D01*
X111873000Y-74063750D01*
X111714250Y-73905000D01*
X111250000Y-73901928D01*
X111125518Y-73914188D01*
X111005820Y-73950498D01*
X110895506Y-74009463D01*
X110798815Y-74088815D01*
X110719463Y-74185506D01*
X110660498Y-74295820D01*
X110624188Y-74415518D01*
X110611928Y-74540000D01*
X110355000Y-74540000D01*
X110355000Y-67780131D01*
X110960132Y-67175000D01*
X117639869Y-67175000D01*
X118245000Y-67780132D01*
G37*
X118245000Y-67780132D02*
X118245000Y-68524249D01*
X118245001Y-74405000D01*
X117972621Y-74405000D01*
X117939502Y-74295820D01*
X117880537Y-74185506D01*
X117801185Y-74088815D01*
X117704494Y-74009463D01*
X117594180Y-73950498D01*
X117474482Y-73914188D01*
X117350000Y-73901928D01*
X115850000Y-73901928D01*
X115725518Y-73914188D01*
X115605820Y-73950498D01*
X115495506Y-74009463D01*
X115450000Y-74046809D01*
X115435000Y-74034499D01*
X115435000Y-70878072D01*
X116200000Y-70878072D01*
X116324482Y-70865812D01*
X116444180Y-70829502D01*
X116554494Y-70770537D01*
X116651185Y-70691185D01*
X116730537Y-70594494D01*
X116789502Y-70484180D01*
X116825812Y-70364482D01*
X116838072Y-70240000D01*
X116838072Y-68240000D01*
X116825812Y-68115518D01*
X116789502Y-67995820D01*
X116730537Y-67885506D01*
X116651185Y-67788815D01*
X116554494Y-67709463D01*
X116444180Y-67650498D01*
X116324482Y-67614188D01*
X116200000Y-67601928D01*
X112400000Y-67601928D01*
X112275518Y-67614188D01*
X112155820Y-67650498D01*
X112045506Y-67709463D01*
X111948815Y-67788815D01*
X111869463Y-67885506D01*
X111810498Y-67995820D01*
X111774188Y-68115518D01*
X111761928Y-68240000D01*
X111761928Y-70240000D01*
X111774188Y-70364482D01*
X111810498Y-70484180D01*
X111869463Y-70594494D01*
X111948815Y-70691185D01*
X112045506Y-70770537D01*
X112155820Y-70829502D01*
X112275518Y-70865812D01*
X112400000Y-70878072D01*
X113165000Y-70878072D01*
X113165001Y-74034498D01*
X113150000Y-74046809D01*
X113104494Y-74009463D01*
X112994180Y-73950498D01*
X112874482Y-73914188D01*
X112750000Y-73901928D01*
X112285750Y-73905000D01*
X112127000Y-74063750D01*
X112127000Y-75413000D01*
X112147000Y-75413000D01*
X112147000Y-75667000D01*
X112127000Y-75667000D01*
X112127000Y-77016250D01*
X112285750Y-77175000D01*
X112750000Y-77178072D01*
X112874482Y-77165812D01*
X112994180Y-77129502D01*
X113104494Y-77070537D01*
X113150000Y-77033191D01*
X113195506Y-77070537D01*
X113305820Y-77129502D01*
X113425518Y-77165812D01*
X113495001Y-77172655D01*
X113495002Y-77605000D01*
X111704248Y-77605000D01*
X111537501Y-77621423D01*
X111323553Y-77686324D01*
X111126377Y-77791716D01*
X110953551Y-77933551D01*
X110811716Y-78106377D01*
X110706324Y-78303553D01*
X110641423Y-78517501D01*
X110619509Y-78740000D01*
X110641423Y-78962499D01*
X110656138Y-79011006D01*
X110355000Y-78709869D01*
X110355000Y-76540000D01*
X110611928Y-76540000D01*
X110624188Y-76664482D01*
X110660498Y-76784180D01*
X110719463Y-76894494D01*
X110798815Y-76991185D01*
X110895506Y-77070537D01*
X111005820Y-77129502D01*
X111125518Y-77165812D01*
X111250000Y-77178072D01*
X111714250Y-77175000D01*
X111873000Y-77016250D01*
X111873000Y-75667000D01*
X110773750Y-75667000D01*
X110615000Y-75825750D01*
X110611928Y-76540000D01*
X110355000Y-76540000D01*
X110355000Y-74540000D01*
X110611928Y-74540000D01*
X110615000Y-75254250D01*
X110773750Y-75413000D01*
X111873000Y-75413000D01*
X111873000Y-74063750D01*
X111714250Y-73905000D01*
X111250000Y-73901928D01*
X111125518Y-73914188D01*
X111005820Y-73950498D01*
X110895506Y-74009463D01*
X110798815Y-74088815D01*
X110719463Y-74185506D01*
X110660498Y-74295820D01*
X110624188Y-74415518D01*
X110611928Y-74540000D01*
X110355000Y-74540000D01*
X110355000Y-67780131D01*
X110960132Y-67175000D01*
X117639869Y-67175000D01*
X118245000Y-67780132D01*
G36*
X123191928Y-68240000D02*
G01*
X123191928Y-70240000D01*
X123204188Y-70364482D01*
X123240498Y-70484180D01*
X123299463Y-70594494D01*
X123378815Y-70691185D01*
X123475506Y-70770537D01*
X123585820Y-70829502D01*
X123705518Y-70865812D01*
X123830000Y-70878072D01*
X125762940Y-70878072D01*
X126969868Y-72085000D01*
X125152941Y-73901928D01*
X124980000Y-73901928D01*
X124855518Y-73914188D01*
X124735820Y-73950498D01*
X124625506Y-74009463D01*
X124580000Y-74046809D01*
X124534494Y-74009463D01*
X124424180Y-73950498D01*
X124304482Y-73914188D01*
X124180000Y-73901928D01*
X123715750Y-73905000D01*
X123557000Y-74063750D01*
X123557000Y-75413000D01*
X123577000Y-75413000D01*
X123577000Y-75667000D01*
X123557000Y-75667000D01*
X123557000Y-77016250D01*
X123715750Y-77175000D01*
X124180000Y-77178072D01*
X124304482Y-77165812D01*
X124424180Y-77129502D01*
X124534494Y-77070537D01*
X124580000Y-77033191D01*
X124625506Y-77070537D01*
X124735820Y-77129502D01*
X124855518Y-77165812D01*
X124980000Y-77178072D01*
X126480000Y-77178072D01*
X126604482Y-77165812D01*
X126724180Y-77129502D01*
X126834494Y-77070537D01*
X126880000Y-77033191D01*
X126895000Y-77045502D01*
X126895000Y-77069868D01*
X126359869Y-77605000D01*
X117260130Y-77605000D01*
X116833202Y-77178072D01*
X117350000Y-77178072D01*
X117474482Y-77165812D01*
X117594180Y-77129502D01*
X117704494Y-77070537D01*
X117801185Y-76991185D01*
X117880537Y-76894494D01*
X117939502Y-76784180D01*
X117972621Y-76675000D01*
X118714249Y-76675000D01*
X118770000Y-76680491D01*
X118825751Y-76675000D01*
X118825752Y-76675000D01*
X118992499Y-76658577D01*
X119206447Y-76593676D01*
X119403623Y-76488284D01*
X119576449Y-76346449D01*
X119611996Y-76303135D01*
X119635461Y-76279670D01*
X119701716Y-76403625D01*
X119843551Y-76576451D01*
X120016377Y-76718286D01*
X120213553Y-76823678D01*
X120427501Y-76888579D01*
X120650000Y-76910493D01*
X120872499Y-76888579D01*
X121086447Y-76823678D01*
X121283623Y-76718286D01*
X121456449Y-76576451D01*
X121486363Y-76540000D01*
X122041928Y-76540000D01*
X122054188Y-76664482D01*
X122090498Y-76784180D01*
X122149463Y-76894494D01*
X122228815Y-76991185D01*
X122325506Y-77070537D01*
X122435820Y-77129502D01*
X122555518Y-77165812D01*
X122680000Y-77178072D01*
X123144250Y-77175000D01*
X123303000Y-77016250D01*
X123303000Y-75667000D01*
X122203750Y-75667000D01*
X122045000Y-75825750D01*
X122041928Y-76540000D01*
X121486363Y-76540000D01*
X121598284Y-76403625D01*
X121703676Y-76206449D01*
X121768577Y-75992501D01*
X121785000Y-75825754D01*
X121785000Y-74540000D01*
X122041928Y-74540000D01*
X122045000Y-75254250D01*
X122203750Y-75413000D01*
X123303000Y-75413000D01*
X123303000Y-74063750D01*
X123144250Y-73905000D01*
X122680000Y-73901928D01*
X122555518Y-73914188D01*
X122435820Y-73950498D01*
X122325506Y-74009463D01*
X122228815Y-74088815D01*
X122149463Y-74185506D01*
X122090498Y-74295820D01*
X122054188Y-74415518D01*
X122041928Y-74540000D01*
X121785000Y-74540000D01*
X121785000Y-69794248D01*
X121768577Y-69627501D01*
X121703676Y-69413553D01*
X121598284Y-69216377D01*
X121456449Y-69043551D01*
X121283623Y-68901716D01*
X121086447Y-68796324D01*
X120872499Y-68731423D01*
X120650000Y-68709509D01*
X120515000Y-68722805D01*
X120515000Y-68625867D01*
X120995868Y-68145000D01*
X123201284Y-68145000D01*
X123191928Y-68240000D01*
G37*
X123191928Y-68240000D02*
X123191928Y-70240000D01*
X123204188Y-70364482D01*
X123240498Y-70484180D01*
X123299463Y-70594494D01*
X123378815Y-70691185D01*
X123475506Y-70770537D01*
X123585820Y-70829502D01*
X123705518Y-70865812D01*
X123830000Y-70878072D01*
X125762940Y-70878072D01*
X126969868Y-72085000D01*
X125152941Y-73901928D01*
X124980000Y-73901928D01*
X124855518Y-73914188D01*
X124735820Y-73950498D01*
X124625506Y-74009463D01*
X124580000Y-74046809D01*
X124534494Y-74009463D01*
X124424180Y-73950498D01*
X124304482Y-73914188D01*
X124180000Y-73901928D01*
X123715750Y-73905000D01*
X123557000Y-74063750D01*
X123557000Y-75413000D01*
X123577000Y-75413000D01*
X123577000Y-75667000D01*
X123557000Y-75667000D01*
X123557000Y-77016250D01*
X123715750Y-77175000D01*
X124180000Y-77178072D01*
X124304482Y-77165812D01*
X124424180Y-77129502D01*
X124534494Y-77070537D01*
X124580000Y-77033191D01*
X124625506Y-77070537D01*
X124735820Y-77129502D01*
X124855518Y-77165812D01*
X124980000Y-77178072D01*
X126480000Y-77178072D01*
X126604482Y-77165812D01*
X126724180Y-77129502D01*
X126834494Y-77070537D01*
X126880000Y-77033191D01*
X126895000Y-77045502D01*
X126895000Y-77069868D01*
X126359869Y-77605000D01*
X117260130Y-77605000D01*
X116833202Y-77178072D01*
X117350000Y-77178072D01*
X117474482Y-77165812D01*
X117594180Y-77129502D01*
X117704494Y-77070537D01*
X117801185Y-76991185D01*
X117880537Y-76894494D01*
X117939502Y-76784180D01*
X117972621Y-76675000D01*
X118714249Y-76675000D01*
X118770000Y-76680491D01*
X118825751Y-76675000D01*
X118825752Y-76675000D01*
X118992499Y-76658577D01*
X119206447Y-76593676D01*
X119403623Y-76488284D01*
X119576449Y-76346449D01*
X119611996Y-76303135D01*
X119635461Y-76279670D01*
X119701716Y-76403625D01*
X119843551Y-76576451D01*
X120016377Y-76718286D01*
X120213553Y-76823678D01*
X120427501Y-76888579D01*
X120650000Y-76910493D01*
X120872499Y-76888579D01*
X121086447Y-76823678D01*
X121283623Y-76718286D01*
X121456449Y-76576451D01*
X121486363Y-76540000D01*
X122041928Y-76540000D01*
X122054188Y-76664482D01*
X122090498Y-76784180D01*
X122149463Y-76894494D01*
X122228815Y-76991185D01*
X122325506Y-77070537D01*
X122435820Y-77129502D01*
X122555518Y-77165812D01*
X122680000Y-77178072D01*
X123144250Y-77175000D01*
X123303000Y-77016250D01*
X123303000Y-75667000D01*
X122203750Y-75667000D01*
X122045000Y-75825750D01*
X122041928Y-76540000D01*
X121486363Y-76540000D01*
X121598284Y-76403625D01*
X121703676Y-76206449D01*
X121768577Y-75992501D01*
X121785000Y-75825754D01*
X121785000Y-74540000D01*
X122041928Y-74540000D01*
X122045000Y-75254250D01*
X122203750Y-75413000D01*
X123303000Y-75413000D01*
X123303000Y-74063750D01*
X123144250Y-73905000D01*
X122680000Y-73901928D01*
X122555518Y-73914188D01*
X122435820Y-73950498D01*
X122325506Y-74009463D01*
X122228815Y-74088815D01*
X122149463Y-74185506D01*
X122090498Y-74295820D01*
X122054188Y-74415518D01*
X122041928Y-74540000D01*
X121785000Y-74540000D01*
X121785000Y-69794248D01*
X121768577Y-69627501D01*
X121703676Y-69413553D01*
X121598284Y-69216377D01*
X121456449Y-69043551D01*
X121283623Y-68901716D01*
X121086447Y-68796324D01*
X120872499Y-68731423D01*
X120650000Y-68709509D01*
X120515000Y-68722805D01*
X120515000Y-68625867D01*
X120995868Y-68145000D01*
X123201284Y-68145000D01*
X123191928Y-68240000D01*
M02*
